<?xml version="1.0" encoding="iso-8859-1"?>
<!-- Generator: Adobe Illustrator 12.0.1, SVG Export Plug-In . SVG Version: 6.00 Build 51448)  -->
<!DOCTYPE svg PUBLIC "-//W3C//DTD SVG 1.1//EN" "http://www.w3.org/Graphics/SVG/1.1/DTD/svg11.dtd" [
	<!ENTITY ns_svg "http://www.w3.org/2000/svg">
	<!ENTITY ns_xlink "http://www.w3.org/1999/xlink">
]>
<svg  version="1.1" id="&#x56FE;&#x5C42;_1" xmlns="&ns_svg;" xmlns:xlink="&ns_xlink;" width="26.219" height="24.077"
	 viewBox="0 0 26.219 24.077" style="overflow:visible;enable-background:new 0 0 26.219 24.077;" xml:space="preserve">
<g>
	<path style="fill:#8F4E46;" d="M24.614,12.355l-0.905,0.291l-0.354-0.104l0.109-9.652c-0.001-0.588-0.193-0.879-0.475-1.035
		c0,0-0.772-0.116-1-0.156l-9.604-1.651c-0.447-0.077-1.175-0.06-1.616,0.042L0.797,2.333C0.355,2.434-0.004,2.886,0,3.341
		l0.14,16.893c0.004,0.454,0.367,0.912,0.808,1.019l10.438,2.681c0.234,0.054,0.396,0.078,0.532,0.089
		c0.095,0.054,0.197,0.078,0.312,0.028l3.874-1.506l0.417,0.666l1.563,0.314l7.708-3.669l0.427-7.012L24.614,12.355z"/>
	<path style="fill:#F39700;" d="M22.146,2.135l-9.698-1.655c-0.432-0.075-1.134-0.058-1.56,0.04L1.269,2.684
		C0.843,2.78,0.496,3.217,0.5,3.655l0.135,16.296c0.004,0.438,0.354,0.88,0.779,0.982l9.988,2.571
		c1.349,0.31,0.783-0.17,0.797-0.607l0.557-17.485c0.014-0.438,0.374-0.876,0.801-0.975l8.598-1.987
		C22.58,2.352,22.578,2.21,22.146,2.135z"/>
	<linearGradient id="XMLID_6_" gradientUnits="userSpaceOnUse" x1="8.585" y1="1.7109" x2="16.8651" y2="27.904">
		<stop  offset="0.0618" style="stop-color:#F7AE00"/>
		<stop  offset="1" style="stop-color:#FCCB00"/>
	</linearGradient>
	<path style="fill:url(#XMLID_6_);" d="M11.839,23.077l-9.988-2.571c-0.425-0.103-0.775-0.545-0.779-0.982L0.937,3.228
		c-0.001-0.161,0.057-0.316,0.136-0.46c-0.318,0.17-0.555,0.518-0.552,0.877L0.655,19.94c0.004,0.438,0.354,0.88,0.779,0.982
		l9.988,2.571c1.066,0.245,0.938-0.005,0.843-0.336C12.15,23.143,12.011,23.116,11.839,23.077z M22.166,2.124l-0.009-0.001
		L13.993,4.01c-0.271,0.063-0.505,0.27-0.65,0.52c0.075-0.042,0.151-0.083,0.234-0.103l8.598-1.987
		C22.601,2.341,22.599,2.199,22.166,2.124z"/>
	<path style="opacity:0.17;fill:#FFFFFF;" d="M1.751,2.59L1.264,2.699C0.838,2.796,0.491,3.232,0.495,3.671L0.5,4.284
		C1.578,4.394,11,5.919,12.667,6.396l0.458-2.208L1.751,2.59z"/>
	<g>
		<path style="fill:#FDCD00;" d="M22.292,2.147l-9.996,2.077c-0.354,0.069-0.648,0.66-0.647,1.315l-0.075,17.185
			c0.002,0.646,0.293,1.045,0.644,0.894l10.158-3.792c0.273-0.118,0.496-0.675,0.498-1.238l0.181-15.381
			C23.053,2.64,22.564,2.094,22.292,2.147z"/>
		<path style="fill:#8F4E46;" d="M12.816,6.026l-0.007,7.281l9.081-2.735l0.031-6.5L12.816,6.026z M21.56,10.404l-8.332,2.479
			l0.009-6.649l8.35-1.821L21.56,10.404z"/>
		<polygon style="opacity:0.32;fill:#FFFFFF;" points="21.601,4.741 13.235,6.603 13.237,6.276 21.602,4.443 		"/>
	</g>
	<g>
		<path style="fill:#8F4E46;" d="M20.019,5.931l-4.114,0.804c-0.207,0.036-0.384,0.269-0.39,0.513l-0.118,3.688
			c-0.007,0.248,0.166,0.399,0.377,0.339l4.13-1.239c0.203-0.061,0.372-0.308,0.378-0.553l0.084-3.193
			C20.371,6.056,20.213,5.896,20.019,5.931z"/>
		<path style="fill:#733D37;" d="M15.483,11.02L15.6,7.331c0.007-0.242,0.181-0.472,0.386-0.511l4.111-0.806
			C20.173,6,20.239,6.021,20.301,6.056c-0.065-0.09-0.164-0.147-0.282-0.125l-4.114,0.804c-0.207,0.036-0.384,0.269-0.39,0.513
			l-0.118,3.688c-0.001,0.148,0.058,0.25,0.146,0.307C15.508,11.182,15.48,11.111,15.483,11.02z"/>
		<polygon style="fill:#733D37;" points="16.233,11.151 19.794,10.075 19.797,7.6 16.353,8.377 		"/>
		
			<linearGradient id="XMLID_7_" gradientUnits="userSpaceOnUse" x1="21.0098" y1="2.6602" x2="20.7687" y2="5.5337" gradientTransform="matrix(0.9958 -0.0974 0.097 0.9953 -3.118 7.4016)">
			<stop  offset="0.0618" style="stop-color:#F08522"/>
			<stop  offset="1" style="stop-color:#F1AC00"/>
		</linearGradient>
		<polygon style="fill:url(#XMLID_7_);" points="16.374,11.131 19.781,10.095 19.788,7.761 16.484,8.526 		"/>
		
			<linearGradient id="XMLID_8_" gradientUnits="userSpaceOnUse" x1="21.0713" y1="2.5859" x2="20.8833" y2="4.826" gradientTransform="matrix(0.9958 -0.0974 0.097 0.9953 -3.118 7.4016)">
			<stop  offset="0.0618" style="stop-color:#EEB426"/>
			<stop  offset="1" style="stop-color:#F1AC00"/>
		</linearGradient>
		<polygon style="opacity:0.6;fill:url(#XMLID_8_);" points="16.487,8.501 16.458,9.106 19.013,8.502 19,10.331 19.781,10.095 
			19.785,7.729 		"/>
	</g>
	<polygon style="fill:#8F4E46;" points="12.959,14.669 22,11.981 22.364,18.215 12.875,21.919 	"/>
	<polygon style="fill:#F39700;" points="13.792,21.147 17.749,22.127 17.736,15.543 13.839,14.901 	"/>
	<polygon style="fill:#FAC000;" points="18.421,15.205 14.677,14.637 13.839,14.901 17.646,15.571 	"/>
	<polygon style="fill:#CC6100;" points="20.864,12.684 20.938,17.231 23.751,16.877 24.438,14.669 25.042,13.304 	"/>
	<polygon style="fill:#FAC000;" points="25.692,13.313 21.677,12.48 20.864,12.684 24.583,13.637 	"/>
	<polygon style="fill:#FAC000;" points="18.038,15.355 25.667,12.876 24.614,12.605 17.084,15.002 	"/>
	<polygon style="fill:#FDA800;" points="17.084,15.002 18.017,15.272 17.864,23.105 16.874,22.855 	"/>
	<polygon style="fill:#FDCD00;" points="17.864,23.105 25.304,19.582 25.667,12.876 18.021,15.313 	"/>
	<g>
		<path style="fill:#8F4E46;" d="M23.851,14.8l-3.53,1.103c-0.181,0.055-0.327,0.299-0.32,0.537l0.058,3.566
			c0.004,0.235,0.159,0.359,0.34,0.281l3.45-1.565c0.167-0.077,0.301-0.323,0.301-0.552l0.003-3.049
			C24.152,14.895,24.014,14.75,23.851,14.8z"/>
		<path style="fill:#733D37;" d="M20.137,20.076l-0.06-3.561c-0.004-0.238,0.139-0.479,0.318-0.534l3.524-1.106
			c0.063-0.021,0.119-0.005,0.173,0.023c-0.059-0.081-0.141-0.13-0.242-0.099l-3.53,1.103c-0.181,0.055-0.327,0.299-0.32,0.537
			l0.058,3.566c0.005,0.14,0.061,0.229,0.14,0.275C20.164,20.227,20.138,20.162,20.137,20.076z"/>
		<polygon style="fill:#733D37;" points="20.787,20.123 23.757,18.769 23.702,16.428 20.781,17.47 		"/>
		
			<linearGradient id="XMLID_9_" gradientUnits="userSpaceOnUse" x1="18.8555" y1="8.583" x2="18.601" y2="11.6153" gradientTransform="matrix(0.8686 -0.1204 0.1301 0.954 4.721 10.9555)">
			<stop  offset="0.0618" style="stop-color:#F08522"/>
			<stop  offset="1" style="stop-color:#F1AC00"/>
		</linearGradient>
		<polygon style="fill:url(#XMLID_9_);" points="20.906,20.09 23.747,18.787 23.7,16.584 20.901,17.603 		"/>
		
			<linearGradient id="XMLID_10_" gradientUnits="userSpaceOnUse" x1="18.9248" y1="8.4961" x2="18.7363" y2="10.743" gradientTransform="matrix(0.8686 -0.1204 0.1301 0.954 4.721 10.9555)">
			<stop  offset="0.0618" style="stop-color:#EEB426"/>
			<stop  offset="1" style="stop-color:#F1AC00"/>
		</linearGradient>
		<polygon style="opacity:0.6;fill:url(#XMLID_10_);" points="20.903,17.577 20.903,18.162 23.064,17.355 23.104,19.082 
			23.747,18.787 23.695,16.552 		"/>
	</g>
</g>
</svg>
