<?xml version="1.0" encoding="UTF-8" standalone="no"?>
<!-- Created with Inkscape (http://www.inkscape.org/) -->
<svg
   xmlns:dc="http://purl.org/dc/elements/1.1/"
   xmlns:cc="http://web.resource.org/cc/"
   xmlns:rdf="http://www.w3.org/1999/02/22-rdf-syntax-ns#"
   xmlns:svg="http://www.w3.org/2000/svg"
   xmlns="http://www.w3.org/2000/svg"
   xmlns:sodipodi="http://inkscape.sourceforge.net/DTD/sodipodi-0.dtd"
   xmlns:inkscape="http://www.inkscape.org/namespaces/inkscape"
   width="64px"
   height="64px"
   id="svg1306"
   sodipodi:version="0.32"
   inkscape:version="0.42.2"
   sodipodi:docbase="/home/rbiggs/svgicons"
   sodipodi:docname="qtopiaflake.svg">
  <defs
     id="defs1308" />
  <sodipodi:namedview
     id="base"
     pagecolor="#ffffff"
     bordercolor="#666666"
     borderopacity="1.0"
     inkscape:pageopacity="0.0"
     inkscape:pageshadow="2"
     inkscape:zoom="11.000000"
     inkscape:cx="32.435905"
     inkscape:cy="22.942202"
     inkscape:current-layer="layer1"
     showgrid="true"
     inkscape:document-units="px"
     inkscape:grid-bbox="true"
     inkscape:window-width="1592"
     inkscape:window-height="1118"
     inkscape:window-x="0"
     inkscape:window-y="0" />
  <metadata
     id="metadata1311">
    <rdf:RDF>
      <cc:Work
         rdf:about="">
        <dc:format>image/svg+xml</dc:format>
        <dc:type
           rdf:resource="http://purl.org/dc/dcmitype/StillImage" />
      </cc:Work>
    </rdf:RDF>
  </metadata>
  <g
     id="layer1"
     inkscape:label="Layer 1"
     inkscape:groupmode="layer">
    <path
       style="fill:#ffffff;fill-opacity:1.0000000;stroke:none;stroke-width:1.2500000;stroke-miterlimit:4.0000000;stroke-dasharray:none;stroke-opacity:1.0000000"
       d="M 32.000000 0.62500000 C 14.682110 0.62500000 0.62500002 14.681607 0.62500000 32.000000 C 0.62500000 49.318391 14.682111 63.375001 32.000000 63.375000 C 38.239218 63.375000 44.018728 61.487824 48.906250 58.343750 L 53.000000 62.437500 L 62.906250 52.531250 L 58.687500 48.312500 C 61.607539 43.547574 63.375000 37.994202 63.375000 32.000000 C 63.375000 14.681609 49.317890 0.62500002 32.000000 0.62500000 z M 32.000000 9.0000000 C 44.692921 8.9999997 55.000000 19.307080 55.000000 32.000000 C 54.999998 44.692920 44.692920 55.000000 32.000000 55.000000 C 19.307080 54.999999 9.0000000 44.692920 9.0000000 32.000000 C 8.9999995 19.307079 19.307080 9.0000000 32.000000 9.0000000 z "
       id="path5738" />
  </g>
</svg>
