<?xml version="1.0" encoding="iso-8859-1"?>
<!-- Generator: Adobe Illustrator 12.0.1, SVG Export Plug-In . SVG Version: 6.00 Build 51448)  -->
<!DOCTYPE svg PUBLIC "-//W3C//DTD SVG 1.1//EN" "http://www.w3.org/Graphics/SVG/1.1/DTD/svg11.dtd" [
	<!ENTITY ns_svg "http://www.w3.org/2000/svg">
	<!ENTITY ns_xlink "http://www.w3.org/1999/xlink">
]>
<svg  version="1.1" id="&#x56FE;&#x5C42;_1" xmlns="&ns_svg;" xmlns:xlink="&ns_xlink;" width="21.504" height="18.388"
	 viewBox="0 0 21.504 18.388" style="overflow:visible;enable-background:new 0 0 21.504 18.388;" xml:space="preserve">
<g>
	<path style="fill:#00FFFF;stroke:#000000;stroke-linejoin:round;" d="M17.787,0.5L0.5,17.888l5.158-0.1l3.687-3.804l8.49-0.083
		l-0.048,3.954h3.217V0.5H17.787z M11.354,11.925l6.469-6.383v6.315L11.354,11.925z"/>
	<polygon style="fill:#80FF2E;stroke:#000000;stroke-linejoin:round;" points="11.421,4.159 7.777,4.159 7.777,0.516 5.616,0.516 
		5.616,4.159 1.974,4.159 1.974,6.32 5.616,6.32 5.616,9.963 7.777,9.963 7.777,6.32 11.421,6.32 	"/>
	<polygon style="opacity:0.52;fill:#28AECE;" points="21.02,0.817 19.914,0.817 19.914,16.494 17.704,16.476 17.698,17.58 
		21.02,17.526 	"/>
	<polygon style="opacity:0.52;fill:#28AECE;" points="18.083,13.022 10.185,13.076 17.936,5.025 17.332,4.859 4.441,17.445 
		5.216,18.237 9.227,14.071 18.078,14.126 	"/>
	<polygon style="opacity:0.52;fill:#83C9D4;" points="1.854,18.175 0.778,17.485 17.802,0.819 18.935,0.842 	"/>
</g>
</svg>
