<?xml version="1.0" encoding="iso-8859-1"?>
<!-- Generator: Adobe Illustrator 12.0.1, SVG Export Plug-In . SVG Version: 6.00 Build 51448)  -->
<!DOCTYPE svg PUBLIC "-//W3C//DTD SVG 1.1//EN" "http://www.w3.org/Graphics/SVG/1.1/DTD/svg11.dtd" [
	<!ENTITY ns_svg "http://www.w3.org/2000/svg">
	<!ENTITY ns_xlink "http://www.w3.org/1999/xlink">
]>
<svg  version="1.1" id="&#x56FE;&#x5C42;_1" xmlns="&ns_svg;" xmlns:xlink="&ns_xlink;" width="19.378" height="21.044"
	 viewBox="0 0 19.378 21.044" style="overflow:visible;enable-background:new 0 0 19.378 21.044;" xml:space="preserve">
<g>
	<linearGradient id="XMLID_2_" gradientUnits="userSpaceOnUse" x1="25.1719" y1="20.769" x2="-7.5564" y2="20.769">
		<stop  offset="0.0056" style="stop-color:#FFFFFF"/>
		<stop  offset="0.1222" style="stop-color:#FBFBFB"/>
		<stop  offset="0.246" style="stop-color:#EEEEEE"/>
		<stop  offset="0.3732" style="stop-color:#D9D9D9"/>
		<stop  offset="0.5028" style="stop-color:#BBBBBB"/>
		<stop  offset="0.6344" style="stop-color:#949494"/>
		<stop  offset="0.7674" style="stop-color:#656565"/>
		<stop  offset="0.8991" style="stop-color:#2F2F2F"/>
		<stop  offset="1" style="stop-color:#000000"/>
	</linearGradient>
	<polygon style="fill:url(#XMLID_2_);" points="19.038,20.982 8.13,20.966 8.378,20.647 19.283,20.556 	"/>
	<g>
		<path style="fill:#FFF200;stroke:#11100F;stroke-width:0.25;" d="M13.256,18.31c0,0-3,2.447-4.714,1.597l0,0
			c-1.714-0.853-1.488-4.681-1.488-4.681l5.919-11.248l2.281,0.144l2.673,1.417l1.303,1.698L13.256,18.31z"/>
		<polygon style="fill:#B86103;" points="13.118,18.367 11.263,17.098 17.904,5.63 19.252,7.32 		"/>
		<polygon style="fill:#CE800F;" points="11.437,17.163 8.668,15.803 15.231,4.213 17.904,5.63 		"/>
		<polygon style="fill:#F6BC45;" points="8.906,15.924 6.971,15.387 13.068,3.974 15.231,4.213 		"/>
		<polygon style="fill:#F9E2B8;" points="8.831,19.863 8.244,19.499 8.957,15.877 11.204,17.048 		"/>
		<polygon style="fill:#FAF7E9;" points="8.244,19.499 7.457,18.768 6.971,15.387 8.957,15.877 		"/>
		<polygon style="fill:#BCA584;" points="10.066,20.127 8.871,19.806 11.204,17.048 13.176,18.361 		"/>
		<polygon points="8.028,21.044 7.401,18.785 10.023,20.159 		"/>
	</g>
</g>
<polygon style="fill:#5EB323;stroke:#000000;stroke-linejoin:round;" points="13.601,5.552 8.548,5.552 8.548,0.5 5.552,0.5 
	5.552,5.552 0.5,5.552 0.5,8.549 5.552,8.549 5.552,13.601 8.548,13.601 8.548,8.549 13.601,8.549 "/>
</svg>
