<?xml version="1.0" encoding="iso-8859-1"?>
<!-- Generator: Adobe Illustrator 12.0.1, SVG Export Plug-In . SVG Version: 6.00 Build 51448)  -->
<!DOCTYPE svg PUBLIC "-//W3C//DTD SVG 1.1//EN" "http://www.w3.org/Graphics/SVG/1.1/DTD/svg11.dtd" [
	<!ENTITY ns_svg "http://www.w3.org/2000/svg">
	<!ENTITY ns_xlink "http://www.w3.org/1999/xlink">
]>
<svg  version="1.1" id="&#x56FE;&#x5C42;_1" xmlns="&ns_svg;" xmlns:xlink="&ns_xlink;" width="27.234" height="29.89"
	 viewBox="0 0 27.234 29.89" style="overflow:visible;enable-background:new 0 0 27.234 29.89;" xml:space="preserve">
<g>
	<linearGradient id="XMLID_4_" gradientUnits="userSpaceOnUse" x1="25.0469" y1="28.4326" x2="6.6094" y2="28.4326">
		<stop  offset="0" style="stop-color:#FFFFFF"/>
		<stop  offset="1" style="stop-color:#000000"/>
	</linearGradient>
	<polygon style="fill:url(#XMLID_4_);" points="25.478,29.89 5.646,28.463 5.797,27.35 24.922,26.975 	"/>
	<path style="fill:#BFFF0B;stroke:#878787;stroke-width:0.5;" d="M14.979,0.257c-0.916,0.165-0.501,1.286-0.143,3.151
		c0.356,1.865,0.699,6.61-2.462,6.963C11.46,8.138,11.358,6.859,9.109,5.35C6.995,3.93,4.577,4.595,3.672,6.005
		c-1.118,1.741-0.757,4.682,2.086,5.707c1.898,0.685,2.82,0.7,4.961,0.794c0.334,0.968,1.632,3.708-1.927,5.333
		c0,0-0.573-2.833-3.375-4.249c-2.017-1.02-4.544-0.214-5.021,1.458c-0.553,1.936,0.515,3.806,2.5,4.854
		c1.125,0.594,2.705,1.1,4.271,0.584c0.263,1.829,1.52,3.998,2.559,5.55c1.509,2.252,6.462,1.033,6.462,1.033
		s1.469-0.469,1.375-1.047c-0.063-0.389-0.219-0.594-1.104-0.555c-1.172,0.052-3.569,1.461-5.677-1.211
		c-0.977-1.238-1.438-2.693-1.5-4.469c0.516-0.469,4.784-1.704,3.517-7.552c1.191-0.5,5.201-1.928,3.593-9.776
		C16.391,2.459,15.843,0.102,14.979,0.257z M7.167,10.193c-1.339-0.5-2.356-1.714-1.766-2.828c0.406-0.766,1.772-1.095,2.989,0
		c1.198,1.078,1.522,1.812,1.75,3.172C8.809,10.521,8.185,10.573,7.167,10.193z M4.563,18.584c-1.522-0.486-2.313-1.578-2.077-2.432
		c0.321-1.165,2.065-0.996,3.035-0.188c1.323,1.104,1.356,2.47,1.354,2.447C6.875,18.412,5.995,19.042,4.563,18.584z"/>
	<g>
		
			<linearGradient id="XMLID_5_" gradientUnits="userSpaceOnUse" x1="-1.1924" y1="-2.7153" x2="1.6472" y2="-2.7153" gradientTransform="matrix(0.7669 0.6418 -0.6418 0.7669 7.1963 26.118)">
			<stop  offset="0" style="stop-color:#D9D9D9"/>
			<stop  offset="1" style="stop-color:#000000"/>
		</linearGradient>
		<polygon style="fill:url(#XMLID_5_);stroke:#000000;stroke-width:0.25;" points="8.027,27.875 7.662,27.936 7.514,28.115 
			5.646,28.463 5.42,28.272 5.518,26.429 5.689,26.225 5.621,25.816 11.398,18.911 13.827,20.944 		"/>
		
			<linearGradient id="XMLID_6_" gradientUnits="userSpaceOnUse" x1="-1.6387" y1="-16.8936" x2="2.1025" y2="-16.8936" gradientTransform="matrix(0.7669 0.6418 -0.6418 0.7669 7.1963 26.118)">
			<stop  offset="0" style="stop-color:#D9D9D9"/>
			<stop  offset="1" style="stop-color:#000000"/>
		</linearGradient>
		<polygon style="fill:url(#XMLID_6_);stroke:#000000;stroke-width:0.25;" points="12.167,23.298 9.375,20.961 24.265,3.325 
			27.058,5.661 		"/>
	</g>
</g>
</svg>
