<?xml version="1.0" encoding="iso-8859-1"?>
<!-- Generator: Adobe Illustrator 12.0.1, SVG Export Plug-In . SVG Version: 6.00 Build 51448)  -->
<!DOCTYPE svg PUBLIC "-//W3C//DTD SVG 1.1//EN" "http://www.w3.org/Graphics/SVG/1.1/DTD/svg11.dtd" [
	<!ENTITY ns_svg "http://www.w3.org/2000/svg">
	<!ENTITY ns_xlink "http://www.w3.org/1999/xlink">
]>
<svg  version="1.1" id="&#x56FE;&#x5C42;_1" xmlns="&ns_svg;" xmlns:xlink="&ns_xlink;" width="125.373" height="126.721"
	 viewBox="0 0 125.373 126.721" style="overflow:visible;enable-background:new 0 0 125.373 126.721;" xml:space="preserve">
<rect y="0.04" style="fill:none;" width="125.373" height="125.373"/>
<polygon style="fill:#BCBEC0;stroke:#000000;" points="99.414,102.007 41.759,125.972 41.759,46.444 99.414,22.48 "/>
<polygon style="fill:#FFFFFF;stroke:#000000;" points="41.759,125.972 25.717,119.615 25.717,40.089 41.759,46.444 "/>
<linearGradient id="XMLID_9_" gradientUnits="userSpaceOnUse" x1="110.5381" y1="13.1768" x2="-2.6944" y2="55.9527">
	<stop  offset="0" style="stop-color:#F9DB8E"/>
	<stop  offset="0.1368" style="stop-color:#F9DC94"/>
	<stop  offset="0.3402" style="stop-color:#FAE1A3"/>
	<stop  offset="0.5849" style="stop-color:#FCE9BE"/>
	<stop  offset="0.8596" style="stop-color:#FEF5E4"/>
	<stop  offset="1" style="stop-color:#FFFFFF"/>
</linearGradient>
<polygon style="fill:url(#XMLID_9_);" points="41.759,46.447 25.717,40.09 83.395,16.144 99.435,22.5 "/>
<path style="fill:#ABB1B8;" d="M41.852,46.542v48.035c0,0,1.016,20.079,8.896,27.959l56.424-23.383c0,0-8.134-8.641-8.134-23.384
	c0-14.741-0.764-52.357-0.764-52.357L41.852,46.542z"/>
<linearGradient id="XMLID_10_" gradientUnits="userSpaceOnUse" x1="48.7915" y1="65.9312" x2="140.2875" y2="91.6015">
	<stop  offset="0" style="stop-color:#FFFFFF"/>
	<stop  offset="1" style="stop-color:#C9CDD3"/>
</linearGradient>
<path style="fill:url(#XMLID_10_);stroke:#000000;" d="M43.046,47.049v48.036c0,0,1.017,20.077,8.896,27.957l56.423-23.382
	c0,0-8.133-8.642-8.133-23.383c0-14.742-0.762-52.355-0.762-52.355L43.046,47.049z"/>
<linearGradient id="XMLID_11_" gradientUnits="userSpaceOnUse" x1="112.2227" y1="37.8936" x2="49.044" y2="24.0735">
	<stop  offset="0" style="stop-color:#D5E1A1"/>
	<stop  offset="0.09" style="stop-color:#D0DF97"/>
	<stop  offset="0.2563" style="stop-color:#C1D77F"/>
	<stop  offset="0.4791" style="stop-color:#AACE54"/>
	<stop  offset="0.5674" style="stop-color:#A1CA42"/>
	<stop  offset="0.9831" style="stop-color:#2DB34A"/>
</linearGradient>
<polygon style="fill:url(#XMLID_11_);stroke:#00964B;" points="102.918,24.185 39.777,50.427 39.777,33.722 102.918,7.476 "/>
<linearGradient id="XMLID_12_" gradientUnits="userSpaceOnUse" x1="38.6333" y1="39.7471" x2="22.2343" y2="37.272">
	<stop  offset="0" style="stop-color:#D5E1A1"/>
	<stop  offset="0.09" style="stop-color:#D0DF97"/>
	<stop  offset="0.2563" style="stop-color:#C1D77F"/>
	<stop  offset="0.4791" style="stop-color:#AACE54"/>
	<stop  offset="0.5674" style="stop-color:#A1CA42"/>
	<stop  offset="0.9831" style="stop-color:#65BC46"/>
</linearGradient>
<polygon style="fill:url(#XMLID_12_);stroke:#00964B;" points="39.777,50.427 22.21,43.466 22.21,26.76 39.777,33.722 "/>
<linearGradient id="XMLID_13_" gradientUnits="userSpaceOnUse" x1="115.1011" y1="-2.7109" x2="-8.9043" y2="44.1347">
	<stop  offset="0" style="stop-color:#D5E1A1"/>
	<stop  offset="0.09" style="stop-color:#D0DF97"/>
	<stop  offset="0.2563" style="stop-color:#C1D77F"/>
	<stop  offset="0.4791" style="stop-color:#AACE54"/>
	<stop  offset="0.5674" style="stop-color:#A1CA42"/>
	<stop  offset="0.9831" style="stop-color:#65BC46"/>
</linearGradient>
<polygon style="fill:url(#XMLID_13_);stroke:#00964B;" points="39.777,33.722 22.21,26.763 85.373,0.54 102.94,7.499 "/>
<linearGradient id="XMLID_14_" gradientUnits="userSpaceOnUse" x1="-29.3057" y1="127.1206" x2="88.1398" y2="81.5437">
	<stop  offset="0" style="stop-color:#FFFFFF"/>
	<stop  offset="1" style="stop-color:#9EA4AB"/>
</linearGradient>
<polygon style="fill:url(#XMLID_14_);" points="95.902,80.432 50.29,99.389 50.29,94.333 95.902,75.375 "/>
<linearGradient id="XMLID_15_" gradientUnits="userSpaceOnUse" x1="-24.7729" y1="135.2437" x2="90.481" y2="90.5171">
	<stop  offset="0" style="stop-color:#FFFFFF"/>
	<stop  offset="1" style="stop-color:#9EA4AB"/>
</linearGradient>
<polygon style="fill:url(#XMLID_15_);" points="98.978,89.146 53.366,108.103 52.459,103.347 98.071,84.391 "/>
<linearGradient id="XMLID_16_" gradientUnits="userSpaceOnUse" x1="64.5786" y1="62.8394" x2="87.0174" y2="65.4793">
	<stop  offset="0" style="stop-color:#000000"/>
	<stop  offset="1" style="stop-color:#000000"/>
</linearGradient>
<polygon style="fill:url(#XMLID_16_);" points="65.309,48.656 71.711,45.833 71.711,77.731 65.309,80.769 "/>
<g>
	<polygon style="fill:#838A91;" points="92.615,43.309 77.513,50.507 77.513,48.639 92.549,41.667 	"/>
	<polygon style="fill:#838A91;" points="92.615,47.31 77.513,54.508 77.513,52.64 92.549,45.667 	"/>
	<polygon style="fill:#838A91;" points="92.615,51.669 77.513,58.867 77.513,56.999 92.549,50.025 	"/>
	<polygon style="fill:#838A91;" points="86.828,58.6 77.513,63.153 77.513,61.285 86.762,56.958 	"/>
</g>
<polygon style="fill:#BCBEC0;" points="34.96,123.031 35.934,123.564 35.839,97.917 "/>
<path style="fill:none;stroke:#000000;stroke-width:6;" d="M48.134,57.913c4-2.5,10.296-5.929,11.5,2.5c1,7-6.5,7-10,9.5
	c6.5-1.5,11-2.021,11,4c0,5-3.5,6-11.5,7.5"/>
</svg>
