<?xml version="1.0" encoding="UTF-8" standalone="no"?>
<!-- Generator: Adobe Illustrator 12.0.1, SVG Export Plug-In . SVG Version: 6.00 Build 51448)  -->
<svg
   xmlns:dc="http://purl.org/dc/elements/1.1/"
   xmlns:cc="http://web.resource.org/cc/"
   xmlns:rdf="http://www.w3.org/1999/02/22-rdf-syntax-ns#"
   xmlns:svg="http://www.w3.org/2000/svg"
   xmlns="http://www.w3.org/2000/svg"
   xmlns:sodipodi="http://sodipodi.sourceforge.net/DTD/sodipodi-0.dtd"
   xmlns:inkscape="http://www.inkscape.org/namespaces/inkscape"
   version="1.0"
   id="图层_1"
   width="13"
   height="14"
   viewBox="0 0 16.432 16.417"
   style="overflow:visible;enable-background:new 0 0 16.432 16.417;"
   xml:space="preserve"
   sodipodi:version="0.32"
   inkscape:version="0.44.1"
   sodipodi:docname="callforwarding.svg"
   sodipodi:docbase="/home/user"><metadata
   id="metadata18"><rdf:RDF><cc:Work
       rdf:about=""><dc:format>image/svg+xml</dc:format><dc:type
         rdf:resource="http://purl.org/dc/dcmitype/StillImage" /></cc:Work></rdf:RDF></metadata><defs
   id="defs16">
	
	
</defs><sodipodi:namedview
   inkscape:window-height="1113"
   inkscape:window-width="1600"
   inkscape:pageshadow="2"
   inkscape:pageopacity="0.0"
   guidetolerance="10.0"
   gridtolerance="10.0"
   objecttolerance="10.0"
   borderopacity="1.0"
   bordercolor="#666666"
   pagecolor="#ffffff"
   id="base"
   width="13px"
   height="14px"
   inkscape:zoom="24.791375"
   inkscape:cx="8.2159996"
   inkscape:cy="8.1883316"
   inkscape:window-x="0"
   inkscape:window-y="31"
   inkscape:current-layer="图层_1" />
<rect
   x="0.015"
   style="fill:none"
   width="16.417"
   height="16.417"
   id="rect3"
   y="0" />
<g
   id="g7"
   transform="matrix(0.949583,0,0,0.937606,0.460799,0.355031)"
   style="fill:black;fill-opacity:1;stroke:white;stroke-width:1.14802456;stroke-linejoin:miter;stroke-miterlimit:4;stroke-dasharray:none;stroke-opacity:1">
		<path
   id="path9"
   d="M 15.813,3.138 C 15.808,2.982 15.675,2.851 15.52,2.847 L 6.539,2.62 C 6.384,2.616 6.347,2.702 6.459,2.811 L 9.464,5.75 C 9.576,5.859 9.577,6.039 9.467,6.149 L 7.532,8.089 C 7.422,8.199 7.242,8.2 7.131,8.089 L 3.482,4.451 C 3.371,4.341 3.191,4.341 3.081,4.451 L 0.332,7.209 C 0.222,7.32 0.223,7.5 0.333,7.61 L 7.143,14.398 C 7.253,14.508 7.434,14.508 7.544,14.398 L 12.656,9.27 C 12.766,9.16 12.947,9.159 13.059,9.268 L 15.933,12.079 C 16.045,12.188 16.131,12.15 16.126,11.994 L 15.813,3.138 z "
   style="fill:black;fill-opacity:1;stroke:white;stroke-width:1.14802456;stroke-linejoin:miter;stroke-miterlimit:4;stroke-dasharray:none;stroke-opacity:1" />
		<path
   id="path11"
   d="M 15.813,3.138 C 15.808,2.982 15.675,2.851 15.52,2.847 L 6.539,2.62 C 6.384,2.616 6.347,2.702 6.459,2.811 L 9.464,5.75 C 9.576,5.859 9.577,6.039 9.467,6.149 L 7.532,8.089 C 7.422,8.199 7.242,8.2 7.131,8.089 L 3.482,4.451 C 3.371,4.341 3.191,4.341 3.081,4.451 L 0.332,7.209 C 0.222,7.32 0.223,7.5 0.333,7.61 L 7.143,14.398 C 7.253,14.508 7.434,14.508 7.544,14.398 L 12.656,9.27 C 12.766,9.16 12.947,9.159 13.059,9.268 L 15.933,12.079 C 16.045,12.188 16.131,12.15 16.126,11.994 L 15.813,3.138 z "
   style="fill:black;fill-opacity:1;stroke:white;stroke-width:1.14802456;stroke-linejoin:miter;stroke-miterlimit:4;stroke-dasharray:none;stroke-opacity:1" />
	</g>
</svg>
