<?xml version="1.0" encoding="UTF-8" standalone="no"?>
<!-- Generator: Adobe Illustrator 12.0.0, SVG Export Plug-In . SVG Version: 6.00 Build 51448)  -->
<svg
   xmlns:dc="http://purl.org/dc/elements/1.1/"
   xmlns:cc="http://web.resource.org/cc/"
   xmlns:rdf="http://www.w3.org/1999/02/22-rdf-syntax-ns#"
   xmlns:svg="http://www.w3.org/2000/svg"
   xmlns="http://www.w3.org/2000/svg"
   xmlns:sodipodi="http://sodipodi.sourceforge.net/DTD/sodipodi-0.dtd"
   xmlns:inkscape="http://www.inkscape.org/namespaces/inkscape"
   version="1.0"
   id="Í_xBC__xB2_ã_x5F_1"
   width="45"
   height="45"
   viewBox="0 0 123.445 107.753"
   style="overflow:visible;enable-background:new 0 0 123.445 107.753;"
   xml:space="preserve"
   sodipodi:version="0.32"
   inkscape:version="0.44.1"
   sodipodi:docname="message.svg"
   sodipodi:docbase="/home/user"><metadata
   id="metadata39"><rdf:RDF><cc:Work
       rdf:about=""><dc:format>image/svg+xml</dc:format><dc:type
         rdf:resource="http://purl.org/dc/dcmitype/StillImage" /></cc:Work></rdf:RDF></metadata><defs
   id="defs37" /><sodipodi:namedview
   inkscape:window-height="616"
   inkscape:window-width="873"
   inkscape:pageshadow="2"
   inkscape:pageopacity="0.0"
   guidetolerance="10.0"
   gridtolerance="10.0"
   objecttolerance="10.0"
   borderopacity="1.0"
   bordercolor="#666666"
   pagecolor="#ffffff"
   id="base"
   width="45px"
   height="45px"
   inkscape:zoom="3.7771571"
   inkscape:cx="61.7225"
   inkscape:cy="53.744124"
   inkscape:window-x="483"
   inkscape:window-y="70"
   inkscape:current-layer="Í_xBC__xB2_ã_x5F_1" />
<g
   id="g3"
   transform="matrix(0.952956,0,0,0.952956,2.904492,2.534545)">
	<path
   style="fill:#865c24;stroke:#584016;stroke-width:2.09873271"
   d="M 119.407,65.505 C 119.407,65.505 123.479,70.722 112.261,76.37 C 101.398,81.839 43.932,103.529 37.072,105.813 C 30.212,108.102 31.07,106.102 28.495,100.956 C 25.922,95.81 5.052,41.489 2.191,34.917 C -0.666,28.341 1.876,25.845 7.052,25.196 C 87.896,15.054 119.407,65.505 119.407,65.505"
   id="path5" />
	<path
   style="fill:#fecc25;stroke:#5d3d16;stroke-width:1.57404959"
   d="M 121.018,55.113 C 104.722,29.668 89.284,5.367 89.284,5.367 C 89.284,5.367 87.283,0.222 82.135,0.794 C 76.991,1.364 12.094,16.231 12.094,16.231 C 12.094,16.231 4.239,17.13 6.66,24.809 C 9.272,33.086 28.961,81.988 32.391,88.849 C 35.821,95.708 36.394,96.852 43.826,93.994 C 55.423,89.534 109.078,69.372 118.158,64.834 C 123.305,62.259 123.797,59.454 121.018,55.113 z "
   id="path7" />
	<path
   style="fill:none;stroke:#8a6224;stroke-width:1.57404959"
   d="M 122.733,60.83 C 122.733,60.83 89.103,39.204 80.813,34.058"
   id="path9" />
	<path
   style="fill:none;stroke:#8a6224;stroke-width:1.57404959"
   d="M 53.938,41.778 C 53.938,41.778 43.361,77.228 37.358,95.237"
   id="path11" />
	
		<linearGradient
   id="XMLID_2_"
   gradientUnits="userSpaceOnUse"
   x1="1221.9253"
   y1="-5.3607998"
   x2="1263.4569"
   y2="33.983898"
   gradientTransform="matrix(-1,0,0,1,1313.481,0)">
		<stop
   offset="0"
   style="stop-color:#FFFFFF"
   id="stop14" />
		<stop
   offset="0.1112"
   style="stop-color:#FFFDEF"
   id="stop16" />
		<stop
   offset="0.3271"
   style="stop-color:#FEF6C7"
   id="stop18" />
		<stop
   offset="0.626"
   style="stop-color:#FDEC85"
   id="stop20" />
		<stop
   offset="0.9934"
   style="stop-color:#FBDD2C"
   id="stop22" />
		<stop
   offset="1"
   style="stop-color:#FBDD2A"
   id="stop24" />
	</linearGradient>
	<path
   style="fill:url(#XMLID_2_)"
   d="M 83.671,2.896 C 83.671,2.896 61.896,7.138 43.917,12.138 C 43.917,12.138 70.98,16.076 78.811,34.345 C 78.811,34.345 84.388,14.82 85.48,7.18 C 85.688,5.721 86.244,2.896 83.671,2.896 z "
   id="path26" />
	<path
   style="fill:#d0872d"
   d="M 119.37,59.575 C 75.617,78.727 48.417,90.2 39.542,90.575 C 39.013,90.841 38.104,95.138 38.167,95.138 C 38.646,95.222 122.645,66.138 121.635,61.029 C 121.706,61.086 120.547,60.18 119.37,59.575 z "
   id="path28" />
	<path
   style="fill:#d0872d"
   d="M 7.167,20.45 C 7.167,20.45 8.74,21.384 10.667,22.263 C 19.864,51.076 38.229,90.95 38.229,90.95 C 38.229,90.95 37.416,92.825 36.854,94.888 C 35.662,98.855 3.354,22.388 7.167,20.45 z "
   id="path30" />
	<path
   style="fill:#d0872d"
   d="M 79.042,42.263 C 76.417,50.076 77.095,53.996 59.142,44.533 C 28.968,28.626 19.117,25.52 10.667,22.075 C 5.883,20.124 8.48,22.681 11.405,25.466 C 24.486,30.475 49.676,43.28 64.845,50.517 C 79.259,57.392 79.087,42.13 79.042,42.263 z "
   id="path32" />
	<path
   style="fill:none;stroke:#8a6224;stroke-width:1.57404959"
   d="M 86.816,2.61 C 86.816,2.61 87.673,3.18 87.102,8.612 C 86.529,14.044 79.996,37.215 77.381,45.492 C 75.666,50.922 72.52,50.922 65.943,47.492 C 59.37,44.063 18.676,24.11 10.767,21.477 C 8.194,20.622 5.443,19.24 8.607,17.393"
   id="path34" />
</g>
</svg>
