<?xml version="1.0" encoding="iso-8859-1"?>
<!-- Generator: Adobe Illustrator 12.0.1, SVG Export Plug-In . SVG Version: 6.00 Build 51448)  -->
<!DOCTYPE svg PUBLIC "-//W3C//DTD SVG 1.1//EN" "http://www.w3.org/Graphics/SVG/1.1/DTD/svg11.dtd" [
	<!ENTITY ns_svg "http://www.w3.org/2000/svg">
	<!ENTITY ns_xlink "http://www.w3.org/1999/xlink">
]>
<svg  version="1.1" id="&#x56FE;&#x5C42;_1" xmlns="&ns_svg;" xmlns:xlink="&ns_xlink;" width="20.843" height="20.843"
	 viewBox="0 0 20.843 20.843" style="overflow:visible;enable-background:new 0 0 20.843 20.843;" xml:space="preserve">
<g>
	<g>
		<radialGradient id="XMLID_2_" cx="9.5068" cy="5.1245" r="14.9605" fx="8.4443" fy="2.4995" gradientUnits="userSpaceOnUse">
			<stop  offset="0.0056" style="stop-color:#DBF7E3"/>
			<stop  offset="0.2901" style="stop-color:#B3DCE0"/>
			<stop  offset="0.9265" style="stop-color:#4D97DA"/>
			<stop  offset="0.9775" style="stop-color:#4591D9"/>
		</radialGradient>
		<circle style="fill:url(#XMLID_2_);stroke:#000000;stroke-width:0.5;" cx="10.421" cy="10.421" r="10.171"/>
		<path style="fill:#C7BA0A;" d="M13.021,17.624c0,0,0.729,0.086,0.688,0.678c-0.041,0.596-3.998,2.025-3.998,2.025
			s4.59,0.319,7.703-2.906c3.115-3.228-0.064-0.434-0.064-0.434s1.454-1.996,1.252-2.718c-0.202-0.721-0.85-1.527-1.172-0.807
			c-0.324,0.724-0.486-0.425-0.486-0.425s-0.121,0.044-0.404-0.169c-0.282-0.211-0.04,0.383-0.403,0.68
			c-0.364,0.297-0.203-0.594-0.283-0.977c-0.081-0.382-1.457-0.341-1.619-0.086c-0.161,0.256-0.403,0.552-0.403,0.552l-0.08-0.807
			c0,0-0.244,0.724-0.527,0.807c-0.281,0.086,0.162,0.68-1.091,0.341c-1.254-0.341-0.566-0.849-0.566-0.849l0.445-0.51
			c0,0-0.364,0.128-0.769-0.169c-0.404-0.299-0.283-1.189-0.283-1.189s-0.688-0.211-0.891,0.552
			c-0.201,0.765-0.727,0.211-0.889,0.297S8.048,9.559,9.745,9.009c1.699-0.554,0.647-0.471,0.647-0.471s1.133,0.299,1.133,0.852
			c0,0.552,0.323,0.127,0.323,0.127S11.203,8.538,11.728,8.2c0.524-0.339,1.132-2.377,1.456-2.377c0.322,0,0.97-0.552,0.97-0.552
			s0.202-0.213-0.485-0.468s0.607-0.763,0.082-1.016c-0.527-0.258-1.214-0.766-1.214-0.766s-0.242-0.382-0.242,0
			c0,0.383-1.091-0.468-1.091-0.468s0.564,1.274,0.241,1.486C11.12,4.254,11.12,4.254,11.12,4.254s-0.242,0-1.132-0.807
			C9.1,2.641,9.745,2.513,10.271,2.513c0.525,0,0.161-0.508,0.161-0.508s-0.283,0.295-0.565,0c-0.283-0.299,0.282-0.213-0.566-0.044
			S7.481,2.3,7.4,1.578C7.32,0.857,7.563,1.919,6.672,1.706C5.782,1.495,6.35,1.578,6.35,1.578S6.824,1.184,6.672,1.24
			C3.822,2.298,3.83,2.937,3.559,2.937c-0.323,0,1.659-0.552,1.659-0.552s-0.245,0.68,0,0.849C5.459,3.405,5.824,3.447,5.5,3.913
			C5.177,4.381,5.418,5.017,5.418,5.017S4.449,6.078,4.772,6.8c0.323,0.721,0.483,0.552,0.483,0.552s1.659,2.59,2.064,3.227
			c0.402,0.636,0.848,0.339,0.848,0.339l-0.565,0.297c0,0,0.364,0.424,0.769,0.51c0.404,0.084,0.891,0.128,0.891,0.128
			s0.443,0.424,0.564,0.424s1.133,0.211,1.133,0.211l0.566,1.021l0.688,0.086c0,0,1.94,0.169-0.04,1.694
			c-1.981,1.53-0.284,1.403,0,0.555c0.282-0.851,0.849,0.338,0.282,1.06"/>
		<path style="fill:#4E6211;" d="M9.572,18.898c0,0,0.922-1.264,0.791-1.721c-0.126-0.457-0.537-0.967-0.741-0.51
			c-0.205,0.456-0.307-0.269-0.307-0.269s-0.077,0.026-0.256-0.107c-0.18-0.134-0.026,0.241-0.256,0.429
			c-0.231,0.188-0.129-0.375-0.18-0.616C8.572,15.862,7.702,15.888,7.6,16.05c-0.103,0.161-0.255,0.35-0.255,0.35l-0.052-0.512
			c0,0-0.154,0.458-0.333,0.512c-0.177,0.052,0.095,0.419-0.663,0.222c-0.021,0.036-0.031,0.077-0.037,0.119l0.06,0.009
			c0,0,1.229,0.106-0.024,1.073c-0.18,0.141-0.309,0.255-0.402,0.353c-0.006,0.09-0.006,0.232,0.024,0.366
			c0.145-0.051,0.315-0.182,0.378-0.368c0.18-0.538,0.537,0.214,0.18,0.671l0.081,0.104c0.007-0.002,0.011-0.003,0.011-0.003
			l-0.008,0.007l0.273,0.35c0,0,0.407,0.051,0.432,0.374c0.01-0.04,0.027-0.072,0.069-0.086c0.18-0.055,0.333-0.511,0.333-0.511
			l0.053,0.511c0,0,0.152-0.188,0.255-0.349c0.103-0.162,0.974-0.188,1.024,0.053c0.015,0.068,0.017,0.161,0.018,0.255
			c0.066-0.063,0.13-0.124,0.197-0.194C11.184,17.313,9.572,18.898,9.572,18.898z"/>
		<path style="fill:#C7BA0A;" d="M6.485,15.982c-0.097-0.22-0.223-0.607,0.005-0.777c0.043-0.032,0.088-0.087,0.133-0.158
			c-0.048-0.155-0.093-0.273-0.093-0.273s0.073,0.064,0.169,0.142c0.265-0.501,0.532-1.408,0.689-1.408
			c0.2,0,0.599-0.395,0.599-0.395s0.126-0.152-0.3-0.334c-0.424-0.183,0.376-0.546,0.05-0.728c-0.323-0.183-0.749-0.548-0.749-0.548
			s-0.148-0.271-0.148,0c0,0.275-0.674-0.332-0.674-0.332s0.349,0.91,0.148,1.062c-0.199,0.152-0.199,0.152-0.199,0.152
			s-0.148,0-0.699-0.577c-0.549-0.576-0.15-0.668,0.175-0.668c0.324,0,0.101-0.363,0.101-0.363s-0.175,0.212-0.35,0
			c-0.064-0.079-0.057-0.12-0.05-0.135c-0.017,0.015-0.083,0.054-0.3,0.104c-0.525,0.121-1.123,0.242-1.173-0.273
			C3.77,9.958,3.92,10.716,3.37,10.563c-0.55-0.151-0.2-0.091-0.2-0.091s0.293-0.283,0.2-0.242
			c-1.331,0.571-1.652,0.971-1.802,1.133c0.285-0.115,0.904-0.314,0.904-0.314s-0.152,0.486,0,0.607
			c0.148,0.122,0.374,0.151,0.174,0.485S2.596,12.93,2.596,12.93s-0.599,0.759-0.399,1.275c0.077,0.199,0.14,0.302,0.188,0.355
			c0.265-0.193,0.679-0.439,1.351-0.727c0.094-0.041-0.199,0.241-0.199,0.241s-0.352-0.06,0.199,0.091
			c0.549,0.151,0.398-0.606,0.449-0.091c0.051,0.518,0.648,0.396,1.174,0.273c0.216-0.05,0.283-0.091,0.299-0.103
			c-0.007,0.012-0.014,0.054,0.05,0.134c0.175,0.213,0.35,0,0.35,0s0.224,0.364-0.101,0.364c-0.323,0-0.723,0.09-0.174,0.666
			c0.053,0.055,0.098,0.1,0.143,0.146c0.156,0.078,0.338,0.197,0.41,0.357c0.107,0.073,0.146,0.073,0.146,0.073
			S6.48,15.985,6.485,15.982z"/>
		<path style="fill:#9BC41E;" d="M0.264,10.239c0.043,0,0.074-0.025,0.124-0.071C0.27,10.209,0.205,10.239,0.264,10.239z"/>
		<path style="fill:#C7BA0A;" d="M10.775,1.645c0,0,2.004-0.327,4.117,1.09c2.115,1.418,0.438,0.108,0.459,0
			s-0.72-0.893-0.459-0.893c0.263,0,0-0.284,0-0.284s-2.637-1.177-2.832-0.719c-0.196,0.458-0.022,0.37-0.022,0.37
			s-0.414,0.219-0.501-0.043c-0.088-0.262,0.283-0.131,0.283-0.131s-0.763-0.282-0.806-0.109
			C10.971,1.101,10.775,1.645,10.775,1.645z"/>
	</g>
</g>
</svg>
