<?xml version="1.0" encoding="iso-8859-1"?>
<!-- Generator: Adobe Illustrator 12.0.1, SVG Export Plug-In . SVG Version: 6.00 Build 51448)  -->
<!DOCTYPE svg PUBLIC "-//W3C//DTD SVG 1.1//EN" "http://www.w3.org/Graphics/SVG/1.1/DTD/svg11.dtd" [
	<!ENTITY ns_svg "http://www.w3.org/2000/svg">
	<!ENTITY ns_xlink "http://www.w3.org/1999/xlink">
]>
<svg  version="1.1" id="&#xCD;_xBC__xB2_&#xE3;_x5F_1" xmlns="&ns_svg;" xmlns:xlink="&ns_xlink;" width="15.333" height="15.489"
	 viewBox="0 0 15.333 15.489" style="overflow:visible;enable-background:new 0 0 15.333 15.489;" xml:space="preserve">
<rect y="0.041" style="fill:none;" width="15.333" height="15.333"/>
<g>
	<polygon style="fill:#F8E892;stroke:#000000;stroke-width:0.25;" points="14.107,4.371 9.453,2.847 1.517,5.52 1.415,13.346 
		5.936,15.353 13.938,11.994 	"/>
	
		<linearGradient id="XMLID_2_" gradientUnits="userSpaceOnUse" x1="5.8281" y1="6.666" x2="12.455" y2="2.4595" gradientTransform="matrix(1 -0.0037 0.0037 1 -1.3123 0.2739)">
		<stop  offset="0" style="stop-color:#C69248"/>
		<stop  offset="0.2265" style="stop-color:#D4AB67"/>
		<stop  offset="0.5698" style="stop-color:#E7D091"/>
		<stop  offset="0.8394" style="stop-color:#F2E8AF"/>
		<stop  offset="1" style="stop-color:#F9F6BD"/>
	</linearGradient>
	<polygon style="fill:url(#XMLID_2_);" points="9.266,2.847 1.329,5.52 6.186,7.695 13.92,4.371 	"/>
	<g>
		<polygon style="fill:#F3BA70;" points="13.652,11.993 9.718,13.636 5.783,15.28 5.984,11.487 6.186,7.695 9.989,6.097 
			13.793,4.499 13.723,8.246 		"/>
		<polygon style="fill:#F5D3A7;" points="6.173,7.704 9.996,6.097 13.818,4.49 13.793,4.922 12.258,7.185 11.973,7.604 
			10.438,9.866 9.851,10.12 8.131,12.575 6.412,15.028 5.788,15.298 5.98,11.5 		"/>
		<polygon style="fill:#F7EEE3;" points="6.664,7.99 10.234,6.375 13.805,4.761 13.844,4.482 10.002,6.097 6.16,7.712 5.976,11.514 
			5.792,15.317 6.426,15.034 6.545,11.512 		"/>
	</g>
	<polygon style="fill:#FFFFFF;" points="1.699,5.572 1.605,5.697 6.152,7.822 6.543,7.587 	"/>
	<path style="fill:#AEB3BB;stroke:#000000;stroke-width:0.25;" d="M9.201,0.173C5.285-0.465,4.527,5.452,4.72,5.697
		S5.749,6.286,6.49,6.098c0.828-0.209,0.664-0.574,0.727-0.884C7.279,4.902,8,0.974,9.357,2.048C9.889,2.726,9.67,3.705,9.732,4.236
		c0.029,0.248,0.762,0.488,1.313,0.281c0.549-0.208,0.469-0.563,0.469-0.563S11.268,0.51,9.201,0.173z"/>
	<path style="fill:#FFFFFF;" d="M8.072,0.876c0,0-0.439,0.182-1.186,0.915l0.277,0.251c0.662-0.554,1.1-0.845,1.1-0.845L8.072,0.876
		z M6.305,2.529C5.958,3.081,5.743,4.017,5.678,5.054l0.459-0.019c-0.098-0.93,0.051-1.783,0.398-2.299L6.305,2.529z"/>
	<path d="M11.131,8.571c-0.035-0.365-0.404-0.482-0.816-0.28C9.908,8.488,9.586,8.935,9.586,9.303c0,0.27,0.176,0.422,0.43,0.427
		l0.076,3.063l0.863-0.339l-0.133-1.915L10.744,9.39C10.994,9.149,11.154,8.834,11.131,8.571z"/>
</g>
</svg>
