<?xml version="1.0" encoding="UTF-8" standalone="no"?>
<!-- Created with Inkscape (http://www.inkscape.org/) -->
<svg
   xmlns:dc="http://purl.org/dc/elements/1.1/"
   xmlns:cc="http://web.resource.org/cc/"
   xmlns:rdf="http://www.w3.org/1999/02/22-rdf-syntax-ns#"
   xmlns:svg="http://www.w3.org/2000/svg"
   xmlns="http://www.w3.org/2000/svg"
   xmlns:sodipodi="http://inkscape.sourceforge.net/DTD/sodipodi-0.dtd"
   xmlns:inkscape="http://www.inkscape.org/namespaces/inkscape"
   width="64px"
   height="64px"
   id="svg1306"
   sodipodi:version="0.32"
   inkscape:version="0.42.2"
   sodipodi:docbase="/home/rbiggs/mockup/4.3"
   sodipodi:docname="ban-icon.svg">
  <defs
     id="defs1308" />
  <sodipodi:namedview
     id="base"
     pagecolor="#ffffff"
     bordercolor="#666666"
     borderopacity="1.0"
     inkscape:pageopacity="0.0"
     inkscape:pageshadow="2"
     inkscape:zoom="8.0000000"
     inkscape:cx="36.917094"
     inkscape:cy="27.090522"
     inkscape:current-layer="layer1"
     showgrid="true"
     inkscape:document-units="px"
     inkscape:grid-bbox="true"
     inkscape:window-width="1592"
     inkscape:window-height="1116"
     inkscape:window-x="0"
     inkscape:window-y="0" />
  <metadata
     id="metadata1311">
    <rdf:RDF>
      <cc:Work
         rdf:about="">
        <dc:format>image/svg+xml</dc:format>
        <dc:type
           rdf:resource="http://purl.org/dc/dcmitype/StillImage" />
      </cc:Work>
    </rdf:RDF>
  </metadata>
  <g
     id="layer1"
     inkscape:label="Layer 1"
     inkscape:groupmode="layer">
    <path
       style="fill:#feffff;fill-opacity:1.0000000;stroke:none;stroke-width:5.0000000;stroke-linecap:butt;stroke-linejoin:round;stroke-miterlimit:4.0000000;stroke-dasharray:none;stroke-opacity:1.0000000"
       d="M 32.000000 0.0000000 C 14.335996 0.0000000 -4.6821116e-15 14.336000 -0.0000000 32.000000 C -4.7369516e-15 49.663999 14.335995 63.999998 32.000000 64.000000 C 49.664004 64.000000 63.999998 49.663999 64.000000 32.000000 C 64.000000 14.336001 49.664002 -1.9181527e-14 32.000000 0.0000000 z M 32.000000 9.0000000 C 36.753939 9.0000000 41.144700 10.463470 44.812500 12.937500 L 12.937500 44.812500 C 10.463470 41.144698 8.9999998 36.753941 9.0000000 32.000000 C 9.0000000 19.304001 19.303999 9.0000005 32.000000 9.0000000 z M 51.343750 19.625000 C 53.642075 23.204661 54.999998 27.433035 55.000000 32.000000 C 55.000000 44.695999 44.695997 54.999999 32.000000 55.000000 C 27.433034 55.000000 23.204662 53.642075 19.625000 51.343750 L 51.343750 19.625000 z "
       id="path3520" />
  </g>
</svg>
