<?xml version="1.0" encoding="UTF-8" standalone="no"?>
<!-- Created with Inkscape (http://www.inkscape.org/) -->
<svg
   xmlns:dc="http://purl.org/dc/elements/1.1/"
   xmlns:cc="http://web.resource.org/cc/"
   xmlns:rdf="http://www.w3.org/1999/02/22-rdf-syntax-ns#"
   xmlns:svg="http://www.w3.org/2000/svg"
   xmlns="http://www.w3.org/2000/svg"
   xmlns:xlink="http://www.w3.org/1999/xlink"
   xmlns:sodipodi="http://inkscape.sourceforge.net/DTD/sodipodi-0.dtd"
   xmlns:inkscape="http://www.inkscape.org/namespaces/inkscape"
   width="64px"
   height="64px"
   id="svg1306"
   sodipodi:version="0.32"
   inkscape:version="0.42.2"
   sodipodi:docbase="/home/rbiggs/mockup/4.3"
   sodipodi:docname="shuffle-main-menu.svg">
  <defs
     id="defs1308">
    <linearGradient
       id="linearGradient16083">
      <stop
         style="stop-color:#ffff3f;stop-opacity:1.0000000;"
         offset="0.0000000"
         id="stop16085" />
      <stop
         id="stop16091"
         offset="0.50000000"
         style="stop-color:#e6e639;stop-opacity:1.0000000;" />
      <stop
         style="stop-color:#d9d936;stop-opacity:1.0000000;"
         offset="0.50000000"
         id="stop16093" />
      <stop
         style="stop-color:#d9d936;stop-opacity:1.0000000;"
         offset="1.0000000"
         id="stop16087" />
    </linearGradient>
    <linearGradient
       id="linearGradient13019">
      <stop
         style="stop-color:#737373;stop-opacity:1.0000000;"
         offset="0.0000000"
         id="stop13021" />
      <stop
         id="stop13043"
         offset="0.50000000"
         style="stop-color:#262626;stop-opacity:1.0000000;" />
      <stop
         style="stop-color:#191919;stop-opacity:1.0000000;"
         offset="0.50000000"
         id="stop13045" />
      <stop
         style="stop-color:#191919;stop-opacity:1.0000000;"
         offset="1.0000000"
         id="stop13023" />
    </linearGradient>
    <linearGradient
       inkscape:collect="always"
       xlink:href="#linearGradient13019"
       id="linearGradient15312"
       gradientUnits="userSpaceOnUse"
       gradientTransform="matrix(0.000000,0.964804,-0.964804,0.000000,61.70566,8.158175e-2)"
       x1="5.3437500"
       y1="32.000000"
       x2="58.781250"
       y2="32.000000" />
    <linearGradient
       inkscape:collect="always"
       xlink:href="#linearGradient13019"
       id="linearGradient15314"
       gradientUnits="userSpaceOnUse"
       gradientTransform="matrix(0.000000,0.964804,-0.964804,0.000000,61.70566,8.158175e-2)"
       x1="5.3437500"
       y1="32.000000"
       x2="58.781250"
       y2="32.000000" />
    <linearGradient
       inkscape:collect="always"
       xlink:href="#linearGradient16083"
       id="linearGradient16089"
       x1="30.001469"
       y1="-3.3230517"
       x2="33.583202"
       y2="55.210197"
       gradientUnits="userSpaceOnUse" />
    <linearGradient
       inkscape:collect="always"
       xlink:href="#linearGradient13019"
       id="linearGradient4397"
       gradientUnits="userSpaceOnUse"
       gradientTransform="matrix(0.000000,0.968634,-0.968634,0.000000,63.64850,0.944537)"
       x1="0.12218163"
       y1="32.673283"
       x2="64.000000"
       y2="32.673283" />
    <linearGradient
       inkscape:collect="always"
       xlink:href="#linearGradient13019"
       id="linearGradient4399"
       gradientUnits="userSpaceOnUse"
       gradientTransform="matrix(0.000000,0.968634,-0.968634,0.000000,63.64850,0.944537)"
       x1="0.12218163"
       y1="32.673283"
       x2="64.000000"
       y2="32.673283" />
    <linearGradient
       inkscape:collect="always"
       xlink:href="#linearGradient16083"
       id="linearGradient4401"
       gradientUnits="userSpaceOnUse"
       x1="30.001469"
       y1="-3.3230517"
       x2="33.583202"
       y2="55.210197" />
  </defs>
  <sodipodi:namedview
     id="base"
     pagecolor="#ffffff"
     bordercolor="#666666"
     borderopacity="1.0"
     inkscape:pageopacity="0.0"
     inkscape:pageshadow="2"
     inkscape:zoom="1.4142136"
     inkscape:cx="375.64035"
     inkscape:cy="-147.87676"
     inkscape:current-layer="layer1"
     showgrid="true"
     inkscape:document-units="px"
     inkscape:grid-bbox="true"
     inkscape:window-width="1592"
     inkscape:window-height="1116"
     inkscape:window-x="0"
     inkscape:window-y="0"
     showguides="true" />
  <metadata
     id="metadata1311">
    <rdf:RDF>
      <cc:Work
         rdf:about="">
        <dc:format>image/svg+xml</dc:format>
        <dc:type
           rdf:resource="http://purl.org/dc/dcmitype/StillImage" />
      </cc:Work>
    </rdf:RDF>
  </metadata>
  <g
     id="layer1"
     inkscape:label="Layer 1"
     inkscape:groupmode="layer">
    <path
       style="fill:#333333;fill-opacity:1.0000000;fill-rule:evenodd;stroke:#333333;stroke-width:4.3750000;stroke-linecap:butt;stroke-linejoin:round;stroke-miterlimit:4.0000000;stroke-dasharray:none;stroke-opacity:1.0000000"
       d="M 42.291733,7.3149755 L 42.291733,29.805439 L 61.785486,18.575342 L 42.291733,7.3149755 z M 2.2145136,13.187317 L 2.2145136,23.933097 L 11.931120,23.933097 C 15.526456,23.933097 17.750439,27.511313 19.619650,32.015135 C 17.752657,36.506225 15.519356,40.066902 11.931120,40.066902 L 2.2145136,40.066902 L 2.2145136,50.812683 L 11.931120,50.812683 C 16.889188,50.812683 19.264539,44.091309 21.647727,37.372890 C 24.030915,44.091309 26.406266,50.812683 31.364334,50.812683 L 41.111211,50.812683 L 41.111211,40.066902 L 31.394604,40.066902 C 27.806368,40.066902 25.573067,36.506225 23.706074,32.015135 C 25.575285,27.511313 27.799258,23.933097 31.394604,23.933097 L 41.111211,23.933097 L 41.111211,13.187317 L 31.364334,13.187317 C 26.406266,13.187317 24.030915,19.908690 21.647727,26.627110 C 19.264539,19.908690 16.889188,13.187317 11.931120,13.187317 L 2.2145136,13.187317 z M 42.291733,34.164291 L 42.291733,56.685025 L 61.785486,45.424658 L 42.291733,34.164291 z "
       id="path2939" />
    <path
       style="fill:url(#linearGradient4397);fill-opacity:1.0000000;fill-rule:evenodd;stroke:url(#linearGradient4399);stroke-width:2.3032351;stroke-linecap:butt;stroke-linejoin:round;stroke-miterlimit:4.0000000;stroke-dasharray:none;stroke-opacity:1.0000000"
       d="M 42.291736,7.3149755 L 42.291736,29.805438 L 61.785486,18.575341 L 42.291736,7.3149755 z M 2.2145138,13.187316 L 2.2145138,23.933096 L 11.931120,23.933096 C 15.526456,23.933096 17.750436,27.511312 19.619646,32.015134 C 17.752656,36.506224 15.519356,40.066901 11.931120,40.066901 L 2.2145138,40.066901 L 2.2145138,50.812682 L 11.931120,50.812682 C 16.889186,50.812682 19.264536,44.091308 21.647726,37.372889 C 24.030916,44.091308 26.406266,50.812682 31.364336,50.812682 L 41.111206,50.812682 L 41.111206,40.066901 L 31.394606,40.066901 C 27.806366,40.066901 25.573066,36.506224 23.706076,32.015134 C 25.575286,27.511312 27.799256,23.933096 31.394606,23.933096 L 41.111206,23.933096 L 41.111206,13.187316 L 31.364336,13.187316 C 26.406266,13.187316 24.030916,19.908689 21.647726,26.627109 C 19.264536,19.908689 16.889186,13.187316 11.931120,13.187316 L 2.2145138,13.187316 z M 42.291736,34.164290 L 42.291736,56.685024 L 61.785486,45.424657 L 42.291736,34.164290 z "
       id="path4395" />
    <path
       style="fill:#ffff3f;fill-opacity:0.25000000;fill-rule:evenodd;stroke:#ffff3f;stroke-width:2.3030000;stroke-linecap:butt;stroke-linejoin:round;stroke-miterlimit:4.0000000;stroke-dasharray:none;stroke-opacity:0.10000000"
       d="M 44.375000 24.375000 L 42.718750 29.562500 L 45.531250 27.937500 L 44.375000 24.375000 z M 42.281250 34.156250 L 42.281250 56.687500 L 52.843750 50.593750 L 52.750000 50.343750 L 60.531250 44.718750 L 53.187500 40.468750 L 49.562500 40.468750 L 48.718750 37.875000 L 42.281250 34.156250 z M 39.343750 40.062500 L 39.218750 40.468750 L 22.781250 40.437500 C 22.835194 40.582296 22.883144 40.731290 22.937500 40.875000 L 36.000000 50.343750 L 35.843750 50.812500 L 41.125000 50.812500 L 41.125000 40.062500 L 39.343750 40.062500 z "
       id="path2183" />
    <path
       sodipodi:type="star"
       style="fill:url(#linearGradient4401);fill-opacity:1.0000000;stroke:#b3b32c;stroke-width:1.6654396;stroke-linecap:butt;stroke-linejoin:round;stroke-miterlimit:4.0000000;stroke-dasharray:none;stroke-opacity:1.0000000"
       id="path4393"
       sodipodi:sides="5"
       sodipodi:cx="30.000000"
       sodipodi:cy="29.000000"
       sodipodi:r1="32.021946"
       sodipodi:r2="12.168340"
       sodipodi:arg1="0.94262621"
       sodipodi:arg2="1.5709447"
       inkscape:flatsided="false"
       inkscape:rounded="0.0000000"
       inkscape:randomized="0.0000000"
       d="M 48.818183,54.909092 L 29.998195,41.168340 L 11.174128,54.903505 L 18.426663,32.758507 L -0.45321142,19.100155 L 22.849090,19.154545 L 30.004753,-3.0219456 L 37.153831,19.156668 L 60.456149,19.109195 L 41.572221,32.761941 L 48.818183,54.909092 z "
       transform="matrix(0.723010,0.000000,0.000000,0.725265,19.68660,23.57335)" />
  </g>
</svg>
