<?xml version="1.0" encoding="UTF-8" standalone="no"?>
<!-- Created with Inkscape (http://www.inkscape.org/) -->
<svg
   xmlns:dc="http://purl.org/dc/elements/1.1/"
   xmlns:cc="http://web.resource.org/cc/"
   xmlns:rdf="http://www.w3.org/1999/02/22-rdf-syntax-ns#"
   xmlns:svg="http://www.w3.org/2000/svg"
   xmlns="http://www.w3.org/2000/svg"
   xmlns:sodipodi="http://sodipodi.sourceforge.net/DTD/sodipodi-0.dtd"
   xmlns:inkscape="http://www.inkscape.org/namespaces/inkscape"
   width="64px"
   height="64px"
   id="svg1320"
   sodipodi:version="0.32"
   inkscape:version="0.44.1"
   sodipodi:docbase="/home/user"
   sodipodi:docname="repeat.svg">
  <defs
     id="defs1322" />
  <sodipodi:namedview
     id="base"
     pagecolor="#ffffff"
     bordercolor="#666666"
     borderopacity="1.0"
     inkscape:pageopacity="0.0"
     inkscape:pageshadow="2"
     inkscape:zoom="2.75"
     inkscape:cx="211.84776"
     inkscape:cy="-38.158259"
     inkscape:current-layer="layer1"
     showgrid="true"
     inkscape:document-units="px"
     inkscape:grid-bbox="true"
     inkscape:window-width="1592"
     inkscape:window-height="1116"
     inkscape:window-x="0"
     inkscape:window-y="0" />
  <metadata
     id="metadata1325">
    <rdf:RDF>
      <cc:Work
         rdf:about="">
        <dc:format>image/svg+xml</dc:format>
        <dc:type
           rdf:resource="http://purl.org/dc/dcmitype/StillImage" />
      </cc:Work>
    </rdf:RDF>
  </metadata>
  <g
     id="layer1"
     inkscape:label="Layer 1"
     inkscape:groupmode="layer">
    <path
       style="fill:black;fill-opacity:1;fill-rule:evenodd;stroke:none;stroke-width:0.25000000;stroke-linecap:butt;stroke-linejoin:miter;stroke-miterlimit:4.0000000;stroke-dasharray:none;stroke-opacity:1.0000000"
       d="M 22.000000 11.500000 C 9.8120000 11.500000 0.0000000 20.643000 0.0000000 32.000000 C 0.0000000 38.487924 3.2632758 44.186461 8.2812500 47.937500 L 15.375000 40.843750 C 13.060839 38.527371 11.625000 35.427801 11.625000 32.000000 C 11.625000 24.790426 17.867329 19.000000 25.625000 19.000000 L 37.218750 19.000000 L 44.500000 11.718750 C 43.668149 11.630548 42.857994 11.500000 42.000000 11.500000 L 22.000000 11.500000 z M 55.718750 16.062500 L 48.625000 23.156250 C 50.939160 25.472629 52.375000 28.572199 52.375000 32.000000 C 52.375002 39.209574 46.132672 45.000000 38.375000 45.000000 L 26.781250 45.000000 L 19.500000 52.281250 C 20.331851 52.369452 21.142006 52.500000 22.000000 52.500000 L 42.000000 52.500000 C 54.188000 52.500000 64.000000 43.357000 64.000000 32.000000 C 64.000000 25.512076 60.736724 19.813539 55.718750 16.062500 z "
       id="rect3536" />
  </g>
</svg>
