<?xml version="1.0" encoding="iso-8859-1"?>
<!-- Generator: Adobe Illustrator 12.0.1, SVG Export Plug-In . SVG Version: 6.00 Build 51448)  -->
<!DOCTYPE svg PUBLIC "-//W3C//DTD SVG 1.1//EN" "http://www.w3.org/Graphics/SVG/1.1/DTD/svg11.dtd" [
	<!ENTITY ns_svg "http://www.w3.org/2000/svg">
	<!ENTITY ns_xlink "http://www.w3.org/1999/xlink">
]>
<svg  version="1.1" id="&#x56FE;&#x5C42;_1" xmlns="&ns_svg;" xmlns:xlink="&ns_xlink;" width="132.333" height="132.333"
	 viewBox="0 0 132.333 132.333" style="overflow:visible;enable-background:new 0 0 132.333 132.333;" xml:space="preserve">
<g>
	<path style="fill:#307F28;stroke:#000000;" d="M85.706,94.185l0.886-10.86c0.125-1.519,1.504-2.849,3.068-2.957l30.096-1.873
		c-0.461-0.617-6.471-3.228-7.382-3.165l-30.229,2.448c-1.563,0.108-2.943,1.438-3.068,2.957l-1.822,12.099
		c-0.097,2.842,4.153,2.923,5.69,3.428l4.088-0.033C86.85,95.868,85.668,94.655,85.706,94.185z"/>
	<path style="fill:#A00A27;stroke:#000000;" d="M23.714,86.521c-1.08-1.014-1.02-2.751,0.134-3.86L37.97,70.706l-4.917-0.981
		c-2.119-0.512-3.114-0.022-4.267,1.087L16.491,82.405c-1.154,1.109-1.213,2.847-0.135,3.86l11.493,12.758
		c1.08,1.015,1.063,2.793-0.035,3.952l-12.992,13.847c-1.099,1.159-1.049,2.867,0.11,3.796l11.77,10.62
		c1.12,0.895,5.725-0.181,6.792-1.27l-11.708-8.82c-1.159-0.928-1.209-2.637-0.111-3.796l14.42-15.218
		c1.099-1.159,1.115-2.938,0.035-3.951L23.714,86.521z M54.609,82.598l13.708-12.021l-4.192-1.297
		c-2.089-0.837-3.79-0.492-4.889,0.667l-11.495,12.25l3.113,1.858C51.866,85.132,53.51,83.759,54.609,82.598z M48.819,114.079
		l-0.124,0.141l9.708,9.541c1.079,1.015,3.91,0.315,4.918-0.917l-2.883-1.827l-7.739-7.271
		C51.62,112.731,49.874,112.882,48.819,114.079z"/>
	<path style="fill:#307F28;stroke:#000000;" d="M102.305,70.43c-0.36-1.445-0.162-3.809,0.439-5.251c0,0,2.688-2.741,4.208-4.143
		c-0.62-0.961-3.394-1.399-4.638-1.304c-4.615,0.353-6.717,5.04-6.717,5.04c-1.841,3.588-0.326,7.594,1.303,8.913
		c1.628,1.319,5.688,2.017,7.557-0.083L102.305,70.43z"/>
	<path style="fill:#005487;stroke:#000000;" d="M91.248,52.401c-1.527-0.212-3.85-0.958-3.727-2.478l0.938-11.494
		c0.081-0.991,0.952-2.622,1.769-2.941l-4.246-0.05c-2.588,0.05-3.618,2.905-3.743,4.424l-1.155,10.712
		c-0.181,1.948,0.61,3.713,2.136,3.925c33.948,5.246,32.683,4.499,35.169,4.446c2.42-0.052,3.522-4.482,3.588-4.478L91.248,52.401z"
		/>
	<path style="fill:#CE5300;stroke:#000000;" d="M46.85,22.597l1.251-18.848c0.048-0.726-0.328-2.44,0.148-2.799l-8.109,1.988
		c-1.876,0.465-1.691,3.88-1.691,3.88l-1.144,17.781c1.101,1.003,6.639,0.172,6.639,0.172C45.441,25.093,46.749,24.115,46.85,22.597
		z M62.606,47.595c-0.063-0.009-1.554,3.073-4.733,4.332l12.64,2.099c8.418,1.6,9.438-5.417,9.5-5.413L62.606,47.595z
		 M43.885,67.259l1.209-18.212c0.101-1.519-1.065-2.935-2.592-3.147l-17.542-3.948c-1.527-0.212-4.284-0.339-4.194-1.857
		l1.022-17.311c0.058-0.989-1.254-2.655-0.449-2.976l-4.772,1.053c-1.543,0.469-3.509,3.152-3.598,4.669l-0.901,16.971
		c-0.089,1.518,1.881,2.59,3.484,3.779l17.062,2.963c1.393,1.154,2.889,2.577,2.788,4.096l-0.779,13.164
		c-0.101,1.519,1.085,2.829,2.635,2.91l7.795,0.244C44.294,69.124,43.82,68.238,43.885,67.259z"/>
	<g>
		<path style="fill:#F9A600;" d="M81.246,35.443c0.12-1.554-1.028-3.095-2.552-3.424l-12.787-2.761
			c-1.523-0.329-2.679-1.871-2.567-3.425l1.225-17.045c0.112-1.555-1.017-3.201-2.507-3.658L49.056,1.145
			c-1.49-0.457-2.794,0.442-2.897,1.998l-1.242,18.714c-0.104,1.556-1.435,2.56-2.959,2.23l-19.174-4.138
			c-1.524-0.329-2.846,0.675-2.938,2.231l-1.013,17.172c-0.092,1.556,1.096,3.005,2.641,3.22l19.06,2.65
			c1.544,0.214,2.723,1.663,2.62,3.218l-1.2,18.078c-0.104,1.555,1.086,2.896,2.643,2.978l12.72,0.671
			c1.557,0.082,2.922-1.123,3.034-2.678l1.184-16.493c0.112-1.555,1.466-2.652,3.011-2.437l12.715,1.766
			c1.544,0.215,2.906-0.882,3.026-2.436L81.246,35.443z"/>
		<path style="fill:none;stroke:#000000;" d="M81.246,35.443c0.12-1.554-1.028-3.095-2.552-3.424l-12.787-2.761
			c-1.523-0.329-2.679-1.871-2.567-3.425l1.225-17.045c0.112-1.555-1.017-3.201-2.507-3.658L49.056,1.145
			c-1.49-0.457-2.794,0.442-2.897,1.998l-1.242,18.714c-0.104,1.556-1.435,2.56-2.959,2.23l-19.174-4.138
			c-1.524-0.329-2.846,0.675-2.938,2.231l-1.013,17.172c-0.092,1.556,1.096,3.005,2.641,3.22l19.06,2.65
			c1.544,0.214,2.723,1.663,2.62,3.218l-1.2,18.078c-0.104,1.555,1.086,2.896,2.643,2.978l12.72,0.671
			c1.557,0.082,2.922-1.123,3.034-2.678l1.184-16.493c0.112-1.555,1.466-2.652,3.011-2.437l12.715,1.766
			c1.544,0.215,2.906-0.882,3.026-2.436L81.246,35.443z"/>
	</g>
	<g>
		<path style="fill:#DB0F0F;" d="M73.306,111.903c0.987-1.207,0.922-3.124-0.146-4.26l-7.904-8.414
			c-1.067-1.136-1.097-3.022-0.066-4.191l10.206-11.577c1.031-1.169,1.064-3.11,0.073-4.314l-6.56-7.966
			c-0.991-1.204-2.679-1.263-3.751-0.131L53.865,82.965c-1.072,1.132-2.823,1.128-3.89-0.009L39.196,71.479
			c-1.067-1.137-2.86-1.182-3.983-0.102l-12.115,11.65c-1.124,1.081-1.113,2.838,0.023,3.905l12.21,11.47
			c1.136,1.067,1.188,2.866,0.116,3.998L20.93,117.719c-1.072,1.132-0.954,2.854,0.264,3.828l9.88,7.903
			c1.217,0.974,3.057,0.813,4.088-0.355l13.005-14.751c1.031-1.169,2.804-1.253,3.94-0.186l8.878,8.342
			c1.136,1.067,2.874,0.953,3.861-0.254L73.306,111.903z"/>
		<path style="fill:none;stroke:#000000;" d="M73.306,111.903c0.987-1.207,0.922-3.124-0.146-4.26l-7.904-8.414
			c-1.067-1.136-1.097-3.022-0.066-4.191l10.206-11.577c1.031-1.169,1.064-3.11,0.073-4.314l-6.56-7.966
			c-0.991-1.204-2.679-1.263-3.751-0.131L53.865,82.965c-1.072,1.132-2.823,1.128-3.89-0.009L39.196,71.479
			c-1.067-1.137-2.86-1.182-3.983-0.102l-12.115,11.65c-1.124,1.081-1.113,2.838,0.023,3.905l12.21,11.47
			c1.136,1.067,1.188,2.866,0.116,3.998L20.93,117.719c-1.072,1.132-0.954,2.854,0.264,3.828l9.88,7.903
			c1.217,0.974,3.057,0.813,4.088-0.355l13.005-14.751c1.031-1.169,2.804-1.253,3.94-0.186l8.878,8.342
			c1.136,1.067,2.874,0.953,3.861-0.254L73.306,111.903z"/>
	</g>
	<g>
		<path style="fill:#00A0E9;" d="M88.426,52.322c-1.544-0.214-2.704-1.662-2.577-3.215l0.925-11.366
			c0.127-1.554,1.478-2.556,3.001-2.227l30.683,6.624c1.523,0.329,2.653,1.868,2.51,3.421l-0.794,8.595
			c-0.144,1.553-1.524,2.647-3.068,2.433L88.426,52.322z"/>
		<path style="fill:none;stroke:#000000;" d="M88.426,52.322c-1.544-0.214-2.704-1.662-2.577-3.215l0.925-11.366
			c0.127-1.554,1.478-2.556,3.001-2.227l30.683,6.624c1.523,0.329,2.653,1.868,2.51,3.421l-0.794,8.595
			c-0.144,1.553-1.524,2.647-3.068,2.433L88.426,52.322z"/>
	</g>
	<g>
		<path style="fill:#ABCD03;" d="M85.958,96.525c-1.544,0.215-2.704-0.88-2.577-2.434l0.876-10.732
			c0.127-1.554,1.503-2.913,3.059-3.02l30.825-2.124c1.556-0.107,2.711,1.075,2.567,2.627l-0.754,8.151
			c-0.144,1.552-1.524,2.999-3.068,3.214L85.958,96.525z"/>
		<path style="fill:none;stroke:#000000;" d="M85.958,96.525c-1.544,0.215-2.704-0.88-2.577-2.434l0.876-10.732
			c0.127-1.554,1.503-2.913,3.059-3.02l30.825-2.124c1.556-0.107,2.711,1.075,2.567,2.627l-0.754,8.151
			c-0.144,1.552-1.524,2.999-3.068,3.214L85.958,96.525z"/>
	</g>
	<path style="fill:#307F28;stroke:#000000;" d="M98.646,109.965c-0.395-1.435-0.24-3.794,0.34-5.243c0,0,3.908-4.085,5.701-5.717
		c-0.597-1.018-4.802-1.471-6.381-1.293c-4.927,0.551-6.183,6.021-6.183,6.021c-1.54,4.938,2.799,7.951,2.799,7.951
		c1.277,0.499,5.399,1.112,6.688,0.326L98.646,109.965z"/>
	<path style="fill:#ABCD03;stroke:#000000;" d="M110.055,67.331c-0.497,3.964-3.662,7.058-7.068,6.91
		c-3.406-0.147-5.765-3.479-5.268-7.443c0.499-3.963,3.661-7.056,7.068-6.909C108.193,60.036,110.552,63.368,110.055,67.331z"/>
	<path style="fill:#ABCD03;stroke:#000000;" d="M107.908,105.453c-0.498,3.964-3.662,7.057-7.069,6.909
		c-3.406-0.146-5.764-3.479-5.268-7.442c0.498-3.964,3.662-7.058,7.069-6.911C106.046,98.157,108.405,101.49,107.908,105.453z"/>
</g>
<rect style="fill:none;" width="132.333" height="132.333"/>
</svg>
