<?xml version="1.0" encoding="UTF-8" standalone="no"?>
<!-- Created with Inkscape (http://www.inkscape.org/) -->
<svg
   xmlns:dc="http://purl.org/dc/elements/1.1/"
   xmlns:cc="http://web.resource.org/cc/"
   xmlns:rdf="http://www.w3.org/1999/02/22-rdf-syntax-ns#"
   xmlns:svg="http://www.w3.org/2000/svg"
   xmlns="http://www.w3.org/2000/svg"
   xmlns:sodipodi="http://sodipodi.sourceforge.net/DTD/sodipodi-0.dtd"
   xmlns:inkscape="http://www.inkscape.org/namespaces/inkscape"
   width="64px"
   height="64px"
   id="svg1943"
   sodipodi:version="0.32"
   inkscape:version="0.44.1"
   sodipodi:docbase="/home/rbiggs/mockup/4.3"
   sodipodi:docname="repeat-none.svg">
  <defs
     id="defs1945" />
  <sodipodi:namedview
     id="base"
     pagecolor="white"
     bordercolor="#666666"
     borderopacity="1.0"
     inkscape:pageopacity="0"
     inkscape:pageshadow="2"
     inkscape:zoom="5.5"
     inkscape:cx="32"
     inkscape:cy="30.615472"
     inkscape:current-layer="layer1"
     showgrid="true"
     inkscape:document-units="px"
     inkscape:grid-bbox="true"
     inkscape:window-width="869"
     inkscape:window-height="617"
     inkscape:window-x="545"
     inkscape:window-y="421" />
  <metadata
     id="metadata1948">
    <rdf:RDF>
      <cc:Work
         rdf:about="">
        <dc:format>image/svg+xml</dc:format>
        <dc:type
           rdf:resource="http://purl.org/dc/dcmitype/StillImage" />
      </cc:Work>
    </rdf:RDF>
  </metadata>
  <g
     id="layer1"
     inkscape:label="Layer 1"
     inkscape:groupmode="layer">
    <path
       style="font-size:72px;font-style:normal;font-weight:normal;fill:white;fill-opacity:1;stroke:none;stroke-width:1px;stroke-linecap:butt;stroke-linejoin:miter;stroke-opacity:1;font-family:Impact"
       d="M 48.751953,22.806641 L 48.751953,41.791016 C 48.751917,46.10353 48.517542,49.244152 48.048828,51.212891 C 47.580043,53.181648 46.607388,55.02149 45.130859,56.732422 C 43.654266,58.443361 41.873018,59.673829 39.787109,60.423828 C 37.701147,61.173827 35.369118,61.548827 32.791016,61.548828 C 29.392561,61.548827 26.568346,61.162109 24.318359,60.388672 C 22.06835,59.591798 20.275383,58.36133 18.939453,56.697266 C 17.603511,55.033209 16.654293,53.287117 16.091797,51.458984 C 15.529294,49.607433 15.248044,46.677748 15.248047,42.669922 L 15.248047,22.806641 C 15.248044,17.580121 15.693356,13.666062 16.583984,11.064453 C 17.498042,8.4629426 19.291009,6.3770072 21.962891,4.8066406 C 24.658191,3.2363853 27.916,2.4512299 31.736328,2.4511719 C 34.853493,2.4512299 37.642553,3.0020106 40.103516,4.1035156 C 42.564423,5.1816959 44.404265,6.5059133 45.623047,8.0761719 C 46.841763,9.6465352 47.662074,11.416065 48.083984,13.384766 C 48.529261,15.353561 48.751917,18.494183 48.751953,22.806641 M 34.548828,18.025391 C 34.548806,15.001999 34.396463,13.115282 34.091797,12.365234 C 33.810526,11.591846 33.130839,11.205127 32.052734,11.205078 C 30.998029,11.205127 30.294904,11.615283 29.943359,12.435547 C 29.615217,13.232469 29.451155,15.095748 29.451172,18.025391 L 29.451172,45.798828 C 29.451155,49.103527 29.603499,51.095712 29.908203,51.775391 C 30.236311,52.455086 30.927716,52.79493 31.982422,52.794922 C 33.037089,52.79493 33.728495,52.396492 34.056641,51.599609 C 34.384744,50.802744 34.548806,49.009777 34.548828,46.220703 L 34.548828,18.025391"
       id="text1933" />
  </g>
</svg>
