<?xml version="1.0" encoding="iso-8859-1"?>
<!-- Generator: Adobe Illustrator 12.0.1, SVG Export Plug-In . SVG Version: 6.00 Build 51448)  -->
<!DOCTYPE svg PUBLIC "-//W3C//DTD SVG 1.1//EN" "http://www.w3.org/Graphics/SVG/1.1/DTD/svg11.dtd" [
	<!ENTITY ns_svg "http://www.w3.org/2000/svg">
	<!ENTITY ns_xlink "http://www.w3.org/1999/xlink">
]>
<svg  version="1.1" id="&#x56FE;&#x5C42;_1" xmlns="&ns_svg;" xmlns:xlink="&ns_xlink;" width="31.956" height="31.241"
	 viewBox="0 0 31.956 31.241" style="overflow:visible;enable-background:new 0 0 31.956 31.241;" xml:space="preserve">
<g>
	<path style="opacity:0.61;" d="M27.111,18.832c0.947,1.567-2.314,5.469-7.282,8.717c-4.969,3.249-9.762,4.608-10.709,3.042
		c-0.945-1.566,2.314-5.47,7.281-8.718C21.37,18.627,26.164,17.264,27.111,18.832z"/>
	<path style="fill:#683300;" d="M8.601,11.657c-0.723,0-1.253-0.412-1.813,0.25c1.385,1.188,2.397,4.169,1.938,7
		c-0.594,3.656-2.375,4.063-3.938,5.125c0.484,0.444,3.699,1.313,4.281,1.313c1.946,0,2.392-3.823,2.392-7.294
		C11.461,14.584,10.547,11.657,8.601,11.657z"/>
	<path style="fill:#6B3400;" d="M27.7,13.604V7.283c0-0.769,0.43-1.425,1.05-1.744c-0.25-0.128-0.528-0.206-0.825-0.206
		c-1.034,0-1.875,0.872-1.875,1.95v6.01c0,1.076,1.181,2.322,2.217,2.322c0.297,0,1.167,0.087,1.417-0.041
		C29.064,15.256,27.7,14.373,27.7,13.604z"/>
	<path style="fill:#683300;" d="M19.226,18.988v-6.321c0-0.767,0.429-1.425,1.048-1.743c-0.25-0.129-0.526-0.207-0.825-0.207
		c-1.035,0-1.875,0.873-1.875,1.95l0.075,6.478c0,1.077,1.249,2.388,2.284,2.388c0.298,0,1.167,0.004,1.417-0.125
		C20.729,21.089,19.226,19.756,19.226,18.988z"/>
	<linearGradient id="XMLID_3_" gradientUnits="userSpaceOnUse" x1="14.0386" y1="10.6943" x2="21.9305" y2="21.5457">
		<stop  offset="0" style="stop-color:#F8A10C"/>
		<stop  offset="0.0328" style="stop-color:#F7A70F"/>
		<stop  offset="0.1152" style="stop-color:#F5AF13"/>
		<stop  offset="0.2697" style="stop-color:#F5B114"/>
		<stop  offset="0.5893" style="stop-color:#F9C20C"/>
		<stop  offset="1" style="stop-color:#FFDE00"/>
	</linearGradient>
	<path style="fill:url(#XMLID_3_);stroke:#696969;stroke-width:0.25;" d="M30.976,5.905c1.054-0.775,1.098-3.145,0.326-4.4
		c-0.773-1.256-2.271-1.751-3.387-1.08c0,0-15.625,10.14-16.016,10.841c-1.182-3.042-3.097-5.027-5.268-5.027
		c-3.593,0-6.506,5.434-6.506,12.135c0,6.702,2.913,12.135,6.506,12.135c3.595,0,7.144-4.791,7.144-11.493
		c0-0.219,2.306-2.036,5.225-4.247v4.609c0,1.079,0.84,1.953,1.875,1.953c1.036,0,1.875-0.874,1.875-1.953
		c0,0-0.089-6.971-0.234-7.247c1.761-1.31,3.511-2.6,4.96-3.664v5.139c0,1.077,0.84,1.951,1.875,1.951
		c1.035,0,1.875-0.874,1.875-1.951L30.976,5.905z M8.474,24.121c-1.491,0-2.701-2.613-2.701-5.84c0-3.225,1.209-5.84,2.701-5.84
		c1.492,0,2.701,2.615,2.701,5.84C11.175,21.508,9.966,24.121,8.474,24.121z"/>
	<linearGradient id="XMLID_4_" gradientUnits="userSpaceOnUse" x1="8.2881" y1="25.1553" x2="4.6056" y2="12.2657">
		<stop  offset="0.2697" style="stop-color:#AC650F"/>
		<stop  offset="0.3376" style="stop-color:#AE6916"/>
		<stop  offset="0.4357" style="stop-color:#B47629"/>
		<stop  offset="0.5522" style="stop-color:#BE8949"/>
		<stop  offset="0.6828" style="stop-color:#CCA574"/>
		<stop  offset="0.8252" style="stop-color:#DEC9AD"/>
		<stop  offset="0.9753" style="stop-color:#F3F4F0"/>
		<stop  offset="1" style="stop-color:#F7FBFC"/>
	</linearGradient>
	<path style="fill:url(#XMLID_4_);" d="M2.392,18.449c0.375-4.584,1.75-10.595,8.25-9.709c-0.333-1.375-3.604-2.417-4.125-2.417
		c-3.437,0-6.583,5.552-6.318,12.475c0.266,6.922,2.651,10.453,4.995,11.391C2.642,26.449,2.122,21.758,2.392,18.449z"/>
	<path style="opacity:0.58;fill:#FFFFFF;" d="M30.855,1.095c0,0-16.566,11.931-17.338,11.729c-0.375-0.098-0.063,0.104-1.708-1.25
		c0.774,0.803,1.434,2.438,1.417,2.813L31.027,1.329L30.855,1.095z"/>
	<path style="opacity:0.58;fill:#FFFFC2;" d="M9.871,8.47c-3.125-1.125-7.854,3.063-7.375,9.563
		C3.975,7.179,10.166,8.575,9.871,8.47z"/>
</g>
</svg>
