<?xml version="1.0" encoding="UTF-8" standalone="no"?>
<!-- Created with Inkscape (http://www.inkscape.org/) -->
<svg
   xmlns:dc="http://purl.org/dc/elements/1.1/"
   xmlns:cc="http://web.resource.org/cc/"
   xmlns:rdf="http://www.w3.org/1999/02/22-rdf-syntax-ns#"
   xmlns:svg="http://www.w3.org/2000/svg"
   xmlns="http://www.w3.org/2000/svg"
   xmlns:xlink="http://www.w3.org/1999/xlink"
   xmlns:sodipodi="http://inkscape.sourceforge.net/DTD/sodipodi-0.dtd"
   xmlns:inkscape="http://www.inkscape.org/namespaces/inkscape"
   id="svg2"
   sodipodi:version="0.32"
   inkscape:version="0.41"
   width="52.800000pt"
   height="21.600000pt"
   sodipodi:docbase="/home/user"
   sodipodi:docname="signal-small.svg"
   version="1.0">
  <metadata
     id="metadata7">
    <rdf:RDF
       id="RDF4">
      <cc:Work
         rdf:about=""
         id="Work6">
        <dc:format
           id="format8">image/svg+xml</dc:format>
        <dc:type
           rdf:resource="http://purl.org/dc/dcmitype/StillImage"
           id="type10" />
      </cc:Work>
    </rdf:RDF>
  </metadata>
  <defs
     id="defs5">
    <linearGradient
       id="linearGradient12745">
      <stop
         style="stop-color:#ff5b00;stop-opacity:1;"
         offset="0"
         id="stop12747" />
      <stop
         style="stop-color:#ffd12c;stop-opacity:1;"
         offset="1"
         id="stop12749" />
    </linearGradient>
    <linearGradient
       id="linearGradient9203">
      <stop
         style="stop-color:black;stop-opacity:1;"
         offset="0"
         id="stop9205" />
      <stop
         style="stop-color:#eaeaea;stop-opacity:1;"
         offset="1"
         id="stop9207" />
    </linearGradient>
    <linearGradient
       inkscape:collect="always"
       xlink:href="#linearGradient12745"
       id="linearGradient4152"
       gradientUnits="userSpaceOnUse"
       gradientTransform="matrix(0.000000,0.996110,-0.977778,0.000000,51.78005,46.58630)"
       spreadMethod="reflect"
       x1="-9.9248447"
       y1="31.041883"
       x2="-9.9248447"
       y2="36.104385" />
    <linearGradient
       inkscape:collect="always"
       xlink:href="#linearGradient9203"
       id="linearGradient2193"
       gradientUnits="userSpaceOnUse"
       gradientTransform="matrix(0.000000,0.996110,-0.980150,0.000000,40.89764,26.77986)"
       spreadMethod="reflect"
       x1="-9.9248428"
       y1="23.099197"
       x2="-9.9248428"
       y2="36.104389" />
    <linearGradient
       inkscape:collect="always"
       xlink:href="#linearGradient9203"
       id="linearGradient2211"
       gradientUnits="userSpaceOnUse"
       gradientTransform="matrix(0.000000,0.996110,-0.980150,0.000000,51.89763,26.77936)"
       spreadMethod="reflect"
       x1="-9.9248428"
       y1="23.099197"
       x2="-9.9248428"
       y2="36.104389" />
    <linearGradient
       inkscape:collect="always"
       xlink:href="#linearGradient9203"
       id="linearGradient2229"
       gradientUnits="userSpaceOnUse"
       gradientTransform="matrix(0.000000,0.996110,-0.980150,0.000000,62.89765,26.77936)"
       spreadMethod="reflect"
       x1="-9.9248428"
       y1="23.099197"
       x2="-9.9248428"
       y2="36.104389" />
    <linearGradient
       inkscape:collect="always"
       xlink:href="#linearGradient9203"
       id="linearGradient2247"
       gradientUnits="userSpaceOnUse"
       gradientTransform="matrix(0.000000,0.996110,-0.980150,0.000000,73.89765,26.77936)"
       spreadMethod="reflect"
       x1="-9.9248428"
       y1="23.099197"
       x2="-9.9248428"
       y2="36.104389" />
    <linearGradient
       inkscape:collect="always"
       xlink:href="#linearGradient9203"
       id="linearGradient2265"
       gradientUnits="userSpaceOnUse"
       gradientTransform="matrix(0.000000,0.996110,-0.980150,0.000000,84.89765,26.77936)"
       spreadMethod="reflect"
       x1="-9.9248428"
       y1="23.099197"
       x2="-9.9248428"
       y2="36.104389" />
    <linearGradient
       inkscape:collect="always"
       xlink:href="#linearGradient12745"
       id="linearGradient2287"
       gradientUnits="userSpaceOnUse"
       gradientTransform="matrix(0.000000,0.996110,-0.977778,0.000000,62.84605,41.58630)"
       spreadMethod="reflect"
       x1="-9.9248447"
       y1="31.041883"
       x2="-9.9248447"
       y2="36.104385" />
    <linearGradient
       inkscape:collect="always"
       xlink:href="#linearGradient12745"
       id="linearGradient2294"
       gradientUnits="userSpaceOnUse"
       gradientTransform="matrix(0.000000,0.996110,-0.977778,0.000000,73.75805,36.18630)"
       spreadMethod="reflect"
       x1="-9.9248447"
       y1="31.041883"
       x2="-9.9248447"
       y2="36.104385" />
    <linearGradient
       inkscape:collect="always"
       xlink:href="#linearGradient12745"
       id="linearGradient2306"
       gradientUnits="userSpaceOnUse"
       gradientTransform="matrix(0.000000,0.996110,-0.977778,0.000000,84.80205,30.78630)"
       spreadMethod="reflect"
       x1="-9.9248447"
       y1="31.041883"
       x2="-9.9248447"
       y2="36.104385" />
    <linearGradient
       inkscape:collect="always"
       xlink:href="#linearGradient12745"
       id="linearGradient2310"
       gradientUnits="userSpaceOnUse"
       gradientTransform="matrix(0.000000,0.996110,-0.977778,0.000000,95.80205,26.28630)"
       spreadMethod="reflect"
       x1="-9.9248447"
       y1="31.041883"
       x2="-9.9248447"
       y2="36.104385" />
  </defs>
  <sodipodi:namedview
     inkscape:window-height="1122"
     inkscape:window-width="1592"
     inkscape:pageshadow="2"
     inkscape:pageopacity="0.0"
     borderopacity="1.0"
     bordercolor="#666666"
     pagecolor="#ffffff"
     id="base"
     showguides="true"
     inkscape:guide-bbox="true"
     inkscape:zoom="22.727273"
     inkscape:cx="33.000000"
     inkscape:cy="9.9799998"
     inkscape:window-x="0"
     inkscape:window-y="0"
     inkscape:current-layer="svg2"
     showgrid="true"
     gridspacingx="0.88000000pt"
     gridspacingy="0.72000000pt">
    <sodipodi:guide
       orientation="horizontal"
       position="1052.3581"
       id="guide5426" />
  </sodipodi:namedview>
  <path
     style="fill:url(#linearGradient2193);fill-opacity:1.0000000;stroke:none;stroke-width:0.88271505;stroke-linecap:butt;stroke-linejoin:miter;stroke-miterlimit:0.0000000;stroke-opacity:1.0000000"
     d="M 5.5000000,0.90000000 C 2.9709027,0.90000002 0.89277445,2.6274700 0.59375000,4.8687500 L 0.56250000,4.8687500 L 0.56250000,5.3062500 L 0.56250000,5.5250000 L 0.56250000,26.993750 L 10.468750,26.993750 L 10.468750,5.7125000 L 10.468750,5.1187500 L 10.468750,4.8687500 L 10.437500,4.8687500 C 10.141250,2.6247100 8.0312308,0.90000000 5.5000000,0.90000000 z "
     id="path1995" />
  <rect
     style="fill:#dddddd;fill-opacity:1.0000000;stroke:none;stroke-width:0.80000001;stroke-miterlimit:4.0000000;stroke-opacity:1.0000000"
     id="rect2005"
     width="23.400000"
     height="0.91200000"
     x="2.7000003"
     y="-1.6599998"
     transform="matrix(0.000000,1.000000,-1.000000,0.000000,0.000000,0.000000)" />
  <rect
     style="fill:#8a8a8a;fill-opacity:1.0000000;stroke:none;stroke-width:0.80000001;stroke-miterlimit:4.0000000;stroke-opacity:1.0000000"
     id="rect2003"
     width="24.300001"
     height="0.78000003"
     x="2.7000000"
     y="-10.242500"
     transform="matrix(0.000000,1.000000,-1.000000,0.000000,0.000000,0.000000)" />
  <path
     sodipodi:type="arc"
     style="fill:none;fill-opacity:1.0000000;stroke:#999999;stroke-width:0.89999998;stroke-linecap:butt;stroke-linejoin:miter;stroke-miterlimit:0.0000000;stroke-opacity:1.0000000"
     id="path2007"
     sodipodi:cx="23.340693"
     sodipodi:cy="22.457729"
     sodipodi:rx="5.1643806"
     sodipodi:ry="5.1066780"
     d="M 23.819863,27.542379 A 5.1643806,5.1066780 0 1 1 23.395585,17.351340"
     transform="matrix(0.000000,0.911383,-0.993149,0.000000,27.80399,4.562826)"
     sodipodi:start="1.4778790"
     sodipodi:end="4.7230182"
     sodipodi:open="true" />
  <path
     sodipodi:type="arc"
     style="fill:none;fill-opacity:1.0000000;stroke:#999999;stroke-width:0.89999998;stroke-linecap:butt;stroke-linejoin:miter;stroke-miterlimit:0.0000000;stroke-opacity:1.0000000"
     id="path2009"
     sodipodi:cx="23.340693"
     sodipodi:cy="22.457729"
     sodipodi:rx="5.1643806"
     sodipodi:ry="5.1066780"
     d="M 23.819863,27.542379 A 5.1643806,5.1066780 0 1 1 23.395585,17.351340"
     transform="matrix(0.000000,0.911383,-0.993149,0.000000,27.80399,-11.63717)"
     sodipodi:start="1.4778790"
     sodipodi:end="4.7230182"
     sodipodi:open="true" />
  <path
     sodipodi:type="arc"
     style="fill:none;fill-opacity:1.0000000;stroke:#999999;stroke-width:0.89999998;stroke-linecap:butt;stroke-linejoin:miter;stroke-miterlimit:0.0000000;stroke-opacity:1.0000000"
     id="path2011"
     sodipodi:cx="23.340693"
     sodipodi:cy="22.457729"
     sodipodi:rx="5.1643806"
     sodipodi:ry="5.1066780"
     d="M 23.819863,27.542379 A 5.1643806,5.1066780 0 1 1 23.395585,17.351340"
     transform="matrix(0.000000,0.911383,-0.993149,0.000000,27.80400,-0.837174)"
     sodipodi:start="1.4778790"
     sodipodi:end="4.7230182"
     sodipodi:open="true" />
  <path
     sodipodi:type="arc"
     style="fill:none;fill-opacity:1.0000000;stroke:#999999;stroke-width:0.89999998;stroke-linecap:butt;stroke-linejoin:miter;stroke-miterlimit:0.0000000;stroke-opacity:1.0000000"
     id="path2013"
     sodipodi:cx="23.340693"
     sodipodi:cy="22.457729"
     sodipodi:rx="5.1643806"
     sodipodi:ry="5.1066780"
     d="M 23.819863,27.542379 A 5.1643806,5.1066780 0 1 1 23.395585,17.351340"
     transform="matrix(0.000000,0.911383,-0.993149,0.000000,27.80399,-6.237174)"
     sodipodi:start="1.4778790"
     sodipodi:end="4.7230182"
     sodipodi:open="true" />
  <path
     style="fill:none;fill-opacity:1.0000000;stroke:#000000;stroke-width:0.91581035;stroke-linecap:butt;stroke-linejoin:round;stroke-miterlimit:1.5000000;stroke-opacity:1.0000000"
     d="M 5.4842961,0.45776251 C 2.9175820,0.45776251 0.82534483,2.1567545 0.52187480,4.3644324 L 0.45905934,4.3644324 L 0.45905934,4.7950891 L 0.45905934,5.0104180 L 0.45905934,26.543246 L 10.540941,26.543246 L 10.540941,5.1949851 L 10.540941,4.6105221 L 10.540941,4.3644324 L 10.509533,4.3644324 C 10.208873,2.1540375 8.0531770,0.45776251 5.4842961,0.45776251 z "
     id="path2015" />
  <path
     style="fill:url(#linearGradient2211);fill-opacity:1.0000000;stroke:none;stroke-width:0.88271505;stroke-linecap:butt;stroke-linejoin:miter;stroke-miterlimit:0.0000000;stroke-opacity:1.0000000"
     d="M 16.499993,0.89949544 C 13.970895,0.89949554 11.892767,2.6269654 11.593743,4.8682454 L 11.562493,4.8682454 L 11.562493,5.3057454 L 11.562493,5.5244954 L 11.562493,26.993245 L 21.468743,26.993245 L 21.468743,5.7119954 L 21.468743,5.1182454 L 21.468743,4.8682454 L 21.437493,4.8682454 C 21.141243,2.6242054 19.031223,0.89949544 16.499993,0.89949544 z "
     id="path2195" />
  <path
     style="fill:url(#linearGradient4152);fill-opacity:1.0000000;stroke:none;stroke-width:0.88271505;stroke-linecap:butt;stroke-linejoin:miter;stroke-miterlimit:0.0000000;stroke-opacity:1.0000000"
     d="M 16.468750 20.687500 C 13.945771 20.687499 11.892061 22.446210 11.593750 24.687500 L 11.531250 24.687500 L 11.531250 25.125000 L 11.531250 25.343750 L 11.531250 27.000000 L 21.437500 27.000000 L 21.437500 25.531250 L 21.437500 24.937500 L 21.437500 24.687500 L 21.406250 24.687500 C 21.110715 22.443459 18.993861 20.687500 16.468750 20.687500 z "
     id="path4136" />
  <rect
     style="fill:#b45e04;fill-opacity:1.0000000;stroke:none;stroke-width:1.0000000;stroke-linecap:round;stroke-linejoin:round;stroke-miterlimit:4.0000000;stroke-opacity:0.79607844"
     id="rect2335"
     width="3.5999999"
     height="1.0879999"
     x="22.500000"
     y="-21.444000"
     transform="matrix(0.000000,1.000000,-1.000000,0.000000,0.000000,0.000000)" />
  <rect
     style="fill:#dddddd;fill-opacity:1.0000000;stroke:none;stroke-width:0.80000001;stroke-miterlimit:4.0000000;stroke-opacity:1.0000000"
     id="rect2197"
     width="20.700504"
     height="0.91200000"
     x="2.6994958"
     y="-12.659992"
     transform="matrix(0.000000,1.000000,-1.000000,0.000000,0.000000,0.000000)" />
  <rect
     style="fill:#e4c575;fill-opacity:1.0000000;stroke:none;stroke-width:1.0000000;stroke-linecap:round;stroke-linejoin:round;stroke-miterlimit:4.0000000;stroke-opacity:0.79607844"
     id="rect2327"
     width="2.7000003"
     height="1.1320000"
     x="23.400000"
     y="-12.666000"
     transform="matrix(0.000000,1.000000,-1.000000,0.000000,0.000000,0.000000)" />
  <rect
     style="fill:#8a8a8a;fill-opacity:1.0000000;stroke:none;stroke-width:0.80000001;stroke-miterlimit:4.0000000;stroke-opacity:1.0000000"
     id="rect2207"
     width="20.700504"
     height="0.78000003"
     x="2.6994956"
     y="-21.119993"
     transform="matrix(0.000000,1.000000,-1.000000,0.000000,0.000000,0.000000)" />
  <path
     sodipodi:type="arc"
     style="fill:none;fill-opacity:1.0000000;stroke:#999999;stroke-width:0.89999998;stroke-linecap:butt;stroke-linejoin:miter;stroke-miterlimit:0.0000000;stroke-opacity:1.0000000"
     id="path2201"
     sodipodi:cx="23.340693"
     sodipodi:cy="22.457729"
     sodipodi:rx="5.1643806"
     sodipodi:ry="5.1066780"
     d="M 23.819863,27.542379 A 5.1643806,5.1066780 0 1 1 23.395585,17.351340"
     transform="matrix(0.000000,0.911383,-0.993149,0.000000,38.80398,-11.63767)"
     sodipodi:start="1.4778790"
     sodipodi:end="4.7230182"
     sodipodi:open="true" />
  <path
     sodipodi:type="arc"
     style="fill:none;fill-opacity:1.0000000;stroke:#999999;stroke-width:0.89999998;stroke-linecap:butt;stroke-linejoin:miter;stroke-miterlimit:0.0000000;stroke-opacity:1.0000000"
     id="path2203"
     sodipodi:cx="23.340693"
     sodipodi:cy="22.457729"
     sodipodi:rx="5.1643806"
     sodipodi:ry="5.1066780"
     d="M 23.819863,27.542379 A 5.1643806,5.1066780 0 1 1 23.395585,17.351340"
     transform="matrix(0.000000,0.911383,-0.993149,0.000000,38.80399,-0.837679)"
     sodipodi:start="1.4778790"
     sodipodi:end="4.7230182"
     sodipodi:open="true" />
  <path
     sodipodi:type="arc"
     style="fill:none;fill-opacity:1.0000000;stroke:#999999;stroke-width:0.89999998;stroke-linecap:butt;stroke-linejoin:miter;stroke-miterlimit:0.0000000;stroke-opacity:1.0000000"
     id="path2205"
     sodipodi:cx="23.340693"
     sodipodi:cy="22.457729"
     sodipodi:rx="5.1643806"
     sodipodi:ry="5.1066780"
     d="M 23.819863,27.542379 A 5.1643806,5.1066780 0 1 1 23.395585,17.351340"
     transform="matrix(0.000000,0.911383,-0.993149,0.000000,38.80398,-6.237679)"
     sodipodi:start="1.4778790"
     sodipodi:end="4.7230182"
     sodipodi:open="true" />
  <path
     sodipodi:type="arc"
     style="fill:none;fill-opacity:1.0000000;stroke:#999999;stroke-width:0.89999998;stroke-linecap:butt;stroke-linejoin:miter;stroke-miterlimit:0.0000000;stroke-opacity:1.0000000"
     id="path2199"
     sodipodi:cx="23.340693"
     sodipodi:cy="22.457729"
     sodipodi:rx="5.1643806"
     sodipodi:ry="5.1066780"
     d="M 23.819863,27.542379 A 5.1643806,5.1066780 0 1 1 23.395585,17.351340"
     transform="matrix(0.000000,0.911383,-0.993149,0.000000,38.80398,4.562321)"
     sodipodi:start="1.4778790"
     sodipodi:end="4.7230182"
     sodipodi:open="true" />
  <path
     style="fill:none;fill-opacity:1.0000000;stroke:#000000;stroke-width:0.91581035;stroke-linecap:butt;stroke-linejoin:round;stroke-miterlimit:1.5000000;stroke-opacity:1.0000000"
     d="M 16.484296,0.45675394 C 13.917582,0.45675394 11.825345,2.1557458 11.521875,4.3634237 L 11.459059,4.3634237 L 11.459059,4.7940804 L 11.459059,5.0094093 L 11.459059,26.542237 L 21.540941,26.542237 L 21.540941,5.1939764 L 21.540941,4.6095134 L 21.540941,4.3634237 L 21.509533,4.3634237 C 21.208873,2.1530288 19.053177,0.45675394 16.484296,0.45675394 z "
     id="path2209" />
  <path
     style="fill:url(#linearGradient2229);fill-opacity:1.0000000;stroke:none;stroke-width:0.88271505;stroke-linecap:butt;stroke-linejoin:miter;stroke-miterlimit:0.0000000;stroke-opacity:1.0000000"
     d="M 27.500011,0.89949549 C 24.970913,0.89949551 22.892785,2.6269654 22.593761,4.8682454 L 22.562511,4.8682454 L 22.562511,5.3057454 L 22.562511,5.5244954 L 22.562511,26.993245 L 32.468761,26.993245 L 32.468761,5.7119954 L 32.468761,5.1182454 L 32.468761,4.8682454 L 32.437511,4.8682454 C 32.141261,2.6242054 30.031241,0.89949549 27.500011,0.89949549 z "
     id="path2213" />
  <rect
     style="fill:#8a8a8a;fill-opacity:1.0000000;stroke:none;stroke-width:0.80000001;stroke-miterlimit:4.0000000;stroke-opacity:1.0000000"
     id="rect2225"
     width="14.400504"
     height="0.78000003"
     x="2.6994956"
     y="-32.120010"
     transform="matrix(0.000000,1.000000,-1.000000,0.000000,0.000000,0.000000)" />
  <rect
     style="fill:#dddddd;fill-opacity:1.0000000;stroke:none;stroke-width:0.80000001;stroke-miterlimit:4.0000000;stroke-opacity:1.0000000"
     id="rect2215"
     width="15.300505"
     height="0.91200000"
     x="2.6994958"
     y="-23.660009"
     transform="matrix(0.000000,1.000000,-1.000000,0.000000,0.000000,0.000000)" />
  <path
     style="fill:url(#linearGradient2287);fill-opacity:1.0000000;stroke:none;stroke-width:0.88271505;stroke-linecap:butt;stroke-linejoin:miter;stroke-miterlimit:0.0000000;stroke-opacity:1.0000000"
     d="M 27.531250 15.687500 C 25.008271 15.687500 22.954561 17.446210 22.656250 19.687500 L 22.593750 19.687500 L 22.593750 20.125000 L 22.593750 20.343750 L 22.593750 27.000000 L 32.500000 27.000000 L 32.500000 20.531250 L 32.500000 19.937500 L 32.500000 19.687500 L 32.468750 19.687500 C 32.173215 17.443459 30.056361 15.687500 27.531250 15.687500 z "
     id="path2285" />
  <rect
     style="fill:#e4c575;fill-opacity:1.0000000;stroke:none;stroke-width:1.0000000;stroke-linecap:round;stroke-linejoin:round;stroke-miterlimit:4.0000000;stroke-opacity:0.79607844"
     id="rect2325"
     width="8.1000004"
     height="1.1320000"
     x="18.000000"
     y="-23.666000"
     transform="matrix(0.000000,1.000000,-1.000000,0.000000,0.000000,0.000000)" />
  <rect
     style="fill:#b45e04;fill-opacity:1.0000000;stroke:none;stroke-width:1.0000000;stroke-linecap:round;stroke-linejoin:round;stroke-miterlimit:4.0000000;stroke-opacity:0.79607844"
     id="rect2333"
     width="8.1000004"
     height="1.0879999"
     x="18.000000"
     y="-32.487999"
     transform="matrix(0.000000,1.000000,-1.000000,0.000000,0.000000,0.000000)" />
  <path
     sodipodi:type="arc"
     style="fill:none;fill-opacity:1.0000000;stroke:#999999;stroke-width:0.89999998;stroke-linecap:butt;stroke-linejoin:miter;stroke-miterlimit:0.0000000;stroke-opacity:1.0000000"
     id="path2217"
     sodipodi:cx="23.340693"
     sodipodi:cy="22.457729"
     sodipodi:rx="5.1643806"
     sodipodi:ry="5.1066780"
     d="M 23.819863,27.542379 A 5.1643806,5.1066780 0 1 1 23.395585,17.351340"
     transform="matrix(0.000000,0.911383,-0.993149,0.000000,49.80400,4.562321)"
     sodipodi:start="1.4778790"
     sodipodi:end="4.7230182"
     sodipodi:open="true" />
  <path
     sodipodi:type="arc"
     style="fill:none;fill-opacity:1.0000000;stroke:#999999;stroke-width:0.89999998;stroke-linecap:butt;stroke-linejoin:miter;stroke-miterlimit:0.0000000;stroke-opacity:1.0000000"
     id="path2219"
     sodipodi:cx="23.340693"
     sodipodi:cy="22.457729"
     sodipodi:rx="5.1643806"
     sodipodi:ry="5.1066780"
     d="M 23.819863,27.542379 A 5.1643806,5.1066780 0 1 1 23.395585,17.351340"
     transform="matrix(0.000000,0.911383,-0.993149,0.000000,49.80400,-11.63767)"
     sodipodi:start="1.4778790"
     sodipodi:end="4.7230182"
     sodipodi:open="true" />
  <path
     sodipodi:type="arc"
     style="fill:none;fill-opacity:1.0000000;stroke:#999999;stroke-width:0.89999998;stroke-linecap:butt;stroke-linejoin:miter;stroke-miterlimit:0.0000000;stroke-opacity:1.0000000"
     id="path2221"
     sodipodi:cx="23.340693"
     sodipodi:cy="22.457729"
     sodipodi:rx="5.1643806"
     sodipodi:ry="5.1066780"
     d="M 23.819863,27.542379 A 5.1643806,5.1066780 0 1 1 23.395585,17.351340"
     transform="matrix(0.000000,0.911383,-0.993149,0.000000,49.80401,-0.837679)"
     sodipodi:start="1.4778790"
     sodipodi:end="4.7230182"
     sodipodi:open="true" />
  <path
     sodipodi:type="arc"
     style="fill:none;fill-opacity:1.0000000;stroke:#999999;stroke-width:0.89999998;stroke-linecap:butt;stroke-linejoin:miter;stroke-miterlimit:0.0000000;stroke-opacity:1.0000000"
     id="path2223"
     sodipodi:cx="23.340693"
     sodipodi:cy="22.457729"
     sodipodi:rx="5.1643806"
     sodipodi:ry="5.1066780"
     d="M 23.819863,27.542379 A 5.1643806,5.1066780 0 1 1 23.395585,17.351340"
     transform="matrix(0.000000,0.911383,-0.993149,0.000000,49.80400,-6.237679)"
     sodipodi:start="1.4778790"
     sodipodi:end="4.7230182"
     sodipodi:open="true" />
  <path
     style="fill:none;fill-opacity:1.0000000;stroke:#000000;stroke-width:0.91581035;stroke-linecap:butt;stroke-linejoin:round;stroke-miterlimit:1.5000000;stroke-opacity:1.0000000"
     d="M 27.484296,0.45776300 C 24.917582,0.45776300 22.825345,2.1567549 22.521875,4.3644328 L 22.459059,4.3644328 L 22.459059,4.7950895 L 22.459059,5.0104184 L 22.459059,26.543246 L 32.540941,26.543246 L 32.540941,5.1949855 L 32.540941,4.6105225 L 32.540941,4.3644328 L 32.509533,4.3644328 C 32.208873,2.1540379 30.053177,0.45776300 27.484296,0.45776300 z "
     id="path2227" />
  <path
     style="fill:url(#linearGradient2247);fill-opacity:1.0000000;stroke:none;stroke-width:0.88271505;stroke-linecap:butt;stroke-linejoin:miter;stroke-miterlimit:0.0000000;stroke-opacity:1.0000000"
     d="M 38.500011,0.89949549 C 35.970913,0.89949551 33.892785,2.6269655 33.593761,4.8682454 L 33.562511,4.8682454 L 33.562511,5.3057454 L 33.562511,5.5244954 L 33.562511,26.993245 L 43.468761,26.993245 L 43.468761,5.7119954 L 43.468761,5.1182454 L 43.468761,4.8682454 L 43.437511,4.8682454 C 43.141261,2.6242055 41.031241,0.89949549 38.500011,0.89949549 z "
     id="path2231" />
  <rect
     style="fill:#dddddd;fill-opacity:1.0000000;stroke:none;stroke-width:0.80000001;stroke-miterlimit:4.0000000;stroke-opacity:1.0000000"
     id="rect2233"
     width="9.9005041"
     height="0.91200000"
     x="2.6994958"
     y="-34.660007"
     transform="matrix(0.000000,1.000000,-1.000000,0.000000,0.000000,0.000000)" />
  <rect
     style="fill:#8a8a8a;fill-opacity:1.0000000;stroke:none;stroke-width:0.80000001;stroke-miterlimit:4.0000000;stroke-opacity:1.0000000"
     id="rect2243"
     width="9.0005045"
     height="0.78000003"
     x="2.6994956"
     y="-43.120010"
     transform="matrix(0.000000,1.000000,-1.000000,0.000000,0.000000,0.000000)" />
  <path
     style="fill:url(#linearGradient2294);fill-opacity:1.0000000;stroke:none;stroke-width:0.88271505;stroke-linecap:butt;stroke-linejoin:miter;stroke-miterlimit:0.0000000;stroke-opacity:1.0000000"
     d="M 38.468750 10.312500 C 35.945771 10.312500 33.860811 12.039960 33.562500 14.281250 L 33.500000 14.281250 L 33.500000 14.718750 L 33.500000 14.937500 L 33.500000 27.000000 L 43.406250 27.000000 L 43.406250 15.125000 L 43.406250 14.531250 L 43.406250 14.281250 L 43.375000 14.281250 C 43.079466 12.037210 40.993861 10.312500 38.468750 10.312500 z "
     id="path2292" />
  <rect
     style="fill:#e4c575;fill-opacity:1.0000000;stroke:none;stroke-width:1.0000000;stroke-linecap:round;stroke-linejoin:round;stroke-miterlimit:4.0000000;stroke-opacity:0.79607844"
     id="rect2323"
     width="13.500000"
     height="1.1320000"
     x="12.600000"
     y="-34.666000"
     transform="matrix(0.000000,1.000000,-1.000000,0.000000,0.000000,0.000000)" />
  <rect
     style="fill:#b45e04;fill-opacity:1.0000000;stroke:none;stroke-width:1.0000000;stroke-linecap:round;stroke-linejoin:round;stroke-miterlimit:4.0000000;stroke-opacity:0.79607844"
     id="rect2331"
     width="13.499999"
     height="1.0879999"
     x="12.600000"
     y="-43.444000"
     transform="matrix(0.000000,1.000000,-1.000000,0.000000,0.000000,0.000000)" />
  <path
     sodipodi:type="arc"
     style="fill:none;fill-opacity:1.0000000;stroke:#999999;stroke-width:0.89999998;stroke-linecap:butt;stroke-linejoin:miter;stroke-miterlimit:0.0000000;stroke-opacity:1.0000000"
     id="path2235"
     sodipodi:cx="23.340693"
     sodipodi:cy="22.457729"
     sodipodi:rx="5.1643806"
     sodipodi:ry="5.1066780"
     d="M 23.819863,27.542379 A 5.1643806,5.1066780 0 1 1 23.395585,17.351340"
     transform="matrix(0.000000,0.911383,-0.993149,0.000000,60.80400,4.562321)"
     sodipodi:start="1.4778790"
     sodipodi:end="4.7230182"
     sodipodi:open="true" />
  <path
     sodipodi:type="arc"
     style="fill:none;fill-opacity:1.0000000;stroke:#999999;stroke-width:0.89999998;stroke-linecap:butt;stroke-linejoin:miter;stroke-miterlimit:0.0000000;stroke-opacity:1.0000000"
     id="path2237"
     sodipodi:cx="23.340693"
     sodipodi:cy="22.457729"
     sodipodi:rx="5.1643806"
     sodipodi:ry="5.1066780"
     d="M 23.819863,27.542379 A 5.1643806,5.1066780 0 1 1 23.395585,17.351340"
     transform="matrix(0.000000,0.911383,-0.993149,0.000000,60.80400,-11.63767)"
     sodipodi:start="1.4778790"
     sodipodi:end="4.7230182"
     sodipodi:open="true" />
  <path
     sodipodi:type="arc"
     style="fill:none;fill-opacity:1.0000000;stroke:#999999;stroke-width:0.89999998;stroke-linecap:butt;stroke-linejoin:miter;stroke-miterlimit:0.0000000;stroke-opacity:1.0000000"
     id="path2239"
     sodipodi:cx="23.340693"
     sodipodi:cy="22.457729"
     sodipodi:rx="5.1643806"
     sodipodi:ry="5.1066780"
     d="M 23.819863,27.542379 A 5.1643806,5.1066780 0 1 1 23.395585,17.351340"
     transform="matrix(0.000000,0.911383,-0.993149,0.000000,60.80401,-0.837679)"
     sodipodi:start="1.4778790"
     sodipodi:end="4.7230182"
     sodipodi:open="true" />
  <path
     sodipodi:type="arc"
     style="fill:none;fill-opacity:1.0000000;stroke:#999999;stroke-width:0.89999998;stroke-linecap:butt;stroke-linejoin:miter;stroke-miterlimit:0.0000000;stroke-opacity:1.0000000"
     id="path2241"
     sodipodi:cx="23.340693"
     sodipodi:cy="22.457729"
     sodipodi:rx="5.1643806"
     sodipodi:ry="5.1066780"
     d="M 23.819863,27.542379 A 5.1643806,5.1066780 0 1 1 23.395585,17.351340"
     transform="matrix(0.000000,0.911383,-0.993149,0.000000,60.80400,-6.237679)"
     sodipodi:start="1.4778790"
     sodipodi:end="4.7230182"
     sodipodi:open="true" />
  <path
     style="fill:none;fill-opacity:1.0000000;stroke:#000000;stroke-width:0.91581035;stroke-linecap:butt;stroke-linejoin:round;stroke-miterlimit:1.5000000;stroke-opacity:1.0000000"
     d="M 38.484296,0.45776300 C 35.917582,0.45776300 33.825345,2.1567550 33.521875,4.3644328 L 33.459059,4.3644328 L 33.459059,4.7950895 L 33.459059,5.0104184 L 33.459059,26.543246 L 43.540941,26.543246 L 43.540941,5.1949855 L 43.540941,4.6105225 L 43.540941,4.3644328 L 43.509533,4.3644328 C 43.208873,2.1540380 41.053177,0.45776300 38.484296,0.45776300 z "
     id="path2245" />
  <path
     style="fill:url(#linearGradient2265);fill-opacity:1.0000000;stroke:none;stroke-width:0.88271505;stroke-linecap:butt;stroke-linejoin:miter;stroke-miterlimit:0.0000000;stroke-opacity:1.0000000"
     d="M 49.500011,0.89949544 C 46.970913,0.89949554 44.892785,2.6269654 44.593761,4.8682454 L 44.562511,4.8682454 L 44.562511,5.3057454 L 44.562511,5.5244954 L 44.562511,26.993245 L 54.468761,26.993245 L 54.468761,5.7119954 L 54.468761,5.1182454 L 54.468761,4.8682454 L 54.437511,4.8682454 C 54.141261,2.6242054 52.031241,0.89949544 49.500011,0.89949544 z "
     id="path2249" />
  <rect
     style="fill:#dddddd;fill-opacity:1.0000000;stroke:none;stroke-width:0.80000001;stroke-miterlimit:4.0000000;stroke-opacity:1.0000000"
     id="rect2251"
     width="4.5005045"
     height="0.91200000"
     x="2.6994956"
     y="-45.660011"
     transform="matrix(0.000000,1.000000,-1.000000,0.000000,0.000000,0.000000)" />
  <path
     style="fill:url(#linearGradient2306);fill-opacity:1.0000000;stroke:none;stroke-width:0.88271505;stroke-linecap:butt;stroke-linejoin:miter;stroke-miterlimit:0.0000000;stroke-opacity:1.0000000"
     d="M 49.500000 4.9062500 C 46.977022 4.9062499 44.923311 6.6337100 44.625000 8.8750000 L 44.562500 8.8750000 L 44.562500 9.3125000 L 44.562500 9.5312500 L 44.562500 27.000000 L 54.437500 27.000000 L 54.437500 9.7187500 L 54.437500 9.1250000 L 54.437500 8.8750000 L 54.406250 8.8750000 C 54.110714 6.6309596 52.025111 4.9062500 49.500000 4.9062500 z "
     id="path2304" />
  <rect
     style="fill:#e4c575;fill-opacity:1.0000000;stroke:none;stroke-width:1.0000000;stroke-linecap:round;stroke-linejoin:round;stroke-miterlimit:4.0000000;stroke-opacity:0.79607844"
     id="rect2321"
     width="18.900000"
     height="1.1320000"
     x="7.1999998"
     y="-45.666000"
     transform="matrix(0.000000,1.000000,-1.000000,0.000000,0.000000,0.000000)" />
  <rect
     style="fill:#b45e04;fill-opacity:1.0000000;stroke:none;stroke-width:1.0000000;stroke-linecap:round;stroke-linejoin:round;stroke-miterlimit:4.0000000;stroke-opacity:0.79607844"
     id="rect2329"
     width="18.900000"
     height="1.0879999"
     x="7.1999998"
     y="-54.487999"
     transform="matrix(0.000000,1.000000,-1.000000,0.000000,0.000000,0.000000)" />
  <path
     sodipodi:type="arc"
     style="fill:none;fill-opacity:1.0000000;stroke:#999999;stroke-width:0.89999998;stroke-linecap:butt;stroke-linejoin:miter;stroke-miterlimit:0.0000000;stroke-opacity:1.0000000"
     id="path2253"
     sodipodi:cx="23.340693"
     sodipodi:cy="22.457729"
     sodipodi:rx="5.1643806"
     sodipodi:ry="5.1066780"
     d="M 23.819863,27.542379 A 5.1643806,5.1066780 0 1 1 23.395585,17.351340"
     transform="matrix(0.000000,0.911383,-0.993149,0.000000,71.80400,4.562321)"
     sodipodi:start="1.4778790"
     sodipodi:end="4.7230182"
     sodipodi:open="true" />
  <rect
     style="fill:#8a8a8a;fill-opacity:1.0000000;stroke:none;stroke-width:0.80000001;stroke-miterlimit:4.0000000;stroke-opacity:1.0000000"
     id="rect2261"
     width="4.5005045"
     height="0.78000003"
     x="2.6994956"
     y="-54.120010"
     transform="matrix(0.000000,1.000000,-1.000000,0.000000,0.000000,0.000000)" />
  <path
     sodipodi:type="arc"
     style="fill:none;fill-opacity:1.0000000;stroke:#999999;stroke-width:0.89999998;stroke-linecap:butt;stroke-linejoin:miter;stroke-miterlimit:0.0000000;stroke-opacity:1.0000000"
     id="path2255"
     sodipodi:cx="23.340693"
     sodipodi:cy="22.457729"
     sodipodi:rx="5.1643806"
     sodipodi:ry="5.1066780"
     d="M 23.819863,27.542379 A 5.1643806,5.1066780 0 1 1 23.395585,17.351340"
     transform="matrix(0.000000,0.911383,-0.993149,0.000000,71.80400,-11.63767)"
     sodipodi:start="1.4778790"
     sodipodi:end="4.7230182"
     sodipodi:open="true" />
  <path
     sodipodi:type="arc"
     style="fill:none;fill-opacity:1.0000000;stroke:#999999;stroke-width:0.89999998;stroke-linecap:butt;stroke-linejoin:miter;stroke-miterlimit:0.0000000;stroke-opacity:1.0000000"
     id="path2257"
     sodipodi:cx="23.340693"
     sodipodi:cy="22.457729"
     sodipodi:rx="5.1643806"
     sodipodi:ry="5.1066780"
     d="M 23.819863,27.542379 A 5.1643806,5.1066780 0 1 1 23.395585,17.351340"
     transform="matrix(0.000000,0.911383,-0.993149,0.000000,71.80401,-0.837679)"
     sodipodi:start="1.4778790"
     sodipodi:end="4.7230182"
     sodipodi:open="true" />
  <path
     sodipodi:type="arc"
     style="fill:none;fill-opacity:1.0000000;stroke:#999999;stroke-width:0.89999998;stroke-linecap:butt;stroke-linejoin:miter;stroke-miterlimit:0.0000000;stroke-opacity:1.0000000"
     id="path2259"
     sodipodi:cx="23.340693"
     sodipodi:cy="22.457729"
     sodipodi:rx="5.1643806"
     sodipodi:ry="5.1066780"
     d="M 23.819863,27.542379 A 5.1643806,5.1066780 0 1 1 23.395585,17.351340"
     transform="matrix(0.000000,0.911383,-0.993149,0.000000,71.80400,-6.237679)"
     sodipodi:start="1.4778790"
     sodipodi:end="4.7230182"
     sodipodi:open="true" />
  <path
     style="fill:none;fill-opacity:1.0000000;stroke:#000000;stroke-width:0.91585839;stroke-linecap:butt;stroke-linejoin:round;stroke-miterlimit:1.5000000;stroke-opacity:1.0000000"
     d="M 49.484871,0.45776306 C 46.917888,0.45776306 44.825431,2.1567550 44.521930,4.3644329 L 44.459107,4.3644329 L 44.459107,4.7950896 L 44.459107,5.0104185 L 44.459107,26.543246 L 54.542047,26.543246 L 54.542047,5.1949856 L 54.542047,4.6105226 L 54.542047,4.3644329 L 54.510635,4.3644329 C 54.209944,2.1540380 52.054022,0.45776306 49.484871,0.45776306 z "
     id="path2263" />
  <path
     style="fill:url(#linearGradient2310);fill-opacity:1.0000000;stroke:none;stroke-width:0.88271505;stroke-linecap:butt;stroke-linejoin:miter;stroke-miterlimit:0.0000000;stroke-opacity:1.0000000"
     d="M 60.500000 0.40625000 C 57.977022 0.40624999 55.923311 2.1337100 55.625000 4.3750000 L 55.562500 4.3750000 L 55.562500 4.8125000 L 55.562500 5.0312500 L 55.562500 27.000000 L 65.437500 27.000000 L 65.437500 5.2187500 L 65.437500 4.6250000 L 65.437500 4.3750000 L 65.406250 4.3750000 C 65.110718 2.1309601 63.025111 0.40625000 60.500000 0.40625000 z "
     id="path2308" />
  <rect
     style="fill:#b45e04;fill-opacity:1.0000000;stroke:none;stroke-width:1.0000000;stroke-linecap:round;stroke-linejoin:round;stroke-miterlimit:4.0000000;stroke-opacity:0.79607844"
     id="rect2648"
     width="24.299999"
     height="1.0879999"
     x="2.7000000"
     y="-65.428001"
     transform="matrix(0.000000,1.000000,-1.000000,0.000000,0.000000,0.000000)" />
  <rect
     style="fill:#e4c575;fill-opacity:1.0000000;stroke:none;stroke-width:1.0000000;stroke-linecap:round;stroke-linejoin:round;stroke-miterlimit:4.0000000;stroke-opacity:0.79607844"
     id="rect2658"
     width="23.700001"
     height="1.1320000"
     x="2.7000000"
     y="-56.660000"
     transform="matrix(0.000000,1.000000,-1.000000,0.000000,0.000000,0.000000)" />
  <path
     sodipodi:type="arc"
     style="fill:none;fill-opacity:1.0000000;stroke:#999999;stroke-width:0.89999998;stroke-linecap:butt;stroke-linejoin:miter;stroke-miterlimit:0.0000000;stroke-opacity:1.0000000"
     id="path2271"
     sodipodi:cx="23.340693"
     sodipodi:cy="22.457729"
     sodipodi:rx="5.1643806"
     sodipodi:ry="5.1066780"
     d="M 23.819863,27.542379 A 5.1643806,5.1066780 0 1 1 23.395585,17.351340"
     transform="matrix(0.000000,0.911383,-0.993149,0.000000,82.74824,4.562321)"
     sodipodi:start="1.4778790"
     sodipodi:end="4.7230182"
     sodipodi:open="true" />
  <path
     sodipodi:type="arc"
     style="fill:none;fill-opacity:1.0000000;stroke:#999999;stroke-width:0.89999998;stroke-linecap:butt;stroke-linejoin:miter;stroke-miterlimit:0.0000000;stroke-opacity:1.0000000"
     id="path2273"
     sodipodi:cx="23.340693"
     sodipodi:cy="22.457729"
     sodipodi:rx="5.1643806"
     sodipodi:ry="5.1066780"
     d="M 23.819863,27.542379 A 5.1643806,5.1066780 0 1 1 23.395585,17.351340"
     transform="matrix(0.000000,0.911383,-0.993149,0.000000,82.74824,-11.63767)"
     sodipodi:start="1.4778790"
     sodipodi:end="4.7230182"
     sodipodi:open="true" />
  <path
     sodipodi:type="arc"
     style="fill:none;fill-opacity:1.0000000;stroke:#999999;stroke-width:0.89999998;stroke-linecap:butt;stroke-linejoin:miter;stroke-miterlimit:0.0000000;stroke-opacity:1.0000000"
     id="path2275"
     sodipodi:cx="23.340693"
     sodipodi:cy="22.457729"
     sodipodi:rx="5.1643806"
     sodipodi:ry="5.1066780"
     d="M 23.819863,27.542379 A 5.1643806,5.1066780 0 1 1 23.395585,17.351340"
     transform="matrix(0.000000,0.911383,-0.993149,0.000000,82.74825,-0.837679)"
     sodipodi:start="1.4778790"
     sodipodi:end="4.7230182"
     sodipodi:open="true" />
  <path
     sodipodi:type="arc"
     style="fill:none;fill-opacity:1.0000000;stroke:#999999;stroke-width:0.89999998;stroke-linecap:butt;stroke-linejoin:miter;stroke-miterlimit:0.0000000;stroke-opacity:1.0000000"
     id="path2277"
     sodipodi:cx="23.340693"
     sodipodi:cy="22.457729"
     sodipodi:rx="5.1643806"
     sodipodi:ry="5.1066780"
     d="M 23.819863,27.542379 A 5.1643806,5.1066780 0 1 1 23.395585,17.351340"
     transform="matrix(0.000000,0.911383,-0.993149,0.000000,82.74824,-6.237679)"
     sodipodi:start="1.4778790"
     sodipodi:end="4.7230182"
     sodipodi:open="true" />
  <path
     style="fill:none;fill-opacity:1.0000000;stroke:#000000;stroke-width:0.91350788;stroke-linecap:butt;stroke-linejoin:round;stroke-miterlimit:1.5000000;stroke-opacity:1.0000000"
     d="M 60.456754,0.45776306 C 57.902930,0.45776306 55.821200,2.1567550 55.519254,4.3644329 L 55.456754,4.3644329 L 55.456754,4.7950896 L 55.456754,5.0104185 L 55.456754,26.543246 L 65.488004,26.543246 L 65.488004,5.1949856 L 65.488004,4.6105226 L 65.488004,4.3644329 L 65.456754,4.3644329 C 65.157604,2.1540380 63.012734,0.45776306 60.456754,0.45776306 z "
     id="path2281" />
</svg>
