<?xml version="1.0" encoding="UTF-8" standalone="no"?>
<!-- Created with Inkscape (http://www.inkscape.org/) -->
<svg
   xmlns:dc="http://purl.org/dc/elements/1.1/"
   xmlns:cc="http://web.resource.org/cc/"
   xmlns:rdf="http://www.w3.org/1999/02/22-rdf-syntax-ns#"
   xmlns:svg="http://www.w3.org/2000/svg"
   xmlns="http://www.w3.org/2000/svg"
   xmlns:xlink="http://www.w3.org/1999/xlink"
   xmlns:sodipodi="http://inkscape.sourceforge.net/DTD/sodipodi-0.dtd"
   xmlns:inkscape="http://www.inkscape.org/namespaces/inkscape"
   width="750.00000pt"
   height="140.00000pt"
   id="svg2"
   sodipodi:version="0.32"
   inkscape:version="0.41"
   sodipodi:docbase="/home/user"
   sodipodi:docname="statusbar2.svg">
  <defs
     id="defs3">
    <linearGradient
       id="linearGradient6688"
       inkscape:collect="always">
      <stop
         id="stop6690"
         offset="0"
         style="stop-color:#000000;stop-opacity:1;" />
      <stop
         id="stop6692"
         offset="1"
         style="stop-color:#000000;stop-opacity:0;" />
    </linearGradient>
    <linearGradient
       gradientUnits="userSpaceOnUse"
       y2="480.69080"
       x2="216.44247"
       y1="-18.731699"
       x1="215.08408"
       gradientTransform="scale(2.244679,0.445498)"
       id="linearGradient6694"
       xlink:href="#linearGradient6688"
       inkscape:collect="always" />
    <linearGradient
       y2="480.69080"
       x2="216.44247"
       y1="-18.731699"
       x1="215.08408"
       gradientTransform="scale(2.244679,0.445498)"
       gradientUnits="userSpaceOnUse"
       id="linearGradient7468"
       xlink:href="#linearGradient6688"
       inkscape:collect="always" />
  </defs>
  <sodipodi:namedview
     inkscape:guide-points="true"
     inkscape:guide-bbox="true"
     showguides="true"
     id="base"
     pagecolor="#ffffff"
     bordercolor="#666666"
     borderopacity="1.0"
     inkscape:pageopacity="0.0"
     inkscape:pageshadow="2"
     inkscape:zoom="1.1313709"
     inkscape:cx="388.46843"
     inkscape:cy="-42.094789"
     inkscape:document-units="px"
     inkscape:current-layer="layer1"
     inkscape:window-width="1592"
     inkscape:window-height="1107"
     inkscape:window-x="0"
     inkscape:window-y="31" />
  <metadata
     id="metadata4">
    <rdf:RDF
       id="RDF5">
      <cc:Work
         rdf:about=""
         id="Work6">
        <dc:format
           id="format7">image/svg+xml</dc:format>
        <dc:type
           id="type9"
           rdf:resource="http://purl.org/dc/dcmitype/StillImage" />
      </cc:Work>
    </rdf:RDF>
  </metadata>
  <g
     inkscape:label="Layer 1"
     inkscape:groupmode="layer"
     id="layer1">
    <g
       transform="matrix(1.006675,0.000000,0.000000,1.000000,0.877051,0.883883)"
       id="g7464">
      <path
         id="path2061"
         d="M 86.001071,0.55473434 L 86.001071,0.61664879 C 39.002443,1.1708911 1.0234843,39.424711 1.0234843,86.553909 C 1.0234843,134.02803 39.548543,172.55308 87.022659,172.55308 C 88.297265,172.55308 89.538303,172.42231 90.799441,172.36734 L 836.96147,172.36734 C 838.62992,172.46395 840.28402,172.61500 841.97654,172.61500 C 889.45061,172.61500 927.97570,134.08989 927.97571,86.615824 C 927.97571,39.454937 889.94764,1.1513286 842.90526,0.64760602 L 842.90526,0.55473434 L 87.022659,0.55473434 L 86.001071,0.55473434 z "
         style="fill:url(#linearGradient7468);fill-opacity:1.0000000;fill-rule:evenodd;stroke:none;stroke-width:14.859468;stroke-linecap:butt;stroke-linejoin:miter;stroke-miterlimit:4.0000000;stroke-dashoffset:0.0000000;stroke-opacity:1.0000000" />
      <path
         id="path6696"
         d="M 99.875512,14.723657 L 99.875512,14.775709 C 54.725505,15.241698 18.240379,47.403636 18.240379,87.027568 C 18.240379,126.94149 55.250123,159.33148 100.85692,159.33148 C 102.08139,159.33148 103.27361,159.22152 104.48517,159.17532 L 821.29813,159.17532 C 822.90098,159.25655 824.49003,159.38353 826.11596,159.38353 C 871.72275,159.38353 908.73252,126.99351 908.73252,87.079621 C 908.73252,47.429048 872.20019,15.225236 827.00812,14.801735 L 827.00812,14.723657 L 100.85692,14.723657 L 99.875512,14.723657 z "
         style="fill:#ffffff;fill-opacity:1.0000000;fill-rule:evenodd;stroke:none;stroke-width:14.859468;stroke-linecap:butt;stroke-linejoin:miter;stroke-miterlimit:4.0000000;stroke-dashoffset:0.0000000;stroke-opacity:1.0000000" />
    </g>
  </g>
</svg>
