<?xml version="1.0" encoding="iso-8859-1"?>
<!-- Generator: Adobe Illustrator 12.0.1, SVG Export Plug-In . SVG Version: 6.00 Build 51448)  -->
<!DOCTYPE svg PUBLIC "-//W3C//DTD SVG 1.1//EN" "http://www.w3.org/Graphics/SVG/1.1/DTD/svg11.dtd" [
	<!ENTITY ns_svg "http://www.w3.org/2000/svg">
	<!ENTITY ns_xlink "http://www.w3.org/1999/xlink">
]>
<svg  version="1.1" id="&#x56FE;&#x5C42;_1" xmlns="&ns_svg;" xmlns:xlink="&ns_xlink;" width="21.168" height="21.168"
	 viewBox="0 0 21.168 21.168" style="overflow:visible;enable-background:new 0 0 21.168 21.168;" xml:space="preserve">
<radialGradient id="XMLID_2_" cx="10.459" cy="10.438" r="16.736" gradientUnits="userSpaceOnUse">
	<stop  offset="0" style="stop-color:#E5E3DE"/>
	<stop  offset="0" style="stop-color:#D6D5D1"/>
	<stop  offset="0" style="stop-color:#AFAFAE"/>
	<stop  offset="0" style="stop-color:#A3A3A3"/>
	<stop  offset="0.0153" style="stop-color:#A8A8A8"/>
	<stop  offset="0.0912" style="stop-color:#BCBCBC"/>
	<stop  offset="0.1786" style="stop-color:#C9C9C9"/>
	<stop  offset="0.2866" style="stop-color:#D2D2D2"/>
	<stop  offset="0.4775" style="stop-color:#D4D4D4"/>
</radialGradient>
<path style="fill:url(#XMLID_2_);stroke:#000000;stroke-width:0.5;" d="M20.918,12V9.167h-2.467
	c-0.202-1.132-0.646-2.177-1.271-3.089l1.762-1.734l-1.987-2.02l-1.762,1.733c-0.936-0.662-2.019-1.132-3.192-1.342V0.25H9.167
	v2.466C8.036,2.918,6.99,3.364,6.078,3.987L4.344,2.226l-2.02,1.987l1.733,1.761C3.396,6.91,2.927,7.993,2.717,9.167H0.25V12h2.467
	c0.202,1.132,0.646,2.177,1.271,3.089l-1.762,1.734l1.987,2.02l1.762-1.734c0.937,0.663,2.019,1.132,3.192,1.342v2.467h2.834v-2.467
	c1.131-0.202,2.177-0.646,3.089-1.271l1.733,1.763l2.02-1.988l-1.733-1.762c0.663-0.936,1.132-2.018,1.342-3.193H20.918z
	 M10.584,13.168C9.156,13.168,8,12.011,8,10.584C8,9.158,9.156,8,10.584,8s2.584,1.158,2.584,2.584
	C13.168,12.011,12.012,13.168,10.584,13.168z"/>
<path style="fill:#C5C3BF;" d="M10.563,5.054c-3.072,0-5.563,2.49-5.563,5.563s2.49,5.563,5.563,5.563s5.563-2.49,5.563-5.563
	S13.636,5.054,10.563,5.054z M10.563,13.116c-1.381,0-2.5-1.119-2.5-2.5s1.119-2.5,2.5-2.5s2.5,1.119,2.5,2.5
	S11.944,13.116,10.563,13.116z"/>
<path style="fill:#C5C3BF;" d="M3.683,5.286L2.662,4.25L2.637,4.275l1.026,1.042C3.67,5.308,3.676,5.296,3.683,5.286z"/>
<path style="fill:#C5C3BF;" d="M18.23,9.257c-0.225-0.963-0.531-2.481-1.081-2.991l1.762-1.734l-0.713-0.725l-2.041,1.83
	c0.624,0.911,1.485,3.02,1.688,4.151l2.349-0.064l0.016,1.58l-2.302-0.031c-0.21,1.174-1.04,2.955-1.703,3.891l1.626,1.744
	l-0.985,0.99l-1.625-1.719c-1.162,0.905-2.755,1.485-3.886,1.688l0.042,2.333H9.929l-0.131-2.364
	c-1.174-0.21-2.901-0.951-3.838-1.614l-2.122,1.936l-1.274-1.295l-0.025,0.025l1.987,2.02l1.762-1.734
	c0.649,0.461,2.032,0.832,2.981,1.086c0.023,0.006,0.065,1.941,0.065,1.941l-0.021,0.771l2.75,0.021l0.083-2.458
	c1.131-0.202,2.344-0.666,3.256-1.29l1.396,1.451l1.781-1.734c0,0-1.57-1.643-1.542-1.683c0.62-0.907,1.369-2.105,1.547-3.099
	l2.104,0.047l0.016-2.922C20.704,9.304,18.238,9.292,18.23,9.257z"/>
<path style="fill:#C5C3BF;" d="M0.501,11.304l0.034-2.067H0.499l-0.034,2.834l2.472,0.028c0.135,0.808,0.8,2.147,1.299,3.017
	c0.062,0.106-1.723,1.655-1.672,1.745l0.359,0.161l1.984-2.031c-0.678-0.981-1.341-2.523-1.531-3.656L0.501,11.304z"/>
<path style="fill:#C5C3BF;" d="M16.954,2.71c-0.041-0.027-1.699,1.496-1.74,1.469c-1.009-0.667-2.138-1.29-3.112-1.482l0.088-2.541
	L9.188,0.144L9.215,1.04l0.208,0.001c0.005,0.684,0.039,1.829,0,1.841c-0.938,0.3-2.579,0.656-3.19,1.131L4.396,2.358L2.499,4.463
	l0.026,0.025L3.98,3.012l1.875,1.813c0.906-0.704,2.706-1.238,3.974-1.521l0.088-2.258l1.339,0.011l-0.028,2.132
	c1.169,0.231,2.912,0.967,4.055,1.771l2.016-1.953C17.158,2.909,17.101,2.808,16.954,2.71z"/>
<path style="fill:#C5C3BF;" d="M4.783,5.866L2.971,3.991l1.476-1.455L4.422,2.51L2.316,4.406l1.655,1.837
	c-0.521,0.67-0.949,1.954-1.256,2.936l-2.358,0L0.332,9.918l2.892-0.051C3.299,9.518,3.313,8.46,4.783,5.866z"/>
</svg>
