<?xml version="1.0" encoding="iso-8859-1"?>
<!-- Generator: Adobe Illustrator 12.0.1, SVG Export Plug-In . SVG Version: 6.00 Build 51448)  -->
<!DOCTYPE svg PUBLIC "-//W3C//DTD SVG 1.1//EN" "http://www.w3.org/Graphics/SVG/1.1/DTD/svg11.dtd" [
	<!ENTITY ns_svg "http://www.w3.org/2000/svg">
	<!ENTITY ns_xlink "http://www.w3.org/1999/xlink">
]>
<svg  version="1.1" id="&#x56FE;&#x5C42;_1" xmlns="&ns_svg;" xmlns:xlink="&ns_xlink;" width="15.314" height="14.526"
	 viewBox="0 0 15.314 14.526" style="overflow:visible;enable-background:new 0 0 15.314 14.526;" xml:space="preserve">
<rect x="1.463" y="1.156" style="fill:#F6F5EA;" width="12.473" height="12.257"/>
<polygon style="fill:#FEAB1F;stroke:#0E0E0D;stroke-width:0.5;" points="15.063,14.276 0.337,14.276 0.252,0.25 14.979,0.25 "/>
<linearGradient id="XMLID_6_" gradientUnits="userSpaceOnUse" x1="2.7314" y1="7.1211" x2="-0.1056" y2="7.2481">
	<stop  offset="0" style="stop-color:#FEE04F"/>
	<stop  offset="0.1485" style="stop-color:#FADB4E"/>
	<stop  offset="0.3224" style="stop-color:#F0CD4A"/>
	<stop  offset="0.509" style="stop-color:#DFB545"/>
	<stop  offset="0.7044" style="stop-color:#C6953D"/>
	<stop  offset="0.9049" style="stop-color:#A86B33"/>
	<stop  offset="0.9719" style="stop-color:#9C5B2F"/>
</linearGradient>
<polygon style="fill:url(#XMLID_6_);" points="0.2,14.325 3.034,11.755 2.995,2.675 0.2,0.145 "/>
<g>
	<linearGradient id="XMLID_7_" gradientUnits="userSpaceOnUse" x1="8.0303" y1="3.2998" x2="7.1133" y2="14.2158">
		<stop  offset="0" style="stop-color:#FFDD00"/>
		<stop  offset="0.1809" style="stop-color:#CFA900"/>
		<stop  offset="0.3795" style="stop-color:#A07800"/>
		<stop  offset="0.5673" style="stop-color:#7C5000"/>
		<stop  offset="0.7389" style="stop-color:#623400"/>
		<stop  offset="0.8887" style="stop-color:#522300"/>
		<stop  offset="1" style="stop-color:#4C1D00"/>
	</linearGradient>
	<rect x="3.061" y="2.696" style="fill:url(#XMLID_7_);stroke:#000000;stroke-width:0.25;" width="9.272" height="9.127"/>
</g>
<linearGradient id="XMLID_8_" gradientUnits="userSpaceOnUse" x1="7.7119" y1="11.7715" x2="7.669" y2="14.2685">
	<stop  offset="0" style="stop-color:#FFE821"/>
	<stop  offset="0.1403" style="stop-color:#FCE321"/>
	<stop  offset="0.309" style="stop-color:#F2D423"/>
	<stop  offset="0.4923" style="stop-color:#E1BC25"/>
	<stop  offset="0.6861" style="stop-color:#CA9A29"/>
	<stop  offset="0.8859" style="stop-color:#AC6F2D"/>
	<stop  offset="0.9719" style="stop-color:#9E5A2F"/>
</linearGradient>
<polygon style="fill:url(#XMLID_8_);" points="15.136,14.359 15.136,14.337 12.254,11.759 3.099,11.774 0.2,14.325 "/>
<linearGradient id="XMLID_9_" gradientUnits="userSpaceOnUse" x1="7.6934" y1="0.2744" x2="7.6934" y2="3.2053">
	<stop  offset="0" style="stop-color:#FFE853"/>
	<stop  offset="0.1206" style="stop-color:#F8DE50"/>
	<stop  offset="0.3284" style="stop-color:#E6C249"/>
	<stop  offset="0.5984" style="stop-color:#C9953E"/>
	<stop  offset="0.917" style="stop-color:#A2572E"/>
	<stop  offset="0.9438" style="stop-color:#9E512D"/>
</linearGradient>
<polygon style="fill:url(#XMLID_9_);" points="0.242,0.187 3.063,2.73 12.375,2.738 15.144,0.209 "/>
<linearGradient id="XMLID_10_" gradientUnits="userSpaceOnUse" x1="15.1445" y1="7.252" x2="12.0952" y2="7.252">
	<stop  offset="0" style="stop-color:#F2DC31"/>
	<stop  offset="0.1648" style="stop-color:#EFD831"/>
	<stop  offset="0.3327" style="stop-color:#E6CC30"/>
	<stop  offset="0.5021" style="stop-color:#D7B72F"/>
	<stop  offset="0.6725" style="stop-color:#C29B2E"/>
	<stop  offset="0.8421" style="stop-color:#A7762C"/>
	<stop  offset="0.9719" style="stop-color:#8E552B"/>
</linearGradient>
<polygon style="fill:url(#XMLID_10_);" points="15.102,0.167 12.333,2.696 12.254,11.759 15.136,14.337 "/>
<polygon style="fill:none;stroke:#000000;stroke-width:0.25;" points="12.326,11.796 3.095,11.78 3.095,2.737 12.316,2.753 "/>
<path style="fill:#391903;" d="M6.736,7.796C6.682,7.796,5.2,8.79,5.05,9.093c-0.151,0.303-0.357,0.759-0.275,0.938
	c0.083,0.181-0.858,1.622-1.009,1.648c-0.15,0.028,7.156,0.001,7.156,0.001s1.082-2.395,0.136-2.975
	c-0.947-0.578-1.18-1.338-1.18-1.338L6.736,7.796z"/>
<path style="fill:#2A0306;" d="M6.599,3.698c0,0,0.879-0.801,1.77-0.539c0.892,0.262,1.125,1.408,1.275,2
	c0.151,0.595,0.591,3.037,0.769,3.134S4.79,8.665,6.599,3.698z"/>
<path style="fill:#F8B213;" d="M6.53,4.153c0,0-0.141,1.767-0.096,1.849c0.068,0.124,0.275,0.856,0.74,0.953
	C7.642,7.051,8.218,6.733,8.656,6.21c0.438-0.525-0.188-2.038-0.563-2.277C7.752,3.711,6.818,3.655,6.53,4.153z"/>
<path style="fill:#F8B213;" d="M7.256,6.691c0,0,0.29,0.829,0.166,0.953c-0.123,0.124-0.919,0.44-0.919,0.44
	S5.981,8.954,6.215,9.148c0.233,0.192,1.673,0.676,2.153,0.4c0.48-0.277,0.549-0.635,0.631-0.759
	C9.082,8.665,8.602,6.305,8.41,6.293C8.218,6.278,7.339,6.637,7.256,6.691z"/>
<path style="fill:#D0971B;" d="M6.983,5.258C6.889,5.123,6.596,5.144,6.544,5.036C6.455,4.853,6.646,4.879,6.53,4.886
	c0,0,0.535,0.15,0.617,0.067c0.082-0.082-0.04,0.773-0.068,0.828C7.07,5.8,7.126,5.459,6.983,5.258z"/>
<path style="fill:#BD8915;" d="M7.478,7.63c-0.146-0.07-0.069-0.523-0.12-0.659c0,0,0.504-0.031,1.161-0.611
	C8.573,6.788,7.699,7.738,7.478,7.63z"/>
<path style="fill:#D0971B;" d="M7.615,5.308c0.111-0.118,0.399-0.059,0.466-0.159c0.11-0.169-0.082-0.169,0.033-0.147
	c0,0-0.552,0.078-0.621-0.016C7.422,4.892,7.447,5.489,7.615,5.308z"/>
<path style="fill:#D0971B;" d="M7.354,9.521C7.289,9.372,7.68,9.19,7.614,9.093c-0.108-0.171-0.282,0.146-0.22,0.056
	c0,0-0.408,0.297-0.52,0.317C6.762,9.487,7.455,9.746,7.354,9.521z"/>
<path style="fill:#D0971B;" d="M7.175,6.265c0,0,0.233-0.027,0.356,0.003c0.197,0.048-0.169-0.162-0.054-0.142
	c0,0-0.768,0-0.7,0.056C6.867,6.256,7.175,6.265,7.175,6.265z"/>
</svg>
