<?xml version="1.0" encoding="iso-8859-1"?>
<!-- Generator: Adobe Illustrator 12.0.0, SVG Export Plug-In . SVG Version: 6.00 Build 51448)  -->
<!DOCTYPE svg PUBLIC "-//W3C//DTD SVG 1.1//EN" "http://www.w3.org/Graphics/SVG/1.1/DTD/svg11.dtd" [
	<!ENTITY ns_svg "http://www.w3.org/2000/svg">
	<!ENTITY ns_xlink "http://www.w3.org/1999/xlink">
]>
<svg  version="1.1" id="&#xCD;_xBC__xB2_&#xE3;_x5F_1" xmlns="&ns_svg;" xmlns:xlink="&ns_xlink;" width="23.531" height="28.445"
	 viewBox="0 0 23.531 28.445" style="overflow:visible;enable-background:new 0 0 23.531 28.445;" xml:space="preserve">
<g>
	
		<linearGradient id="XMLID_8_" gradientUnits="userSpaceOnUse" x1="4226.3535" y1="2514.3662" x2="4240.1357" y2="2519.2043" gradientTransform="matrix(0.9914 0.1311 -0.1311 0.9914 -3849.0066 -3036.949)">
		<stop  offset="0" style="stop-color:#D1D92E"/>
		<stop  offset="0.1119" style="stop-color:#C4D534"/>
		<stop  offset="0.3186" style="stop-color:#A4CA3F"/>
		<stop  offset="0.5674" style="stop-color:#72BC4A"/>
		<stop  offset="0.9831" style="stop-color:#008F4E"/>
	</linearGradient>
	<path style="fill:url(#XMLID_8_);stroke:#003619;stroke-width:0.25;" d="M18.744,0.204l1.723-0.074c0,0,2.715,19.177,2.861,21.037
		c0.23,2.853,0.174,5.566-3.438,6.198c-4.236,0.739-7.08-3.539-5.045-6.815c1.795-2.888,5.705-0.455,5.705-0.455
		S18.705,0.501,18.744,0.204z"/>
	
		<linearGradient id="XMLID_9_" gradientUnits="userSpaceOnUse" x1="4213.4658" y1="2544.1309" x2="4219.2627" y2="2544.1309" gradientTransform="matrix(0.9987 0.0515 -0.0515 0.9987 -4061.7534 -2736.0012)">
		<stop  offset="0" style="stop-color:#FFFFFF"/>
		<stop  offset="0.0912" style="stop-color:#FCFDF9"/>
		<stop  offset="0.1884" style="stop-color:#F4F9EE"/>
		<stop  offset="0.2885" style="stop-color:#E9F3DE"/>
		<stop  offset="0.3905" style="stop-color:#DBEBC7"/>
		<stop  offset="0.494" style="stop-color:#CAE2AA"/>
		<stop  offset="0.5972" style="stop-color:#B4D789"/>
		<stop  offset="0.6854" style="stop-color:#9ECE67"/>
		<stop  offset="0.9494" style="stop-color:#5BB24C"/>
	</linearGradient>
	<path style="fill:url(#XMLID_9_);" d="M20.85,23.202c-0.465,1.021-2.066,1.299-3.578,0.615c-1.514-0.681-2.367-2.063-1.906-3.088
		c0.461-1.022,2.063-1.3,3.578-0.617C20.455,20.794,21.311,22.177,20.85,23.202z"/>
	
		<linearGradient id="XMLID_10_" gradientUnits="userSpaceOnUse" x1="4232.668" y1="2513.5986" x2="4238.0205" y2="2513.5986" gradientTransform="matrix(0.9914 0.1311 -0.1311 0.9914 -3849.0066 -3036.949)">
		<stop  offset="0" style="stop-color:#FFFFFF"/>
		<stop  offset="0.2009" style="stop-color:#EEEFBE"/>
		<stop  offset="0.4054" style="stop-color:#E2E483"/>
		<stop  offset="0.5" style="stop-color:#DDDF6A"/>
		<stop  offset="1" style="stop-color:#92C044"/>
	</linearGradient>
	<polygon style="fill:url(#XMLID_10_);" points="18.992,0.375 19.908,0.25 21.738,20.437 20.676,20.095 	"/>
	
		<linearGradient id="XMLID_11_" gradientUnits="userSpaceOnUse" x1="4208.127" y1="2511.3369" x2="4228.6514" y2="2525.8506" gradientTransform="matrix(0.9914 0.1311 -0.1311 0.9914 -3849.0066 -3036.949)">
		<stop  offset="0" style="stop-color:#D1D92E"/>
		<stop  offset="0.1119" style="stop-color:#C4D534"/>
		<stop  offset="0.3186" style="stop-color:#A4CA3F"/>
		<stop  offset="0.5674" style="stop-color:#72BC4A"/>
		<stop  offset="0.9831" style="stop-color:#008F4E"/>
	</linearGradient>
	<path style="fill:url(#XMLID_11_);stroke:#003619;stroke-width:0.25;" d="M4.697,1.076L6.42,1.001c0,0,2.715,19.179,2.863,21.038
		c0.229,2.852,0.172,5.566-3.441,6.196c-4.232,0.742-7.08-3.537-5.045-6.814c1.795-2.888,5.705-0.456,5.705-0.456
		S4.658,1.375,4.697,1.076z"/>
	
		<linearGradient id="XMLID_12_" gradientUnits="userSpaceOnUse" x1="4199.4121" y1="2546.8232" x2="4205.2188" y2="2546.8232" gradientTransform="matrix(0.9988 0.0496 -0.0496 0.9988 -4067.0134 -2729.3252)">
		<stop  offset="0" style="stop-color:#FFFFFF"/>
		<stop  offset="0.0912" style="stop-color:#FCFDF9"/>
		<stop  offset="0.1884" style="stop-color:#F4F9EE"/>
		<stop  offset="0.2885" style="stop-color:#E9F3DE"/>
		<stop  offset="0.3905" style="stop-color:#DBEBC7"/>
		<stop  offset="0.494" style="stop-color:#CAE2AA"/>
		<stop  offset="0.5972" style="stop-color:#B4D789"/>
		<stop  offset="0.6854" style="stop-color:#9ECE67"/>
		<stop  offset="0.9494" style="stop-color:#5BB24C"/>
	</linearGradient>
	<path style="fill:url(#XMLID_12_);" d="M6.686,24.109c-0.459,1.026-2.064,1.305-3.58,0.623c-1.52-0.68-2.377-2.063-1.918-3.089
		s2.064-1.308,3.582-0.626C6.289,21.698,7.146,23.082,6.686,24.109z"/>
	
		<linearGradient id="XMLID_13_" gradientUnits="userSpaceOnUse" x1="4218.6094" y1="2516.3643" x2="4224.083" y2="2516.3643" gradientTransform="matrix(0.9914 0.1311 -0.1311 0.9914 -3849.0066 -3036.949)">
		<stop  offset="0" style="stop-color:#FFFFFF"/>
		<stop  offset="0.2009" style="stop-color:#EEEFBE"/>
		<stop  offset="0.4054" style="stop-color:#E2E483"/>
		<stop  offset="0.5" style="stop-color:#DDDF6A"/>
		<stop  offset="1" style="stop-color:#92C044"/>
	</linearGradient>
	<polygon style="fill:url(#XMLID_13_);" points="4.689,1.29 5.787,1.22 7.564,21.307 6.502,20.965 	"/>
	
		<linearGradient id="XMLID_14_" gradientUnits="userSpaceOnUse" x1="4220.3145" y1="2507.4287" x2="4233.3984" y2="2507.4287" gradientTransform="matrix(0.9914 0.1311 -0.1311 0.9914 -3849.0066 -3036.949)">
		<stop  offset="0" style="stop-color:#00AF4C"/>
		<stop  offset="0.4695" style="stop-color:#009A49"/>
		<stop  offset="1" style="stop-color:#008A46"/>
	</linearGradient>
	<path style="fill:url(#XMLID_14_);" d="M6.473,0.814c0,0,11.229-0.346,12.271-0.61l0.34,5.047c0,0-6.947,0.656-11.895,0.707
		L6.473,0.814z"/>
</g>
</svg>
