<?xml version="1.0" encoding="utf-8"?>
<!-- Generator: Adobe Illustrator 13.0.0, SVG Export Plug-In  -->
<!DOCTYPE svg PUBLIC "-//W3C//DTD SVG 1.1 Tiny//EN" "http://www.w3.org/Graphics/SVG/1.1/DTD/svg11-tiny.dtd" [
	<!ENTITY ns_flows "http://ns.adobe.com/Flows/1.0/">
]>
<svg version="1.1" baseProfile="tiny"
	 xmlns="http://www.w3.org/2000/svg" xmlns:xlink="http://www.w3.org/1999/xlink" xmlns:a="http://ns.adobe.com/AdobeSVGViewerExtensions/3.0/"
	 x="0px" y="0px" width="22px" height="28px" viewBox="-0.8 -0.3 22 28" xml:space="preserve">
<defs>
</defs>
<g>
	<g>
		<path fill="#FFFFFF" d="M5.8,4.8c0,0.5-0.4,1-1,1H1c-0.5,0-1-0.4-1-1V1c0-0.5,0.4-1,1-1h3.9c0.5,0,1,0.4,1,1V4.8z"/>
	</g>
	<g>
		<path fill="#FFFFFF" d="M13,4.8c0,0.5-0.4,1-0.9,1H8.2c-0.5,0-1-0.4-1-1V1c0-0.5,0.4-1,1-1h3.9C12.6,0,13,0.4,13,1V4.8z"/>
	</g>
	<g>
		<path fill="#FFFFFF" d="M20.3,4.8c0,0.5-0.4,1-1,1h-3.9c-0.5,0-1-0.4-1-1V1c0-0.5,0.4-1,1-1h3.9c0.5,0,1,0.4,1,1V4.8z"/>
	</g>
	<g>
		<path fill="#FFFFFF" d="M5.8,12.1c0,0.5-0.4,1-1,1H1c-0.5,0-1-0.4-1-1V8.2c0-0.5,0.4-1,1-1h3.9c0.5,0,1,0.4,1,1V12.1z"/>
	</g>
	<g>
		<path fill="#FFFFFF" d="M13,12.1c0,0.5-0.4,1-0.9,1H8.2c-0.5,0-1-0.4-1-1V8.2c0-0.5,0.4-1,1-1h3.9c0.5,0,0.9,0.4,0.9,1V12.1z"/>
	</g>
	<g>
		<path fill="#FFFFFF" d="M20.3,12.1c0,0.5-0.4,1-1,1h-3.9c-0.5,0-1-0.4-1-1V8.2c0-0.5,0.4-1,1-1h3.9c0.5,0,1,0.4,1,1V12.1z"/>
	</g>
	<g>
		<path fill="#FFFFFF" d="M5.8,19.3c0,0.5-0.4,1-1,1H1c-0.5,0-1-0.4-1-1v-3.9c0-0.5,0.4-1,1-1h3.9c0.5,0,1,0.4,1,1V19.3z"/>
	</g>
	<g>
		<path fill="#FFFFFF" d="M13,19.3c0,0.5-0.4,1-0.9,1H8.2c-0.5,0-1-0.4-1-1v-3.9c0-0.5,0.4-1,1-1h3.9c0.5,0,0.9,0.4,0.9,1V19.3z"/>
	</g>
	<g>
		<path fill="#FFFFFF" d="M20.3,19.3c0,0.5-0.4,1-1,1h-3.9c-0.5,0-1-0.4-1-1v-3.9c0-0.5,0.4-1,1-1h3.9c0.5,0,1,0.4,1,1V19.3z"/>
	</g>
	<g>
		<path fill="#FFFFFF" d="M13,26.6c0,0.5-0.4,1-0.9,1H8.2c-0.5,0-1-0.4-1-1v-3.9c0-0.5,0.4-1,1-1h3.9c0.5,0,0.9,0.4,0.9,1V26.6z"/>
	</g>
</g>
</svg>
