<?xml version="1.0" encoding="utf-8"?>
<!-- Generator: Adobe Illustrator 13.0.2, SVG Export Plug-In . SVG Version: 6.00 Build 14948)  -->
<!DOCTYPE svg PUBLIC "-//W3C//DTD SVG 1.1 Tiny//EN" "http://www.w3.org/Graphics/SVG/1.1/DTD/svg11-tiny.dtd">
<svg version="1.1" baseProfile="tiny" id="Layer_1" xmlns="http://www.w3.org/2000/svg" xmlns:xlink="http://www.w3.org/1999/xlink"
	 x="0px" y="0px" width="52.537px" height="54.048px" viewBox="0 0 52.537 54.048" xml:space="preserve">
<path fill="#FFFFFF" d="M47.932,1.967c-2.832-2.941-9.174-1.713-9.174-1.713c-2.518,0.175-3.312,0.817-3.312,0.817
	c-9.258,4.415-16.182,10.485-19.54,13.763l-0.011-0.011c0,0-0.426,0.41-1.133,1.16c-0.713,0.733-1.106,1.178-1.106,1.178
	l0.013,0.011c-3.122,3.503-8.873,10.696-12.865,20.142c0,0-0.606,0.821-0.667,3.347c0,0-0.942,6.39,2.125,9.084
	c0,0,2.687,2.944,6.634,4.299c0,0,2.881,0.149,4.74-1.743c0,0,5.425-3.896,4.466-14.455c0,0-0.701-2.074-3.401-2.89l-3.46-1.248
	c0,0,4.999-7.082,9.606-11.552l0.016,0.017c0.058-0.07,0.116-0.133,0.171-0.196c0.065-0.062,0.127-0.127,0.191-0.187l-0.014-0.015
	c4.255-4.806,11.104-10.119,11.104-10.119l1.402,3.403c0.938,2.661,3.04,3.264,3.04,3.264c10.59,0.482,14.237-5.108,14.237-5.108
	c1.808-1.945,1.526-4.814,1.526-4.814C50.992,4.517,47.932,1.967,47.932,1.967z"/>
</svg>
