<?xml version="1.0" encoding="UTF-8" standalone="no"?>
<!-- Created with Inkscape (http://www.inkscape.org/) -->
<svg
   xmlns:svg="http://www.w3.org/2000/svg"
   xmlns="http://www.w3.org/2000/svg"
   version="1.0"
   width="22"
   height="27"
   viewBox="-0.8 -0.3 22 28"
   id="svg2"
   xml:space="preserve">
<defs
   id="defs4" />
<g
   transform="matrix(1.713441,0,0,1.424797,-0.927473,4.280644)"
   id="g8">
		<path
   d="M 5.8,4.8 C 5.8,5.3 5.4,5.8 4.8,5.8 L 1,5.8 C 0.5,5.8 0,5.4 0,4.8 L 0,1 C 0,0.5 0.4,0 1,0 L 4.9,0 C 5.4,0 5.9,0.4 5.9,1 L 5.9,4.8 L 5.8,4.8 z "
   style="fill:white"
   id="path10" />
	</g><g
   transform="matrix(1.713441,0,0,1.424797,-0.927473,4.280644)"
   id="g12">
		<path
   d="M 13,4.8 C 13,5.3 12.6,5.8 12.1,5.8 L 8.2,5.8 C 7.7,5.8 7.2,5.4 7.2,4.8 L 7.2,1 C 7.2,0.5 7.6,0 8.2,0 L 12.1,0 C 12.6,0 13,0.4 13,1 L 13,4.8 z "
   style="fill:white"
   id="path14" />
	</g><g
   transform="matrix(1.713441,0,0,1.424797,-0.927473,4.280644)"
   id="g20">
		<path
   d="M 5.8,12.1 C 5.8,12.6 5.4,13.1 4.8,13.1 L 1,13.1 C 0.5,13.1 0,12.7 0,12.1 L 0,8.2 C 0,7.7 0.4,7.2 1,7.2 L 4.9,7.2 C 5.4,7.2 5.9,7.6 5.9,8.2 L 5.9,12.1 L 5.8,12.1 z "
   style="fill:white"
   id="path22" />
	</g><g
   transform="matrix(1.713441,0,0,1.424797,-0.927473,4.280644)"
   id="g24">
		<path
   d="M 13,12.1 C 13,12.6 12.6,13.1 12.1,13.1 L 8.2,13.1 C 7.7,13.1 7.2,12.7 7.2,12.1 L 7.2,8.2 C 7.2,7.7 7.6,7.2 8.2,7.2 L 12.1,7.2 C 12.6,7.2 13,7.6 13,8.2 L 13,12.1 z "
   style="fill:white"
   id="path26" />
	</g>
</svg>