<?xml version="1.0" encoding="utf-8"?>
<!-- Generator: Adobe Illustrator 13.0.2, SVG Export Plug-In . SVG Version: 6.00 Build 14948)  -->
<!DOCTYPE svg PUBLIC "-//W3C//DTD SVG 1.1 Tiny//EN" "http://www.w3.org/Graphics/SVG/1.1/DTD/svg11-tiny.dtd">
<svg version="1.1" baseProfile="tiny" id="Layer_1" xmlns="http://www.w3.org/2000/svg" xmlns:xlink="http://www.w3.org/1999/xlink"
	 x="0px" y="0px" width="35.438px" height="61.547px" viewBox="0 0 35.438 61.547" xml:space="preserve">
<g>
	<path fill="#FFFFFF" d="M28.03,0H7.408C3.316,0,0,3.319,0,7.409v46.729c0,4.091,3.316,7.409,7.408,7.409H28.03
		c4.091,0,7.407-3.318,7.407-7.409V7.409C35.438,3.319,32.121,0,28.03,0z M17.717,54.101c-6.696,0-12.12-5.429-12.12-12.123
		s5.424-12.123,12.12-12.123c6.696,0,12.119,5.428,12.119,12.123S24.413,54.101,17.717,54.101z M30.306,24.248H5.128V7.464h25.177
		V24.248z"/>
	<path fill="#FFFFFF" stroke="#046593" stroke-width="0.8153" d="M29.179,42.033c0,6.329-5.128,11.464-11.462,11.464
		c-6.33,0-11.462-5.135-11.462-11.464c0-6.331,5.132-11.464,11.462-11.464C24.051,30.569,29.179,35.702,29.179,42.033z"/>
</g>
</svg>
