<?xml version="1.0" encoding="utf-8"?>
<!-- Generator: Adobe Illustrator 13.0.2, SVG Export Plug-In . SVG Version: 6.00 Build 14948)  -->
<!DOCTYPE svg PUBLIC "-//W3C//DTD SVG 1.1 Tiny//EN" "http://www.w3.org/Graphics/SVG/1.1/DTD/svg11-tiny.dtd">
<svg version="1.1" baseProfile="tiny" id="Layer_1" xmlns="http://www.w3.org/2000/svg" xmlns:xlink="http://www.w3.org/1999/xlink"
	 x="0px" y="0px" width="60.537px" height="57.013px" viewBox="0 0 60.537 57.013" xml:space="preserve">
<g>
	<line fill="none" stroke="#FFFFFF" x1="35.029" y1="17.236" x2="52.809" y2="0.363"/>
	<line fill="none" stroke="#FFFFFF" x1="24.868" y1="18.201" x2="6.242" y2="0.525"/>
	<g>
		<path fill="#FFFFFF" d="M60.537,55.013c0,1.1-0.9,2-2,2H2c-1.1,0-2-0.9-2-2V17.867c0-1.1,0.9-2,2-2h56.537c1.1,0,2,0.9,2,2V55.013
			z"/>
	</g>
	<path fill="#046593" d="M54.672,44.145c0,4.411-3.769,7.987-8.416,7.987H14.659c-4.648,0-8.417-3.576-8.417-7.987V29.586
		c0-4.41,3.769-7.986,8.417-7.986h31.598c4.647,0,8.416,3.576,8.416,7.986V44.145z"/>
</g>
</svg>
