<?xml version="1.0" encoding="utf-8"?>
<!-- Generator: Adobe Illustrator 13.0.2, SVG Export Plug-In . SVG Version: 6.00 Build 14948)  -->
<!DOCTYPE svg PUBLIC "-//W3C//DTD SVG 1.1 Tiny//EN" "http://www.w3.org/Graphics/SVG/1.1/DTD/svg11-tiny.dtd">
<svg version="1.1" baseProfile="tiny" id="Layer_1" xmlns="http://www.w3.org/2000/svg" xmlns:xlink="http://www.w3.org/1999/xlink"
	 x="0px" y="0px" width="61.159px" height="50.626px" viewBox="0 0 61.159 50.626" xml:space="preserve">
<g>
	<g>
		<g>
			<path fill="#FFFFFF" d="M48.658,10.197c-1.1,0-2.37-0.82-2.822-1.823l-2.971-6.591C42.413,0.779,41.143-0.022,40.042,0
				L19.078,0.433c-1.1,0.023-2.397,0.849-2.883,1.836l-3.019,6.134c-0.486,0.987-1.783,1.794-2.883,1.794H2c-1.1,0-2,0.9-2,2v36.429
				c0,1.1,0.9,2,2,2h57.159c1.1,0,2-0.9,2-2V12.197c0-1.1-0.9-2-2-2H48.658z"/>
			<path fill="#FFFFFF" d="M48.658,10.197c-1.1,0-2.37-0.82-2.822-1.823l-2.971-6.591C42.413,0.779,41.143-0.022,40.042,0
				L19.078,0.433c-1.1,0.023-2.397,0.849-2.883,1.836l-3.019,6.134c-0.486,0.987-1.783,1.794-2.883,1.794H2c-1.1,0-2,0.9-2,2v36.429
				c0,1.1,0.9,2,2,2h57.159c1.1,0,2-0.9,2-2V12.197c0-1.1-0.9-2-2-2H48.658z"/>
		</g>
	</g>
	<ellipse fill="#046593" stroke="#FFFFFF" cx="29.635" cy="29.432" rx="15.134" ry="15.652"/>
</g>
</svg>
