<?xml version="1.0" encoding="utf-8"?>
<!-- Generator: Adobe Illustrator 13.0.0, SVG Export Plug-In  -->
<!DOCTYPE svg PUBLIC "-//W3C//DTD SVG 1.1 Tiny//EN" "http://www.w3.org/Graphics/SVG/1.1/DTD/svg11-tiny.dtd" [
	<!ENTITY ns_flows "http://ns.adobe.com/Flows/1.0/">
]>
<svg version="1.1" baseProfile="tiny"
	 xmlns="http://www.w3.org/2000/svg" xmlns:xlink="http://www.w3.org/1999/xlink" xmlns:a="http://ns.adobe.com/AdobeSVGViewerExtensions/3.0/"
	 x="0px" y="0px" width="30px" height="11px" viewBox="-0.8 0 30 11" xml:space="preserve">
<defs>
</defs>
<path fill="#FFFFFF" d="M29,5.9c0-1.8-2.3-3.4-2.3-3.4c-0.8-0.7-1.3-0.8-1.3-0.8C21.1,0.3,17.1,0,15.1,0v0c0,0-0.3,0-0.7,0
	c-0.4,0-0.7,0-0.7,0l0,0C11.6,0.2,7.6,0.6,3.4,2.3c0,0-0.4,0.1-1.2,0.8c0,0-2.3,1.7-2.2,3.5c0,0-0.1,1.7,0.7,3.4c0,0,0.8,0.9,2,0.9
	c0,0,2.9,0.5,5.9-3.1c0,0,0.4-0.9-0.2-1.9L7.8,4.4c0,0,3.7-0.6,6.6-0.6l0,0c0,0,0.1,0,0.1,0c0,0,0.1,0,0.1,0v0
	c2.8-0.2,6.6,0.3,6.6,0.3l-0.6,1.5c-0.5,1.1-0.1,2-0.1,2c3.1,3.4,6,2.8,6,2.8c1.2,0,2-1,2-1C29.1,7.7,29,5.9,29,5.9z"/>
</svg>
