<?xml version="1.0" encoding="UTF-8" standalone="no"?>
<!-- Generator: Adobe Illustrator 12.0.0, SVG Export Plug-In . SVG Version: 6.00 Build 51448)  -->
<svg
   xmlns:dc="http://purl.org/dc/elements/1.1/"
   xmlns:cc="http://web.resource.org/cc/"
   xmlns:rdf="http://www.w3.org/1999/02/22-rdf-syntax-ns#"
   xmlns:svg="http://www.w3.org/2000/svg"
   xmlns="http://www.w3.org/2000/svg"
   xmlns:xlink="http://www.w3.org/1999/xlink"
   xmlns:sodipodi="http://sodipodi.sourceforge.net/DTD/sodipodi-0.dtd"
   xmlns:inkscape="http://www.inkscape.org/namespaces/inkscape"
   sodipodi:docbase="/home/user"
   sodipodi:docname="MessageNavigator.svg"
   inkscape:version="0.44.1"
   sodipodi:version="0.32"
   xml:space="preserve"
   style="overflow:visible;enable-background:new 0 0 123.445 107.753;"
   viewBox="0 0 123.445 107.753"
   height="14"
   width="13"
   id="Í_xBC__xB2_ã_x5F_1"
   version="1.0"><metadata
   id="metadata39">
  <rdf:RDF>
    <cc:Work
   rdf:about="">
      <dc:format>image/svg+xml</dc:format>


      <dc:type
   rdf:resource="http://purl.org/dc/dcmitype/StillImage" />


    </cc:Work>


  </rdf:RDF>


</metadata>


<defs
   id="defs37"><marker
   inkscape:stockid="Arrow1Lstart"
   orient="auto"
   refY="0"
   refX="0"
   id="Arrow1Lstart"
   style="overflow:visible">
  <path
   sodipodi:nodetypes="ccccc"
   id="path2237"
   d="M 0,0 L 5,-5 L -12.5,0 L 5,5 L 0,0 z "
   style="fill-rule:evenodd;stroke:black;stroke-width:1pt;marker-start:none"
   transform="scale(0.8,0.8)" />


</marker>


<linearGradient
   id="linearGradient2108">
  <stop
   id="stop2110"
   offset="0"
   style="stop-color:#9acb3b;stop-opacity:1;" />


  <stop
   id="stop2112"
   offset="1.0000000"
   style="stop-color:#9acb3b;stop-opacity:1.0000000;" />


</linearGradient>



	
	
	
	
	
		<linearGradient
   gradientTransform="matrix(-1,0,0,1,1313.481,0)"
   y2="33.983898"
   x2="1263.4569"
   y1="-5.3607998"
   x1="1221.9253"
   gradientUnits="userSpaceOnUse"
   id="XMLID_2_">
		<stop
   id="stop14"
   style="stop-color:#FFFFFF"
   offset="0" />



		<stop
   id="stop16"
   style="stop-color:#FFFDEF"
   offset="0.1112" />



		<stop
   id="stop18"
   style="stop-color:#FEF6C7"
   offset="0.3271" />



		<stop
   id="stop20"
   style="stop-color:#FDEC85"
   offset="0.626" />



		<stop
   id="stop22"
   style="stop-color:#FBDD2C"
   offset="0.9934" />



		<stop
   id="stop24"
   style="stop-color:#FBDD2A"
   offset="1" />



	</linearGradient>



	
	
	
	
	
<linearGradient
   gradientUnits="userSpaceOnUse"
   y2="57.364708"
   x2="112.1137"
   y1="57.364708"
   x1="0.95666784"
   gradientTransform="matrix(1.028635,0,0,0.860594,2.955615,3.160246)"
   id="linearGradient2114"
   xlink:href="#linearGradient2108"
   inkscape:collect="always" />




  
  
  
  
  
</defs>


<sodipodi:namedview
   inkscape:current-layer="Í_xBC__xB2_ã_x5F_1"
   inkscape:window-y="13"
   inkscape:window-x="0"
   inkscape:cy="6.9922652"
   inkscape:cx="6.5"
   inkscape:zoom="64.642857"
   inkscape:window-height="1113"
   inkscape:window-width="1592"
   inkscape:pageshadow="2"
   inkscape:pageopacity="0.0"
   borderopacity="1.0"
   bordercolor="#666666"
   pagecolor="#ffffff"
   id="base"
   width="13px"
   height="14px" />












<path
   style="fill:#050;fill-opacity:1;stroke:black;stroke-width:2.37500119;stroke-linecap:butt;stroke-linejoin:bevel;marker-start:none;stroke-miterlimit:4;stroke-dasharray:28.50000698, 2.37500048;stroke-dashoffset:3.32500118;stroke-opacity:0"
   d="M 114.30976,59.854403 C 98.957171,35.257888 84.412926,11.767226 84.412926,11.767226 C 84.412926,11.767226 82.527769,6.7937913 77.677801,7.3467168 C 72.831603,7.8977106 11.691676,22.268956 11.691676,22.268956 C 11.691676,22.268956 4.2914251,23.137978 6.5722662,30.560915 C 9.0330501,38.561912 27.582197,85.833233 30.813626,92.465448 C 34.045053,99.095736 34.58488,100.20158 41.58662,97.43888 C 52.512237,93.127606 103.06099,73.637924 111.61532,69.251248 C 116.46435,66.762112 116.92786,64.050648 114.30976,59.854403 z "
   id="path7" /><path
   style="fill:none;fill-opacity:1;stroke:#ffffc2;stroke-width:9.02098083;stroke-miterlimit:4;stroke-dasharray:none;stroke-opacity:1"
   d="M 115.92546,65.380766 C 115.92546,65.380766 84.242404,44.475902 76.432337,39.501501"
   id="path9" /><path
   style="fill:none;fill-opacity:1;stroke:#ffffc2;stroke-width:9.02098083;stroke-miterlimit:4;stroke-dasharray:none;stroke-opacity:1"
   d="M 51.113207,46.96407 C 51.113207,46.96407 41.14854,81.231959 35.493072,98.640436"
   id="path11" /><path
   style="fill:none;fill-opacity:1;stroke:#ffffc2;stroke-width:9.02098083;stroke-miterlimit:4;stroke-dasharray:none;stroke-opacity:1"
   d="M 81.815186,8.0143034 C 81.815186,8.0143034 82.895191,10.469047 82.357247,15.719912 C 81.817421,20.970778 75.662635,43.36912 73.199025,51.370118 C 71.583311,56.619049 68.619442,56.619049 62.423204,53.303425 C 56.230734,49.988768 17.892625,30.701119 10.441501,28.155917 C 8.0174592,27.329428 5.4257222,25.993513 8.4065492,24.208102"
   id="path34"
   sodipodi:nodetypes="cccccc" /><path
   style="fill:none;fill-opacity:0.75;fill-rule:evenodd;stroke:#ffffc2;stroke-width:9.02098083;stroke-linecap:butt;stroke-linejoin:miter;stroke-miterlimit:3.4000001;stroke-dasharray:none;stroke-opacity:1"
   d="M 8.1212613,33.152444 C 8.1212613,33.152444 3.7806361,24.474926 12.733174,22.576717 C 21.685713,20.678511 77.028679,7.9334061 77.028679,7.9334061 C 77.028679,7.9334061 81.911883,6.0351998 84.353484,10.916303 C 86.795084,15.797407 115.55172,62.981413 115.55172,62.981413 C 115.55172,62.981413 117.17945,66.777825 113.6527,68.404861 C 110.12593,70.031897 40.675946,97.962661 40.675946,97.962661 C 40.675946,97.962661 35.521454,100.13204 32.537276,94.979761 C 29.553095,89.827485 8.1212613,33.152444 8.1212613,33.152444 z "
   id="path3028" />


</svg>
