<?xml version="1.0" encoding="iso-8859-1"?>
<!-- Generator: Adobe Illustrator 12.0.0, SVG Export Plug-In . SVG Version: 6.00 Build 51448)  -->
<!DOCTYPE svg PUBLIC "-//W3C//DTD SVG 1.1//EN" "http://www.w3.org/Graphics/SVG/1.1/DTD/svg11.dtd" [
	<!ENTITY ns_svg "http://www.w3.org/2000/svg">
	<!ENTITY ns_xlink "http://www.w3.org/1999/xlink">
]>
<svg  version="1.1" id="&#xCD;_xBC__xB2_&#xE3;_x5F_1" xmlns="&ns_svg;" xmlns:xlink="&ns_xlink;" width="43.72" height="38.083"
	 viewBox="0 0 43.72 38.083" style="overflow:visible;enable-background:new 0 0 43.72 38.083;" xml:space="preserve">
<g>
	<radialGradient id="XMLID_5_" cx="19.0415" cy="19.0415" r="18.6665" gradientUnits="userSpaceOnUse">
		<stop  offset="0.2191" style="stop-color:#E4F5FD"/>
		<stop  offset="0.2831" style="stop-color:#DFF3FD"/>
		<stop  offset="0.3622" style="stop-color:#CFEDFC"/>
		<stop  offset="0.4492" style="stop-color:#B4E4FA"/>
		<stop  offset="0.5412" style="stop-color:#8CD7F8"/>
		<stop  offset="0.6067" style="stop-color:#66CEF6"/>
		<stop  offset="0.6708" style="stop-color:#62C5EF"/>
		<stop  offset="0.7546" style="stop-color:#55B4E2"/>
		<stop  offset="0.8494" style="stop-color:#419DD1"/>
		<stop  offset="0.9516" style="stop-color:#2480BA"/>
		<stop  offset="1" style="stop-color:#0E72AF"/>
	</radialGradient>
	<circle style="fill:url(#XMLID_5_);stroke:#000000;stroke-width:0.75;" cx="19.042" cy="19.041" r="18.667"/>
	<path style="fill:#A9D384;" d="M10.879,3.679c0,0-0.445,1.246,0,1.557c0.445,0.313,1.113,0.391,0.52,1.248
		C10.805,7.34,11.25,8.507,11.25,8.507s-1.781,1.947-1.188,3.273c0.594,1.324,0.891,1.013,0.891,1.013s3.043,4.752,3.785,5.919
		c0.742,1.17,1.559,0.625,1.559,0.625l-1.039,0.545c0,0,0.668,0.778,1.41,0.935C17.41,20.972,18.3,21.05,18.3,21.05
		s0.817,0.779,1.04,0.779c0.222,0,2.078,0.389,2.078,0.389l1.039,1.869l1.261,0.157c0,0,3.562,0.312-0.073,3.116
		c-3.637,2.805-0.521,2.569,0,1.012c0.519-1.558,1.558,0.623,0.519,1.947c-1.039,1.326,1.039,1.326,1.039,1.326
		s1.336,0.154,1.263,1.244c-0.075,1.093-3.344,3.778-3.344,3.778s3.563,1.322,8.983-4.868c5.31-6.064,1.038-1.324,1.038-1.324
		s2.672-3.661,2.302-4.985c-0.372-1.325-1.559-2.805-2.152-1.48s-0.891-0.778-0.891-0.778s-0.223,0.076-0.742-0.313
		c-0.521-0.39-0.074,0.701-0.742,1.246c-0.668,0.546-0.372-1.09-0.52-1.791c-0.148-0.701-2.672-0.623-2.969-0.156
		c-0.297,0.468-0.743,1.014-0.743,1.014l-0.147-1.48c0,0-0.446,1.324-0.965,1.48s0.297,1.246-2.003,0.623
		c-2.301-0.623-1.04-1.558-1.04-1.558l0.816-0.937c0,0-0.667,0.234-1.41-0.311c-0.741-0.545-0.519-2.182-0.519-2.182
		s-1.263-0.389-1.633,1.014c-0.371,1.402-1.336,0.389-1.633,0.545c-0.297,0.155-2.078-3.583,1.038-4.596
		c3.117-1.014,1.188-0.857,1.188-0.857s2.079,0.545,2.079,1.559c0,1.013,0.593,0.232,0.593,0.232s-1.188-1.791-0.223-2.414
		c0.966-0.623,2.078-4.362,2.672-4.362c0.593,0,1.78-1.013,1.78-1.013s0.373-0.391-0.89-0.857c-1.262-0.467,1.113-1.4,0.148-1.869
		c-0.965-0.468-2.227-1.402-2.227-1.402s-0.444-0.702-0.444,0c0,0.701-2.005-0.856-2.005-0.856s1.04,2.337,0.445,2.728
		c-0.593,0.389-0.593,0.389-0.593,0.389s-0.445,0-2.078-1.48c-1.633-1.481-0.446-1.713,0.519-1.713c0.966,0,0.297-0.936,0.297-0.936
		s-0.519,0.545-1.038,0c-0.52-0.546,0.52-0.391-1.04-0.078c-1.558,0.313-3.339,0.623-3.486-0.701
		c-0.149-1.324,0.296,0.623-1.337,0.233c-1.633-0.389-0.594-0.233-0.594-0.233s0.297-0.623,0.594-0.623s-1.707-0.078-2.078,0.468
		c-0.371,0.544-1.039,0.544-1.039,0.544L9.988,2.899L9.023,3.522c0,0-0.594,1.168-1.188,1.168S10.879,3.679,10.879,3.679z"/>
	<path style="fill:#00A850;" d="M10.8,3.638c0,0-0.446,1.247,0,1.559c0.444,0.313,1.112,0.389,0.519,1.246
		C10.726,7.3,11.17,8.468,11.17,8.468s-1.781,1.947-1.188,3.272c0.594,1.323,0.891,1.013,0.891,1.013s3.042,4.752,3.785,5.92
		c0.741,1.169,1.559,0.623,1.559,0.623l-1.039,0.546c0,0,0.668,0.778,1.409,0.935c0.743,0.155,1.634,0.233,1.634,0.233
		s0.816,0.78,1.038,0.78c0.223,0,2.078,0.389,2.078,0.389l1.04,1.869l1.261,0.156c0,0,3.563,0.311-0.073,3.115
		c-3.637,2.805-0.521,2.57,0,1.014c0.519-1.559,1.558,0.623,0.519,1.947c-1.039,1.325,1.039,1.325,1.039,1.325
		s1.336,0.155,1.262,1.245s-3.423,3.765-3.423,3.765s3.349,1.065,9.063-4.854c5.715-5.922,1.039-1.324,1.039-1.324
		s2.672-3.662,2.301-4.987c-0.372-1.323-1.559-2.803-2.152-1.479c-0.594,1.325-0.891-0.778-0.891-0.778s-0.224,0.077-0.742-0.313
		c-0.52-0.389-0.074,0.702-0.742,1.247s-0.371-1.091-0.52-1.791c-0.148-0.701-2.672-0.625-2.969-0.156
		c-0.297,0.468-0.742,1.013-0.742,1.013l-0.148-1.481c0,0-0.445,1.325-0.965,1.481c-0.519,0.156,0.297,1.246-2.003,0.624
		c-2.301-0.624-1.04-1.559-1.04-1.559l0.816-0.936c0,0-0.667,0.234-1.41-0.312c-0.741-0.546-0.52-2.181-0.52-2.181
		s-1.262-0.391-1.632,1.013c-0.371,1.401-1.336,0.388-1.634,0.544c-0.297,0.156-2.077-3.582,1.039-4.595
		c3.117-1.015,1.188-0.858,1.188-0.858s2.079,0.546,2.079,1.559c0,1.014,0.594,0.234,0.594,0.234s-1.188-1.793-0.224-2.416
		c0.965-0.622,2.078-4.361,2.672-4.361S27.2,8.935,27.2,8.935s0.371-0.389-0.891-0.856s1.113-1.401,0.148-1.868
		c-0.965-0.469-2.227-1.403-2.227-1.403s-0.444-0.701-0.444,0c0,0.702-2.004-0.856-2.004-0.856s1.038,2.337,0.444,2.727
		s-0.594,0.39-0.594,0.39s-0.444,0-2.078-1.481c-1.632-1.479-0.445-1.713,0.52-1.713s0.297-0.935,0.297-0.935s-0.52,0.546-1.038,0
		c-0.52-0.546,0.519-0.39-1.04-0.078c-1.558,0.312-3.339,0.624-3.486-0.702c-0.149-1.322,0.295,0.625-1.337,0.234
		c-1.634-0.389-0.594-0.234-0.594-0.234s0.297-0.622,0.594-0.622s-2.449,1.013-2.078,0.468c0.055-0.081-0.34,0.545-1.039,0.545
		L9.908,2.859L8.944,3.483c0,0-0.594,1.167-1.188,1.167S10.8,3.638,10.8,3.638z"/>
	<path style="fill:#00AD4D;" d="M19.722,2.694c0,0,3.68-0.6,7.56,2c3.88,2.602,0.8,0.2,0.84,0c0.04-0.199-1.32-1.639-0.84-1.639
		s0-0.521,0-0.521s-4.841-2.16-5.2-1.32c-0.359,0.841-0.04,0.68-0.04,0.68s-0.76,0.401-0.92-0.079s0.521-0.24,0.521-0.24
		s-1.4-0.52-1.48-0.2S19.722,2.694,19.722,2.694z"/>
	<path style="fill:#005B32;stroke:#313838;stroke-width:0.25;" d="M42.092,10.886c0,0,7.998,3.803-12.906,20.132
		c0,0-1.396-1.817-1.061-2.197C40.98,18.242,42.092,10.886,42.092,10.886z"/>
	<linearGradient id="XMLID_6_" gradientUnits="userSpaceOnUse" x1="30.5488" y1="19.106" x2="41.2441" y2="16.2327">
		<stop  offset="0.0618" style="stop-color:#00AA4F"/>
		<stop  offset="0.1524" style="stop-color:#009445"/>
		<stop  offset="0.2416" style="stop-color:#00833D"/>
		<stop  offset="0.3272" style="stop-color:#007737"/>
		<stop  offset="0.4076" style="stop-color:#007032"/>
		<stop  offset="0.4775" style="stop-color:#006D31"/>
		<stop  offset="0.5583" style="stop-color:#006A2F"/>
		<stop  offset="0.6663" style="stop-color:#00612A"/>
		<stop  offset="0.7898" style="stop-color:#005220"/>
		<stop  offset="0.9237" style="stop-color:#003C0F"/>
		<stop  offset="1" style="stop-color:#002B00"/>
	</linearGradient>
	<path style="fill:url(#XMLID_6_);stroke:#313838;stroke-width:0.25;" d="M33.424,8.052c0,0,25.117-1.91-4.684,21.82
		c0,0-1.799-0.204-2.516-1.952c24.771-17.617,8.137-18.368,8.137-18.368L33.424,8.052z"/>
	<linearGradient id="XMLID_7_" gradientUnits="userSpaceOnUse" x1="22.9927" y1="30.1426" x2="25.9311" y2="32.3459">
		<stop  offset="0.0618" style="stop-color:#9CCA4C"/>
		<stop  offset="0.09" style="stop-color:#89C54A"/>
		<stop  offset="0.1326" style="stop-color:#71BF48"/>
		<stop  offset="0.1729" style="stop-color:#60BB48"/>
		<stop  offset="0.2079" style="stop-color:#59BA48"/>
	</linearGradient>
	<path style="fill:url(#XMLID_7_);stroke:#313838;stroke-width:0.25;" d="M17.84,31.663c6.857-5.679,7.547-4.937,7.547-4.937
		l2.738,2.495c0,0,0.773,1.107,2.701,1.41L17.84,31.663z"/>
	<linearGradient id="XMLID_8_" gradientUnits="userSpaceOnUse" x1="21.7427" y1="34.915" x2="27.3952" y2="27.8766">
		<stop  offset="0.0618" style="stop-color:#009345"/>
		<stop  offset="0.2295" style="stop-color:#00853F"/>
		<stop  offset="0.4664" style="stop-color:#007435"/>
		<stop  offset="0.5955" style="stop-color:#006D31"/>
		<stop  offset="0.6565" style="stop-color:#00692F"/>
		<stop  offset="0.7463" style="stop-color:#005F28"/>
		<stop  offset="0.854" style="stop-color:#004E1D"/>
		<stop  offset="0.9745" style="stop-color:#003304"/>
		<stop  offset="1" style="stop-color:#002B00"/>
	</linearGradient>
	<polygon style="fill:url(#XMLID_8_);stroke:#313838;stroke-width:0.25;" points="30.389,32.26 17.896,31.826 17.84,31.663 
		30.826,30.632 	"/>
</g>
</svg>
