<?xml version="1.0" encoding="iso-8859-1"?>
<!-- Generator: Adobe Illustrator 12.0.1, SVG Export Plug-In . SVG Version: 6.00 Build 51448)  -->
<!DOCTYPE svg PUBLIC "-//W3C//DTD SVG 1.1//EN" "http://www.w3.org/Graphics/SVG/1.1/DTD/svg11.dtd" [
	<!ENTITY ns_svg "http://www.w3.org/2000/svg">
	<!ENTITY ns_xlink "http://www.w3.org/1999/xlink">
]>
<svg  version="1.1" id="&#x56FE;&#x5C42;_1" xmlns="&ns_svg;" xmlns:xlink="&ns_xlink;" width="161.12" height="131.896"
	 viewBox="0 0 161.12 131.896" style="overflow:visible;enable-background:new 0 0 161.12 131.896;" xml:space="preserve">
<g>
	<g>
		<g>
			<path style="fill:#B6B6B6;stroke:#212121;stroke-width:0.65;stroke-linejoin:round;" d="M1.494,37.04
				c1.583-2.665,3.019-5.269,3.019-5.269l0.256,1.935l8.437,61.637l4.399-0.338L7.25,108.499c0,0-0.911-0.518-1.198-3.576
				C4.85,92.118,0.684,44.198,0.458,42.211C0.26,40.468,0.083,39.416,1.494,37.04z"/>
			<polygon style="fill:#B6B6B6;stroke:#212121;stroke-width:0.65;stroke-linejoin:round;" points="33.582,120.35 21.703,49.888 
				24.441,43.134 39.871,106.774 			"/>
			<polygon style="fill:#B6B6B6;stroke:#212121;" points="63.924,108.68 41.557,50.882 62.907,122.508 			"/>
			<polygon style="fill:#B6B6B6;stroke:#212121;stroke-width:0.5;stroke-linejoin:round;" points="62.744,56.614 63.606,66.095 
				87.965,120.59 87.333,109.526 			"/>
			<path style="fill:#D5D5D5;stroke:#212121;stroke-width:0.65;stroke-linejoin:round;" d="M39.871,106.774l-6.289,13.576
				c0,0,18.197,4.996,20.181,5.529s3.376,0.5,4.55-1.666c1.176-2.162,4.171-8.25,4.171-8.25L39.871,106.774z"/>
			<path style="fill:#ECECEC;stroke:#212121;stroke-width:0.65;stroke-linejoin:round;" d="M42.922,110.936
				c4.715,1.277,19.561,5.027,19.561,5.027l-22.04-68.699l-16.002-4.13c0,0,12.089,57.999,12.904,61.751
				C38.159,108.637,38.208,109.661,42.922,110.936z"/>
			<path style="fill:#D5D5D5;stroke:#212121;stroke-width:0.65;stroke-linejoin:round;" d="M64.126,106.655l-1.22,15.854
				c0,0,12.146,1.227,14.628,1.51c2.481,0.285,3.751,0.016,4.999-2.77c1.248-2.783,3.205-7.438,3.205-7.438L64.126,106.655z"/>
			<path style="fill:#ECECEC;stroke:#212121;stroke-width:0.65;stroke-linejoin:round;" d="M67.692,111.563
				c4.438,0.664,18.047,2.248,18.047,2.248L56.894,52.977l-15.337-2.095c0,0,18.869,52.784,20.014,55.647
				C62.716,109.393,63.253,110.897,67.692,111.563z"/>
			<polygon style="fill:#D5D5D5;stroke:#212121;stroke-width:0.65;stroke-linejoin:round;" points="87.333,109.526 87.965,120.59 
				106.69,121.348 110.35,109.854 			"/>
			<polygon style="fill:#ECECEC;stroke:#212121;stroke-width:0.65;stroke-linejoin:round;" points="110.35,109.854 79.44,57.591 
				62.744,56.614 87.333,109.526 			"/>
			<polygon style="fill:#333333;" points="68.475,88.006 53.954,53.641 55.331,49.356 64.356,49.849 82.719,80.621 81.563,87.838 
							"/>
			<path style="fill:#333333;" d="M45.101,47.516c-0.893-0.284-4.151-1.224-6.418-1.873c-1.311-0.375-2.456-0.021-2.851,1.095
				c-0.384,1.094-0.813,2.532-0.813,2.532s10.181,34.825,10.72,36.458c0.538,1.636,2.004,2.911,4.011,3.337
				c1.109,0.234,9.235,1.381,9.235,1.381l2.734-6.305c0,0-12.446-31.356-13.229-33.287C47.71,48.922,46.512,47.968,45.101,47.516z"
				/>
			<path style="fill:#D5D5D5;" d="M48.985,80.014c-0.54-1.179-7.034-16.273-7.034-16.273s5.446,16.038,6.083,17.681
				c0.635,1.642,1.274,1.804,2.561,1.843c1.285,0.038,9.772,0.419,9.772,0.419s-6.461-1.155-8.376-1.464
				C50.079,81.91,49.526,81.194,48.985,80.014z"/>
			<polygon style="fill:#D5D5D5;" points="64.492,69.935 70.53,82.147 81.139,81.516 71.666,80.796 			"/>
			<path style="fill:#D5D5D5;stroke:#212121;stroke-width:0.65;stroke-linejoin:round;" d="M30.681,116.182
				c2.441-2.113,5.65-5.748,5.65-5.748l-20.378-10.83l0.902-5.475l-9.444,12.482c0,0-1.14,1.361,0.204,2.105
				c1.043,0.576,10.531,5.512,16.091,8.398C26.065,118.34,28.241,118.293,30.681,116.182z"/>
			<path style="fill:#ECECEC;stroke:#212121;stroke-width:0.65;stroke-linejoin:round;" d="M13.032,94.245
				c-0.697-5.318-8.438-61.822-8.438-61.822s-0.606-1.387,1.356-0.613c1.963,0.771,18.278,8.614,18.278,8.614l12.104,70.011
				c0,0-17.693-9.418-19.788-10.498C14.448,98.858,13.374,96.86,13.032,94.245z"/>
			<path style="fill:#333333;" d="M28.117,36.552c-2.17-1.327-5.284-3.052-6.58-3.766c-2.12-1.167-3.032,0.421-3.214,1.116
				c-0.313,1.191-1.536,5.134-1.536,5.134s4.507,35.722,4.819,38.954c0.313,3.233,1.424,5.398,3.609,6.31
				c2.122,0.886,10.759,4.466,10.759,4.466l4.091-6.301c0,0-8.541-40.275-8.879-41.552C30.848,39.639,30.296,37.884,28.117,36.552z"
				/>
			<path style="fill:#D5D5D5;" d="M27.3,73.697c-0.337-1.463-3.818-17.932-3.818-17.932s1.772,16.109,2.208,18.502
				c0.433,2.394,0.159,3.492,2.863,4.478c3.52,1.286,10.173,3.486,10.173,3.486s-5.701-2.832-8.646-4.318
				C27.893,76.805,27.636,75.162,27.3,73.697z"/>
		</g>
		<g>
			<polygon style="fill:#B6B6B6;stroke:#212121;" points="83.008,58.43 83.676,64.299 113.7,116.346 113.514,106.313 			"/>
			<polygon style="fill:#B6B6B6;stroke:#212121;" points="99.774,57.542 101.797,64.446 135.68,109.352 135.485,99.104 			"/>
			<polygon style="fill:#D5D5D5;stroke:#212121;" points="113.514,106.313 113.7,116.346 132.327,112.76 133.631,101.797 			"/>
			<polygon style="fill:#ECECEC;stroke:#212121;" points="133.631,101.797 98.022,57.394 83.008,58.43 113.514,106.313 			"/>
			<polygon style="fill:#D5D5D5;stroke:#212121;" points="135.485,99.104 135.68,109.352 155.002,101.374 155.227,90.67 			"/>
			<path style="fill:#ECECEC;stroke:#212121;" d="M155.227,90.67c0,0-28.572-25.255-33.953-30.275
				c-5.379-5.02-8.787-5.381-11.922-4.777c-3.135,0.603-9.578,1.924-9.578,1.924l35.711,41.563L155.227,90.67z"/>
		</g>
	</g>
	<g>
		<path d="M158.278,19.198c3.324,10.904,7.117,25.832-10.152,66.797l-8.479-3.465c0,0,10.668-19.537,15.064-44.33
			c4.395-24.795-6.133-33.868-12.137-35.761c-7.309-2.306-38.301,6.006-46.379,59.64l-7.77-2.331c0,0,7.273-47.499,41.842-58.47
			C145.077-3.424,154.053,5.364,158.278,19.198z"/>
		
			<linearGradient id="XMLID_9_" gradientUnits="userSpaceOnUse" x1="6675.7661" y1="747.6118" x2="6688.5757" y2="745.0499" gradientTransform="matrix(-0.9789 -0.2043 -0.2043 0.9789 6846.3896 701.3036)">
			<stop  offset="0.2753" style="stop-color:#006F2D"/>
			<stop  offset="0.5674" style="stop-color:#209630"/>
			<stop  offset="0.6149" style="stop-color:#27992E"/>
			<stop  offset="0.6854" style="stop-color:#3BA32A"/>
			<stop  offset="0.7702" style="stop-color:#5CB223"/>
			<stop  offset="0.8662" style="stop-color:#8AC819"/>
			<stop  offset="0.9703" style="stop-color:#C4E30D"/>
			<stop  offset="0.9831" style="stop-color:#CCE70B"/>
		</linearGradient>
		<path style="fill:url(#XMLID_9_);stroke:#277022;" d="M160.014,48.056l-6.955-2.587c0,0-11.01,31.502-15.77,35.313
			c-0.318,0.253-0.357-0.203-0.654-0.137c-4.762,1.05,16.047,4.711,16.047,4.711S159.411,62.917,160.014,48.056z"/>
		
			<linearGradient id="XMLID_10_" gradientUnits="userSpaceOnUse" x1="6677.7515" y1="758.8813" x2="6692.0894" y2="758.8813" gradientTransform="matrix(-0.9789 -0.2043 -0.2043 0.9789 6846.3896 701.3036)">
			<stop  offset="0.2472" style="stop-color:#005F26"/>
			<stop  offset="0.5674" style="stop-color:#209630"/>
		</linearGradient>
		<path style="fill:url(#XMLID_10_);" d="M154.657,79.151c0,0-3.547-4.977-12.205-6.605l-1.936,4.183l12.168,7.656
			C152.684,84.384,153.883,82.87,154.657,79.151z"/>
		<linearGradient id="XMLID_11_" gradientUnits="userSpaceOnUse" x1="98.8296" y1="49.9517" x2="90.9226" y2="45.4827">
			<stop  offset="0.2753" style="stop-color:#006F2D"/>
			<stop  offset="0.5674" style="stop-color:#209630"/>
			<stop  offset="0.6149" style="stop-color:#27992E"/>
			<stop  offset="0.6854" style="stop-color:#3BA32A"/>
			<stop  offset="0.7702" style="stop-color:#5CB223"/>
			<stop  offset="0.8662" style="stop-color:#8AC819"/>
			<stop  offset="0.9703" style="stop-color:#C4E30D"/>
			<stop  offset="0.9831" style="stop-color:#CCE70B"/>
		</linearGradient>
		<path style="fill:url(#XMLID_11_);stroke:#277022;" d="M98.258,28.765l7.102,2.149c0,0-10.289,31.745-8.805,37.658
			c0.098,0.395,0.402,0.056,0.602,0.287c3.154,3.717-15.63-5.959-15.63-5.959S89.75,40.963,98.258,28.765z"/>
		<linearGradient id="XMLID_12_" gradientUnits="userSpaceOnUse" x1="97.3354" y1="55.7046" x2="85.818" y2="53.2965">
			<stop  offset="0.2472" style="stop-color:#005F26"/>
			<stop  offset="0.5674" style="stop-color:#209630"/>
		</linearGradient>
		<path style="fill:url(#XMLID_12_);" d="M86.014,52.353c0,0,7.529-2.416,12.307,1.844l-0.992,4.501l-12.623-2.819
			C84.706,55.878,84.381,55.784,86.014,52.353z"/>
		
			<linearGradient id="XMLID_13_" gradientUnits="userSpaceOnUse" x1="6755.9165" y1="1231.1509" x2="6806.8442" y2="1231.1509" gradientTransform="matrix(-0.9469 -0.3216 -0.3216 0.9469 6951.7314 1117.8186)">
			<stop  offset="0.2753" style="stop-color:#38A22B"/>
			<stop  offset="0.5674" style="stop-color:#3DA42A"/>
			<stop  offset="0.6213" style="stop-color:#44A728"/>
			<stop  offset="0.7012" style="stop-color:#58B124"/>
			<stop  offset="0.7975" style="stop-color:#79C01D"/>
			<stop  offset="0.9054" style="stop-color:#A7D613"/>
			<stop  offset="0.9831" style="stop-color:#CCE70B"/>
		</linearGradient>
		<path style="fill:url(#XMLID_13_);stroke:#0F4017;" d="M110.393,94.512c-5.16,15.182,1.457,31.16,14.773,35.682
			c13.318,4.523,28.293-4.117,33.449-19.301c5.158-15.182-1.455-31.159-14.775-35.682C130.524,70.687,115.549,79.329,110.393,94.512
			z"/>
		<path style="fill:#0C2E11;stroke:#277022;" d="M116.721,98.397c-4.191,12.342,1.537,25.449,12.795,29.277
			c11.26,3.82,23.787-3.086,27.979-15.43c4.193-12.346-1.535-25.453-12.795-29.277C133.442,79.143,120.915,86.049,116.721,98.397z"
			/>
		
			<linearGradient id="XMLID_14_" gradientUnits="userSpaceOnUse" x1="6710.0835" y1="760.4224" x2="6680.5928" y2="797.3893" gradientTransform="matrix(-0.9789 -0.2043 -0.2043 0.9789 6846.3896 701.3036)">
			<stop  offset="0" style="stop-color:#FFFFFF"/>
			<stop  offset="0.2098" style="stop-color:#ECF6A8"/>
			<stop  offset="0.4089" style="stop-color:#DBEF5B"/>
			<stop  offset="0.5" style="stop-color:#D4EC3D"/>
			<stop  offset="0.8258" style="stop-color:#73B626"/>
			<stop  offset="0.9831" style="stop-color:#59AA2A"/>
		</linearGradient>
		<path style="fill:url(#XMLID_14_);stroke:#214D16;" d="M119.118,99.461c-3.93,11.57,1.459,23.861,12.037,27.453
			c10.574,3.594,22.334-2.873,26.266-14.443c3.926-11.566-1.461-23.859-12.037-27.451C134.805,81.427,123.047,87.895,119.118,99.461
			z"/>
		
			<linearGradient id="XMLID_15_" gradientUnits="userSpaceOnUse" x1="6690.5239" y1="769.7847" x2="6687.02" y2="795.1919" gradientTransform="matrix(-0.9789 -0.2043 -0.2043 0.9789 6846.3896 701.3036)">
			<stop  offset="0" style="stop-color:#FFFFFF"/>
			<stop  offset="0.3089" style="stop-color:#FFFF97"/>
			<stop  offset="0.5556" style="stop-color:#FFFF4A"/>
			<stop  offset="0.6685" style="stop-color:#FFFF2C"/>
			<stop  offset="1" style="stop-color:#8CC919"/>
		</linearGradient>
		<path style="fill:url(#XMLID_15_);" d="M125.479,103.518c-1.719,8.242,2.721,16.141,9.92,17.643
			c7.197,1.502,14.426-3.959,16.148-12.203c1.719-8.24-2.723-16.141-9.922-17.643C134.428,89.813,127.196,95.276,125.479,103.518z"
			/>
		
			<linearGradient id="XMLID_16_" gradientUnits="userSpaceOnUse" x1="6722.8198" y1="774.8784" x2="6762.9126" y2="774.8784" gradientTransform="matrix(-0.9789 -0.2043 -0.2043 0.9789 6846.3896 701.3036)">
			<stop  offset="0.2753" style="stop-color:#209630"/>
			<stop  offset="0.5674" style="stop-color:#209630"/>
			<stop  offset="0.6149" style="stop-color:#27992E"/>
			<stop  offset="0.6854" style="stop-color:#3BA32A"/>
			<stop  offset="0.7702" style="stop-color:#5CB223"/>
			<stop  offset="0.8662" style="stop-color:#8AC819"/>
			<stop  offset="0.9703" style="stop-color:#C4E30D"/>
			<stop  offset="0.9831" style="stop-color:#CCE70B"/>
		</linearGradient>
		<path style="fill:url(#XMLID_16_);stroke:#0F4017;" d="M67.965,77.74c-3.57,15.396,2.279,29.907,13.064,32.407
			c10.783,2.5,22.418-7.957,25.982-23.355c3.574-15.398-2.273-29.906-13.059-32.409C83.17,51.886,71.535,62.34,67.965,77.74z"/>
		<path style="fill:#0C2E11;stroke:#277022;" d="M73.153,80.601c-2.902,12.521,2.135,24.384,11.252,26.495
			c9.121,2.115,18.863-6.322,21.764-18.842c2.904-12.521-2.133-24.382-11.254-26.495C85.797,59.646,76.055,68.082,73.153,80.601z"/>
		
			<ellipse transform="matrix(-0.9742 -0.2259 0.2259 -0.9742 159.7032 188.0542)" style="fill:#11110F;stroke:#277022;" cx="90.609" cy="84.892" rx="15.918" ry="21.807"/>
	</g>
</g>
</svg>
