<?xml version="1.0" encoding="iso-8859-1"?>
<!-- Generator: Adobe Illustrator 12.0.1, SVG Export Plug-In . SVG Version: 6.00 Build 51448)  -->
<!DOCTYPE svg PUBLIC "-//W3C//DTD SVG 1.1//EN" "http://www.w3.org/Graphics/SVG/1.1/DTD/svg11.dtd" [
	<!ENTITY ns_svg "http://www.w3.org/2000/svg">
	<!ENTITY ns_xlink "http://www.w3.org/1999/xlink">
]>
<svg  version="1.1" id="&#x56FE;&#x5C42;_1" xmlns="&ns_svg;" xmlns:xlink="&ns_xlink;" width="105.328" height="86.482"
	 viewBox="0 0 105.328 86.482" style="overflow:visible;enable-background:new 0 0 105.328 86.482;" xml:space="preserve">
<linearGradient id="XMLID_16_" gradientUnits="userSpaceOnUse" x1="6092.3066" y1="42.1768" x2="6161.8428" y2="45.3372" gradientTransform="matrix(-1 0 0 1 6204.5977 0)">
	<stop  offset="0.0169" style="stop-color:#FFFFB0"/>
	<stop  offset="0.2753" style="stop-color:#FED64B"/>
	<stop  offset="1" style="stop-color:#D69100"/>
</linearGradient>
<path style="fill:url(#XMLID_16_);stroke:#A6601C;stroke-width:0.75;" d="M103.383,43.114c-0.316-2.905-1.359-5.69-3.021-8.295
	c2.941,3.646,4.592,7.706,4.592,11.991c0,1.227-0.148,2.432-0.41,3.618c0.021-0.354,0.045-0.709,0.045-1.067
	C104.588,47.214,104.162,45.126,103.383,43.114z"/>
<linearGradient id="XMLID_17_" gradientUnits="userSpaceOnUse" x1="6092.6885" y1="33.7373" x2="6162.249" y2="36.8988" gradientTransform="matrix(-1 0 0 1 6204.5977 0)">
	<stop  offset="0.0169" style="stop-color:#FFFFB0"/>
	<stop  offset="0.2753" style="stop-color:#FED64B"/>
	<stop  offset="1" style="stop-color:#D69100"/>
</linearGradient>
<path style="fill:url(#XMLID_17_);stroke:#A6601C;stroke-width:0.75;" d="M6.642,45.743C6.995,40.265,10.018,35.179,15,30.921
	c-2.16,2.269-3.814,4.733-4.87,7.339C8.403,40.608,7.22,43.12,6.642,45.743z"/>
<path style="fill:#A6601C;" d="M55.943,75.226c-27.255,0-49.347-12.722-49.347-28.415c0-0.357,0.024-0.714,0.046-1.067
	c0.58-2.623,1.766-5.135,3.5-7.483c-0.877,2.158-1.353,4.41-1.353,6.73c0,15.69,21.272,28.412,47.518,28.412
	c26.242,0,47.515-12.722,47.515-28.412c0-0.631-0.047-1.255-0.115-1.876c0.783,2.012,0.91-0.801,1.35,3.367
	c0.438,4.165-0.307,5.234-0.33,5.591C101.639,66.054,81.063,75.226,55.943,75.226z"/>
<linearGradient id="XMLID_18_" gradientUnits="userSpaceOnUse" x1="6168.3145" y1="76.6382" x2="6133.5322" y2="5.493" gradientTransform="matrix(-1 0 0 1 6204.5977 0)">
	<stop  offset="0" style="stop-color:#FED69A"/>
	<stop  offset="1" style="stop-color:#D69100"/>
</linearGradient>
<path style="fill:url(#XMLID_18_);" d="M55.776,18.396c-16.972,0-31.937,4.968-40.776,12.524
	c8.156-8.567,23.519-14.346,41.141-14.346c20.18,0,37.401,7.577,44.221,18.245C92.533,25.123,75.517,18.396,55.776,18.396z"/>
<linearGradient id="XMLID_19_" gradientUnits="userSpaceOnUse" x1="6092.8945" y1="29.2505" x2="6162.4609" y2="32.4123" gradientTransform="matrix(-1 0 0 1 6204.5977 0)">
	<stop  offset="0.0169" style="stop-color:#FFFFB0"/>
	<stop  offset="0.2753" style="stop-color:#FED64B"/>
	<stop  offset="1" style="stop-color:#D69100"/>
</linearGradient>
<path style="fill:url(#XMLID_19_);stroke:#A6601C;stroke-width:0.75;" d="M55.413,20.947c-20.345,0-37.8,7.137-45.283,17.313
	c1.056-2.605,2.71-5.07,4.87-7.339c8.84-7.557,23.805-12.524,40.776-12.524c19.741,0,36.757,6.727,44.585,16.423
	c1.662,2.604,2.705,5.39,3.021,8.295C98.453,30.429,78.856,20.947,55.413,20.947z"/>
<linearGradient id="XMLID_20_" gradientUnits="userSpaceOnUse" x1="6165.998" y1="77.77" x2="6131.2178" y2="6.629" gradientTransform="matrix(-1 0 0 1 6204.5977 0)">
	<stop  offset="0" style="stop-color:#FED69A"/>
	<stop  offset="1" style="stop-color:#D69100"/>
</linearGradient>
<path style="fill:url(#XMLID_20_);" d="M55.413,20.947c-20.345,0-37.8,7.137-45.283,17.313c1.056-2.605,2.71-5.07,4.87-7.339
	c8.84-7.557,23.805-12.524,40.776-12.524c19.741,0,36.757,6.727,44.585,16.423c1.662,2.604,2.705,5.39,3.021,8.295
	C98.453,30.429,78.856,20.947,55.413,20.947z"/>
<path style="fill:#A6601C;" d="M10.129,38.26c-0.873,2.158-1.348,4.41-1.348,6.73c0,15.69,21.202,28.412,47.358,28.412
	c26.153,0,47.356-12.722,47.356-28.412c0-0.631-0.047-1.255-0.113-1.876c-4.93-12.686-24.527-22.167-47.97-22.167
	C35.068,20.947,17.613,28.084,10.129,38.26z M84.736,55.553c-6.74,0-12.204-2.853-12.204-6.375c0-3.52,5.464-6.374,12.204-6.374
	c6.74,0,12.203,2.854,12.203,6.374C96.939,52.7,91.477,55.553,84.736,55.553z M50.31,64.479c0-3.522,5.464-6.376,12.204-6.376
	s12.203,2.854,12.203,6.376c0,3.521-5.463,6.374-12.203,6.374S50.31,68,50.31,64.479z M18.983,56.465
	c0-3.522,5.464-6.374,12.204-6.374c6.739,0,12.203,2.852,12.203,6.374c0,3.52-5.464,6.376-12.203,6.376
	C24.447,62.841,18.983,59.984,18.983,56.465z"/>
<linearGradient id="XMLID_21_" gradientUnits="userSpaceOnUse" x1="6092.1895" y1="44.5977" x2="6161.7505" y2="47.7592" gradientTransform="matrix(-1 0 0 1 6204.5977 0)">
	<stop  offset="0.0169" style="stop-color:#FFFFB0"/>
	<stop  offset="0.2753" style="stop-color:#FED64B"/>
	<stop  offset="1" style="stop-color:#D69100"/>
</linearGradient>
<path style="fill:url(#XMLID_21_);" d="M10.129,38.26c-0.873,2.158-1.348,4.41-1.348,6.73c0,15.69,21.202,28.412,47.358,28.412
	c26.153,0,47.356-12.722,47.356-28.412c0-0.631-0.047-1.255-0.113-1.876c-4.93-12.686-24.527-22.167-47.97-22.167
	C35.068,20.947,17.613,28.084,10.129,38.26z M84.736,55.553c-6.74,0-12.204-2.853-12.204-6.375c0-3.52,5.464-6.374,12.204-6.374
	c6.74,0,12.203,2.854,12.203,6.374C96.939,52.7,91.477,55.553,84.736,55.553z M50.31,64.479c0-3.522,5.464-6.376,12.204-6.376
	s12.203,2.854,12.203,6.376c0,3.521-5.463,6.374-12.203,6.374S50.31,68,50.31,64.479z M18.983,56.465
	c0-3.522,5.464-6.374,12.204-6.374c6.739,0,12.203,2.852,12.203,6.374c0,3.52-5.464,6.376-12.203,6.376
	C24.447,62.841,18.983,59.984,18.983,56.465z"/>
<linearGradient id="XMLID_22_" gradientUnits="userSpaceOnUse" x1="6164.6289" y1="78.438" x2="6129.8467" y2="7.2933" gradientTransform="matrix(-1 0 0 1 6204.5977 0)">
	<stop  offset="0" style="stop-color:#FED69A"/>
	<stop  offset="0.7809" style="stop-color:#D89408"/>
	<stop  offset="1" style="stop-color:#D69100"/>
</linearGradient>
<path style="fill:url(#XMLID_22_);" d="M10.129,38.26c-0.873,2.158-1.348,4.41-1.348,6.73c0,15.69,21.202,28.412,47.358,28.412
	c26.153,0,47.682-12.722,47.682-28.412c0-0.631-0.373-1.255-0.439-1.876c-4.93-12.686-24.527-22.167-47.97-22.167
	C35.068,20.947,17.613,28.084,10.129,38.26z M84.736,55.553c-6.74,0-12.204-2.853-12.204-6.375c0-3.52,5.464-6.374,12.204-6.374
	c6.74,0,12.203,2.854,12.203,6.374C96.939,52.7,91.477,55.553,84.736,55.553z M50.31,64.479c0-3.522,5.464-6.376,12.204-6.376
	s12.203,2.854,12.203,6.376c0,3.521-5.463,6.374-12.203,6.374S50.31,68,50.31,64.479z M18.983,56.465
	c0-3.522,5.464-6.374,12.204-6.374c6.739,0,12.203,2.852,12.203,6.374c0,3.52-5.464,6.376-12.203,6.376
	C24.447,62.841,18.983,59.984,18.983,56.465z"/>
<linearGradient id="XMLID_23_" gradientUnits="userSpaceOnUse" x1="6155.6533" y1="5.1968" x2="6137.9468" y2="73.8083" gradientTransform="matrix(-1 0 0 1 6204.5977 0)">
	<stop  offset="0" style="stop-color:#636363"/>
	<stop  offset="1" style="stop-color:#121212"/>
</linearGradient>
<ellipse style="fill:url(#XMLID_23_);" cx="57.051" cy="36.609" rx="37.34" ry="28.415"/>
<path style="fill:#A6601C;" d="M7.326,28.141c0,15.544,21.364,28.143,47.723,28.143c26.354,0,47.719-12.599,47.719-28.143
	C102.768,12.6,81.402,0,55.048,0C28.69,0,7.326,12.6,7.326,28.141z M82.002,13.115c0,3.319-5.137,6.01-11.475,6.01
	c-6.337,0-11.475-2.691-11.475-6.01c0-3.32,5.138-6.011,11.475-6.011C76.865,7.104,82.002,9.795,82.002,13.115z M73.625,31.329
	c0-3.319,5.138-6.011,11.475-6.011c6.338,0,11.475,2.691,11.475,6.011c0,3.318-5.137,6.011-11.475,6.011
	C78.762,37.34,73.625,34.647,73.625,31.329z M51.039,47.357c0-3.321,5.138-6.011,11.475-6.011c6.338,0,11.476,2.689,11.476,6.011
	c0,3.319-5.138,6.009-11.476,6.009C56.176,53.366,51.039,50.677,51.039,47.357z M35.92,23.133c-6.337,0-11.475-2.691-11.475-6.01
	c0-3.32,5.138-6.011,11.475-6.011c6.338,0,11.476,2.691,11.476,6.011C47.396,20.441,42.258,23.133,35.92,23.133z M21.896,38.979
	c0-3.319,5.137-6.011,11.475-6.011s11.475,2.691,11.475,6.011s-5.137,6.011-11.475,6.011S21.896,42.299,21.896,38.979z"/>
<linearGradient id="XMLID_24_" gradientUnits="userSpaceOnUse" x1="6143.5742" y1="55.186" x2="6154.5024" y2="2.3675" gradientTransform="matrix(-1 0 0 1 6204.5977 0)">
	<stop  offset="0" style="stop-color:#FED64B"/>
	<stop  offset="1" style="stop-color:#D68D00"/>
</linearGradient>
<path style="fill:url(#XMLID_24_);" d="M9.511,28.05c0,14.586,20.549,26.41,45.901,26.41c25.347,0,45.898-11.824,45.898-26.41
	c0-14.585-20.551-26.41-45.898-26.41C30.06,1.64,9.511,13.464,9.511,28.05z M82.002,13.115c0,3.319-5.137,6.01-11.475,6.01
	c-6.337,0-11.475-2.691-11.475-6.01c0-3.32,5.138-6.011,11.475-6.011C76.865,7.104,82.002,9.795,82.002,13.115z M73.625,31.329
	c0-3.319,5.138-6.011,11.475-6.011c6.338,0,11.475,2.691,11.475,6.011c0,3.318-5.137,6.011-11.475,6.011
	C78.762,37.34,73.625,34.647,73.625,31.329z M51.039,47.357c0-3.321,5.138-6.011,11.475-6.011c6.338,0,11.476,2.689,11.476,6.011
	c0,3.319-5.138,6.009-11.476,6.009C56.176,53.366,51.039,50.677,51.039,47.357z M35.92,23.133c-6.337,0-11.475-2.691-11.475-6.01
	c0-3.32,5.138-6.011,11.475-6.011c6.338,0,11.476,2.691,11.476,6.011C47.396,20.441,42.258,23.133,35.92,23.133z M21.896,38.979
	c0-3.319,5.137-6.011,11.475-6.011s11.475,2.691,11.475,6.011s-5.137,6.011-11.475,6.011S21.896,42.299,21.896,38.979z"/>
<ellipse style="fill:#AE7217;" cx="56.139" cy="27.687" rx="7.649" ry="4.917"/>
<g>
	
		<linearGradient id="XMLID_25_" gradientUnits="userSpaceOnUse" x1="6122.2549" y1="11.7109" x2="6146.7188" y2="10.5234" gradientTransform="matrix(-1 0 0 1 6204.5977 0)">
		<stop  offset="0" style="stop-color:#AF7A20"/>
		<stop  offset="0.4719" style="stop-color:#FEB02E"/>
		<stop  offset="1" style="stop-color:#8A4600"/>
	</linearGradient>
	<path style="fill:url(#XMLID_25_);" d="M69.982,3.097c6.84,0,12.385,3.587,12.385,8.014c0,0.664-0.139,1.305-0.373,1.922
		c-0.092-3.238-5.127-5.849-11.335-5.849c-6.263,0-11.342,2.658-11.342,5.937c0,3.279,5.079,5.938,11.342,5.938
		c0.39,0,0.775-0.011,1.155-0.031c-0.6,0.058-1.208,0.098-1.832,0.098c-6.842,0-12.387-3.588-12.387-8.015
		C57.595,6.684,63.14,3.097,69.982,3.097z"/>
	<path style="fill:none;" d="M71.814,19.027c4.984-0.479,8.991-2.873,10.18-5.995c0.002,0.03,0.008,0.059,0.008,0.088"/>
	<path style="fill:none;" d="M59.317,13.12c0-3.279,5.079-5.937,11.342-5.937c6.208,0,11.244,2.611,11.335,5.849
		c-1.189,3.122-5.196,5.516-10.18,5.995c-0.38,0.02-0.766,0.031-1.155,0.031C64.396,19.059,59.317,16.399,59.317,13.12z"/>
</g>
<g>
	
		<linearGradient id="XMLID_26_" gradientUnits="userSpaceOnUse" x1="6107.29" y1="30.3569" x2="6131.7529" y2="29.1694" gradientTransform="matrix(-1 0 0 1 6204.5977 0)">
		<stop  offset="0" style="stop-color:#AF7A20"/>
		<stop  offset="0.4719" style="stop-color:#FEB02E"/>
		<stop  offset="1" style="stop-color:#8A4600"/>
	</linearGradient>
	<path style="fill:url(#XMLID_26_);" d="M84.947,21.742c6.84,0,12.385,3.588,12.385,8.013c0,0.664-0.137,1.306-0.373,1.923
		c-0.09-3.238-5.127-5.85-11.334-5.85c-6.264,0-11.342,2.659-11.342,5.937c0,3.28,5.078,5.939,11.342,5.939
		c0.389,0,0.775-0.01,1.154-0.03c-0.6,0.057-1.207,0.096-1.832,0.096c-6.841,0-12.386-3.588-12.386-8.015
		C72.561,25.33,78.106,21.742,84.947,21.742z"/>
	<path style="fill:none;" d="M86.779,37.674c4.984-0.481,8.99-2.873,10.18-5.996c0.002,0.03,0.01,0.059,0.01,0.087"/>
	<path style="fill:none;" d="M74.283,31.765c0-3.277,5.078-5.937,11.342-5.937c6.207,0,11.244,2.611,11.334,5.85
		c-1.189,3.123-5.195,5.515-10.18,5.996c-0.379,0.021-0.766,0.03-1.154,0.03C79.361,37.704,74.283,35.045,74.283,31.765z"/>
</g>
<g>
	
		<linearGradient id="XMLID_27_" gradientUnits="userSpaceOnUse" x1="6129.9717" y1="46.0332" x2="6154.4365" y2="44.8456" gradientTransform="matrix(-1 0 0 1 6204.5977 0)">
		<stop  offset="0" style="stop-color:#AF7A20"/>
		<stop  offset="0.4719" style="stop-color:#FEB02E"/>
		<stop  offset="1" style="stop-color:#8A4600"/>
	</linearGradient>
	<path style="fill:url(#XMLID_27_);" d="M62.263,37.418c6.841,0,12.387,3.588,12.387,8.015c0,0.663-0.139,1.304-0.374,1.921
		c-0.091-3.238-5.127-5.85-11.335-5.85c-6.264,0-11.342,2.659-11.342,5.938c0,3.276,5.078,5.938,11.342,5.938
		c0.389,0,0.774-0.012,1.154-0.03c-0.6,0.057-1.208,0.097-1.832,0.097c-6.841,0-12.387-3.589-12.387-8.014
		C49.876,41.006,55.422,37.418,62.263,37.418z"/>
	<path style="fill:none;" d="M64.095,53.35c4.985-0.48,8.991-2.875,10.181-5.996c0.001,0.028,0.009,0.059,0.009,0.089"/>
	<path style="fill:none;" d="M51.599,47.442c0-3.279,5.078-5.938,11.342-5.938c6.208,0,11.244,2.611,11.335,5.85
		c-1.189,3.121-5.195,5.516-10.181,5.996c-0.38,0.019-0.766,0.03-1.154,0.03C56.677,53.38,51.599,50.719,51.599,47.442z"/>
</g>
<g>
	
		<linearGradient id="XMLID_28_" gradientUnits="userSpaceOnUse" x1="6159.1895" y1="37.7202" x2="6183.6533" y2="36.5326" gradientTransform="matrix(-1 0 0 1 6204.5977 0)">
		<stop  offset="0" style="stop-color:#AF611D"/>
		<stop  offset="0.4719" style="stop-color:#FEB02E"/>
		<stop  offset="1" style="stop-color:#8A4600"/>
	</linearGradient>
	<path style="fill:url(#XMLID_28_);" d="M33.046,29.105c6.842,0,12.387,3.587,12.387,8.014c0,0.664-0.138,1.304-0.374,1.921
		c-0.091-3.238-5.126-5.849-11.334-5.849c-6.264,0-11.343,2.659-11.343,5.938c0,3.277,5.079,5.938,11.343,5.938
		c0.389,0,0.774-0.011,1.154-0.032c-0.6,0.057-1.208,0.099-1.833,0.099c-6.841,0-12.386-3.588-12.386-8.015
		S26.206,29.105,33.046,29.105z"/>
	<path style="fill:none;" d="M34.879,45.035c4.984-0.479,8.99-2.873,10.18-5.995c0.001,0.03,0.009,0.061,0.009,0.089"/>
	<path style="fill:none;" d="M22.382,39.129c0-3.278,5.079-5.938,11.343-5.938c6.208,0,11.243,2.61,11.334,5.849
		c-1.189,3.122-5.195,5.517-10.18,5.995c-0.38,0.021-0.766,0.032-1.154,0.032C27.461,45.067,22.382,42.406,22.382,39.129z"/>
</g>
<g>
	
		<linearGradient id="XMLID_29_" gradientUnits="userSpaceOnUse" x1="6156.6943" y1="15.8691" x2="6181.1582" y2="14.6816" gradientTransform="matrix(-1 0 0 1 6204.5977 0)">
		<stop  offset="0" style="stop-color:#AF611D"/>
		<stop  offset="0.4719" style="stop-color:#FEB02E"/>
		<stop  offset="1" style="stop-color:#8A4600"/>
	</linearGradient>
	<path style="fill:url(#XMLID_29_);" d="M35.542,7.254c6.841,0,12.386,3.588,12.386,8.014c0,0.664-0.138,1.305-0.374,1.922
		c-0.09-3.239-5.127-5.85-11.334-5.85c-6.264,0-11.342,2.659-11.342,5.938c0,3.278,5.078,5.938,11.342,5.938
		c0.389,0,0.774-0.011,1.154-0.031c-0.6,0.058-1.207,0.099-1.832,0.099c-6.842,0-12.387-3.588-12.387-8.015
		C23.156,10.842,28.701,7.254,35.542,7.254z"/>
	<path style="fill:none;" d="M37.375,23.185c4.985-0.479,8.99-2.873,10.18-5.995c0.002,0.029,0.009,0.058,0.009,0.088"/>
	<path style="fill:none;" d="M24.878,17.278c0-3.279,5.078-5.938,11.342-5.938c6.207,0,11.244,2.611,11.334,5.85
		c-1.189,3.122-5.194,5.515-10.18,5.995c-0.38,0.021-0.766,0.031-1.154,0.031C29.957,23.216,24.878,20.556,24.878,17.278z"/>
</g>
<g>
	
		<linearGradient id="XMLID_30_" gradientUnits="userSpaceOnUse" x1="6209.8525" y1="78.7676" x2="6146.0967" y2="42.0692" gradientTransform="matrix(-1 0 0 1 6204.5977 0)">
		<stop  offset="0" style="stop-color:#636363"/>
		<stop  offset="1" style="stop-color:#121212"/>
	</linearGradient>
	<path style="fill:url(#XMLID_30_);" d="M6.914,86.482l12.743-7.461c-2.796-4.349-3.107-3.728-5.284-10.256
		c-5.89-17.663,34.5-4.349,34.5-4.349l-2.486-5.597c-6.217-0.622-24.852-6.025-27.338-6.025
		C-14.935,52.795,6.914,86.482,6.914,86.482z M14.363,79.529l-1.377-1.729l2.592-1.33l1.258,1.741L14.363,79.529z M11.333,81.507
		L9.958,79.78l2.592-1.328l1.256,1.737L11.333,81.507z M6.403,81.62l2.592-1.328l1.256,1.737l-2.472,1.317L6.403,81.62z"/>
</g>
</svg>
