<?xml version="1.0" encoding="UTF-8" standalone="no"?>
<!-- Created with Inkscape (http://www.inkscape.org/) -->
<svg
   xmlns:svg="http://www.w3.org/2000/svg"
   xmlns="http://www.w3.org/2000/svg"
   xmlns:xlink="http://www.w3.org/1999/xlink"
   version="1.0"
   width="256"
   height="256"
   id="svg2">
  <defs
     id="defs4">
    <linearGradient
       id="linearGradient2775">
      <stop
         style="stop-color:#e2e2e2;stop-opacity:1"
         offset="0"
         id="stop2777" />
      <stop
         style="stop-color:white;stop-opacity:1"
         offset="1"
         id="stop2779" />
    </linearGradient>
    <linearGradient
       id="linearGradient2760">
      <stop
         style="stop-color:#8bb75c;stop-opacity:1"
         offset="0"
         id="stop2762" />
      <stop
         style="stop-color:#5d793e;stop-opacity:1"
         offset="1"
         id="stop2764" />
    </linearGradient>
    <linearGradient
       x1="61.243324"
       y1="71.490204"
       x2="224.20909"
       y2="210.75931"
       id="linearGradient2766"
       xlink:href="#linearGradient2760"
       gradientUnits="userSpaceOnUse" />
    <linearGradient
       x1="-67.620949"
       y1="75.734787"
       x2="-18.985842"
       y2="145.55296"
       id="linearGradient2781"
       xlink:href="#linearGradient2775"
       gradientUnits="userSpaceOnUse"
       gradientTransform="matrix(0.850143,0,0,0.850143,213.7344,-11.68034)" />
    <linearGradient
       x1="-67.620949"
       y1="75.734787"
       x2="-18.985842"
       y2="145.55296"
       id="linearGradient2785"
       xlink:href="#linearGradient2775"
       gradientUnits="userSpaceOnUse"
       gradientTransform="matrix(0.850143,0,0,0.850143,213.7343,73.58636)" />
  </defs>
  <g
     id="layer1">
    <path
       d="M 257.90761 140.3994 A 114.45604 114.45604 0 1 1  28.995529,140.3994 A 114.45604 114.45604 0 1 1  257.90761 140.3994 z"
       transform="matrix(1.051947,0,0,1.051947,-22.90337,-19.69266)"
       style="opacity:1;fill:url(#linearGradient2766);fill-opacity:1;stroke:black;stroke-width:6.58968544;stroke-linejoin:round;stroke-miterlimit:3.9000001;stroke-dasharray:none;stroke-dashoffset:0;stroke-opacity:1"
       id="path1872" />
    <rect
       width="53.794338"
       height="53.031296"
       x="47.499252"
       y="66.575264"
       style="opacity:1;fill:none;fill-opacity:1;stroke:#696969;stroke-width:4;stroke-linejoin:round;stroke-miterlimit:3.9000001;stroke-dasharray:none;stroke-dashoffset:0;stroke-opacity:1"
       id="rect2813" />
    <rect
       width="53.794338"
       height="53.031296"
       x="43.874817"
       y="62.569298"
       style="opacity:1;fill:#f0e365;fill-opacity:1;stroke:black;stroke-width:4;stroke-linejoin:round;stroke-miterlimit:3.9000001;stroke-dasharray:none;stroke-dashoffset:0;stroke-opacity:1"
       id="rect2768" />
    <path
       d="M 156.2134,58.933626 L 156.2134,122.28843 L 207.75679,122.28843 L 207.75679,78.509977 L 186.53304,58.933626 L 156.2134,58.933626 z "
       style="opacity:1;fill:#737373;fill-opacity:1;stroke:none;stroke-width:3.83409619;stroke-linejoin:round;stroke-miterlimit:3.9000001;stroke-dasharray:none;stroke-dashoffset:0;stroke-opacity:1"
       id="path2815" />
    <path
       d="M 153.08197,49.290869 L 153.08197,115.15041 L 201.4073,115.15041 L 201.4073,69.641173 L 181.50863,49.290869 L 153.08197,49.290869 z "
       style="opacity:1;fill:url(#linearGradient2781);fill-opacity:1;stroke:black;stroke-width:4;stroke-linejoin:round;stroke-miterlimit:3.9000001;stroke-dasharray:none;stroke-dashoffset:0;stroke-opacity:1"
       id="rect2770" />
    <path
       d="M 155.83188,144.5849 L 155.83188,207.55818 L 207.37527,207.55818 L 207.37527,164.04336 L 186.15152,144.5849 L 155.83188,144.5849 z "
       style="opacity:1;fill:#737373;fill-opacity:1;stroke:none;stroke-width:3.83409619;stroke-linejoin:round;stroke-miterlimit:3.9000001;stroke-dasharray:none;stroke-dashoffset:0;stroke-opacity:1"
       id="path2819" />
    <path
       d="M 153.08197,134.55757 L 153.08197,200.4171 L 201.4073,200.4171 L 201.4073,154.90787 L 181.50863,134.55757 L 153.08197,134.55757 z "
       style="opacity:1;fill:url(#linearGradient2785);fill-opacity:1;stroke:black;stroke-width:4;stroke-linejoin:round;stroke-miterlimit:3.9000001;stroke-dasharray:none;stroke-dashoffset:0;stroke-opacity:1"
       id="path2783" />
    <path
       d="M -64.476898 46.926975 A 3.8152013 3.8152013 0 1 1  -72.1073,46.926975 A 3.8152013 3.8152013 0 1 1  -64.476898 46.926975 z"
       transform="translate(194.5753,42.05962)"
       style="opacity:1;fill:white;fill-opacity:1;stroke:black;stroke-width:4;stroke-linejoin:round;stroke-miterlimit:3.9000001;stroke-dasharray:none;stroke-dashoffset:0;stroke-opacity:1"
       id="path2787" />
    <path
       d="M -64.476898 46.926975 A 3.8152013 3.8152013 0 1 1  -72.1073,46.926975 A 3.8152013 3.8152013 0 1 1  -64.476898 46.926975 z"
       transform="translate(209.4545,41.96722)"
       style="opacity:1;fill:white;fill-opacity:1;stroke:black;stroke-width:4;stroke-linejoin:round;stroke-miterlimit:3.9000001;stroke-dasharray:none;stroke-dashoffset:0;stroke-opacity:1"
       id="path2797" />
    <path
       d="M -64.476898 46.926975 A 3.8152013 3.8152013 0 1 1  -72.1073,46.926975 A 3.8152013 3.8152013 0 1 1  -64.476898 46.926975 z"
       transform="translate(179.3145,41.96722)"
       style="opacity:1;fill:white;fill-opacity:1;stroke:black;stroke-width:4;stroke-linejoin:round;stroke-miterlimit:3.9000001;stroke-dasharray:none;stroke-dashoffset:0;stroke-opacity:1"
       id="path2799" />
    <path
       d="M -64.476898 46.926975 A 3.8152013 3.8152013 0 1 1  -72.1073,46.926975 A 3.8152013 3.8152013 0 1 1  -64.476898 46.926975 z"
       transform="translate(194.6677,56.8465)"
       style="opacity:1;fill:white;fill-opacity:1;stroke:black;stroke-width:4;stroke-linejoin:round;stroke-miterlimit:3.9000001;stroke-dasharray:none;stroke-dashoffset:0;stroke-opacity:1"
       id="path2801" />
    <path
       d="M -64.476898 46.926975 A 3.8152013 3.8152013 0 1 1  -72.1073,46.926975 A 3.8152013 3.8152013 0 1 1  -64.476898 46.926975 z"
       transform="translate(194.6677,71.34426)"
       style="opacity:1;fill:white;fill-opacity:1;stroke:black;stroke-width:4;stroke-linejoin:round;stroke-miterlimit:3.9000001;stroke-dasharray:none;stroke-dashoffset:0;stroke-opacity:1"
       id="path2803" />
    <path
       d="M -64.476898 46.926975 A 3.8152013 3.8152013 0 1 1  -72.1073,46.926975 A 3.8152013 3.8152013 0 1 1  -64.476898 46.926975 z"
       transform="translate(194.6677,85.46051)"
       style="opacity:1;fill:white;fill-opacity:1;stroke:black;stroke-width:4;stroke-linejoin:round;stroke-miterlimit:3.9000001;stroke-dasharray:none;stroke-dashoffset:0;stroke-opacity:1"
       id="path2805" />
    <path
       d="M -64.476898 46.926975 A 3.8152013 3.8152013 0 1 1  -72.1073,46.926975 A 3.8152013 3.8152013 0 1 1  -64.476898 46.926975 z"
       transform="translate(194.9568,100.3398)"
       style="opacity:1;fill:white;fill-opacity:1;stroke:black;stroke-width:4;stroke-linejoin:round;stroke-miterlimit:3.9000001;stroke-dasharray:none;stroke-dashoffset:0;stroke-opacity:1"
       id="path2807" />
    <path
       d="M -64.476898 46.926975 A 3.8152013 3.8152013 0 1 1  -72.1073,46.926975 A 3.8152013 3.8152013 0 1 1  -64.476898 46.926975 z"
       transform="translate(194.6677,115.6006)"
       style="opacity:1;fill:white;fill-opacity:1;stroke:black;stroke-width:4;stroke-linejoin:round;stroke-miterlimit:3.9000001;stroke-dasharray:none;stroke-dashoffset:0;stroke-opacity:1"
       id="path2809" />
    <path
       d="M -64.476898 46.926975 A 3.8152013 3.8152013 0 1 1  -72.1073,46.926975 A 3.8152013 3.8152013 0 1 1  -64.476898 46.926975 z"
       transform="translate(209.073,115.8897)"
       style="opacity:1;fill:white;fill-opacity:1;stroke:black;stroke-width:4;stroke-linejoin:round;stroke-miterlimit:3.9000001;stroke-dasharray:none;stroke-dashoffset:0;stroke-opacity:1"
       id="path2811" />
  </g>
</svg>
