<?xml version="1.0" encoding="iso-8859-1"?>
<!-- Generator: Adobe Illustrator 12.0.1, SVG Export Plug-In . SVG Version: 6.00 Build 51448)  -->
<!DOCTYPE svg PUBLIC "-//W3C//DTD SVG 1.1//EN" "http://www.w3.org/Graphics/SVG/1.1/DTD/svg11.dtd" [
	<!ENTITY ns_svg "http://www.w3.org/2000/svg">
	<!ENTITY ns_xlink "http://www.w3.org/1999/xlink">
]>
<svg  version="1.1" id="&#x56FE;&#x5C42;_1" xmlns="&ns_svg;" xmlns:xlink="&ns_xlink;" width="9.862" height="9.862"
	 viewBox="0 0 9.862 9.862" style="overflow:visible;enable-background:new 0 0 9.862 9.862;" xml:space="preserve">
<g>
	<path style="fill:#FDCE12;stroke:#492407;stroke-width:0.25;" d="M9.243,7.314C9.197,4.188,9.081,0.956,9.081,0.956
		S9.001,0.433,8.55,0.362C8.097,0.294,1.313,0.403,1.313,0.403S0.623,0.301,0.58,1.181C0.535,2.129,0.627,7.842,0.696,8.662
		C0.766,9.479,0.777,9.617,1.493,9.5c1.121-0.182,6.289-0.969,7.2-1.222C9.206,8.135,9.251,7.856,9.243,7.314z"/>
	
		<linearGradient id="XMLID_2_" gradientUnits="userSpaceOnUse" x1="946.4756" y1="-2.5415" x2="952.2112" y2="2.8921" gradientTransform="matrix(-0.6942 -0.2091 -0.2641 0.8785 665.8711 199.6419)">
		<stop  offset="0" style="stop-color:#FFFFFF"/>
		<stop  offset="0.1032" style="stop-color:#FFFDEF"/>
		<stop  offset="0.3036" style="stop-color:#FDF9C7"/>
		<stop  offset="0.581" style="stop-color:#FBF285"/>
		<stop  offset="0.9217" style="stop-color:#F9E82C"/>
		<stop  offset="1" style="stop-color:#F8E616"/>
	</linearGradient>
	<path style="fill:url(#XMLID_2_);" d="M8.535,0.472c0,0-2.469-0.038-4.146,0.039c0,0,2.155,1.106,2.23,3.252
		c0,0,1.507-2.049,1.843-2.835C8.527,0.778,8.751,0.537,8.535,0.472z"/>
	<path style="fill:#E2A51B;" d="M8.878,7.749C4.579,8.679,2.08,9.043,1.244,9.028c0.083,0.015-0.205,0.445-0.2,0.446
		c3.334-0.58,7.631-1.081,8.063-1.512C9.111,7.969,8.96,7.842,8.878,7.749z"/>
	<path style="fill:#E2A51B;" d="M0.765,0.831c0,0,0.099,0.123,0.231,0.266C0.849,4.404,1.12,8.878,1.12,8.878
		S0.991,9.126,0.878,9.331C0.651,9.723,0.609,1.745,0.765,0.831z"/>
	<path style="fill:none;stroke:#7C4707;stroke-width:0.25;" d="M8.794,0.543c0,0,0.105-0.247-0.119,0.319
		c-0.222,0.564-2.313,3.503-2.8,4.319C5.557,5.717,5.291,5.637,4.849,5.104C4.406,4.572,1.615,1.412,1.033,0.93
		c-0.189-0.156-0.376-0.373-0.052-0.49"/>
	<path style="fill:none;stroke:#7C4707;stroke-width:0.25;" d="M4.02,4.189c0,0-2.027,3.512-3.11,5.279"/>
	<path style="fill:none;stroke:#7C4707;stroke-width:0.25;" d="M9.205,7.968c0,0-2.141-3.16-2.675-3.918"/>
</g>
<rect style="fill:none;" width="9.862" height="9.862"/>
</svg>
