/* XPM */
static char * flag_xpm[] = {
"8 8 3 1",
" 	c None",
".	c #000000",
"+	c #4C4C4C",
"        ",
" .+  +. ",
" .+.+.. ",
" .+.... ",
" ...... ",
" . +.+  ",
" .      ",
" .      "};
