/* XPM */
static char * flag_toget_xpm[] = {
"8 8 3 1",
" 	c None",
".	c #FF00FF",
"+	c #FF0000",
"        ",
"   .+   ",
"   .+   ",
"   .+   ",
" ...+++ ",
"  ++++  ",
"   ++   ",
"        "};
