/* XPM */
static char * flag_normal_xpm[] = {
"8 8 4 1",
" 	c None",
".	c #00FF00",
"+	c #007F00",
"@	c #FFFFFF",
"        ",
"  ...+  ",
" ..@..+ ",
" .@..++ ",
" ...+.+ ",
" +.+.++ ",
"  ++++  ",
"        "};
