/* XPM */
static char * flag_tosend_xpm[] = {
"8 8 3 1",
" 	c None",
".	c #FF0000",
"+	c #FF00FF",
"        ",
"   ..   ",
"  .+..  ",
" ...... ",
"   +.   ",
"   +.   ",
"   +.   ",
"        "};
