/* XPM */
static char * flag_unfinished_xpm[] = {
"8 8 4 1",
" 	c None",
".	c #FF0000",
"+	c #7F0000",
"@	c #FFFFFF",
"        ",
"  ...+  ",
" ..@@.+ ",
" ..@@++ ",
" ..@@.+ ",
" +.+.++ ",
"  ++++  ",
"        "};
