/* XPM */
static char * menu_xpm[] = {
"12 12 5 1",
"      c None",
".     c #000000",
"+     c #FFFDAD",
"@     c #FFFF00",
"#     c #E5E100",
"            ",
"            ",
"  ......... ",
"  .+++++++. ",
"  .+@@@@#.  ",
"  .+@@@#.   ",
"  .+@@#.    ",
"  .+@#.     ",
"  .+#.      ",
"  .+.       ",
"  ..        ",
"            "};
