<?xml version="1.0" encoding="iso-8859-1"?>
<!-- Generator: Adobe Illustrator 12.0.1, SVG Export Plug-In . SVG Version: 6.00 Build 51448)  -->
<!DOCTYPE svg PUBLIC "-//W3C//DTD SVG 1.1//EN" "http://www.w3.org/Graphics/SVG/1.1/DTD/svg11.dtd" [
	<!ENTITY ns_svg "http://www.w3.org/2000/svg">
	<!ENTITY ns_xlink "http://www.w3.org/1999/xlink">
]>
<svg  version="1.1" id="&#x56FE;&#x5C42;_1" xmlns="&ns_svg;" xmlns:xlink="&ns_xlink;" width="19.717" height="21.29"
	 viewBox="0 0 19.717 21.29" style="overflow:visible;enable-background:new 0 0 19.717 21.29;" xml:space="preserve">
<g>
	<polygon style="fill:#BDC3C5;stroke:#000000;stroke-width:0.75;stroke-linejoin:round;" points="5.996,0.375 4.2,0.375 0.375,4 
		0.375,5.925 2.657,5.925 2.588,20.915 5.996,20.915 	"/>
	<polygon style="opacity:0.47;fill:#6D7071;" points="5.655,20.553 4.468,20.646 4.155,3.303 5.624,0.709 	"/>
</g>
<g>
	<polygon style="fill:#BDC3C5;stroke:#000000;stroke-width:0.75;stroke-linejoin:round;" points="19.342,0.375 17.546,0.375 
		13.721,4 13.721,5.925 16.004,5.925 15.934,20.915 19.342,20.915 	"/>
	<polygon style="opacity:0.47;fill:#6D7071;" points="19.03,20.615 17.78,20.584 17.672,3.306 18.968,0.803 	"/>
</g>
<ellipse style="fill:#FFFFFF;stroke:#000000;stroke-width:0.75;" cx="11.301" cy="18.251" rx="1.499" ry="2.511"/>
<ellipse style="fill:#FFFFFF;stroke:#000000;stroke-width:0.75;" cx="11.301" cy="11.508" rx="1.499" ry="2.511"/>
<path style="fill:#BFBFBF;" d="M11.668,9.155c0.053,0.26,0.089,0.534,0.089,0.825c0,1.386-0.671,2.511-1.499,2.511
	c-0.178,0-0.347-0.061-0.506-0.157c0.205,0.979,0.756,1.687,1.41,1.687c0.827,0,1.498-1.125,1.498-2.511
	C12.66,10.421,12.244,9.503,11.668,9.155z"/>
<path style="fill:#BFBFBF;" d="M11.876,16.175c0.054,0.26,0.09,0.533,0.09,0.825c0,1.386-0.672,2.511-1.499,2.511
	c-0.179,0-0.347-0.061-0.506-0.157c0.205,0.979,0.756,1.687,1.409,1.687c0.828,0,1.499-1.125,1.499-2.511
	C12.869,17.442,12.453,16.524,11.876,16.175z"/>
<path style="fill:#BFBFBF;" d="M11.813,15.926c0.011,0.052,0.009,0.112,0.018,0.166c0.205,0.426,0.335,0.956,0.335,1.547
	c0,1.386-0.671,2.511-1.499,2.511c-0.146,0-0.284-0.04-0.417-0.105c0.27,0.459,0.643,0.746,1.058,0.746
	c0.828,0,1.499-1.125,1.499-2.511C12.807,17.191,12.391,16.273,11.813,15.926z"/>
<path style="fill:#BFBFBF;" d="M11.688,9.051c0.011,0.052,0.009,0.112,0.018,0.166c0.205,0.426,0.335,0.956,0.335,1.547
	c0,1.386-0.671,2.511-1.499,2.511c-0.146,0-0.284-0.04-0.417-0.105c0.27,0.459,0.643,0.746,1.058,0.746
	c0.828,0,1.499-1.125,1.499-2.511C12.682,10.316,12.266,9.398,11.688,9.051z"/>
</svg>
