<?xml version="1.0" encoding="iso-8859-1"?>
<!-- Generator: Adobe Illustrator 12.0.0, SVG Export Plug-In . SVG Version: 6.00 Build 51448)  -->
<!DOCTYPE svg PUBLIC "-//W3C//DTD SVG 1.1//EN" "http://www.w3.org/Graphics/SVG/1.1/DTD/svg11.dtd" [
	<!ENTITY ns_svg "http://www.w3.org/2000/svg">
	<!ENTITY ns_xlink "http://www.w3.org/1999/xlink">
]>
<svg  version="1.1" id="&#xCD;_xBC__xB2_&#xE3;_x5F_1" xmlns="&ns_svg;" xmlns:xlink="&ns_xlink;" width="33.46" height="31.786"
	 viewBox="0 0 33.46 31.786" style="overflow:visible;enable-background:new 0 0 33.46 31.786;" xml:space="preserve">
<g>
	<linearGradient id="XMLID_5_" gradientUnits="userSpaceOnUse" x1="7.8682" y1="16.1401" x2="26.8831" y2="15.2973">
		<stop  offset="0" style="stop-color:#C68911"/>
		<stop  offset="0.0618" style="stop-color:#D59314"/>
		<stop  offset="0.1742" style="stop-color:#FBAB18"/>
		<stop  offset="0.4494" style="stop-color:#FFEF9B"/>
		<stop  offset="0.4503" style="stop-color:#FFEF9A"/>
		<stop  offset="0.475" style="stop-color:#FFE68B"/>
		<stop  offset="0.5027" style="stop-color:#FFE082"/>
		<stop  offset="0.5393" style="stop-color:#FFDF80"/>
		<stop  offset="0.8146" style="stop-color:#FAA819"/>
		<stop  offset="1" style="stop-color:#F7931D"/>
	</linearGradient>
	<path style="fill:url(#XMLID_5_);stroke:#070707;" d="M25.127,14.554c-0.859-3.363-0.563-6.133-0.563-6.133
		c0-4.375-3.547-7.921-7.92-7.921c-4.374,0-7.921,3.546-7.921,7.921c0,0,0.005,3.433-0.604,5.941
		c-0.608,2.51-7.505,9.86-7.618,12.633c-0.113,2.771,7.542,3.96,16.011,3.96c8.468,0,15.935-1.697,16.425-4.017
		C33.428,24.618,25.986,17.917,25.127,14.554z"/>
	<linearGradient id="XMLID_6_" gradientUnits="userSpaceOnUse" x1="16.4717" y1="31.1895" x2="16.7986" y2="21.6177">
		<stop  offset="0.0787" style="stop-color:#8F5019"/>
		<stop  offset="0.081" style="stop-color:#8F5119"/>
		<stop  offset="0.4035" style="stop-color:#6F490A"/>
		<stop  offset="0.5618" style="stop-color:#634503"/>
		<stop  offset="0.6673" style="stop-color:#533900"/>
		<stop  offset="1" style="stop-color:#000000"/>
	</linearGradient>
	<path style="fill:url(#XMLID_6_);" d="M32.373,26.383c0.033,2.317-6.992,4.313-15.689,4.452c-8.697,0.14-15.771-1.626-15.803-3.946
		c-0.031-2.319,6.991-4.313,15.689-4.454C25.268,22.296,32.342,24.063,32.373,26.383z"/>
	<linearGradient id="XMLID_7_" gradientUnits="userSpaceOnUse" x1="18.3081" y1="-0.3052" x2="16.6313" y2="22.7551">
		<stop  offset="0" style="stop-color:#FFD100"/>
		<stop  offset="0.2123" style="stop-color:#F4BB0D"/>
		<stop  offset="0.6384" style="stop-color:#DB8E17"/>
		<stop  offset="0.7865" style="stop-color:#D27E18"/>
		<stop  offset="0.9604" style="stop-color:#A56909"/>
		<stop  offset="0.9888" style="stop-color:#9D6506"/>
	</linearGradient>
	<path style="fill:url(#XMLID_7_);" d="M24.58,15.208c-0.67-2.344-0.713-7.919-0.713-7.919c-0.043-0.069,0.254-0.197,0.205-0.267
		c-0.455-3.059-3.299-6.192-6.995-6.358C12.946,0.479,9.214,3.934,8.8,7.29C8.785,7.422,8.75,7.638,8.718,7.864
		c-0.021,0.033-0.05,0.069-0.07,0.104V8.47c-0.002,0.037,0.001,0.059,0,0.092c0,0,0.269,3.313-0.604,6.348
		c-0.872,3.035-7.006,9.709-7.316,11.576c5.346-6.76,9.12-8.971,9.808-11.691c0.688-2.72,0.018-7.466,1.472-9.535
		c1.333-1.896,2.594-2.162,4.548-2.162c1.323,0,2.955,0.379,3.818,1.44c2.031,2.498,1.359,8.185,2.131,10.577
		c0.773,2.393,9.883,11.117,9.553,10.324C30.953,22.78,25.25,17.552,24.58,15.208z"/>
	<ellipse style="fill:none;stroke:#F8D126;stroke-width:0.5;" cx="16.639" cy="26.562" rx="15.931" ry="4.335"/>
	<linearGradient id="XMLID_8_" gradientUnits="userSpaceOnUse" x1="13.543" y1="27.3936" x2="20.6226" y2="27.314">
		<stop  offset="0" style="stop-color:#C8A406"/>
		<stop  offset="0.1344" style="stop-color:#D9B702"/>
		<stop  offset="0.2865" style="stop-color:#F1D200"/>
		<stop  offset="0.5674" style="stop-color:#FFEF9B"/>
		<stop  offset="0.6001" style="stop-color:#FFED92"/>
		<stop  offset="0.6569" style="stop-color:#FFE77A"/>
		<stop  offset="0.7304" style="stop-color:#FFDD4C"/>
		<stop  offset="0.7978" style="stop-color:#FFD400"/>
		<stop  offset="1" style="stop-color:#FAA819"/>
	</linearGradient>
	<path style="fill:url(#XMLID_8_);stroke:#070707;" d="M22.311,23.362v2.881c0,2.785-2.365,5.043-5.282,5.043l0,0
		c-2.918,0-5.283-2.258-5.283-5.043l-0.183-2.731"/>
</g>
</svg>
