<?xml version="1.0" encoding="iso-8859-1"?>
<!-- Generator: Adobe Illustrator 12.0.1, SVG Export Plug-In . SVG Version: 6.00 Build 51448)  -->
<!DOCTYPE svg PUBLIC "-//W3C//DTD SVG 1.1//EN" "http://www.w3.org/Graphics/SVG/1.1/DTD/svg11.dtd" [
	<!ENTITY ns_svg "http://www.w3.org/2000/svg">
	<!ENTITY ns_xlink "http://www.w3.org/1999/xlink">
]>
<svg  version="1.1" id="&#x56FE;&#x5C42;_1" xmlns="&ns_svg;" xmlns:xlink="&ns_xlink;" width="20.998" height="21.869"
	 viewBox="0 0 20.998 21.869" overflow="visible" enable-background="new 0 0 20.998 21.869" xml:space="preserve">
<g>
	<path fill="#FFFFFF" d="M0.021,14.421L0,7.649l17.703-7.491c0,0,3.241,3.692,3.111,10.89c-0.129,7.106-2.977,10.821-2.977,10.821
		L0.021,14.421z"/>
	
		<linearGradient id="XMLID_5_" gradientUnits="userSpaceOnUse" x1="0.5703" y1="4.1875" x2="19.1769" y2="4.1875" gradientTransform="matrix(0 1 -1 0 21.4336 0.4355)">
		<stop  offset="0.0225" style="stop-color:#DE0000"/>
		<stop  offset="0.1764" style="stop-color:#E92106"/>
		<stop  offset="0.3858" style="stop-color:#F54A0C"/>
		<stop  offset="0.4944" style="stop-color:#FA590F"/>
		<stop  offset="0.6157" style="stop-color:#F6570F"/>
		<stop  offset="0.7338" style="stop-color:#EA500E"/>
		<stop  offset="0.8506" style="stop-color:#D7440D"/>
		<stop  offset="0.966" style="stop-color:#BC350C"/>
		<stop  offset="1" style="stop-color:#B22F0B"/>
	</linearGradient>
	<path fill="url(#XMLID_5_)" d="M16.077,10.667c-0.071,5.083-1.954,7.767-2.583,9.125l4.343,2.023c0,0,3.028-3.707,3.157-10.815
		c0.131-7.196-3.25-11-3.25-11l-3.917,1.917C14.496,3.586,16.138,6.351,16.077,10.667z"/>
	
		<linearGradient id="XMLID_6_" gradientUnits="userSpaceOnUse" x1="3.9375" y1="10.3975" x2="17.1688" y2="10.3975" gradientTransform="matrix(0 1 -1 0 21.4336 0.4355)">
		<stop  offset="0.0225" style="stop-color:#DE0000"/>
		<stop  offset="0.1764" style="stop-color:#E92106"/>
		<stop  offset="0.3858" style="stop-color:#F54A0C"/>
		<stop  offset="0.4944" style="stop-color:#FA590F"/>
		<stop  offset="0.6157" style="stop-color:#F6570F"/>
		<stop  offset="0.7338" style="stop-color:#EA500E"/>
		<stop  offset="0.8506" style="stop-color:#D7440D"/>
		<stop  offset="0.966" style="stop-color:#BC350C"/>
		<stop  offset="1" style="stop-color:#B22F0B"/>
	</linearGradient>
	<path fill="url(#XMLID_6_)" d="M9.963,10.875c-0.033,3.76-1.404,5.613-1.969,6.625l3.666,1.709c0,0,2.354-2.925,2.417-8.167
		c0.063-5.288-2.345-8.375-2.345-8.375L8.41,4.25C9.029,5.489,9.99,7.689,9.963,10.875z"/>
	
		<linearGradient id="XMLID_7_" gradientUnits="userSpaceOnUse" x1="3.9336" y1="15.6479" x2="17.3079" y2="15.6479" gradientTransform="matrix(0 1 -1 0 21.4336 0.4355)">
		<stop  offset="0.0225" style="stop-color:#DE0000"/>
		<stop  offset="0.1764" style="stop-color:#E92106"/>
		<stop  offset="0.3858" style="stop-color:#F54A0C"/>
		<stop  offset="0.4944" style="stop-color:#FA590F"/>
		<stop  offset="0.6157" style="stop-color:#F6570F"/>
		<stop  offset="0.7338" style="stop-color:#EA500E"/>
		<stop  offset="0.8506" style="stop-color:#D7440D"/>
		<stop  offset="0.966" style="stop-color:#BC350C"/>
		<stop  offset="1" style="stop-color:#B22F0B"/>
	</linearGradient>
	<path fill="url(#XMLID_7_)" d="M5.119,11c-0.011,2.674-1.126,4.034-1.625,4.625l2.666,1.333c0,0,1.893-2.295,1.917-6
		c0.024-3.726-1.868-5.982-1.868-5.982L3.619,6.25C4.189,7.132,5.129,8.742,5.119,11z"/>
	
		<linearGradient id="XMLID_8_" gradientUnits="userSpaceOnUse" x1="7.4648" y1="20.3115" x2="13.8641" y2="20.3115" gradientTransform="matrix(0 1 -1 0 21.4336 0.4355)">
		<stop  offset="0.0225" style="stop-color:#DE0000"/>
		<stop  offset="0.1764" style="stop-color:#E92106"/>
		<stop  offset="0.3858" style="stop-color:#F54A0C"/>
		<stop  offset="0.4944" style="stop-color:#FA590F"/>
		<stop  offset="0.6157" style="stop-color:#F6570F"/>
		<stop  offset="0.7338" style="stop-color:#EA500E"/>
		<stop  offset="0.8506" style="stop-color:#D7440D"/>
		<stop  offset="0.966" style="stop-color:#BC350C"/>
		<stop  offset="1" style="stop-color:#B22F0B"/>
	</linearGradient>
	<polygon fill="url(#XMLID_8_)" points="0.021,14.421 0,7.649 2.202,6.667 2.244,15.333 	"/>
</g>
</svg>
