<?xml version="1.0" encoding="iso-8859-1"?>
<!-- Generator: Adobe Illustrator 12.0.0, SVG Export Plug-In . SVG Version: 6.00 Build 51448)  -->
<!DOCTYPE svg PUBLIC "-//W3C//DTD SVG 1.1//EN" "http://www.w3.org/Graphics/SVG/1.1/DTD/svg11.dtd" [
	<!ENTITY ns_svg "http://www.w3.org/2000/svg">
	<!ENTITY ns_xlink "http://www.w3.org/1999/xlink">
]>
<svg  version="1.1" id="&#xCD;_xBC__xB2_&#xE3;_x5F_1" xmlns="&ns_svg;" xmlns:xlink="&ns_xlink;" width="15.802" height="15.824"
	 viewBox="0 0 15.802 15.824" style="overflow:visible;enable-background:new 0 0 15.802 15.824;" xml:space="preserve">
<g>
	
		<ellipse transform="matrix(1 -0.0043 0.0043 1 -0.0343 0.0344)" style="fill:#F2ADAB;stroke:#363639;stroke-width:0.5;" cx="7.901" cy="7.912" rx="7.651" ry="7.662"/>
	<linearGradient id="XMLID_2_" gradientUnits="userSpaceOnUse" x1="7.6211" y1="4.188" x2="8.1892" y2="11.7279">
		<stop  offset="0.0056" style="stop-color:#E51D33"/>
		<stop  offset="0.5496" style="stop-color:#A8101A"/>
		<stop  offset="1" style="stop-color:#760000"/>
	</linearGradient>
	<path style="fill:url(#XMLID_2_);" d="M14.654,7.883c0.018,3.734-2.993,6.775-6.723,6.793c-3.729,0.016-6.766-2.998-6.782-6.734
		C1.132,4.207,4.143,1.166,7.872,1.148C11.601,1.133,14.637,4.146,14.654,7.883z"/>
	<path style="fill:#692119;" d="M9.938,12.316c-3.643,0.824-7.262-1.457-8.086-5.096c-0.146-0.65-0.19-1.299-0.148-1.934
		c-0.576,1.287-0.764,2.76-0.43,4.238c0.824,3.639,4.443,5.92,8.087,5.096c2.991-0.676,5.063-3.236,5.255-6.143
		C13.776,10.354,12.099,11.828,9.938,12.316z"/>
	<path style="fill:#692119;" d="M9.766,12.393c-3.672,0.682-7.2-1.738-7.883-5.404C1.762,6.332,1.743,5.682,1.81,5.049
		c-0.626,1.264-0.87,2.729-0.594,4.219c0.683,3.668,4.211,6.088,7.884,5.404c3.015-0.559,5.184-3.037,5.488-5.934
		C13.678,10.58,11.944,11.988,9.766,12.393z"/>
	<polygon style="fill:#FFFFFF;" points="10.269,3.861 8.077,5.844 6.095,3.652 3.707,5.813 5.689,8.002 3.498,9.986 5.656,12.373 
		7.848,10.391 9.831,12.582 12.219,10.422 10.237,8.23 12.429,6.248 	"/>
</g>
</svg>
