<?xml version="1.0" encoding="iso-8859-1"?>
<!-- Generator: Adobe Illustrator 12.0.0, SVG Export Plug-In . SVG Version: 6.00 Build 51448)  -->
<!DOCTYPE svg PUBLIC "-//W3C//DTD SVG 1.1//EN" "http://www.w3.org/Graphics/SVG/1.1/DTD/svg11.dtd" [
	<!ENTITY ns_svg "http://www.w3.org/2000/svg">
	<!ENTITY ns_xlink "http://www.w3.org/1999/xlink">
]>
<svg  version="1.1" id="&#xCD;_xBC__xB2_&#xE3;_x5F_1" xmlns="&ns_svg;" xmlns:xlink="&ns_xlink;" width="22.749" height="22.75"
	 viewBox="0 0 22.749 22.75" style="overflow:visible;enable-background:new 0 0 22.749 22.75;" xml:space="preserve">
<g>
	<g>
		<linearGradient id="XMLID_10_" gradientUnits="userSpaceOnUse" x1="12.1948" y1="4.9346" x2="16.3202" y2="9.0027">
			<stop  offset="0.0056" style="stop-color:#E4322D"/>
			<stop  offset="0.1392" style="stop-color:#E64238"/>
			<stop  offset="0.4177" style="stop-color:#EA655B"/>
			<stop  offset="0.814" style="stop-color:#F29399"/>
			<stop  offset="1" style="stop-color:#F7AABC"/>
		</linearGradient>
		<path style="fill:url(#XMLID_10_);" d="M11,11.902l2.699-11.094c4.726,1.463,6.231,3.365,6.859,4.844L11,11.902z"/>
		<linearGradient id="XMLID_11_" gradientUnits="userSpaceOnUse" x1="17.0264" y1="16.5718" x2="16.4534" y2="8.951">
			<stop  offset="0.0056" style="stop-color:#2C50A3"/>
			<stop  offset="0.1278" style="stop-color:#494FA0"/>
			<stop  offset="0.3824" style="stop-color:#7B4A98"/>
			<stop  offset="0.7443" style="stop-color:#BC3B8E"/>
			<stop  offset="1" style="stop-color:#ED2385"/>
		</linearGradient>
		<path style="fill:url(#XMLID_11_);" d="M11.051,11.852l9.106-6.549c2.932,3.037,1.986,7.981,1.529,9.586L11.051,11.852z"/>
		<linearGradient id="XMLID_12_" gradientUnits="userSpaceOnUse" x1="17.0073" y1="13.5415" x2="12.6528" y2="17.7814">
			<stop  offset="0.0056" style="stop-color:#2C50A3"/>
			<stop  offset="0.1669" style="stop-color:#2F5CAA"/>
			<stop  offset="0.5028" style="stop-color:#377ABE"/>
			<stop  offset="0.9818" style="stop-color:#45B1E5"/>
			<stop  offset="1" style="stop-color:#47B4E6"/>
		</linearGradient>
		<path style="fill:url(#XMLID_12_);" d="M11,11.846l10.688,2.85c-1.809,4.604-3.968,5.551-5.438,6.342L11,11.846z"/>
		<linearGradient id="XMLID_13_" gradientUnits="userSpaceOnUse" x1="10.3081" y1="16.7778" x2="14.4141" y2="16.8736">
			<stop  offset="0.0056" style="stop-color:#00ADB0"/>
			<stop  offset="0.2727" style="stop-color:#00AEBB"/>
			<stop  offset="0.8257" style="stop-color:#2CB2D9"/>
			<stop  offset="1" style="stop-color:#47B4E6"/>
		</linearGradient>
		<path style="fill:url(#XMLID_13_);" d="M10.76,11.346l5.625,9.526c-4.497,2.061-6.918,1.381-8.523,0.586L10.76,11.346z"/>
		<linearGradient id="XMLID_14_" gradientUnits="userSpaceOnUse" x1="6.4575" y1="6.0352" x2="13.4855" y2="6.0925">
			<stop  offset="0" style="stop-color:#F3F3BD"/>
			<stop  offset="0.1237" style="stop-color:#F3EEB9"/>
			<stop  offset="0.2512" style="stop-color:#F2E4AE"/>
			<stop  offset="0.3805" style="stop-color:#F2D59E"/>
			<stop  offset="0.5111" style="stop-color:#F0BF8A"/>
			<stop  offset="0.6427" style="stop-color:#EEA472"/>
			<stop  offset="0.7752" style="stop-color:#EB8456"/>
			<stop  offset="0.9059" style="stop-color:#E85B39"/>
			<stop  offset="0.9831" style="stop-color:#E6382B"/>
		</linearGradient>
		<path style="fill:url(#XMLID_14_);" d="M11,11.846L5.212,2.201c3.591-2.443,7.108-2.066,8.54-1.412L11,11.846z"/>
		<linearGradient id="XMLID_15_" gradientUnits="userSpaceOnUse" x1="5.8491" y1="10.0288" x2="8.1796" y2="5.8459">
			<stop  offset="0.0056" style="stop-color:#93C83F"/>
			<stop  offset="0.1022" style="stop-color:#A6CF55"/>
			<stop  offset="0.2451" style="stop-color:#BEDA76"/>
			<stop  offset="0.391" style="stop-color:#D0E18F"/>
			<stop  offset="0.5383" style="stop-color:#E0E9A3"/>
			<stop  offset="0.6875" style="stop-color:#EBEEB1"/>
			<stop  offset="0.8398" style="stop-color:#F2F2BA"/>
			<stop  offset="1" style="stop-color:#F3F3BD"/>
		</linearGradient>
		<path style="fill:url(#XMLID_15_);" d="M11,11.846L0.639,10.023C1.37,5.74,3.799,2.785,5.264,2.207L11,11.846z"/>
		<linearGradient id="XMLID_16_" gradientUnits="userSpaceOnUse" x1="5.7471" y1="10.9268" x2="5.5367" y2="14.8032">
			<stop  offset="0.0056" style="stop-color:#93C83F"/>
			<stop  offset="0.1583" style="stop-color:#8DC740"/>
			<stop  offset="0.3688" style="stop-color:#7AC143"/>
			<stop  offset="0.6129" style="stop-color:#57B948"/>
			<stop  offset="0.8802" style="stop-color:#00AE4D"/>
			<stop  offset="1" style="stop-color:#00AA4F"/>
		</linearGradient>
		<path style="fill:url(#XMLID_16_);" d="M10.975,11.699l-8.137,6.114c-2.121-2.963-2.752-6.37-2.162-7.829L10.975,11.699z"/>
		<linearGradient id="XMLID_17_" gradientUnits="userSpaceOnUse" x1="6.0449" y1="13.8921" x2="10.4953" y2="19.774">
			<stop  offset="0.0056" style="stop-color:#93C83F"/>
			<stop  offset="0.1438" style="stop-color:#7AC364"/>
			<stop  offset="0.3784" style="stop-color:#41BB97"/>
			<stop  offset="0.5899" style="stop-color:#00B6BB"/>
			<stop  offset="0.7704" style="stop-color:#00B3D4"/>
			<stop  offset="0.913" style="stop-color:#00B1E3"/>
			<stop  offset="1" style="stop-color:#00B1E9"/>
		</linearGradient>
		<path style="fill:url(#XMLID_17_);" d="M10.975,11.699l-3.113,9.758c-3.399-1.313-6.061-3.773-6.369-5.318L10.975,11.699z"/>
		<circle style="fill:none;stroke:#000000;stroke-width:0.75;" cx="11.375" cy="11.375" r="11"/>
	</g>
	<linearGradient id="XMLID_18_" gradientUnits="userSpaceOnUse" x1="11.4185" y1="18.0327" x2="11.4185" y2="21.9699">
		<stop  offset="0.0056" style="stop-color:#7B8388"/>
		<stop  offset="0.2286" style="stop-color:#8E9498"/>
		<stop  offset="0.6896" style="stop-color:#C6C8CA"/>
		<stop  offset="1" style="stop-color:#FFFFFF"/>
	</linearGradient>
	<path style="opacity:0.22;fill:url(#XMLID_18_);" d="M0.46,10.877c0,0,0.903,9.739,10.125,11.375
		c12.279-0.762,11.789-10.877,11.789-10.877L0.46,10.877z"/>
</g>
</svg>
