<?xml version="1.0" encoding="iso-8859-1"?>
<!-- Generator: Adobe Illustrator 12.0.1, SVG Export Plug-In . SVG Version: 6.00 Build 51448)  -->
<!DOCTYPE svg PUBLIC "-//W3C//DTD SVG 1.1//EN" "http://www.w3.org/Graphics/SVG/1.1/DTD/svg11.dtd" [
	<!ENTITY ns_svg "http://www.w3.org/2000/svg">
	<!ENTITY ns_xlink "http://www.w3.org/1999/xlink">
]>
<svg  version="1.1" id="&#x56FE;&#x5C42;_1" xmlns="&ns_svg;" xmlns:xlink="&ns_xlink;" width="12.52" height="12.898"
	 viewBox="0 0 12.52 12.898" style="overflow:visible;enable-background:new 0 0 12.52 12.898;" xml:space="preserve">
<g>
	<g>
		<linearGradient id="XMLID_5_" gradientUnits="userSpaceOnUse" x1="6.2979" y1="10.6494" x2="6.2195" y2="8.1407">
			<stop  offset="0" style="stop-color:#FFFFFF"/>
			<stop  offset="1" style="stop-color:#C4C4C4"/>
		</linearGradient>
		<path style="fill:url(#XMLID_5_);stroke:#221815;stroke-width:0.25;" d="M9.231,9.222C8.622,8.777,8.067,8.378,8.067,8.378H4.466
			c0,0-0.6,0.442-1.232,0.913c-0.701,0.522-1.439,1.094-1.439,1.094h8.988C10.783,10.385,9.968,9.76,9.231,9.222z"/>
		<g>
			<linearGradient id="XMLID_6_" gradientUnits="userSpaceOnUse" x1="0.125" y1="4.3945" x2="12.3667" y2="4.3945">
				<stop  offset="0" style="stop-color:#FFFFFF"/>
				<stop  offset="0.6499" style="stop-color:#D5D5D5"/>
				<stop  offset="1" style="stop-color:#C4C4C4"/>
			</linearGradient>
			<path style="fill:url(#XMLID_6_);" d="M12.367,7.813c0,0.468-0.383,0.851-0.851,0.851H0.976c-0.468,0-0.851-0.383-0.851-0.851
				V0.976c0-0.468,0.383-0.851,0.851-0.851h10.541c0.468,0,0.851,0.383,0.851,0.851V7.813z"/>
			<path style="fill:none;stroke:#221815;stroke-width:0.25;" d="M12.367,7.813c0,0.468-0.383,0.851-0.851,0.851H0.976
				c-0.468,0-0.851-0.383-0.851-0.851V0.976c0-0.468,0.383-0.851,0.851-0.851h10.541c0.468,0,0.851,0.383,0.851,0.851V7.813z"/>
		</g>
		<rect x="1.781" y="1.69" style="fill:#221815;stroke:#221815;stroke-width:0.25;" width="8.814" height="5.289"/>
		<circle style="fill:#FFFFFF;stroke:#221815;stroke-width:0.25;" cx="10.122" cy="7.791" r="0.436"/>
	</g>
	<linearGradient id="XMLID_7_" gradientUnits="userSpaceOnUse" x1="0.1855" y1="11.2402" x2="12.3945" y2="11.2402">
		<stop  offset="0" style="stop-color:#FFFFFF"/>
		<stop  offset="1" style="stop-color:#C4C4C4"/>
	</linearGradient>
	<rect x="0.186" y="9.706" style="fill:url(#XMLID_7_);stroke:#221815;stroke-width:0.25;" width="12.209" height="3.067"/>
	<linearGradient id="XMLID_8_" gradientUnits="userSpaceOnUse" x1="6.4849" y1="11.1113" x2="11.1636" y2="11.1113">
		<stop  offset="0" style="stop-color:#FFFFFF"/>
		<stop  offset="1" style="stop-color:#C4C4C4"/>
	</linearGradient>
	<rect x="6.485" y="10.611" style="fill:url(#XMLID_8_);stroke:#221815;stroke-width:0.25;" width="4.679" height="1"/>
</g>
</svg>
