<?xml version="1.0" encoding="iso-8859-1"?>
<!-- Generator: Adobe Illustrator 12.0.1, SVG Export Plug-In . SVG Version: 6.00 Build 51448)  -->
<!DOCTYPE svg PUBLIC "-//W3C//DTD SVG 1.1//EN" "http://www.w3.org/Graphics/SVG/1.1/DTD/svg11.dtd" [
	<!ENTITY ns_svg "http://www.w3.org/2000/svg">
	<!ENTITY ns_xlink "http://www.w3.org/1999/xlink">
]>
<svg  version="1.1" id="&#x56FE;&#x5C42;_1" xmlns="&ns_svg;" xmlns:xlink="&ns_xlink;" width="19.817" height="20.737"
	 viewBox="0 0 19.817 20.737" style="overflow:visible;enable-background:new 0 0 19.817 20.737;" xml:space="preserve">
<g>
	<g>
		<linearGradient id="XMLID_7_" gradientUnits="userSpaceOnUse" x1="13.0195" y1="16.2437" x2="13.0195" y2="2.6626">
			<stop  offset="0" style="stop-color:#FFFFFF"/>
			<stop  offset="0.3942" style="stop-color:#D3D4D4"/>
			<stop  offset="0.7201" style="stop-color:#B5B7B8"/>
			<stop  offset="0.9045" style="stop-color:#AAACAD"/>
		</linearGradient>
		<polygon style="fill:url(#XMLID_7_);stroke:#000000;" points="14.453,0.5 6.721,0.5 6.721,16.738 19.317,16.738 19.317,5.01 		"/>
		<linearGradient id="XMLID_8_" gradientUnits="userSpaceOnUse" x1="7.582" y1="16.3926" x2="7.582" y2="2.8107">
			<stop  offset="0" style="stop-color:#FFFFFF"/>
			<stop  offset="0.3942" style="stop-color:#D3D4D4"/>
			<stop  offset="0.7201" style="stop-color:#B5B7B8"/>
			<stop  offset="0.9045" style="stop-color:#AAACAD"/>
		</linearGradient>
		<polygon style="fill:url(#XMLID_8_);" points="8.098,0.698 7.065,0.647 7.065,16.887 8.098,16.887 		"/>
		<polygon style="fill:#919191;" points="18.918,16.369 18.905,15.424 7.138,15.336 7.138,16.369 		"/>
		<linearGradient id="XMLID_9_" gradientUnits="userSpaceOnUse" x1="18.8008" y1="16.624" x2="18.8008" y2="6.7055">
			<stop  offset="0" style="stop-color:#FFFFFF"/>
			<stop  offset="0.3942" style="stop-color:#D3D4D4"/>
			<stop  offset="0.7201" style="stop-color:#B5B7B8"/>
			<stop  offset="0.9045" style="stop-color:#AAACAD"/>
		</linearGradient>
		<polygon style="fill:url(#XMLID_9_);" points="19.317,5.162 18.284,5.126 18.284,16.985 19.317,16.985 		"/>
		<rect x="7.21" y="0.894" style="fill:#E0E2E1;" width="7.153" height="0.591"/>
		<polygon style="fill:#FFFFFF;stroke:#757575;stroke-width:0.75;" points="18.794,5.222 14.217,0.989 14.118,5.469 		"/>
	</g>
	<g>
		<linearGradient id="XMLID_10_" gradientUnits="userSpaceOnUse" x1="6.7979" y1="19.7432" x2="6.7979" y2="6.1622">
			<stop  offset="0" style="stop-color:#FFFFFF"/>
			<stop  offset="0.3942" style="stop-color:#D3D4D4"/>
			<stop  offset="0.7201" style="stop-color:#B5B7B8"/>
			<stop  offset="0.9045" style="stop-color:#AAACAD"/>
		</linearGradient>
		<polygon style="fill:url(#XMLID_10_);stroke:#000000;" points="8.233,3.999 0.5,3.999 0.5,20.237 13.096,20.237 13.096,8.51 		"/>
		<linearGradient id="XMLID_11_" gradientUnits="userSpaceOnUse" x1="1.3604" y1="19.8916" x2="1.3604" y2="6.3098">
			<stop  offset="0" style="stop-color:#FFFFFF"/>
			<stop  offset="0.3942" style="stop-color:#D3D4D4"/>
			<stop  offset="0.7201" style="stop-color:#B5B7B8"/>
			<stop  offset="0.9045" style="stop-color:#AAACAD"/>
		</linearGradient>
		<polygon style="fill:url(#XMLID_11_);" points="1.877,4.196 0.844,4.146 0.844,20.386 1.877,20.386 		"/>
		<polygon style="fill:#919191;" points="12.697,19.868 12.685,18.923 0.917,18.836 0.917,19.868 		"/>
		<linearGradient id="XMLID_12_" gradientUnits="userSpaceOnUse" x1="12.5801" y1="20.123" x2="12.5801" y2="10.2045">
			<stop  offset="0" style="stop-color:#FFFFFF"/>
			<stop  offset="0.3942" style="stop-color:#D3D4D4"/>
			<stop  offset="0.7201" style="stop-color:#B5B7B8"/>
			<stop  offset="0.9045" style="stop-color:#AAACAD"/>
		</linearGradient>
		<polygon style="fill:url(#XMLID_12_);" points="13.096,8.662 12.063,8.625 12.063,20.484 13.096,20.484 		"/>
		<rect x="1.031" y="4.393" style="fill:#E0E2E1;" width="7.111" height="0.591"/>
		<polygon style="fill:#FFFFFF;stroke:#757575;stroke-width:0.75;" points="12.406,8.72 7.829,4.489 7.73,8.968 		"/>
	</g>
</g>
</svg>
