<?xml version="1.0" encoding="iso-8859-1"?>
<!-- Generator: Adobe Illustrator 12.0.1, SVG Export Plug-In . SVG Version: 6.00 Build 51448)  -->
<!DOCTYPE svg PUBLIC "-//W3C//DTD SVG 1.1//EN" "http://www.w3.org/Graphics/SVG/1.1/DTD/svg11.dtd" [
	<!ENTITY ns_svg "http://www.w3.org/2000/svg">
	<!ENTITY ns_xlink "http://www.w3.org/1999/xlink">
]>
<svg  version="1.1" id="&#x56FE;&#x5C42;_1" xmlns="&ns_svg;" xmlns:xlink="&ns_xlink;" width="20.393" height="14.138"
	 viewBox="0 0 20.393 14.138" style="overflow:visible;enable-background:new 0 0 20.393 14.138;" xml:space="preserve">
<g>
	<ellipse cx="10.101" cy="7.136" rx="1.948" ry="2.281"/>
	<ellipse style="fill:#707070;" cx="9.987" cy="6.988" rx="0.59" ry="0.691"/>
	<path style="fill:#5B5B5E;stroke:#000000;stroke-width:0.25;stroke-linejoin:round;" d="M3.398,0.702
		C1.8,1.043,0.904,2.113,0.904,2.113s-1.08,1.511-0.696,1.943L9.179,6.84C7.648,2.605,5.953,0.158,3.398,0.702z M2.679,2.803
		c0,0,0.29-0.587,1.068-0.753c1.246-0.265,2.314,0.795,3.061,2.859L2.436,3.552L2.679,2.803z"/>
	<path style="fill:#636466;stroke:#000000;stroke-width:0.25;stroke-linejoin:round;" d="M9.28,7.293l-8.806,3.429
		c-0.133,0.797,0.742,1.891,0.742,1.891s1.005,1.002,2.619,1.227C6.414,14.196,7.977,11.631,9.28,7.293z M2.725,11.063l4.292-1.67
		c-0.636,2.113-1.451,3.142-2.707,2.97c-0.786-0.11-1.302-0.569-1.302-0.569L2.725,11.063z"/>
	<linearGradient id="XMLID_7_" gradientUnits="userSpaceOnUse" x1="14.2729" y1="2.0508" x2="16.1857" y2="4.9871">
		<stop  offset="0" style="stop-color:#FFFFFF"/>
		<stop  offset="0.0974" style="stop-color:#F8F8F8"/>
		<stop  offset="0.2341" style="stop-color:#E6E6E6"/>
		<stop  offset="0.3932" style="stop-color:#C8C8C8"/>
		<stop  offset="0.5225" style="stop-color:#ABABAB"/>
	</linearGradient>
	<path style="fill:url(#XMLID_7_);stroke:#000000;stroke-width:0.25;" d="M16.353,0.129l3.475,0.323l-8.09,6.817
		c0,0-0.01-0.688-0.385-1.375S9.665,5.103,9.665,5.103L16.353,0.129z"/>
	<linearGradient id="XMLID_8_" gradientUnits="userSpaceOnUse" x1="15.458" y1="10.7588" x2="13.7129" y2="12.9515">
		<stop  offset="0" style="stop-color:#FFFFFF"/>
		<stop  offset="0.1172" style="stop-color:#F5F5F5"/>
		<stop  offset="0.3196" style="stop-color:#D9D9D9"/>
		<stop  offset="0.5815" style="stop-color:#ABABAB"/>
		<stop  offset="0.5843" style="stop-color:#ABABAB"/>
	</linearGradient>
	<path style="fill:url(#XMLID_8_);stroke:#000000;stroke-width:0.25;" d="M16.179,14.008l3.892-0.386l-8.354-6.541
		c0,0,0.115,0.813-0.406,1.458S9.769,9.248,9.769,9.248L16.179,14.008z"/>
</g>
</svg>
