<?xml version="1.0" encoding="iso-8859-1"?>
<!-- Generator: Adobe Illustrator 12.0.1, SVG Export Plug-In . SVG Version: 6.00 Build 51448)  -->
<!DOCTYPE svg PUBLIC "-//W3C//DTD SVG 1.1//EN" "http://www.w3.org/Graphics/SVG/1.1/DTD/svg11.dtd" [
	<!ENTITY ns_svg "http://www.w3.org/2000/svg">
	<!ENTITY ns_xlink "http://www.w3.org/1999/xlink">
]>
<svg  version="1.1" xmlns="&ns_svg;" xmlns:xlink="&ns_xlink;" width="19.73" height="19.834" viewBox="0 0 19.73 19.834"
	 style="overflow:visible;enable-background:new 0 0 19.73 19.834;" xml:space="preserve">
<g id="&#x56FE;&#x5C42;_1">
	<g>
		<linearGradient id="XMLID_2_" gradientUnits="userSpaceOnUse" x1="9.8652" y1="19.5024" x2="9.8652" y2="-0.0806">
			<stop  offset="0.3258" style="stop-color:#FFF7F7"/>
			<stop  offset="1" style="stop-color:#B8B8AF"/>
		</linearGradient>
		<rect x="0.5" y="0.5" style="fill:url(#XMLID_2_);stroke:#000000;" width="18.73" height="18.834"/>
		<rect x="0.949" y="1.003" style="fill:#6C6CDA;" width="17.842" height="3.5"/>
		<rect x="0.92" y="2.669" style="fill:#6C6CDA;" width="17.86" height="1.854"/>
		<polygon style="fill:#BFBFBF;" points="18.01,1.001 18.018,17.857 1.034,17.899 0.949,19.002 18.929,19.002 19.229,1.001 		"/>
		<rect x="2.74" y="6.169" style="fill:#8F8F8F;" width="1.219" height="1.167"/>
		<rect x="5.675" y="6.169" style="fill:#8F8F8F;" width="1.219" height="1.167"/>
		<rect x="9.256" y="6.169" style="fill:#8F8F8F;" width="1.219" height="1.167"/>
		<rect x="12.571" y="6.169" style="fill:#8F8F8F;" width="1.218" height="1.167"/>
		<rect x="16.038" y="6.169" style="fill:#8F8F8F;" width="1.22" height="1.167"/>
		<rect x="2.74" y="8.669" style="fill:#8F8F8F;" width="1.219" height="1.167"/>
		<rect x="5.675" y="8.669" style="fill:#8F8F8F;" width="1.219" height="1.167"/>
		<rect x="9.256" y="8.669" style="fill:#8F8F8F;" width="1.219" height="1.167"/>
		<rect x="12.571" y="8.669" style="fill:#8F8F8F;" width="1.218" height="1.167"/>
		<rect x="16.038" y="8.669" style="fill:#8F8F8F;" width="1.22" height="1.167"/>
		<rect x="2.74" y="11.335" style="fill:#8F8F8F;" width="1.219" height="1.167"/>
		<rect x="5.675" y="11.335" style="fill:#8F8F8F;" width="1.219" height="1.167"/>
		<rect x="9.256" y="11.335" style="fill:#8F8F8F;" width="1.219" height="1.167"/>
		<rect x="12.571" y="11.335" style="fill:#8F8F8F;" width="1.218" height="1.167"/>
		<rect x="16.038" y="11.335" style="fill:#8F8F8F;" width="1.22" height="1.167"/>
		<rect x="2.732" y="14.294" style="fill:#8F8F8F;" width="1.219" height="1.167"/>
		<rect x="5.729" y="14.314" style="fill:#8F8F8F;" width="1.22" height="1.167"/>
		<rect x="9.27" y="14.294" style="fill:#8F8F8F;" width="1.219" height="1.167"/>
		<rect x="12.605" y="14.273" style="fill:#8F8F8F;" width="1.22" height="1.167"/>
		<rect x="16.032" y="14.294" style="fill:#8F8F8F;" width="1.218" height="1.167"/>
		<rect x="7.513" y="8.356" style="fill:#CC0000;" width="4.5" height="4.5"/>
	</g>
</g>
<g id="&#x56FE;&#x5C42;_2">
</g>
</svg>
