<?xml version="1.0" encoding="iso-8859-1"?>
<!-- Generator: Adobe Illustrator 12.0.1, SVG Export Plug-In . SVG Version: 6.00 Build 51448)  -->
<!DOCTYPE svg PUBLIC "-//W3C//DTD SVG 1.1//EN" "http://www.w3.org/Graphics/SVG/1.1/DTD/svg11.dtd" [
	<!ENTITY ns_svg "http://www.w3.org/2000/svg">
	<!ENTITY ns_xlink "http://www.w3.org/1999/xlink">
]>
<svg  version="1.1" id="&#x56FE;&#x5C42;_1" xmlns="&ns_svg;" xmlns:xlink="&ns_xlink;" width="21.936" height="19.324"
	 viewBox="0 0 21.936 19.324" style="overflow:visible;enable-background:new 0 0 21.936 19.324;" xml:space="preserve">
<g>
	<polygon style="fill:#9E9E9E;stroke:#181818;stroke-linejoin:round;" points="15.364,8.838 15.364,0.5 6.753,0.5 6.753,8.838 
		0.5,8.838 9.699,18.824 12.508,18.824 21.436,8.838 	"/>
	<polygon style="opacity:0.44;fill:#737373;" points="12.569,15.803 9.761,15.803 3.988,9.602 1.655,9.318 9.761,18.583 
		12.569,18.583 20.968,8.937 17.12,10.75 	"/>
	<path style="fill:#C7C7C7;" d="M15.05,9.33L14.926,0.6L7.279,0.559v1.938l7.229-0.042l0.063,8.438l2.549-0.143l3.117-1.4
		L15.05,9.33z M5.278,11.021l1.927-0.067L7.27,9.287L1.676,9.318L5.278,11.021z"/>
</g>
</svg>
