<?xml version="1.0" encoding="iso-8859-1"?>
<!-- Generator: Adobe Illustrator 12.0.1, SVG Export Plug-In . SVG Version: 6.00 Build 51448)  -->
<!DOCTYPE svg PUBLIC "-//W3C//DTD SVG 1.1//EN" "http://www.w3.org/Graphics/SVG/1.1/DTD/svg11.dtd" [
	<!ENTITY ns_svg "http://www.w3.org/2000/svg">
	<!ENTITY ns_xlink "http://www.w3.org/1999/xlink">
]>
<svg  version="1.1" id="&#x56FE;&#x5C42;_1" xmlns="&ns_svg;" xmlns:xlink="&ns_xlink;" width="21.549" height="19.356"
	 viewBox="0 0 21.549 19.356" style="overflow:visible;enable-background:new 0 0 21.549 19.356;" xml:space="preserve">
<g>
	<path style="fill:#FFB800;stroke:#000000;stroke-width:0.25;stroke-linejoin:round;" d="M18.875,7.771c0,0-4.436-5.59-10.146-1.43
		c-0.073,0.053,1.555,2.358,1.555,2.358l-9.098,1.479L0.125,9.475c0,0,8.227-7.674,10.68-6.929
		C13.257,3.291,19.75,4.78,18.875,7.771z"/>
	<path style="fill:#FFE800;stroke:#000000;stroke-width:0.25;stroke-linejoin:round;" d="M4.137,0.321c0,0,1.346,1.351,1.343,1.311
		c15.834-7.475,22.084,15.164,8.452,17.6c0.001-0.014,5.497-0.34,6.281-7.467C20.061,6.499,13.856,1.419,8.081,6.083
		c-0.015,0.05,1.356,2.033,1.356,2.033L0.226,9.407L4.137,0.321z"/>
	<path style="opacity:0.84;fill:#FFFFFF;" d="M7.681,5.36C7.672,5.389,7.606,5.439,7.896,6.035
		c6.516-4.938,12.25,0.813,12.453,5.578c0.045-0.264,0.046-0.98,0.078-1.266C20.274,5.083,13.456,0.698,7.681,5.36z M13.86,19.316
		c0-0.005,0.651-0.046,1.536-0.388C14.915,19.087,14.405,19.22,13.86,19.316z M9.243,8.025c0,0-1.046-0.613-1.028-0.634L1.41,8.339
		L0.154,9.493L9.243,8.025z"/>
	<path style="opacity:0.34;fill:#DD6D00;" d="M4.134,0.261L0.17,9.432l1.203-1.091l3.229-7.168c0,0,1.206,1.215,1.203,1.174
		c7.83-3.762,12.148,0.293,14.793,4.18C18.606,1.54,13.166-2.06,5.476,1.569C5.479,1.61,4.134,0.261,4.134,0.261z"/>
</g>
</svg>
