<?xml version="1.0" encoding="iso-8859-1"?>
<!-- Generator: Adobe Illustrator 12.0.1, SVG Export Plug-In . SVG Version: 6.00 Build 51448)  -->
<!DOCTYPE svg PUBLIC "-//W3C//DTD SVG 1.1//EN" "http://www.w3.org/Graphics/SVG/1.1/DTD/svg11.dtd" [
	<!ENTITY ns_svg "http://www.w3.org/2000/svg">
	<!ENTITY ns_xlink "http://www.w3.org/1999/xlink">
]>
<svg  version="1.1" id="&#x56FE;&#x5C42;_1" xmlns="&ns_svg;" xmlns:xlink="&ns_xlink;" width="21.625" height="19.383"
	 viewBox="0 0 21.625 19.383" style="overflow:visible;enable-background:new 0 0 21.625 19.383;" xml:space="preserve">
<path style="fill:#759D1B;stroke:#607718;stroke-width:0.25;" d="M2.674,7.771c0,0,4.436-5.59,10.146-1.43
	c0.073,0.053-1.555,2.358-1.555,2.358l9.098,1.479l1.062-0.704c0,0-8.227-7.674-10.68-6.929C8.292,3.291,1.8,4.78,2.674,7.771z"/>
<path style="fill:#96CE17;stroke:#607718;stroke-width:0.25;" d="M17.413,0.321c0,0-1.346,1.351-1.343,1.311
	C0.236-5.843-6.014,16.796,7.618,19.231c-0.001-0.014-5.497-0.34-6.281-7.467C1.488,6.499,7.693,1.419,13.468,6.083
	c0.015,0.05-1.356,2.033-1.356,2.033l9.212,1.291L17.413,0.321z"/>
<path style="opacity:0.84;fill:#FFFFFF;" d="M1.215,10.358c0.032,0.285-0.014,0.971,0.031,1.234
	C1.221,6.856,7.383,1.218,13.605,5.988c0.29-0.596,0.272-0.6,0.264-0.628C8.093,0.698,1.368,5.094,1.215,10.358z M6.153,18.929
	c0.885,0.342,1.536,0.383,1.536,0.388C7.144,19.22,6.634,19.087,6.153,18.929z M21.395,9.493l-1.256-1.154l-6.805-0.947
	c0.018,0.021-1.028,0.634-1.028,0.634L21.395,9.493z"/>
<path style="opacity:0.34;fill:#DD6D00;" d="M16.074,1.569C8.383-2.06,2.943,1.54,0.951,6.526c2.645-3.887,6.963-7.942,14.793-4.18
	c-0.003,0.041,1.203-1.174,1.203-1.174l3.229,7.168l1.203,1.091l-3.964-9.171C17.416,0.261,16.07,1.61,16.074,1.569z"/>
</svg>
