<?xml version="1.0" encoding="iso-8859-1"?>
<!-- Generator: Adobe Illustrator 12.0.1, SVG Export Plug-In . SVG Version: 6.00 Build 51448)  -->
<!DOCTYPE svg PUBLIC "-//W3C//DTD SVG 1.1//EN" "http://www.w3.org/Graphics/SVG/1.1/DTD/svg11.dtd" [
	<!ENTITY ns_svg "http://www.w3.org/2000/svg">
	<!ENTITY ns_xlink "http://www.w3.org/1999/xlink">
]>
<svg  version="1.1" id="&#x56FE;&#x5C42;_1" xmlns="&ns_svg;" xmlns:xlink="&ns_xlink;" width="11.834" height="11.835"
	 viewBox="0 0 11.834 11.835" overflow="visible" enable-background="new 0 0 11.834 11.835" xml:space="preserve">
<linearGradient id="XMLID_2_" gradientUnits="userSpaceOnUse" x1="14.2363" y1="11.6465" x2="-8.1499" y2="11.6465">
	<stop  offset="0.0056" style="stop-color:#FFFFFF"/>
	<stop  offset="0.1222" style="stop-color:#F3F2F1"/>
	<stop  offset="0.246" style="stop-color:#DBD8D7"/>
	<stop  offset="0.3732" style="stop-color:#BBB6B4"/>
	<stop  offset="0.5028" style="stop-color:#938B89"/>
	<stop  offset="0.6344" style="stop-color:#665E5B"/>
	<stop  offset="0.7674" style="stop-color:#3C3532"/>
	<stop  offset="0.8991" style="stop-color:#0C0402"/>
	<stop  offset="1" style="stop-color:#000000"/>
</linearGradient>
<polygon fill="url(#XMLID_2_)" points="10.042,11.793 2.58,11.781 2.75,11.563 10.208,11.501 "/>
<g>
	<path fill="#FFE600" stroke="#262627" stroke-width="0.25" d="M6.086,9.965c0,0-2.052,1.674-3.224,1.092l0,0
		c-1.173-0.583-1.019-3.201-1.019-3.201l4.049-7.693l1.561,0.099l1.828,0.969l0.891,1.161L6.086,9.965z"/>
	<polygon fill="#BC7514" points="5.992,10.004 4.723,9.136 9.266,1.292 10.188,2.448 	"/>
	<polygon fill="#CE8E28" points="4.841,9.181 2.948,8.25 7.438,0.323 9.266,1.292 	"/>
	<polygon fill="#F4C067" points="3.111,8.333 1.788,7.966 5.958,0.159 7.438,0.323 	"/>
	<polygon fill="#F8E1C3" points="3.06,11.027 2.658,10.778 3.213,8.332 4.683,9.102 	"/>
	<polygon fill="#F8F4EA" points="2.658,10.778 2.257,10.395 1.788,7.966 3.213,8.332 	"/>
	<polygon fill="#BFAE99" points="3.816,11.144 3.087,10.988 4.683,9.102 5.992,10.004 	"/>
	<polygon points="2.511,11.835 2.083,10.29 3.875,11.229 	"/>
</g>
<rect opacity="0" fill="#FFFFFF" width="11.834" height="11.834"/>
</svg>
