<?xml version="1.0" encoding="iso-8859-1"?>
<!-- Generator: Adobe Illustrator 12.0.1, SVG Export Plug-In . SVG Version: 6.00 Build 51448)  -->
<!DOCTYPE svg PUBLIC "-//W3C//DTD SVG 1.1//EN" "http://www.w3.org/Graphics/SVG/1.1/DTD/svg11.dtd" [
	<!ENTITY ns_svg "http://www.w3.org/2000/svg">
	<!ENTITY ns_xlink "http://www.w3.org/1999/xlink">
]>
<svg  version="1.1" id="&#x56FE;&#x5C42;_1" xmlns="&ns_svg;" xmlns:xlink="&ns_xlink;" width="18.484" height="18.615"
	 viewBox="0 0 18.484 18.615" style="overflow:visible;enable-background:new 0 0 18.484 18.615;" xml:space="preserve">
<linearGradient id="XMLID_3_" gradientUnits="userSpaceOnUse" x1="19.752" y1="18.3169" x2="-15.703" y2="18.3169">
	<stop  offset="0.0056" style="stop-color:#FFFFFF"/>
	<stop  offset="0.1222" style="stop-color:#FBFBFB"/>
	<stop  offset="0.246" style="stop-color:#EEEEEE"/>
	<stop  offset="0.3732" style="stop-color:#D9D9D9"/>
	<stop  offset="0.5028" style="stop-color:#BBBBBB"/>
	<stop  offset="0.6344" style="stop-color:#949494"/>
	<stop  offset="0.7674" style="stop-color:#656565"/>
	<stop  offset="0.8991" style="stop-color:#2F2F2F"/>
	<stop  offset="1" style="stop-color:#000000"/>
</linearGradient>
<polygon style="fill:url(#XMLID_3_);" points="13.107,18.547 1.29,18.53 1.56,18.185 13.372,18.085 "/>
<g>
	<path style="fill:#FFF200;stroke:#11100F;stroke-width:0.25;" d="M6.843,15.653c0,0-4.481,2.934-5.105,1.729l0,0
		c-1.595-0.749-1.613-5.07-1.613-5.07L6.537,0.13l2.472,0.155l2.895,1.535l1.41,1.839L6.843,15.653z"/>
	<polygon style="fill:#B86103;" points="6.694,15.715 4.686,14.34 11.879,1.918 13.339,3.75 	"/>
	<polygon style="fill:#CE800F;" points="4.873,14.412 1.875,12.937 8.983,0.385 11.879,1.918 	"/>
	<polygon style="fill:#F6BC45;" points="2.132,13.069 0.036,12.488 6.641,0.125 8.983,0.385 	"/>
	<polygon style="fill:#F9E2B8;" points="2.051,17.336 1.414,16.942 2.294,13.067 4.621,14.286 	"/>
	<polygon style="fill:#FAF7E9;" points="1.414,16.942 0.78,16.334 0.036,12.488 2.294,13.067 	"/>
	<polygon style="fill:#BCA584;" points="3.249,17.52 2.094,17.274 4.621,14.286 6.694,15.715 	"/>
	<polygon points="1.181,18.615 0.628,16.211 3.331,17.555 	"/>
</g>
<g>
	<g>
		<linearGradient id="XMLID_4_" gradientUnits="userSpaceOnUse" x1="12.7324" y1="10.0767" x2="13.187" y2="16.1092">
			<stop  offset="0.0056" style="stop-color:#85C44A"/>
			<stop  offset="0.6782" style="stop-color:#33AB49"/>
			<stop  offset="1" style="stop-color:#0A9E49"/>
		</linearGradient>
		<path style="fill:url(#XMLID_4_);stroke:#231F20;stroke-width:0.25;" d="M18.359,13.034c0.015,2.987-2.394,5.42-5.378,5.435
			c-2.982,0.013-5.412-2.398-5.426-5.388c-0.014-2.987,2.395-5.42,5.379-5.435C15.917,7.634,18.346,10.044,18.359,13.034z"/>
	</g>
	<polygon style="fill:#FFFFFF;" points="16.14,10.177 11.714,14.452 11.714,12.524 10.033,13.67 10.033,16.629 11.714,16.629 
		11.714,16.444 16.14,12.097 	"/>
</g>
</svg>
