<?xml version="1.0" encoding="iso-8859-1"?>
<!-- Generator: Adobe Illustrator 12.0.1, SVG Export Plug-In . SVG Version: 6.00 Build 51448)  -->
<!DOCTYPE svg PUBLIC "-//W3C//DTD SVG 1.1//EN" "http://www.w3.org/Graphics/SVG/1.1/DTD/svg11.dtd" [
	<!ENTITY ns_svg "http://www.w3.org/2000/svg">
	<!ENTITY ns_xlink "http://www.w3.org/1999/xlink">
]>
<svg  version="1.1" id="&#x56FE;&#x5C42;_1" xmlns="&ns_svg;" xmlns:xlink="&ns_xlink;" width="12.788" height="10.396"
	 viewBox="0 0 12.788 10.396" style="overflow:visible;enable-background:new 0 0 12.788 10.396;" xml:space="preserve">
<g>
	<path style="fill:#FDCE12;stroke:#492407;stroke-width:0.25;" d="M12.586,8.102c-1.114-3.494-2.163-6.827-2.163-6.827
		S10.35,0.61,9.729,0.515C9.107,0.421,1.031,0.132,1.031,0.132s-0.947-0.14-0.905,0.835C0.174,2.02,0.951,8.37,1.139,9.281
		c0.187,0.912,0.219,1.064,1.18,0.961c1.499-0.16,8.421-0.843,9.629-1.091C12.63,9.011,12.776,8.698,12.586,8.102z"/>
	<path style="fill:none;stroke:#7C4707;stroke-width:0.25;" d="M12.608,8.826c0,0-3.267-3.589-4.077-4.451"/>
	<path style="fill:none;stroke:#7C4707;stroke-width:0.25;" d="M5.139,4.438c0,0-2.35,3.825-3.618,5.749"/>
	
		<linearGradient id="XMLID_2_" gradientUnits="userSpaceOnUse" x1="947.9336" y1="-1.0996" x2="952.9747" y2="3.6761" gradientTransform="matrix(-0.9661 -0.258 -0.258 0.9661 926.5388 245.7192)">
		<stop  offset="0" style="stop-color:#FFFFFF"/>
		<stop  offset="0.1032" style="stop-color:#FFFDEF"/>
		<stop  offset="0.3036" style="stop-color:#FDF9C7"/>
		<stop  offset="0.581" style="stop-color:#FBF285"/>
		<stop  offset="0.9217" style="stop-color:#F9E82C"/>
		<stop  offset="1" style="stop-color:#F8E616"/>
	</linearGradient>
	<path style="fill:url(#XMLID_2_);" d="M9.843,0.81c0,0-2.687-0.185-4.952-0.161c0,0,3.051,1.309,3.397,3.696
		c0,0,1.265-2.115,1.632-2.977C9.989,1.205,10.144,0.89,9.843,0.81z"/>
	<path style="fill:#D1720E;" d="M12.253,8.573C6.523,9.448,2.976,9.942,1.923,9.708c-0.071,0.015-0.312,0.49-0.305,0.492
		c0.055,0.025,10.813-0.754,10.854-1.386C12.479,8.823,12.372,8.681,12.253,8.573z"/>
	<path style="fill:#D1720E;" d="M0.323,0.472c0,0,0.156,0.159,0.354,0.322c0.175,3.667,1.08,8.917,1.08,8.917
		s-0.155,0.195-0.285,0.418C1.209,10.557-0.186,0.58,0.323,0.472z"/>
	<path style="fill:none;stroke:#7C4707;stroke-width:0.25;" d="M10.221,0.875c0,0,0.082,0.093-0.156,0.712
		C9.828,2.206,8.337,4.719,7.771,5.608C7.4,6.19,7.031,6.091,6.367,5.484c-0.662-0.608-4.81-4.222-5.654-4.778
		C0.438,0.525,0.159,0.277,0.588,0.159"/>
</g>
</svg>
