<?xml version="1.0" encoding="iso-8859-1"?>
<!-- Generator: Adobe Illustrator 12.0.1, SVG Export Plug-In . SVG Version: 6.00 Build 51448)  -->
<!DOCTYPE svg PUBLIC "-//W3C//DTD SVG 1.1//EN" "http://www.w3.org/Graphics/SVG/1.1/DTD/svg11.dtd" [
	<!ENTITY ns_svg "http://www.w3.org/2000/svg">
	<!ENTITY ns_xlink "http://www.w3.org/1999/xlink">
]>
<svg  version="1.1" id="&#x56FE;&#x5C42;_1" xmlns="&ns_svg;" xmlns:xlink="&ns_xlink;" width="83.1" height="80.042"
	 viewBox="0 0 83.1 80.042" style="overflow:visible;enable-background:new 0 0 83.1 80.042;" xml:space="preserve">
<radialGradient id="XMLID_3_" cx="41.5503" cy="40.021" r="39.793" gradientUnits="userSpaceOnUse">
	<stop  offset="0" style="stop-color:#FF9D00"/>
	<stop  offset="1" style="stop-color:#FFF200"/>
</radialGradient>
<path style="fill:url(#XMLID_3_);stroke:#B84624;stroke-width:2;" d="M79.13,29.36l-21.022,0.131
	c-3.423,0.021-7.108-2.641-8.186-5.92L43.298,3.451c-1.079-3.276-2.81-3.266-3.847,0.024l-6.367,20.203
	c-1.038,3.29-4.687,6-8.109,6.022L3.953,29.831c-3.423,0.022-3.947,1.685-1.165,3.698l17.087,12.354
	c2.783,2.013,4.211,6.35,3.174,9.64l-6.367,20.202c-1.038,3.291,0.37,4.307,3.127,2.26l16.926-12.565
	c2.757-2.048,7.289-2.075,10.071-0.063l17.087,12.354c2.783,2.01,4.175,0.977,3.097-2.303l-6.623-20.12
	c-1.079-3.277,0.293-7.632,3.049-9.679l16.926-12.567C83.1,30.996,82.552,29.339,79.13,29.36z"/>
<linearGradient id="XMLID_4_" gradientUnits="userSpaceOnUse" x1="65.7275" y1="25.6001" x2="26.7556" y2="48.1006">
	<stop  offset="0" style="stop-color:#FFFFFF"/>
	<stop  offset="1" style="stop-color:#FFFB7F"/>
</linearGradient>
<path style="opacity:0.3;fill:url(#XMLID_4_);" d="M68.404,33.198L53.01,33.295c-2.507,0.016-5.205-1.918-5.995-4.298l-4.849-14.609
	c-0.79-2.38-2.058-2.371-2.817,0.018l-4.664,14.67c-0.685,2.154-2.925,3.952-5.196,4.299l-10.965,0.469l14.242,9.404
	c2.571,1.742,18.084,17.029,20.592,17.013c0,0-0.51-10.978,0.797-12.812s1.916-1.842,2.74-2.45l12.396-9.126
	C71.311,34.385,70.911,33.182,68.404,33.198z"/>
</svg>
