<?xml version="1.0" encoding="iso-8859-1"?>
<!-- Generator: Adobe Illustrator 12.0.1, SVG Export Plug-In . SVG Version: 6.00 Build 51448)  -->
<!DOCTYPE svg PUBLIC "-//W3C//DTD SVG 1.1//EN" "http://www.w3.org/Graphics/SVG/1.1/DTD/svg11.dtd" [
	<!ENTITY ns_svg "http://www.w3.org/2000/svg">
	<!ENTITY ns_xlink "http://www.w3.org/1999/xlink">
]>
<svg  version="1.1" id="&#x56FE;&#x5C42;_1" xmlns="&ns_svg;" xmlns:xlink="&ns_xlink;" width="20.126" height="17.156"
	 viewBox="0 0 20.126 17.156" style="overflow:visible;enable-background:new 0 0 20.126 17.156;" xml:space="preserve">
<path d="M20.004,5.236c0,0-0.228-0.244-0.165-0.807c0.647-1.124,0.146-2.773-0.956-3.576c-0.094-0.066-0.195-0.121-0.294-0.174
	c0.011,0,0.017-0.003,0.027-0.002c-0.04-0.024-0.085-0.039-0.127-0.059c-0.069-0.034-0.139-0.063-0.21-0.092
	c-0.068-0.026-0.133-0.051-0.2-0.071c-0.12-0.039-0.24-0.068-0.362-0.092c-0.017-0.004-0.035-0.007-0.052-0.01
	c-0.632-0.1-1.288-0.077-1.846,0.227c-0.017,0.009-0.034,0.023-0.052,0.033c-0.118,0.067-0.236,0.137-0.344,0.223
	c-0.129,0.102-0.33,0.265-0.439,0.389c-0.287,0.333-0.557,0.65-0.646,1.047c-1.08-0.167-1.657-0.19-2.402-0.179
	c-0.122,0.003-0.267,0.005-0.41,0.007c-0.156-0.922-0.919-1.563-0.901-1.56c-1.052-0.8-2.567-0.69-3.521,0.185
	c-0.723,0.664-0.897,1.833-0.87,2.017c-2.143,1.64-3.84,3.665-5.356,5.73C0.817,8.55,0.694,8.721,0.694,8.721
	C0.676,8.751,0.042,9.671,0,10.882c-0.006,0.188,0.071,0.885,0.109,1.047c0.139,0.686,0.564,1.35,1,1.875
	c0.385,0.512,0.986,0.9,1.549,1.168c0.569,0.305,1.196,0.48,1.857,0.49c0.901,0.014,1.651-0.283,1.901-0.424
	c0.153-0.088,0.524-0.295,0.688-0.406c1.009-0.668,2.502-3.857,2.502-3.857l0.529,0.076c0,0-0.094,0.438-0.25,1.094
	c-0.21,0.885,0.128,2.023,0.144,2.063c0.341,0.875,0.935,1.391,0.935,1.391c0.281,0.406,1.308,1.057,1.421,1.125
	c0.154,0.092,0.32,0.172,0.486,0.246c0.143,0.068,0.281,0.141,0.432,0.18c1.177,0.293,2.552,0.246,3.064,0.045
	c1.663-0.652,2.844-2.307,2.973-4.166c0.018-0.248,0.441-5.056,0.604-6.89C19.995,5.561,20.004,5.236,20.004,5.236z"/>
<path style="fill:#767675;" d="M10.711,1.132C9.702,0.289,8.209,0.319,7.317,1.16C6.769,1.676,6.551,2.405,6.67,3.111L2.704,8.897
	l5.646-0.43l2.014-3.992c0.064-0.05,0.133-0.091,0.191-0.149C11.536,3.375,11.784,2.03,10.711,1.132z"/>
<path style="fill:#A7AFA8;" d="M4.387,8.738l3.551-5.093C7.819,2.939,8.037,2.209,8.584,1.694c0.555-0.522,1.341-0.731,2.1-0.612
	C9.674,0.26,8.202,0.295,7.317,1.128C6.77,1.645,6.552,2.374,6.67,3.08L2.704,8.866L4.387,8.738z"/>
<path style="fill:#767675;" d="M18.723,1.343c-1.16-0.815-2.799-0.633-3.706,0.375c-0.554,0.614-0.722,1.419-0.523,2.156
	l-3.236,6.328l5.89-1.084l1.834-4.065c0.064-0.059,0.134-0.107,0.192-0.175C20.155,3.791,19.931,2.193,18.723,1.343z"/>
<path style="fill:#A7AFA8;" d="M12.767,10.058l3.458-5.536c-0.197-0.737-0.146-1.729,0.406-2.344c0.561-0.624,0.999-1.049,1.834-1
	c-1.129-0.598-2.617-0.384-3.448,0.54C14.463,2.333,14.338,3.262,14.536,4l-3.236,6.328L12.767,10.058z"/>
<path style="fill:#5A5A5A;" d="M18.43,2.218c-1.159-0.815-2.799-0.633-3.705,0.375c-0.295,0.327-0.472,0.708-0.551,1.104
	c0.098-0.213,0.217-0.419,0.385-0.604c0.906-1.008,2.545-1.19,3.705-0.375c0.84,0.59,1.19,1.54,1.006,2.43
	C19.743,4.133,19.43,2.921,18.43,2.218z"/>
<path style="fill:#5A5A5A;" d="M10.358,1.916c-1.01-0.845-2.504-0.813-3.396,0.027C6.797,2.098,6.73,2.305,6.625,2.492
	C6.659,2.457,6.6,2.65,6.636,2.616c0.893-0.841,2.409-1.136,3.419-0.291c0.901,0.755,0.75,1.769,0.217,2.698
	C11.165,4.068,11.399,2.788,10.358,1.916z"/>
<path style="fill:#878788;" d="M19.761,5.553c0,0-0.463-1.618-1.421-1.906c-2.803-0.844-5.043-1.114-6.542-1.094
	C10.51,2.571,8.038,2.584,6.319,3.178C5.125,3.59,1.163,8.876,1.163,8.876c-0.441,0.607-0.589,1.634-0.531,2.457
	c0.132,1.904,1.783,3.52,3.75,3.658c0.956,0.068,1.604,0.023,2.583-0.604s2.547-3.959,2.547-3.959l1.078,0.166l-0.208,1.75
	c0,0-0.125,0.5,0.083,1.459c0.119,0.547,0.658,1.215,0.658,1.215c0.842,0.992,1.925,1.617,3.425,1.742
	c2.417,0.201,4.143-1.867,4.303-4.076C18.871,12.397,19.761,5.553,19.761,5.553z"/>
<path style="fill:#A7AFA8;" d="M18.683,3.819c-0.159-0.147-0.368-0.176-0.563-0.234c-2.804-0.844-5.126-1.052-6.625-1.031
	c-1.288,0.018-3.771,0.094-5.489,0.688C4.813,3.653,0.85,8.939,0.85,8.939c-0.441,0.607-0.589,1.634-0.531,2.457
	c0.115,1.666,1.393,3.109,3.027,3.539c-1.063-0.664-1.815-1.783-1.902-3.039c-0.058-0.822,0.09-1.85,0.531-2.457
	c0,0,3.63-5.348,4.822-5.76c1.719-0.594,4.529-0.869,5.813-0.75C13.954,3.053,16.162,3.113,18.683,3.819z"/>
<path style="fill:#5F5F60;" d="M14.553,9.106c0,0,2.025,0.213,2.822,1.354l0.965-6.813l-1.146-0.344L14.553,9.106z"/>
<path style="fill:#5F5F60;" d="M15.381,11.97c-1.5-0.125-3.395-0.809-4.021-1.479c-0.146-0.156,0.234-1.328,0.656-1.875
	c0.656-0.719,1.594-1.313,1.594-1.313s-2.25,0.126-3.188-0.041S8.027,6.575,8.027,6.575S9.288,8.179,8.86,9.034
	c-0.168,0.334-0.166,0.52-0.875,1.311c-0.774,0.867-1.813-0.076-2.77-0.145c-1.52-0.107-2.539-0.781-3.126-2.105
	C1.712,8.745,1.163,8.876,1.163,8.876c-0.441,0.607-0.588,1.425-0.53,2.25c0.132,1.904,1.532,3.695,3.499,3.834
	c0.955,0.068,1.854,0.055,2.833-0.572s2.547-3.959,2.547-3.959l0.995,0.188l-0.313,1.563c0,0,0.063,0.459,0.271,1.416
	c0.119,0.549,0.658,1.217,0.658,1.217c0.842,0.992,1.925,1.617,3.425,1.742C17.232,16.776,17.129,12.116,15.381,11.97z"/>
<path style="fill:#5F5F60;" d="M7.989,11.312c0.238,2.068-1.182,3.842-3.297,3.842c-2.254,0-4.189-1.982-4.189-4.277
	c0-2.142,1.715-3.588,3.724-3.369C6.125,7.715,7.764,9.368,7.989,11.312z"/>
<path style="fill:#5F5F60;" d="M18.563,13.044c0.266,2.01-1.313,3.734-3.669,3.734c-2.508,0-4.742-1.979-4.742-4.209
	c0-2.082,1.989-3.438,4.224-3.225C16.491,9.548,18.315,11.153,18.563,13.044z"/>
<radialGradient id="XMLID_3_" cx="-2.2192" cy="8.1924" r="3.6538" gradientTransform="matrix(1.027 0.0038 -0.0037 1 5.2733 1.1199)" gradientUnits="userSpaceOnUse">
	<stop  offset="0" style="stop-color:#FFFFFF"/>
	<stop  offset="0.4465" style="stop-color:#E8E4F1"/>
	<stop  offset="1" style="stop-color:#CFC6E1"/>
</radialGradient>
<path style="fill:url(#XMLID_3_);" d="M7.403,11.515c0.195,1.67-1.006,3.1-2.787,3.092c-1.896-0.008-3.521-1.613-3.514-3.465
	C1.108,9.413,2.557,8.25,4.247,8.433C5.845,8.606,7.221,9.946,7.403,11.515z"/>
<path style="fill:#4C4C4D;" d="M4.655,14.136c-1.834,0-3.404-1.453-3.554-3.189c-0.009,0.09-0.028,0.176-0.028,0.27
	c0,1.852,1.655,3.451,3.582,3.451c1.762,0,2.947-1.359,2.821-2.973C7.327,13.13,5.985,14.136,4.655,14.136z"/>
<radialGradient id="XMLID_4_" cx="-13.9194" cy="13.2598" r="3.4953" gradientTransform="matrix(1.1505 0 0 1.0202 28.6674 -2.1603)" gradientUnits="userSpaceOnUse">
	<stop  offset="0" style="stop-color:#FFFFFF"/>
	<stop  offset="0.4465" style="stop-color:#E8E4F1"/>
	<stop  offset="1" style="stop-color:#CFC6E1"/>
</radialGradient>
<path style="fill:url(#XMLID_4_);" d="M17.735,13.327c0.219,1.662-1.088,3.09-3.036,3.09c-2.075,0-3.858-1.596-3.858-3.439
	c0-1.723,1.58-2.885,3.43-2.709C16.02,10.437,17.528,11.765,17.735,13.327z"/>
<path style="fill:#4C4C4D;" d="M14.717,15.937c-1.996,0-3.705-1.457-3.857-3.191c-0.009,0.084-0.029,0.164-0.029,0.254
	c0,1.844,1.797,3.438,3.887,3.438c1.901,0,3.184-1.34,3.063-2.936C17.625,14.866,16.417,15.937,14.717,15.937z"/>
</svg>
