<?xml version="1.0" encoding="iso-8859-1"?>
<!-- Generator: Adobe Illustrator 12.0.1, SVG Export Plug-In . SVG Version: 6.00 Build 51448)  -->
<!DOCTYPE svg PUBLIC "-//W3C//DTD SVG 1.1//EN" "http://www.w3.org/Graphics/SVG/1.1/DTD/svg11.dtd" [
	<!ENTITY ns_svg "http://www.w3.org/2000/svg">
	<!ENTITY ns_xlink "http://www.w3.org/1999/xlink">
]>
<svg  version="1.1" id="&#x56FE;&#x5C42;_1" xmlns="&ns_svg;" xmlns:xlink="&ns_xlink;" width="20.551" height="20.761"
	 viewBox="0 0 20.551 20.761" style="overflow:visible;enable-background:new 0 0 20.551 20.761;" xml:space="preserve">
<linearGradient id="XMLID_2_" gradientUnits="userSpaceOnUse" x1="11.4336" y1="2.5342" x2="11.4336" y2="20.0687">
	<stop  offset="0" style="stop-color:#C7CE8A"/>
	<stop  offset="0.5674" style="stop-color:#696F3C"/>
</linearGradient>
<path style="fill:url(#XMLID_2_);stroke:#000000;stroke-width:0.5;" d="M14.692,1.055c-1.317,0-2.001,2.162-4.644,1.8
	C8.614,2.658,7.965,1.205,6.971,0.5C5.976-0.206,2.868,0.738,2.567,1.398l0.385,11.614L20.3,20.359L20.26,4.928
	C19.945,4.388,17.847,1.055,14.692,1.055z"/>
<path style="opacity:0.69;fill:#9A9A75;" d="M6.971,1.339c0.994,0.705,1.644,2.159,3.078,2.355c2.643,0.363,3.326-1.8,4.644-1.8
	c3.154,0,5.253,3.334,5.567,3.875l0.037,14.469l0.003,0.002L20.26,4.808c-0.314-0.542-2.413-3.875-5.567-3.875
	c-1.317,0-2.001,2.163-4.644,1.801C8.614,2.537,7.965,1.084,6.971,0.379C5.976-0.327,2.868,0.617,2.567,1.277l0.035,0.924
	C2.998,1.548,5.992,0.646,6.971,1.339z"/>
<polygon style="opacity:0.44;fill:#898989;" points="20.11,20.155 4.729,13.776 4.551,2.317 19.771,6.328 "/>
<polygon style="fill:#FFFFFF;stroke:#A5A5A5;stroke-width:0.25;" points="19.089,18.535 3.861,12.587 3.591,2.256 18.639,5.92 "/>
<path style="fill:#BABE7D;stroke:#000000;stroke-width:0.5;" d="M20.003,20.327l-17.35-7.501L0.257,6.641
	c0,0,0.223-1.618,3.484-1.682c3.262-0.064,12.25,5.818,13.726,8.621C18.943,16.381,20.003,20.327,20.003,20.327z"/>
<path style="fill:#9A9A73;" d="M18.042,14.979c0.682,1.852,1.182,4.143,1.182,4.143L2.437,11.738l0.492,1.111l16.923,7.316
	C19.852,20.166,19.124,17.463,18.042,14.979z"/>
<path style="fill:#DEDEBC;" d="M3.828,5.357c3.262-0.064,11.557,5.38,13.63,9.12c0.823,1.486,0.994,1.922,2.141,5.38
	c-0.318-0.959-1.129-4.309-2.469-6.365C15.401,10.84,7.003,5.074,3.74,5.139C0.479,5.204,0.453,6.503,0.453,6.503l0.125,0.229
	C0.721,6.334,1.163,5.411,3.828,5.357z"/>
</svg>
