<?xml version="1.0" encoding="iso-8859-1"?>
<!-- Generator: Adobe Illustrator 12.0.0, SVG Export Plug-In . SVG Version: 6.00 Build 51448)  -->
<!DOCTYPE svg PUBLIC "-//W3C//DTD SVG 1.1//EN" "http://www.w3.org/Graphics/SVG/1.1/DTD/svg11.dtd" [
	<!ENTITY ns_svg "http://www.w3.org/2000/svg">
	<!ENTITY ns_xlink "http://www.w3.org/1999/xlink">
]>
<svg  version="1.1" id="&#xCD;_xBC__xB2_&#xE3;_x5F_1" xmlns="&ns_svg;" xmlns:xlink="&ns_xlink;" width="19.871" height="24.398"
	 viewBox="0 0 19.871 24.398" style="overflow:visible;enable-background:new 0 0 19.871 24.398;" xml:space="preserve">
<g>
	<path style="fill:#007EBC;" d="M10.357,16.168c-0.798,0-0.853-0.033-1.172,0.721L7.54,20.73c-0.452,1.08-0.533,1.439-0.533,1.656
		c0,0.285,0.187,0.463,0.664,0.572l0.718,0.145c0.266,0.25,0.188,1.113-0.134,1.295c-1.326-0.072-2.177-0.109-3.348-0.109
		c-0.93,0-1.807,0.037-2.552,0.109c-0.373-0.182-0.373-1.045-0.132-1.295l0.638-0.145c1.328-0.287,1.647-0.609,3.002-3.27
		c2.365-4.742,4.783-9.484,7.149-14.227c0.824-1.689,1.596-3.234,1.7-3.916C16.203,1.398,17.452,0,17.478,0h0.053
		c0.268,0,0.479,0.18,0.479,0.576c0,6.357-0.185,22.24,1.091,22.457l0.638,0.107c0.214,0.213,0.16,1.115-0.08,1.258
		c-0.982-0.072-2.418-0.109-3.746-0.109c-1.487,0-2.687,0.037-3.508,0.109c-0.346-0.143-0.295-1.006-0.134-1.258l0.612-0.107
		c1.222-0.217,1.355-0.684,1.382-1.545l0.106-4.564c0.024-0.719-0.029-0.756-0.851-0.756H10.357z M13.731,14.266
		c0.639,0,0.663-0.072,0.692-0.971l0.158-4.422c0.026-1.076,0-2.621,0-3.303h-0.056c-0.396,0.863-0.902,2.01-1.54,3.342l-2.18,4.563
		c-0.318,0.645-0.236,0.791,0.506,0.791H13.731z"/>
</g>
<g>
	<path style="fill:#9DDCF9;stroke:#1F2626;stroke-width:0.25;" d="M9.988,15.961c-0.702,0-0.751-0.033-1.033,0.682l-1.449,3.641
		c-0.398,1.021-0.47,1.361-0.47,1.568c0,0.27,0.162,0.439,0.584,0.541l0.632,0.137c0.234,0.238,0.166,1.055-0.115,1.227
		c-1.171-0.068-1.919-0.104-2.951-0.104c-0.819,0-1.592,0.035-2.247,0.104c-0.329-0.172-0.329-0.988-0.117-1.227l0.561-0.137
		c1.171-0.271,1.454-0.578,2.646-3.096c2.085-4.494,4.216-8.986,6.301-13.48c0.725-1.598,1.405-3.063,1.497-3.707
		c1.314-0.141,2.414-1.467,2.437-1.467h0.047c0.235,0,0.421,0.172,0.421,0.547c0,6.023-0.164,12.082-0.164,18.107
		c0,2.381,0,2.959,1.125,3.166l0.562,0.104c0.19,0.201,0.144,1.055-0.07,1.189c-0.865-0.068-2.128-0.104-3.3-0.104
		c-1.312,0-2.368,0.035-3.091,0.104c-0.307-0.135-0.26-0.953-0.117-1.189l0.537-0.104c1.078-0.207,1.195-0.648,1.221-1.465
		l0.092-4.322c0.022-0.682-0.025-0.715-0.751-0.715H9.988z M12.96,14.156c0.563,0,0.586-0.068,0.61-0.92l0.141-4.188
		c0.022-1.02,0-2.482,0-3.129h-0.048c-0.352,0.818-0.797,1.906-1.358,3.166l-1.922,4.32c-0.28,0.613-0.207,0.75,0.446,0.75H12.96z"
		/>
</g>
<g>
	<path style="fill:#EB1C2A;stroke:#1F2626;stroke-width:0.25;" d="M5.851,14.496c-0.55,0-0.588-0.02-0.809,0.416l-1.135,2.223
		C3.596,17.76,3.54,17.969,3.54,18.092c0,0.166,0.129,0.27,0.458,0.332l0.496,0.084c0.183,0.145,0.128,0.645-0.093,0.748
		c-0.916-0.041-1.503-0.063-2.309-0.063c-0.642,0-1.247,0.021-1.762,0.063c-0.256-0.104-0.256-0.604-0.089-0.748l0.439-0.084
		c0.917-0.166,1.137-0.354,2.071-1.891c1.633-2.744,3.3-5.486,4.933-8.23c0.567-0.977,1.101-1.871,1.172-2.264
		c1.028-0.088,1.89-0.896,1.907-0.896H10.8c0.185,0,0.329,0.104,0.329,0.334c0,3.678-0.127,7.377-0.127,11.057
		c0,1.455,0,1.809,0.881,1.934l0.439,0.063c0.147,0.123,0.11,0.645-0.055,0.727c-0.678-0.041-1.669-0.063-2.585-0.063
		c-1.026,0-1.854,0.021-2.419,0.063c-0.239-0.082-0.203-0.582-0.093-0.727l0.422-0.063c0.843-0.125,0.936-0.396,0.953-0.893
		l0.073-2.641c0.018-0.416-0.02-0.438-0.587-0.438H5.851z M8.18,13.395c0.439,0,0.457-0.041,0.477-0.561l0.108-2.559
		c0.02-0.621,0-1.516,0-1.91H8.728c-0.274,0.498-0.622,1.164-1.063,1.934l-1.504,2.637c-0.219,0.377-0.163,0.459,0.35,0.459H8.18z"
		/>
</g>
</svg>
