<?xml version="1.0" encoding="iso-8859-1"?>
<!-- Generator: Adobe Illustrator 12.0.1, SVG Export Plug-In . SVG Version: 6.00 Build 51448)  -->
<!DOCTYPE svg PUBLIC "-//W3C//DTD SVG 1.1//EN" "http://www.w3.org/Graphics/SVG/1.1/DTD/svg11.dtd" [
	<!ENTITY ns_svg "http://www.w3.org/2000/svg">
	<!ENTITY ns_xlink "http://www.w3.org/1999/xlink">
]>
<svg  version="1.1" id="&#x56FE;&#x5C42;_1" xmlns="&ns_svg;" xmlns:xlink="&ns_xlink;" width="17.749" height="17.75"
	 viewBox="0 0 17.749 17.75" style="overflow:visible;enable-background:new 0 0 17.749 17.75;" xml:space="preserve">
<linearGradient id="XMLID_2_" gradientUnits="userSpaceOnUse" x1="5.7871" y1="22.2432" x2="5.7871" y2="1.7448" gradientTransform="matrix(0.7071 0.7071 -0.7071 0.7071 13.0167 -3.4516)">
	<stop  offset="0" style="stop-color:#FFFFFF"/>
	<stop  offset="0.2329" style="stop-color:#F5F5F5"/>
	<stop  offset="0.6319" style="stop-color:#D9D9D9"/>
	<stop  offset="1" style="stop-color:#BABABA"/>
</linearGradient>
<path style="fill:url(#XMLID_2_);stroke:#000000;stroke-width:0.25;" d="M5.817,15.326c-0.551-0.551-0.551-1.453,0-2.004
	l1.928-1.927c0.551-0.551,1.453-0.551,2.004,0l1.926,1.927c0.551,0.551,0.551,1.453,0,2.004l-1.297,1.297
	c-0.551,0.551-0.364,1.002,0.415,1.002h5.414c0.779,0,1.417-0.638,1.417-1.417v-5.414c0-0.779-0.451-0.966-1.002-0.415l-1.357,1.357
	c-0.551,0.551-1.453,0.551-2.004,0L11.334,9.81c-0.551-0.551-0.551-1.453,0-2.004l1.928-1.927c0.551-0.551,1.453-0.551,2.004,0
	l1.356,1.356c0.551,0.551,1.002,0.364,1.002-0.415V1.542c0-0.779-0.638-1.417-1.417-1.417h-5.278c-0.779,0-0.966,0.451-0.415,1.002
	l1.225,1.225c0.551,0.551,0.551,1.453,0,2.004L9.811,6.282c-0.551,0.551-1.453,0.551-2.004,0L5.88,4.356
	c-0.551-0.551-0.551-1.453,0-2.004l1.226-1.226C7.656,0.576,7.47,0.125,6.69,0.125H1.542c-0.779,0-1.417,0.638-1.417,1.417V6.69
	c0,0.779,0.451,0.966,1.002,0.415l1.164-1.164c0.551-0.551,1.453-0.551,2.004,0l1.927,1.927c0.551,0.551,0.551,1.453,0,2.004
	L4.294,11.8c-0.551,0.551-1.453,0.551-2.004,0l-1.163-1.164c-0.551-0.551-1.002-0.364-1.002,0.415v5.157
	c0,0.779,0.638,1.417,1.417,1.417h5.156c0.779,0,0.966-0.451,0.415-1.002L5.817,15.326z"/>
</svg>
