<?xml version="1.0" encoding="iso-8859-1"?>
<!-- Generator: Adobe Illustrator 12.0.1, SVG Export Plug-In . SVG Version: 6.00 Build 51448)  -->
<!DOCTYPE svg PUBLIC "-//W3C//DTD SVG 1.1//EN" "http://www.w3.org/Graphics/SVG/1.1/DTD/svg11.dtd" [
	<!ENTITY ns_svg "http://www.w3.org/2000/svg">
	<!ENTITY ns_xlink "http://www.w3.org/1999/xlink">
]>
<svg  version="1.1" id="&#x56FE;&#x5C42;_1" xmlns="&ns_svg;" xmlns:xlink="&ns_xlink;" width="16.041" height="15.756"
	 viewBox="0 0 16.041 15.756" style="overflow:visible;enable-background:new 0 0 16.041 15.756;" xml:space="preserve">
<path style="fill:#B2B2B2;stroke:#221815;stroke-width:0.25;" d="M1.875,11.015C1.875,11.015,1.875,11.015,1.875,11.015
	l-0.527,0.133c0.001,0,0.001,0,0.001,0c0.645,2.545,3.14,4.106,5.571,3.491l-0.139-0.553C4.639,14.629,2.442,13.255,1.875,11.015z"
	/>
<g>
	<path style="fill:#B2B2B2;stroke:#221815;stroke-width:0.25;" d="M2.686,8.19c-0.44-1.629-0.133-3.438,1-4.861
		c1.891-2.376,5.35-2.77,7.727-0.878c1.822,1.449,2.473,3.82,1.828,5.919l1.125,0.292c0.623-2.436-0.184-5.393-2.278-7.06
		C9.242-0.661,5.102-0.19,2.837,2.654c-1.285,1.616-1.603,3.919-1.19,5.789L2.686,8.19z"/>
	<path style="fill:#6A6969;stroke:#221815;stroke-width:0.25;" d="M3.334,2.318C3.68,2.541,3.771,3.287,3.771,3.287
		c2.004-2.282,5.6-2.598,7.881-0.595c0,0,0.664-0.301,0.809-0.466c0.145-0.163,0.012-0.532,0.012-0.532
		c-2.17-1.905-6.91-2.478-9.607,0.593C2.865,2.287,2.988,2.096,3.334,2.318z"/>
	<g>
		<path style="fill:#8C8C8C;stroke:#221815;stroke-width:0.25;" d="M3.189,10.003c0,0.847-0.686,1.533-1.531,1.533l0,0
			c-0.848,0-1.533-0.687-1.533-1.533V8.186c0-0.846,0.686-1.533,1.533-1.533l0,0c0.846,0,1.531,0.688,1.531,1.533V10.003z"/>
		<path style="fill:#D4D4D5;" d="M2.312,6.71c0.092,0.197,0.151,0.411,0.151,0.643v1.818c0,0.846-0.686,1.532-1.531,1.532
			c-0.196,0-0.379-0.045-0.551-0.11c0.244,0.522,0.766,0.89,1.381,0.89c0.846,0,1.532-0.687,1.532-1.532V8.132
			C3.294,7.48,2.885,6.933,2.312,6.71z"/>
		<path style="fill:#6A6969;stroke:#221815;stroke-width:0.25;" d="M4.281,10.96c0,0.634-0.442,1.146-0.988,1.146l0,0
			c-0.545,0-0.986-0.513-0.986-1.146V7.174c0-0.634,0.441-1.146,0.986-1.146l0,0c0.546,0,0.988,0.513,0.988,1.146V10.96z"/>
		<path style="fill:#D4D4D5;" d="M3.471,6.057C3.549,6.221,3.605,6.4,3.605,6.603v3.787c0,0.633-0.441,1.146-0.986,1.146
			c-0.045,0-0.083-0.023-0.126-0.029c0.169,0.352,0.479,0.601,0.853,0.601c0.545,0,0.986-0.513,0.986-1.146V7.174
			C4.332,6.591,3.954,6.131,3.471,6.057z"/>
		<linearGradient id="XMLID_3_" gradientUnits="userSpaceOnUse" x1="2.2031" y1="9.0684" x2="2.8262" y2="9.0684">
			<stop  offset="0" style="stop-color:#FFFFFF"/>
			<stop  offset="1" style="stop-color:#000000"/>
		</linearGradient>
		<path style="fill:url(#XMLID_3_);stroke:#221815;stroke-width:0.25;" d="M2.826,12.028c0,0.129-0.14,0.234-0.313,0.234l0,0
			c-0.172,0-0.311-0.105-0.311-0.234v-5.92c0-0.129,0.139-0.234,0.311-0.234l0,0c0.173,0,0.313,0.105,0.313,0.234V12.028z"/>
	</g>
	<g>
		<path style="fill:#8C8C8C;stroke:#221815;stroke-width:0.25;" d="M12.852,10.003c0,0.847,0.686,1.533,1.532,1.533l0,0
			c0.847,0,1.532-0.687,1.532-1.533V8.186c0-0.846-0.686-1.533-1.532-1.533l0,0c-0.847,0-1.532,0.688-1.532,1.533V10.003z"/>
		<path style="fill:#D4D4D5;" d="M15.318,10.706c-0.846,0-1.531-0.687-1.531-1.533V7.355c0-0.216,0.045-0.42,0.127-0.606
			c-0.613,0.201-1.063,0.759-1.063,1.438v1.818c0,0.846,0.686,1.532,1.532,1.532c0.63,0,1.171-0.382,1.405-0.926
			C15.639,10.659,15.485,10.706,15.318,10.706z"/>
		<path style="fill:#6A6969;stroke:#221815;stroke-width:0.25;" d="M11.761,10.96c0,0.634,0.442,1.146,0.987,1.146l0,0
			c0.545,0,0.987-0.513,0.987-1.146V7.174c0-0.634-0.442-1.146-0.987-1.146l0,0c-0.545,0-0.987,0.513-0.987,1.146V10.96z"/>
		<path style="fill:#D4D4D5;" d="M13.527,11.224c-0.545,0-0.986-0.513-0.986-1.146V6.291c0-0.084,0.026-0.158,0.041-0.237
			c-0.489,0.068-0.873,0.533-0.873,1.12v3.786c0,0.634,0.441,1.146,0.987,1.146c0.474,0,0.85-0.394,0.946-0.91
			C13.604,11.201,13.568,11.224,13.527,11.224z"/>
		<linearGradient id="XMLID_4_" gradientUnits="userSpaceOnUse" x1="13.2148" y1="9.0684" x2="13.8389" y2="9.0684">
			<stop  offset="0" style="stop-color:#FFFFFF"/>
			<stop  offset="1" style="stop-color:#000000"/>
		</linearGradient>
		<path style="fill:url(#XMLID_4_);stroke:#221815;stroke-width:0.25;" d="M13.215,12.028c0,0.129,0.141,0.234,0.313,0.234l0,0
			c0.172,0,0.312-0.105,0.312-0.234v-5.92c0-0.129-0.14-0.234-0.312-0.234l0,0c-0.172,0-0.313,0.105-0.313,0.234V12.028z"/>
	</g>
</g>
<circle style="fill:#6A6969;stroke:#221815;stroke-width:0.25;" cx="7.007" cy="14.297" r="1.334"/>
<path style="fill:#D4D4D5;" d="M7.007,12.916c-0.11,0-0.208,0.037-0.311,0.063c0.433,0.221,0.738,0.659,0.738,1.178
	c0,0.626-0.44,1.128-1.023,1.271c0.181,0.092,0.378,0.156,0.596,0.156c0.737,0,1.334-0.598,1.334-1.334S7.744,12.916,7.007,12.916z"
	/>
</svg>
