<?xml version="1.0" encoding="iso-8859-1"?>
<!-- Generator: Adobe Illustrator 12.0.1, SVG Export Plug-In . SVG Version: 6.00 Build 51448)  -->
<!DOCTYPE svg PUBLIC "-//W3C//DTD SVG 1.1//EN" "http://www.w3.org/Graphics/SVG/1.1/DTD/svg11.dtd" [
	<!ENTITY ns_svg "http://www.w3.org/2000/svg">
	<!ENTITY ns_xlink "http://www.w3.org/1999/xlink">
]>
<svg  version="1.1" id="&#x56FE;&#x5C42;_1" xmlns="&ns_svg;" xmlns:xlink="&ns_xlink;" width="21" height="21.021"
	 viewBox="0 0 21 21.021" overflow="visible" enable-background="new 0 0 21 21.021" xml:space="preserve">
<g>
	<path fill="#F6AA32" stroke="#000000" stroke-width="0.5" d="M11.889,14.469h-3.27c-0.009-0.471-0.013-0.758-0.013-0.859
		c0-1.063,0.176-1.934,0.524-2.618c0.351-0.686,1.051-1.455,2.1-2.311c1.048-0.854,1.675-1.414,1.88-1.68
		c0.315-0.42,0.474-0.883,0.474-1.387c0-0.701-0.278-1.299-0.837-1.799c-0.559-0.498-1.31-0.748-2.253-0.748
		c-0.912,0-1.676,0.26-2.288,0.783C7.592,4.37,7.17,5.167,6.941,6.235L3.62,5.823c0.094-1.531,0.745-2.836,1.956-3.904
		c1.209-1.072,2.797-1.607,4.763-1.607c2.07,0,3.715,0.541,4.937,1.623c1.222,1.084,1.834,2.344,1.834,3.781
		c0,0.797-0.225,1.551-0.674,2.26c-0.45,0.709-1.408,1.676-2.881,2.9c-0.759,0.633-1.232,1.144-1.417,1.524
		C11.955,12.787,11.872,13.477,11.889,14.469z"/>
	<path opacity="0.37" fill="#A06800" d="M15.194,1.768C11.646-1.344,6.577,0.68,5.368,1.752C4.157,2.82,3.506,4.125,3.412,5.656
		l3.453,0.531C7.094,5.119,7.508,4.12,8.124,3.601c0.611-0.523,1.438-0.777,2.351-0.777c0.943,0,1.632,0.244,2.19,0.742
		c0.559,0.5,0.836,1.098,0.836,1.799c0,0.504-0.158,0.967-0.473,1.387c-0.205,0.266-0.832,0.826-1.881,1.68
		c-1.049,0.855-1.748,1.625-2.1,2.311c-0.349,0.684-0.524,1.556-0.524,2.618c0,0.102-0.01,0.525-0.002,0.996l0.688-0.031
		c-0.005-0.311,0-0.604,0-0.688c0-1.209,0.26-1.975,0.656-2.751c0.398-0.778,1.745-1.706,2.875-2.75
		c3.359-3.104,0.25-5.948-1.953-5.948c-2.985,0-4.004,1.859-4.266,3.073L4.474,4.969c0.299-0.949,0.734-1.82,1.561-2.55
		c1.209-1.072,2.797-1.607,4.764-1.607c1.384,0,2.467,0.479,3.395,1.048c1.672,1.203,2.016,2.306,2.016,3.703
		c0,0.797-0.285,1.65-0.734,2.359c-0.45,0.709-1.501,1.604-2.974,2.829c-0.759,0.633-1.107,1.103-1.292,1.483
		c-0.184,0.387-0.236,1.039-0.219,2.031l0.816,0.037c-0.017-0.992,0.066-1.682,0.25-2.068c0.184-0.381,0.657-0.893,1.417-1.525
		c1.473-1.225,2.431-2.191,2.881-2.9c0.449-0.709,0.674-1.463,0.674-2.26C17.028,4.111,16.422,2.845,15.194,1.768z"/>
	<circle fill="#F3BE49" stroke="#000000" stroke-width="0.5" cx="10.48" cy="18.58" r="2.191"/>
	<path opacity="0.23" fill="#695300" d="M11.297,16.576c0.118,0.27,0.187,0.566,0.187,0.879c0,1.211-0.981,2.191-2.191,2.191
		c-0.313,0-0.61-0.068-0.88-0.186c0.339,0.771,1.108,1.311,2.005,1.311c1.21,0,2.191-0.98,2.191-2.191
		C12.609,17.684,12.069,16.916,11.297,16.576z"/>
	<path opacity="0.28" fill="#695300" d="M11.701,16.977c0.215,0.338,0.346,0.734,0.346,1.166c0,1.211-0.981,2.191-2.191,2.191
		c-0.431,0-0.829-0.129-1.167-0.346c0.394,0.578,1.04,0.971,1.792,0.971c1.21,0,2.191-0.98,2.191-2.191
		C12.671,18.016,12.279,17.369,11.701,16.977z"/>
</g>
<rect opacity="0" fill="#FFFFFF" width="21" height="21"/>
</svg>
