<?xml version="1.0" encoding="iso-8859-1"?>
<!-- Generator: Adobe Illustrator 12.0.0, SVG Export Plug-In . SVG Version: 6.00 Build 51448)  -->
<!DOCTYPE svg PUBLIC "-//W3C//DTD SVG 1.1//EN" "http://www.w3.org/Graphics/SVG/1.1/DTD/svg11.dtd" [
	<!ENTITY ns_svg "http://www.w3.org/2000/svg">
	<!ENTITY ns_xlink "http://www.w3.org/1999/xlink">
]>
<svg  version="1.1" id="&#xCD;_xBC__xB2_&#xE3;_x5F_1" xmlns="&ns_svg;" xmlns:xlink="&ns_xlink;" width="29.051" height="25.042"
	 viewBox="0 0 29.051 25.042" style="overflow:visible;enable-background:new 0 0 29.051 25.042;" xml:space="preserve">
<g>
	<rect x="21.403" y="6.688" style="fill:#B12B2E;stroke:#382005;stroke-width:0.5;" width="3.188" height="5.123"/>
	<linearGradient id="XMLID_2_" gradientUnits="userSpaceOnUse" x1="1.0688" y1="12.02" x2="16.5269" y2="12.02">
		<stop  offset="0.1236" style="stop-color:#00A7BC"/>
		<stop  offset="0.1325" style="stop-color:#00A7BB"/>
		<stop  offset="0.2197" style="stop-color:#3DADB7"/>
		<stop  offset="0.2973" style="stop-color:#66B1B4"/>
		<stop  offset="0.3615" style="stop-color:#79B4B2"/>
		<stop  offset="0.4045" style="stop-color:#7FB5B1"/>
		<stop  offset="0.442" style="stop-color:#62B1B4"/>
		<stop  offset="0.4856" style="stop-color:#3DADB7"/>
		<stop  offset="0.5321" style="stop-color:#00AAB9"/>
		<stop  offset="0.5822" style="stop-color:#00A8BA"/>
		<stop  offset="0.6384" style="stop-color:#00A7BB"/>
		<stop  offset="0.7135" style="stop-color:#00A7BC"/>
	</linearGradient>
	<polygon style="fill:url(#XMLID_2_);stroke:#000000;" points="13.222,16.194 14.123,12.739 15.153,12.739 12.624,10.533 
		12.624,7.886 13.654,7.886 8.783,0.876 3.911,7.886 4.941,7.886 4.941,10.675 2.224,12.919 3.255,12.919 4.386,16.22 1.069,19.21 
		3.973,19.809 4.473,23.164 13.154,23.164 13.529,19.629 16.527,19.21 	"/>
	<polygon style="fill:#E5C9B8;stroke:#000000;" points="27.653,14.952 17.403,6.448 7.028,14.952 8.403,14.952 8.403,24.542 
		26.278,24.542 26.278,14.952 	"/>
	<rect x="23.34" y="6.822" style="fill:#772121;" width="1.188" height="5.078"/>
	<polygon style="fill:#B12B2E;stroke:#382005;stroke-width:0.5;" points="7.903,15.754 17.215,8.332 26.09,15.695 28.465,15.315 
		17.215,6.015 5.653,15.181 	"/>
	<rect x="16.965" y="18.281" style="fill:#BE2940;" width="3.75" height="5.842"/>
	<rect x="16.965" y="18.281" width="3.75" height="0.629"/>
	<rect x="19.778" y="18.282" width="0.875" height="5.841"/>
	<rect x="16.965" y="18.282" width="0.875" height="5.841"/>
	<polygon style="fill:#7F878D;" points="17.59,8.845 8.778,15.989 7.879,15.973 17.219,8.426 	"/>
	<polygon style="fill:#7F878D;" points="25.34,15.899 17.076,9.064 17.219,8.426 26.316,15.941 	"/>
</g>
</svg>
