<?xml version="1.0" encoding="UTF-8" standalone="no"?>
<!-- Created with Inkscape (http://www.inkscape.org/) -->
<svg
   xmlns:dc="http://purl.org/dc/elements/1.1/"
   xmlns:cc="http://web.resource.org/cc/"
   xmlns:rdf="http://www.w3.org/1999/02/22-rdf-syntax-ns#"
   xmlns:svg="http://www.w3.org/2000/svg"
   xmlns="http://www.w3.org/2000/svg"
   xmlns:sodipodi="http://sodipodi.sourceforge.net/DTD/sodipodi-0.dtd"
   xmlns:inkscape="http://www.inkscape.org/namespaces/inkscape"
   width="256"
   height="256"
   id="svg2"
   sodipodi:version="0.32"
   inkscape:version="0.44.1"
   version="1.0"
   sodipodi:docbase="/home/user"
   sodipodi:docname="im.svg">
  <defs
     id="defs4" />
  <sodipodi:namedview
     id="base"
     pagecolor="#ffffff"
     bordercolor="#666666"
     borderopacity="1.0"
     gridtolerance="10000"
     guidetolerance="10"
     objecttolerance="10"
     inkscape:pageopacity="0.0"
     inkscape:pageshadow="2"
     inkscape:zoom="3.3828125"
     inkscape:cx="128"
     inkscape:cy="128"
     inkscape:document-units="px"
     inkscape:current-layer="layer1"
     width="256px"
     height="256px"
     inkscape:window-width="1304"
     inkscape:window-height="1074"
     inkscape:window-x="288"
     inkscape:window-y="0" />
  <metadata
     id="metadata7">
    <rdf:RDF>
      <cc:Work
         rdf:about="">
        <dc:format>image/svg+xml</dc:format>
        <dc:type
           rdf:resource="http://purl.org/dc/dcmitype/StillImage" />
      </cc:Work>
    </rdf:RDF>
  </metadata>
  <g
     inkscape:label="Layer 1"
     inkscape:groupmode="layer"
     id="layer1">
    <path
       style="opacity:1;fill:white;fill-opacity:1;stroke:#a0bdf0;stroke-width:10.136;stroke-linejoin:round;stroke-miterlimit:4;stroke-dasharray:none;stroke-dashoffset:0;stroke-opacity:1"
       d="M 124.75,18.03125 C 60.131576,18.03125 7.6875002,58.878375 7.6875,109.21875 C 7.6875,148.16791 39.080816,181.43679 83.21875,194.5 L 83.0625,194.5 C 83.062497,194.5 75.088298,219.34926 39.614896,244.77194 C 25.731828,254.7215 133.05689,228.45117 140.46673,197.67487 C 203.00347,185.93954 241.8125,148.37282 241.8125,109.21875 C 241.8125,58.878377 189.36842,18.031249 124.75,18.03125 z "
       id="path1872"
       sodipodi:nodetypes="csccscsc" />
    <path
       style="opacity:1;fill:#c2cee9;fill-opacity:1;stroke:none;stroke-width:6.5;stroke-linejoin:round;stroke-miterlimit:4;stroke-dasharray:none;stroke-dashoffset:0;stroke-opacity:1"
       d="M 231.56708,106.42025 C 227.75762,171.66721 142.89558,200.66855 90.984941,170.19185 C 41.006637,147.68553 36.23925,69.774359 87.053463,45.55085 C 138.59081,13.436069 228.90289,37.302365 231.56708,106.42025 z "
       id="path2820" />
    <path
       sodipodi:type="arc"
       style="opacity:1;fill:white;fill-opacity:1;stroke:none;stroke-width:6.5;stroke-linejoin:round;stroke-miterlimit:4;stroke-dasharray:none;stroke-dashoffset:0;stroke-opacity:1"
       id="path3707"
       sodipodi:cx="137.60739"
       sodipodi:cy="114.25404"
       sodipodi:rx="88.535797"
       sodipodi:ry="63.704388"
       d="M 226.14319 114.25404 A 88.535797 63.704388 0 1 1  49.071594,114.25404 A 88.535797 63.704388 0 1 1  226.14319 114.25404 z"
       transform="matrix(1.012848,0,0,1.233633,-12.1144,-31.57103)" />
  </g>
</svg>
