<?xml version="1.0" encoding="iso-8859-1"?>
<!-- Generator: Adobe Illustrator 12.0.1, SVG Export Plug-In . SVG Version: 6.00 Build 51448)  -->
<!DOCTYPE svg PUBLIC "-//W3C//DTD SVG 1.1//EN" "http://www.w3.org/Graphics/SVG/1.1/DTD/svg11.dtd" [
	<!ENTITY ns_svg "http://www.w3.org/2000/svg">
	<!ENTITY ns_xlink "http://www.w3.org/1999/xlink">
]>
<svg  version="1.1" id="&#x56FE;&#x5C42;_1" xmlns="&ns_svg;" xmlns:xlink="&ns_xlink;" width="20.541" height="19.916"
	 viewBox="0 0 20.541 19.916" style="overflow:visible;enable-background:new 0 0 20.541 19.916;" xml:space="preserve">
<g>
	
		<linearGradient id="XMLID_4_" gradientUnits="userSpaceOnUse" x1="-2.6963" y1="13.0254" x2="24.3829" y2="13.0254" gradientTransform="matrix(0 -1 1 0 0.3125 20.2285)">
		<stop  offset="0" style="stop-color:#E0000B"/>
		<stop  offset="0.0864" style="stop-color:#E20A0B"/>
		<stop  offset="0.2342" style="stop-color:#E8250D"/>
		<stop  offset="0.4243" style="stop-color:#F2510F"/>
		<stop  offset="0.5112" style="stop-color:#F76810"/>
		<stop  offset="0.5295" style="stop-color:#F55D0F"/>
		<stop  offset="0.5945" style="stop-color:#ED3C0E"/>
		<stop  offset="0.6611" style="stop-color:#E7210D"/>
		<stop  offset="0.7292" style="stop-color:#E30F0C"/>
		<stop  offset="0.7997" style="stop-color:#E1040B"/>
		<stop  offset="0.8764" style="stop-color:#E0000B"/>
	</linearGradient>
	<path style="fill:url(#XMLID_4_);" d="M13.584,0c0,0,3.07,4.364,2.875,10.375c-0.183,5.618-2.75,9.541-2.75,9.541l-3.423-1.299
		c0,0,2.944-3.846,2.839-8.201c-0.147-6.168-2.916-8.541-2.916-8.541L13.584,0z"/>
	
		<linearGradient id="XMLID_5_" gradientUnits="userSpaceOnUse" x1="2.2705" y1="7.792" x2="17.4785" y2="7.792" gradientTransform="matrix(0 -1 1 0 0.3125 20.2285)">
		<stop  offset="0" style="stop-color:#E0000B"/>
		<stop  offset="0.0864" style="stop-color:#E20A0B"/>
		<stop  offset="0.2342" style="stop-color:#E8250D"/>
		<stop  offset="0.4243" style="stop-color:#F2510F"/>
		<stop  offset="0.5112" style="stop-color:#F76810"/>
		<stop  offset="0.5295" style="stop-color:#F55D0F"/>
		<stop  offset="0.5945" style="stop-color:#ED3C0E"/>
		<stop  offset="0.6611" style="stop-color:#E7210D"/>
		<stop  offset="0.7292" style="stop-color:#E30F0C"/>
		<stop  offset="0.7997" style="stop-color:#E1040B"/>
		<stop  offset="0.8764" style="stop-color:#E0000B"/>
	</linearGradient>
	<path style="fill:url(#XMLID_5_);" d="M8.666,2.75c0,0,2.412,3.631,2.376,7.708c-0.037,4.026-2.333,7.5-2.333,7.5l-3.542-1.125
		c0,0,2.373-3.234,2.249-6.321C7.248,6.316,5.334,4.125,5.334,4.125L8.666,2.75z"/>
	
		<linearGradient id="XMLID_6_" gradientUnits="userSpaceOnUse" x1="4.1875" y1="2.0625" x2="15.2285" y2="2.0625" gradientTransform="matrix(0 -1 1 0 0.3125 20.2285)">
		<stop  offset="0" style="stop-color:#E0000B"/>
		<stop  offset="0.0864" style="stop-color:#E20A0B"/>
		<stop  offset="0.2342" style="stop-color:#E8250D"/>
		<stop  offset="0.4243" style="stop-color:#F2510F"/>
		<stop  offset="0.5112" style="stop-color:#F76810"/>
		<stop  offset="0.5295" style="stop-color:#F55D0F"/>
		<stop  offset="0.5945" style="stop-color:#ED3C0E"/>
		<stop  offset="0.6611" style="stop-color:#E7210D"/>
		<stop  offset="0.7292" style="stop-color:#E30F0C"/>
		<stop  offset="0.7997" style="stop-color:#E1040B"/>
		<stop  offset="0.8764" style="stop-color:#E0000B"/>
	</linearGradient>
	<path style="fill:url(#XMLID_6_);" d="M3.209,5c0,0,1.572,2.671,1.541,5.624c-0.031,2.917-1.584,5.417-1.584,5.417l-3.082-0.875
		c0,0,1.736-2.21,1.635-4.458C1.58,7.655,0,6.25,0,6.25L3.209,5z"/>
	<polygon style="fill:#020202;" points="18.86,9.251 17.298,9.251 17.298,11.431 18.86,11.431 18.86,13.203 20.541,13.203 
		20.541,7.478 18.86,7.478 	"/>
</g>
</svg>
