<?xml version="1.0" encoding="iso-8859-1"?>
<!-- Generator: Adobe Illustrator 12.0.1, SVG Export Plug-In . SVG Version: 6.00 Build 51448)  -->
<!DOCTYPE svg PUBLIC "-//W3C//DTD SVG 1.1//EN" "http://www.w3.org/Graphics/SVG/1.1/DTD/svg11.dtd" [
	<!ENTITY ns_svg "http://www.w3.org/2000/svg">
	<!ENTITY ns_xlink "http://www.w3.org/1999/xlink">
]>
<svg  version="1.1" id="&#x56FE;&#x5C42;_1" xmlns="&ns_svg;" xmlns:xlink="&ns_xlink;" width="20.375" height="20.374"
	 viewBox="0 0 20.375 20.374" style="overflow:visible;enable-background:new 0 0 20.375 20.374;" xml:space="preserve">
<g>
	<g style="opacity:0.51;">
		<rect x="1.667" y="1.667" width="18.458" height="18.457"/>
		
			<rect x="1.667" y="1.667" style="fill:none;stroke:#000000;stroke-width:0.5;stroke-linejoin:round;" width="18.458" height="18.457"/>
	</g>
	<g>
		<linearGradient id="XMLID_2_" gradientUnits="userSpaceOnUse" x1="9.479" y1="2.6963" x2="9.479" y2="18.9061">
			<stop  offset="0" style="stop-color:#BCB8BC"/>
			<stop  offset="1" style="stop-color:#E0E0E0"/>
		</linearGradient>
		<rect x="0.25" y="0.25" style="fill:url(#XMLID_2_);" width="18.458" height="18.457"/>
		
			<rect x="0.25" y="0.25" style="fill:none;stroke:#000000;stroke-width:0.5;stroke-linejoin:round;" width="18.458" height="18.457"/>
	</g>
</g>
<rect x="0.482" y="0.521" style="fill:#D1D1D1;" width="17.993" height="1.469"/>
<rect x="0.507" y="17.059" style="fill:#9D9D9D;" width="17.944" height="1.391"/>
<rect x="2.117" y="3.947" width="2.938" height="1.306"/>
<rect x="2.117" y="6.885" width="2.938" height="1.306"/>
<rect x="2.117" y="10.148" width="2.938" height="1.306"/>
<rect x="2.117" y="13.086" width="2.938" height="1.306"/>
<rect x="9.243" y="3.947" width="7.344" height="1.306"/>
<rect x="9.243" y="6.885" width="7.344" height="1.306"/>
<rect x="9.243" y="10.148" width="7.344" height="1.306"/>
<rect x="6.333" y="2.042" width="1.306" height="15.017"/>
<rect x="9.243" y="13.086" width="7.344" height="1.306"/>
</svg>
