<?xml version="1.0" encoding="iso-8859-1"?>
<!-- Generator: Adobe Illustrator 12.0.1, SVG Export Plug-In . SVG Version: 6.00 Build 51448)  -->
<!DOCTYPE svg PUBLIC "-//W3C//DTD SVG 1.1//EN" "http://www.w3.org/Graphics/SVG/1.1/DTD/svg11.dtd" [
	<!ENTITY ns_svg "http://www.w3.org/2000/svg">
	<!ENTITY ns_xlink "http://www.w3.org/1999/xlink">
]>
<svg  version="1.1" id="&#x56FE;&#x5C42;_1" xmlns="&ns_svg;" xmlns:xlink="&ns_xlink;" width="21.044" height="17.199"
	 viewBox="0 0 21.044 17.199" style="overflow:visible;enable-background:new 0 0 21.044 17.199;" xml:space="preserve">
<g>
	<linearGradient id="XMLID_2_" gradientUnits="userSpaceOnUse" x1="0.25" y1="8.5996" x2="17.8232" y2="8.5996">
		<stop  offset="0.0056" style="stop-color:#919191"/>
		<stop  offset="0.3181" style="stop-color:#C1C1C1"/>
		<stop  offset="0.382" style="stop-color:#CCCCCC"/>
		<stop  offset="0.5296" style="stop-color:#C5C5C5"/>
		<stop  offset="0.7518" style="stop-color:#B0B0B0"/>
		<stop  offset="1" style="stop-color:#919191"/>
	</linearGradient>
	<path style="fill:url(#XMLID_2_);stroke:#000000;stroke-width:0.5;stroke-linejoin:round;" d="M15.633,0.25H5.206
		C2.653,0.24,0.747,2.412,0.352,6.02c0,0-0.767,6.397,1.9,6.647c3.476,0.326-0.771-8.958,4.936-9.113h6.462
		c1.767,0,3.199,1.197,3.199,2.674v0.39c0,1.426-1.338,2.58-3.018,2.659l-0.104-4.56L4.58,11.02l9.427,5.93l-0.1-4.352h1.726
		c2.85,0,5.161-2.577,5.161-5.754V6.004C20.794,2.826,18.483,0.25,15.633,0.25z"/>
	<path style="opacity:0.56;fill:#636363;" d="M0.893,5.933c0,0,0.067-3.557,1.802-4.995C1.08,1.911,0.414,3.847,0.414,6.037
		c0,0-0.963,6.243,1.88,6.422c0.933,0.059,1.125-0.813,1.375-1.813c-0.158,0.048-0.234,1.037-1.125,1.083
		C0.56,11.834,0.893,8.681,0.893,5.933z M13.588,3.554c1.767,0,3.199,1.197,3.199,2.674v0.391c0,0.504,0.08,1.095-0.211,1.496
		c0.942-0.462,1.781-4.625-2.375-5.219L7.606,2.833c-1.264,0-2.742,1.011-3.063,1.646c0.303-0.095,1.328-1.021,2.75-1.115
		L13.588,3.554z"/>
	<path style="opacity:0.56;fill:#636363;" d="M19.791,2.826c0.055,0.336,0.446,1.941,0.446,2.294v0.839
		c0,3.177-2.311,5.754-5.16,5.754h-2.298l0.125,3.709l-7.638-4.811l-0.793,0.466l9.427,5.93l-0.1-4.353h1.727
		c2.85,0,5.16-2.577,5.16-5.754V6.063C20.685,4.862,20.354,3.748,19.791,2.826z"/>
</g>
</svg>
