<?xml version="1.0" encoding="iso-8859-1"?>
<!-- Generator: Adobe Illustrator 12.0.1, SVG Export Plug-In . SVG Version: 6.00 Build 51448)  -->
<!DOCTYPE svg PUBLIC "-//W3C//DTD SVG 1.1//EN" "http://www.w3.org/Graphics/SVG/1.1/DTD/svg11.dtd" [
	<!ENTITY ns_svg "http://www.w3.org/2000/svg">
	<!ENTITY ns_xlink "http://www.w3.org/1999/xlink">
]>
<svg  version="1.1" id="&#x56FE;&#x5C42;_1" xmlns="&ns_svg;" xmlns:xlink="&ns_xlink;" width="20.553" height="21.766"
	 viewBox="0 0 20.553 21.766" style="overflow:visible;enable-background:new 0 0 20.553 21.766;" xml:space="preserve">
<g>
	<rect x="0.5" y="0.514" style="fill:#FFFFFF;stroke:#000000;" width="19.553" height="20.711"/>
	<linearGradient id="XMLID_2_" gradientUnits="userSpaceOnUse" x1="10.2754" y1="19.9629" x2="10.2754" y2="1.3067">
		<stop  offset="0" style="stop-color:#E5E3DE"/>
		<stop  offset="0.1937" style="stop-color:#D5D4D2"/>
		<stop  offset="0.3596" style="stop-color:#CCCCCC"/>
		<stop  offset="0.882" style="stop-color:#FFFFFF"/>
	</linearGradient>
	<rect x="0.831" style="fill:url(#XMLID_2_);" width="18.889" height="21.73"/>
	<rect x="5.66" y="1.474" style="fill:#DEDEDE;stroke:#616161;" width="10.063" height="5.125"/>
	<polygon style="fill:#A6A6A6;" points="6.149,1.953 6.129,2.661 14.598,2.661 14.65,6.141 15.213,6.099 15.233,1.974 	"/>
	<rect x="5.66" y="9.849" style="fill:#DEDEDE;stroke:#616161;" width="10.063" height="5.25"/>
	<polyline style="fill:#DEDEDE;stroke:#616161;" points="5.66,21.724 5.66,18.411 15.723,18.411 15.723,21.724 	"/>
	<polygon style="fill:#A6A6A6;" points="6.149,10.328 6.129,11.057 14.598,11.057 14.65,14.641 15.213,14.597 15.233,10.349 	"/>
	<polygon style="fill:#A6A6A6;" points="6.149,18.869 6.129,19.577 14.598,19.577 14.692,21.766 15.255,21.723 15.233,18.89 	"/>
	<rect x="2.238" y="0.87" width="1.25" height="1.25"/>
	<rect x="2.238" y="3.307" width="1.25" height="1.25"/>
	<rect x="2.238" y="5.744" width="1.25" height="1.25"/>
	<rect x="2.238" y="8.265" width="1.25" height="1.25"/>
	<rect x="2.238" y="10.765" width="1.25" height="1.25"/>
	<rect x="2.238" y="13.306" width="1.25" height="1.25"/>
	<rect x="2.238" y="15.807" width="1.25" height="1.25"/>
	<rect x="2.238" y="18.308" width="1.25" height="1.25"/>
	<rect x="2.238" y="20.827" width="1.25" height="0.896"/>
	<rect x="17.607" y="0.87" width="1.251" height="1.25"/>
	<rect x="17.607" y="3.307" width="1.251" height="1.25"/>
	<rect x="17.607" y="5.744" width="1.251" height="1.25"/>
	<rect x="17.607" y="8.265" width="1.251" height="1.25"/>
	<rect x="17.607" y="10.765" width="1.251" height="1.25"/>
	<rect x="17.607" y="13.306" width="1.251" height="1.25"/>
	<rect x="17.607" y="15.807" width="1.251" height="1.25"/>
	<rect x="17.607" y="18.308" width="1.251" height="1.25"/>
	<rect x="17.607" y="20.827" width="1.251" height="0.896"/>
</g>
</svg>
