<?xml version="1.0" encoding="iso-8859-1"?>
<!-- Generator: Adobe Illustrator 12.0.1, SVG Export Plug-In . SVG Version: 6.00 Build 51448)  -->
<!DOCTYPE svg PUBLIC "-//W3C//DTD SVG 1.1//EN" "http://www.w3.org/Graphics/SVG/1.1/DTD/svg11.dtd" [
	<!ENTITY ns_svg "http://www.w3.org/2000/svg">
	<!ENTITY ns_xlink "http://www.w3.org/1999/xlink">
]>
<svg  version="1.1" id="&#x56FE;&#x5C42;_1" xmlns="&ns_svg;" xmlns:xlink="&ns_xlink;" width="19.73" height="19.834"
	 viewBox="0 0 19.73 19.834" style="overflow:visible;enable-background:new 0 0 19.73 19.834;" xml:space="preserve">
<g>
	<g>
		<linearGradient id="XMLID_2_" gradientUnits="userSpaceOnUse" x1="9.8652" y1="19.5024" x2="9.8652" y2="-0.0811">
			<stop  offset="0.3258" style="stop-color:#FFF7F7"/>
			<stop  offset="1" style="stop-color:#B8B8AF"/>
		</linearGradient>
		<rect x="0.5" y="0.5" style="fill:url(#XMLID_2_);stroke:#000000;" width="18.73" height="18.834"/>
		<rect x="1.032" y="1.003" style="fill:#6C6CDA;" width="17.759" height="3.5"/>
		<rect x="1.045" y="2.835" style="fill:#6C6CDA;" width="17.756" height="1.666"/>
		<polygon style="fill:#BFBFBF;" points="18.01,1.001 17.934,17.752 0.949,17.784 0.949,19.002 19.153,19.168 19.229,1.001 		"/>
	</g>
	<rect x="1.012" y="0.981" style="opacity:0.46;fill:#FFFFFF;" width="0.896" height="17.854"/>
</g>
<g>
	<rect x="3.115" y="5.69" width="1.375" height="1.375"/>
	<rect x="6.053" y="5.69" width="1.375" height="1.375"/>
	<rect x="9.178" y="5.69" width="1.375" height="1.375"/>
	<rect x="12.115" y="5.69" width="1.375" height="1.375"/>
	<rect x="15.24" y="5.69" width="1.375" height="1.375"/>
	<rect x="3.115" y="9.065" width="1.375" height="1.375"/>
	<rect x="6.053" y="9.065" width="1.375" height="1.375"/>
	<rect x="9.178" y="9.065" width="1.375" height="1.375"/>
	<rect x="12.115" y="9.065" width="1.375" height="1.375"/>
	<rect x="15.24" y="9.065" width="1.375" height="1.375"/>
	<rect x="3.115" y="12.065" width="1.375" height="1.375"/>
	<rect x="6.053" y="12.065" width="1.375" height="1.375"/>
	<rect x="9.178" y="12.065" width="1.375" height="1.375"/>
	<rect x="12.115" y="12.065" width="1.375" height="1.375"/>
	<rect x="15.24" y="12.065" width="1.375" height="1.375"/>
	<rect x="3.115" y="15.19" width="1.375" height="1.375"/>
	<rect x="6.053" y="15.19" width="1.375" height="1.375"/>
	<rect x="9.178" y="15.19" width="1.375" height="1.375"/>
	<rect x="12.115" y="15.19" width="1.375" height="1.375"/>
	<rect x="15.24" y="15.19" width="1.375" height="1.375"/>
</g>
</svg>
