<?xml version="1.0" encoding="iso-8859-1"?>
<!-- Generator: Adobe Illustrator 12.0.0, SVG Export Plug-In . SVG Version: 6.00 Build 51448)  -->
<!DOCTYPE svg PUBLIC "-//W3C//DTD SVG 1.1//EN" "http://www.w3.org/Graphics/SVG/1.1/DTD/svg11.dtd" [
	<!ENTITY ns_svg "http://www.w3.org/2000/svg">
	<!ENTITY ns_xlink "http://www.w3.org/1999/xlink">
]>
<svg  version="1.1" id="&#xCD;_xBC__xB2_&#xE3;_x5F_1" xmlns="&ns_svg;" xmlns:xlink="&ns_xlink;" width="31.5" height="30.124"
	 viewBox="0 0 31.5 30.124" style="overflow:visible;enable-background:new 0 0 31.5 30.124;" xml:space="preserve">
<g>
	<linearGradient id="XMLID_3_" gradientUnits="userSpaceOnUse" x1="5.5703" y1="5.2666" x2="29.119" y2="27.9477">
		<stop  offset="0" style="stop-color:#EA362E"/>
		<stop  offset="0.0278" style="stop-color:#D5362E"/>
		<stop  offset="0.0768" style="stop-color:#BC382D"/>
		<stop  offset="0.1295" style="stop-color:#AC382C"/>
		<stop  offset="0.1881" style="stop-color:#A2382C"/>
		<stop  offset="0.264" style="stop-color:#A0382C"/>
		<stop  offset="0.3042" style="stop-color:#A13B2C"/>
		<stop  offset="0.7604" style="stop-color:#B3602F"/>
		<stop  offset="0.9888" style="stop-color:#BB6D2F"/>
	</linearGradient>
	<rect x="0.302" y="0.25" style="fill:url(#XMLID_3_);stroke:#253231;stroke-width:0.25;" width="15.5" height="14.813"/>
	<rect x="15.677" y="0.25" style="fill:#2C449C;stroke:#253231;stroke-width:0.25;" width="15.5" height="14.813"/>
	<rect x="0.302" y="15.063" style="fill:#74BF45;stroke:#253231;stroke-width:0.25;" width="15.5" height="14.811"/>
	<linearGradient id="XMLID_4_" gradientUnits="userSpaceOnUse" x1="19.6973" y1="17.9204" x2="26.5307" y2="26.2538">
		<stop  offset="0.0056" style="stop-color:#8AD7F8"/>
		<stop  offset="0.0129" style="stop-color:#89D0EE"/>
		<stop  offset="0.0525" style="stop-color:#87B7CD"/>
		<stop  offset="0.0971" style="stop-color:#7D9DAC"/>
		<stop  offset="0.1451" style="stop-color:#708590"/>
		<stop  offset="0.1974" style="stop-color:#627078"/>
		<stop  offset="0.2551" style="stop-color:#545C62"/>
		<stop  offset="0.3202" style="stop-color:#45494E"/>
		<stop  offset="0.3963" style="stop-color:#343638"/>
		<stop  offset="0.4904" style="stop-color:#1E1F20"/>
		<stop  offset="0.6224" style="stop-color:#080808"/>
		<stop  offset="0.9888" style="stop-color:#000000"/>
	</linearGradient>
	<rect x="15.677" y="15.063" style="fill:url(#XMLID_4_);stroke:#253231;stroke-width:0.25;" width="15.5" height="14.811"/>
	<rect x="0.302" y="0.25" style="fill:none;stroke:#262627;stroke-width:0.5;" width="30.875" height="29.624"/>
	<ellipse style="fill:#F7FAFC;stroke:#262627;stroke-width:0.25;" cx="15.739" cy="15.063" rx="13.347" ry="13.463"/>
	<rect x="0.125" y="15.094" style="fill:none;stroke:#262627;stroke-width:0.25;" width="31.25" height="14.625"/>
	<polygon style="fill:none;stroke:#262627;stroke-width:0.25;" points="0.313,29.782 0.313,0.156 14.938,0.156 15.5,29.594 	"/>
	<g>
		<g style="opacity:0.43;">
			<ellipse cx="16.306" cy="15.63" rx="10.847" ry="10.441"/>
			<ellipse style="fill:none;stroke:#000000;stroke-width:0.25;" cx="16.306" cy="15.63" rx="10.847" ry="10.441"/>
		</g>
		<g>
			<ellipse style="fill:#FFFFFF;" cx="15.739" cy="15.063" rx="10.847" ry="10.441"/>
			<ellipse style="fill:none;stroke:#262627;stroke-width:0.25;" cx="15.739" cy="15.063" rx="10.847" ry="10.441"/>
		</g>
	</g>
	<g>
		<path style="fill:#8FA3A7;" d="M14.978,20.809v-2.625h-4.406v-2.18l4.671-8.274h1.735v8.266h1.328v2.188h-1.328v2.625H14.978z
			 M14.978,15.997v-4.441l-2.471,4.441H14.978z"/>
	</g>
	<g>
		<path d="M15.603,19.981v-2.625h-4.406v-2.179l4.671-8.274h1.735v8.266h1.328v2.188h-1.328v2.625H15.603z M15.603,15.168v-4.441
			l-2.471,4.441H15.603z"/>
	</g>
	<polygon style="opacity:0.77;fill:#FAFAFB;" points="1.896,1.9 29.385,1.913 30.969,0.351 0.302,0.351 0.302,29.874 1.969,28.362 	
		"/>
	<polygon style="opacity:0.74;fill:#FFFFFF;" points="27.739,0.176 15.052,0.176 15.052,14.985 	"/>
</g>
</svg>
