<?xml version="1.0" encoding="iso-8859-1"?>
<!-- Generator: Adobe Illustrator 12.0.1, SVG Export Plug-In . SVG Version: 6.00 Build 51448)  -->
<!DOCTYPE svg PUBLIC "-//W3C//DTD SVG 1.1//EN" "http://www.w3.org/Graphics/SVG/1.1/DTD/svg11.dtd" [
	<!ENTITY ns_svg "http://www.w3.org/2000/svg">
	<!ENTITY ns_xlink "http://www.w3.org/1999/xlink">
]>
<svg  version="1.1" id="&#x56FE;&#x5C42;_1" xmlns="&ns_svg;" xmlns:xlink="&ns_xlink;" width="21.735" height="19.25"
	 viewBox="0 0 21.735 19.25" style="overflow:visible;enable-background:new 0 0 21.735 19.25;" xml:space="preserve">
<g>
	<g>
		<g style="opacity:0.46;">
			<polygon points="6.149,7.792 1.667,7.792 1.667,12.976 6.149,12.976 11.568,18.628 11.568,2.047 			"/>
			<polygon style="fill:none;stroke:#000000;stroke-width:0.5;" points="6.149,7.792 1.667,7.792 1.667,12.976 6.149,12.976 
				11.568,18.628 11.568,2.047 			"/>
		</g>
		<g>
			<linearGradient id="XMLID_5_" gradientUnits="userSpaceOnUse" x1="5.2002" y1="3.8091" x2="5.2002" y2="16.7571">
				<stop  offset="0.0843" style="stop-color:#B8B8B8"/>
				<stop  offset="0.3371" style="stop-color:#E3E3E3"/>
				<stop  offset="0.6365" style="stop-color:#95949A"/>
				<stop  offset="0.8764" style="stop-color:#5A5864"/>
			</linearGradient>
			<polygon style="fill:url(#XMLID_5_);" points="4.732,6.375 0.25,6.375 0.25,11.559 4.732,11.559 10.151,17.211 10.151,0.629 			
				"/>
			<polygon style="fill:none;stroke:#000000;stroke-width:0.5;" points="4.732,6.375 0.25,6.375 0.25,11.559 4.732,11.559 
				10.151,17.211 10.151,0.629 			"/>
		</g>
	</g>
	<g>
		<g style="opacity:0.46;">
			<polygon points="21.363,13.975 18.846,11.437 21.382,8.92 19.298,6.819 16.763,9.337 14.245,6.799 12.146,8.883 14.663,11.42 
				12.124,13.938 14.208,16.039 16.746,13.52 19.263,16.058 			"/>
			<polygon style="fill:none;stroke:#000000;stroke-width:0.5;" points="21.363,13.975 18.846,11.437 21.382,8.92 19.298,6.819 
				16.763,9.337 14.245,6.799 12.146,8.883 14.663,11.42 12.124,13.938 14.208,16.039 16.746,13.52 19.263,16.058 			"/>
		</g>
		<g>
			<polygon style="fill:#FFFFFF;" points="19.946,12.558 17.429,10.02 19.965,7.503 17.881,5.402 15.346,7.92 12.828,5.382 
				10.729,7.466 13.246,10.003 10.707,12.521 12.791,14.622 15.329,12.103 17.846,14.641 			"/>
			<polygon style="fill:none;stroke:#000000;stroke-width:0.5;" points="19.946,12.558 17.429,10.02 19.965,7.503 17.881,5.402 
				15.346,7.92 12.828,5.382 10.729,7.466 13.246,10.003 10.707,12.521 12.791,14.622 15.329,12.103 17.846,14.641 			"/>
		</g>
	</g>
	<polygon style="fill:#D1D3D4;" points="18.368,13.813 15.32,11.15 12.383,13.879 12.85,14.356 15.319,12.008 17.79,14.409 	"/>
	<polygon style="fill:#D1D3D4;" points="18.332,6.176 15.285,8.943 12.289,6.141 12.815,5.633 15.285,7.98 17.755,5.58 	"/>
	<polygon style="fill:#D1D3D4;" points="19.199,13.016 16.432,9.968 19.234,6.973 19.743,7.498 17.396,9.968 19.796,12.438 	"/>
	<polygon style="fill:#D1D3D4;" points="11.383,12.879 14.26,9.968 11.458,6.973 10.949,7.498 13.297,9.968 10.896,12.438 	"/>
	<linearGradient id="XMLID_6_" gradientUnits="userSpaceOnUse" x1="7.3311" y1="3.6582" x2="7.3311" y2="7.6558">
		<stop  offset="0.0056" style="stop-color:#FFFFFF"/>
		<stop  offset="0.6573" style="stop-color:#D9D9D9"/>
	</linearGradient>
	<polygon style="fill:url(#XMLID_6_);" points="9.883,7.358 4.737,7.337 9.925,1.858 	"/>
</g>
</svg>
