<?xml version="1.0" encoding="iso-8859-1"?>
<!-- Generator: Adobe Illustrator 12.0.1, SVG Export Plug-In . SVG Version: 6.00 Build 51448)  -->
<!DOCTYPE svg PUBLIC "-//W3C//DTD SVG 1.1//EN" "http://www.w3.org/Graphics/SVG/1.1/DTD/svg11.dtd" [
	<!ENTITY ns_svg "http://www.w3.org/2000/svg">
	<!ENTITY ns_xlink "http://www.w3.org/1999/xlink">
]>
<svg  version="1.1" id="&#x56FE;&#x5C42;_1" xmlns="&ns_svg;" xmlns:xlink="&ns_xlink;" width="21.188" height="21.625"
	 viewBox="0 0 21.188 21.625" style="overflow:visible;enable-background:new 0 0 21.188 21.625;" xml:space="preserve">
<g>
	<g>
		<linearGradient id="XMLID_4_" gradientUnits="userSpaceOnUse" x1="12.6875" y1="20.4976" x2="12.6875" y2="3.2472">
			<stop  offset="0" style="stop-color:#FFFFFF"/>
			<stop  offset="0.3942" style="stop-color:#D3D4D4"/>
			<stop  offset="0.7201" style="stop-color:#B5B7B8"/>
			<stop  offset="0.9045" style="stop-color:#AAACAD"/>
		</linearGradient>
		<polygon style="fill:url(#XMLID_4_);stroke:#000000;" points="14.51,0.5 4.688,0.5 4.688,21.125 20.688,21.125 20.688,6.228 		"/>
		<linearGradient id="XMLID_5_" gradientUnits="userSpaceOnUse" x1="20.0313" y1="20.979" x2="20.0313" y2="8.3802">
			<stop  offset="0" style="stop-color:#FFFFFF"/>
			<stop  offset="0.3942" style="stop-color:#D3D4D4"/>
			<stop  offset="0.7201" style="stop-color:#B5B7B8"/>
			<stop  offset="0.9045" style="stop-color:#AAACAD"/>
		</linearGradient>
		<polygon style="fill:url(#XMLID_5_);" points="20.688,6.421 19.375,6.375 19.375,21.438 20.688,21.438 		"/>
		<rect x="5.184" y="0.999" style="fill:#E0E2E1;" width="9.213" height="0.75"/>
		<linearGradient id="XMLID_6_" gradientUnits="userSpaceOnUse" x1="14.1904" y1="6.731" x2="17.0967" y2="3.8247">
			<stop  offset="0" style="stop-color:#FFFFFF"/>
			<stop  offset="0.2251" style="stop-color:#FBFBFB"/>
			<stop  offset="0.4391" style="stop-color:#F0F0F0"/>
			<stop  offset="0.6486" style="stop-color:#DDDDDE"/>
			<stop  offset="0.8541" style="stop-color:#C2C3C4"/>
			<stop  offset="1" style="stop-color:#AAACAD"/>
		</linearGradient>
		<polygon style="fill:url(#XMLID_6_);stroke:#757575;stroke-width:0.75;" points="19.894,6.622 14.081,1.246 14.062,6.602 		"/>
	</g>
	<polygon style="fill:#00FF00;stroke:#0A0000;stroke-width:0.5;" points="9.063,14.134 5.875,14.134 5.875,10.947 3.438,10.947 
		3.438,14.134 0.25,14.134 0.25,16.572 3.438,16.572 3.438,19.759 5.875,19.759 5.875,16.572 9.063,16.572 	"/>
</g>
</svg>
