<?xml version="1.0" encoding="iso-8859-1"?>
<!-- Generator: Adobe Illustrator 12.0.1, SVG Export Plug-In . SVG Version: 6.00 Build 51448)  -->
<!DOCTYPE svg PUBLIC "-//W3C//DTD SVG 1.1//EN" "http://www.w3.org/Graphics/SVG/1.1/DTD/svg11.dtd" [
	<!ENTITY ns_svg "http://www.w3.org/2000/svg">
	<!ENTITY ns_xlink "http://www.w3.org/1999/xlink">
]>
<svg  version="1.1" id="&#x56FE;&#x5C42;_1" xmlns="&ns_svg;" xmlns:xlink="&ns_xlink;" width="19.118" height="21.556"
	 viewBox="0 0 19.118 21.556" style="overflow:visible;enable-background:new 0 0 19.118 21.556;" xml:space="preserve">
<rect x="0.786" y="17.24" style="fill:#453423;" width="12.413" height="1.389"/>
<g>
	<g>
		<linearGradient id="XMLID_5_" gradientUnits="userSpaceOnUse" x1="6.6499" y1="3.374" x2="6.6499" y2="0.25">
			<stop  offset="0" style="stop-color:#C9CA88"/>
			<stop  offset="0.1929" style="stop-color:#CBCC8B"/>
			<stop  offset="0.3478" style="stop-color:#D1D295"/>
			<stop  offset="0.4895" style="stop-color:#DBDCA6"/>
			<stop  offset="0.6233" style="stop-color:#EAEABE"/>
			<stop  offset="0.7505" style="stop-color:#FDFDDC"/>
			<stop  offset="0.764" style="stop-color:#FFFFE0"/>
		</linearGradient>
		<polygon style="fill:url(#XMLID_5_);stroke:#000000;stroke-width:0.5;stroke-linecap:square;stroke-linejoin:round;" points="
			12.302,3.374 0.998,3.374 4.292,0.25 9.462,0.25 		"/>
		<rect x="4.212" y="1.502" style="fill:#585846;" width="4.875" height="1.188"/>
	</g>
	<g>
		<linearGradient id="XMLID_6_" gradientUnits="userSpaceOnUse" x1="6.7944" y1="18.8652" x2="6.7944" y2="1.9781">
			<stop  offset="0" style="stop-color:#C9A665"/>
			<stop  offset="0.5141" style="stop-color:#926C4C"/>
			<stop  offset="0.7809" style="stop-color:#7A5341"/>
		</linearGradient>
		<rect x="0.5" y="3.175" style="fill:url(#XMLID_6_);stroke:#000000;stroke-linecap:square;" width="12.588" height="15.512"/>
		<polygon style="opacity:0.46;fill:#836242;" points="1.687,4.534 12.798,4.534 12.798,3.06 0.211,3.06 0.211,18.571 1.687,18.571 
					"/>
	</g>
</g>
<g>
	<linearGradient id="XMLID_7_" gradientUnits="userSpaceOnUse" x1="13.5225" y1="20.6621" x2="13.5225" y2="9.8635">
		<stop  offset="0" style="stop-color:#FFFFFF"/>
		<stop  offset="0.3942" style="stop-color:#D3D4D4"/>
		<stop  offset="0.7201" style="stop-color:#B5B7B8"/>
		<stop  offset="0.9045" style="stop-color:#AAACAD"/>
	</linearGradient>
	<polygon style="fill:url(#XMLID_7_);stroke:#000000;" points="14.663,8.145 8.515,8.145 8.515,21.056 18.53,21.056 18.53,11.731 	
		"/>
	<rect x="8.995" y="8.457" style="fill:#E0E2E1;" width="5.596" height="0.47"/>
	<linearGradient id="XMLID_8_" gradientUnits="userSpaceOnUse" x1="13.4482" y1="20.2051" x2="13.4482" y2="9.9014">
		<stop  offset="0" style="stop-color:#FFFFFF"/>
		<stop  offset="0.3942" style="stop-color:#D3D4D4"/>
		<stop  offset="0.7201" style="stop-color:#B5B7B8"/>
		<stop  offset="0.9045" style="stop-color:#AAACAD"/>
	</linearGradient>
	<polygon style="fill:url(#XMLID_8_);" points="17.709,11.822 17.709,20.006 9.609,19.947 9.609,8.302 8.788,8.261 9.03,20.58 
		18.108,20.58 18.03,11.83 	"/>
	<polygon style="fill:#FFFFFF;stroke:#757575;stroke-width:0.75;" points="18.167,11.97 14.501,8.579 14.53,11.992 	"/>
</g>
</svg>
