<?xml version="1.0" encoding="iso-8859-1"?>
<!-- Generator: Adobe Illustrator 12.0.1, SVG Export Plug-In . SVG Version: 6.00 Build 51448)  -->
<!DOCTYPE svg PUBLIC "-//W3C//DTD SVG 1.1//EN" "http://www.w3.org/Graphics/SVG/1.1/DTD/svg11.dtd" [
	<!ENTITY ns_svg "http://www.w3.org/2000/svg">
	<!ENTITY ns_xlink "http://www.w3.org/1999/xlink">
]>
<svg  version="1.1" id="&#x56FE;&#x5C42;_1" xmlns="&ns_svg;" xmlns:xlink="&ns_xlink;" width="18.229" height="20.75"
	 viewBox="0 0 18.229 20.75" style="overflow:visible;enable-background:new 0 0 18.229 20.75;" xml:space="preserve">
<g>
	<g>
		<linearGradient id="XMLID_3_" gradientUnits="userSpaceOnUse" x1="4.6143" y1="20.313" x2="4.6143" y2="-0.812">
			<stop  offset="0" style="stop-color:#FFFFFF"/>
			<stop  offset="0.4307" style="stop-color:#C9C9C9"/>
			<stop  offset="0.8063" style="stop-color:#A1A1A1"/>
			<stop  offset="1" style="stop-color:#919191"/>
		</linearGradient>
		<rect x="0.5" y="0.5" style="fill:url(#XMLID_3_);stroke:#000000;stroke-linejoin:round;" width="8.229" height="19.75"/>
		<rect x="0.854" y="1.947" style="fill:#CECECE;" width="1.416" height="17.856"/>
		<rect x="6.697" y="1.947" style="fill:#CECECE;" width="1.51" height="17.856"/>
		
			<rect x="1.02" y="1.031" transform="matrix(1 0.0067 -0.0067 1 0.0101 -0.031)" style="opacity:0.69;fill:#FFFFFF;" width="7.187" height="0.922"/>
		
			<rect x="0.927" y="18.667" transform="matrix(1 0.007 -0.007 1 0.1352 -0.0319)" style="fill:#5E5E5E;" width="7.374" height="1.152"/>
	</g>
	<g>
		<linearGradient id="XMLID_4_" gradientUnits="userSpaceOnUse" x1="13.6143" y1="20.313" x2="13.6143" y2="-0.812">
			<stop  offset="0" style="stop-color:#FFFFFF"/>
			<stop  offset="0.4307" style="stop-color:#C9C9C9"/>
			<stop  offset="0.8063" style="stop-color:#A1A1A1"/>
			<stop  offset="1" style="stop-color:#919191"/>
		</linearGradient>
		<rect x="9.5" y="0.5" style="fill:url(#XMLID_4_);stroke:#000000;stroke-linejoin:round;" width="8.229" height="19.75"/>
		<rect x="9.854" y="1.947" style="fill:#CECECE;" width="1.416" height="17.856"/>
		<rect x="15.697" y="1.947" style="fill:#CECECE;" width="1.51" height="17.856"/>
		
			<rect x="9.989" y="1.031" transform="matrix(1 0.0067 -0.0067 1 0.0103 -0.091)" style="opacity:0.69;fill:#FFFFFF;" width="7.218" height="0.922"/>
		
			<rect x="9.927" y="18.666" transform="matrix(1 0.0069 -0.0069 1 0.134 -0.0939)" style="fill:#5E5E5E;" width="7.312" height="1.152"/>
	</g>
</g>
</svg>
