<?xml version="1.0" encoding="iso-8859-1"?>
<!-- Generator: Adobe Illustrator 12.0.1, SVG Export Plug-In . SVG Version: 6.00 Build 51448)  -->
<!DOCTYPE svg PUBLIC "-//W3C//DTD SVG 1.1//EN" "http://www.w3.org/Graphics/SVG/1.1/DTD/svg11.dtd" [
	<!ENTITY ns_svg "http://www.w3.org/2000/svg">
	<!ENTITY ns_xlink "http://www.w3.org/1999/xlink">
]>
<svg  version="1.1" id="&#x56FE;&#x5C42;_1" xmlns="&ns_svg;" xmlns:xlink="&ns_xlink;" width="14.498" height="14.748"
	 viewBox="0 0 14.498 14.748" style="overflow:visible;enable-background:new 0 0 14.498 14.748;" xml:space="preserve">
<path style="fill:#C8C9C9;stroke:#221815;stroke-width:0.25;" d="M9.102,4.808l-6.349,1.25l-0.83-4.553c0,0,1.711-0.737,3.223-0.9
	c1.512-0.166,3.216,0.061,3.216,0.061L9.102,4.808z"/>
<linearGradient id="XMLID_5_" gradientUnits="userSpaceOnUse" x1="7.7734" y1="9.7217" x2="8.2862" y2="12.0282">
	<stop  offset="0.1573" style="stop-color:#E7E7F4"/>
	<stop  offset="0.9944" style="stop-color:#BCBDD2"/>
</linearGradient>
<polygon style="fill:url(#XMLID_5_);stroke:#221815;stroke-width:0.25;" points="13.925,11.078 1.79,14.006 1.546,8.926 
	14.258,7.693 "/>
<linearGradient id="XMLID_6_" gradientUnits="userSpaceOnUse" x1="0.1333" y1="10.0996" x2="1.9614" y2="10.0996">
	<stop  offset="0.1573" style="stop-color:#D5D6EB"/>
	<stop  offset="0.9944" style="stop-color:#BCBDD2"/>
</linearGradient>
<path style="fill:url(#XMLID_6_);stroke:#221815;stroke-width:0.25;" d="M1.717,13.828c0,0-1.202-1.713-1.375-2.854
	C0.169,9.834,0.133,6.704,0.133,6.704L0.3,6.37l1.661,3.87L1.717,13.828z"/>
<polygon style="fill:#FFFFFF;stroke:#221815;stroke-width:0.25;" points="8.591,4.727 3.133,5.643 2.258,0.975 7.8,0.142 "/>
<linearGradient id="XMLID_7_" gradientUnits="userSpaceOnUse" x1="7.6343" y1="8.9141" x2="6.718" y2="5.0559">
	<stop  offset="0.1573" style="stop-color:#E7E7F4"/>
	<stop  offset="0.9944" style="stop-color:#BCBDD2"/>
</linearGradient>
<path style="fill:url(#XMLID_7_);stroke:#221815;stroke-width:0.25;" d="M14.305,7.631L1.924,10.317L0.133,6.704l0.125-0.438
	c0,0,4.749-1.137,6.338-1.401c1.59-0.265,5.375-0.469,5.375-0.469l0.827,0.587L14.305,7.631z"/>
<linearGradient id="XMLID_8_" gradientUnits="userSpaceOnUse" x1="7.4897" y1="8.3369" x2="6.7713" y2="4.8695">
	<stop  offset="0" style="stop-color:#FFFFFF"/>
	<stop  offset="1" style="stop-color:#000000"/>
</linearGradient>
<path style="opacity:0.73;fill:url(#XMLID_8_);" d="M11.612,6.434L11.216,6.85L4.654,8.059L3.506,8.016L2.572,6.4l0.124-0.238
	c0,0,1.456-0.574,3.854-0.979c1.979-0.334,3.729-0.418,3.729-0.418l0.354,0.125L11.612,6.434z"/>
<polygon style="opacity:0.7;fill:#030303;" points="11.478,11.489 5.216,12.867 5.351,11.752 11.586,10.506 "/>
<polygon style="fill:#FFFFFF;stroke:#221815;stroke-width:0.25;" points="12.679,13.13 6.685,14.604 5.477,12.646 11.196,11.433 "/>
<polygon style="fill:#E60012;" points="12.821,7.554 12.29,7.662 12.04,7.318 12.537,7.193 "/>
<polygon style="fill:#9BFF0B;" points="13.414,7.396 12.982,7.494 12.761,7.161 13.189,7.066 "/>
<line style="fill:none;stroke:#221815;stroke-width:0.25;" x1="11.175" y1="12.37" x2="7.425" y2="13.204"/>
</svg>
