<?xml version="1.0" encoding="iso-8859-1"?>
<!-- Generator: Adobe Illustrator 12.0.1, SVG Export Plug-In . SVG Version: 6.00 Build 51448)  -->
<!DOCTYPE svg PUBLIC "-//W3C//DTD SVG 1.1//EN" "http://www.w3.org/Graphics/SVG/1.1/DTD/svg11.dtd" [
	<!ENTITY ns_svg "http://www.w3.org/2000/svg">
	<!ENTITY ns_xlink "http://www.w3.org/1999/xlink">
]>
<svg  version="1.1" id="&#x56FE;&#x5C42;_1" xmlns="&ns_svg;" xmlns:xlink="&ns_xlink;" width="20.638" height="20.456"
	 viewBox="0 0 20.638 20.456" style="overflow:visible;enable-background:new 0 0 20.638 20.456;" xml:space="preserve">
<g>
	<g>
		<rect x="0.25" y="0.25" style="fill:#FFFFFF;stroke:#000000;stroke-width:0.5;" width="10.052" height="10.051"/>
		<polygon style="opacity:0.33;fill:#D9D9D9;" points="9.019,1.43 1.573,1.43 0.25,0.454 10.115,0.467 		"/>
		<polygon style="opacity:0.33;fill:#787878;" points="9.086,9.181 9.019,1.43 10.053,0.529 10.115,10.3 		"/>
		<polygon style="fill:#ADADAD;" points="9.086,9.181 1.507,9.198 1.573,1.498 0.296,0.476 0.278,10.169 9.99,10.175 		"/>
	</g>
	<g>
		<rect x="10.335" y="0.25" style="fill:#B5C253;stroke:#000000;stroke-width:0.5;" width="10.053" height="10.051"/>
		<polygon style="opacity:0.33;fill:#FFFFFF;" points="19.104,1.43 11.659,1.43 10.337,0.454 20.138,0.417 		"/>
		<polygon style="opacity:0.33;fill:#FFFFFF;" points="19.172,9.113 19.104,1.43 20.06,0.521 20.098,10.322 		"/>
		<polygon style="fill:#646E27;" points="19.172,9.181 11.593,9.198 11.659,1.498 10.382,0.476 10.365,10.169 19.989,10.135 		"/>
	</g>
	<g>
		<rect x="0.25" y="10.154" style="fill:#B5C253;stroke:#000000;stroke-width:0.5;" width="10.052" height="10.051"/>
		<polygon style="opacity:0.33;fill:#FFFFFF;" points="9.019,11.334 1.573,11.334 0.25,10.357 10.052,10.32 		"/>
		<polygon style="opacity:0.33;fill:#FFFFFF;" points="9.086,19.017 9.019,11.334 9.975,10.425 10.012,20.227 		"/>
		<polygon style="fill:#646E27;" points="9.086,19.085 1.507,19.103 1.573,11.402 0.296,10.38 0.278,20.073 9.904,20.04 		"/>
	</g>
	<g>
		<rect x="10.335" y="10.154" style="fill:#B5C253;stroke:#000000;stroke-width:0.5;" width="10.053" height="10.051"/>
		<polygon style="opacity:0.33;fill:#FFFFFF;" points="19.104,11.334 11.659,11.334 10.337,10.357 20.138,10.32 		"/>
		<polygon style="opacity:0.33;fill:#FFFFFF;" points="19.172,19.017 19.104,11.334 20.06,10.425 20.098,20.227 		"/>
		<polygon style="fill:#646E27;" points="19.172,19.085 11.593,19.103 11.659,11.402 10.382,10.38 10.365,20.073 19.989,20.04 		"/>
	</g>
</g>
</svg>
