<?xml version="1.0" encoding="iso-8859-1"?>
<!-- Generator: Adobe Illustrator 12.0.1, SVG Export Plug-In . SVG Version: 6.00 Build 51448)  -->
<!DOCTYPE svg PUBLIC "-//W3C//DTD SVG 1.1//EN" "http://www.w3.org/Graphics/SVG/1.1/DTD/svg11.dtd" [
	<!ENTITY ns_svg "http://www.w3.org/2000/svg">
	<!ENTITY ns_xlink "http://www.w3.org/1999/xlink">
]>
<svg  version="1.1" id="&#x56FE;&#x5C42;_1" xmlns="&ns_svg;" xmlns:xlink="&ns_xlink;" width="29.7" height="11.549"
	 viewBox="0 0 29.7 11.549" style="overflow:visible;enable-background:new 0 0 29.7 11.549;" xml:space="preserve">
<linearGradient id="XMLID_4_" gradientUnits="userSpaceOnUse" x1="22.5381" y1="0.4927" x2="22.5381" y2="14.7427">
	<stop  offset="0" style="stop-color:#FFFFFF"/>
	<stop  offset="1" style="stop-color:#545454"/>
</linearGradient>
<path style="fill:url(#XMLID_4_);stroke:#000000;stroke-width:0.5;" d="M26.883,0.25h-8.689c-1.42,0-2.568,2.474-2.568,5.524
	c0,3.051,1.148,5.525,2.568,5.525h8.689c1.418,0,2.567-2.474,2.567-5.525C29.45,2.724,28.301,0.25,26.883,0.25z M24.877,7.711
	h-4.679c-0.764,0-1.383-0.866-1.383-1.936c0-1.069,0.619-1.937,1.383-1.937h4.679c0.764,0,1.383,0.868,1.383,1.937
	C26.26,6.845,25.641,7.711,24.877,7.711z"/>
<linearGradient id="XMLID_5_" gradientUnits="userSpaceOnUse" x1="7.1626" y1="0.5762" x2="7.1626" y2="12.1592">
	<stop  offset="0" style="stop-color:#FFFFFF"/>
	<stop  offset="1" style="stop-color:#545454"/>
</linearGradient>
<path style="fill:url(#XMLID_5_);stroke:#000000;stroke-width:0.5;" d="M11.508,0.25H2.818c-1.42,0-2.568,2.474-2.568,5.524
	c0,3.051,1.148,5.525,2.568,5.525h8.689c1.418,0,2.567-2.474,2.567-5.525C14.075,2.724,12.926,0.25,11.508,0.25z M9.502,7.711H4.823
	c-0.764,0-1.383-0.866-1.383-1.936c0-1.069,0.619-1.937,1.383-1.937h4.679c0.764,0,1.383,0.868,1.383,1.937
	C10.885,6.845,10.266,7.711,9.502,7.711z"/>
<linearGradient id="XMLID_6_" gradientUnits="userSpaceOnUse" x1="15.3818" y1="3.9927" x2="15.3818" y2="10.4092">
	<stop  offset="0" style="stop-color:#FFFFFF"/>
	<stop  offset="1" style="stop-color:#545454"/>
</linearGradient>
<path style="fill:url(#XMLID_6_);stroke:#000000;stroke-width:0.5;" d="M22.138,5.882c0,1.305-1.123,2.363-2.511,2.363h-8.49
	c-1.386,0-2.511-1.058-2.511-2.363l0,0c0-1.304,1.125-2.362,2.511-2.362h8.49C21.015,3.52,22.138,4.578,22.138,5.882L22.138,5.882z"
	/>
</svg>
