<?xml version="1.0" encoding="iso-8859-1"?>
<!-- Generator: Adobe Illustrator 12.0.1, SVG Export Plug-In . SVG Version: 6.00 Build 51448)  -->
<!DOCTYPE svg PUBLIC "-//W3C//DTD SVG 1.1//EN" "http://www.w3.org/Graphics/SVG/1.1/DTD/svg11.dtd" [
	<!ENTITY ns_svg "http://www.w3.org/2000/svg">
	<!ENTITY ns_xlink "http://www.w3.org/1999/xlink">
]>
<svg  version="1.1" id="&#x56FE;&#x5C42;_1" xmlns="&ns_svg;" xmlns:xlink="&ns_xlink;" width="21.709" height="21.709"
	 viewBox="0 0 21.709 21.709" overflow="visible" enable-background="new 0 0 21.709 21.709" xml:space="preserve">
<rect x="4.833" y="8.219" fill="#6E6E6E" width="12.229" height="0.469"/>
<rect x="9.608" y="7.25" fill="#120E05" width="1.658" height="1.658"/>
<rect opacity="0" fill="#FFFFFF" width="21.709" height="21.709"/>
<defs>
	<filter id="Adobe_OpacityMaskFilter" filterUnits="userSpaceOnUse" x="4.201" y="7.828" width="13.175" height="10.819">
		
			<feColorMatrix  type="matrix" values="-1 0 0 0 1  0 -1 0 0 1  0 0 -1 0 1  0 0 0 1 0" color-interpolation-filters="sRGB" result="source"/>
		<feFlood  style="flood-color:white;flood-opacity:1" result="back"/>
		<feBlend  in="source" in2="back" mode="normal"/>
	</filter>
</defs>
<mask maskUnits="userSpaceOnUse" x="4.201" y="7.828" width="13.175" height="10.819" id="XMLID_4_">
	<g filter="url(#Adobe_OpacityMaskFilter)">
		<rect x="4.702" y="7.353" fill="#FFFFFF" width="12.177" height="1.312"/>
	</g>
</mask>
<linearGradient id="XMLID_5_" gradientUnits="userSpaceOnUse" x1="10.7886" y1="10.4346" x2="10.7886" y2="18.5263">
	<stop  offset="0" style="stop-color:#EDEDED"/>
	<stop  offset="0.3899" style="stop-color:#CFCFCF"/>
	<stop  offset="0.7611" style="stop-color:#BAB9B9"/>
	<stop  offset="1" style="stop-color:#B2B1B1"/>
</linearGradient>
<path mask="url(#XMLID_4_)" fill="url(#XMLID_5_)" stroke="#000000" stroke-width="0.5" d="M4.451,8.078v3.98
	c0,3.501,2.837,6.339,6.337,6.339s6.337-2.838,6.337-6.339v-3.98H4.451z"/>
<polygon fill="#666FB2" stroke="#000000" stroke-width="0.5" points="12.717,20.276 12.717,18.717 8.927,18.717 8.927,20.276 
	7.887,20.276 7.887,21.392 13.832,21.392 13.832,20.276 "/>
<polygon opacity="0.57" fill="#666FB2" points="12.588,20.229 12.588,18.669 11.261,18.669 11.261,20.229 12.146,20.229 
	12.146,21.345 13.472,21.345 13.472,20.229 "/>
<polygon opacity="0.57" fill="#666FB2" points="8.764,20.181 8.764,18.62 10.035,18.62 10.035,20.181 9.188,20.181 9.188,21.297 
	7.917,21.297 7.917,20.181 "/>
<g>
	<linearGradient id="XMLID_6_" gradientUnits="userSpaceOnUse" x1="6.6797" y1="8.335" x2="14.8332" y2="8.335">
		<stop  offset="0" style="stop-color:#A76B0B"/>
		<stop  offset="0.094" style="stop-color:#BE8E35"/>
		<stop  offset="0.2198" style="stop-color:#DAB866"/>
		<stop  offset="0.3302" style="stop-color:#EED78A"/>
		<stop  offset="0.4199" style="stop-color:#FBE9A0"/>
		<stop  offset="0.4775" style="stop-color:#FFF0A8"/>
		<stop  offset="0.553" style="stop-color:#F6E398"/>
		<stop  offset="0.6995" style="stop-color:#E0C070"/>
		<stop  offset="0.9006" style="stop-color:#BC892F"/>
		<stop  offset="1" style="stop-color:#A96C0C"/>
	</linearGradient>
	<path fill="url(#XMLID_6_)" stroke="#000000" stroke-width="0.5" d="M14.961,11.668c0,2.594-1.868,4.695-4.172,4.695l0,0
		c-2.305,0-4.172-2.102-4.172-4.695V5.002c0-2.593,1.868-4.694,4.172-4.694l0,0c2.304,0,4.172,2.102,4.172,4.694V11.668z"/>
	<path opacity="0.22" fill="#886B2F" d="M12.252,13.104c-0.766,0.985-1.929,1.729-3.184,1.729c-0.679,0-1.318-0.186-1.885-0.511
		c0.748,1.268,2.025,2.104,3.478,2.104c2.304,0,4.172-2.101,4.172-4.694V8.865C14.833,10.842,13.789,12.41,12.252,13.104z"/>
	<rect x="9.736" y="4.128" fill="#120E05" width="1.658" height="1.658"/>
	<rect x="9.736" y="10.435" fill="#120E05" width="1.658" height="1.656"/>
	<rect x="6.903" y="5.724" opacity="0.61" fill="#FFFFFF" width="7.803" height="1.464"/>
	<rect x="6.935" y="8.845" opacity="0.36" fill="#FFFFFF" width="7.771" height="1.465"/>
	<polygon opacity="0.29" fill="#FFFFFF" points="14.324,13.493 7.221,13.396 6.815,12.021 14.706,11.965 	"/>
</g>
</svg>
