<?xml version="1.0" encoding="iso-8859-1"?>
<!-- Generator: Adobe Illustrator 12.0.1, SVG Export Plug-In . SVG Version: 6.00 Build 51448)  -->
<!DOCTYPE svg PUBLIC "-//W3C//DTD SVG 1.1//EN" "http://www.w3.org/Graphics/SVG/1.1/DTD/svg11.dtd" [
	<!ENTITY ns_svg "http://www.w3.org/2000/svg">
	<!ENTITY ns_xlink "http://www.w3.org/1999/xlink">
]>
<svg  version="1.1" id="&#x56FE;&#x5C42;_1" xmlns="&ns_svg;" xmlns:xlink="&ns_xlink;" width="20.479" height="21.513"
	 viewBox="0 0 20.479 21.513" style="overflow:visible;enable-background:new 0 0 20.479 21.513;" xml:space="preserve">
<g>
	<g>
		<g>
			<path style="fill:#D1D1D1;stroke:#000000;stroke-width:0.5;stroke-linejoin:round;" d="M16.15,5.56l-5.868-5.31v2.954
				C3.383,3.733,0.25,6.866,0.25,16.024c0,0.014,0.002,0.025,0.002,0.039l3.961-0.115c0-0.013-0.002-0.024-0.002-0.037
				c0-5.922,1.35-7.975,6.071-8.428v2.953L16.15,5.56z"/>
			<path style="fill:#ADADAD;" d="M15.9,5.478l-4.805,3.08l-0.289-1.689l-0.664,0.019c-4.721,0.454-6.465,2.228-6.465,8.147
				c0,0.012-2.84,0.24-2.84,0.24C1.037,6.797,4.551,4.42,11.223,3.908l-0.025-2.87l-0.914-0.94v2.954
				C3.383,3.581,0.174,6.587,0.174,15.745c0,0.003-0.014,0.349-0.014,0.4c0,0.015,4.051-0.145,4.051-0.159
				c0-5.473,0.829-7.909,5.996-8.65l0.318,2.579L15.9,5.478z"/>
		</g>
		<g>
			<path style="fill:#D1D1D1;stroke:#000000;stroke-width:0.5;stroke-linejoin:round;" d="M4.326,15.954l5.868,5.309v-2.955
				c6.9-0.527,10.034-3.66,10.034-12.819c0-0.014-0.003-0.025-0.003-0.038l-3.962,0.114c0,0.013,0.002,0.024,0.002,0.038
				c0,5.921-1.35,7.974-6.071,8.428v-2.953L4.326,15.954z"/>
			<path style="fill:#ADADAD;" d="M20.316,5.367c0-0.015-4.051,0.146-4.051,0.159c0,5.466-0.826,7.901-5.972,8.646l-0.239-2.685
				l-5.373,4.474l4.687-3.153l0.102,1.829l0.864-0.012c4.723-0.453,6.466-2.228,6.466-8.147c0-0.011,2.694-0.001,2.694-0.001
				c-0.2,8.477-3.568,10.615-10.24,11.127l0.025,2.871l0.915,0.939V18.46c6.899-0.527,10.11-3.534,10.11-12.692
				c0-0.004-0.012-0.026-0.02-0.04C20.303,5.514,20.316,5.419,20.316,5.367z"/>
		</g>
	</g>
	
		<rect x="9.571" y="-2.653" transform="matrix(0.7115 -0.7027 0.7027 0.7115 -4.6039 10.2975)" style="fill:#E70E0C;stroke:#000000;stroke-width:0.25;" width="1.334" height="26.816"/>
</g>
</svg>
