<?xml version="1.0" encoding="iso-8859-1"?>
<!-- Generator: Adobe Illustrator 12.0.1, SVG Export Plug-In . SVG Version: 6.00 Build 51448)  -->
<!DOCTYPE svg PUBLIC "-//W3C//DTD SVG 1.1//EN" "http://www.w3.org/Graphics/SVG/1.1/DTD/svg11.dtd" [
	<!ENTITY ns_svg "http://www.w3.org/2000/svg">
	<!ENTITY ns_xlink "http://www.w3.org/1999/xlink">
]>
<svg  version="1.1" id="&#x56FE;&#x5C42;_1" xmlns="&ns_svg;" xmlns:xlink="&ns_xlink;" width="20.479" height="21.325"
	 viewBox="0 0 20.479 21.325" style="overflow:visible;enable-background:new 0 0 20.479 21.325;" xml:space="preserve">
<g>
	<g>
		<path style="fill:#D1D1D1;stroke:#000000;stroke-width:0.5;stroke-linejoin:round;" d="M16.151,5.56l-5.868-5.31v2.954
			C3.383,3.733,0.25,6.866,0.25,16.024c0,0.013,0.002,0.025,0.002,0.038l3.962-0.114c0-0.013-0.002-0.025-0.002-0.038
			c0-5.921,1.349-7.974,6.071-8.427v2.953L16.151,5.56z"/>
		<path style="fill:#ADADAD;" d="M11.096,8.557l0.018-1.664l-1.044,0.001C5.406,7.36,3.679,9.146,3.679,15.034
			c0,0.011-2.768-0.016-2.768-0.016c0.2-8.477,3.641-10.599,10.313-11.11l-0.026-2.871l-0.915-0.94v2.954
			C3.384,3.581,0.174,6.587,0.174,15.745c0,0.003,0.012,0.024,0.018,0.037c-0.017,0.216-0.031,0.312-0.031,0.363
			c0,0.015,4.051-0.145,4.051-0.159c0-5.447,0.822-7.885,5.923-8.639l0.38,2.599l5.239-4.38L11.096,8.557z"/>
	</g>
	<g>
		<path style="fill:#D1D1D1;stroke:#000000;stroke-width:0.5;stroke-linejoin:round;" d="M4.327,15.766l5.868,5.309v-2.954
			c6.9-0.529,10.034-3.662,10.034-12.82c0-0.013-0.003-0.025-0.003-0.038l-3.962,0.114c0,0.013,0.002,0.025,0.002,0.038
			c0,5.921-1.35,7.974-6.071,8.427v-2.953L4.327,15.766z"/>
		<path style="fill:#ADADAD;" d="M20.317,5.18c0-0.015-4.051,0.145-4.051,0.159c0,5.464-0.827,7.901-5.972,8.647l-0.24-2.686
			l-5.363,4.468l4.766-3.156L9.47,14.45l0.865-0.011c4.722-0.454,6.465-2.228,6.465-8.148c0-0.011,2.657-0.038,2.657-0.038
			c-0.2,8.477-3.531,10.652-10.204,11.164l0.026,2.871l0.915,0.94v-2.954c6.899-0.529,10.11-3.535,10.11-12.693
			C20.305,5.576,20.317,5.231,20.317,5.18z"/>
	</g>
</g>
</svg>
