<?xml version="1.0" encoding="iso-8859-1"?>
<!-- Generator: Adobe Illustrator 12.0.1, SVG Export Plug-In . SVG Version: 6.00 Build 51448)  -->
<!DOCTYPE svg PUBLIC "-//W3C//DTD SVG 1.1//EN" "http://www.w3.org/Graphics/SVG/1.1/DTD/svg11.dtd" [
	<!ENTITY ns_svg "http://www.w3.org/2000/svg">
	<!ENTITY ns_xlink "http://www.w3.org/1999/xlink">
]>
<svg  version="1.1" id="&#x56FE;&#x5C42;_1" xmlns="&ns_svg;" xmlns:xlink="&ns_xlink;" width="21" height="21" viewBox="0 0 21 21"
	 style="overflow:visible;enable-background:new 0 0 21 21;" xml:space="preserve">
<g>
	<polygon style="fill:#FF0000;stroke:#000000;stroke-width:0.75;" points="20.47,17.989 12.98,10.5 20.47,3.011 17.989,0.53 
		10.5,8.02 3.011,0.53 0.53,3.011 8.02,10.5 0.53,17.989 3.011,20.47 10.5,12.98 17.989,20.47 	"/>
	<polygon style="fill:#BDBDBD;" points="18.504,1.526 17.957,1.011 10.464,8.221 3.011,1.049 2.52,1.542 10.517,9.063 	"/>
	<polygon style="fill:#BDBDBD;" points="2.504,19.491 2.995,19.965 10.517,12.676 17.988,19.917 18.473,19.448 10.464,11.834 	"/>
	<polygon style="fill:#BDBDBD;" points="19.478,18.461 19.897,17.97 12.508,10.579 19.957,3.026 19.551,2.573 11.666,10.632 	"/>
	<polygon style="fill:#BDBDBD;" points="1.408,2.522 0.986,3.012 8.376,10.403 1.021,17.953 1.478,18.408 9.218,10.35 	"/>
</g>
</svg>
