<?xml version="1.0" encoding="iso-8859-1"?>
<!-- Generator: Adobe Illustrator 12.0.1, SVG Export Plug-In . SVG Version: 6.00 Build 51448)  -->
<!DOCTYPE svg PUBLIC "-//W3C//DTD SVG 1.1//EN" "http://www.w3.org/Graphics/SVG/1.1/DTD/svg11.dtd" [
	<!ENTITY ns_svg "http://www.w3.org/2000/svg">
	<!ENTITY ns_xlink "http://www.w3.org/1999/xlink">
]>
<svg  version="1.1" id="&#x56FE;&#x5C42;_1" xmlns="&ns_svg;" xmlns:xlink="&ns_xlink;" width="20.298" height="20.321"
	 viewBox="0 0 20.298 20.321" style="overflow:visible;enable-background:new 0 0 20.298 20.321;" xml:space="preserve">
<g>
	<g>
		<path style="fill:#D1D1D1;stroke:#000000;stroke-width:0.5;stroke-linejoin:round;" d="M13.439,0.25l6.608,7.354L16.356,7.59
			c-0.69,8.619-4.618,12.521-16.059,12.48c-0.017,0-0.031-0.004-0.048-0.004l0.16-4.949c0.018,0,0.032,0.004,0.048,0.004
			c7.396,0.024,9.967-1.652,10.553-7.549L7.321,7.56L13.439,0.25z"/>
		<path style="fill:#ADADAD;" d="M19.054,6.522L15.47,6.488c-0.64,8.242-3.468,12.481-14.06,12.731c0,0,0.146-3.397,0.159-3.397
			c7.396,0,9.666-2.188,10.231-8.087V6.454L9.488,6.422l3.953-5.75L7.738,7.313l3.344,0.047c-0.931,6.436-3.872,7.795-10.701,7.795
			c-0.019,0-0.217,5.06-0.2,5.06c0.065,0,0.495-0.015,0.5-0.015c11.441,0,15.196-4.011,15.857-12.63h3.691L19.054,6.522z"/>
	</g>
</g>
</svg>
