<?xml version="1.0" encoding="iso-8859-1"?>
<!-- Generator: Adobe Illustrator 12.0.1, SVG Export Plug-In . SVG Version: 6.00 Build 51448)  -->
<!DOCTYPE svg PUBLIC "-//W3C//DTD SVG 1.1//EN" "http://www.w3.org/Graphics/SVG/1.1/DTD/svg11.dtd" [
	<!ENTITY ns_svg "http://www.w3.org/2000/svg">
	<!ENTITY ns_xlink "http://www.w3.org/1999/xlink">
]>
<svg  version="1.1" id="&#x56FE;&#x5C42;_1" xmlns="&ns_svg;" xmlns:xlink="&ns_xlink;" width="19.84" height="19.84"
	 viewBox="0 0 19.84 19.84" style="overflow:visible;enable-background:new 0 0 19.84 19.84;" xml:space="preserve">
<g>
	<linearGradient id="XMLID_4_" gradientUnits="userSpaceOnUse" x1="6.1006" y1="1.6621" x2="16.3931" y2="23.9167">
		<stop  offset="0" style="stop-color:#DEDEDE"/>
		<stop  offset="0.118" style="stop-color:#FFFFFF"/>
		<stop  offset="0.1934" style="stop-color:#F7F7F7"/>
		<stop  offset="0.3112" style="stop-color:#E1E1E1"/>
		<stop  offset="0.4568" style="stop-color:#BCBCBC"/>
		<stop  offset="0.6243" style="stop-color:#8A8A8A"/>
		<stop  offset="0.8105" style="stop-color:#494949"/>
		<stop  offset="1" style="stop-color:#000000"/>
	</linearGradient>
	<path style="fill:url(#XMLID_4_);stroke:#000000;stroke-width:0.5;" d="M9.92,0.25c-5.341,0-9.67,4.329-9.67,9.67
		s4.329,9.67,9.67,9.67s9.67-4.329,9.67-9.67S15.261,0.25,9.92,0.25z M9.92,15.3c-2.972,0-5.38-2.409-5.38-5.381
		c0-2.971,2.409-5.38,5.38-5.38s5.38,2.409,5.38,5.38C15.3,12.891,12.892,15.3,9.92,15.3z"/>
	<defs>
		<filter id="Adobe_OpacityMaskFilter" filterUnits="userSpaceOnUse" x="10.25" y="0.635" width="9.193" height="8.325">
			
				<feColorMatrix  type="matrix" values="-1 0 0 0 1  0 -1 0 0 1  0 0 -1 0 1  0 0 0 1 0" color-interpolation-filters="sRGB" result="source"/>
			<feFlood  style="flood-color:white;flood-opacity:1" result="back"/>
			<feBlend  in="source" in2="back" mode="normal"/>
		</filter>
	</defs>
	<mask maskUnits="userSpaceOnUse" x="10.25" y="0.635" width="9.193" height="8.325" id="XMLID_5_">
		<g style="filter:url(#Adobe_OpacityMaskFilter);">
			<polygon style="fill:#FFFFFF;stroke:#000000;stroke-width:0.75;stroke-linejoin:round;" points="17.073,3.216 13.017,6.11 
				8.289,-0.532 12.345,-3.426 			"/>
		</g>
	</mask>
	<linearGradient id="XMLID_6_" gradientUnits="userSpaceOnUse" x1="15.1631" y1="4.4985" x2="17.8063" y2="8.6722">
		<stop  offset="0" style="stop-color:#E0E0E0"/>
		<stop  offset="0.4771" style="stop-color:#F0F0F0"/>
		<stop  offset="0.8315" style="stop-color:#FFFFFF"/>
	</linearGradient>
	<polygon style="mask:url(#XMLID_5_);fill:url(#XMLID_6_);stroke:#000000;stroke-width:0.5;stroke-linejoin:round;" points="
		19.193,0.885 18.554,8.709 10.5,7.113 	"/>
	<polygon style="opacity:0.54;fill:#A2A2A2;" points="18.019,1.893 18.206,8.413 18.331,8.851 19.271,1.067 	"/>
</g>
</svg>
