<?xml version="1.0" encoding="iso-8859-1"?>
<!-- Generator: Adobe Illustrator 12.0.1, SVG Export Plug-In . SVG Version: 6.00 Build 51448)  -->
<!DOCTYPE svg PUBLIC "-//W3C//DTD SVG 1.1//EN" "http://www.w3.org/Graphics/SVG/1.1/DTD/svg11.dtd" [
	<!ENTITY ns_svg "http://www.w3.org/2000/svg">
	<!ENTITY ns_xlink "http://www.w3.org/1999/xlink">
]>
<svg  version="1.1" id="&#x56FE;&#x5C42;_1" xmlns="&ns_svg;" xmlns:xlink="&ns_xlink;" width="21.339" height="21.339"
	 viewBox="0 0 21.339 21.339" style="overflow:visible;enable-background:new 0 0 21.339 21.339;" xml:space="preserve">
<g>
	<linearGradient id="XMLID_2_" gradientUnits="userSpaceOnUse" x1="10.6694" y1="18.0952" x2="10.6694" y2="3.4054">
		<stop  offset="0" style="stop-color:#FDFDFD"/>
		<stop  offset="0.8933" style="stop-color:#AFB0B3"/>
	</linearGradient>
	<rect x="0.5" y="0.5" style="fill:url(#XMLID_2_);stroke:#000000;" width="20.339" height="20.339"/>
	<polygon style="opacity:0.75;fill:#FFFFFF;" points="1.994,1.994 20.355,1.983 20.385,1.014 1.015,0.984 0.954,20.355 
		2.043,20.416 	"/>
	<polygon style="fill:#7D7D7D;" points="19.376,19.816 19.359,1.979 20.355,1.983 20.386,20.76 1.016,20.818 0.955,19.77 	"/>
	<polygon points="11.688,9.562 11.688,0.347 10.186,0.347 10.186,11.064 21.003,11.064 21.003,9.562 	"/>
	<polygon points="4.858,15.928 4.858,11.153 3.648,11.153 3.648,17.207 9.944,17.207 9.944,15.928 	"/>
	<rect x="7.119" y="9.228" transform="matrix(0.6586 0.7525 -0.7525 0.6586 12.5778 -1.3032)" width="1.211" height="7.964"/>
</g>
</svg>
