<?xml version="1.0" encoding="iso-8859-1"?>
<!-- Generator: Adobe Illustrator 12.0.1, SVG Export Plug-In . SVG Version: 6.00 Build 51448)  -->
<!DOCTYPE svg PUBLIC "-//W3C//DTD SVG 1.1//EN" "http://www.w3.org/Graphics/SVG/1.1/DTD/svg11.dtd" [
	<!ENTITY ns_svg "http://www.w3.org/2000/svg">
	<!ENTITY ns_xlink "http://www.w3.org/1999/xlink">
]>
<svg  version="1.1" id="&#x56FE;&#x5C42;_1" xmlns="&ns_svg;" xmlns:xlink="&ns_xlink;" width="17.645" height="22.425"
	 viewBox="0 0 17.645 22.425" style="overflow:visible;enable-background:new 0 0 17.645 22.425;" xml:space="preserve">
<linearGradient id="XMLID_11_" gradientUnits="userSpaceOnUse" x1="10.2295" y1="21.186" x2="10.1377" y2="12.6496">
	<stop  offset="0.0056" style="stop-color:#D8A556"/>
	<stop  offset="0.3034" style="stop-color:#FEE0C2"/>
	<stop  offset="0.3138" style="stop-color:#FEE0C2"/>
	<stop  offset="0.3876" style="stop-color:#FEE0C2"/>
</linearGradient>
<path style="fill:url(#XMLID_11_);stroke:#000000;stroke-width:0.5;stroke-linejoin:round;stroke-miterlimit:5;" d="M15.81,21.716
	C14.781,22.812,4.708,21.6,4.708,21.6L3.542,11.167h13.16C16.702,11.167,16.839,20.621,15.81,21.716z"/>
<linearGradient id="XMLID_12_" gradientUnits="userSpaceOnUse" x1="8.8652" y1="14.5874" x2="8.8652" y2="21.1315">
	<stop  offset="0.3708" style="stop-color:#D77D3F"/>
	<stop  offset="0.4457" style="stop-color:#D88246"/>
	<stop  offset="0.5516" style="stop-color:#DC8F58"/>
	<stop  offset="0.676" style="stop-color:#E2A476"/>
	<stop  offset="0.8144" style="stop-color:#EAC2A1"/>
	<stop  offset="0.9627" style="stop-color:#F5E8D6"/>
	<stop  offset="1" style="stop-color:#F8F2E5"/>
</linearGradient>
<path style="opacity:0.51;fill:url(#XMLID_12_);" d="M6.789,14.997c1.844,0.578,4.172,6.344,4.172,6.344s-1.641-4.25-0.609-6.531
	C9.508,14.997,6.505,14.908,6.789,14.997z"/>
<g>
	<polygon style="enable-background:new    ;" points="2.922,1.561 2.922,13.186 5.55,13.186 5.587,1.561 4.199,0.811 	"/>
	<g id="XMLID_10_">
		<g>
			<path d="M6.027,1.241l-0.044,12.45H2.486V1.251c0,0,0.999-0.96,1.709-1C4.914,0.211,6.027,1.241,6.027,1.241z M5.677,13.191
				c0-0.97,0.053-11.11,0.053-11.72c-0.456-0.17-0.5-0.6-1.534-0.56c-1.025,0.04-0.938,0.37-1.35,0.54c0,0.6,0,10.76,0,11.74
				C3.626,13.191,4.879,13.191,5.677,13.191z"/>
			<linearGradient id="XMLID_13_" gradientUnits="userSpaceOnUse" x1="2.8457" y1="7.0498" x2="5.7295" y2="7.0498">
				<stop  offset="0" style="stop-color:#FEE0C2"/>
				<stop  offset="0.8258" style="stop-color:#D8A556"/>
			</linearGradient>
			<path style="fill:url(#XMLID_13_);" d="M5.729,1.471c0,0.61-0.053,10.75-0.053,11.72c-0.798,0-2.051,0-2.831,0
				c0-0.98,0-11.14,0-11.74c0.412-0.17,0.324-0.5,1.35-0.54C5.229,0.871,5.273,1.301,5.729,1.471z"/>
		</g>
		<g>
			<path style="fill:none;stroke:#000000;stroke-width:0.2;" d="M2.486,1.251v12.44h3.497l0.044-12.45c0,0-1.113-1.03-1.832-0.99
				C3.485,0.291,2.486,1.251,2.486,1.251z"/>
		</g>
	</g>
</g>
<g id="XMLID_1_">
	<g>
		<linearGradient id="XMLID_14_" gradientUnits="userSpaceOnUse" x1="5.0068" y1="11.6953" x2="17.3945" y2="11.6953">
			<stop  offset="0.0056" style="stop-color:#D8A556"/>
			<stop  offset="0.3034" style="stop-color:#FEE0C2"/>
			<stop  offset="0.3138" style="stop-color:#FEE0C2"/>
			<stop  offset="0.3876" style="stop-color:#FEE0C2"/>
		</linearGradient>
		<path style="fill:url(#XMLID_14_);" d="M17.366,9.886c0.16,0.409-0.399,4.058-0.64,5.61c-0.02,0.118-0.13,0.199-0.26,0.199
			l-10.16-0.453c-0.07-0.01-0.13-0.037-0.18-0.082l-1.061-1.135c-0.04-0.036-0.06-0.091-0.06-0.146c0-0.009,0-0.018,0-0.027
			c0,0,0.37-2.751,0.38-2.769c0-0.018,0.09-2.433,0.09-2.433c0-0.064,0.03-0.118,0.08-0.164c0.05-0.037,1.1-0.854,2.189-0.79
			c0.91,0.045,1.91,0.735,2.221,0.972c0.399-0.2,1.62-0.799,2.26-0.717c0.66,0.082,1.58,1.216,1.92,1.661
			c0.4-0.182,1.34-0.581,1.86-0.526C16.906,9.178,17.246,9.568,17.366,9.886z"/>
	</g>
	<g>
		<path style="fill:none;stroke:#000000;stroke-width:0.5;stroke-linejoin:round;stroke-miterlimit:5;" d="M5.557,8.488
			c-0.05,0.045-0.08,0.1-0.08,0.164c0,0-0.09,2.415-0.09,2.433c-0.01,0.018-0.38,2.769-0.38,2.769c0,0.009,0,0.018,0,0.027
			c0,0.055,0.02,0.109,0.06,0.146l1.061,1.135c0.05,0.045,0.109,0.072,0.18,0.082l10.16,0.453c0.13,0,0.24-0.081,0.26-0.199
			c0.24-1.552,0.8-5.202,0.64-5.61c-0.12-0.318-0.46-0.708-1.359-0.799c-0.521-0.055-1.46,0.345-1.86,0.526
			c-0.34-0.445-1.26-1.58-1.92-1.661c-0.64-0.082-1.86,0.518-2.26,0.717C9.656,8.434,8.656,7.744,7.746,7.698
			C6.656,7.635,5.606,8.452,5.557,8.488z"/>
	</g>
</g>
<linearGradient id="XMLID_15_" gradientUnits="userSpaceOnUse" x1="0.25" y1="16.1226" x2="6.874" y2="16.1226">
	<stop  offset="0" style="stop-color:#FEE0C2"/>
	<stop  offset="0.8258" style="stop-color:#D8A556"/>
</linearGradient>
<path style="fill:url(#XMLID_15_);stroke:#000000;stroke-width:0.5;stroke-linejoin:round;stroke-miterlimit:5;" d="M6.283,12.834
	l-2.518,1.434c0,0,0.938,2.254,2.605,4.888c1.669,2.634-1.353,2.538-1.353,2.538s-2.25-0.313-3.77-2.216
	c-1.922-2.407-0.48-7.721-0.48-7.721l4.987-1.206L6.283,12.834z"/>
<linearGradient id="XMLID_16_" gradientUnits="userSpaceOnUse" x1="2.0576" y1="17.0122" x2="7.083" y2="17.0122">
	<stop  offset="0.3708" style="stop-color:#D77D3F"/>
	<stop  offset="0.4457" style="stop-color:#D88246"/>
	<stop  offset="0.5516" style="stop-color:#DC8F58"/>
	<stop  offset="0.676" style="stop-color:#E2A476"/>
	<stop  offset="0.8144" style="stop-color:#EAC2A1"/>
	<stop  offset="0.9627" style="stop-color:#F5E8D6"/>
	<stop  offset="1" style="stop-color:#F8F2E5"/>
</linearGradient>
<path style="opacity:0.46;fill:url(#XMLID_16_);" d="M6.58,19.282c-1.668-2.634-2.605-4.888-2.605-4.888l2.518-1.434l-0.619-0.755
	L2.058,14.31c0,0,0.938,2.254,2.605,4.888c0.975,1.538,0.35,2.143-0.338,2.382c0.531,0.184,0.902,0.24,0.902,0.24
	S8.249,21.916,6.58,19.282z"/>
<defs>
	<filter id="Adobe_OpacityMaskFilter" filterUnits="userSpaceOnUse" x="6.383" y="8.309" width="10.24" height="7.354">
		<feFlood  style="flood-color:white;flood-opacity:1" result="back"/>
		<feBlend  in="SourceGraphic" in2="back" mode="normal"/>
	</filter>
</defs>
<mask maskUnits="userSpaceOnUse" x="6.383" y="8.309" width="10.24" height="7.354" id="XMLID_17_">
	<g style="filter:url(#Adobe_OpacityMaskFilter);">
	</g>
</mask>
<linearGradient id="XMLID_18_" gradientUnits="userSpaceOnUse" x1="11.5029" y1="8.3091" x2="11.5029" y2="15.6641">
	<stop  offset="0" style="stop-color:#DBA46E"/>
	<stop  offset="0.6697" style="stop-color:#A07851"/>
	<stop  offset="0.9944" style="stop-color:#896745"/>
</linearGradient>
<polyline style="mask:url(#XMLID_17_);fill:url(#XMLID_18_);" points="15.07,14.505 15.07,14.505 14.445,14.324 14.633,9.608 
	13.508,9.337 13.32,14.051 10.664,13.96 10.414,8.521 9.539,8.309 9.414,13.96 6.383,14.988 16.623,15.664 15.383,14.716 "/>
</svg>
