<?xml version="1.0" encoding="iso-8859-1"?>
<!-- Generator: Adobe Illustrator 12.0.1, SVG Export Plug-In . SVG Version: 6.00 Build 51448)  -->
<!DOCTYPE svg PUBLIC "-//W3C//DTD SVG 1.1//EN" "http://www.w3.org/Graphics/SVG/1.1/DTD/svg11.dtd" [
	<!ENTITY ns_svg "http://www.w3.org/2000/svg">
	<!ENTITY ns_xlink "http://www.w3.org/1999/xlink">
]>
<svg  version="1.1" id="&#x56FE;&#x5C42;_1" xmlns="&ns_svg;" xmlns:xlink="&ns_xlink;" width="19.21" height="19.19"
	 viewBox="0 0 19.21 19.19" style="overflow:visible;enable-background:new 0 0 19.21 19.19;" xml:space="preserve">
<g>
	
		<linearGradient id="XMLID_6_" gradientUnits="userSpaceOnUse" x1="10.4048" y1="30.9229" x2="10.4048" y2="20.0972" gradientTransform="matrix(0.7035 -0.7107 0.7108 0.7035 -12.8738 2.0084)">
		<stop  offset="0" style="stop-color:#DCDCDC"/>
		<stop  offset="0.0537" style="stop-color:#D4D4D4"/>
		<stop  offset="0.2988" style="stop-color:#B6B6B6"/>
		<stop  offset="0.5392" style="stop-color:#A0A0A0"/>
		<stop  offset="0.7706" style="stop-color:#939393"/>
		<stop  offset="0.9831" style="stop-color:#8F8F8F"/>
	</linearGradient>
	<path style="fill:url(#XMLID_6_);stroke:#221815;stroke-width:0.5;" d="M10.122,3.05C8.898,1.839,7.239,1.364,5.685,1.603
		l2.95,2.92c0.406,0.401,0.47,1.004,0.141,1.335L5.898,8.767C5.569,9.099,4.965,9.041,4.56,8.64l-3-2.97
		c-0.264,1.587,0.232,3.292,1.483,4.531c1.255,1.243,2.97,1.719,4.56,1.435l7.301,7.267l4.055,0.035l-0.031-4.099l-7.321-7.287
		C11.858,5.973,11.365,4.28,10.122,3.05z"/>
	
		<radialGradient id="XMLID_7_" cx="8.5439" cy="18.4014" r="7.0537" gradientTransform="matrix(0.7035 -0.7107 0.7108 0.7035 -12.8738 2.0084)" gradientUnits="userSpaceOnUse">
		<stop  offset="0.7865" style="stop-color:#FFFFFF"/>
		<stop  offset="0.8075" style="stop-color:#F3F3F3"/>
		<stop  offset="0.8453" style="stop-color:#D4D4D4"/>
		<stop  offset="0.8952" style="stop-color:#A1A1A1"/>
		<stop  offset="0.9382" style="stop-color:#707070"/>
	</radialGradient>
	<path style="fill:url(#XMLID_7_);" d="M5.607,1.592l1.609,1.527C8.57,3.086,8.845,3.212,9.885,4.265
		c0.932,0.946,1.602,1.577,1.695,2.771c0.083-1.428-0.424-2.896-1.534-3.997C8.821,1.828,7.163,1.354,5.607,1.592z"/>
	
		<radialGradient id="XMLID_8_" cx="73.979" cy="18.8555" r="7.0511" gradientTransform="matrix(-0.7035 0.7107 0.7108 0.7035 47.4766 -59.6043)" gradientUnits="userSpaceOnUse">
		<stop  offset="0.7865" style="stop-color:#FFFFFF"/>
		<stop  offset="0.8075" style="stop-color:#F3F3F3"/>
		<stop  offset="0.8453" style="stop-color:#D4D4D4"/>
		<stop  offset="0.8952" style="stop-color:#A1A1A1"/>
		<stop  offset="0.9382" style="stop-color:#707070"/>
	</radialGradient>
	<path style="fill:url(#XMLID_8_);" d="M3.032,10.124c1.112,1.101,2.585,1.593,4.012,1.495c-1.196-0.082-1.832-0.744-2.788-1.667
		C3.193,8.922,3.064,8.649,3.083,7.294L1.539,5.701C1.316,7.259,1.809,8.913,3.032,10.124z"/>
	
		<linearGradient id="XMLID_9_" gradientUnits="userSpaceOnUse" x1="13.8062" y1="66.7295" x2="13.9426" y2="69.7927" gradientTransform="matrix(0.7449 -0.6669 0.6671 0.7451 -45.5341 -31.1914)">
		<stop  offset="0" style="stop-color:#FFFFFF"/>
		<stop  offset="0.9831" style="stop-color:#6D6D6D"/>
	</linearGradient>
	<path style="fill:url(#XMLID_9_);" d="M11.025,11.022c-0.517,0.543-1.42,1.123-1.42,1.123c-1.33-0.905-1.479-0.767-2.292-0.687
		c-1.17,0.116-1.708-0.125-1.708-0.125c5.704-1.281,5.752-6.038,5.708-5.646c0,0,0.208,0.688,0.146,1.708
		c-0.066,1.079,0.729,2.095,0.729,2.095S11.541,10.478,11.025,11.022z"/>
	
		<linearGradient id="XMLID_10_" gradientUnits="userSpaceOnUse" x1="10.4829" y1="18.9941" x2="10.4829" y2="17.6949" gradientTransform="matrix(0.7035 -0.7107 0.7108 0.7035 -12.8738 2.0084)">
		<stop  offset="0" style="stop-color:#FFFFFF"/>
		<stop  offset="0.042" style="stop-color:#F1F1F1"/>
		<stop  offset="0.1755" style="stop-color:#CACACA"/>
		<stop  offset="0.3137" style="stop-color:#A9A9A9"/>
		<stop  offset="0.4557" style="stop-color:#909090"/>
		<stop  offset="0.6029" style="stop-color:#7E7E7E"/>
		<stop  offset="0.7589" style="stop-color:#747474"/>
		<stop  offset="0.9382" style="stop-color:#707070"/>
	</linearGradient>
	<path style="fill:url(#XMLID_10_);" d="M10.014,5.757c0.013,0.298-3.735,4.195-4.121,4.187C5.505,9.934,4.847,8.91,4.847,8.91
		l0.819,0.128l3.298-3.244L8.97,4.746C8.97,4.746,10.001,5.459,10.014,5.757z"/>
</g>
<rect style="fill:none;" width="18.875" height="18.875"/>
</svg>
