<?xml version="1.0" encoding="iso-8859-1"?>
<!-- Generator: Adobe Illustrator 12.0.1, SVG Export Plug-In . SVG Version: 6.00 Build 51448)  -->
<!DOCTYPE svg PUBLIC "-//W3C//DTD SVG 1.1//EN" "http://www.w3.org/Graphics/SVG/1.1/DTD/svg11.dtd" [
	<!ENTITY ns_svg "http://www.w3.org/2000/svg">
	<!ENTITY ns_xlink "http://www.w3.org/1999/xlink">
]>
<svg  version="1.1" id="&#x56FE;&#x5C42;_1" xmlns="&ns_svg;" xmlns:xlink="&ns_xlink;" width="20.083" height="21.596"
	 viewBox="0 0 20.083 21.596" style="overflow:visible;enable-background:new 0 0 20.083 21.596;" xml:space="preserve">
<g>
	
		<linearGradient id="XMLID_3_" gradientUnits="userSpaceOnUse" x1="10.0464" y1="67.3037" x2="10.0464" y2="87.8872" gradientTransform="matrix(1 0 0 -1 0 88.3457)">
		<stop  offset="0" style="stop-color:#FFFFFF"/>
		<stop  offset="0.0828" style="stop-color:#FBFBFB"/>
		<stop  offset="0.1732" style="stop-color:#EEEDED"/>
		<stop  offset="0.2672" style="stop-color:#D8D8D8"/>
		<stop  offset="0.363" style="stop-color:#BAB9B9"/>
		<stop  offset="0.4213" style="stop-color:#A4A3A3"/>
		<stop  offset="0.9663" style="stop-color:#4C4B4B"/>
	</linearGradient>
	<path style="fill:url(#XMLID_3_);stroke:#000000;stroke-width:0.5;" d="M14.849,21.042l0.146-3.323
		c-2.476-0.395-7.029,0.667-8.979-6.353C4.749,6.804,2.938,6.97,0.395,6.526L0.26,3.352c0,0,6.397-0.651,8.541,6.55
		c1.558,5.232,4.126,4.134,6.194,4.471l0.146-3.407l4.691,4.767v1.166L14.849,21.042z"/>
	
		<linearGradient id="XMLID_4_" gradientUnits="userSpaceOnUse" x1="10.0464" y1="41.4697" x2="10.0464" y2="62.0521" gradientTransform="matrix(1 0 0 1 0 -40.918)">
		<stop  offset="0" style="stop-color:#FFFFFF"/>
		<stop  offset="0.0828" style="stop-color:#FBFBFB"/>
		<stop  offset="0.1732" style="stop-color:#EEEDED"/>
		<stop  offset="0.2672" style="stop-color:#D8D8D8"/>
		<stop  offset="0.363" style="stop-color:#BAB9B9"/>
		<stop  offset="0.4213" style="stop-color:#A4A3A3"/>
		<stop  offset="0.9663" style="stop-color:#4C4B4B"/>
	</linearGradient>
	<path style="fill:url(#XMLID_4_);stroke:#000000;stroke-width:0.5;" d="M14.849,0.552l0.137,3.411
		c-2.552,0.253-7.019-0.754-8.969,6.265c-1.268,4.563-3.078,4.396-5.621,4.84L0.26,18.241c0,0,6.397,0.652,8.541-6.549
		c1.558-5.232,4.789-4.542,6.194-4.471l0.146,3.407l4.691-4.767V4.696L14.849,0.552z"/>
</g>
</svg>
