<?xml version="1.0" encoding="iso-8859-1"?>
<!-- Generator: Adobe Illustrator 12.0.0, SVG Export Plug-In . SVG Version: 6.00 Build 51448)  -->
<!DOCTYPE svg PUBLIC "-//W3C//DTD SVG 1.1//EN" "http://www.w3.org/Graphics/SVG/1.1/DTD/svg11.dtd" [
	<!ENTITY ns_svg "http://www.w3.org/2000/svg">
	<!ENTITY ns_xlink "http://www.w3.org/1999/xlink">
]>
<svg  version="1.1" id="&#xCD;_xBC__xB2_&#xE3;_x5F_1" xmlns="&ns_svg;" xmlns:xlink="&ns_xlink;" width="37.01" height="34.459"
	 viewBox="0 0 37.01 34.459" style="overflow:visible;enable-background:new 0 0 37.01 34.459;" xml:space="preserve">
<g>
	<g>
		
			<linearGradient id="XMLID_8_" gradientUnits="userSpaceOnUse" x1="76.4102" y1="-9.5488" x2="76.6485" y2="-3.4703" gradientTransform="matrix(0.9992 0.04 -0.0376 0.9349 -73.5768 17.7551)">
			<stop  offset="0" style="stop-color:#B87025"/>
			<stop  offset="0.4382" style="stop-color:#FFD58A"/>
			<stop  offset="0.4602" style="stop-color:#FFD486"/>
			<stop  offset="0.4896" style="stop-color:#FED27A"/>
			<stop  offset="0.5229" style="stop-color:#FCCE62"/>
			<stop  offset="0.5506" style="stop-color:#FACA44"/>
			<stop  offset="0.8539" style="stop-color:#EAAD12"/>
			<stop  offset="0.9359" style="stop-color:#D19213"/>
			<stop  offset="0.9831" style="stop-color:#C28211"/>
		</linearGradient>
		<path style="fill:url(#XMLID_8_);stroke:#363639;stroke-width:0.25;" d="M6.144,15.578c-0.101,2.63-1.528,4.71-3.188,4.648
			c-1.66-0.063-2.926-2.247-2.826-4.877c0.101-2.63,1.528-4.711,3.188-4.649C4.979,10.765,6.245,12.947,6.144,15.578z"/>
		
			<linearGradient id="XMLID_9_" gradientUnits="userSpaceOnUse" x1="100.228" y1="-28.5977" x2="98.6005" y2="-15.2041" gradientTransform="matrix(0.9947 0.103 -0.103 0.9947 -92.2653 26.2165)">
			<stop  offset="0" style="stop-color:#B87025"/>
			<stop  offset="0.4382" style="stop-color:#FFEB91"/>
			<stop  offset="0.4602" style="stop-color:#FFEB8D"/>
			<stop  offset="0.4896" style="stop-color:#FFEA80"/>
			<stop  offset="0.5229" style="stop-color:#FFEA66"/>
			<stop  offset="0.5506" style="stop-color:#FFE944"/>
			<stop  offset="0.8539" style="stop-color:#EAAD12"/>
			<stop  offset="0.9359" style="stop-color:#D19213"/>
			<stop  offset="0.9831" style="stop-color:#C28211"/>
		</linearGradient>
		<path style="fill:url(#XMLID_9_);stroke:#363639;stroke-width:0.5;" d="M13.058,26.972c0,0-8.029-3.48-9.881-5.686
			S1.38,12.933,3.667,9.985C5.952,7.038,15.729,4.07,15.729,4.07L13.058,26.972z"/>
		
			<linearGradient id="XMLID_10_" gradientUnits="userSpaceOnUse" x1="72.7788" y1="-45.0396" x2="69.2439" y2="-15.9484" gradientTransform="matrix(0.9991 -0.0418 0.0418 0.9991 -51.3269 49.4931)">
			<stop  offset="0" style="stop-color:#DD9C30"/>
			<stop  offset="0.1798" style="stop-color:#FFEB91"/>
			<stop  offset="0.3382" style="stop-color:#FFEB8C"/>
			<stop  offset="0.5494" style="stop-color:#FEEC7F"/>
			<stop  offset="0.5506" style="stop-color:#FEEC7E"/>
			<stop  offset="1" style="stop-color:#EAAD12"/>
		</linearGradient>
		<path style="fill:url(#XMLID_10_);stroke:#1E1E1F;stroke-width:0.5;" d="M28.956,16.265c-0.426,8.079-5.524,14.532-11.385,14.417
			c-5.859-0.117-10.264-6.756-9.834-14.833C8.164,7.772,13.259,1.319,19.119,1.435C24.981,1.551,29.384,8.19,28.956,16.265z"/>
		
			<radialGradient id="XMLID_11_" cx="79.0796" cy="-42.6362" r="19.1317" gradientTransform="matrix(0.8893 0.0175 -0.0425 0.801 -43.5831 48.5285)" gradientUnits="userSpaceOnUse">
			<stop  offset="0.0787" style="stop-color:#FFE8A0"/>
			<stop  offset="0.1619" style="stop-color:#FFE59A"/>
			<stop  offset="0.2732" style="stop-color:#FDDD8A"/>
			<stop  offset="0.4002" style="stop-color:#F8D072"/>
			<stop  offset="0.539" style="stop-color:#F2C04C"/>
			<stop  offset="0.6859" style="stop-color:#EAAE16"/>
			<stop  offset="0.6966" style="stop-color:#EAAD12"/>
			<stop  offset="0.8783" style="stop-color:#D19213"/>
			<stop  offset="0.9831" style="stop-color:#C28211"/>
		</radialGradient>
		<path style="fill:url(#XMLID_11_);" d="M28.235,16.545c-0.396,7.484-4.898,13.468-10.055,13.365
			c-5.158-0.102-9.017-6.248-8.621-13.732C9.957,8.693,14.458,2.709,19.615,2.812C24.771,2.911,28.631,9.061,28.235,16.545z"/>
		<path style="opacity:0.51;fill:#673D1C;" d="M14.69,16.792c-0.171,2.633-1.438,4.739-2.829,4.7
			c-1.392-0.041-2.387-2.209-2.219-4.847c0.167-2.635,1.436-4.743,2.827-4.702C13.863,11.983,14.853,14.155,14.69,16.792z"/>
	</g>
	
		<radialGradient id="XMLID_12_" cx="4.168" cy="16.2085" r="19.0359" gradientTransform="matrix(0.9249 0 0 1 33.0376 0)" gradientUnits="userSpaceOnUse">
		<stop  offset="0.0787" style="stop-color:#00AE4F"/>
		<stop  offset="0.1259" style="stop-color:#00AF50"/>
		<stop  offset="0.1889" style="stop-color:#2DB453"/>
		<stop  offset="0.2609" style="stop-color:#5EBB59"/>
		<stop  offset="0.3396" style="stop-color:#89C762"/>
		<stop  offset="0.4229" style="stop-color:#B9D772"/>
		<stop  offset="0.427" style="stop-color:#BBD973"/>
		<stop  offset="0.5457" style="stop-color:#A0CF6A"/>
		<stop  offset="0.8002" style="stop-color:#53B957"/>
		<stop  offset="0.9831" style="stop-color:#00AB4E"/>
	</radialGradient>
	<path style="fill:url(#XMLID_12_);stroke:#9EA4AB;stroke-width:0.5;" d="M31.427,34.021l-3.468-4.25c0,0,8.89-14.625-0.077-26.083
		l3.623-3.333C43.375,13.438,31.427,34.021,31.427,34.021z"/>
	
		<radialGradient id="XMLID_13_" cx="-211.6006" cy="-33.2324" r="19.0365" gradientTransform="matrix(0.6315 0 0 0.7005 161.0318 39.7402)" gradientUnits="userSpaceOnUse">
		<stop  offset="0.0787" style="stop-color:#00AE4F"/>
		<stop  offset="0.1259" style="stop-color:#00AF50"/>
		<stop  offset="0.1889" style="stop-color:#2DB453"/>
		<stop  offset="0.2609" style="stop-color:#5EBB59"/>
		<stop  offset="0.3396" style="stop-color:#89C762"/>
		<stop  offset="0.4229" style="stop-color:#B9D772"/>
		<stop  offset="0.427" style="stop-color:#BBD973"/>
		<stop  offset="0.5457" style="stop-color:#A0CF6A"/>
		<stop  offset="0.8002" style="stop-color:#53B957"/>
		<stop  offset="0.9831" style="stop-color:#00AB4E"/>
	</radialGradient>
	<path style="fill:url(#XMLID_13_);stroke:#505757;stroke-width:0.5;" d="M23.674,28.939l-2.368-2.977c0,0,6.07-10.246-0.052-18.273
		l2.474-2.334C31.833,14.521,23.674,28.939,23.674,28.939z"/>
	
		<radialGradient id="XMLID_14_" cx="-681.8257" cy="-160.7573" r="19.0354" gradientTransform="matrix(0.3649 0 0 0.3985 270.7727 81.4848)" gradientUnits="userSpaceOnUse">
		<stop  offset="0.0787" style="stop-color:#00AE4F"/>
		<stop  offset="0.1259" style="stop-color:#00AF50"/>
		<stop  offset="0.1889" style="stop-color:#2DB453"/>
		<stop  offset="0.2609" style="stop-color:#5EBB59"/>
		<stop  offset="0.3396" style="stop-color:#89C762"/>
		<stop  offset="0.4229" style="stop-color:#B9D772"/>
		<stop  offset="0.427" style="stop-color:#BBD973"/>
		<stop  offset="0.5457" style="stop-color:#A0CF6A"/>
		<stop  offset="0.8002" style="stop-color:#53B957"/>
		<stop  offset="0.9831" style="stop-color:#00AB4E"/>
	</radialGradient>
	<path style="fill:url(#XMLID_14_);stroke:#363639;stroke-width:0.5;" d="M19.818,24.521l-1.368-1.693c0,0,3.508-5.828-0.03-10.394
		l1.429-1.328C24.533,16.319,19.818,24.521,19.818,24.521z"/>
</g>
</svg>
