<?xml version="1.0" encoding="iso-8859-1"?>
<!-- Generator: Adobe Illustrator 12.0.1, SVG Export Plug-In . SVG Version: 6.00 Build 51448)  -->
<!DOCTYPE svg PUBLIC "-//W3C//DTD SVG 1.1//EN" "http://www.w3.org/Graphics/SVG/1.1/DTD/svg11.dtd" [
	<!ENTITY ns_svg "http://www.w3.org/2000/svg">
	<!ENTITY ns_xlink "http://www.w3.org/1999/xlink">
]>
<svg  version="1.1" id="&#x56FE;&#x5C42;_1" xmlns="&ns_svg;" xmlns:xlink="&ns_xlink;" width="28.225" height="27.894"
	 viewBox="0 0 28.225 27.894" style="overflow:visible;enable-background:new 0 0 28.225 27.894;" xml:space="preserve">
<g>
	
		<linearGradient id="XMLID_7_" gradientUnits="userSpaceOnUse" x1="-7.6133" y1="-29.3315" x2="-3.7659" y2="-30.9449" gradientTransform="matrix(0.9968 -0.0791 0.0791 0.9968 17.4228 45.8521)">
		<stop  offset="0.0056" style="stop-color:#424242"/>
		<stop  offset="0.3202" style="stop-color:#FFFFFF"/>
		<stop  offset="0.736" style="stop-color:#CCCCCC"/>
		<stop  offset="1" style="stop-color:#424242"/>
	</linearGradient>
	<path style="fill:url(#XMLID_7_);stroke:#000000;stroke-width:0.25;" d="M2.783,7.748c0,0,8.268,17.184,9.844,19.262
		c1.579,2.078,8.031-0.472,8.516-3.253C21.631,20.972,9.36,2.069,9.36,2.069S7.49,2.056,6.62,2.583
		C5.99,2.961,3.988,4.075,3.728,4.47C3.469,4.865,2.783,7.748,2.783,7.748z"/>
	
		<linearGradient id="XMLID_8_" gradientUnits="userSpaceOnUse" x1="-8.1143" y1="-31.8804" x2="5.5186" y2="-31.8804" gradientTransform="matrix(0.9968 -0.0791 0.0791 0.9968 17.4228 45.8521)">
		<stop  offset="0.1067" style="stop-color:#ECECEC"/>
		<stop  offset="0.3202" style="stop-color:#FFFFFF"/>
		<stop  offset="0.736" style="stop-color:#CCCCCC"/>
		<stop  offset="1" style="stop-color:#424242"/>
	</linearGradient>
	<path style="fill:url(#XMLID_8_);stroke:#000000;stroke-width:0.25;" d="M6.267,2.897c0,0,0.933-0.822,2.569-1.163
		c1.635-0.336,2.618-0.537,3.57,0.467c0.957,1.006,5.268,10.311,7.115,14.736c0,0,2.502,5.835,1.276,7.679
		c-1.228,1.842-3.541,3.066-4.876,1.468c-1.33-1.601-8.154-17.946-8.969-19.835C6.139,4.361,5.52,3.453,6.267,2.897z"/>
	
		<linearGradient id="XMLID_9_" gradientUnits="userSpaceOnUse" x1="-6.5674" y1="-34.48" x2="4.335" y2="-34.48" gradientTransform="matrix(0.9968 -0.0791 0.0791 0.9968 17.4228 45.8521)">
		<stop  offset="0" style="stop-color:#F3E855"/>
		<stop  offset="0.9831" style="stop-color:#F3B711"/>
	</linearGradient>
	<path style="fill:url(#XMLID_9_);stroke:#000000;stroke-width:0.25;" d="M7.877,5.927C7.518,4.999,7.205,4.239,8.795,3.821
		c1.589-0.417,3.732-1.109,4.188-0.538c0.968,1.209,5.768,10.989,6.465,13.787c0.22,0.87-0.024,1.248-0.972,1.363
		c-0.588,0.076-0.967-0.128-1.725,0.807c-0.757,0.931-1.948,1.109-2.555,0.284C13.141,18.084,8.24,6.855,7.877,5.927z"/>
	
		<linearGradient id="XMLID_10_" gradientUnits="userSpaceOnUse" x1="-9.2129" y1="-48.3267" x2="-7.064" y2="-49.3184" gradientTransform="matrix(0.9023 0.0193 -0.0158 0.7697 9.0454 41.318)">
		<stop  offset="0.0056" style="stop-color:#4F4F4F"/>
		<stop  offset="0.3202" style="stop-color:#FFFFFF"/>
		<stop  offset="0.736" style="stop-color:#CCCCCC"/>
		<stop  offset="1" style="stop-color:#424242"/>
	</linearGradient>
	<path style="fill:url(#XMLID_10_);stroke:#000000;stroke-width:0.25;" d="M0.191,1.587c0,0-0.305-0.558,0.393-0.945
		c0.18-0.101,0.17-0.095,0.627-0.286c0.307-0.128,0.92-0.11,1.275,0.582C2.832,1.608,4.682,5.26,4.682,5.26s0.286,0.679-0.398,1.176
		C3.602,6.93,3.146,7.081,2.852,6.913C2.558,6.75,0.191,1.587,0.191,1.587z"/>
	<path style="fill:#98C724;stroke:#000000;stroke-width:0.25;stroke-linecap:round;stroke-linejoin:round;" d="M9.04,6.418
		c0,0,3.337-0.931,4.264-1.295l4.602,9.782l-3.925,1.894L9.04,6.418z"/>
</g>
<linearGradient id="XMLID_11_" gradientUnits="userSpaceOnUse" x1="23.0098" y1="9.2227" x2="23.0098" y2="0.25">
	<stop  offset="0" style="stop-color:#6FB7CD"/>
	<stop  offset="0.1914" style="stop-color:#64A7C6"/>
	<stop  offset="0.5643" style="stop-color:#477EB3"/>
	<stop  offset="0.9719" style="stop-color:#224A9C"/>
</linearGradient>
<polygon style="fill:url(#XMLID_11_);stroke:#000000;stroke-width:0.5;stroke-linejoin:round;" points="27.726,4.924 23.091,0.25 
	23.167,3.259 18.294,3.175 18.4,6.492 23.272,6.488 23.322,9.223 "/>
<linearGradient id="XMLID_12_" gradientUnits="userSpaceOnUse" x1="23.3838" y1="13.353" x2="23.3838" y2="18.1653">
	<stop  offset="0" style="stop-color:#6FB7CD"/>
	<stop  offset="0.1914" style="stop-color:#64A7C6"/>
	<stop  offset="0.5643" style="stop-color:#477EB3"/>
	<stop  offset="0.9719" style="stop-color:#224A9C"/>
</linearGradient>
<polygon style="fill:url(#XMLID_12_);stroke:#1D2100;stroke-width:0.5;stroke-linejoin:round;" points="18.793,14.945 
	23.428,10.271 23.352,13.28 27.975,13.28 27.868,16.596 23.246,16.509 23.196,19.244 "/>
</svg>
