<?xml version="1.0" encoding="utf-8"?>
<!-- Generator: Adobe Illustrator 13.0.2, SVG Export Plug-In . SVG Version: 6.00 Build 14948)  -->
<!DOCTYPE svg PUBLIC "-//W3C//DTD SVG 1.1//EN" "http://www.w3.org/Graphics/SVG/1.1/DTD/svg11.dtd">
<svg version="1.1" id="Layer_1" xmlns="http://www.w3.org/2000/svg" xmlns:xlink="http://www.w3.org/1999/xlink" x="0px" y="0px"
	 width="24px" height="24px" viewBox="0 0 24 24" enable-background="new 0 0 24 24" xml:space="preserve">
<path opacity="0.45" enable-background="new    " d="M9.725,23.421L9.04,13.45l8.797-4.345L18.045,9L27,13.443l-0.629,9.98
	L18.018,29L9.725,23.421L9.725,23.421z"/>
<polygon fill="#80C342" points="26.512,13.73 25.916,23.162 18.018,28.432 17.986,18.65 "/>
<polygon fill="#024C1C" points="18.018,28.432 10.181,23.16 9.534,13.734 17.986,18.65 "/>
<polygon fill="#347B2B" points="17.986,18.65 9.534,13.734 18.047,9.529 26.512,13.73 "/>
<g>
	<path fill="#80C342" d="M16,16.162C16,17.174,15.173,18,14.162,18L3,17.996V6.841C3,5.83,3.827,5.003,4.838,5.003L16,5V16.162z"/>
	<g>
		<path fill="#FFFFFF" d="M8.784,16.502c-0.643,0-1.132-0.129-1.47-0.387c-0.338-0.256-0.583-0.709-0.738-1.355
			c-0.706-0.176-1.24-0.584-1.602-1.225C4.61,12.896,4.43,11.984,4.43,10.798c0-1.279,0.249-2.239,0.748-2.881
			c0.5-0.641,1.249-0.962,2.248-0.962c0.992,0,1.737,0.321,2.234,0.962c0.498,0.642,0.747,1.602,0.747,2.881
			c0,1.173-0.183,2.089-0.55,2.751c-0.366,0.662-0.916,1.07-1.648,1.221c0.072,0.31,0.184,0.521,0.332,0.642
			s0.402,0.178,0.762,0.178v0.914L8.784,16.502L8.784,16.502z M7.426,7.972c-0.391,0-0.685,0.188-0.882,0.562
			c-0.196,0.375-0.295,1.13-0.295,2.264c0,1.097,0.097,1.876,0.29,2.341s0.49,0.697,0.887,0.697c0.381,0,0.67-0.203,0.869-0.609
			c0.199-0.404,0.297-1.214,0.297-2.429c0-1.089-0.098-1.832-0.295-2.229C8.1,8.17,7.809,7.972,7.426,7.972z"/>
		<path fill="#FFFFFF" d="M14.57,14.641c-0.538,0.144-1.061,0.213-1.562,0.213c-0.546,0-0.948-0.119-1.207-0.356
			c-0.26-0.24-0.39-0.604-0.39-1.095v-3.75h-0.58v-0.98h0.711l0.456-1.525h1.136v1.525h1.338v0.98h-1.338v3.494
			c0,0.306,0.045,0.504,0.135,0.597c0.09,0.09,0.233,0.137,0.431,0.137c0.263,0,0.554-0.047,0.872-0.142v0.902H14.57z"/>
	</g>
</g>
</svg>
