<?xml version="1.0" encoding="iso-8859-1"?>
<!-- Generator: Adobe Illustrator 12.0.1, SVG Export Plug-In . SVG Version: 6.00 Build 51448)  -->
<!DOCTYPE svg PUBLIC "-//W3C//DTD SVG 1.1//EN" "http://www.w3.org/Graphics/SVG/1.1/DTD/svg11.dtd" [
	<!ENTITY ns_svg "http://www.w3.org/2000/svg">
	<!ENTITY ns_xlink "http://www.w3.org/1999/xlink">
]>
<svg  version="1.1" id="&#x56FE;&#x5C42;_1" xmlns="&ns_svg;" xmlns:xlink="&ns_xlink;" width="17.898" height="21.254"
	 viewBox="0 0 17.898 21.254" style="overflow:visible;enable-background:new 0 0 17.898 21.254;" xml:space="preserve">
<g>
	<g>
		<linearGradient id="XMLID_2_" gradientUnits="userSpaceOnUse" x1="8.9492" y1="18.2246" x2="8.9492" y2="4.7243">
			<stop  offset="0" style="stop-color:#FFFFFF"/>
			<stop  offset="0.4561" style="stop-color:#C7C7C7"/>
			<stop  offset="0.812" style="stop-color:#A2A2A2"/>
			<stop  offset="1" style="stop-color:#949494"/>
		</linearGradient>
		<path style="fill:url(#XMLID_2_);stroke:#000000;stroke-width:0.75;" d="M0.375,0.375h8.183c1.619,0,2.829,0.067,3.624,0.203
			c0.797,0.135,1.507,0.417,2.137,0.846c0.628,0.428,1.149,0.998,1.569,1.711s0.63,1.512,0.63,2.396c0,0.96-0.258,1.84-0.774,2.641
			s-1.216,1.402-2.096,1.803c1.243,0.363,2.203,0.984,2.872,1.862c0.669,0.876,1.004,1.907,1.004,3.094
			c0,0.933-0.217,1.841-0.65,2.722c-0.432,0.883-1.022,1.586-1.773,2.114c-0.748,0.528-1.673,0.853-2.771,0.974
			c-0.688,0.074-2.35,0.121-4.984,0.139H0.375V0.375z M4.513,3.785v4.735h2.706c1.609,0,2.608-0.022,2.999-0.069
			c0.707-0.084,1.262-0.329,1.667-0.733c0.402-0.405,0.607-0.938,0.607-1.6c0-0.634-0.176-1.147-0.523-1.544
			c-0.35-0.395-0.869-0.635-1.557-0.719c-0.409-0.046-1.584-0.07-3.527-0.07H4.513z M4.513,11.932v5.48h3.826
			c1.491,0,2.436-0.041,2.836-0.125c0.615-0.113,1.112-0.385,1.501-0.818c0.387-0.434,0.58-1.014,0.58-1.74
			c0-0.617-0.149-1.138-0.448-1.566c-0.298-0.428-0.727-0.741-1.291-0.937c-0.563-0.196-1.784-0.294-3.667-0.294H4.513z"/>
	</g>
	<path style="opacity:0.55;fill:#FFFFFF;" d="M14.83,2.396c0,0-0.922-1.406-3.411-1.577C10.164,0.734,0.721,0.709,0.721,0.709
		L0.67,20.444l0.613-0.001l0.25-19.125c0,0,6.635-0.184,9.886-0.135C13.513,1.214,14.83,2.396,14.83,2.396z"/>
</g>
</svg>
