<?xml version="1.0" encoding="iso-8859-1"?>
<!-- Generator: Adobe Illustrator 12.0.1, SVG Export Plug-In . SVG Version: 6.00 Build 51448)  -->
<!DOCTYPE svg PUBLIC "-//W3C//DTD SVG 1.1//EN" "http://www.w3.org/Graphics/SVG/1.1/DTD/svg11.dtd" [
	<!ENTITY ns_svg "http://www.w3.org/2000/svg">
	<!ENTITY ns_xlink "http://www.w3.org/1999/xlink">
]>
<svg  version="1.1" id="&#x56FE;&#x5C42;_1" xmlns="&ns_svg;" xmlns:xlink="&ns_xlink;" width="19.73" height="19.834"
	 viewBox="0 0 19.73 19.834" style="overflow:visible;enable-background:new 0 0 19.73 19.834;" xml:space="preserve">
<g>
	<g>
		<linearGradient id="XMLID_2_" gradientUnits="userSpaceOnUse" x1="9.8652" y1="19.5024" x2="9.8652" y2="-0.0811">
			<stop  offset="0.3258" style="stop-color:#FFF7F7"/>
			<stop  offset="1" style="stop-color:#B8B8AF"/>
		</linearGradient>
		<rect x="0.5" y="0.5" style="fill:url(#XMLID_2_);stroke:#000000;" width="18.73" height="18.834"/>
		<rect x="0.949" y="1.003" style="fill:#6C6CDA;" width="17.842" height="3.5"/>
		<rect x="0.949" y="2.669" style="fill:#6C6CDA;" width="17.811" height="1.834"/>
		<polygon style="fill:#BFBFBF;" points="18.01,1.001 17.934,17.752 0.95,17.711 0.949,19.002 19.153,19.168 19.229,1.001 		"/>
		<rect x="2.74" y="6.169" style="fill:#8F8F8F;" width="1.219" height="1.167"/>
		<rect x="5.675" y="6.169" style="fill:#8F8F8F;" width="1.219" height="1.167"/>
		<rect x="9.256" y="6.169" style="fill:#8F8F8F;" width="1.219" height="1.167"/>
		<rect x="12.571" y="6.169" style="fill:#8F8F8F;" width="1.218" height="1.167"/>
		<rect x="16.038" y="6.169" style="fill:#8F8F8F;" width="1.22" height="1.167"/>
		<rect x="2.74" y="8.669" style="fill:#8F8F8F;" width="1.219" height="1.167"/>
		<rect x="5.675" y="8.669" style="fill:#8F8F8F;" width="1.219" height="1.167"/>
		<rect x="9.256" y="8.669" style="fill:#8F8F8F;" width="1.219" height="1.167"/>
		<rect x="12.571" y="8.669" style="fill:#8F8F8F;" width="1.218" height="1.167"/>
		<rect x="16.038" y="8.669" style="fill:#8F8F8F;" width="1.22" height="1.167"/>
		<rect x="2.74" y="11.335" style="fill:#8F8F8F;" width="1.219" height="1.167"/>
		<rect x="8.117" y="10.252" style="fill:#CC0000;" width="3.583" height="3.583"/>
		<rect x="5.675" y="11.335" style="fill:#8F8F8F;" width="1.219" height="1.167"/>
		<rect x="9.256" y="11.335" style="fill:#8F8F8F;" width="1.219" height="1.167"/>
		<rect x="12.571" y="11.335" style="fill:#8F8F8F;" width="1.218" height="1.167"/>
		<rect x="16.038" y="11.335" style="fill:#8F8F8F;" width="1.22" height="1.167"/>
		<rect x="2.816" y="14.294" style="fill:#8F8F8F;" width="1.219" height="1.167"/>
		<rect x="5.75" y="14.294" style="fill:#8F8F8F;" width="1.22" height="1.167"/>
		<rect x="9.332" y="14.294" style="fill:#8F8F8F;" width="1.219" height="1.167"/>
		<rect x="12.646" y="14.294" style="fill:#8F8F8F;" width="1.22" height="1.167"/>
		<rect x="16.115" y="14.294" style="fill:#8F8F8F;" width="1.218" height="1.167"/>
	</g>
	<g>
		<g style="opacity:0.56;">
			<polygon points="10.604,5.11 10.604,1.832 9.092,1.832 9.092,5.11 4.945,5.11 7.405,7.982 9.865,10.853 12.324,7.982 
				14.785,5.11 			"/>
			<polygon style="fill:none;stroke:#000000;stroke-width:0.75;stroke-linejoin:round;" points="10.604,5.11 10.604,1.832 
				9.092,1.832 9.092,5.11 4.945,5.11 7.405,7.982 9.865,10.853 12.324,7.982 14.785,5.11 			"/>
		</g>
		<g>
			<polygon style="fill:#FF0000;" points="10.604,4.259 10.604,0.981 9.092,0.981 9.092,4.259 4.945,4.259 7.405,7.131 
				9.865,10.002 12.324,7.131 14.785,4.259 			"/>
			<polygon style="fill:none;stroke:#1C0000;stroke-width:0.75;stroke-linejoin:round;" points="10.604,4.259 10.604,0.981 
				9.092,0.981 9.092,4.259 4.945,4.259 7.405,7.131 9.865,10.002 12.324,7.131 14.785,4.259 			"/>
		</g>
	</g>
</g>
</svg>
