<?xml version="1.0" encoding="iso-8859-1"?>
<!-- Generator: Adobe Illustrator 12.0.1, SVG Export Plug-In . SVG Version: 6.00 Build 51448)  -->
<!DOCTYPE svg PUBLIC "-//W3C//DTD SVG 1.1//EN" "http://www.w3.org/Graphics/SVG/1.1/DTD/svg11.dtd" [
	<!ENTITY ns_svg "http://www.w3.org/2000/svg">
	<!ENTITY ns_xlink "http://www.w3.org/1999/xlink">
]>
<svg  version="1.1" id="&#xCD;_xBC__xB2_&#xE3;_x5F_1" xmlns="&ns_svg;" xmlns:xlink="&ns_xlink;" width="20.416" height="20.417"
	 viewBox="0 0 20.416 20.417" overflow="visible" enable-background="new 0 0 20.416 20.417" xml:space="preserve">
<g>
	<linearGradient id="XMLID_6_" gradientUnits="userSpaceOnUse" x1="4.7842" y1="10.2422" x2="15.7878" y2="10.2422">
		<stop  offset="0.0112" style="stop-color:#828282"/>
		<stop  offset="0.3285" style="stop-color:#C7C7C7"/>
		<stop  offset="0.573" style="stop-color:#FFFFFF"/>
		<stop  offset="0.6175" style="stop-color:#EFEFEF"/>
		<stop  offset="0.7971" style="stop-color:#B5B5B5"/>
		<stop  offset="0.9297" style="stop-color:#909090"/>
		<stop  offset="1" style="stop-color:#828282"/>
	</linearGradient>
	<path fill="url(#XMLID_6_)" stroke="#000000" stroke-width="0.5" d="M17.001,7.812l0.14-3.482
		c-0.137-2.292-3.216-3.991-7.097-3.991c-4.137,0-7.443,2.104-7.188,4.543C2.871,5.081,3.154,7.86,3.154,7.86l0.721,0.556
		l0.647,8.157c0.145,1.864,2.685,3.572,5.718,3.572s5.52-1.303,5.803-3.542l0.338-8.335L17.001,7.812z"/>
	<g>
		<linearGradient id="XMLID_7_" gradientUnits="userSpaceOnUse" x1="3.1035" y1="4.1875" x2="16.8799" y2="4.1875">
			<stop  offset="0.0112" style="stop-color:#828282"/>
			<stop  offset="0.1441" style="stop-color:#A5A5A5"/>
			<stop  offset="0.2833" style="stop-color:#C3C3C3"/>
			<stop  offset="0.4031" style="stop-color:#D5D5D5"/>
			<stop  offset="0.4888" style="stop-color:#DBDBDB"/>
			<stop  offset="0.5807" style="stop-color:#D5D5D5"/>
			<stop  offset="0.7079" style="stop-color:#C3C3C3"/>
			<stop  offset="0.855" style="stop-color:#A6A6A6"/>
			<stop  offset="1" style="stop-color:#828282"/>
		</linearGradient>
		<path fill="url(#XMLID_7_)" d="M16.88,4.233c0,1.962-3.221,3.581-6.858,3.581c-3.636,0-6.918-1.467-6.918-3.429
			s3.251-3.824,6.889-3.824C13.628,0.562,16.88,2.272,16.88,4.233z"/>
		<g>
			<linearGradient id="XMLID_8_" gradientUnits="userSpaceOnUse" x1="7.376" y1="3.082" x2="12.583" y2="3.082">
				<stop  offset="0.0112" style="stop-color:#828282"/>
				<stop  offset="0.0803" style="stop-color:#919191"/>
				<stop  offset="0.2453" style="stop-color:#AEAEAE"/>
				<stop  offset="0.3872" style="stop-color:#C0C0C0"/>
				<stop  offset="0.4888" style="stop-color:#C7C7C7"/>
				<stop  offset="0.5975" style="stop-color:#C1C1C1"/>
				<stop  offset="0.7481" style="stop-color:#AFAFAF"/>
				<stop  offset="0.9224" style="stop-color:#919191"/>
				<stop  offset="1" style="stop-color:#828282"/>
			</linearGradient>
			<polygon fill="url(#XMLID_8_)" stroke="#707070" stroke-width="0.25" points="11.824,3.497 11.537,1.817 8.335,1.812 
				8.134,3.521 7.376,3.569 7.414,4.353 8.38,4.254 8.587,2.946 11.315,2.952 11.579,4.254 12.556,4.295 12.583,3.497 			"/>
			
				<linearGradient id="XMLID_9_" gradientUnits="userSpaceOnUse" x1="2.8745" y1="-6.0044" x2="9.3809" y2="-6.0044" gradientTransform="matrix(0.7997 0 0 -0.5757 5.1062 1.5233)">
				<stop  offset="0.0112" style="stop-color:#828282"/>
				<stop  offset="0.0803" style="stop-color:#919191"/>
				<stop  offset="0.2453" style="stop-color:#AEAEAE"/>
				<stop  offset="0.3872" style="stop-color:#C0C0C0"/>
				<stop  offset="0.4888" style="stop-color:#C7C7C7"/>
				<stop  offset="0.5975" style="stop-color:#C1C1C1"/>
				<stop  offset="0.7481" style="stop-color:#AFAFAF"/>
				<stop  offset="0.9224" style="stop-color:#919191"/>
				<stop  offset="1" style="stop-color:#828282"/>
			</linearGradient>
			<polygon fill="url(#XMLID_9_)" points="11.856,4.701 11.455,5.689 8.371,5.718 8.196,4.688 7.468,4.718 7.405,4.312 8.419,4.241 
				8.646,5.019 11.352,5.015 11.567,4.285 12.556,4.295 12.608,4.701 			"/>
		</g>
	</g>
</g>
<path opacity="0.76" fill="#6D6D6D" d="M16.803,7.208c-0.69,1.525-3.395,2.758-6.583,2.758c-3.319,0-6.335-1.187-6.854-2.819
	L3.77,9.777c0,0,1.897,2.336,6.364,2.276c4.554-0.062,6.423-2.602,6.423-2.602C16.549,9.361,16.803,7.208,16.803,7.208z"/>
<polygon opacity="0.76" fill="#6D6D6D" points="10.662,18.411 9.517,18.411 9.434,9.82 10.63,9.82 "/>
<polygon opacity="0.76" fill="#6D6D6D" points="13.855,17.792 12.813,18.146 12.882,9.597 14.001,9.292 "/>
<polygon opacity="0.76" fill="#6D6D6D" points="7.626,18.167 6.73,17.813 6.24,9.271 7.436,9.426 "/>
<linearGradient id="XMLID_10_" gradientUnits="userSpaceOnUse" x1="2.855" y1="7.624" x2="17.0635" y2="7.624">
	<stop  offset="0.0112" style="stop-color:#828282"/>
	<stop  offset="0.3285" style="stop-color:#C7C7C7"/>
	<stop  offset="0.573" style="stop-color:#FFFFFF"/>
	<stop  offset="0.6175" style="stop-color:#EFEFEF"/>
	<stop  offset="0.7971" style="stop-color:#B5B5B5"/>
	<stop  offset="0.9297" style="stop-color:#909090"/>
	<stop  offset="1" style="stop-color:#828282"/>
</linearGradient>
<path fill="url(#XMLID_10_)" stroke="#000000" stroke-width="0.5" d="M17.063,5.125c-0.69,1.526-3.654,2.932-6.843,2.932
	c-3.319,0-6.846-1.321-7.366-2.953L3.154,7.86c0,0,2.514,2.343,6.98,2.283c4.554-0.062,6.767-2.437,6.767-2.437
	C16.894,7.616,17.063,5.125,17.063,5.125z"/>
<polygon fill="#B2B2B2" points="11.756,3.817 11.412,2.489 8.428,2.505 8.209,3.849 7.521,3.849 7.537,4.192 8.287,4.13 
	8.459,2.849 11.412,2.833 11.678,4.114 12.443,4.161 12.459,3.849 "/>
<rect opacity="0" fill="#FFFFFF" width="20.416" height="20.417"/>
</svg>
