<?xml version="1.0" encoding="iso-8859-1"?>
<!-- Generator: Adobe Illustrator 12.0.1, SVG Export Plug-In . SVG Version: 6.00 Build 51448)  -->
<!DOCTYPE svg PUBLIC "-//W3C//DTD SVG 1.1//EN" "http://www.w3.org/Graphics/SVG/1.1/DTD/svg11.dtd" [
	<!ENTITY ns_svg "http://www.w3.org/2000/svg">
	<!ENTITY ns_xlink "http://www.w3.org/1999/xlink">
]>
<svg  version="1.1" id="&#x56FE;&#x5C42;_1" xmlns="&ns_svg;" xmlns:xlink="&ns_xlink;" width="21.75" height="21.829"
	 viewBox="0 0 21.75 21.829" style="overflow:visible;enable-background:new 0 0 21.75 21.829;" xml:space="preserve">
<linearGradient id="XMLID_2_" gradientUnits="userSpaceOnUse" x1="3.1055" y1="10.894" x2="19.2324" y2="10.894">
	<stop  offset="0" style="stop-color:#F4F4F4"/>
	<stop  offset="0.9783" style="stop-color:#E5E5E5"/>
	<stop  offset="1" style="stop-color:#E5E5E5"/>
</linearGradient>
<polygon style="fill:url(#XMLID_2_);stroke:#000000;" points="13.006,0.5 3.105,0.5 3.105,21.288 19.232,21.288 19.232,6.274 "/>
<polygon style="fill:#E0E2E1;" points="13.583,1.736 3.652,1.759 3.652,1.003 12.892,1.003 "/>
<polygon style="fill:#FFFFFF;stroke:#757575;" points="18.521,5.83 13.521,1.205 13.438,5.841 "/>
<rect x="4.912" y="9.821" style="fill:#FFFFFF;" width="12.18" height="10.416"/>
<rect x="5.753" y="11.081" style="fill:#212121;" width="4.787" height="0.841"/>
<rect x="11.464" y="11.081" style="fill:#212121;" width="4.788" height="0.841"/>
<rect x="5.835" y="13.014" style="fill:#212121;" width="8.82" height="0.839"/>
<rect x="5.751" y="15.619" style="fill:#212121;" width="4.453" height="0.838"/>
<rect x="11.884" y="15.534" style="fill:#212121;" width="4.452" height="0.841"/>
<rect y="0.079" style="fill:none;" width="21.75" height="21.75"/>
<rect x="5.753" y="17.971" style="fill:#212121;" width="10.247" height="0.839"/>
</svg>
