<?xml version="1.0" encoding="iso-8859-1"?>
<!-- Generator: Adobe Illustrator 12.0.1, SVG Export Plug-In . SVG Version: 6.00 Build 51448)  -->
<!DOCTYPE svg PUBLIC "-//W3C//DTD SVG 1.1//EN" "http://www.w3.org/Graphics/SVG/1.1/DTD/svg11.dtd" [
	<!ENTITY ns_svg "http://www.w3.org/2000/svg">
	<!ENTITY ns_xlink "http://www.w3.org/1999/xlink">
]>
<svg  version="1.1" id="&#x56FE;&#x5C42;_1" xmlns="&ns_svg;" xmlns:xlink="&ns_xlink;" width="15.834" height="15.834"
	 viewBox="0 0 15.834 15.834" style="overflow:visible;enable-background:new 0 0 15.834 15.834;" xml:space="preserve">
<rect style="fill:none;" width="15.834" height="15.834"/>
<linearGradient id="XMLID_2_" gradientUnits="userSpaceOnUse" x1="8.2412" y1="0.3149" x2="7.7535" y2="8.2267">
	<stop  offset="0" style="stop-color:#BFBFBF"/>
	<stop  offset="0.2088" style="stop-color:#C5C5C5"/>
	<stop  offset="0.4903" style="stop-color:#D6D6D6"/>
	<stop  offset="0.812" style="stop-color:#F2F2F2"/>
	<stop  offset="0.8876" style="stop-color:#FAFAFA"/>
</linearGradient>
<path style="fill:url(#XMLID_2_);stroke:#000000;stroke-width:0.5;" d="M10.587,4.188h2.345c-0.202-2.166-2.313-3.875-4.916-3.875
	c-2.737,0-4.956,1.883-4.956,4.206v3.419h2.293V4.773c0-1.313,1.192-2.378,2.663-2.378C9.259,2.396,10.293,3.159,10.587,4.188z"/>
<path style="opacity:0.57;fill:#FFFFFF;" d="M8.078,0.531c-2.737,0-4.797,1.756-4.797,4.078v3.328l0.571,0.001V5.102
	C3.852,2.779,5.888,1,8.625,1c0.912,0,1.926,0.307,2.656,0.672C10.398,0.95,9.404,0.531,8.078,0.531z"/>
<path style="opacity:0.57;fill:#FFFFFF;" d="M10.125,2.938c0.285,0.283,0.557,0.62,0.665,1.001h0.646
	C11.152,3.491,10.656,3.144,10.125,2.938z"/>
<rect x="1.728" y="7.125" style="fill:#F2CF35;stroke:#000000;stroke-width:0.5;" width="12.356" height="8.438"/>
<polygon style="fill:#F2CF35;" points="12.771,7.125 12.771,14.344 1.916,14.344 1.916,15.563 13.959,15.563 13.959,7.125 "/>
<polygon style="opacity:0.23;fill:#FFFFFF;" points="3.041,8.313 14.272,8.313 14.272,7.188 1.916,7.188 1.916,15.625 3.041,15.625 
	"/>
</svg>
