<?xml version="1.0" encoding="iso-8859-1"?>
<!-- Generator: Adobe Illustrator 12.0.1, SVG Export Plug-In . SVG Version: 6.00 Build 51448)  -->
<!DOCTYPE svg PUBLIC "-//W3C//DTD SVG 1.1//EN" "http://www.w3.org/Graphics/SVG/1.1/DTD/svg11.dtd" [
	<!ENTITY ns_svg "http://www.w3.org/2000/svg">
	<!ENTITY ns_xlink "http://www.w3.org/1999/xlink">
]>
<svg  version="1.1" id="&#x56FE;&#x5C42;_1" xmlns="&ns_svg;" xmlns:xlink="&ns_xlink;" width="19.368" height="21.747"
	 viewBox="0 0 19.368 21.747" style="overflow:visible;enable-background:new 0 0 19.368 21.747;" xml:space="preserve">
<g>
	<linearGradient id="XMLID_4_" gradientUnits="userSpaceOnUse" x1="11.6909" y1="1.7227" x2="11.6909" y2="17.9233">
		<stop  offset="0" style="stop-color:#EBEBEB"/>
		<stop  offset="0.1441" style="stop-color:#D7D7D7"/>
		<stop  offset="0.3481" style="stop-color:#C0C0C0"/>
		<stop  offset="0.4775" style="stop-color:#B8B8B8"/>
		<stop  offset="0.741" style="stop-color:#B9B9B9"/>
		<stop  offset="0.836" style="stop-color:#C0C0C0"/>
		<stop  offset="0.9036" style="stop-color:#CCCCCC"/>
		<stop  offset="0.9579" style="stop-color:#DDDDDD"/>
		<stop  offset="0.9944" style="stop-color:#EDEDED"/>
	</linearGradient>
	<rect x="4.513" y="0.5" style="fill:url(#XMLID_4_);stroke:#000000;" width="14.355" height="16.508"/>
	<rect x="5.911" y="3.585" style="fill:#474747;" width="11.34" height="1.222"/>
	<rect x="4.73" y="6.671" style="fill:#474747;" width="12.521" height="1.222"/>
	<polygon style="opacity:0.56;fill:#5E5E5E;" points="17.289,0.929 17.289,15.606 4.428,15.606 4.428,16.686 17.289,16.7 
		17.289,16.718 18.51,16.718 18.51,0.929 	"/>
	<rect x="4.73" y="10.475" style="opacity:0.28;fill:#474747;" width="12.583" height="1.222"/>
	<g>
		<g>
			<g>
				<radialGradient id="XMLID_5_" cx="5.3521" cy="9.293" r="6.9214" gradientUnits="userSpaceOnUse">
					<stop  offset="0.0056" style="stop-color:#FFFFFB"/>
					<stop  offset="0.1043" style="stop-color:#EEFFFB"/>
					<stop  offset="0.2999" style="stop-color:#C2FFFC"/>
					<stop  offset="0.5741" style="stop-color:#7AFFFD"/>
					<stop  offset="0.9131" style="stop-color:#18FFFF"/>
					<stop  offset="0.9944" style="stop-color:#00FFFF"/>
				</radialGradient>
				<circle style="fill:url(#XMLID_5_);stroke:#000000;stroke-width:0.5;" cx="5.969" cy="11.035" r="5.719"/>
				
					<linearGradient id="XMLID_6_" gradientUnits="userSpaceOnUse" x1="0.5313" y1="32.1631" x2="2.4712" y2="30.2231" gradientTransform="matrix(0.8962 0.1308 0.0913 0.8808 8.5499 -9.9442)">
					<stop  offset="0.0056" style="stop-color:#C7612E"/>
					<stop  offset="0.2237" style="stop-color:#D28057"/>
					<stop  offset="0.7112" style="stop-color:#EECEBF"/>
					<stop  offset="1" style="stop-color:#FFFFFF"/>
				</linearGradient>
				<polygon style="fill:url(#XMLID_6_);stroke:#000000;stroke-width:0.5;" points="14.632,21.394 8.993,16.013 10.892,14.025 
					16.533,19.407 				"/>
			</g>
		</g>
		<path style="opacity:0.46;fill:#C7D3DD;" d="M5.935,5.631c-2.967,0-5.371,2.405-5.371,5.371s2.403,5.371,5.371,5.371
			c2.964,0,5.371-2.405,5.371-5.371S8.898,5.631,5.935,5.631z M5.935,15.549c-2.471,0-4.476-2.037-4.476-4.547
			c0-2.512,2.005-4.547,4.476-4.547s4.474,2.035,4.474,4.547C10.409,13.512,8.406,15.549,5.935,15.549z"/>
	</g>
</g>
</svg>
