<?xml version="1.0" encoding="iso-8859-1"?>
<!-- Generator: Adobe Illustrator 12.0.1, SVG Export Plug-In . SVG Version: 6.00 Build 51448)  -->
<!DOCTYPE svg PUBLIC "-//W3C//DTD SVG 1.1//EN" "http://www.w3.org/Graphics/SVG/1.1/DTD/svg11.dtd" [
	<!ENTITY ns_svg "http://www.w3.org/2000/svg">
	<!ENTITY ns_xlink "http://www.w3.org/1999/xlink">
]>
<svg  version="1.1" id="&#x56FE;&#x5C42;_1" xmlns="&ns_svg;" xmlns:xlink="&ns_xlink;" width="18.735" height="21.18"
	 viewBox="0 0 18.735 21.18" style="overflow:visible;enable-background:new 0 0 18.735 21.18;" xml:space="preserve">
<g>
	<g>
		<path style="fill:#FFFFFF;stroke:#000000;" d="M11.816,2.222v15.327c3.564-0.123,6.419-3.045,6.419-6.64V8.861
			C18.235,5.267,15.381,2.345,11.816,2.222z"/>
		<path style="fill:#FFFFFF;stroke:#000000;" d="M12.001,4.919v10.12c2.17-0.082,3.908-2.011,3.908-4.384V9.304
			C15.909,6.929,14.171,5.001,12.001,4.919z"/>
		<path style="fill:#FFFFFF;stroke:#000000;" d="M12.001,6.872v6.398c1.086-0.052,1.954-1.271,1.954-2.771V9.644
			C13.955,8.144,13.087,6.922,12.001,6.872z"/>
	</g>
	<g>
		<g>
			<g style="opacity:0.46;">
				<polygon points="6.671,8.461 1.667,8.461 1.667,14.247 6.671,14.247 12.721,20.558 12.721,2.047 				"/>
				<polygon style="fill:none;stroke:#000000;stroke-width:0.5;" points="6.671,8.461 1.667,8.461 1.667,14.247 6.671,14.247 
					12.721,20.558 12.721,2.047 				"/>
			</g>
			<g>
				<linearGradient id="XMLID_5_" gradientUnits="userSpaceOnUse" x1="5.7773" y1="4.1787" x2="5.7773" y2="18.6331">
					<stop  offset="0.0843" style="stop-color:#6D7FBA"/>
					<stop  offset="0.3371" style="stop-color:#E3E3E3"/>
					<stop  offset="0.6307" style="stop-color:#8686AD"/>
					<stop  offset="0.8315" style="stop-color:#4B4A8B"/>
				</linearGradient>
				<polygon style="fill:url(#XMLID_5_);" points="5.254,7.043 0.25,7.043 0.25,12.83 5.254,12.83 11.304,19.141 11.304,0.629 				
					"/>
				<polygon style="fill:none;stroke:#000000;stroke-width:0.5;" points="5.254,7.043 0.25,7.043 0.25,12.83 5.254,12.83 
					11.304,19.141 11.304,0.629 				"/>
			</g>
		</g>
		<defs>
			<filter id="Adobe_OpacityMaskFilter" filterUnits="userSpaceOnUse" x="6.069" y="2.475" width="4.959" height="6.131">
				
					<feColorMatrix  type="matrix" values="-1 0 0 0 1  0 -1 0 0 1  0 0 -1 0 1  0 0 0 1 0" color-interpolation-filters="sRGB" result="source"/>
				<feFlood  style="flood-color:white;flood-opacity:1" result="back"/>
				<feBlend  in="source" in2="back" mode="normal"/>
			</filter>
		</defs>
		<mask maskUnits="userSpaceOnUse" x="6.069" y="2.475" width="4.959" height="6.131" id="XMLID_6_">
			<g style="filter:url(#Adobe_OpacityMaskFilter);">
				<linearGradient id="XMLID_7_" gradientUnits="userSpaceOnUse" x1="8.5498" y1="4.4429" x2="8.5498" y2="9.3441">
					<stop  offset="0.0169" style="stop-color:#000000"/>
					<stop  offset="0.0639" style="stop-color:#050505"/>
					<stop  offset="0.1231" style="stop-color:#151515"/>
					<stop  offset="0.1888" style="stop-color:#2F2F2F"/>
					<stop  offset="0.2592" style="stop-color:#535353"/>
					<stop  offset="0.3334" style="stop-color:#818181"/>
					<stop  offset="0.4108" style="stop-color:#B9B9B9"/>
					<stop  offset="0.4894" style="stop-color:#FBFBFB"/>
					<stop  offset="0.4944" style="stop-color:#FFFFFF"/>
				</linearGradient>
				<polygon style="fill:url(#XMLID_7_);" points="11.098,8.729 5.938,8.759 11.163,2.137 				"/>
			</g>
		</mask>
		
			<linearGradient id="XMLID_8_" gradientUnits="userSpaceOnUse" x1="9.0576" y1="5.1929" x2="9.0576" y2="9.6298" gradientTransform="matrix(0.9981 -0.0608 0.0608 0.9981 -0.8613 -0.0016)">
			<stop  offset="0.0056" style="stop-color:#FFFFFF"/>
			<stop  offset="0.2589" style="stop-color:#ECECF2"/>
			<stop  offset="0.7719" style="stop-color:#BABCCF"/>
			<stop  offset="0.9045" style="stop-color:#ACAFC5"/>
		</linearGradient>
		<polygon style="mask:url(#XMLID_6_);fill:url(#XMLID_8_);" points="10.968,8.594 6.069,8.605 11.028,2.475 		"/>
	</g>
</g>
</svg>
