<?xml version="1.0" encoding="iso-8859-1"?>
<!-- Generator: Adobe Illustrator 12.0.1, SVG Export Plug-In . SVG Version: 6.00 Build 51448)  -->
<!DOCTYPE svg PUBLIC "-//W3C//DTD SVG 1.1//EN" "http://www.w3.org/Graphics/SVG/1.1/DTD/svg11.dtd" [
	<!ENTITY ns_svg "http://www.w3.org/2000/svg">
	<!ENTITY ns_xlink "http://www.w3.org/1999/xlink">
]>
<svg  version="1.1" id="&#x56FE;&#x5C42;_1" xmlns="&ns_svg;" xmlns:xlink="&ns_xlink;" width="20.75" height="20.875"
	 viewBox="0 0 20.75 20.875" overflow="visible" enable-background="new 0 0 20.75 20.875" xml:space="preserve">
<rect opacity="0" fill="#FFFFFF" width="20.75" height="20.75"/>
<linearGradient id="XMLID_4_" gradientUnits="userSpaceOnUse" x1="3.2935" y1="10.6973" x2="17.3389" y2="10.6973">
	<stop  offset="0" style="stop-color:#999999"/>
	<stop  offset="0.3218" style="stop-color:#DFDFDF"/>
	<stop  offset="0.4944" style="stop-color:#FFFFFF"/>
	<stop  offset="0.6614" style="stop-color:#D4D4D4"/>
	<stop  offset="0.889" style="stop-color:#9F9F9F"/>
	<stop  offset="1" style="stop-color:#8A8A8A"/>
</linearGradient>
<path fill="url(#XMLID_4_)" stroke="#454545" stroke-width="0.75" d="M17.339,2.385H3.627v2.216c0,0,3.686,4.227,5.665,5.899
	c-4.448,3.188-5.999,5.975-5.999,5.975v2.534h13.712v-2.534c0,0-2.162-3.318-5.422-6.016c2.76-2.162,5.755-5.857,5.755-5.857V2.385z
	"/>
<path opacity="0.34" fill="#373737" d="M14.498,18.782l-3.293-2.954l-0.174-5.359l3.354-2.739c0,0-2.147,0.864-3.991,0.833
	S6.341,7.729,6.341,7.729l3.581,2.786l0.16,5.057l-3.99,3.14L14.498,18.782z"/>
<linearGradient id="XMLID_5_" gradientUnits="userSpaceOnUse" x1="1.7324" y1="1.2686" x2="18.8994" y2="1.2686">
	<stop  offset="0" style="stop-color:#21180D"/>
	<stop  offset="0.1848" style="stop-color:#785422"/>
	<stop  offset="0.3701" style="stop-color:#CA8C36"/>
	<stop  offset="0.4551" style="stop-color:#EBA23E"/>
	<stop  offset="0.514" style="stop-color:#DE983A"/>
	<stop  offset="0.6238" style="stop-color:#BA7E31"/>
	<stop  offset="0.7713" style="stop-color:#825321"/>
	<stop  offset="0.9101" style="stop-color:#472711"/>
</linearGradient>
<rect x="1.732" y="0.292" fill="url(#XMLID_5_)" width="17.167" height="1.954"/>
<linearGradient id="XMLID_6_" gradientUnits="userSpaceOnUse" x1="1.7324" y1="19.8979" x2="18.8994" y2="19.8979">
	<stop  offset="0" style="stop-color:#4E2A13"/>
	<stop  offset="0.1157" style="stop-color:#784B23"/>
	<stop  offset="0.3524" style="stop-color:#CA8C41"/>
	<stop  offset="0.4607" style="stop-color:#EBA54D"/>
	<stop  offset="0.681" style="stop-color:#9B662F"/>
	<stop  offset="0.8467" style="stop-color:#653B1C"/>
	<stop  offset="0.927" style="stop-color:#502B14"/>
</linearGradient>
<rect x="1.732" y="18.921" fill="url(#XMLID_6_)" width="17.167" height="1.954"/>
</svg>
