<?xml version="1.0" encoding="iso-8859-1"?>
<!-- Generator: Adobe Illustrator 12.0.1, SVG Export Plug-In . SVG Version: 6.00 Build 51448)  -->
<!DOCTYPE svg PUBLIC "-//W3C//DTD SVG 1.1//EN" "http://www.w3.org/Graphics/SVG/1.1/DTD/svg11.dtd" [
	<!ENTITY ns_svg "http://www.w3.org/2000/svg">
	<!ENTITY ns_xlink "http://www.w3.org/1999/xlink">
]>
<svg  version="1.1" id="&#x56FE;&#x5C42;_1" xmlns="&ns_svg;" xmlns:xlink="&ns_xlink;" width="19.73" height="19.834"
	 viewBox="0 0 19.73 19.834" style="overflow:visible;enable-background:new 0 0 19.73 19.834;" xml:space="preserve">
<g>
	<g>
		<linearGradient id="XMLID_2_" gradientUnits="userSpaceOnUse" x1="9.8657" y1="19.502" x2="9.8657" y2="-0.0811">
			<stop  offset="0.3258" style="stop-color:#FFF7F7"/>
			<stop  offset="1" style="stop-color:#B8B8AF"/>
		</linearGradient>
		<rect x="0.5" y="0.5" style="fill:url(#XMLID_2_);stroke:#000000;" width="18.73" height="18.834"/>
		<rect x="0.98" y="1.002" style="fill:#6C6CDA;" width="17.811" height="3.5"/>
		<rect x="0.946" y="2.668" style="fill:#6C6CDA;" width="17.834" height="1.838"/>
		<polygon style="fill:#BFBFBF;" points="18.01,1 17.934,17.752 0.96,17.7 0.949,19.002 19.153,19.168 19.229,1 		"/>
		<rect x="3.449" y="6.168" style="fill:#8F8F8F;" width="1.219" height="1.168"/>
		<rect x="3.449" y="8.668" style="fill:#8F8F8F;" width="1.219" height="1.168"/>
		<rect x="3.449" y="11.334" style="fill:#8F8F8F;" width="1.219" height="1.168"/>
		<rect x="3.483" y="14.293" style="fill:#8F8F8F;" width="1.219" height="1.168"/>
		<rect x="6.157" y="6.168" style="fill:#8F8F8F;" width="1.219" height="1.168"/>
		<rect x="6.157" y="8.668" style="fill:#8F8F8F;" width="1.219" height="1.168"/>
		<rect x="6.157" y="11.334" style="fill:#8F8F8F;" width="1.219" height="1.168"/>
		<rect x="6.191" y="14.293" style="fill:#8F8F8F;" width="1.219" height="1.168"/>
		<rect x="8.741" y="6.168" style="fill:#8F8F8F;" width="1.219" height="1.168"/>
		<rect x="8.741" y="8.668" style="fill:#8F8F8F;" width="1.219" height="1.168"/>
		<rect x="8.741" y="11.334" style="fill:#8F8F8F;" width="1.219" height="1.168"/>
		<rect x="8.775" y="14.293" style="fill:#8F8F8F;" width="1.219" height="1.168"/>
		<rect x="11.282" y="6.168" style="fill:#8F8F8F;" width="1.219" height="1.168"/>
		<rect x="11.282" y="8.668" style="fill:#8F8F8F;" width="1.219" height="1.168"/>
		<rect x="11.282" y="11.334" style="fill:#8F8F8F;" width="1.219" height="1.168"/>
		<rect x="11.316" y="14.293" style="fill:#8F8F8F;" width="1.219" height="1.168"/>
		<rect x="13.948" y="6.168" style="fill:#8F8F8F;" width="1.219" height="1.168"/>
		<rect x="13.948" y="8.668" style="fill:#8F8F8F;" width="1.219" height="1.168"/>
		<rect x="13.948" y="11.334" style="fill:#8F8F8F;" width="1.219" height="1.168"/>
		<rect x="13.982" y="14.293" style="fill:#8F8F8F;" width="1.219" height="1.168"/>
	</g>
	<rect x="3.407" y="8.584" style="fill:#AD0000;" width="11.751" height="1.293"/>
</g>
</svg>
