<?xml version="1.0" encoding="iso-8859-1"?>
<!-- Generator: Adobe Illustrator 12.0.1, SVG Export Plug-In . SVG Version: 6.00 Build 51448)  -->
<!DOCTYPE svg PUBLIC "-//W3C//DTD SVG 1.1//EN" "http://www.w3.org/Graphics/SVG/1.1/DTD/svg11.dtd" [
	<!ENTITY ns_svg "http://www.w3.org/2000/svg">
	<!ENTITY ns_xlink "http://www.w3.org/1999/xlink">
]>
<svg  version="1.1" id="&#x56FE;&#x5C42;_1" xmlns="&ns_svg;" xmlns:xlink="&ns_xlink;" width="28.057" height="27.725"
	 viewBox="0 0 28.057 27.725" style="overflow:visible;enable-background:new 0 0 28.057 27.725;" xml:space="preserve">
<g>
	<polygon style="fill:#0070AF;stroke:#000000;stroke-width:0.3;stroke-linejoin:round;" points="27.898,11.866 21.583,5.161 
		21.583,9.31 17.541,9.31 17.541,0.583 12.43,0.583 12.43,15.061 21.583,15.061 21.583,17.722 	"/>
	<polygon style="opacity:0.35;fill:#C27A0F;" points="28.057,11.902 27.485,11.676 22.516,15.034 22.553,14.096 12.809,13.96 
		12.75,14.81 21.709,14.906 21.428,17.839 	"/>
	<polygon style="opacity:0.35;fill:#C27A0F;" points="17.287,9.406 16.756,9.797 16.645,1.266 17.318,0.859 	"/>
</g>
<g>
	
		<linearGradient id="XMLID_11_" gradientUnits="userSpaceOnUse" x1="-7.6133" y1="-29.501" x2="-3.7659" y2="-31.1143" gradientTransform="matrix(0.9968 -0.0791 0.0791 0.9968 17.4362 45.8516)">
		<stop  offset="0.0056" style="stop-color:#424242"/>
		<stop  offset="0.3202" style="stop-color:#FFFFFF"/>
		<stop  offset="0.736" style="stop-color:#CCCCCC"/>
		<stop  offset="1" style="stop-color:#424242"/>
	</linearGradient>
	<path style="fill:url(#XMLID_11_);stroke:#000000;stroke-width:0.25;" d="M2.783,7.578c0,0,8.268,17.184,9.844,19.262
		c1.579,2.078,8.031-0.472,8.516-3.253C21.631,20.803,9.36,1.899,9.36,1.899S7.49,1.887,6.62,2.414
		C5.99,2.792,3.988,3.905,3.728,4.301C3.469,4.695,2.783,7.578,2.783,7.578z"/>
	
		<linearGradient id="XMLID_12_" gradientUnits="userSpaceOnUse" x1="-8.1143" y1="-32.0498" x2="5.5186" y2="-32.0498" gradientTransform="matrix(0.9968 -0.0791 0.0791 0.9968 17.4362 45.8516)">
		<stop  offset="0.1067" style="stop-color:#ECECEC"/>
		<stop  offset="0.3202" style="stop-color:#FFFFFF"/>
		<stop  offset="0.736" style="stop-color:#CCCCCC"/>
		<stop  offset="1" style="stop-color:#424242"/>
	</linearGradient>
	<path style="fill:url(#XMLID_12_);stroke:#000000;stroke-width:0.25;" d="M6.267,2.728c0,0,0.933-0.822,2.569-1.163
		c1.635-0.336,2.618-0.537,3.57,0.467c0.957,1.006,5.268,10.311,7.115,14.736c0,0,2.502,5.835,1.276,7.679
		c-1.228,1.842-3.541,3.066-4.876,1.468c-1.33-1.601-8.154-17.946-8.969-19.835C6.139,4.191,5.52,3.283,6.267,2.728z"/>
	
		<linearGradient id="XMLID_13_" gradientUnits="userSpaceOnUse" x1="-6.5674" y1="-34.6494" x2="4.335" y2="-34.6494" gradientTransform="matrix(0.9968 -0.0791 0.0791 0.9968 17.4362 45.8516)">
		<stop  offset="0" style="stop-color:#F3E855"/>
		<stop  offset="0.9831" style="stop-color:#F3B711"/>
	</linearGradient>
	<path style="fill:url(#XMLID_13_);stroke:#000000;stroke-width:0.25;" d="M7.877,5.758C7.518,4.829,7.205,4.069,8.795,3.651
		c1.589-0.417,3.732-1.109,4.188-0.538c0.968,1.209,5.768,10.989,6.465,13.787c0.22,0.87-0.024,1.248-0.972,1.363
		c-0.588,0.076-0.967-0.128-1.725,0.807c-0.757,0.931-1.948,1.109-2.555,0.284C13.141,17.915,8.24,6.686,7.877,5.758z"/>
	
		<linearGradient id="XMLID_14_" gradientUnits="userSpaceOnUse" x1="-9.2129" y1="-48.4961" x2="-7.064" y2="-49.4878" gradientTransform="matrix(0.9023 0.0193 -0.0158 0.7697 9.0428 41.279)">
		<stop  offset="0.0056" style="stop-color:#4F4F4F"/>
		<stop  offset="0.3202" style="stop-color:#FFFFFF"/>
		<stop  offset="0.736" style="stop-color:#CCCCCC"/>
		<stop  offset="1" style="stop-color:#424242"/>
	</linearGradient>
	<path style="fill:url(#XMLID_14_);stroke:#000000;stroke-width:0.25;" d="M0.191,1.418c0,0-0.305-0.558,0.393-0.945
		c0.18-0.101,0.17-0.095,0.627-0.286c0.307-0.128,0.92-0.11,1.275,0.582c0.346,0.67,2.195,4.322,2.195,4.322S4.968,5.77,4.283,6.267
		C3.602,6.761,3.146,6.911,2.852,6.743C2.558,6.58,0.191,1.418,0.191,1.418z"/>
	<path style="fill:#98C724;stroke:#000000;stroke-width:0.25;stroke-linecap:round;stroke-linejoin:round;" d="M9.04,6.249
		c0,0,3.337-0.931,4.264-1.295l4.602,9.782L13.98,16.63L9.04,6.249z"/>
</g>
</svg>
