<?xml version="1.0" encoding="iso-8859-1"?>
<!-- Generator: Adobe Illustrator 12.0.1, SVG Export Plug-In . SVG Version: 6.00 Build 51448)  -->
<!DOCTYPE svg PUBLIC "-//W3C//DTD SVG 1.1//EN" "http://www.w3.org/Graphics/SVG/1.1/DTD/svg11.dtd" [
	<!ENTITY ns_svg "http://www.w3.org/2000/svg">
	<!ENTITY ns_xlink "http://www.w3.org/1999/xlink">
]>
<svg  version="1.1" id="&#xCD;_xBC__xB2_&#xE3;_x5F_1" xmlns="&ns_svg;" xmlns:xlink="&ns_xlink;" width="29.5" height="28.334"
	 viewBox="0 0 29.5 28.334" style="overflow:visible;enable-background:new 0 0 29.5 28.334;" xml:space="preserve">
<g>
	<linearGradient id="XMLID_4_" gradientUnits="userSpaceOnUse" x1="36.2461" y1="24.333" x2="2.6613" y2="8.4504">
		<stop  offset="0.0112" style="stop-color:#FFFFFF"/>
		<stop  offset="0.0515" style="stop-color:#F6FBFE"/>
		<stop  offset="0.105" style="stop-color:#E4F5FD"/>
		<stop  offset="0.1659" style="stop-color:#C8E9FA"/>
		<stop  offset="0.2322" style="stop-color:#9DDBF8"/>
		<stop  offset="0.3021" style="stop-color:#60CAF4"/>
		<stop  offset="0.3539" style="stop-color:#00BEF1"/>
		<stop  offset="0.3653" style="stop-color:#00BDF1"/>
		<stop  offset="0.4931" style="stop-color:#00B4F0"/>
		<stop  offset="0.5949" style="stop-color:#00AFEF"/>
		<stop  offset="0.6573" style="stop-color:#00ADEF"/>
		<stop  offset="0.7681" style="stop-color:#009ADE"/>
		<stop  offset="0.9234" style="stop-color:#0083CA"/>
		<stop  offset="1" style="stop-color:#007AC2"/>
	</linearGradient>
	<ellipse style="opacity:0.83;fill:url(#XMLID_4_);stroke:#0A374E;" cx="14.75" cy="14.167" rx="14.25" ry="13.667"/>
	<linearGradient id="XMLID_5_" gradientUnits="userSpaceOnUse" x1="3.3228" y1="6.2202" x2="28.0047" y2="23.1273">
		<stop  offset="0.0112" style="stop-color:#FFFFFF"/>
		<stop  offset="0.0396" style="stop-color:#F6FBFE"/>
		<stop  offset="0.0773" style="stop-color:#E4F5FD"/>
		<stop  offset="0.1202" style="stop-color:#C8E9FA"/>
		<stop  offset="0.167" style="stop-color:#9DDBF8"/>
		<stop  offset="0.2163" style="stop-color:#60CAF4"/>
		<stop  offset="0.2528" style="stop-color:#00BEF1"/>
		<stop  offset="0.3633" style="stop-color:#00ADE8"/>
		<stop  offset="0.5393" style="stop-color:#0094D8"/>
		<stop  offset="0.6275" style="stop-color:#008ED4"/>
		<stop  offset="0.7876" style="stop-color:#007FC7"/>
		<stop  offset="0.8371" style="stop-color:#007AC2"/>
	</linearGradient>
	<ellipse style="opacity:0.83;fill:url(#XMLID_5_);" cx="14.75" cy="14.047" rx="12.625" ry="11.99"/>
	<linearGradient id="XMLID_6_" gradientUnits="userSpaceOnUse" x1="3.4814" y1="6.6372" x2="17.7891" y2="17.8559">
		<stop  offset="0.0112" style="stop-color:#FFFFFF"/>
		<stop  offset="0.0786" style="stop-color:#F6FBFE"/>
		<stop  offset="0.168" style="stop-color:#E4F5FD"/>
		<stop  offset="0.2698" style="stop-color:#C8E9FA"/>
		<stop  offset="0.3807" style="stop-color:#9DDBF8"/>
		<stop  offset="0.4977" style="stop-color:#60CAF4"/>
		<stop  offset="0.5843" style="stop-color:#00BEF1"/>
		<stop  offset="0.5998" style="stop-color:#00BDF1"/>
		<stop  offset="0.775" style="stop-color:#00B4F0"/>
		<stop  offset="0.9144" style="stop-color:#00AFEF"/>
		<stop  offset="1" style="stop-color:#00ADEF"/>
	</linearGradient>
	<path style="fill:url(#XMLID_6_);" d="M3.812,14.253c0-6.427,6.009-11.656,12.627-11.963c-0.718-0.124-1.453-0.198-2.207-0.198
		c-6.905,0-12.504,5.368-12.504,11.992s5.599,11.992,12.504,11.992c0.206,0,0.407-0.021,0.61-0.029
		C8.993,25.045,3.812,20.151,3.812,14.253z"/>
	<path style="fill:#13327C;" d="M16.396,4.879c0.769,0,1.436,0.24,1.997,0.717c0.562,0.479,0.844,1.043,0.844,1.696
		c0,0.696-0.267,1.268-0.798,1.714c-0.531,0.447-1.212,0.67-2.043,0.67s-1.512-0.223-2.043-0.67
		c-0.532-0.446-0.797-1.018-0.797-1.714c0-0.653,0.281-1.218,0.844-1.696C14.961,5.119,15.625,4.879,16.396,4.879z M19.236,10.857
		v13.389h-5.681V10.857H19.236z"/>
	<path style="fill:#FFFFFF;" d="M14.75,4.754c0.664,0,1.24,0.232,1.725,0.696c0.485,0.465,0.729,1.014,0.729,1.648
		c0,0.678-0.23,1.232-0.689,1.666C16.055,9.2,15.467,9.417,14.75,9.417c-0.718,0-1.306-0.217-1.765-0.652
		c-0.459-0.434-0.688-0.988-0.688-1.666c0-0.635,0.243-1.184,0.729-1.648C13.511,4.986,14.084,4.754,14.75,4.754z M17.203,10.565
		v13.014h-4.906V10.565H17.203z"/>
</g>
</svg>
