<?xml version="1.0" encoding="iso-8859-1"?>
<!-- Generator: Adobe Illustrator 12.0.1, SVG Export Plug-In . SVG Version: 6.00 Build 51448)  -->
<!DOCTYPE svg PUBLIC "-//W3C//DTD SVG 1.1//EN" "http://www.w3.org/Graphics/SVG/1.1/DTD/svg11.dtd" [
	<!ENTITY ns_svg "http://www.w3.org/2000/svg">
	<!ENTITY ns_xlink "http://www.w3.org/1999/xlink">
]>
<svg  version="1.1" id="&#xCD;_xBC__xB2_&#xE3;_x5F_1" xmlns="&ns_svg;" xmlns:xlink="&ns_xlink;" width="111.058" height="110.667"
	 viewBox="0 0 111.058 110.667" style="overflow:visible;enable-background:new 0 0 111.058 110.667;" xml:space="preserve">
<linearGradient id="XMLID_11_" gradientUnits="userSpaceOnUse" x1="-381.3301" y1="68.4326" x2="-287.7882" y2="68.4326" gradientTransform="matrix(-1 0 0 1 -274.8232 0)">
	<stop  offset="0" style="stop-color:#90979D"/>
	<stop  offset="0.0203" style="stop-color:#A5ABB2"/>
	<stop  offset="0.0393" style="stop-color:#B6BBC2"/>
	<stop  offset="0.1447" style="stop-color:#BBC0C6"/>
	<stop  offset="0.2759" style="stop-color:#C9CCD1"/>
	<stop  offset="0.4201" style="stop-color:#E4E4E7"/>
	<stop  offset="0.5169" style="stop-color:#FFFFFF"/>
	<stop  offset="0.9157" style="stop-color:#DEDFE3"/>
	<stop  offset="0.931" style="stop-color:#D6D7DB"/>
	<stop  offset="0.95" style="stop-color:#C2C5C9"/>
	<stop  offset="0.9711" style="stop-color:#A6AAAF"/>
	<stop  offset="0.9934" style="stop-color:#838A8F"/>
	<stop  offset="1" style="stop-color:#788085"/>
</linearGradient>
<path style="fill-rule:evenodd;clip-rule:evenodd;fill:url(#XMLID_11_);stroke:#323A3A;" d="M110.049,31.35L9.166,30.383
	c0,0-2.111-0.388-1.937,2.323c0.176,2.711,1.232,71.461,1.232,71.461s0,2.52,1.232,2.324c1.233-0.191,98.418-12.975,98.418-12.975
	s2.111,0,2.111-2.711c0-2.713,0.179-56.551,0.179-56.551S110.927,31.35,110.049,31.35z"/>
<linearGradient id="XMLID_12_" gradientUnits="userSpaceOnUse" x1="110.4922" y1="68.3135" x2="7.561" y2="68.3135">
	<stop  offset="0" style="stop-color:#14477D"/>
	<stop  offset="0.5" style="stop-color:#5C92CD"/>
	<stop  offset="0.8539" style="stop-color:#3770B7"/>
	<stop  offset="1" style="stop-color:#0A1520"/>
</linearGradient>
<path style="fill-rule:evenodd;clip-rule:evenodd;fill:url(#XMLID_12_);stroke:#000000;stroke-width:0.5;" d="M110.492,42.698
	c0,0-102.03,2.013-102.734,2.013s0.704,49.182,0.704,49.182s28.698,1.356,101.41-12.396L110.492,42.698z"/>
<linearGradient id="XMLID_13_" gradientUnits="userSpaceOnUse" x1="-283.9258" y1="68.3428" x2="-275.3848" y2="68.3428" gradientTransform="matrix(-1 0 0 1 -274.8232 0)">
	<stop  offset="0" style="stop-color:#ABB0B8"/>
	<stop  offset="0.6629" style="stop-color:#363E3E"/>
	<stop  offset="1" style="stop-color:#5C6365"/>
</linearGradient>
<polygon style="fill-rule:evenodd;clip-rule:evenodd;fill:url(#XMLID_13_);stroke:#1A2120;" points="8.444,30.762 0.562,30.221 
	1.054,103.03 9.103,106.464 7.625,33.833 "/>
<path style="fill-rule:evenodd;clip-rule:evenodd;fill:#6D6F71;stroke:#222929;" d="M89.449,50.136L86.763,32.46l-41.864,0.232
	c0,0-9.3,41.33-0.872,64.505c0.703,1.936,2.641,4.454,4.4,4.454c1.761,0,39.086,5.615,40.144-14.719
	C89.626,66.598,89.449,50.136,89.449,50.136z"/>
<linearGradient id="XMLID_14_" gradientUnits="userSpaceOnUse" x1="-364.5723" y1="25.208" x2="-331.639" y2="24.4425" gradientTransform="matrix(-1 0 0 1 -274.8232 0)">
	<stop  offset="0" style="stop-color:#90979D"/>
	<stop  offset="0.0203" style="stop-color:#A5ABB2"/>
	<stop  offset="0.0393" style="stop-color:#B6BBC2"/>
	<stop  offset="0.1447" style="stop-color:#BBC0C6"/>
	<stop  offset="0.2759" style="stop-color:#C9CCD1"/>
	<stop  offset="0.4201" style="stop-color:#E4E4E7"/>
	<stop  offset="0.5169" style="stop-color:#FFFFFF"/>
	<stop  offset="0.9157" style="stop-color:#DEDFE3"/>
	<stop  offset="0.931" style="stop-color:#D6D7DB"/>
	<stop  offset="0.95" style="stop-color:#C2C5C9"/>
	<stop  offset="0.9711" style="stop-color:#A6AAAF"/>
	<stop  offset="0.9934" style="stop-color:#838A8F"/>
	<stop  offset="1" style="stop-color:#788085"/>
</linearGradient>
<path style="fill-rule:evenodd;clip-rule:evenodd;fill:url(#XMLID_14_);stroke:#505859;stroke-width:0.75;stroke-linejoin:round;" d="
	M87.091,33.304l2.711-1.775l-0.353-10.25L83.2,15.084l-17.342-0.778c0,0-3.346,6.778-7.57,8.135l-1.232,10.264l1.893,2.133
	L87.091,33.304z"/>
<linearGradient id="XMLID_15_" gradientUnits="userSpaceOnUse" x1="-349.6157" y1="25.2856" x2="-311.4126" y2="16.9456" gradientTransform="matrix(-1 0 0 1 -274.8232 0)">
	<stop  offset="0" style="stop-color:#82898F"/>
	<stop  offset="0.1219" style="stop-color:#7C8186"/>
	<stop  offset="0.3778" style="stop-color:#66686B"/>
	<stop  offset="0.5896" style="stop-color:#4B4B4E"/>
	<stop  offset="0.7466" style="stop-color:#272728"/>
	<stop  offset="0.8315" style="stop-color:#000000"/>
</linearGradient>
<polygon style="fill-rule:evenodd;clip-rule:evenodd;fill:url(#XMLID_15_);stroke:#000000;stroke-width:0.5;" points="58.639,6.173 
	37.864,13.339 30.118,24.571 30.294,31.156 58.948,34.839 63.745,16.632 "/>
<linearGradient id="XMLID_16_" gradientUnits="userSpaceOnUse" x1="-377.1748" y1="32.0508" x2="-318.7491" y2="100.3105" gradientTransform="matrix(-1 0 0 1 -274.8232 0)">
	<stop  offset="0" style="stop-color:#AFB4BC"/>
	<stop  offset="0.6629" style="stop-color:#424849"/>
	<stop  offset="1" style="stop-color:#6B7175"/>
</linearGradient>
<ellipse style="fill-rule:evenodd;clip-rule:evenodd;fill:url(#XMLID_16_);stroke:#222929;" cx="70.875" cy="68.823" rx="22.8" ry="31.858"/>
<linearGradient id="XMLID_17_" gradientUnits="userSpaceOnUse" x1="-381.4014" y1="58.1953" x2="-342.3208" y2="75.657" gradientTransform="matrix(-1 0 0 1 -274.8232 0)">
	<stop  offset="0" style="stop-color:#FFFFFF"/>
	<stop  offset="0.5787" style="stop-color:#697074"/>
	<stop  offset="1" style="stop-color:#FFFFFF"/>
</linearGradient>
<ellipse style="fill-rule:evenodd;clip-rule:evenodd;fill:url(#XMLID_17_);stroke:#2A3131;" cx="82.357" cy="69.019" rx="20.775" ry="29.027"/>
<linearGradient id="XMLID_18_" gradientUnits="userSpaceOnUse" x1="-396.707" y1="55.4004" x2="-352.7531" y2="71.6186" gradientTransform="matrix(-1 0 0 1 -274.8232 0)">
	<stop  offset="0" style="stop-color:#9EA4AB"/>
	<stop  offset="0.1727" style="stop-color:#8D9095"/>
	<stop  offset="0.4101" style="stop-color:#6D6F72"/>
	<stop  offset="0.6069" style="stop-color:#4D4E50"/>
	<stop  offset="0.7527" style="stop-color:#272728"/>
	<stop  offset="0.8315" style="stop-color:#000000"/>
</linearGradient>
<ellipse style="fill-rule:evenodd;clip-rule:evenodd;fill:url(#XMLID_18_);stroke:#000000;stroke-width:0.5;" cx="83.367" cy="69.611" rx="17.729" ry="24.773"/>
<polygon style="fill-rule:evenodd;clip-rule:evenodd;fill:#6D6F71;stroke:#495052;stroke-width:0.75;stroke-linejoin:round;" points="
	87.308,19.076 79.062,11.208 65.505,5.979 58.639,6.173 59.696,12.371 63.245,19.076 "/>
<linearGradient id="XMLID_19_" gradientUnits="userSpaceOnUse" x1="-372.9331" y1="56.6167" x2="-356.1512" y2="69.1317" gradientTransform="matrix(-1 0 0 1 -274.8232 0)">
	<stop  offset="0" style="stop-color:#7B8388"/>
	<stop  offset="1" style="stop-color:#3C4444"/>
</linearGradient>
<ellipse style="fill-rule:evenodd;clip-rule:evenodd;fill:url(#XMLID_19_);stroke:#262D2E;" cx="79.061" cy="70.821" rx="13.653" ry="20.521"/>
<g>
	
		<linearGradient id="XMLID_20_" gradientUnits="userSpaceOnUse" x1="-377.2393" y1="57.2305" x2="-359.6627" y2="70.182" gradientTransform="matrix(-1 0 0 1 -274.8232 0)">
		<stop  offset="0" style="stop-color:#ABB0B8"/>
		<stop  offset="1" style="stop-color:#53595B"/>
	</linearGradient>
	<path style="fill:url(#XMLID_20_);" d="M89.524,70.912c0-8.426-2.707-15.629-6.536-18.582c5.089,0.831,9.081,8.931,9.081,18.81
		c0,10.361-4.395,18.77-9.838,18.877C86.456,87.476,89.524,79.884,89.524,70.912z"/>
</g>
<rect style="fill-rule:evenodd;clip-rule:evenodd;fill:none;" width="110.667" height="110.667"/>
</svg>
