<?xml version="1.0" encoding="UTF-8" standalone="no"?>
<!-- Created with Inkscape (http://www.inkscape.org/) -->
<svg
   xmlns:dc="http://purl.org/dc/elements/1.1/"
   xmlns:cc="http://web.resource.org/cc/"
   xmlns:rdf="http://www.w3.org/1999/02/22-rdf-syntax-ns#"
   xmlns:svg="http://www.w3.org/2000/svg"
   xmlns="http://www.w3.org/2000/svg"
   xmlns:xlink="http://www.w3.org/1999/xlink"
   xmlns:sodipodi="http://sodipodi.sourceforge.net/DTD/sodipodi-0.dtd"
   xmlns:inkscape="http://www.inkscape.org/namespaces/inkscape"
   sodipodi:docname="battery-small.svg"
   sodipodi:docbase="/home/user"
   height="27"
   width="66"
   inkscape:version="0.44"
   sodipodi:version="0.32"
   id="svg1363"
   version="1.0">
  <metadata
     id="metadata1368">
    <rdf:RDF>
      <cc:Work
         rdf:about="">
        <dc:format>image/svg+xml</dc:format>
        <dc:type
           rdf:resource="http://purl.org/dc/dcmitype/StillImage" />
      </cc:Work>
    </rdf:RDF>
  </metadata>
  <defs
     id="defs1366">
    <linearGradient
       id="linearGradient5959">
      <stop
         style="stop-color:#00e500;stop-opacity:1;"
         offset="0"
         id="stop5961" />
      <stop
         style="stop-color:#106010;stop-opacity:1;"
         offset="1"
         id="stop5963" />
    </linearGradient>
    <linearGradient
       id="linearGradient2905">
      <stop
         id="stop2907"
         offset="0"
         style="stop-color:#ff9797;stop-opacity:1;" />
      <stop
         id="stop2909"
         offset="1"
         style="stop-color:#ff0303;stop-opacity:1;" />
    </linearGradient>
    <linearGradient
       id="linearGradient9203">
      <stop
         id="stop9205"
         offset="0"
         style="stop-color:black;stop-opacity:1;" />
      <stop
         id="stop9207"
         offset="1"
         style="stop-color:#eaeaea;stop-opacity:1;" />
    </linearGradient>
    <linearGradient
       id="linearGradient12745">
      <stop
         id="stop12747"
         offset="0"
         style="stop-color:#ff5b00;stop-opacity:1;" />
      <stop
         id="stop12749"
         offset="1"
         style="stop-color:#ffd12c;stop-opacity:1;" />
    </linearGradient>
    <linearGradient
       inkscape:collect="always"
       xlink:href="#linearGradient9203"
       id="linearGradient1987"
       gradientUnits="userSpaceOnUse"
       gradientTransform="matrix(0,-1.4028,0.587156,0,-21.4637,29.55408)"
       spreadMethod="reflect"
       x1="11.040534"
       y1="23.443169"
       x2="11.064216"
       y2="45.922581" />
    <linearGradient
       inkscape:collect="always"
       xlink:href="#linearGradient5959"
       id="linearGradient9998"
       gradientUnits="userSpaceOnUse"
       gradientTransform="matrix(3.8,0,0,1,-98.19959,43.99998)"
       spreadMethod="reflect"
       x1="21.5"
       y1="5.5"
       x2="21.5"
       y2="15.224862" />
    <linearGradient
       inkscape:collect="always"
       xlink:href="#linearGradient12745"
       id="linearGradient10981"
       gradientUnits="userSpaceOnUse"
       gradientTransform="matrix(1.8,0,0,1,-70.86901,22.06727)"
       spreadMethod="reflect"
       x1="21.500002"
       y1="9.9999847"
       x2="21.500002"
       y2="5.4999852" />
    <linearGradient
       inkscape:collect="always"
       xlink:href="#linearGradient2905"
       id="linearGradient11013"
       gradientUnits="userSpaceOnUse"
       gradientTransform="matrix(0.8,0,0,1,-45.94179,11.06729)"
       spreadMethod="reflect"
       x1="27.42724"
       y1="5.4327135"
       x2="27.42724"
       y2="0.36988598" />
    <linearGradient
       inkscape:collect="always"
       xlink:href="#linearGradient5959"
       id="linearGradient11936"
       gradientUnits="userSpaceOnUse"
       spreadMethod="reflect"
       x1="25"
       y1="5.5"
       x2="25"
       y2="15.224862"
       gradientTransform="matrix(0,-0.71945,1,0,55.01807,24.02236)" />
    <linearGradient
       inkscape:collect="always"
       xlink:href="#linearGradient12745"
       id="linearGradient1960"
       gradientUnits="userSpaceOnUse"
       gradientTransform="matrix(2.8,0,0,1,-95.79642,33.06728)"
       spreadMethod="reflect"
       x1="21.500002"
       y1="9.9999847"
       x2="21.500002"
       y2="5.4999852" />
    <linearGradient
       inkscape:collect="always"
       xlink:href="#linearGradient9203"
       id="linearGradient5526"
       gradientUnits="userSpaceOnUse"
       gradientTransform="matrix(0,-1.4028,0.587156,0,-10.4637,29.55408)"
       spreadMethod="reflect"
       x1="11.040534"
       y1="23.443169"
       x2="11.064216"
       y2="45.922581" />
    <linearGradient
       inkscape:collect="always"
       xlink:href="#linearGradient9203"
       id="linearGradient5550"
       gradientUnits="userSpaceOnUse"
       gradientTransform="matrix(0,-1.4028,0.587156,0,0.5363,29.55408)"
       spreadMethod="reflect"
       x1="11.040534"
       y1="23.443169"
       x2="11.064216"
       y2="45.922581" />
    <linearGradient
       inkscape:collect="always"
       xlink:href="#linearGradient9203"
       id="linearGradient5574"
       gradientUnits="userSpaceOnUse"
       gradientTransform="matrix(0,-1.4028,0.587156,0,11.5363,29.55408)"
       spreadMethod="reflect"
       x1="11.040534"
       y1="23.443169"
       x2="11.064216"
       y2="45.922581" />
    <linearGradient
       inkscape:collect="always"
       xlink:href="#linearGradient9203"
       id="linearGradient5598"
       gradientUnits="userSpaceOnUse"
       gradientTransform="matrix(0,-1.4028,0.587156,0,22.5363,29.55408)"
       spreadMethod="reflect"
       x1="11.040534"
       y1="23.443169"
       x2="11.064216"
       y2="45.922581" />
    <linearGradient
       inkscape:collect="always"
       xlink:href="#linearGradient9203"
       id="linearGradient5646"
       gradientUnits="userSpaceOnUse"
       gradientTransform="matrix(0,-1.4028,0.587156,0,33.5363,29.55408)"
       spreadMethod="reflect"
       x1="11.040534"
       y1="23.443169"
       x2="11.064216"
       y2="45.922581" />
    <linearGradient
       inkscape:collect="always"
       xlink:href="#linearGradient5959"
       id="linearGradient5656"
       gradientUnits="userSpaceOnUse"
       gradientTransform="matrix(3.8,0,0,1,-98.19959,54.99998)"
       spreadMethod="reflect"
       x1="21.5"
       y1="5.5"
       x2="21.5"
       y2="15.224862" />
  </defs>
  <sodipodi:namedview
     inkscape:grid-bbox="true"
     inkscape:guide-points="true"
     inkscape:guide-bbox="true"
     showguides="true"
     inkscape:current-layer="svg1363"
     inkscape:window-y="0"
     inkscape:window-x="0"
     inkscape:cy="13.5"
     inkscape:cx="33"
     inkscape:zoom="27.666667"
     showgrid="true"
     inkscape:window-height="1126"
     inkscape:window-width="1912"
     inkscape:pageshadow="2"
     inkscape:pageopacity="0.0"
     borderopacity="1.0"
     bordercolor="#666666"
     pagecolor="#ffffff"
     id="base"
     width="66px"
     height="27px"
     gridspacingx="1px"
     gridspacingy="1px" />
  <path
     id="rect1380"
     d="M 0.457641,26.542359 L 10.542359,26.542359 L 10.542359,2.9089357 L 8.5573382,2.8835889 L 8.5259589,0.45764109 L 2.5054202,0.45764109 L 2.4740419,2.8835889 L 0.48902032,2.8835889 L 0.457641,26.542359 z "
     style="fill:url(#linearGradient1987);fill-opacity:1;fill-rule:evenodd;stroke:black;stroke-width:0.91528219;stroke-linecap:butt;stroke-linejoin:round;stroke-miterlimit:4;stroke-dasharray:none;stroke-dashoffset:0;stroke-opacity:1"
     sodipodi:nodetypes="ccccccccc" />
  <rect
     style="fill:#ddd;fill-opacity:1;stroke:none;stroke-width:0.9788022;stroke-linecap:round;stroke-linejoin:round;stroke-miterlimit:1.5;stroke-dasharray:none;stroke-opacity:0.79607843"
     id="rect4608"
     width="22.59107"
     height="1"
     x="-26"
     y="1"
     transform="matrix(0,-1,1,0,0,0)" />
  <rect
     style="fill:#8a8a8a;fill-opacity:1;stroke-width:0.80000001;stroke-miterlimit:4;stroke-dasharray:none"
     id="rect4605"
     width="1.0511161"
     height="9"
     x="-22.051117"
     y="1"
     transform="matrix(0,-1,1,0,0,0)" />
  <rect
     style="fill:#8a8a8a;fill-opacity:1;stroke:none;stroke-width:0.9788022;stroke-linecap:round;stroke-linejoin:round;stroke-miterlimit:1.5;stroke-dasharray:none;stroke-opacity:0.79607843"
     id="rect4610"
     width="22.530121"
     height="0.94854569"
     x="-26"
     y="9.0514545"
     transform="matrix(0,-1,1,0,0,0)" />
  <rect
     style="fill:#8a8a8a;fill-opacity:1;stroke-width:0.80000001;stroke-miterlimit:4;stroke-dasharray:none"
     id="rect1954"
     width="1.0511161"
     height="9"
     x="-7.051116"
     y="1"
     transform="matrix(0,-1,1,0,0,0)" />
  <rect
     style="fill:#8a8a8a;fill-opacity:1;stroke-width:0.80000001;stroke-miterlimit:4;stroke-dasharray:none"
     id="rect1956"
     width="1.0511161"
     height="9"
     x="-12.051116"
     y="1"
     transform="matrix(0,-1,1,0,0,0)" />
  <rect
     style="fill:#8a8a8a;fill-opacity:1;stroke-width:0.80000001;stroke-miterlimit:4;stroke-dasharray:none"
     id="rect1959"
     width="1.0511161"
     height="9"
     x="-17.051117"
     y="1"
     transform="matrix(0,-1,1,0,0,0)" />
  <path
     id="path5506"
     d="M 11.457641,26.542359 L 21.542359,26.542359 L 21.542359,2.9089357 L 19.557338,2.8835889 L 19.525959,0.45764109 L 13.50542,0.45764109 L 13.474042,2.8835889 L 11.48902,2.8835889 L 11.457641,26.542359 z "
     style="fill:url(#linearGradient5526);fill-opacity:1;fill-rule:evenodd;stroke:black;stroke-width:0.91528219;stroke-linecap:butt;stroke-linejoin:round;stroke-miterlimit:4;stroke-dasharray:none;stroke-dashoffset:0;stroke-opacity:1"
     sodipodi:nodetypes="ccccccccc" />
  <rect
     style="opacity:1;fill:url(#linearGradient11013);fill-opacity:1;stroke:none;stroke-width:0.9788022;stroke-linecap:round;stroke-linejoin:round;stroke-miterlimit:1.5;stroke-dasharray:none;stroke-opacity:1"
     id="rect10999"
     width="4"
     height="9"
     x="-26"
     y="12"
     transform="matrix(0,-1,1,0,0,0)" />
  <rect
     style="fill:#ddd;fill-opacity:1;stroke:none;stroke-width:0.9788022;stroke-linecap:round;stroke-linejoin:round;stroke-miterlimit:1.5;stroke-dasharray:none;stroke-opacity:0.79607843"
     id="rect5508"
     width="17.59107"
     height="1"
     x="-21"
     y="12"
     transform="matrix(0,-1,1,0,0,0)" />
  <rect
     style="fill:#8a8a8a;fill-opacity:1;stroke-width:0.80000001;stroke-miterlimit:4;stroke-dasharray:none"
     id="rect5510"
     width="1.0511161"
     height="9"
     x="-22.051117"
     y="12"
     transform="matrix(0,-1,1,0,0,0)" />
  <rect
     style="opacity:1;fill:#ffa0a0;fill-opacity:1;stroke:none;stroke-width:1;stroke-linecap:round;stroke-linejoin:round;stroke-miterlimit:4;stroke-dasharray:none;stroke-opacity:0.79607843"
     id="rect19521"
     width="4"
     height="1"
     x="-26"
     y="12"
     transform="matrix(0,-1,1,0,0,0)" />
  <rect
     style="opacity:1;fill:#be0000;fill-opacity:1;stroke:none;stroke-width:1;stroke-linecap:round;stroke-linejoin:round;stroke-miterlimit:4;stroke-dasharray:none;stroke-opacity:0.79607843"
     id="rect5895"
     width="4"
     height="1"
     x="-26"
     y="20"
     transform="matrix(0,-1,1,0,0,0)" />
  <rect
     style="fill:#8a8a8a;fill-opacity:1;stroke:none;stroke-width:0.9788022;stroke-linecap:round;stroke-linejoin:round;stroke-miterlimit:1.5;stroke-dasharray:none;stroke-opacity:0.79607843"
     id="rect5512"
     width="17.530121"
     height="0.94854569"
     x="-21"
     y="20.051455"
     transform="matrix(0,-1,1,0,0,0)" />
  <rect
     style="fill:#8a8a8a;fill-opacity:1;stroke-width:0.80000001;stroke-miterlimit:4;stroke-dasharray:none"
     id="rect5520"
     width="1.0511161"
     height="9"
     x="-7.0511165"
     y="12"
     transform="matrix(0,-1,1,0,0,0)" />
  <rect
     style="fill:#8a8a8a;fill-opacity:1;stroke-width:0.80000001;stroke-miterlimit:4;stroke-dasharray:none"
     id="rect5522"
     width="1.0511161"
     height="9"
     x="-12.051116"
     y="12"
     transform="matrix(0,-1,1,0,0,0)" />
  <rect
     style="fill:#8a8a8a;fill-opacity:1;stroke-width:0.80000001;stroke-miterlimit:4;stroke-dasharray:none"
     id="rect5524"
     width="1.0511161"
     height="9"
     x="-17.051117"
     y="12"
     transform="matrix(0,-1,1,0,0,0)" />
  <path
     id="path5530"
     d="M 22.457641,26.542359 L 32.542359,26.542359 L 32.542359,2.9089353 L 30.557338,2.8835885 L 30.525959,0.45764077 L 24.50542,0.45764077 L 24.474042,2.8835885 L 22.48902,2.8835885 L 22.457641,26.542359 z "
     style="fill:url(#linearGradient5550);fill-opacity:1;fill-rule:evenodd;stroke:black;stroke-width:0.91528219;stroke-linecap:butt;stroke-linejoin:round;stroke-miterlimit:4;stroke-dasharray:none;stroke-dashoffset:0;stroke-opacity:1"
     sodipodi:nodetypes="ccccccccc" />
  <rect
     style="opacity:1;fill:url(#linearGradient10981);fill-opacity:1;stroke:none;stroke-width:0.9788022;stroke-linecap:round;stroke-linejoin:round;stroke-miterlimit:1.5;stroke-dasharray:none;stroke-opacity:1"
     id="rect10965"
     width="9"
     height="9"
     x="-26"
     y="23"
     transform="matrix(0,-1,1,0,0,0)" />
  <rect
     style="fill:#ddd;fill-opacity:1;stroke:none;stroke-width:0.9788022;stroke-linecap:round;stroke-linejoin:round;stroke-miterlimit:1.5;stroke-dasharray:none;stroke-opacity:0.79607843"
     id="rect5532"
     width="12.59107"
     height="1"
     x="-16"
     y="23"
     transform="matrix(0,-1,1,0,0,0)" />
  <rect
     style="fill:#8a8a8a;fill-opacity:1;stroke-width:0.80000001;stroke-miterlimit:4;stroke-dasharray:none"
     id="rect5534"
     width="1.0511161"
     height="9"
     x="-22.051117"
     y="23"
     transform="matrix(0,-1,1,0,0,0)" />
  <rect
     style="opacity:1;fill:#e4c575;fill-opacity:1;stroke:none;stroke-width:1;stroke-linecap:round;stroke-linejoin:round;stroke-miterlimit:4;stroke-dasharray:none;stroke-opacity:0.79607843"
     id="rect17773"
     width="9"
     height="1"
     x="-26"
     y="23"
     transform="matrix(0,-1,1,0,0,0)" />
  <rect
     style="fill:#8a8a8a;fill-opacity:1;stroke:none;stroke-width:0.9788022;stroke-linecap:round;stroke-linejoin:round;stroke-miterlimit:1.5;stroke-dasharray:none;stroke-opacity:0.79607843"
     id="rect5536"
     width="12.530121"
     height="0.94854569"
     x="-16"
     y="31.051455"
     transform="matrix(0,-1,1,0,0,0)" />
  <rect
     style="fill:#8a8a8a;fill-opacity:1;stroke-width:0.80000001;stroke-miterlimit:4;stroke-dasharray:none"
     id="rect5544"
     width="1.0511161"
     height="9"
     x="-7.0511155"
     y="23"
     transform="matrix(0,-1,1,0,0,0)" />
  <rect
     style="fill:#8a8a8a;fill-opacity:1;stroke-width:0.80000001;stroke-miterlimit:4;stroke-dasharray:none"
     id="rect5546"
     width="1.0511161"
     height="9"
     x="-12.051116"
     y="23"
     transform="matrix(0,-1,1,0,0,0)" />
  <rect
     style="fill:#8a8a8a;fill-opacity:1;stroke-width:0.80000001;stroke-miterlimit:4;stroke-dasharray:none"
     id="rect5548"
     width="1.0511161"
     height="9"
     x="-17.051117"
     y="23"
     transform="matrix(0,-1,1,0,0,0)" />
  <rect
     style="opacity:1;fill:#b45e04;fill-opacity:1;stroke:none;stroke-width:1;stroke-linecap:round;stroke-linejoin:round;stroke-miterlimit:4;stroke-dasharray:none;stroke-opacity:0.79607843"
     id="rect5018"
     width="9"
     height="1"
     x="-26"
     y="31"
     transform="matrix(0,-1,1,0,0,0)" />
  <path
     id="path5554"
     d="M 33.457641,26.542359 L 43.542359,26.542359 L 43.542359,2.9089357 L 41.557338,2.8835889 L 41.525959,0.45764109 L 35.50542,0.45764109 L 35.474042,2.8835889 L 33.48902,2.8835889 L 33.457641,26.542359 z "
     style="fill:url(#linearGradient5574);fill-opacity:1;fill-rule:evenodd;stroke:black;stroke-width:0.91528219;stroke-linecap:butt;stroke-linejoin:round;stroke-miterlimit:4;stroke-dasharray:none;stroke-dashoffset:0;stroke-opacity:1"
     sodipodi:nodetypes="ccccccccc" />
  <rect
     style="opacity:1;fill:url(#linearGradient1960);fill-opacity:1;stroke:none;stroke-width:0.9788022;stroke-linecap:round;stroke-linejoin:round;stroke-miterlimit:1.5;stroke-dasharray:none;stroke-opacity:1"
     id="rect1958"
     width="14"
     height="9"
     x="-26"
     y="34"
     transform="matrix(0,-1,1,0,0,0)" />
  <rect
     style="opacity:1;fill:#e4c575;fill-opacity:1;stroke:none;stroke-width:1;stroke-linecap:round;stroke-linejoin:round;stroke-miterlimit:4;stroke-dasharray:none;stroke-opacity:0.79607843"
     id="rect1970"
     width="14"
     height="1"
     x="-26"
     y="34"
     transform="matrix(0,-1,1,0,0,0)" />
  <rect
     style="opacity:1;fill:#b45e04;fill-opacity:1;stroke:none;stroke-width:1;stroke-linecap:round;stroke-linejoin:round;stroke-miterlimit:4;stroke-dasharray:none;stroke-opacity:0.79607843"
     id="rect1976"
     width="14"
     height="1"
     x="-26"
     y="42"
     transform="matrix(0,-1,1,0,0,0)" />
  <rect
     style="fill:#ddd;fill-opacity:1;stroke:none;stroke-width:0.9788022;stroke-linecap:round;stroke-linejoin:round;stroke-miterlimit:1.5;stroke-dasharray:none;stroke-opacity:0.79607843"
     id="rect5556"
     width="7.5910702"
     height="1"
     x="-11"
     y="34"
     transform="matrix(0,-1,1,0,0,0)" />
  <rect
     style="fill:#8a8a8a;fill-opacity:1;stroke-width:0.80000001;stroke-miterlimit:4;stroke-dasharray:none"
     id="rect5558"
     width="1.0511161"
     height="9"
     x="-22.051117"
     y="34"
     transform="matrix(0,-1,1,0,0,0)" />
  <rect
     style="fill:#8a8a8a;fill-opacity:1;stroke:none;stroke-width:0.9788022;stroke-linecap:round;stroke-linejoin:round;stroke-miterlimit:1.5;stroke-dasharray:none;stroke-opacity:0.79607843"
     id="rect5560"
     width="7.5301208"
     height="0.94854569"
     x="-11"
     y="42.051453"
     transform="matrix(0,-1,1,0,0,0)" />
  <rect
     style="fill:#8a8a8a;fill-opacity:1;stroke-width:0.80000001;stroke-miterlimit:4;stroke-dasharray:none"
     id="rect5568"
     width="1.0511161"
     height="9"
     x="-7.051116"
     y="34"
     transform="matrix(0,-1,1,0,0,0)" />
  <rect
     style="fill:#8a8a8a;fill-opacity:1;stroke-width:0.80000001;stroke-miterlimit:4;stroke-dasharray:none"
     id="rect5570"
     width="1.0511161"
     height="9"
     x="-12.051116"
     y="34"
     transform="matrix(0,-1,1,0,0,0)" />
  <rect
     style="fill:#8a8a8a;fill-opacity:1;stroke-width:0.80000001;stroke-miterlimit:4;stroke-dasharray:none"
     id="rect5572"
     width="1.0511161"
     height="9"
     x="-17.051117"
     y="34"
     transform="matrix(0,-1,1,0,0,0)" />
  <path
     id="path5578"
     d="M 44.457641,26.542359 L 54.542359,26.542359 L 54.542359,2.9089356 L 52.557338,2.8835888 L 52.525959,0.457641 L 46.50542,0.457641 L 46.474042,2.8835888 L 44.489021,2.8835888 L 44.457641,26.542359 z "
     style="fill:url(#linearGradient5598);fill-opacity:1;fill-rule:evenodd;stroke:black;stroke-width:0.91528219;stroke-linecap:butt;stroke-linejoin:round;stroke-miterlimit:4;stroke-dasharray:none;stroke-dashoffset:0;stroke-opacity:1"
     sodipodi:nodetypes="ccccccccc" />
  <rect
     style="opacity:1;fill:url(#linearGradient9998);fill-opacity:1;stroke:none;stroke-width:0.9788022;stroke-linecap:round;stroke-linejoin:round;stroke-miterlimit:1.5;stroke-dasharray:none;stroke-opacity:1"
     id="rect9966"
     width="19"
     height="9"
     x="-26"
     y="45"
     transform="matrix(0,-1,1,0,0,0)" />
  <rect
     style="opacity:1;fill:#80d980;fill-opacity:1;stroke:none;stroke-width:1;stroke-linecap:round;stroke-linejoin:round;stroke-miterlimit:4;stroke-dasharray:none;stroke-opacity:0.79607843"
     id="rect9978"
     width="19"
     height="1"
     x="-26"
     y="45"
     transform="matrix(0,-1,1,0,0,0)" />
  <rect
     style="opacity:1;fill:#217021;fill-opacity:1;stroke:none;stroke-width:1;stroke-linecap:round;stroke-linejoin:round;stroke-miterlimit:4;stroke-dasharray:none;stroke-opacity:0.79607843"
     id="rect2369"
     width="19"
     height="1"
     x="-26"
     y="53"
     transform="matrix(0,-1,1,0,0,0)" />
  <rect
     style="fill:#ddd;fill-opacity:1;stroke:none;stroke-width:0.9788022;stroke-linecap:round;stroke-linejoin:round;stroke-miterlimit:1.5;stroke-dasharray:none;stroke-opacity:0.79607843"
     id="rect5580"
     width="2.5910702"
     height="1"
     x="-6"
     y="45.000004"
     transform="matrix(0,-1,1,0,0,0)" />
  <rect
     style="fill:#8a8a8a;fill-opacity:1;stroke-width:0.80000001;stroke-miterlimit:4;stroke-dasharray:none"
     id="rect5582"
     width="1.0511161"
     height="9"
     x="-22.051117"
     y="45.000004"
     transform="matrix(0,-1,1,0,0,0)" />
  <rect
     style="fill:#8a8a8a;fill-opacity:1;stroke:none;stroke-width:0.9788022;stroke-linecap:round;stroke-linejoin:round;stroke-miterlimit:1.5;stroke-dasharray:none;stroke-opacity:0.79607843"
     id="rect5584"
     width="2.5301208"
     height="0.94854569"
     x="-6"
     y="53.051456"
     transform="matrix(0,-1,1,0,0,0)" />
  <rect
     style="fill:#8a8a8a;fill-opacity:1;stroke-width:0.80000001;stroke-miterlimit:4;stroke-dasharray:none"
     id="rect5592"
     width="1.0511161"
     height="9"
     x="-7.051116"
     y="45.000004"
     transform="matrix(0,-1,1,0,0,0)" />
  <rect
     style="fill:#8a8a8a;fill-opacity:1;stroke-width:0.80000001;stroke-miterlimit:4;stroke-dasharray:none"
     id="rect5594"
     width="1.0511161"
     height="9"
     x="-12.051116"
     y="45.000004"
     transform="matrix(0,-1,1,0,0,0)" />
  <rect
     style="fill:#8a8a8a;fill-opacity:1;stroke-width:0.80000001;stroke-miterlimit:4;stroke-dasharray:none"
     id="rect5596"
     width="1.0511161"
     height="9"
     x="-17.051117"
     y="45.000004"
     transform="matrix(0,-1,1,0,0,0)" />
  <path
     id="path5626"
     d="M 55.457641,26.542359 L 65.542359,26.542359 L 65.542359,2.9089352 L 63.557338,2.8835884 L 63.525959,0.45764056 L 57.50542,0.45764056 L 57.474042,2.8835884 L 55.48902,2.8835884 L 55.457641,26.542359 z "
     style="fill:url(#linearGradient5646);fill-opacity:1;fill-rule:evenodd;stroke:black;stroke-width:0.91528219;stroke-linecap:butt;stroke-linejoin:round;stroke-miterlimit:4;stroke-dasharray:none;stroke-dashoffset:0;stroke-opacity:1"
     sodipodi:nodetypes="ccccccccc" />
  <path
     style="fill:url(#linearGradient11936);fill-opacity:1;fill-rule:evenodd;stroke:none;stroke-width:1px;stroke-linecap:butt;stroke-linejoin:miter;stroke-opacity:1"
     d="M 56.018072,6.0361446 L 56.036144,3.3949858 L 57.927711,3.2857681 L 58.018072,1 L 63.018072,1 L 63.108433,3.2311594 L 65.018072,3.2675652 L 65.018072,6.0361446 L 56.018072,6.0361446 z "
     id="path11898"
     sodipodi:nodetypes="ccccccccc" />
  <rect
     style="opacity:1;fill:url(#linearGradient5656);fill-opacity:1;stroke:none;stroke-width:0.9788022;stroke-linecap:round;stroke-linejoin:round;stroke-miterlimit:1.5;stroke-dasharray:none;stroke-opacity:1"
     id="rect5650"
     width="19"
     height="9"
     x="-26"
     y="56"
     transform="matrix(0,-1,1,0,0,0)" />
  <rect
     style="opacity:1;fill:#80d980;fill-opacity:1;stroke:none;stroke-width:1;stroke-linecap:round;stroke-linejoin:round;stroke-miterlimit:4;stroke-dasharray:none;stroke-opacity:0.79607843"
     id="rect5652"
     width="22.596386"
     height="1"
     x="-26"
     y="56"
     transform="matrix(0,-1,1,0,0,0)" />
  <rect
     style="opacity:1;fill:#217021;fill-opacity:1;stroke:none;stroke-width:1;stroke-linecap:round;stroke-linejoin:round;stroke-miterlimit:4;stroke-dasharray:none;stroke-opacity:0.79607843"
     id="rect5654"
     width="22.584337"
     height="1"
     x="-26"
     y="63.999996"
     transform="matrix(0,-1,1,0,0,0)" />
  <rect
     style="fill:#8a8a8a;fill-opacity:1;stroke-width:0.80000001;stroke-miterlimit:4;stroke-dasharray:none"
     id="rect5630"
     width="1.0511161"
     height="9"
     x="-22.051117"
     y="56"
     transform="matrix(0,-1,1,0,0,0)" />
  <rect
     style="fill:#8a8a8a;fill-opacity:1;stroke-width:0.80000001;stroke-miterlimit:4;stroke-dasharray:none"
     id="rect5640"
     width="1.0511161"
     height="9"
     x="-7.0511155"
     y="56"
     transform="matrix(0,-1,1,0,0,0)" />
  <rect
     style="fill:#8a8a8a;fill-opacity:1;stroke-width:0.80000001;stroke-miterlimit:4;stroke-dasharray:none"
     id="rect5642"
     width="1.0511161"
     height="9"
     x="-12.051116"
     y="56"
     transform="matrix(0,-1,1,0,0,0)" />
  <rect
     style="fill:#8a8a8a;fill-opacity:1;stroke-width:0.80000001;stroke-miterlimit:4;stroke-dasharray:none"
     id="rect5644"
     width="1.0511161"
     height="9"
     x="-17.051117"
     y="56"
     transform="matrix(0,-1,1,0,0,0)" />
</svg>
