<?xml version="1.0" encoding="iso-8859-1"?>
<!-- Generator: Adobe Illustrator 12.0.1, SVG Export Plug-In . SVG Version: 6.00 Build 51448)  -->
<!DOCTYPE svg PUBLIC "-//W3C//DTD SVG 1.1//EN" "http://www.w3.org/Graphics/SVG/1.1/DTD/svg11.dtd" [
	<!ENTITY ns_svg "http://www.w3.org/2000/svg">
	<!ENTITY ns_xlink "http://www.w3.org/1999/xlink">
]>
<svg  version="1.1" id="&#xCD;_xBC__xB2_&#xE3;_x5F_1" xmlns="&ns_svg;" xmlns:xlink="&ns_xlink;" width="27.804" height="27.725"
	 viewBox="0 0 27.804 27.725" style="overflow:visible;enable-background:new 0 0 27.804 27.725;" xml:space="preserve">
<g>
	<g>
		<g style="opacity:0.61;">
			<path d="M23.841,11.064l-3.123,0.029l-0.054-1.266c0,0,4.766-2.471,4.589-4.649c-0.176-2.177-4.237-3.883-5.473-0.646h-3.06
				c0.146-1.573,1.883-3.649,5.12-3.943c3.237-0.294,6.355,2.707,5.767,5.531c-0.387,1.853-3.658,3.996-3.658,3.996
				C23.872,10.07,23.849,11.005,23.841,11.064z"/>
			<path style="fill:none;stroke:#000000;stroke-width:0.25;" d="M23.841,11.064l-3.123,0.029l-0.054-1.266
				c0,0,4.766-2.471,4.589-4.649c-0.176-2.177-4.237-3.883-5.473-0.646h-3.06c0.146-1.573,1.883-3.649,5.12-3.943
				c3.237-0.294,6.355,2.707,5.767,5.531c-0.387,1.853-3.658,3.996-3.658,3.996C23.872,10.07,23.849,11.005,23.841,11.064z"/>
		</g>
		<g>
			<path style="fill:#EA2F2F;" d="M23.557,10.781l-3.123,0.029L20.38,9.544c0,0,4.766-2.471,4.589-4.649
				c-0.176-2.177-4.237-3.883-5.473-0.646h-3.06c0.146-1.573,1.883-3.649,5.12-3.943c3.237-0.294,6.355,2.707,5.767,5.531
				c-0.387,1.853-3.658,3.996-3.658,3.996C23.588,9.786,23.565,10.721,23.557,10.781z"/>
			<path style="fill:none;stroke:#363639;stroke-width:0.25;" d="M23.557,10.781l-3.123,0.029L20.38,9.544
				c0,0,4.766-2.471,4.589-4.649c-0.176-2.177-4.237-3.883-5.473-0.646h-3.06c0.146-1.573,1.883-3.649,5.12-3.943
				c3.237-0.294,6.355,2.707,5.767,5.531c-0.387,1.853-3.658,3.996-3.658,3.996C23.588,9.786,23.565,10.721,23.557,10.781z"/>
		</g>
	</g>
	<g>
		<g style="opacity:0.61;">
			<rect x="20.633" y="12.387" width="3.266" height="2.855"/>
			<rect x="20.633" y="12.387" style="fill:none;stroke:#000000;stroke-width:0.25;" width="3.266" height="2.855"/>
		</g>
		<g>
			<rect x="20.35" y="12.104" style="fill:#EA2F2F;" width="3.266" height="2.855"/>
			<rect x="20.35" y="12.104" style="fill:none;stroke:#363639;stroke-width:0.25;" width="3.266" height="2.855"/>
		</g>
	</g>
</g>
<g>
	
		<linearGradient id="XMLID_5_" gradientUnits="userSpaceOnUse" x1="-7.6768" y1="-61.1162" x2="-3.8294" y2="-62.7295" gradientTransform="matrix(0.9968 -0.0791 0.0791 0.9968 20.0004 77.3604)">
		<stop  offset="0.0056" style="stop-color:#424242"/>
		<stop  offset="0.3202" style="stop-color:#FFFFFF"/>
		<stop  offset="0.736" style="stop-color:#CCCCCC"/>
		<stop  offset="1" style="stop-color:#424242"/>
	</linearGradient>
	<path style="fill:url(#XMLID_5_);stroke:#010101;stroke-width:0.25;" d="M2.783,7.578c0,0,8.268,17.184,9.844,19.262
		c1.579,2.078,8.031-0.472,8.516-3.253C21.631,20.803,9.36,1.899,9.36,1.899S7.49,1.887,6.62,2.414
		C5.99,2.792,3.988,3.905,3.728,4.301C3.469,4.695,2.783,7.578,2.783,7.578z"/>
	
		<linearGradient id="XMLID_6_" gradientUnits="userSpaceOnUse" x1="-8.1777" y1="-63.665" x2="5.4551" y2="-63.665" gradientTransform="matrix(0.9968 -0.0791 0.0791 0.9968 20.0004 77.3604)">
		<stop  offset="0.1067" style="stop-color:#ECECEC"/>
		<stop  offset="0.3202" style="stop-color:#FFFFFF"/>
		<stop  offset="0.736" style="stop-color:#CCCCCC"/>
		<stop  offset="1" style="stop-color:#424242"/>
	</linearGradient>
	<path style="fill:url(#XMLID_6_);stroke:#010101;stroke-width:0.25;" d="M6.267,2.728c0,0,0.933-0.822,2.569-1.163
		c1.635-0.336,2.618-0.537,3.57,0.467c0.957,1.006,5.268,10.311,7.115,14.736c0,0,2.502,5.835,1.276,7.679
		c-1.228,1.842-3.541,3.066-4.876,1.468c-1.33-1.601-8.154-17.946-8.969-19.835C6.139,4.191,5.52,3.283,6.267,2.728z"/>
	<path style="fill:#525252;" d="M3.898,4.206c0,0,1.92-1.359,3.043-1.864C8.067,1.835,5.721,2.487,6.15,3.817
		c0.356,1.1,8.957,20.206,9.504,21.324c0.547,1.125,1.832,1.604,2.76,1.238c0,0-1.075,0.585-1.446,0.654
		c-0.368,0.073-1.641-0.785-2.253-2.188C14.104,23.438,7.758,8.431,7.289,7.761S6.766,5.89,4.797,6.212
		C2.825,6.535,4.107,4.23,3.898,4.206z"/>
	
		<linearGradient id="XMLID_7_" gradientUnits="userSpaceOnUse" x1="-6.6309" y1="-66.2646" x2="4.2715" y2="-66.2646" gradientTransform="matrix(0.9968 -0.0791 0.0791 0.9968 20.0004 77.3604)">
		<stop  offset="0" style="stop-color:#F3E755"/>
		<stop  offset="0.9831" style="stop-color:#F2B71B"/>
	</linearGradient>
	<path style="fill:url(#XMLID_7_);stroke:#010101;stroke-width:0.25;" d="M7.877,5.758C7.518,4.829,7.205,4.069,8.795,3.651
		c1.589-0.417,3.732-1.109,4.188-0.538c0.968,1.209,5.768,10.989,6.465,13.787c0.22,0.87-0.024,1.248-0.972,1.363
		c-0.588,0.076-0.967-0.128-1.725,0.807c-0.757,0.931-1.948,1.109-2.555,0.284C13.141,17.915,8.24,6.686,7.877,5.758z"/>
	
		<linearGradient id="XMLID_8_" gradientUnits="userSpaceOnUse" x1="-51.8525" y1="-32.5522" x2="-49.7037" y2="-33.544" gradientTransform="matrix(0.9023 0.0193 -0.0158 0.7697 47.7679 29.8301)">
		<stop  offset="0.0056" style="stop-color:#4F4F4F"/>
		<stop  offset="0.3202" style="stop-color:#FFFFFF"/>
		<stop  offset="0.736" style="stop-color:#CCCCCC"/>
		<stop  offset="1" style="stop-color:#424242"/>
	</linearGradient>
	<path style="fill:url(#XMLID_8_);stroke:#010101;stroke-width:0.25;" d="M0.191,1.418c0,0-0.305-0.558,0.393-0.945
		c0.18-0.101,0.17-0.095,0.627-0.286c0.307-0.128,0.92-0.11,1.275,0.582c0.346,0.67,2.195,4.322,2.195,4.322S4.968,5.77,4.283,6.267
		C3.602,6.761,3.146,6.911,2.852,6.743C2.558,6.58,0.191,1.418,0.191,1.418z"/>
	<path style="fill:#97C63D;stroke:#010101;stroke-width:0.25;stroke-linecap:round;stroke-linejoin:round;" d="M9.04,6.249
		c0,0,3.337-0.931,4.264-1.295l4.602,9.782L13.98,16.63L9.04,6.249z"/>
</g>
</svg>
