<?xml version="1.0" encoding="UTF-8" standalone="no"?>
<!-- Created with Inkscape (http://www.inkscape.org/) -->
<svg
   xmlns:dc="http://purl.org/dc/elements/1.1/"
   xmlns:cc="http://web.resource.org/cc/"
   xmlns:rdf="http://www.w3.org/1999/02/22-rdf-syntax-ns#"
   xmlns:svg="http://www.w3.org/2000/svg"
   xmlns="http://www.w3.org/2000/svg"
   xmlns:xlink="http://www.w3.org/1999/xlink"
   xmlns:sodipodi="http://sodipodi.sourceforge.net/DTD/sodipodi-0.dtd"
   xmlns:inkscape="http://www.inkscape.org/namespaces/inkscape"
   id="svg2"
   sodipodi:version="0.32"
   inkscape:version="0.44"
   width="211.2pt"
   height="8.8000002pt"
   sodipodi:docbase="/home/user"
   sodipodi:docname="signal-big.svg"
   version="1.0">
  <metadata
     id="metadata7">
    <rdf:RDF>
      <cc:Work
         rdf:about="">
        <dc:format>image/svg+xml</dc:format>
        <dc:type
           rdf:resource="http://purl.org/dc/dcmitype/StillImage" />
      </cc:Work>
    </rdf:RDF>
  </metadata>
  <defs
     id="defs5">
    <linearGradient
       id="linearGradient12745">
      <stop
         style="stop-color:#ff5b00;stop-opacity:1;"
         offset="0"
         id="stop12747" />
      <stop
         style="stop-color:#ffd12c;stop-opacity:1;"
         offset="1"
         id="stop12749" />
    </linearGradient>
    <linearGradient
       id="linearGradient9203">
      <stop
         style="stop-color:black;stop-opacity:1;"
         offset="0"
         id="stop9205" />
      <stop
         style="stop-color:#eaeaea;stop-opacity:1;"
         offset="1"
         id="stop9207" />
    </linearGradient>
    <linearGradient
       inkscape:collect="always"
       xlink:href="#linearGradient12745"
       id="linearGradient12751"
       x1="41.775997"
       y1="43.499992"
       x2="41.789505"
       y2="48.5625"
       gradientUnits="userSpaceOnUse"
       spreadMethod="reflect"
       gradientTransform="matrix(0.9245,0,0,0.888889,46.6398,-37.66667)" />
    <linearGradient
       inkscape:collect="always"
       xlink:href="#linearGradient12745"
       id="linearGradient2242"
       x1="39.910316"
       y1="41.65625"
       x2="39.939163"
       y2="46.71875"
       gradientUnits="userSpaceOnUse"
       spreadMethod="reflect"
       gradientTransform="matrix(0.960739,0,0,0.888889,88.63742,-36.02777)" />
    <linearGradient
       inkscape:collect="always"
       xlink:href="#linearGradient12745"
       id="linearGradient3158"
       x1="37.141663"
       y1="56.3125"
       x2="37.169441"
       y2="61.375"
       gradientUnits="userSpaceOnUse"
       spreadMethod="reflect"
       gradientTransform="matrix(0.9728,0,0,0.888889,132.1056,-49.05556)" />
    <linearGradient
       inkscape:collect="always"
       xlink:href="#linearGradient12745"
       id="linearGradient4074"
       x1="33.334358"
       y1="70.28125"
       x2="33.361069"
       y2="75.34375"
       gradientUnits="userSpaceOnUse"
       spreadMethod="reflect"
       gradientTransform="matrix(0.979192,0,0,0.88889,175.8238,-61.47221)" />
    <linearGradient
       inkscape:collect="always"
       xlink:href="#linearGradient12745"
       id="linearGradient4152"
       gradientUnits="userSpaceOnUse"
       gradientTransform="matrix(0.99611,0,0,0.888889,256.8863,-26.59277)"
       spreadMethod="reflect"
       x1="-9.9248447"
       y1="31.041883"
       x2="-9.9248447"
       y2="36.104385" />
    <linearGradient
       inkscape:collect="always"
       xlink:href="#linearGradient9203"
       id="linearGradient6004"
       gradientUnits="userSpaceOnUse"
       gradientTransform="matrix(0.99611,0,0,0.88889,212.8862,-26.59278)"
       spreadMethod="reflect"
       x1="-9.9248428"
       y1="23.099197"
       x2="-9.9248428"
       y2="36.104389" />
    <linearGradient
       inkscape:collect="always"
       xlink:href="#linearGradient9203"
       id="linearGradient5489"
       gradientUnits="userSpaceOnUse"
       gradientTransform="matrix(0.99611,0,0,0.88889,168.9065,-26.59278)"
       spreadMethod="reflect"
       x1="-9.9248428"
       y1="23.099197"
       x2="-9.9248428"
       y2="36.104389" />
    <linearGradient
       inkscape:collect="always"
       xlink:href="#linearGradient9203"
       id="linearGradient1957"
       gradientUnits="userSpaceOnUse"
       gradientTransform="matrix(0.99611,0,0,0.88889,124.9065,-26.59278)"
       spreadMethod="reflect"
       x1="-9.9248428"
       y1="23.099197"
       x2="-9.9248428"
       y2="36.104389" />
    <linearGradient
       inkscape:collect="always"
       xlink:href="#linearGradient12745"
       id="linearGradient1959"
       gradientUnits="userSpaceOnUse"
       gradientTransform="matrix(0.9728,0,0,0.888889,88.10567,-49.05556)"
       spreadMethod="reflect"
       x1="37.141663"
       y1="56.3125"
       x2="37.169441"
       y2="61.375" />
    <linearGradient
       inkscape:collect="always"
       xlink:href="#linearGradient9203"
       id="linearGradient1991"
       gradientUnits="userSpaceOnUse"
       gradientTransform="matrix(0.99611,0,0,0.88889,80.90652,-26.59278)"
       spreadMethod="reflect"
       x1="-9.9248428"
       y1="23.099197"
       x2="-9.9248428"
       y2="36.104389" />
    <linearGradient
       inkscape:collect="always"
       xlink:href="#linearGradient12745"
       id="linearGradient1993"
       gradientUnits="userSpaceOnUse"
       gradientTransform="matrix(0.960739,0,0,0.888889,44.63744,-36.02777)"
       spreadMethod="reflect"
       x1="39.910316"
       y1="41.65625"
       x2="39.939163"
       y2="46.71875" />
    <linearGradient
       inkscape:collect="always"
       xlink:href="#linearGradient9203"
       id="linearGradient2025"
       gradientUnits="userSpaceOnUse"
       gradientTransform="matrix(0.99611,0,0,0.88889,36.90652,-26.59278)"
       spreadMethod="reflect"
       x1="-9.9248428"
       y1="23.099197"
       x2="-9.9248428"
       y2="36.104389" />
    <linearGradient
       inkscape:collect="always"
       xlink:href="#linearGradient12745"
       id="linearGradient2027"
       gradientUnits="userSpaceOnUse"
       gradientTransform="matrix(0.9245,0,0,0.888889,2.639802,-37.66667)"
       spreadMethod="reflect"
       x1="41.775997"
       y1="43.499992"
       x2="41.789505"
       y2="48.5625" />
  </defs>
  <sodipodi:namedview
     inkscape:window-height="1127"
     inkscape:window-width="1920"
     inkscape:pageshadow="2"
     inkscape:pageopacity="0.0"
     borderopacity="1.0"
     bordercolor="#666666"
     pagecolor="#ffffff"
     id="base"
     showguides="true"
     inkscape:guide-bbox="true"
     inkscape:zoom="19.648998"
     inkscape:cx="44.253727"
     inkscape:cy="5.9244198"
     inkscape:window-x="0"
     inkscape:window-y="0"
     inkscape:current-layer="svg2"
     showgrid="true">
    <sodipodi:guide
       orientation="horizontal"
       position="1052.3581"
       id="guide5426" />
  </sodipodi:namedview>
  <path
     style="opacity:1;fill:url(#linearGradient6004);fill-opacity:1;stroke:none;stroke-width:0.88271505;stroke-linecap:butt;stroke-linejoin:miter;stroke-miterlimit:0;stroke-dasharray:none;stroke-opacity:1"
     d="M 190.98444,1 L 190.98444,1.0277778 C 188.7404,1.2964451 187,3.2044446 187,5.4999995 C 187,7.7936185 188.74316,9.6732614 190.98444,9.9444447 L 190.98444,10 L 191.42024,10 L 191.63814,10 L 219,10 L 219,1 L 191.82491,1 L 191.23346,1 L 190.98444,1 z "
     id="path5980" />
  <path
     style="opacity:1;fill:url(#linearGradient4074);fill-opacity:1;stroke:none;stroke-width:0.88271505;stroke-linecap:butt;stroke-linejoin:miter;stroke-miterlimit:0;stroke-dasharray:none;stroke-opacity:1"
     d="M 197.91677,1 L 197.91677,1.0277785 C 195.71086,1.2964474 194,3.204445 194,5.5000003 C 194,7.7936204 195.71355,9.6732608 197.91677,9.9444442 L 197.91677,10 L 198.34517,10 L 198.55937,10 L 219,10 L 219,1 L 198.74296,1 L 198.16157,1 L 197.91677,1 z "
     id="path3190" />
  <path
     style="opacity:1;fill:url(#linearGradient4152);fill-opacity:1;stroke:none;stroke-width:0.88271505;stroke-linecap:butt;stroke-linejoin:miter;stroke-miterlimit:0;stroke-dasharray:none;stroke-opacity:1"
     d="M 234.98444,1 L 234.98444,1.0277783 C 232.7404,1.2964462 231,3.2044439 231,5.4999985 C 231,7.7936157 232.74315,9.6732545 234.98444,9.9444453 L 234.98444,10 L 235.42023,10 L 235.63813,10 L 263,10 L 263,1 L 235.82491,1 L 235.23346,1 L 234.98444,1 z "
     id="path4136" />
  <rect
     style="fill:#e4c575;fill-opacity:1;stroke:none;stroke-width:1;stroke-linecap:round;stroke-linejoin:round;stroke-miterlimit:4;stroke-dasharray:none;stroke-opacity:0.79607843"
     id="rect2658"
     width="30"
     height="1"
     x="233"
     y="1" />
  <rect
     style="fill:#b45e04;fill-opacity:1;stroke:none;stroke-width:1;stroke-linecap:round;stroke-linejoin:round;stroke-miterlimit:4;stroke-dasharray:none;stroke-opacity:0.79607843"
     id="rect2648"
     width="30"
     height="1"
     x="233"
     y="9" />
  <path
     sodipodi:type="arc"
     style="opacity:1;fill:none;fill-opacity:1;stroke:#999;stroke-width:0.89999998;stroke-linecap:butt;stroke-linejoin:miter;stroke-miterlimit:0;stroke-dasharray:none;stroke-opacity:1"
     id="path3677"
     sodipodi:cx="23.340693"
     sodipodi:cy="22.457729"
     sodipodi:rx="5.1643806"
     sodipodi:ry="5.106678"
     d="M 23.819863,27.542379 A 5.1643806,5.106678 0 1 1 23.395585,17.35134"
     transform="matrix(0.911383,0,0,0.993149,239.8629,-16.804)"
     sodipodi:start="1.477879"
     sodipodi:end="4.7230182"
     sodipodi:open="true" />
  <path
     sodipodi:type="arc"
     style="opacity:1;fill:none;fill-opacity:1;stroke:#999;stroke-width:0.89999998;stroke-linecap:butt;stroke-linejoin:miter;stroke-miterlimit:0;stroke-dasharray:none;stroke-opacity:1"
     id="path6028"
     sodipodi:cx="23.340693"
     sodipodi:cy="22.457729"
     sodipodi:rx="5.1643806"
     sodipodi:ry="5.106678"
     d="M 23.819863,27.542379 A 5.1643806,5.106678 0 1 1 23.395585,17.35134"
     transform="matrix(0.911383,0,0,0.993149,221.8629,-16.804)"
     sodipodi:start="1.477879"
     sodipodi:end="4.7230182"
     sodipodi:open="true" />
  <path
     sodipodi:type="arc"
     style="opacity:1;fill:none;fill-opacity:1;stroke:#999;stroke-width:0.89999998;stroke-linecap:butt;stroke-linejoin:miter;stroke-miterlimit:0;stroke-dasharray:none;stroke-opacity:1"
     id="path3675"
     sodipodi:cx="23.340693"
     sodipodi:cy="22.457729"
     sodipodi:rx="5.1643806"
     sodipodi:ry="5.106678"
     d="M 23.819863,27.542379 A 5.1643806,5.106678 0 1 1 23.395585,17.35134"
     transform="matrix(0.911383,0,0,0.993149,233.8629,-16.804)"
     sodipodi:start="1.477879"
     sodipodi:end="4.7230182"
     sodipodi:open="true" />
  <path
     sodipodi:type="arc"
     style="opacity:1;fill:none;fill-opacity:1;stroke:#999;stroke-width:0.89999998;stroke-linecap:butt;stroke-linejoin:miter;stroke-miterlimit:0;stroke-dasharray:none;stroke-opacity:1"
     id="path3673"
     sodipodi:cx="23.340693"
     sodipodi:cy="22.457729"
     sodipodi:rx="5.1643806"
     sodipodi:ry="5.106678"
     d="M 23.819863,27.542379 A 5.1643806,5.106678 0 1 1 23.395585,17.35134"
     transform="matrix(0.911383,0,0,0.993149,227.8628,-16.80399)"
     sodipodi:start="1.477879"
     sodipodi:end="4.7230182"
     sodipodi:open="true" />
  <path
     style="opacity:1;fill:none;fill-opacity:1;stroke:black;stroke-width:0.97896898;stroke-linecap:butt;stroke-linejoin:round;stroke-miterlimit:1.5;stroke-dasharray:none;stroke-opacity:1"
     d="M 235.47655,0.48948449 L 235.47655,0.52041301 C 233.23103,0.81956093 231.48948,2.9440184 231.48948,5.4999995 C 231.48948,8.0538239 233.23379,10.146709 235.47655,10.448655 L 235.47655,10.510514 L 235.91262,10.510514 L 236.13067,10.510514 L 263.51052,10.510514 L 263.51052,0.48948449 L 236.31756,0.48948449 L 235.72573,0.48948449 L 235.47655,0.48948449 z "
     id="path6020" />
  <g
     id="g6030"
     transform="matrix(0.987539,0,0,1.016917,235.9122,-13.26278)">
    <path
       sodipodi:nodetypes="ccc"
       id="path6032"
       d="M -13.564868,16.572768 L -10.544637,19.483463 L -7.4513057,16.5"
       style="fill:none;fill-opacity:1;fill-rule:evenodd;stroke:#454545;stroke-width:0.93402576px;stroke-linecap:butt;stroke-linejoin:miter;stroke-opacity:1" />
    <path
       id="path6034"
       d="M -10.5,21.95204 L -10.5,16.5"
       style="fill:none;fill-opacity:0.75;fill-rule:evenodd;stroke:#000000;stroke-width:1px;stroke-linecap:butt;stroke-linejoin:miter;stroke-opacity:1" />
    <path
       id="path6036"
       d="M -14.613561,16.5 L -6.5,16.5"
       style="fill:none;fill-opacity:0.75;fill-rule:evenodd;stroke:#000000;stroke-width:1px;stroke-linecap:butt;stroke-linejoin:miter;stroke-opacity:1" />
  </g>
  <rect
     style="fill:#e4c575;fill-opacity:1;stroke:none;stroke-width:1;stroke-linecap:round;stroke-linejoin:round;stroke-miterlimit:4;stroke-dasharray:none;stroke-opacity:0.79607843"
     id="rect1903"
     width="23"
     height="1"
     x="196"
     y="1" />
  <rect
     style="fill:#b45e04;fill-opacity:1;stroke:none;stroke-width:1;stroke-linecap:round;stroke-linejoin:round;stroke-miterlimit:4;stroke-dasharray:none;stroke-opacity:0.79607843"
     id="rect1905"
     width="23"
     height="1"
     x="196"
     y="9" />
  <path
     sodipodi:type="arc"
     style="opacity:1;fill:none;fill-opacity:1;stroke:#999;stroke-width:0.89999998;stroke-linecap:butt;stroke-linejoin:miter;stroke-miterlimit:0;stroke-dasharray:none;stroke-opacity:1"
     id="path1907"
     sodipodi:cx="23.340693"
     sodipodi:cy="22.457729"
     sodipodi:rx="5.1643806"
     sodipodi:ry="5.106678"
     d="M 23.819863,27.542379 A 5.1643806,5.106678 0 1 1 23.395585,17.35134"
     transform="matrix(0.911383,0,0,0.993149,195.8629,-16.804)"
     sodipodi:start="1.477879"
     sodipodi:end="4.7230182"
     sodipodi:open="true" />
  <rect
     style="fill:#8a8a8a;fill-opacity:1;stroke:none;stroke-width:0.80000001;stroke-miterlimit:4;stroke-dasharray:none;stroke-opacity:1"
     id="rect4572"
     width="7"
     height="1"
     x="189"
     y="9" />
  <rect
     style="fill:#ddd;fill-opacity:1;stroke:none;stroke-width:0.80000001;stroke-miterlimit:4;stroke-dasharray:none;stroke-opacity:1"
     id="rect2800"
     width="7"
     height="1"
     x="189"
     y="1" />
  <path
     sodipodi:type="arc"
     style="opacity:1;fill:none;fill-opacity:1;stroke:#999;stroke-width:0.89999998;stroke-linecap:butt;stroke-linejoin:miter;stroke-miterlimit:0;stroke-dasharray:none;stroke-opacity:1"
     id="path1909"
     sodipodi:cx="23.340693"
     sodipodi:cy="22.457729"
     sodipodi:rx="5.1643806"
     sodipodi:ry="5.106678"
     d="M 23.819863,27.542379 A 5.1643806,5.106678 0 1 1 23.395585,17.35134"
     transform="matrix(0.911383,0,0,0.993149,177.8629,-16.804)"
     sodipodi:start="1.477879"
     sodipodi:end="4.7230182"
     sodipodi:open="true" />
  <path
     sodipodi:type="arc"
     style="opacity:1;fill:none;fill-opacity:1;stroke:#999;stroke-width:0.89999998;stroke-linecap:butt;stroke-linejoin:miter;stroke-miterlimit:0;stroke-dasharray:none;stroke-opacity:1"
     id="path1911"
     sodipodi:cx="23.340693"
     sodipodi:cy="22.457729"
     sodipodi:rx="5.1643806"
     sodipodi:ry="5.106678"
     d="M 23.819863,27.542379 A 5.1643806,5.106678 0 1 1 23.395585,17.35134"
     transform="matrix(0.911383,0,0,0.993149,189.8629,-16.804)"
     sodipodi:start="1.477879"
     sodipodi:end="4.7230182"
     sodipodi:open="true" />
  <path
     sodipodi:type="arc"
     style="opacity:1;fill:none;fill-opacity:1;stroke:#999;stroke-width:0.89999998;stroke-linecap:butt;stroke-linejoin:miter;stroke-miterlimit:0;stroke-dasharray:none;stroke-opacity:1"
     id="path1913"
     sodipodi:cx="23.340693"
     sodipodi:cy="22.457729"
     sodipodi:rx="5.1643806"
     sodipodi:ry="5.106678"
     d="M 23.819863,27.542379 A 5.1643806,5.106678 0 1 1 23.395585,17.35134"
     transform="matrix(0.911383,0,0,0.993149,183.8628,-16.80399)"
     sodipodi:start="1.477879"
     sodipodi:end="4.7230182"
     sodipodi:open="true" />
  <path
     style="opacity:1;fill:none;fill-opacity:1;stroke:black;stroke-width:0.97896898;stroke-linecap:butt;stroke-linejoin:round;stroke-miterlimit:1.5;stroke-dasharray:none;stroke-opacity:1"
     d="M 191.47655,0.48948452 L 191.47655,0.52041302 C 189.23103,0.81956092 187.48948,2.9440184 187.48948,5.4999995 C 187.48948,8.0538239 189.23379,10.146709 191.47655,10.448655 L 191.47655,10.510514 L 191.91262,10.510514 L 192.13067,10.510514 L 219.51052,10.510514 L 219.51052,0.48948452 L 192.31756,0.48948452 L 191.72573,0.48948452 L 191.47655,0.48948452 z "
     id="path1915" />
  <g
     id="g1917"
     transform="matrix(0.987539,0,0,1.016917,191.9122,-13.26278)">
    <path
       sodipodi:nodetypes="ccc"
       id="path1919"
       d="M -13.564868,16.572768 L -10.544637,19.483463 L -7.4513057,16.5"
       style="fill:none;fill-opacity:1;fill-rule:evenodd;stroke:#454545;stroke-width:0.93402576px;stroke-linecap:butt;stroke-linejoin:miter;stroke-opacity:1" />
    <path
       id="path1921"
       d="M -10.5,21.95204 L -10.5,16.5"
       style="fill:none;fill-opacity:0.75;fill-rule:evenodd;stroke:black;stroke-width:1px;stroke-linecap:butt;stroke-linejoin:miter;stroke-opacity:1" />
    <path
       id="path1923"
       d="M -14.613561,16.5 L -6.5,16.5"
       style="fill:none;fill-opacity:0.75;fill-rule:evenodd;stroke:black;stroke-width:1px;stroke-linecap:butt;stroke-linejoin:miter;stroke-opacity:1" />
  </g>
  <path
     style="opacity:1;fill:url(#linearGradient5489);fill-opacity:1;stroke:none;stroke-width:0.88271505;stroke-linecap:butt;stroke-linejoin:miter;stroke-miterlimit:0;stroke-dasharray:none;stroke-opacity:1"
     d="M 147.00475,1.0000015 L 147.00475,1.0277793 C 144.76071,1.2964466 143.02031,3.2044461 143.02031,5.500001 C 143.02031,7.79362 144.76347,9.6732629 147.00475,9.9444462 L 147.00475,10.000002 L 147.44055,10.000002 L 147.65845,10.000002 L 175.02031,10.000002 L 175.02031,1.0000015 L 147.84522,1.0000015 L 147.25377,1.0000015 L 147.00475,1.0000015 z "
     id="path5459" />
  <path
     style="opacity:1;fill:url(#linearGradient3158);fill-opacity:1;stroke:none;stroke-width:0.88271505;stroke-linecap:butt;stroke-linejoin:miter;stroke-miterlimit:0;stroke-dasharray:none;stroke-opacity:1"
     d="M 159.8912,1 L 159.8912,1.027778 C 157.69967,1.296446 156,3.2044446 156,5.4999993 C 156,7.7936189 157.70236,9.6732612 159.8912,9.9444449 L 159.8912,10 L 160.3168,10 L 160.5296,10 L 175,10 L 175,1 L 160.71199,1 L 160.1344,1 L 159.8912,1 z "
     id="path2274" />
  <rect
     style="fill:#e4c575;fill-opacity:1;stroke:none;stroke-width:1;stroke-linecap:round;stroke-linejoin:round;stroke-miterlimit:4;stroke-dasharray:none;stroke-opacity:0.79607843"
     id="rect5463"
     width="17.020309"
     height="1"
     x="158"
     y="1.0000015" />
  <rect
     style="fill:#b45e04;fill-opacity:1;stroke:none;stroke-width:1;stroke-linecap:round;stroke-linejoin:round;stroke-miterlimit:4;stroke-dasharray:none;stroke-opacity:0.79607843"
     id="rect5465"
     width="17.020309"
     height="1"
     x="158"
     y="9.0000019" />
  <path
     sodipodi:type="arc"
     style="opacity:1;fill:none;fill-opacity:1;stroke:#999;stroke-width:0.89999998;stroke-linecap:butt;stroke-linejoin:miter;stroke-miterlimit:0;stroke-dasharray:none;stroke-opacity:1"
     id="path5467"
     sodipodi:cx="23.340693"
     sodipodi:cy="22.457729"
     sodipodi:rx="5.1643806"
     sodipodi:ry="5.106678"
     d="M 23.819863,27.542379 A 5.1643806,5.106678 0 1 1 23.395585,17.35134"
     transform="matrix(0.911383,0,0,0.993149,151.8832,-16.804)"
     sodipodi:start="1.477879"
     sodipodi:end="4.7230182"
     sodipodi:open="true" />
  <rect
     style="fill:#8a8a8a;fill-opacity:1;stroke:none;stroke-width:0.80000001;stroke-miterlimit:4;stroke-dasharray:none;stroke-opacity:1"
     id="rect5469"
     width="12.979691"
     height="1"
     x="145.02031"
     y="9.0000019" />
  <rect
     style="fill:#ddd;fill-opacity:1;stroke:none;stroke-width:0.80000001;stroke-miterlimit:4;stroke-dasharray:none;stroke-opacity:1"
     id="rect5471"
     width="12.979691"
     height="1"
     x="145.02031"
     y="1.0000015" />
  <path
     sodipodi:type="arc"
     style="opacity:1;fill:none;fill-opacity:1;stroke:#999;stroke-width:0.89999998;stroke-linecap:butt;stroke-linejoin:miter;stroke-miterlimit:0;stroke-dasharray:none;stroke-opacity:1"
     id="path5473"
     sodipodi:cx="23.340693"
     sodipodi:cy="22.457729"
     sodipodi:rx="5.1643806"
     sodipodi:ry="5.106678"
     d="M 23.819863,27.542379 A 5.1643806,5.106678 0 1 1 23.395585,17.35134"
     transform="matrix(0.911383,0,0,0.993149,133.8832,-16.804)"
     sodipodi:start="1.477879"
     sodipodi:end="4.7230182"
     sodipodi:open="true" />
  <path
     sodipodi:type="arc"
     style="opacity:1;fill:none;fill-opacity:1;stroke:#999;stroke-width:0.89999998;stroke-linecap:butt;stroke-linejoin:miter;stroke-miterlimit:0;stroke-dasharray:none;stroke-opacity:1"
     id="path5475"
     sodipodi:cx="23.340693"
     sodipodi:cy="22.457729"
     sodipodi:rx="5.1643806"
     sodipodi:ry="5.106678"
     d="M 23.819863,27.542379 A 5.1643806,5.106678 0 1 1 23.395585,17.35134"
     transform="matrix(0.911383,0,0,0.993149,145.8832,-16.804)"
     sodipodi:start="1.477879"
     sodipodi:end="4.7230182"
     sodipodi:open="true" />
  <path
     sodipodi:type="arc"
     style="opacity:1;fill:none;fill-opacity:1;stroke:#999;stroke-width:0.89999998;stroke-linecap:butt;stroke-linejoin:miter;stroke-miterlimit:0;stroke-dasharray:none;stroke-opacity:1"
     id="path5477"
     sodipodi:cx="23.340693"
     sodipodi:cy="22.457729"
     sodipodi:rx="5.1643806"
     sodipodi:ry="5.106678"
     d="M 23.819863,27.542379 A 5.1643806,5.106678 0 1 1 23.395585,17.35134"
     transform="matrix(0.911383,0,0,0.993149,139.8831,-16.80399)"
     sodipodi:start="1.477879"
     sodipodi:end="4.7230182"
     sodipodi:open="true" />
  <path
     style="opacity:1;fill:none;fill-opacity:1;stroke:black;stroke-width:0.97896898;stroke-linecap:butt;stroke-linejoin:round;stroke-miterlimit:1.5;stroke-dasharray:none;stroke-opacity:1"
     d="M 147.49686,0.48948601 L 147.49686,0.52041451 C 145.25134,0.81956244 143.50979,2.9440199 143.50979,5.500001 C 143.50979,8.0538254 145.2541,10.146711 147.49686,10.448657 L 147.49686,10.510516 L 147.93293,10.510516 L 148.15098,10.510516 L 175.53083,10.510516 L 175.53083,0.48948601 L 148.33787,0.48948601 L 147.74604,0.48948601 L 147.49686,0.48948601 z "
     id="path5479" />
  <g
     id="g5481"
     transform="matrix(0.987539,0,0,1.016917,147.9325,-13.26278)">
    <path
       sodipodi:nodetypes="ccc"
       id="path5483"
       d="M -13.564868,16.572768 L -10.544637,19.483463 L -7.4513057,16.5"
       style="fill:none;fill-opacity:1;fill-rule:evenodd;stroke:#454545;stroke-width:0.93402576px;stroke-linecap:butt;stroke-linejoin:miter;stroke-opacity:1" />
    <path
       id="path5485"
       d="M -10.5,21.95204 L -10.5,16.5"
       style="fill:none;fill-opacity:0.75;fill-rule:evenodd;stroke:black;stroke-width:1px;stroke-linecap:butt;stroke-linejoin:miter;stroke-opacity:1" />
    <path
       id="path5487"
       d="M -14.613561,16.5 L -6.5,16.5"
       style="fill:none;fill-opacity:0.75;fill-rule:evenodd;stroke:black;stroke-width:1px;stroke-linecap:butt;stroke-linejoin:miter;stroke-opacity:1" />
  </g>
  <path
     style="opacity:1;fill:url(#linearGradient1957);fill-opacity:1;stroke:none;stroke-width:0.88271505;stroke-linecap:butt;stroke-linejoin:miter;stroke-miterlimit:0;stroke-dasharray:none;stroke-opacity:1"
     d="M 103.00482,0.99999838 L 103.00482,1.0277762 C 100.76078,1.2964435 99.020382,3.204443 99.020382,5.4999979 C 99.020382,7.7936169 100.76354,9.6732598 103.00482,9.9444431 L 103.00482,9.9999989 L 103.44062,9.9999989 L 103.65852,9.9999989 L 131.02038,9.9999989 L 131.02038,0.99999838 L 103.84529,0.99999838 L 103.25384,0.99999838 L 103.00482,0.99999838 z "
     id="path1927" />
  <path
     style="opacity:1;fill:url(#linearGradient2242);fill-opacity:1;stroke:none;stroke-width:0.88271505;stroke-linecap:butt;stroke-linejoin:miter;stroke-miterlimit:0;stroke-dasharray:none;stroke-opacity:1"
     d="M 121.84295,1 L 121.84295,1.0277785 C 119.67861,1.2964457 118,3.2044451 118,5.5000003 C 118,7.7936189 119.68125,9.6732613 121.84295,9.9444448 L 121.84295,10 L 122.26328,10 L 122.47344,10 L 131,10 L 131,1 L 122.65357,1 L 122.08314,1 L 121.84295,1 z "
     id="path1348" />
  <rect
     style="fill:#e4c575;fill-opacity:1;stroke:none;stroke-width:1;stroke-linecap:round;stroke-linejoin:round;stroke-miterlimit:4;stroke-dasharray:none;stroke-opacity:0.79607843"
     id="rect1931"
     width="11.020386"
     height="1"
     x="120"
     y="0.99999845" />
  <rect
     style="fill:#b45e04;fill-opacity:1;stroke:none;stroke-width:1;stroke-linecap:round;stroke-linejoin:round;stroke-miterlimit:4;stroke-dasharray:none;stroke-opacity:0.79607843"
     id="rect1933"
     width="11.020386"
     height="1"
     x="120"
     y="8.999999" />
  <path
     sodipodi:type="arc"
     style="opacity:1;fill:none;fill-opacity:1;stroke:#999;stroke-width:0.89999998;stroke-linecap:butt;stroke-linejoin:miter;stroke-miterlimit:0;stroke-dasharray:none;stroke-opacity:1"
     id="path1935"
     sodipodi:cx="23.340693"
     sodipodi:cy="22.457729"
     sodipodi:rx="5.1643806"
     sodipodi:ry="5.106678"
     d="M 23.819863,27.542379 A 5.1643806,5.106678 0 1 1 23.395585,17.35134"
     transform="matrix(0.911383,0,0,0.993149,107.8832,-16.804)"
     sodipodi:start="1.477879"
     sodipodi:end="4.7230182"
     sodipodi:open="true" />
  <rect
     style="fill:#8a8a8a;fill-opacity:1;stroke:none;stroke-width:0.80000001;stroke-miterlimit:4;stroke-dasharray:none;stroke-opacity:1"
     id="rect1937"
     width="18.979607"
     height="1"
     x="101.02039"
     y="8.999999" />
  <rect
     style="fill:#ddd;fill-opacity:1;stroke:none;stroke-width:0.80000001;stroke-miterlimit:4;stroke-dasharray:none;stroke-opacity:1"
     id="rect1939"
     width="18.979607"
     height="1"
     x="101.02039"
     y="0.99999845" />
  <path
     sodipodi:type="arc"
     style="opacity:1;fill:none;fill-opacity:1;stroke:#999;stroke-width:0.89999998;stroke-linecap:butt;stroke-linejoin:miter;stroke-miterlimit:0;stroke-dasharray:none;stroke-opacity:1"
     id="path1941"
     sodipodi:cx="23.340693"
     sodipodi:cy="22.457729"
     sodipodi:rx="5.1643806"
     sodipodi:ry="5.106678"
     d="M 23.819863,27.542379 A 5.1643806,5.106678 0 1 1 23.395585,17.35134"
     transform="matrix(0.911383,0,0,0.993149,89.88327,-16.804)"
     sodipodi:start="1.477879"
     sodipodi:end="4.7230182"
     sodipodi:open="true" />
  <path
     sodipodi:type="arc"
     style="opacity:1;fill:none;fill-opacity:1;stroke:#999;stroke-width:0.89999998;stroke-linecap:butt;stroke-linejoin:miter;stroke-miterlimit:0;stroke-dasharray:none;stroke-opacity:1"
     id="path1943"
     sodipodi:cx="23.340693"
     sodipodi:cy="22.457729"
     sodipodi:rx="5.1643806"
     sodipodi:ry="5.106678"
     d="M 23.819863,27.542379 A 5.1643806,5.106678 0 1 1 23.395585,17.35134"
     transform="matrix(0.911383,0,0,0.993149,101.8832,-16.804)"
     sodipodi:start="1.477879"
     sodipodi:end="4.7230182"
     sodipodi:open="true" />
  <path
     sodipodi:type="arc"
     style="opacity:1;fill:none;fill-opacity:1;stroke:#999;stroke-width:0.89999998;stroke-linecap:butt;stroke-linejoin:miter;stroke-miterlimit:0;stroke-dasharray:none;stroke-opacity:1"
     id="path1945"
     sodipodi:cx="23.340693"
     sodipodi:cy="22.457729"
     sodipodi:rx="5.1643806"
     sodipodi:ry="5.106678"
     d="M 23.819863,27.542379 A 5.1643806,5.106678 0 1 1 23.395585,17.35134"
     transform="matrix(0.911383,0,0,0.993149,95.88317,-16.80399)"
     sodipodi:start="1.477879"
     sodipodi:end="4.7230182"
     sodipodi:open="true" />
  <path
     style="opacity:1;fill:none;fill-opacity:1;stroke:black;stroke-width:0.97896892;stroke-linecap:butt;stroke-linejoin:round;stroke-miterlimit:1.5;stroke-dasharray:none;stroke-opacity:1"
     d="M 103.49693,0.48948445 L 103.49693,0.52041295 C 101.25141,0.81956083 99.509862,2.944018 99.509862,5.4999987 C 99.509862,8.0538227 101.25417,10.146708 103.49693,10.448654 L 103.49693,10.510513 L 103.933,10.510513 L 104.15105,10.510513 L 131.5309,10.510513 L 131.5309,0.48948445 L 104.33794,0.48948445 L 103.74611,0.48948445 L 103.49693,0.48948445 z "
     id="path1947" />
  <g
     id="g1949"
     transform="matrix(0.987539,0,0,1.016917,103.9325,-13.26278)">
    <path
       sodipodi:nodetypes="ccc"
       id="path1951"
       d="M -13.564868,16.572768 L -10.544637,19.483463 L -7.4513057,16.5"
       style="fill:none;fill-opacity:1;fill-rule:evenodd;stroke:#454545;stroke-width:0.93402576px;stroke-linecap:butt;stroke-linejoin:miter;stroke-opacity:1" />
    <path
       id="path1953"
       d="M -10.5,21.95204 L -10.5,16.5"
       style="fill:none;fill-opacity:0.75;fill-rule:evenodd;stroke:black;stroke-width:1px;stroke-linecap:butt;stroke-linejoin:miter;stroke-opacity:1" />
    <path
       id="path1955"
       d="M -14.613561,16.5 L -6.5,16.5"
       style="fill:none;fill-opacity:0.75;fill-rule:evenodd;stroke:black;stroke-width:1px;stroke-linecap:butt;stroke-linejoin:miter;stroke-opacity:1" />
  </g>
  <path
     style="opacity:1;fill:url(#linearGradient1991);fill-opacity:1;stroke:none;stroke-width:0.88271505;stroke-linecap:butt;stroke-linejoin:miter;stroke-miterlimit:0;stroke-dasharray:none;stroke-opacity:1"
     d="M 59.004844,0.99999839 L 59.004844,1.0277763 C 56.760804,1.2964436 55.020406,3.2044431 55.020406,5.499998 C 55.020406,7.793617 56.763564,9.67326 59.004844,9.944443 L 59.004844,9.999999 L 59.440644,9.999999 L 59.658544,9.999999 L 87.020404,9.999999 L 87.020404,0.99999839 L 59.845314,0.99999839 L 59.253864,0.99999839 L 59.004844,0.99999839 z "
     id="path1961" />
  <path
     style="opacity:1;fill:url(#linearGradient12751);fill-opacity:1;stroke:none;stroke-width:0.88271505;stroke-linecap:butt;stroke-linejoin:miter;stroke-miterlimit:0;stroke-dasharray:none;stroke-opacity:1"
     d="M 84.13983,1 L 84.13983,1.0277775 C 82.057119,1.2964438 80.441825,3.2044438 80.441825,5.4999998 C 80.441825,7.7936172 82.059668,9.6732622 84.13983,9.9444448 L 84.13983,10 L 87,10 L 87,1 L 84.13983,1 z "
     id="path11838" />
  <rect
     style="fill:#e4c575;fill-opacity:1;stroke:none;stroke-width:1;stroke-linecap:round;stroke-linejoin:round;stroke-miterlimit:4;stroke-dasharray:none;stroke-opacity:0.79607843"
     id="rect1965"
     width="5.0204086"
     height="1"
     x="82"
     y="0.99999827" />
  <rect
     style="fill:#b45e04;fill-opacity:1;stroke:none;stroke-width:1;stroke-linecap:round;stroke-linejoin:round;stroke-miterlimit:4;stroke-dasharray:none;stroke-opacity:0.79607843"
     id="rect1967"
     width="5.0204086"
     height="1"
     x="82"
     y="8.999999" />
  <rect
     style="fill:#8a8a8a;fill-opacity:1;stroke:none;stroke-width:0.80000001;stroke-miterlimit:4;stroke-dasharray:none;stroke-opacity:1"
     id="rect1971"
     width="24.97958"
     height="1"
     x="57.02042"
     y="8.999999" />
  <rect
     style="fill:#ddd;fill-opacity:1;stroke:none;stroke-width:0.80000001;stroke-miterlimit:4;stroke-dasharray:none;stroke-opacity:1"
     id="rect1973"
     width="24.97958"
     height="1"
     x="57.02042"
     y="0.99999827" />
  <path
     sodipodi:type="arc"
     style="opacity:1;fill:none;fill-opacity:1;stroke:#999;stroke-width:0.89999998;stroke-linecap:butt;stroke-linejoin:miter;stroke-miterlimit:0;stroke-dasharray:none;stroke-opacity:1"
     id="path1969"
     sodipodi:cx="23.340693"
     sodipodi:cy="22.457729"
     sodipodi:rx="5.1643806"
     sodipodi:ry="5.106678"
     d="M 23.819863,27.542379 A 5.1643806,5.106678 0 1 1 23.395585,17.35134"
     transform="matrix(0.911383,0,0,0.993149,63.88322,-16.804)"
     sodipodi:start="1.477879"
     sodipodi:end="4.7230182"
     sodipodi:open="true" />
  <path
     sodipodi:type="arc"
     style="opacity:1;fill:none;fill-opacity:1;stroke:#999;stroke-width:0.89999998;stroke-linecap:butt;stroke-linejoin:miter;stroke-miterlimit:0;stroke-dasharray:none;stroke-opacity:1"
     id="path1975"
     sodipodi:cx="23.340693"
     sodipodi:cy="22.457729"
     sodipodi:rx="5.1643806"
     sodipodi:ry="5.106678"
     d="M 23.819863,27.542379 A 5.1643806,5.106678 0 1 1 23.395585,17.35134"
     transform="matrix(0.911383,0,0,0.993149,45.88329,-16.804)"
     sodipodi:start="1.477879"
     sodipodi:end="4.7230182"
     sodipodi:open="true" />
  <path
     sodipodi:type="arc"
     style="opacity:1;fill:none;fill-opacity:1;stroke:#999;stroke-width:0.89999998;stroke-linecap:butt;stroke-linejoin:miter;stroke-miterlimit:0;stroke-dasharray:none;stroke-opacity:1"
     id="path1977"
     sodipodi:cx="23.340693"
     sodipodi:cy="22.457729"
     sodipodi:rx="5.1643806"
     sodipodi:ry="5.106678"
     d="M 23.819863,27.542379 A 5.1643806,5.106678 0 1 1 23.395585,17.35134"
     transform="matrix(0.911383,0,0,0.993149,57.88322,-16.804)"
     sodipodi:start="1.477879"
     sodipodi:end="4.7230182"
     sodipodi:open="true" />
  <path
     sodipodi:type="arc"
     style="opacity:1;fill:none;fill-opacity:1;stroke:#999;stroke-width:0.89999998;stroke-linecap:butt;stroke-linejoin:miter;stroke-miterlimit:0;stroke-dasharray:none;stroke-opacity:1"
     id="path1979"
     sodipodi:cx="23.340693"
     sodipodi:cy="22.457729"
     sodipodi:rx="5.1643806"
     sodipodi:ry="5.106678"
     d="M 23.819863,27.542379 A 5.1643806,5.106678 0 1 1 23.395585,17.35134"
     transform="matrix(0.911383,0,0,0.993149,51.88319,-16.80399)"
     sodipodi:start="1.477879"
     sodipodi:end="4.7230182"
     sodipodi:open="true" />
  <path
     style="opacity:1;fill:none;fill-opacity:1;stroke:black;stroke-width:0.97896892;stroke-linecap:butt;stroke-linejoin:round;stroke-miterlimit:1.5;stroke-dasharray:none;stroke-opacity:1"
     d="M 59.496954,0.48948449 L 59.496954,0.52041299 C 57.251434,0.81956089 55.509886,2.9440181 55.509886,5.4999988 C 55.509886,8.053823 57.254194,10.146708 59.496954,10.448654 L 59.496954,10.510513 L 59.933024,10.510513 L 60.151074,10.510513 L 87.530924,10.510513 L 87.530924,0.48948449 L 60.337964,0.48948449 L 59.746134,0.48948449 L 59.496954,0.48948449 z "
     id="path1981" />
  <g
     id="g1983"
     transform="matrix(0.987539,0,0,1.016917,59.93252,-13.26278)">
    <path
       sodipodi:nodetypes="ccc"
       id="path1985"
       d="M -13.564868,16.572768 L -10.544637,19.483463 L -7.4513057,16.5"
       style="fill:none;fill-opacity:1;fill-rule:evenodd;stroke:#454545;stroke-width:0.93402576px;stroke-linecap:butt;stroke-linejoin:miter;stroke-opacity:1" />
    <path
       id="path1987"
       d="M -10.5,21.95204 L -10.5,16.5"
       style="fill:none;fill-opacity:0.75;fill-rule:evenodd;stroke:black;stroke-width:1px;stroke-linecap:butt;stroke-linejoin:miter;stroke-opacity:1" />
    <path
       id="path1989"
       d="M -14.613561,16.5 L -6.5,16.5"
       style="fill:none;fill-opacity:0.75;fill-rule:evenodd;stroke:black;stroke-width:1px;stroke-linecap:butt;stroke-linejoin:miter;stroke-opacity:1" />
  </g>
  <path
     style="opacity:1;fill:url(#linearGradient2025);fill-opacity:1;stroke:none;stroke-width:0.88271505;stroke-linecap:butt;stroke-linejoin:miter;stroke-miterlimit:0;stroke-dasharray:none;stroke-opacity:1"
     d="M 15.004846,0.99999979 L 15.004846,1.0277777 C 12.760806,1.296445 11.020408,3.2044445 11.020408,5.4999994 C 11.020408,7.7936184 12.763566,9.6732614 15.004846,9.944444 L 15.004846,10 L 15.440646,10 L 15.658546,10 L 43.020406,10 L 43.020406,0.99999979 L 15.845316,0.99999979 L 15.253866,0.99999979 L 15.004846,0.99999979 z "
     id="path1995" />
  <rect
     style="fill:#8a8a8a;fill-opacity:1;stroke:none;stroke-width:0.80000001;stroke-miterlimit:4;stroke-dasharray:none;stroke-opacity:1"
     id="rect2003"
     width="29.979578"
     height="1"
     x="13.020422"
     y="9.000001" />
  <rect
     style="fill:#ddd;fill-opacity:1;stroke:none;stroke-width:0.80000001;stroke-miterlimit:4;stroke-dasharray:none;stroke-opacity:1"
     id="rect2005"
     width="29.979578"
     height="1"
     x="13.020422"
     y="0.9999997" />
  <path
     sodipodi:type="arc"
     style="opacity:1;fill:none;fill-opacity:1;stroke:#999;stroke-width:0.89999998;stroke-linecap:butt;stroke-linejoin:miter;stroke-miterlimit:0;stroke-dasharray:none;stroke-opacity:1"
     id="path2007"
     sodipodi:cx="23.340693"
     sodipodi:cy="22.457729"
     sodipodi:rx="5.1643806"
     sodipodi:ry="5.106678"
     d="M 23.819863,27.542379 A 5.1643806,5.106678 0 1 1 23.395585,17.35134"
     transform="matrix(0.911383,0,0,0.993149,19.88322,-16.804)"
     sodipodi:start="1.477879"
     sodipodi:end="4.7230182"
     sodipodi:open="true" />
  <path
     sodipodi:type="arc"
     style="opacity:1;fill:none;fill-opacity:1;stroke:#999;stroke-width:0.89999998;stroke-linecap:butt;stroke-linejoin:miter;stroke-miterlimit:0;stroke-dasharray:none;stroke-opacity:1"
     id="path2009"
     sodipodi:cx="23.340693"
     sodipodi:cy="22.457729"
     sodipodi:rx="5.1643806"
     sodipodi:ry="5.106678"
     d="M 23.819863,27.542379 A 5.1643806,5.106678 0 1 1 23.395585,17.35134"
     transform="matrix(0.911383,0,0,0.993149,1.883292,-16.804)"
     sodipodi:start="1.477879"
     sodipodi:end="4.7230182"
     sodipodi:open="true" />
  <path
     sodipodi:type="arc"
     style="opacity:1;fill:none;fill-opacity:1;stroke:#999;stroke-width:0.89999998;stroke-linecap:butt;stroke-linejoin:miter;stroke-miterlimit:0;stroke-dasharray:none;stroke-opacity:1"
     id="path2011"
     sodipodi:cx="23.340693"
     sodipodi:cy="22.457729"
     sodipodi:rx="5.1643806"
     sodipodi:ry="5.106678"
     d="M 23.819863,27.542379 A 5.1643806,5.106678 0 1 1 23.395585,17.35134"
     transform="matrix(0.911383,0,0,0.993149,13.88322,-16.804)"
     sodipodi:start="1.477879"
     sodipodi:end="4.7230182"
     sodipodi:open="true" />
  <path
     sodipodi:type="arc"
     style="opacity:1;fill:none;fill-opacity:1;stroke:#999;stroke-width:0.89999998;stroke-linecap:butt;stroke-linejoin:miter;stroke-miterlimit:0;stroke-dasharray:none;stroke-opacity:1"
     id="path2013"
     sodipodi:cx="23.340693"
     sodipodi:cy="22.457729"
     sodipodi:rx="5.1643806"
     sodipodi:ry="5.106678"
     d="M 23.819863,27.542379 A 5.1643806,5.106678 0 1 1 23.395585,17.35134"
     transform="matrix(0.911383,0,0,0.993149,7.883192,-16.80399)"
     sodipodi:start="1.477879"
     sodipodi:end="4.7230182"
     sodipodi:open="true" />
  <path
     style="opacity:1;fill:none;fill-opacity:1;stroke:black;stroke-width:0.97896892;stroke-linecap:butt;stroke-linejoin:round;stroke-miterlimit:1.5;stroke-dasharray:none;stroke-opacity:1"
     d="M 15.496956,0.48948589 L 15.496956,0.52041439 C 13.251436,0.81956229 11.509888,2.9440195 11.509888,5.5000002 C 11.509888,8.0538244 13.254196,10.146709 15.496956,10.448655 L 15.496956,10.510514 L 15.933026,10.510514 L 16.151076,10.510514 L 43.530926,10.510514 L 43.530926,0.48948589 L 16.337966,0.48948589 L 15.746136,0.48948589 L 15.496956,0.48948589 z "
     id="path2015" />
  <g
     id="g2017"
     transform="matrix(0.987539,0,0,1.016917,15.93252,-13.26278)">
    <path
       sodipodi:nodetypes="ccc"
       id="path2019"
       d="M -13.564868,16.572768 L -10.544637,19.483463 L -7.4513057,16.5"
       style="fill:none;fill-opacity:1;fill-rule:evenodd;stroke:#454545;stroke-width:0.93402576px;stroke-linecap:butt;stroke-linejoin:miter;stroke-opacity:1" />
    <path
       id="path2021"
       d="M -10.5,21.95204 L -10.5,16.5"
       style="fill:none;fill-opacity:0.75;fill-rule:evenodd;stroke:black;stroke-width:1px;stroke-linecap:butt;stroke-linejoin:miter;stroke-opacity:1" />
    <path
       id="path2023"
       d="M -14.613561,16.5 L -6.5,16.5"
       style="fill:none;fill-opacity:0.75;fill-rule:evenodd;stroke:black;stroke-width:1px;stroke-linecap:butt;stroke-linejoin:miter;stroke-opacity:1" />
  </g>
</svg>
