<?xml version="1.0" encoding="iso-8859-1"?>
<!-- Generator: Adobe Illustrator 12.0.1, SVG Export Plug-In . SVG Version: 6.00 Build 51448)  -->
<!DOCTYPE svg PUBLIC "-//W3C//DTD SVG 1.1//EN" "http://www.w3.org/Graphics/SVG/1.1/DTD/svg11.dtd" [
	<!ENTITY ns_svg "http://www.w3.org/2000/svg">
	<!ENTITY ns_xlink "http://www.w3.org/1999/xlink">
]>
<svg  version="1.1" id="&#x56FE;&#x5C42;_1" xmlns="&ns_svg;" xmlns:xlink="&ns_xlink;" width="19.481" height="21.275"
	 viewBox="0 0 19.481 21.275" style="overflow:visible;enable-background:new 0 0 19.481 21.275;" xml:space="preserve">
<linearGradient id="XMLID_2_" gradientUnits="userSpaceOnUse" x1="4.5659" y1="2.98" x2="17.7329" y2="19.2311">
	<stop  offset="0.0112" style="stop-color:#BADF0F"/>
	<stop  offset="0.1743" style="stop-color:#B6DC0F"/>
	<stop  offset="0.3239" style="stop-color:#ABD210"/>
	<stop  offset="0.4683" style="stop-color:#99C112"/>
	<stop  offset="0.6094" style="stop-color:#7EA913"/>
	<stop  offset="0.7483" style="stop-color:#5D8B16"/>
	<stop  offset="0.8835" style="stop-color:#346619"/>
	<stop  offset="0.9551" style="stop-color:#1B501B"/>
</linearGradient>
<path style="fill:url(#XMLID_2_);stroke:#000000;stroke-width:0.25;" d="M6.949,0.929c0,0-3.282-1.286-4.773-0.605
	C1.708,0.542,0.673,1.533,0.448,1.726C-0.3,2.368,0.297,4.288,1.781,6.015c1.484,1.728,3.294,2.607,4.042,1.964
	c0.18-0.154,1.128-1.313,1.604-1.705c0,0,4.208,3.475,6.328,7.535c0,0-1.671,1.09-1.851,1.242c-0.748,0.644-0.15,2.565,1.334,4.292
	c1.484,1.726,3.739,2.169,4.486,1.525c0.226-0.193,0.892-0.886,1.174-1.316c0.898-1.373,0.199-4.49,0.199-4.49
	S15.983,9.346,6.949,0.929z"/>
</svg>
