<?xml version="1.0" encoding="iso-8859-1"?>
<!-- Generator: Adobe Illustrator 12.0.1, SVG Export Plug-In . SVG Version: 6.00 Build 51448)  -->
<!DOCTYPE svg PUBLIC "-//W3C//DTD SVG 1.1//EN" "http://www.w3.org/Graphics/SVG/1.1/DTD/svg11.dtd" [
	<!ENTITY ns_svg "http://www.w3.org/2000/svg">
	<!ENTITY ns_xlink "http://www.w3.org/1999/xlink">
]>
<svg  version="1.1" id="&#x56FE;&#x5C42;_1" xmlns="&ns_svg;" xmlns:xlink="&ns_xlink;" width="19.481" height="21.275"
	 viewBox="0 0 19.481 21.275" style="overflow:visible;enable-background:new 0 0 19.481 21.275;" xml:space="preserve">
<linearGradient id="XMLID_2_" gradientUnits="userSpaceOnUse" x1="7.3301" y1="1.3877" x2="14.5644" y2="25.5623">
	<stop  offset="0.0281" style="stop-color:#FFFFFF"/>
	<stop  offset="0.1735" style="stop-color:#D6D6D6"/>
	<stop  offset="0.3278" style="stop-color:#B3B3B3"/>
	<stop  offset="0.4839" style="stop-color:#979797"/>
	<stop  offset="0.6402" style="stop-color:#838383"/>
	<stop  offset="0.7969" style="stop-color:#777777"/>
	<stop  offset="0.9551" style="stop-color:#737373"/>
</linearGradient>
<path style="fill:url(#XMLID_2_);stroke:#4D4D4D;stroke-width:0.25;" d="M6.949,0.93c0,0-3.282-1.286-4.773-0.605
	C1.708,0.542,0.673,1.533,0.448,1.727C-0.3,2.368,0.297,4.288,1.781,6.016c1.484,1.728,3.294,2.607,4.042,1.964
	c0.18-0.154,1.128-1.313,1.604-1.705c0,0,4.208,3.475,6.328,7.535c0,0-1.671,1.09-1.851,1.242c-0.748,0.644-0.15,2.565,1.334,4.292
	c1.484,1.726,3.739,2.169,4.486,1.525c0.226-0.193,0.892-0.886,1.174-1.316c0.898-1.373,0.199-4.49,0.199-4.49
	S15.983,9.347,6.949,0.93z"/>
<g>
	<path style="fill:#FFFFFF;stroke:#575757;stroke-width:0.5;" d="M11.618,14.275H7.675v-0.497c0-0.849,0.077-1.538,0.228-2.067
		c0.151-0.525,0.378-1.009,0.679-1.446c0.3-0.438,0.975-1.206,2.023-2.308c0.56-0.574,0.839-1.104,0.839-1.585
		c0-0.479-0.112-0.854-0.336-1.121c-0.224-0.266-0.564-0.398-1.019-0.398c-0.49,0-0.895,0.204-1.214,0.615
		C8.555,5.875,8.351,6.59,8.26,7.61L4.231,6.98C4.37,5.115,4.907,3.613,5.844,2.477c0.938-1.139,2.375-1.708,4.311-1.708
		c1.507,0,2.724,0.397,3.651,1.19c1.259,1.074,1.888,2.51,1.888,4.297c0,0.744-0.163,1.46-0.488,2.148
		c-0.325,0.693-0.988,1.533-1.992,2.529c-0.698,0.701-1.139,1.26-1.321,1.685C11.709,13.042,11.618,13.596,11.618,14.275z
		 M7.541,15.603h4.222v4.693H7.541V15.603z"/>
</g>
</svg>
