<?xml version="1.0" encoding="iso-8859-1"?>
<!-- Generator: Adobe Illustrator 12.0.1, SVG Export Plug-In . SVG Version: 6.00 Build 51448)  -->
<!DOCTYPE svg PUBLIC "-//W3C//DTD SVG 1.1//EN" "http://www.w3.org/Graphics/SVG/1.1/DTD/svg11.dtd" [
	<!ENTITY ns_svg "http://www.w3.org/2000/svg">
	<!ENTITY ns_xlink "http://www.w3.org/1999/xlink">
]>
<svg  version="1.1" id="&#x56FE;&#x5C42;_1" xmlns="&ns_svg;" xmlns:xlink="&ns_xlink;" width="19.48" height="21.275"
	 viewBox="0 0 19.48 21.275" style="overflow:visible;enable-background:new 0 0 19.48 21.275;" xml:space="preserve">
<linearGradient id="XMLID_2_" gradientUnits="userSpaceOnUse" x1="7.3296" y1="1.3872" x2="14.5642" y2="25.5628">
	<stop  offset="0.0281" style="stop-color:#FFFFFF"/>
	<stop  offset="0.1735" style="stop-color:#D6D6D6"/>
	<stop  offset="0.3278" style="stop-color:#B3B3B3"/>
	<stop  offset="0.4839" style="stop-color:#979797"/>
	<stop  offset="0.6402" style="stop-color:#838383"/>
	<stop  offset="0.7969" style="stop-color:#777777"/>
	<stop  offset="0.9551" style="stop-color:#737373"/>
</linearGradient>
<path style="fill:url(#XMLID_2_);stroke:#000000;stroke-width:0.25;" d="M6.949,0.929c0,0-3.282-1.286-4.773-0.605
	C1.708,0.542,0.673,1.533,0.448,1.726C-0.3,2.368,0.297,4.288,1.781,6.015c1.484,1.728,3.294,2.607,4.042,1.964
	c0.18-0.154,1.128-1.313,1.604-1.705c0,0,4.208,3.475,6.328,7.535c0,0-1.671,1.09-1.851,1.242c-0.748,0.644-0.15,2.565,1.333,4.292
	c1.485,1.726,3.74,2.169,4.487,1.525c0.225-0.193,0.891-0.886,1.173-1.316c0.898-1.373,0.199-4.49,0.199-4.49
	S15.984,9.346,6.949,0.929z"/>
</svg>
