<?xml version="1.0" encoding="iso-8859-1"?>
<!-- Generator: Adobe Illustrator 12.0.1, SVG Export Plug-In . SVG Version: 6.00 Build 51448)  -->
<!DOCTYPE svg PUBLIC "-//W3C//DTD SVG 1.1//EN" "http://www.w3.org/Graphics/SVG/1.1/DTD/svg11.dtd" [
	<!ENTITY ns_svg "http://www.w3.org/2000/svg">
	<!ENTITY ns_xlink "http://www.w3.org/1999/xlink">
]>
<svg  version="1.1" id="&#x56FE;&#x5C42;_1" xmlns="&ns_svg;" xmlns:xlink="&ns_xlink;" width="18.414" height="20.109"
	 viewBox="0 0 18.414 20.109" style="overflow:visible;enable-background:new 0 0 18.414 20.109;" xml:space="preserve">
<g>
	
		<linearGradient id="XMLID_2_" gradientUnits="userSpaceOnUse" x1="1.4233" y1="0.1357" x2="14.4249" y2="19.679" gradientTransform="matrix(0.9943 -0.1076 0.1075 0.9942 1.0684 0.7796)">
		<stop  offset="0.0281" style="stop-color:#FFFFFF"/>
		<stop  offset="0.1995" style="stop-color:#DBDBDB"/>
		<stop  offset="0.4392" style="stop-color:#AEAEAE"/>
		<stop  offset="0.6536" style="stop-color:#8E8E8E"/>
		<stop  offset="0.8329" style="stop-color:#7A7A7A"/>
		<stop  offset="0.9551" style="stop-color:#737373"/>
	</linearGradient>
	<path style="fill:url(#XMLID_2_);stroke:#000000;stroke-width:0.25;" d="M6.571,0.885c0,0-3.101-1.215-4.509-0.571
		C1.62,0.519,0.642,1.455,0.43,1.638c-0.707,0.606-0.143,2.42,1.259,4.052S4.8,8.152,5.506,7.544c0.17-0.146,1.066-1.239,1.515-1.61
		c0,0,3.975,3.282,5.977,7.117c0,0-1.578,1.029-1.747,1.174c-0.707,0.607-0.142,2.423,1.259,4.054
		c1.402,1.63,3.532,2.049,4.238,1.44c0.214-0.183,0.843-0.836,1.109-1.243c0.849-1.297,0.188-4.241,0.188-4.241
		S15.104,8.836,6.571,0.885z"/>
	<polygon style="fill:#D80B06;" points="18.297,17.565 11.63,10.899 18.297,4.234 16.091,2.025 9.422,8.689 2.755,2.025 
		0.547,4.234 7.215,10.899 0.547,17.565 2.755,19.774 9.422,13.108 16.091,19.774 	"/>
</g>
</svg>
