<?xml version="1.0" encoding="iso-8859-1"?>
<!-- Generator: Adobe Illustrator 12.0.1, SVG Export Plug-In . SVG Version: 6.00 Build 51448)  -->
<!DOCTYPE svg PUBLIC "-//W3C//DTD SVG 1.1//EN" "http://www.w3.org/Graphics/SVG/1.1/DTD/svg11.dtd" [
	<!ENTITY ns_svg "http://www.w3.org/2000/svg">
	<!ENTITY ns_xlink "http://www.w3.org/1999/xlink">
]>
<svg  version="1.1" id="&#x56FE;&#x5C42;_1" xmlns="&ns_svg;" xmlns:xlink="&ns_xlink;" width="20.318" height="21.488"
	 viewBox="0 0 20.318 21.488" style="overflow:visible;enable-background:new 0 0 20.318 21.488;" xml:space="preserve">
<g>
	
		<linearGradient id="XMLID_2_" gradientUnits="userSpaceOnUse" x1="3.5825" y1="-0.0718" x2="17.4878" y2="20.83" gradientTransform="matrix(0.9943 -0.1076 0.1075 0.9942 -0.8913 1.262)">
		<stop  offset="0.0281" style="stop-color:#DBE918"/>
		<stop  offset="0.1241" style="stop-color:#D4E716"/>
		<stop  offset="0.2624" style="stop-color:#C1E111"/>
		<stop  offset="0.3034" style="stop-color:#BADF0F"/>
		<stop  offset="0.3675" style="stop-color:#BADF11"/>
		<stop  offset="0.4016" style="stop-color:#BBDE19"/>
		<stop  offset="0.4287" style="stop-color:#BDDE27"/>
		<stop  offset="0.452" style="stop-color:#C0DD3A"/>
		<stop  offset="0.4729" style="stop-color:#C3DB53"/>
		<stop  offset="0.4921" style="stop-color:#C7D972"/>
		<stop  offset="0.5101" style="stop-color:#CCD796"/>
		<stop  offset="0.5265" style="stop-color:#D1D5BF"/>
		<stop  offset="0.5337" style="stop-color:#D4D4D4"/>
		<stop  offset="0.9551" style="stop-color:#737373"/>
	</linearGradient>
	<path style="fill:url(#XMLID_2_);stroke:#000000;stroke-width:0.25;" d="M7.018,0.937c0,0-3.315-1.299-4.822-0.611
		C1.723,0.544,0.678,1.546,0.451,1.743C-0.305,2.39,0.298,4.33,1.797,6.076c1.5,1.745,3.328,2.634,4.083,1.983
		C6.062,7.903,7.02,6.733,7.5,6.336c0,0,4.251,3.51,6.392,7.611c0,0-1.688,1.101-1.869,1.256c-0.756,0.649-0.152,2.591,1.346,4.335
		c1.5,1.743,3.778,2.19,4.533,1.541c0.228-0.195,0.9-0.895,1.186-1.33c0.907-1.387,0.201-4.536,0.201-4.536S16.144,9.44,7.018,0.937
		z"/>
	
		<rect x="-1.847" y="9.866" transform="matrix(0.7188 -0.6952 0.6952 0.7188 -4.3321 10.456)" style="fill:#FF9900;" width="25.211" height="1.434"/>
</g>
</svg>
