<?xml version="1.0" encoding="iso-8859-1"?>
<!-- Generator: Adobe Illustrator 12.0.1, SVG Export Plug-In . SVG Version: 6.00 Build 51448)  -->
<!DOCTYPE svg PUBLIC "-//W3C//DTD SVG 1.1//EN" "http://www.w3.org/Graphics/SVG/1.1/DTD/svg11.dtd" [
	<!ENTITY ns_svg "http://www.w3.org/2000/svg">
	<!ENTITY ns_xlink "http://www.w3.org/1999/xlink">
]>
<svg  version="1.1" id="&#x56FE;&#x5C42;_1" xmlns="&ns_svg;" xmlns:xlink="&ns_xlink;" width="22.007" height="21.59"
	 viewBox="0 0 22.007 21.59" style="overflow:visible;enable-background:new 0 0 22.007 21.59;" xml:space="preserve">
<g>
	<g>
		<path style="fill:#FFFFFF;stroke:#595959;stroke-width:0.5;" d="M5.86,6.771V4.698h4.951V8.94
			c-0.948,0.616-1.785,1.04-2.515,1.265c-0.727,0.221-1.593,0.333-2.592,0.333c-1.232,0-2.235-0.2-3.012-0.604
			C1.919,9.532,1.318,8.933,0.892,8.137C0.464,7.344,0.25,6.427,0.25,5.396c0-1.086,0.232-2.031,0.7-2.833
			C1.416,1.757,2.1,1.15,3.003,0.732C3.704,0.412,4.651,0.25,5.839,0.25c1.147,0,2.003,0.099,2.571,0.299
			c0.57,0.2,1.04,0.51,1.416,0.926c0.374,0.42,0.654,0.949,0.843,1.594L7.577,3.596c-0.129-0.373-0.342-0.661-0.646-0.86
			C6.626,2.538,6.239,2.438,5.768,2.438c-0.699,0-1.261,0.235-1.675,0.7C3.676,3.608,3.465,4.35,3.465,5.363
			c0,1.076,0.213,1.845,0.633,2.306c0.421,0.46,1.01,0.692,1.763,0.692c0.357,0,0.7-0.051,1.024-0.15
			C7.211,8.113,7.58,7.944,8,7.704V6.771H5.86z"/>
		<path style="fill:#FFFFFF;stroke:#595959;stroke-width:0.5;" d="M20.623,1.216c-0.579-0.528-1.446-0.793-2.605-0.793h-5.324v9.946
			h3.215v-3.69h1.754c1.29,0,2.252-0.283,2.883-0.848c0.628-0.565,0.944-1.351,0.944-2.356C21.489,2.498,21.201,1.746,20.623,1.216z
			 M17.994,4.355c-0.25,0.204-0.685,0.307-1.301,0.307h-0.785V2.449h0.911c0.6,0,1.008,0.107,1.224,0.324
			c0.216,0.215,0.325,0.479,0.325,0.793C18.368,3.886,18.245,4.147,17.994,4.355z"/>
		<path style="fill:#FFFFFF;stroke:#595959;stroke-width:0.5;" d="M1.987,21.072v-9.944h5.341c0.993,0,1.749,0.081,2.272,0.243
			c0.524,0.163,0.945,0.464,1.266,0.905c0.324,0.438,0.483,0.976,0.483,1.608c0,0.551-0.124,1.027-0.368,1.428
			c-0.246,0.399-0.587,0.724-1.017,0.973c-0.273,0.158-0.652,0.289-1.13,0.395c0.383,0.119,0.658,0.245,0.831,0.365
			c0.118,0.083,0.29,0.258,0.513,0.526c0.224,0.267,0.372,0.475,0.448,0.62l1.56,2.881H8.57l-1.717-3.044
			c-0.219-0.394-0.41-0.648-0.581-0.767c-0.232-0.154-0.494-0.23-0.787-0.23H5.203v4.041H1.987z M5.203,15.149h1.354
			c0.146,0,0.432-0.044,0.852-0.136c0.215-0.039,0.389-0.142,0.523-0.31c0.134-0.167,0.202-0.357,0.202-0.575
			c0-0.321-0.108-0.566-0.32-0.736c-0.213-0.174-0.613-0.259-1.2-0.259H5.203V15.149z"/>
		<path style="fill:#FFFFFF;stroke:#595959;stroke-width:0.5;" d="M12.354,17.879l3.047-0.182c0.066,0.474,0.199,0.836,0.403,1.084
			c0.329,0.405,0.801,0.604,1.413,0.604c0.459,0,0.808-0.102,1.056-0.309c0.247-0.203,0.372-0.443,0.372-0.716
			c0-0.257-0.118-0.488-0.353-0.692c-0.234-0.203-0.782-0.396-1.641-0.574c-1.405-0.303-2.408-0.709-3.006-1.21
			c-0.603-0.503-0.905-1.143-0.905-1.921c0-0.512,0.157-0.994,0.464-1.451c0.312-0.454,0.772-0.811,1.392-1.072
			c0.621-0.259,1.472-0.389,2.552-0.389c1.325,0,2.334,0.235,3.028,0.707c0.694,0.473,1.108,1.223,1.239,2.252l-3.018,0.168
			c-0.08-0.444-0.247-0.767-0.504-0.97c-0.259-0.203-0.612-0.304-1.066-0.304c-0.37,0-0.653,0.075-0.842,0.227
			c-0.189,0.15-0.282,0.337-0.282,0.556c0,0.155,0.075,0.3,0.235,0.425c0.149,0.131,0.508,0.255,1.074,0.366
			c1.4,0.289,2.403,0.584,3.007,0.879c0.607,0.295,1.048,0.666,1.322,1.104c0.278,0.438,0.414,0.929,0.414,1.472
			c0,0.637-0.184,1.226-0.552,1.765c-0.37,0.537-0.88,0.946-1.542,1.225c-0.658,0.277-1.489,0.417-2.492,0.417
			c-1.763,0-2.986-0.325-3.663-0.978C12.829,19.712,12.446,18.884,12.354,17.879z"/>
	</g>
</g>
</svg>
