<?xml version="1.0" encoding="iso-8859-1"?>
<!-- Generator: Adobe Illustrator 12.0.1, SVG Export Plug-In . SVG Version: 6.00 Build 51448)  -->
<!DOCTYPE svg PUBLIC "-//W3C//DTD SVG 1.1//EN" "http://www.w3.org/Graphics/SVG/1.1/DTD/svg11.dtd" [
	<!ENTITY ns_svg "http://www.w3.org/2000/svg">
	<!ENTITY ns_xlink "http://www.w3.org/1999/xlink">
]>
<svg  version="1.1" id="&#x56FE;&#x5C42;_1" xmlns="&ns_svg;" xmlns:xlink="&ns_xlink;" width="19.757" height="19.383"
	 viewBox="0 0 19.757 19.383" style="overflow:visible;enable-background:new 0 0 19.757 19.383;" xml:space="preserve">
<g>
	<g>
		<path style="fill:#FFFFFF;stroke:#595959;stroke-width:0.5;" d="M5.273,6.088V4.232h4.433V8.03
			C8.857,8.583,8.108,8.962,7.455,9.163C6.804,9.361,6.029,9.461,5.134,9.461c-1.103,0-2.001-0.179-2.695-0.54
			c-0.693-0.36-1.232-0.896-1.614-1.609C0.441,6.601,0.25,5.78,0.25,4.856c0-0.972,0.208-1.818,0.627-2.536
			C1.294,1.6,1.906,1.056,2.715,0.682C3.343,0.395,4.19,0.25,5.254,0.25c1.027,0,1.794,0.089,2.302,0.268
			c0.511,0.179,0.932,0.456,1.269,0.829c0.335,0.376,0.586,0.85,0.755,1.427L6.811,3.245c-0.115-0.333-0.307-0.592-0.579-0.77
			S5.613,2.209,5.19,2.209c-0.626,0-1.129,0.211-1.5,0.628c-0.373,0.42-0.562,1.084-0.562,1.991c0,0.963,0.19,1.651,0.566,2.064
			c0.377,0.412,0.904,0.62,1.578,0.62c0.32,0,0.627-0.046,0.917-0.135C6.483,7.291,6.813,7.14,7.189,6.924V6.088H5.273z"/>
		<path style="fill:#FFFFFF;stroke:#595959;stroke-width:0.5;" d="M11.392,0.404h4.768c1.038,0,1.814,0.237,2.332,0.71
			c0.518,0.476,0.776,1.148,0.776,2.023c0,0.9-0.283,1.603-0.846,2.108c-0.564,0.506-1.426,0.76-2.581,0.76H14.27V9.31h-2.878V0.404
			z"/>
		<path style="fill:#FFFFFF;stroke:#595959;stroke-width:0.5;" d="M14.27,4.2h0.703c0.553,0,0.941-0.092,1.165-0.274
			c0.225-0.186,0.335-0.421,0.335-0.707c0-0.281-0.098-0.517-0.291-0.71c-0.193-0.194-0.559-0.29-1.096-0.29H14.27V4.2z"/>
		<path style="fill:#FFFFFF;stroke:#595959;stroke-width:0.5;" d="M1.806,18.894V9.989h4.782c0.89,0,1.566,0.072,2.034,0.219
			c0.47,0.146,0.847,0.414,1.134,0.81c0.29,0.394,0.433,0.874,0.433,1.44c0,0.493-0.111,0.92-0.33,1.278
			c-0.22,0.357-0.525,0.647-0.91,0.871c-0.245,0.142-0.583,0.259-1.012,0.354c0.343,0.106,0.59,0.219,0.745,0.326
			c0.105,0.074,0.259,0.231,0.458,0.472c0.201,0.239,0.334,0.425,0.401,0.556l1.397,2.579H7.7l-1.537-2.726
			c-0.196-0.353-0.368-0.581-0.521-0.687c-0.209-0.139-0.442-0.206-0.705-0.206H4.685v3.618H1.806z M4.685,13.591h1.214
			c0.131,0,0.386-0.04,0.762-0.122c0.192-0.035,0.349-0.127,0.469-0.277c0.12-0.149,0.182-0.319,0.182-0.515
			c0-0.287-0.098-0.508-0.287-0.66c-0.191-0.154-0.55-0.23-1.075-0.23H4.685V13.591z"/>
		<path style="fill:#FFFFFF;stroke:#595959;stroke-width:0.5;" d="M11.089,16.034l2.728-0.163c0.059,0.425,0.178,0.749,0.36,0.972
			c0.296,0.362,0.718,0.541,1.266,0.541c0.411,0,0.724-0.091,0.945-0.276c0.222-0.183,0.333-0.397,0.333-0.641
			c0-0.23-0.105-0.438-0.315-0.62s-0.7-0.354-1.469-0.515c-1.259-0.271-2.156-0.635-2.691-1.083
			c-0.539-0.45-0.811-1.023-0.811-1.721c0-0.458,0.141-0.89,0.415-1.299c0.278-0.406,0.691-0.726,1.246-0.96
			c0.556-0.231,1.318-0.348,2.284-0.348c1.187,0,2.09,0.211,2.712,0.633c0.622,0.423,0.992,1.095,1.109,2.017l-2.701,0.15
			c-0.071-0.398-0.221-0.688-0.451-0.869c-0.232-0.182-0.549-0.271-0.955-0.271c-0.332,0-0.585,0.067-0.754,0.203
			c-0.169,0.135-0.253,0.302-0.253,0.497c0,0.14,0.068,0.269,0.211,0.381c0.134,0.117,0.455,0.228,0.962,0.328
			c1.254,0.259,2.151,0.522,2.692,0.786c0.544,0.265,0.938,0.597,1.185,0.989c0.248,0.393,0.37,0.831,0.37,1.317
			c0,0.57-0.164,1.098-0.494,1.58c-0.331,0.481-0.788,0.848-1.38,1.097c-0.59,0.249-1.334,0.373-2.232,0.373
			c-1.578,0-2.673-0.291-3.279-0.875C11.513,17.675,11.17,16.935,11.089,16.034z"/>
	</g>
	<polygon style="fill:#D80B06;" points="19.132,16.785 12.692,10.346 19.132,3.905 17,1.771 10.558,8.212 4.114,1.771 1.982,3.905 
		8.424,10.346 1.982,16.785 4.114,18.92 10.558,12.48 17,18.92 	"/>
</g>
</svg>
