<?xml version="1.0" encoding="iso-8859-1"?>
<!-- Generator: Adobe Illustrator 12.0.1, SVG Export Plug-In . SVG Version: 6.00 Build 51448)  -->
<!DOCTYPE svg PUBLIC "-//W3C//DTD SVG 1.1//EN" "http://www.w3.org/Graphics/SVG/1.1/DTD/svg11.dtd" [
	<!ENTITY ns_svg "http://www.w3.org/2000/svg">
	<!ENTITY ns_xlink "http://www.w3.org/1999/xlink">
]>
<svg  version="1.1" id="&#x56FE;&#x5C42;_1" xmlns="&ns_svg;" xmlns:xlink="&ns_xlink;" width="21.894" height="21.478"
	 viewBox="0 0 21.894 21.478" style="overflow:visible;enable-background:new 0 0 21.894 21.478;" xml:space="preserve">
<g>
	<g>
		<path style="fill:#FFFFFF;stroke:#575757;stroke-width:0.5;" d="M5.831,6.734v-2.06h4.925v4.217
			C9.812,9.506,8.981,9.928,8.255,10.15c-0.725,0.222-1.584,0.333-2.579,0.333c-1.224,0-2.223-0.2-2.993-0.601
			c-0.772-0.4-1.37-0.996-1.795-1.788S0.25,6.393,0.25,5.368c0-1.082,0.231-2.021,0.697-2.819C1.41,1.75,2.09,1.143,2.988,0.727
			C3.688,0.409,4.627,0.25,5.81,0.25c1.14,0,1.993,0.099,2.558,0.296c0.566,0.2,1.034,0.507,1.408,0.921
			c0.373,0.417,0.651,0.945,0.839,1.584L7.539,3.577C7.412,3.205,7.197,2.919,6.896,2.723C6.592,2.525,6.21,2.426,5.74,2.426
			c-0.696,0-1.256,0.233-1.668,0.698C3.657,3.59,3.448,4.328,3.448,5.333c0,1.071,0.211,1.837,0.631,2.295
			c0.418,0.458,1.004,0.688,1.752,0.688c0.355,0,0.696-0.05,1.02-0.149C7.175,8.07,7.542,7.903,7.96,7.664v-0.93H5.831z"/>
		<path style="fill:#FFFFFF;stroke:#575757;stroke-width:0.5;" d="M20.516,1.211c-0.574-0.528-1.438-0.79-2.592-0.79h-5.296v9.893
			h3.197v-3.67h1.745c1.285,0,2.242-0.282,2.868-0.843c0.626-0.563,0.94-1.344,0.94-2.342C21.379,2.485,21.09,1.738,20.516,1.211z
			 M17.901,4.332c-0.249,0.204-0.681,0.307-1.294,0.307h-0.782V2.435h0.908c0.596,0,1.002,0.108,1.217,0.325
			c0.215,0.214,0.322,0.478,0.322,0.787C18.272,3.866,18.15,4.127,17.901,4.332z"/>
		<path style="fill:#FFFFFF;stroke:#575757;stroke-width:0.5;" d="M1.979,20.962v-9.893h5.312c0.988,0,1.74,0.081,2.26,0.243
			c0.522,0.162,0.94,0.461,1.261,0.9c0.321,0.438,0.48,0.971,0.48,1.601c0,0.547-0.124,1.021-0.368,1.418
			c-0.243,0.398-0.582,0.721-1.011,0.968c-0.272,0.157-0.647,0.288-1.123,0.393c0.38,0.12,0.654,0.244,0.828,0.363
			c0.116,0.083,0.287,0.258,0.508,0.523c0.224,0.268,0.372,0.473,0.446,0.617l1.554,2.866h-3.6l-1.707-3.027
			c-0.218-0.392-0.408-0.646-0.58-0.764c-0.23-0.153-0.49-0.229-0.781-0.229H5.177v4.02H1.979z M5.177,15.07h1.349
			c0.146,0,0.429-0.044,0.847-0.135c0.213-0.039,0.388-0.142,0.521-0.308s0.201-0.356,0.201-0.572c0-0.319-0.107-0.563-0.319-0.733
			c-0.211-0.171-0.61-0.256-1.193-0.256H5.177V15.07z"/>
		<path style="fill:#FFFFFF;stroke:#575757;stroke-width:0.5;" d="M12.292,17.786l3.03-0.183c0.064,0.473,0.198,0.833,0.399,1.081
			c0.329,0.4,0.797,0.6,1.407,0.6c0.455,0,0.805-0.101,1.05-0.306c0.247-0.204,0.37-0.443,0.37-0.715
			c0-0.254-0.118-0.484-0.351-0.687c-0.233-0.203-0.777-0.394-1.632-0.573c-1.398-0.302-2.395-0.704-2.989-1.202
			c-0.601-0.501-0.899-1.137-0.899-1.912c0-0.509,0.153-0.989,0.46-1.442c0.308-0.452,0.768-0.806,1.384-1.066
			c0.617-0.258,1.464-0.387,2.538-0.387c1.317,0,2.32,0.235,3.013,0.704c0.691,0.47,1.102,1.215,1.233,2.239l-3.002,0.167
			c-0.079-0.442-0.245-0.764-0.502-0.966c-0.257-0.201-0.609-0.301-1.06-0.301c-0.37,0-0.651,0.074-0.84,0.226
			c-0.187,0.15-0.28,0.334-0.28,0.552c0,0.156,0.077,0.298,0.234,0.424c0.149,0.13,0.506,0.251,1.068,0.364
			c1.394,0.288,2.391,0.581,2.992,0.875c0.604,0.293,1.043,0.662,1.315,1.098c0.275,0.436,0.411,0.923,0.411,1.464
			c0,0.633-0.182,1.219-0.55,1.756c-0.366,0.533-0.873,0.94-1.53,1.217c-0.656,0.277-1.483,0.415-2.483,0.415
			c-1.752,0-2.967-0.323-3.641-0.972C12.763,19.608,12.381,18.784,12.292,17.786z"/>
	</g>
	<g>
		<path style="fill:#FFFFFF;stroke:#545454;stroke-width:0.5;" d="M13.8,14.532H8.827v-0.504c0-0.861,0.097-1.552,0.29-2.092
			c0.188-0.533,0.475-1.019,0.854-1.459c0.378-0.448,1.229-1.223,2.552-2.337c0.705-0.583,1.06-1.12,1.06-1.605
			c0-0.486-0.143-0.863-0.424-1.134c-0.282-0.269-0.711-0.404-1.285-0.404c-0.615,0-1.126,0.208-1.532,0.623
			C9.937,6.032,9.68,6.755,9.566,7.786L4.484,7.15c0.175-1.887,0.854-3.407,2.034-4.558c1.184-1.151,2.996-1.727,5.438-1.727
			c1.9,0,3.437,0.402,4.605,1.205c1.586,1.088,2.38,2.539,2.38,4.348c0,0.752-0.204,1.476-0.616,2.173
			c-0.409,0.7-1.245,1.552-2.511,2.56c-0.879,0.706-1.437,1.275-1.669,1.704C13.917,13.281,13.8,13.843,13.8,14.532z M8.657,15.874
			h5.327v4.748H8.657V15.874z"/>
	</g>
</g>
</svg>
