<?xml version="1.0" encoding="iso-8859-1"?>
<!-- Generator: Adobe Illustrator 12.0.1, SVG Export Plug-In . SVG Version: 6.00 Build 51448)  -->
<!DOCTYPE svg PUBLIC "-//W3C//DTD SVG 1.1//EN" "http://www.w3.org/Graphics/SVG/1.1/DTD/svg11.dtd" [
	<!ENTITY ns_svg "http://www.w3.org/2000/svg">
	<!ENTITY ns_xlink "http://www.w3.org/1999/xlink">
]>
<svg  version="1.1" id="&#x56FE;&#x5C42;_1" xmlns="&ns_svg;" xmlns:xlink="&ns_xlink;" width="21.228" height="20.825"
	 viewBox="0 0 21.228 20.825" style="overflow:visible;enable-background:new 0 0 21.228 20.825;" xml:space="preserve">
<g>
	<linearGradient id="XMLID_5_" gradientUnits="userSpaceOnUse" x1="2.5967" y1="2.1934" x2="19.1735" y2="18.7702">
		<stop  offset="0" style="stop-color:#F8DB41"/>
		<stop  offset="0.1193" style="stop-color:#F8D73F"/>
		<stop  offset="0.2384" style="stop-color:#F9CB3A"/>
		<stop  offset="0.3576" style="stop-color:#FAB731"/>
		<stop  offset="0.4768" style="stop-color:#FC9B24"/>
		<stop  offset="0.595" style="stop-color:#FE7714"/>
		<stop  offset="0.6011" style="stop-color:#FE7513"/>
	</linearGradient>
	<path style="fill:url(#XMLID_5_);stroke:#000000;stroke-width:0.5;" d="M5.657,6.533V4.537h4.771v4.086
		c-0.914,0.596-1.72,1.004-2.423,1.22c-0.702,0.215-1.535,0.322-2.499,0.322c-1.186,0-2.153-0.193-2.9-0.582
		C1.858,9.195,1.279,8.618,0.868,7.851C0.457,7.084,0.25,6.202,0.25,5.209c0-1.048,0.225-1.958,0.675-2.731
		c0.449-0.774,1.108-1.362,1.979-1.765C3.58,0.404,4.491,0.25,5.637,0.25c1.104,0,1.931,0.096,2.478,0.287
		C8.663,0.73,9.116,1.028,9.479,1.43c0.361,0.404,0.632,0.916,0.813,1.535l-2.98,0.509c-0.123-0.36-0.33-0.638-0.623-0.827
		c-0.294-0.191-0.665-0.288-1.12-0.288c-0.674,0-1.216,0.226-1.615,0.677C3.552,3.486,3.349,4.201,3.349,5.176
		c0,1.037,0.205,1.779,0.61,2.224s0.974,0.667,1.698,0.667c0.345,0,0.675-0.049,0.987-0.145C6.959,7.827,7.315,7.665,7.72,7.434
		v-0.9H5.657z"/>
	<linearGradient id="XMLID_6_" gradientUnits="userSpaceOnUse" x1="7.6328" y1="-2.8408" x2="24.2068" y2="13.7331">
		<stop  offset="0" style="stop-color:#F8DB41"/>
		<stop  offset="0.1193" style="stop-color:#F8D73F"/>
		<stop  offset="0.2384" style="stop-color:#F9CB3A"/>
		<stop  offset="0.3576" style="stop-color:#FAB731"/>
		<stop  offset="0.4768" style="stop-color:#FC9B24"/>
		<stop  offset="0.595" style="stop-color:#FE7714"/>
		<stop  offset="0.6011" style="stop-color:#FE7513"/>
	</linearGradient>
	<path style="fill:url(#XMLID_6_);stroke:#000000;stroke-width:0.5;" d="M19.885,1.182c-0.557-0.512-1.393-0.766-2.511-0.766h-5.132
		v9.585h3.099V6.445h1.69c1.245,0,2.172-0.273,2.778-0.817c0.606-0.546,0.911-1.302,0.911-2.269
		C20.721,2.416,20.441,1.691,19.885,1.182z M17.352,4.205c-0.241,0.197-0.659,0.297-1.254,0.297h-0.757V2.367h0.879
		c0.577,0,0.971,0.104,1.18,0.314c0.208,0.207,0.313,0.463,0.313,0.763C17.712,3.754,17.593,4.007,17.352,4.205z"/>
	<linearGradient id="XMLID_7_" gradientUnits="userSpaceOnUse" x1="-2.5293" y1="7.3242" x2="14.043" y2="23.8965">
		<stop  offset="0" style="stop-color:#F8DB41"/>
		<stop  offset="0.1193" style="stop-color:#F8D73F"/>
		<stop  offset="0.2384" style="stop-color:#F9CB3A"/>
		<stop  offset="0.3576" style="stop-color:#FAB731"/>
		<stop  offset="0.4768" style="stop-color:#FC9B24"/>
		<stop  offset="0.595" style="stop-color:#FE7714"/>
		<stop  offset="0.6011" style="stop-color:#FE7513"/>
	</linearGradient>
	<path style="fill:url(#XMLID_7_);stroke:#000000;stroke-width:0.5;" d="M1.925,20.317v-9.585h5.147
		c0.957,0,1.686,0.078,2.189,0.235c0.506,0.157,0.911,0.447,1.221,0.872c0.312,0.424,0.466,0.94,0.466,1.551
		c0,0.531-0.12,0.989-0.356,1.375s-0.564,0.698-0.979,0.938c-0.264,0.152-0.627,0.279-1.089,0.38
		c0.369,0.116,0.635,0.236,0.803,0.353c0.113,0.08,0.279,0.249,0.493,0.507c0.216,0.259,0.359,0.459,0.432,0.599l1.505,2.776H8.27
		l-1.655-2.934c-0.21-0.379-0.396-0.626-0.561-0.739c-0.224-0.148-0.476-0.222-0.758-0.222H5.023v3.895H1.925z M5.023,14.609H6.33
		c0.141,0,0.415-0.043,0.82-0.131c0.206-0.038,0.375-0.138,0.504-0.299s0.195-0.345,0.195-0.555c0-0.309-0.104-0.546-0.31-0.71
		c-0.204-0.166-0.591-0.248-1.156-0.248h-1.36V14.609z"/>
	<linearGradient id="XMLID_8_" gradientUnits="userSpaceOnUse" x1="2.7891" y1="2.0039" x2="19.364" y2="18.5788">
		<stop  offset="0" style="stop-color:#F8DB41"/>
		<stop  offset="0.1193" style="stop-color:#F8D73F"/>
		<stop  offset="0.2384" style="stop-color:#F9CB3A"/>
		<stop  offset="0.3576" style="stop-color:#FAB731"/>
		<stop  offset="0.4768" style="stop-color:#FC9B24"/>
		<stop  offset="0.595" style="stop-color:#FE7714"/>
		<stop  offset="0.6011" style="stop-color:#FE7513"/>
	</linearGradient>
	<path style="fill:url(#XMLID_8_);stroke:#000000;stroke-width:0.5;" d="M11.917,17.24l2.936-0.177
		c0.063,0.458,0.192,0.807,0.388,1.047c0.318,0.389,0.772,0.582,1.363,0.582c0.441,0,0.779-0.098,1.018-0.297
		c0.239-0.197,0.357-0.429,0.357-0.691c0-0.247-0.113-0.47-0.339-0.666c-0.227-0.196-0.754-0.382-1.581-0.556
		c-1.354-0.292-2.32-0.682-2.896-1.164c-0.581-0.485-0.872-1.103-0.872-1.853c0-0.493,0.149-0.958,0.446-1.397
		c0.299-0.438,0.744-0.781,1.341-1.033c0.599-0.25,1.419-0.375,2.459-0.375c1.276,0,2.249,0.228,2.919,0.682
		c0.67,0.455,1.067,1.178,1.194,2.17l-2.907,0.162c-0.077-0.429-0.238-0.74-0.486-0.936c-0.25-0.195-0.591-0.292-1.027-0.292
		c-0.358,0-0.631,0.072-0.813,0.219c-0.182,0.146-0.272,0.324-0.272,0.534c0,0.151,0.074,0.289,0.228,0.411
		c0.145,0.126,0.49,0.243,1.035,0.353c1.35,0.279,2.315,0.563,2.898,0.848c0.585,0.284,1.01,0.641,1.274,1.063
		c0.264,0.423,0.398,0.895,0.398,1.418c0,0.614-0.177,1.182-0.532,1.701c-0.354,0.518-0.847,0.912-1.483,1.18
		c-0.636,0.269-1.438,0.402-2.405,0.402c-1.697,0-2.875-0.313-3.528-0.941C12.373,19.006,12.004,18.208,11.917,17.24z"/>
</g>
</svg>
