<?xml version="1.0" encoding="iso-8859-1"?>
<!-- Generator: Adobe Illustrator 12.0.1, SVG Export Plug-In . SVG Version: 6.00 Build 51448)  -->
<!DOCTYPE svg PUBLIC "-//W3C//DTD SVG 1.1//EN" "http://www.w3.org/Graphics/SVG/1.1/DTD/svg11.dtd" [
	<!ENTITY ns_svg "http://www.w3.org/2000/svg">
	<!ENTITY ns_xlink "http://www.w3.org/1999/xlink">
]>
<svg  version="1.1" id="&#x56FE;&#x5C42;_1" xmlns="&ns_svg;" xmlns:xlink="&ns_xlink;" width="31.529" height="30.355"
	 viewBox="0 0 31.529 30.355" style="overflow:visible;enable-background:new 0 0 31.529 30.355;" xml:space="preserve">
<g>
	<g>
		<g style="opacity:0.51;">
			<rect x="6.874" y="2.329" transform="matrix(0.97 0.2432 -0.2432 0.97 1.5723 -2.209)" width="5.721" height="5.871"/>
			
				<rect x="6.874" y="2.329" transform="matrix(0.97 0.2432 -0.2432 0.97 1.5723 -2.209)" style="fill:none;stroke:#000000;stroke-width:0.5;" width="5.721" height="5.871"/>
		</g>
		<g>
			
				<rect x="5.457" y="0.911" transform="matrix(0.97 0.2432 -0.2432 0.97 1.1851 -1.907)" style="fill:#87CCEE;" width="5.721" height="5.871"/>
			
				<rect x="5.457" y="0.911" transform="matrix(0.97 0.2432 -0.2432 0.97 1.1851 -1.907)" style="fill:none;stroke:#000000;stroke-width:0.5;" width="5.721" height="5.871"/>
		</g>
	</g>
	<g>
		<g style="opacity:0.51;">
			<rect x="12.841" y="3.806" transform="matrix(0.97 0.243 -0.243 0.97 2.109 -3.6128)" width="5.719" height="5.875"/>
			
				<rect x="12.841" y="3.806" transform="matrix(0.97 0.243 -0.243 0.97 2.109 -3.6128)" style="fill:none;stroke:#000000;stroke-width:0.5;" width="5.719" height="5.875"/>
		</g>
		<g>
			
				<rect x="11.424" y="2.388" transform="matrix(0.97 0.243 -0.243 0.97 1.7221 -3.311)" style="fill:#0088CF;" width="5.719" height="5.875"/>
			
				<rect x="11.424" y="2.388" transform="matrix(0.97 0.243 -0.243 0.97 1.7221 -3.311)" style="fill:none;stroke:#000000;stroke-width:0.5;" width="5.719" height="5.875"/>
		</g>
	</g>
	<g>
		<g style="opacity:0.51;">
			<rect x="18.842" y="5.293" transform="matrix(0.97 0.2432 -0.2432 0.97 2.6524 -5.0303)" width="5.719" height="5.871"/>
			
				<rect x="18.842" y="5.293" transform="matrix(0.97 0.2432 -0.2432 0.97 2.6524 -5.0303)" style="fill:none;stroke:#000000;stroke-width:0.5;" width="5.719" height="5.871"/>
		</g>
		<g>
			
				<rect x="17.425" y="3.875" transform="matrix(0.97 0.2432 -0.2432 0.97 2.2651 -4.7282)" style="fill:#0088CF;" width="5.719" height="5.871"/>
			
				<rect x="17.425" y="3.875" transform="matrix(0.97 0.2432 -0.2432 0.97 2.2651 -4.7282)" style="fill:none;stroke:#000000;stroke-width:0.5;" width="5.719" height="5.871"/>
		</g>
	</g>
	<g>
		<g style="opacity:0.51;">
			<rect x="24.882" y="6.831" transform="matrix(0.97 0.2429 -0.2429 0.97 3.2041 -6.4466)" width="5.718" height="5.875"/>
			
				<rect x="24.882" y="6.831" transform="matrix(0.97 0.2429 -0.2429 0.97 3.2041 -6.4466)" style="fill:none;stroke:#000000;stroke-width:0.5;" width="5.718" height="5.875"/>
		</g>
		<g>
			
				<rect x="23.465" y="5.413" transform="matrix(0.97 0.2429 -0.2429 0.97 2.8173 -6.1449)" style="fill:#0088CF;" width="5.718" height="5.875"/>
			
				<rect x="23.465" y="5.413" transform="matrix(0.97 0.2429 -0.2429 0.97 2.8173 -6.1449)" style="fill:none;stroke:#000000;stroke-width:0.5;" width="5.718" height="5.875"/>
		</g>
	</g>
	<polygon style="fill:#B0B0B0;" points="30.084,6.287 29.051,6.028 27.893,10.662 23.378,9.531 23.111,10.596 28.658,11.985 	"/>
	<polygon style="fill:#B0B0B0;" points="24.014,4.788 22.979,4.528 21.821,9.161 17.307,8.031 17.04,9.096 22.588,10.485 	"/>
	<polygon style="fill:#B0B0B0;" points="17.963,3.173 16.929,2.914 15.771,7.547 11.257,6.416 10.989,7.481 16.537,8.871 	"/>
	<polygon style="fill:#B0B0B0;" points="12.138,1.617 11.103,1.359 9.945,5.992 5.429,4.861 5.163,5.927 10.712,7.315 	"/>
	<g>
		<g style="opacity:0.51;">
			<rect x="5.379" y="8.363" transform="matrix(0.97 0.2431 -0.2431 0.97 2.9947 -1.6639)" width="5.719" height="5.873"/>
			
				<rect x="5.379" y="8.363" transform="matrix(0.97 0.2431 -0.2431 0.97 2.9947 -1.6639)" style="fill:none;stroke:#000000;stroke-width:0.5;" width="5.719" height="5.873"/>
		</g>
		<g>
			
				<rect x="3.962" y="6.946" transform="matrix(0.97 0.2431 -0.2431 0.97 2.6075 -1.362)" style="fill:#87CCEE;" width="5.719" height="5.873"/>
			
				<rect x="3.962" y="6.946" transform="matrix(0.97 0.2431 -0.2431 0.97 2.6075 -1.362)" style="fill:none;stroke:#000000;stroke-width:0.5;" width="5.719" height="5.873"/>
		</g>
	</g>
	<g>
		<g style="opacity:0.51;">
			<polygon points="16.268,16.322 10.72,14.931 12.144,9.234 17.691,10.624 			"/>
			<polygon style="fill:none;stroke:#000000;stroke-width:0.5;" points="16.268,16.322 10.72,14.931 12.144,9.234 17.691,10.624 			
				"/>
		</g>
		<g>
			<polygon style="fill:#87CCEE;" points="14.851,14.904 9.303,13.514 10.727,7.816 16.274,9.207 			"/>
			<polygon style="fill:none;stroke:#000000;stroke-width:0.5;" points="14.851,14.904 9.303,13.514 10.727,7.816 16.274,9.207 			
				"/>
		</g>
	</g>
	<g>
		<g style="opacity:0.51;">
			<rect x="17.347" y="11.328" transform="matrix(0.97 0.2432 -0.2432 0.97 4.0762 -4.486)" width="5.718" height="5.873"/>
			
				<rect x="17.347" y="11.328" transform="matrix(0.97 0.2432 -0.2432 0.97 4.0762 -4.486)" style="fill:none;stroke:#000000;stroke-width:0.5;" width="5.718" height="5.873"/>
		</g>
		<g>
			
				<rect x="15.93" y="9.91" transform="matrix(0.97 0.2432 -0.2432 0.97 3.6889 -4.184)" style="fill:#0088CF;" width="5.718" height="5.873"/>
			
				<rect x="15.93" y="9.91" transform="matrix(0.97 0.2432 -0.2432 0.97 3.6889 -4.184)" style="fill:none;stroke:#000000;stroke-width:0.5;" width="5.718" height="5.873"/>
		</g>
	</g>
	<g>
		<g style="opacity:0.51;">
			<polygon points="28.318,19.307 22.77,17.917 24.194,12.219 29.741,13.609 			"/>
			<polygon style="fill:none;stroke:#000000;stroke-width:0.5;" points="28.318,19.307 22.77,17.917 24.194,12.219 29.741,13.609 
							"/>
		</g>
		<g>
			<polygon style="fill:#0088CF;" points="26.901,17.89 21.353,16.5 22.777,10.801 28.324,12.191 			"/>
			<polygon style="fill:none;stroke:#000000;stroke-width:0.5;" points="26.901,17.89 21.353,16.5 22.777,10.801 28.324,12.191 			
				"/>
		</g>
	</g>
	<g>
		<g style="opacity:0.51;">
			<polygon points="8.784,20.956 3.238,19.565 4.662,13.868 10.21,15.259 			"/>
			<polygon style="fill:none;stroke:#000000;stroke-width:0.5;" points="8.784,20.956 3.238,19.565 4.662,13.868 10.21,15.259 			
				"/>
		</g>
		<g>
			<polygon style="fill:#E1F2FC;" points="7.367,19.539 1.821,18.148 3.245,12.451 8.793,13.842 			"/>
			<polygon style="fill:none;stroke:#000000;stroke-width:0.5;" points="7.367,19.539 1.821,18.148 3.245,12.451 8.793,13.842 			
				"/>
		</g>
	</g>
	<g>
		<g style="opacity:0.51;">
			<rect x="9.832" y="15.953" transform="matrix(0.9701 0.2427 -0.2427 0.9701 4.9647 -2.5157)" width="5.719" height="5.874"/>
			
				<rect x="9.832" y="15.953" transform="matrix(0.9701 0.2427 -0.2427 0.9701 4.9647 -2.5157)" style="fill:none;stroke:#000000;stroke-width:0.5;" width="5.719" height="5.874"/>
		</g>
		<g>
			
				<rect x="8.415" y="14.535" transform="matrix(0.9701 0.2428 -0.2428 0.9701 4.58 -2.2147)" style="fill:#87CCEE;" width="5.719" height="5.874"/>
			
				<rect x="8.415" y="14.535" transform="matrix(0.9701 0.2428 -0.2428 0.9701 4.58 -2.2147)" style="fill:none;stroke:#000000;stroke-width:0.5;" width="5.719" height="5.874"/>
		</g>
	</g>
	<g>
		<g style="opacity:0.51;">
			<rect x="15.834" y="17.44" transform="matrix(0.97 0.243 -0.243 0.97 5.512 -3.932)" width="5.718" height="5.871"/>
			
				<rect x="15.834" y="17.44" transform="matrix(0.97 0.243 -0.243 0.97 5.512 -3.932)" style="fill:none;stroke:#000000;stroke-width:0.5;" width="5.718" height="5.871"/>
		</g>
		<g>
			
				<rect x="14.417" y="16.022" transform="matrix(0.97 0.243 -0.243 0.97 5.1251 -3.6301)" style="fill:#87CCEE;" width="5.718" height="5.872"/>
			
				<rect x="14.417" y="16.022" transform="matrix(0.97 0.243 -0.243 0.97 5.1251 -3.6301)" style="fill:none;stroke:#000000;stroke-width:0.5;" width="5.718" height="5.872"/>
		</g>
	</g>
	<g>
		<g style="opacity:0.51;">
			<polygon points="26.803,25.421 21.256,24.028 22.681,18.331 28.227,19.721 			"/>
			<polygon style="fill:none;stroke:#000000;stroke-width:0.5;" points="26.803,25.421 21.256,24.028 22.681,18.331 28.227,19.721 
							"/>
		</g>
		<g>
			<polygon style="fill:#0088CF;" points="25.386,24.004 19.839,22.611 21.264,16.914 26.81,18.304 			"/>
			<polygon style="fill:none;stroke:#000000;stroke-width:0.5;" points="25.386,24.004 19.839,22.611 21.264,16.914 26.81,18.304 
							"/>
		</g>
	</g>
	<g>
		<g style="opacity:0.51;">
			<rect x="2.346" y="20.608" transform="matrix(0.97 0.243 -0.243 0.97 5.8777 -0.5592)" width="5.718" height="5.872"/>
			
				<rect x="2.346" y="20.608" transform="matrix(0.97 0.243 -0.243 0.97 5.8777 -0.5592)" style="fill:none;stroke:#000000;stroke-width:0.5;" width="5.718" height="5.872"/>
		</g>
		<g>
			
				<rect x="0.929" y="19.191" transform="matrix(0.97 0.243 -0.243 0.97 5.4908 -0.2574)" style="fill:#E1F2FC;" width="5.718" height="5.872"/>
			
				<rect x="0.929" y="19.191" transform="matrix(0.97 0.243 -0.243 0.97 5.4908 -0.2574)" style="fill:none;stroke:#000000;stroke-width:0.5;" width="5.718" height="5.872"/>
		</g>
	</g>
	<g>
		<g style="opacity:0.51;">
			<rect x="8.312" y="22.086" transform="matrix(0.97 0.243 -0.243 0.97 6.4148 -1.9646)" width="5.719" height="5.873"/>
			
				<rect x="8.312" y="22.086" transform="matrix(0.97 0.243 -0.243 0.97 6.4148 -1.9646)" style="fill:none;stroke:#000000;stroke-width:0.5;" width="5.719" height="5.873"/>
		</g>
		<g>
			
				<rect x="6.895" y="20.669" transform="matrix(0.97 0.243 -0.243 0.97 6.0279 -1.6628)" style="fill:#E1F2FC;" width="5.719" height="5.874"/>
			
				<rect x="6.895" y="20.669" transform="matrix(0.97 0.243 -0.243 0.97 6.0279 -1.6628)" style="fill:none;stroke:#000000;stroke-width:0.5;" width="5.719" height="5.874"/>
		</g>
	</g>
	<g>
		<g style="opacity:0.51;">
			<rect x="14.314" y="23.572" transform="matrix(0.97 0.243 -0.243 0.97 6.9556 -3.3785)" width="5.719" height="5.873"/>
			
				<rect x="14.314" y="23.572" transform="matrix(0.97 0.243 -0.243 0.97 6.9556 -3.3785)" style="fill:none;stroke:#000000;stroke-width:0.5;" width="5.719" height="5.873"/>
		</g>
		<g>
			
				<rect x="12.897" y="22.155" transform="matrix(0.97 0.243 -0.243 0.97 6.5688 -3.0766)" style="fill:#87CCEE;" width="5.719" height="5.873"/>
			
				<rect x="12.897" y="22.155" transform="matrix(0.97 0.243 -0.243 0.97 6.5688 -3.0766)" style="fill:none;stroke:#000000;stroke-width:0.5;" width="5.719" height="5.873"/>
		</g>
	</g>
	<polygon style="fill:#B0B0B0;" points="28.325,12.189 27.293,11.931 26.134,16.563 21.618,15.433 21.354,16.499 26.9,17.887 	"/>
	<polygon style="fill:#B0B0B0;" points="22.318,10.799 21.284,10.541 20.127,15.173 15.612,14.043 15.344,15.108 20.892,16.497 	"/>
	<polygon style="fill:#B0B0B0;" points="16.288,9.446 15.255,9.188 14.097,13.82 9.581,12.69 9.315,13.756 14.862,15.145 	"/>
	<polygon style="fill:#B0B0B0;" points="10.462,7.892 9.428,7.632 8.271,12.265 3.756,11.135 3.488,12.2 9.036,13.59 	"/>
	<polygon style="fill:#B0B0B0;" points="26.834,18.416 25.736,18.181 24.577,22.813 20.127,21.66 19.861,22.725 25.409,24.114 	"/>
	<polygon style="fill:#B0B0B0;" points="20.698,16.865 19.665,16.606 18.507,21.238 13.992,20.108 13.725,21.174 19.272,22.562 	"/>
	<polygon style="fill:#B0B0B0;" points="14.657,15.554 13.626,15.294 12.467,19.927 7.951,18.797 7.687,19.863 13.233,21.251 	"/>
	<polygon style="fill:#B0B0B0;" points="8.831,13.999 7.8,13.74 6.64,18.373 2.126,17.242 1.86,18.308 7.405,19.696 	"/>
	<polygon style="fill:#B0B0B0;" points="19.002,22.972 17.969,22.713 16.804,27.265 12.295,26.215 12.029,27.281 17.576,28.669 	"/>
	<polygon style="fill:#B0B0B0;" points="13.138,21.391 12.104,21.131 10.946,25.765 6.431,24.633 6.164,25.699 11.711,27.088 	"/>
	<polygon style="fill:#B0B0B0;" points="7.18,20.188 6.147,19.931 4.989,24.563 0.473,23.433 0.206,24.497 5.755,25.886 	"/>
</g>
</svg>
