<?xml version="1.0" encoding="iso-8859-1"?>
<!-- Generator: Adobe Illustrator 12.0.1, SVG Export Plug-In . SVG Version: 6.00 Build 51448)  -->
<!DOCTYPE svg PUBLIC "-//W3C//DTD SVG 1.1//EN" "http://www.w3.org/Graphics/SVG/1.1/DTD/svg11.dtd" [
	<!ENTITY ns_svg "http://www.w3.org/2000/svg">
	<!ENTITY ns_xlink "http://www.w3.org/1999/xlink">
]>
<svg  version="1.1" id="&#xCD;_xBC__xB2_&#xE3;_x5F_1" xmlns="&ns_svg;" xmlns:xlink="&ns_xlink;" width="29.5" height="29.5"
	 viewBox="0 0 29.5 29.5" style="overflow:visible;enable-background:new 0 0 29.5 29.5;" xml:space="preserve">
<g>
	<g>
		<linearGradient id="XMLID_4_" gradientUnits="userSpaceOnUse" x1="36.4053" y1="24.9912" x2="2.5713" y2="8.9907">
			<stop  offset="0.0112" style="stop-color:#FFFFFF"/>
			<stop  offset="0.0515" style="stop-color:#F6FBFE"/>
			<stop  offset="0.105" style="stop-color:#E4F5FD"/>
			<stop  offset="0.1659" style="stop-color:#C8E9FA"/>
			<stop  offset="0.2322" style="stop-color:#9DDBF8"/>
			<stop  offset="0.3021" style="stop-color:#60CAF4"/>
			<stop  offset="0.3539" style="stop-color:#00BEF1"/>
			<stop  offset="0.3653" style="stop-color:#00BDF1"/>
			<stop  offset="0.4931" style="stop-color:#00B4F0"/>
			<stop  offset="0.5949" style="stop-color:#00AFEF"/>
			<stop  offset="0.6573" style="stop-color:#00ADEF"/>
			<stop  offset="0.7681" style="stop-color:#009ADE"/>
			<stop  offset="0.9234" style="stop-color:#0083CA"/>
			<stop  offset="1" style="stop-color:#007AC2"/>
		</linearGradient>
		<circle style="opacity:0.83;fill:url(#XMLID_4_);stroke:#0A374E;" cx="14.75" cy="14.75" r="14.25"/>
		<linearGradient id="XMLID_5_" gradientUnits="userSpaceOnUse" x1="3.1763" y1="6.6968" x2="28.1744" y2="23.8204">
			<stop  offset="0.0112" style="stop-color:#FFFFFF"/>
			<stop  offset="0.0515" style="stop-color:#F6FBFE"/>
			<stop  offset="0.105" style="stop-color:#E4F5FD"/>
			<stop  offset="0.1659" style="stop-color:#C8E9FA"/>
			<stop  offset="0.2322" style="stop-color:#9DDBF8"/>
			<stop  offset="0.3021" style="stop-color:#60CAF4"/>
			<stop  offset="0.3539" style="stop-color:#00BEF1"/>
			<stop  offset="0.3653" style="stop-color:#00BDF1"/>
			<stop  offset="0.4931" style="stop-color:#00B4F0"/>
			<stop  offset="0.5949" style="stop-color:#00AFEF"/>
			<stop  offset="0.6573" style="stop-color:#00ADEF"/>
			<stop  offset="0.7154" style="stop-color:#009ADE"/>
			<stop  offset="0.7969" style="stop-color:#0083CA"/>
			<stop  offset="0.8371" style="stop-color:#007AC2"/>
		</linearGradient>
		<ellipse style="opacity:0.83;fill:url(#XMLID_5_);" cx="14.75" cy="14.625" rx="12.625" ry="12.5"/>
	</g>
	<g>
		<linearGradient id="XMLID_6_" gradientUnits="userSpaceOnUse" x1="3.4873" y1="7.1411" x2="18.1551" y2="18.6422">
			<stop  offset="0.0112" style="stop-color:#FFFFFF"/>
			<stop  offset="0.0786" style="stop-color:#F6FBFE"/>
			<stop  offset="0.168" style="stop-color:#E4F5FD"/>
			<stop  offset="0.2698" style="stop-color:#C8E9FA"/>
			<stop  offset="0.3807" style="stop-color:#9DDBF8"/>
			<stop  offset="0.4977" style="stop-color:#60CAF4"/>
			<stop  offset="0.5843" style="stop-color:#00BEF1"/>
			<stop  offset="0.5998" style="stop-color:#00BDF1"/>
			<stop  offset="0.775" style="stop-color:#00B4F0"/>
			<stop  offset="0.9144" style="stop-color:#00AFEF"/>
			<stop  offset="1" style="stop-color:#00ADEF"/>
		</linearGradient>
		<path style="fill:url(#XMLID_6_);" d="M3.958,14.926c0-6.699,6.009-12.152,12.627-12.473c-0.717-0.129-1.453-0.207-2.207-0.207
			c-6.906,0-12.504,5.598-12.504,12.505c0,6.905,5.598,12.503,12.504,12.503c0.206,0,0.407-0.02,0.611-0.03
			C9.14,26.18,3.958,21.078,3.958,14.926z"/>
	</g>
	<g>
		<path style="fill:#13327C;" d="M17.989,18.363h-4.25v-0.424c0-0.72,0.082-1.304,0.245-1.754c0.166-0.448,0.41-0.859,0.735-1.229
			c0.326-0.372,1.056-1.024,2.191-1.96c0.606-0.49,0.909-0.939,0.909-1.348s-0.122-0.725-0.364-0.951
			c-0.243-0.227-0.611-0.34-1.104-0.34c-0.53,0-0.969,0.175-1.317,0.523c-0.348,0.35-0.705,1.182-0.675,2.016h-4.345
			c-0.119-1.785,0.736-3.595,1.747-4.565c1.01-0.97,2.557-1.456,4.644-1.456c1.624,0,2.935,0.338,3.934,1.014
			c1.356,0.914,2.034,2.133,2.034,3.655c0,0.632-0.175,1.239-0.523,1.827c-0.35,0.586-1.064,1.305-2.142,2.15
			c-0.75,0.594-1.225,1.071-1.422,1.432C18.088,17.313,17.989,17.783,17.989,18.363z"/>
		<circle style="fill:#13327C;" cx="15.883" cy="22.309" r="2.375"/>
	</g>
	<path style="fill:#FFFFFF;" d="M16.833,17.467h-4.25v-0.423c0-0.72,0.082-1.304,0.245-1.754c0.166-0.448,0.41-0.859,0.735-1.229
		c0.326-0.372,1.056-1.025,2.191-1.961c0.606-0.488,0.909-0.938,0.909-1.346s-0.122-0.726-0.364-0.953
		c-0.243-0.226-0.611-0.339-1.104-0.339c-0.53,0-0.969,0.175-1.317,0.523c-0.348,0.35-0.705,1.183-0.675,2.015H8.857
		c-0.119-1.785,0.736-3.594,1.747-4.564c1.01-0.971,2.557-1.717,4.644-1.717c1.624,0,3.116,0.418,4.115,1.094
		c1.356,0.914,1.853,2.313,1.853,3.836c0,0.631-0.175,1.24-0.523,1.828c-0.35,0.585-1.064,1.303-2.142,2.149
		c-0.75,0.595-1.225,1.071-1.422,1.433C16.932,16.418,16.833,16.888,16.833,17.467z"/>
	<circle style="fill:#FFFFFF;" cx="14.727" cy="21.414" r="2.375"/>
</g>
</svg>
