<?xml version="1.0" encoding="iso-8859-1"?>
<!-- Generator: Adobe Illustrator 12.0.1, SVG Export Plug-In . SVG Version: 6.00 Build 51448)  -->
<!DOCTYPE svg PUBLIC "-//W3C//DTD SVG 1.1//EN" "http://www.w3.org/Graphics/SVG/1.1/DTD/svg11.dtd" [
	<!ENTITY ns_svg "http://www.w3.org/2000/svg">
	<!ENTITY ns_xlink "http://www.w3.org/1999/xlink">
]>
<svg  version="1.1" id="&#x56FE;&#x5C42;_1" xmlns="&ns_svg;" xmlns:xlink="&ns_xlink;" width="19.501" height="19.278"
	 viewBox="0 0 19.501 19.278" style="overflow:visible;enable-background:new 0 0 19.501 19.278;" xml:space="preserve">
<g>
	<radialGradient id="XMLID_6_" cx="10.3184" cy="2.0811" r="11.9063" gradientUnits="userSpaceOnUse">
		<stop  offset="0" style="stop-color:#FDF1E0"/>
		<stop  offset="0.1017" style="stop-color:#E3E9DE"/>
		<stop  offset="0.32" style="stop-color:#9FD4D8"/>
		<stop  offset="0.6356" style="stop-color:#34B2CE"/>
		<stop  offset="0.6798" style="stop-color:#24ADCD"/>
	</radialGradient>
	<circle style="fill:url(#XMLID_6_);stroke:#454545;stroke-width:0.25;" cx="11.869" cy="7.633" r="7.507"/>
	<path style="fill:#009A43;" d="M14.038,12.992c0,0,0.537,0.063,0.508,0.499c-0.029,0.439-1.664,1.085-1.664,1.085
		s1.89,0.488,4.188-1.891c2.299-2.383,0.162-0.164,0.162-0.164s1.074-1.475,0.927-2.006c-0.149-0.532-0.628-1.128-0.866-0.596
		c-0.238,0.533-0.358-0.313-0.358-0.313s-0.09,0.031-0.298-0.125c-0.209-0.156-0.029,0.281-0.299,0.501
		c-0.27,0.219-0.148-0.438-0.209-0.721c-0.061-0.283-1.075-0.251-1.195-0.063c-0.118,0.188-0.297,0.407-0.297,0.407l-0.061-0.596
		c0,0-0.179,0.533-0.388,0.596c-0.208,0.063,0.119,0.501-0.806,0.251c-0.926-0.251-0.418-0.627-0.418-0.627l0.328-0.376
		c0,0-0.268,0.094-0.566-0.125c-0.299-0.221-0.21-0.878-0.21-0.878S12.009,7.697,11.86,8.26c-0.15,0.564-0.537,0.155-0.658,0.22
		c-0.119,0.063-0.834-1.441,0.418-1.847c1.254-0.409,0.479-0.348,0.479-0.348s0.836,0.221,0.836,0.628
		c0,0.406,0.238,0.095,0.238,0.095s-0.477-0.723-0.09-0.973c0.388-0.25,0.836-1.756,1.075-1.756c0.238,0,0.716-0.407,0.716-0.407
		s0.15-0.155-0.357-0.343c-0.508-0.189,0.447-0.564,0.059-0.752c-0.388-0.188-0.895-0.564-0.895-0.564s-0.179-0.283-0.179,0
		c0,0.281-0.806-0.344-0.806-0.344s0.416,0.938,0.178,1.096s-0.238,0.157-0.238,0.157s-0.18,0-0.836-0.597
		c-0.656-0.596-0.18-0.689,0.209-0.689c0.388,0,0.119-0.375,0.119-0.375s-0.209,0.22-0.418,0c-0.209-0.221,0.209-0.156-0.418-0.032
		C10.666,1.555,9.95,1.681,9.89,1.146C9.831,0.615,10.009,1.398,9.353,1.24C8.695,1.084,9.114,1.146,9.114,1.146
		s0.441-0.408,0.33-0.367C7.341,1.561,7.255,2.201,7.054,2.201c-0.238,0,1.225-0.459,1.225-0.459s-0.18,0.501,0,0.629
		C8.457,2.494,8.726,2.525,8.487,2.87S8.427,3.685,8.427,3.685S7.711,4.468,7.95,5.002c0.238,0.531,0.357,0.407,0.357,0.407
		s1.225,1.91,1.523,2.382c0.297,0.469,0.625,0.25,0.625,0.25L10.039,8.26c0,0,0.269,0.313,0.567,0.377
		c0.299,0.062,0.656,0.094,0.656,0.094s0.328,0.313,0.418,0.313S12.516,9.2,12.516,9.2l0.419,0.752l0.507,0.064
		c0,0,1.433,0.124-0.029,1.251c-1.463,1.128-0.21,1.034,0,0.409c0.208-0.63,0.626,0.249,0.208,0.781"/>
	<path style="fill:#4E6211;" d="M10.862,13.797c0,0,0.68-0.933,0.585-1.27c-0.093-0.336-0.396-0.713-0.548-0.376
		c-0.15,0.337-0.227-0.197-0.227-0.197s-0.057,0.018-0.188-0.081c-0.133-0.098-0.019,0.179-0.188,0.318
		c-0.171,0.138-0.096-0.277-0.133-0.455c-0.038-0.18-0.682-0.16-0.756-0.04c-0.076,0.118-0.189,0.258-0.189,0.258l-0.037-0.378
		c0,0-0.113,0.338-0.245,0.378c-0.131,0.038,0.069,0.309-0.49,0.163c-0.015,0.026-0.023,0.057-0.027,0.088l0.044,0.006
		c0,0,0.908,0.079-0.018,0.793c-0.133,0.104-0.229,0.189-0.297,0.26c-0.004,0.066-0.004,0.172,0.018,0.27
		c0.106-0.037,0.232-0.132,0.279-0.271c0.132-0.397,0.396,0.159,0.132,0.495l0.061,0.077c0.005-0.002,0.007-0.002,0.007-0.002
		l-0.005,0.005l0.202,0.259c0,0,0.301,0.038,0.318,0.275c0.008-0.029,0.02-0.053,0.051-0.063c0.133-0.04,0.246-0.375,0.246-0.375
		l0.039,0.375c0,0,0.112-0.139,0.188-0.257c0.076-0.118,0.719-0.14,0.757,0.04c0.011,0.049,0.013,0.119,0.013,0.188
		c0.049-0.047,0.096-0.092,0.146-0.143C12.053,12.629,10.862,13.797,10.862,13.797z"/>
	<path style="fill:#7A9A17;" d="M8.964,11.737c-0.07-0.161-0.164-0.446,0.004-0.573C9,11.141,9.033,11.101,9.066,11.049
		c-0.035-0.116-0.069-0.202-0.069-0.202s0.055,0.047,0.125,0.104c0.195-0.37,0.393-1.04,0.509-1.04c0.147,0,0.442-0.292,0.442-0.292
		s0.092-0.112-0.222-0.246C9.539,9.239,10.13,8.971,9.889,8.837C9.649,8.702,9.335,8.432,9.335,8.432s-0.109-0.2-0.109,0
		c0,0.204-0.497-0.244-0.497-0.244s0.257,0.672,0.11,0.783C8.691,9.083,8.691,9.083,8.691,9.083s-0.11,0-0.517-0.426
		c-0.404-0.426-0.11-0.494,0.129-0.494c0.24,0,0.074-0.269,0.074-0.269s-0.129,0.157-0.258,0C8.072,7.838,8.078,7.807,8.084,7.796
		C8.071,7.807,8.022,7.837,7.862,7.873c-0.387,0.09-0.828,0.179-0.865-0.201s0.074,0.179-0.332,0.067
		C6.259,7.627,6.518,7.672,6.518,7.672s0.216-0.209,0.147-0.179c-0.981,0.422-1.22,0.716-1.33,0.835
		c0.211-0.084,0.667-0.231,0.667-0.231s-0.111,0.358,0,0.447c0.11,0.092,0.276,0.113,0.129,0.359
		C5.983,9.148,6.094,9.486,6.094,9.486s-0.442,0.559-0.296,0.94c0.058,0.146,0.104,0.222,0.139,0.262
		c0.195-0.143,0.501-0.324,0.996-0.536c0.07-0.03-0.146,0.18-0.146,0.18s-0.259-0.046,0.146,0.065
		c0.406,0.112,0.296-0.448,0.334-0.065c0.036,0.381,0.477,0.291,0.865,0.201c0.158-0.036,0.209-0.068,0.22-0.077
		c-0.004,0.009-0.01,0.041,0.038,0.099c0.128,0.158,0.258,0,0.258,0s0.165,0.271-0.074,0.271s-0.533,0.065-0.129,0.49
		c0.039,0.041,0.072,0.074,0.105,0.107c0.115,0.058,0.25,0.146,0.303,0.264c0.08,0.055,0.107,0.055,0.107,0.055
		S8.96,11.741,8.964,11.737z"/>
	<path style="fill:#9BC41E;" d="M4.372,7.499c0.032,0,0.055-0.02,0.092-0.054C4.376,7.477,4.329,7.499,4.372,7.499z"/>
	<path style="fill:#009A43;" d="M12.131,1.225c0,0,1.479-0.24,3.039,0.805c1.562,1.046,0.323,0.08,0.339,0S14.978,1.37,15.17,1.37
		c0.194,0,0-0.209,0-0.209s-1.946-0.869-2.091-0.53c-0.145,0.338-0.017,0.272-0.017,0.272s-0.306,0.161-0.369-0.032
		c-0.065-0.193,0.208-0.096,0.208-0.096s-0.563-0.208-0.594-0.082C12.274,0.823,12.131,1.225,12.131,1.225z"/>
</g>
<g>
	<path style="fill:#9CC422;" d="M1.709,12.703c0.031,0,0.055-0.02,0.091-0.054C1.713,12.681,1.666,12.703,1.709,12.703z"/>
</g>
<g>
	
		<linearGradient id="XMLID_7_" gradientUnits="userSpaceOnUse" x1="-10.9248" y1="-40.9619" x2="-8.31" y2="-42.0584" gradientTransform="matrix(0.9968 -0.0791 0.0791 0.9968 19.2751 51.9478)">
		<stop  offset="0.0056" style="stop-color:#424242"/>
		<stop  offset="0.3202" style="stop-color:#FFFFFF"/>
		<stop  offset="0.736" style="stop-color:#CCCCCC"/>
		<stop  offset="1" style="stop-color:#424242"/>
	</linearGradient>
	<path style="fill:url(#XMLID_7_);stroke:#000000;stroke-width:0.25;" d="M1.932,5.547c0,0,5.618,11.678,6.689,13.09
		c1.073,1.412,5.458-0.32,5.787-2.211C14.74,14.534,6.401,1.688,6.401,1.688S5.13,1.679,4.539,2.037
		C4.111,2.294,2.75,3.051,2.573,3.32C2.397,3.588,1.932,5.547,1.932,5.547z"/>
	
		<linearGradient id="XMLID_8_" gradientUnits="userSpaceOnUse" x1="-11.2637" y1="-42.6934" x2="-2" y2="-42.6934" gradientTransform="matrix(0.9968 -0.0791 0.0791 0.9968 19.2751 51.9478)">
		<stop  offset="0.1067" style="stop-color:#ECECEC"/>
		<stop  offset="0.3202" style="stop-color:#FFFFFF"/>
		<stop  offset="0.736" style="stop-color:#CCCCCC"/>
		<stop  offset="1" style="stop-color:#424242"/>
	</linearGradient>
	<path style="fill:url(#XMLID_8_);stroke:#000000;stroke-width:0.25;" d="M4.299,2.25c0,0,0.634-0.559,1.746-0.79
		c1.111-0.229,1.779-0.366,2.426,0.317c0.65,0.684,3.58,7.007,4.836,10.015c0,0,1.7,3.965,0.867,5.218
		c-0.834,1.252-2.406,2.084-3.313,0.998C9.956,16.92,5.318,5.812,4.766,4.529C4.212,3.246,3.791,2.628,4.299,2.25z"/>
	
		<linearGradient id="XMLID_9_" gradientUnits="userSpaceOnUse" x1="-10.2129" y1="-44.4604" x2="-2.8037" y2="-44.4604" gradientTransform="matrix(0.9968 -0.0791 0.0791 0.9968 19.2751 51.9478)">
		<stop  offset="0" style="stop-color:#F7E855"/>
		<stop  offset="0.9831" style="stop-color:#F7B80D"/>
	</linearGradient>
	<path style="fill:url(#XMLID_9_);stroke:#000000;stroke-width:0.25;" d="M5.394,4.31c-0.245-0.63-0.457-1.147,0.623-1.432
		c1.08-0.283,2.537-0.754,2.847-0.366c0.658,0.822,3.92,7.468,4.394,9.37c0.149,0.592-0.017,0.849-0.66,0.927
		c-0.399,0.052-0.657-0.087-1.172,0.548c-0.515,0.633-1.324,0.754-1.736,0.193C8.971,12.571,5.64,4.94,5.394,4.31z"/>
	
		<linearGradient id="XMLID_10_" gradientUnits="userSpaceOnUse" x1="-17.6563" y1="-41.374" x2="-16.196" y2="-42.0479" gradientTransform="matrix(0.9023 0.0193 -0.0158 0.7697 16.3345 35.1476)">
		<stop  offset="0.0056" style="stop-color:#4F4F4F"/>
		<stop  offset="0.3202" style="stop-color:#FFFFFF"/>
		<stop  offset="0.736" style="stop-color:#CCCCCC"/>
		<stop  offset="1" style="stop-color:#424242"/>
	</linearGradient>
	<path style="fill:url(#XMLID_10_);stroke:#000000;stroke-width:0.25;" d="M0.17,1.361c0,0-0.207-0.38,0.267-0.643
		C0.559,0.65,0.553,0.653,0.863,0.523c0.208-0.087,0.625-0.075,0.866,0.396c0.235,0.454,1.492,2.938,1.492,2.938
		s0.194,0.461-0.271,0.798C2.487,4.992,2.179,5.094,1.978,4.98C1.778,4.869,0.17,1.361,0.17,1.361z"/>
	<path style="fill:#99CA22;stroke:#000000;stroke-width:0.25;stroke-linecap:round;stroke-linejoin:round;" d="M6.184,4.643
		c0,0,2.268-0.632,2.897-0.879l3.127,6.647l-2.667,1.287L6.184,4.643z"/>
</g>
</svg>
