<?xml version="1.0" encoding="iso-8859-1"?>
<!-- Generator: Adobe Illustrator 12.0.1, SVG Export Plug-In . SVG Version: 6.00 Build 51448)  -->
<!DOCTYPE svg PUBLIC "-//W3C//DTD SVG 1.1//EN" "http://www.w3.org/Graphics/SVG/1.1/DTD/svg11.dtd" [
	<!ENTITY ns_svg "http://www.w3.org/2000/svg">
	<!ENTITY ns_xlink "http://www.w3.org/1999/xlink">
]>
<svg  version="1.1" id="&#x56FE;&#x5C42;_1" xmlns="&ns_svg;" xmlns:xlink="&ns_xlink;" width="16.64" height="15.215"
	 viewBox="0 0 16.64 15.215" style="overflow:visible;enable-background:new 0 0 16.64 15.215;" xml:space="preserve">
<linearGradient id="XMLID_6_" gradientUnits="userSpaceOnUse" x1="6.1978" y1="6.5615" x2="8.1353" y2="4.624">
	<stop  offset="0.0056" style="stop-color:#D6EC09"/>
	<stop  offset="1" style="stop-color:#52AE25"/>
</linearGradient>
<polygon style="fill:url(#XMLID_6_);stroke:#060606;stroke-width:0.25;" points="10.176,3.327 8.762,3.327 8.762,4.991 7.147,4.991 
	7.147,3.327 5.732,3.327 5.732,6.282 10.176,6.282 "/>
<ellipse style="fill:#FFFFFF;" cx="7.959" cy="8.865" rx="0.453" ry="0.417"/>
<g>
	<linearGradient id="XMLID_7_" gradientUnits="userSpaceOnUse" x1="8.3267" y1="7.0415" x2="8.3267" y2="15.6463">
		<stop  offset="0.0056" style="stop-color:#D6EC09"/>
		<stop  offset="1" style="stop-color:#52AE25"/>
	</linearGradient>
	<path style="fill:url(#XMLID_7_);stroke:#060606;stroke-width:0.25;" d="M16.146,11.893c0.62,0.947-0.046,3.072-0.046,3.072
		L0.642,15.089c0,0-0.85-1.854-0.071-3.177s3.623-5.451,3.623-5.451h7.763C11.957,6.461,15.526,10.946,16.146,11.893z"/>
	<linearGradient id="XMLID_8_" gradientUnits="userSpaceOnUse" x1="6.5898" y1="10.0405" x2="10.881" y2="10.0405">
		<stop  offset="0" style="stop-color:#D6D6D6"/>
		<stop  offset="1" style="stop-color:#6B6B6B"/>
	</linearGradient>
	<path style="fill:url(#XMLID_8_);" d="M11.455,9.566C11.152,8.283,9.666,7.4,8.09,7.4S5.027,8.283,4.724,9.566
		c-0.371,1.566,1.099,3.115,3.366,3.115C10.355,12.681,11.826,11.132,11.455,9.566z M7.994,7.548c0.168,0,0.309,0.099,0.311,0.225
		C8.307,7.9,8.166,8.004,7.99,8.004S7.676,7.9,7.68,7.772C7.684,7.646,7.824,7.548,7.994,7.548z M5.212,9.69
		c-0.198,0-0.329-0.135-0.293-0.295c0.036-0.161,0.22-0.288,0.41-0.288s0.324,0.127,0.296,0.288C5.597,9.555,5.41,9.69,5.212,9.69z
		 M5.836,11.221c-0.22,0-0.371-0.165-0.338-0.363c0.032-0.195,0.229-0.347,0.439-0.347c0.209,0,0.363,0.152,0.341,0.347
		C6.255,11.056,6.057,11.221,5.836,11.221z M6.409,8.545c-0.184,0-0.314-0.113-0.293-0.252c0.021-0.135,0.18-0.242,0.355-0.242
		S6.78,8.158,6.767,8.293C6.753,8.432,6.593,8.545,6.409,8.545z M7.957,12.266c-0.234,0-0.42-0.189-0.412-0.411
		c0.007-0.222,0.195-0.397,0.418-0.397s0.408,0.176,0.412,0.397S8.191,12.266,7.957,12.266z M9.299,8.383
		C9.285,8.245,9.42,8.136,9.598,8.136c0.176,0,0.336,0.109,0.357,0.247c0.02,0.14-0.115,0.255-0.299,0.255S9.312,8.523,9.299,8.383z
		 M10.205,11.564c-0.225,0-0.426-0.174-0.447-0.378s0.137-0.365,0.35-0.365c0.215,0,0.416,0.161,0.447,0.365
		S10.43,11.564,10.205,11.564z M10.84,9.885c-0.201,0-0.387-0.137-0.416-0.304c-0.025-0.165,0.109-0.293,0.303-0.293
		s0.379,0.128,0.414,0.293C11.176,9.749,11.041,9.885,10.84,9.885z"/>
	<path style="fill:#FFFFFF;stroke:#060606;stroke-width:0.25;" d="M11.486,8.84c-0.303-1.282-1.789-2.165-3.365-2.165
		S5.059,7.559,4.755,8.84c-0.371,1.566,1.099,3.115,3.366,3.115C10.387,11.956,11.857,10.407,11.486,8.84z M8.025,6.825
		c0.168,0,0.309,0.098,0.311,0.224C8.338,7.176,8.197,7.28,8.021,7.28S7.707,7.176,7.711,7.048C7.715,6.922,7.855,6.825,8.025,6.825
		z M5.243,8.966c-0.198,0-0.329-0.137-0.293-0.298C4.986,8.51,5.17,8.382,5.36,8.382S5.685,8.51,5.656,8.668
		C5.628,8.829,5.441,8.966,5.243,8.966z M5.867,10.496c-0.22,0-0.371-0.163-0.338-0.362C5.562,9.94,5.758,9.786,5.969,9.786
		c0.209,0,0.363,0.154,0.341,0.348C6.286,10.333,6.088,10.496,5.867,10.496z M6.44,7.82c-0.184,0-0.314-0.113-0.293-0.251
		c0.021-0.137,0.18-0.243,0.355-0.243s0.309,0.106,0.295,0.243C6.784,7.708,6.624,7.82,6.44,7.82z M7.988,11.541
		c-0.234,0-0.42-0.187-0.412-0.411c0.007-0.219,0.195-0.397,0.418-0.397s0.408,0.178,0.412,0.397
		C8.41,11.354,8.223,11.541,7.988,11.541z M9.33,7.659C9.316,7.52,9.451,7.412,9.629,7.412c0.176,0,0.336,0.107,0.357,0.247
		c0.02,0.141-0.115,0.255-0.299,0.255S9.343,7.8,9.33,7.659z M10.236,10.839c-0.225,0-0.426-0.171-0.447-0.378
		c-0.021-0.202,0.137-0.365,0.35-0.365c0.215,0,0.416,0.163,0.447,0.365C10.617,10.667,10.461,10.839,10.236,10.839z M10.871,9.161
		c-0.201,0-0.387-0.137-0.416-0.305c-0.025-0.164,0.109-0.293,0.303-0.293s0.379,0.129,0.414,0.293
		C11.207,9.024,11.072,9.161,10.871,9.161z"/>
	<linearGradient id="XMLID_9_" gradientUnits="userSpaceOnUse" x1="8.3198" y1="0.7681" x2="8.3198" y2="5.3556">
		<stop  offset="0.0056" style="stop-color:#D6EC09"/>
		<stop  offset="1" style="stop-color:#52AE25"/>
	</linearGradient>
	<path style="fill:url(#XMLID_9_);stroke:#060606;stroke-width:0.25;" d="M12.555,0.125L3.585,0.216
		c-3.714,0.367-3.623,5.004-3.339,5.695c0.667,1.623,3.6,1.776,4.296,0.299C4.81,5.642,4.908,4.9,4.746,4.012
		c-0.133-0.732,6.822-0.736,6.785,0.029c-0.043,0.838,0.041,1.688,0.256,2.102c0.918,1.761,3.533,0.673,4.043,0.372
		C17.08,5.772,16.955,0.351,12.555,0.125z"/>
</g>
<linearGradient id="XMLID_10_" gradientUnits="userSpaceOnUse" x1="8.3633" y1="3.1973" x2="8.3633" y2="6.0995">
	<stop  offset="0" style="stop-color:#D6D6D6"/>
	<stop  offset="1" style="stop-color:#6B6B6B"/>
</linearGradient>
<path style="opacity:0.67;fill:url(#XMLID_10_);" d="M16.475,4.66c0,0-1.875,2.37-3.313,1.025c-0.531-0.497-0.338-1.98-0.447-2.275
	c-0.016-0.04-0.491-0.695-0.531-0.612L4.142,2.839C3.769,2.756,3.139,3.469,3.116,3.531C3.006,3.826,3.584,5.762,3.053,6.259
	C1.616,7.603,0.209,5.407,0.209,5.407S0.35,6.989,2.053,7.249c0.542,0.083,3.421,0.313,2.718-3.284l0.971-0.417h4.953l0.686,0.244
	c0.016,3.597,2.299,3.419,2.84,3.319C17.021,6.589,16.475,4.66,16.475,4.66z"/>
</svg>
