<?xml version="1.0" encoding="iso-8859-1"?>
<!-- Generator: Adobe Illustrator 12.0.1, SVG Export Plug-In . SVG Version: 6.00 Build 51448)  -->
<!DOCTYPE svg PUBLIC "-//W3C//DTD SVG 1.1//EN" "http://www.w3.org/Graphics/SVG/1.1/DTD/svg11.dtd" [
	<!ENTITY ns_svg "http://www.w3.org/2000/svg">
	<!ENTITY ns_xlink "http://www.w3.org/1999/xlink">
]>
<svg  version="1.1" id="&#x56FE;&#x5C42;_1" xmlns="&ns_svg;" xmlns:xlink="&ns_xlink;" width="14.476" height="15.597"
	 viewBox="0 0 14.476 15.597" style="overflow:visible;enable-background:new 0 0 14.476 15.597;" xml:space="preserve">
<g>
	
		<linearGradient id="XMLID_5_" gradientUnits="userSpaceOnUse" x1="9.541" y1="1.1416" x2="9.3594" y2="9.7755" gradientTransform="matrix(0.9997 0.0255 -0.0255 0.9997 0.5256 -0.0748)">
		<stop  offset="0" style="stop-color:#DEB824"/>
		<stop  offset="0.1515" style="stop-color:#E1AC21"/>
		<stop  offset="0.4248" style="stop-color:#E88C18"/>
		<stop  offset="0.7862" style="stop-color:#F35909"/>
		<stop  offset="1" style="stop-color:#FA3800"/>
	</linearGradient>
	<polygon style="fill:url(#XMLID_5_);stroke:#000000;stroke-width:0.5;stroke-linejoin:round;" points="5.555,5.208 10.591,0.25 
		10.508,3.522 14.226,3.617 14.022,7.016 10.423,6.83 10.342,10.008 	"/>
	
		<linearGradient id="XMLID_6_" gradientUnits="userSpaceOnUse" x1="-32.9253" y1="7.0625" x2="-32.9253" y2="2.0089" gradientTransform="matrix(-0.9997 -0.0255 -0.0255 0.9997 -22.9149 -0.4674)">
		<stop  offset="0" style="stop-color:#FFE02C"/>
		<stop  offset="0.1336" style="stop-color:#FFD428"/>
		<stop  offset="0.3747" style="stop-color:#FFB41F"/>
		<stop  offset="0.6931" style="stop-color:#FF8110"/>
		<stop  offset="1" style="stop-color:#FF4A00"/>
	</linearGradient>
	<polygon style="fill:url(#XMLID_6_);" points="6.56,5.234 10.058,1.792 9.999,4.064 13.22,4.188 13.089,6.212 9.974,6.093 
		9.885,8.567 	"/>
	
		<linearGradient id="XMLID_7_" gradientUnits="userSpaceOnUse" x1="4.374" y1="6.6143" x2="4.1924" y2="15.2481" gradientTransform="matrix(0.9997 0.0255 -0.0255 0.9997 0.5256 -0.0748)">
		<stop  offset="0" style="stop-color:#B7DD0F"/>
		<stop  offset="0.9775" style="stop-color:#6FB81F"/>
	</linearGradient>
	<polygon style="fill:url(#XMLID_7_);stroke:#1D2100;stroke-width:0.5;stroke-linejoin:round;" points="0.25,10.547 5.286,5.589 
		5.203,8.861 8.92,8.956 8.718,12.354 5.118,12.169 5.037,15.347 	"/>
	
		<linearGradient id="XMLID_8_" gradientUnits="userSpaceOnUse" x1="-27.7607" y1="12.5361" x2="-27.7607" y2="7.481" gradientTransform="matrix(-0.9997 -0.0255 -0.0255 0.9997 -22.9149 -0.4674)">
		<stop  offset="0" style="stop-color:#B7DD0F"/>
		<stop  offset="0.9775" style="stop-color:#42A22F"/>
	</linearGradient>
	<polygon style="fill:url(#XMLID_8_);" points="1.255,10.574 4.753,7.131 4.694,9.403 7.916,9.527 7.784,11.552 4.669,11.432 
		4.58,13.907 	"/>
</g>
</svg>
