<?xml version="1.0" encoding="iso-8859-1"?>
<!-- Generator: Adobe Illustrator 12.0.1, SVG Export Plug-In . SVG Version: 6.00 Build 51448)  -->
<!DOCTYPE svg PUBLIC "-//W3C//DTD SVG 1.1//EN" "http://www.w3.org/Graphics/SVG/1.1/DTD/svg11.dtd" [
	<!ENTITY ns_svg "http://www.w3.org/2000/svg">
	<!ENTITY ns_xlink "http://www.w3.org/1999/xlink">
]>
<svg  version="1.1" id="&#x56FE;&#x5C42;_1" xmlns="&ns_svg;" xmlns:xlink="&ns_xlink;" width="16.432" height="16.417"
	 viewBox="0 0 16.432 16.417" style="overflow:visible;enable-background:new 0 0 16.432 16.417;" xml:space="preserve">
<rect x="0.015" style="fill:none;" width="16.417" height="16.417"/>
<g>
	<g>
		<path style="fill:#FF6300;" d="M15.813,3.138c-0.005-0.156-0.138-0.287-0.293-0.291L6.539,2.62
			c-0.155-0.004-0.192,0.082-0.08,0.191L9.464,5.75c0.112,0.109,0.113,0.289,0.003,0.399l-1.935,1.94c-0.11,0.11-0.29,0.111-0.401,0
			L3.482,4.451c-0.111-0.11-0.291-0.11-0.401,0L0.332,7.209C0.222,7.32,0.223,7.5,0.333,7.61l6.81,6.788
			c0.11,0.11,0.291,0.11,0.401,0l5.112-5.128c0.11-0.11,0.291-0.111,0.403-0.002l2.874,2.811c0.112,0.109,0.198,0.071,0.193-0.085
			L15.813,3.138z"/>
		<path style="fill:none;stroke:#000000;stroke-width:0.5;" d="M15.813,3.138c-0.005-0.156-0.138-0.287-0.293-0.291L6.539,2.62
			c-0.155-0.004-0.192,0.082-0.08,0.191L9.464,5.75c0.112,0.109,0.113,0.289,0.003,0.399l-1.935,1.94c-0.11,0.11-0.29,0.111-0.401,0
			L3.482,4.451c-0.111-0.11-0.291-0.11-0.401,0L0.332,7.209C0.222,7.32,0.223,7.5,0.333,7.61l6.81,6.788
			c0.11,0.11,0.291,0.11,0.401,0l5.112-5.128c0.11-0.11,0.291-0.111,0.403-0.002l2.874,2.811c0.112,0.109,0.198,0.071,0.193-0.085
			L15.813,3.138z"/>
	</g>
	<path style="opacity:0.38;fill:#FFFFFF;" d="M15.563,2.776l-9.07-0.23c-0.13-0.002-0.202,0.124-0.11,0.216L9.618,6.01L7.5,8.048
		c-0.092,0.091-0.244,0.092-0.335,0L3.45,4.345C3.356,4.253,3.204,4.253,3.113,4.344L0.299,7.167
		C0.207,7.259,0.207,7.41,0.301,7.505l7.066,6.786l5.459-5.327l3.146,2.916l-0.135-8.903C15.838,2.976,15.679,2.778,15.563,2.776z
		 M14.984,9.836l-2.166-2.047l-5.553,5.438l-5.818-5.8l1.492-1.495c0.091-0.093,0.243-0.093,0.336,0L6.99,9.637
		c0.093,0.091,0.245,0.09,0.336-0.003l3.54-3.608L8.497,3.645l6.41,0.057L14.984,9.836z"/>
</g>
</svg>
