<?xml version="1.0" encoding="iso-8859-1"?>
<!-- Generator: Adobe Illustrator 12.0.0, SVG Export Plug-In . SVG Version: 6.00 Build 51448)  -->
<!DOCTYPE svg PUBLIC "-//W3C//DTD SVG 1.1//EN" "http://www.w3.org/Graphics/SVG/1.1/DTD/svg11.dtd" [
	<!ENTITY ns_svg "http://www.w3.org/2000/svg">
	<!ENTITY ns_xlink "http://www.w3.org/1999/xlink">
]>
<svg  version="1.1" id="&#xCD;_xBC__xB2_&#xE3;_x5F_1" xmlns="&ns_svg;" xmlns:xlink="&ns_xlink;" width="12.168" height="12.168"
	 viewBox="0 0 12.168 12.168" style="overflow:visible;enable-background:new 0 0 12.168 12.168;" xml:space="preserve">
<g>
	<g style="opacity:0.61;">
		<path d="M2.724,1.812c-2.517,2.013-2.925,5.683-0.912,8.2s5.683,2.925,8.199,0.913c2.517-2.013,2.925-5.683,0.912-8.2
			S5.241-0.2,2.724,1.812z M3.87,3.244c1.43-1.144,3.396-1.131,4.816-0.115L2.698,7.917C2.02,6.31,2.439,4.388,3.87,3.244z
			 M8.866,9.492c-1.43,1.144-3.396,1.131-4.816,0.115l5.988-4.788C10.715,6.427,10.296,8.347,8.866,9.492z"/>
		<path style="fill:none;stroke:#000000;stroke-width:0.5;" d="M2.724,1.812c-2.517,2.013-2.925,5.683-0.912,8.2
			s5.683,2.925,8.199,0.913c2.517-2.013,2.925-5.683,0.912-8.2S5.241-0.2,2.724,1.812z M3.87,3.244
			c1.43-1.144,3.396-1.131,4.816-0.115L2.698,7.917C2.02,6.31,2.439,4.388,3.87,3.244z M8.866,9.492
			c-1.43,1.144-3.396,1.131-4.816,0.115l5.988-4.788C10.715,6.427,10.296,8.347,8.866,9.492z"/>
	</g>
	<g>
		<path style="fill:#EA2D2E;" d="M2.44,1.528c-2.517,2.013-2.925,5.684-0.912,8.2s5.683,2.925,8.199,0.913
			c2.517-2.013,2.925-5.684,0.912-8.2S4.957-0.484,2.44,1.528z M3.586,2.96c1.43-1.144,3.396-1.131,4.816-0.115L2.414,7.633
			C1.736,6.026,2.155,4.104,3.586,2.96z M8.582,9.208c-1.43,1.144-3.396,1.131-4.816,0.115l5.988-4.788
			C10.432,6.143,10.013,8.064,8.582,9.208z"/>
		<path style="fill:none;stroke:#000000;stroke-width:0.5;" d="M2.44,1.528c-2.517,2.013-2.925,5.684-0.912,8.2
			s5.683,2.925,8.199,0.913c2.517-2.013,2.925-5.684,0.912-8.2S4.957-0.484,2.44,1.528z M3.586,2.96
			c1.43-1.144,3.396-1.131,4.816-0.115L2.414,7.633C1.736,6.026,2.155,4.104,3.586,2.96z M8.582,9.208
			c-1.43,1.144-3.396,1.131-4.816,0.115l5.988-4.788C10.432,6.143,10.013,8.064,8.582,9.208z"/>
	</g>
</g>
</svg>
