<?xml version="1.0" encoding="iso-8859-1"?>
<!-- Generator: Adobe Illustrator 12.0.1, SVG Export Plug-In . SVG Version: 6.00 Build 51448)  -->
<!DOCTYPE svg PUBLIC "-//W3C//DTD SVG 1.1//EN" "http://www.w3.org/Graphics/SVG/1.1/DTD/svg11.dtd" [
	<!ENTITY ns_svg "http://www.w3.org/2000/svg">
	<!ENTITY ns_xlink "http://www.w3.org/1999/xlink">
]>
<svg  version="1.1" xmlns="&ns_svg;" xmlns:xlink="&ns_xlink;" width="14.507" height="14.459" viewBox="0 0 14.507 14.459"
	 style="overflow:visible;enable-background:new 0 0 14.507 14.459;" xml:space="preserve">
<g id="&#x56FE;&#x5C42;_2">
</g>
<g id="&#x56FE;&#x5C42;_1">
	<g>
		
			<ellipse transform="matrix(0.7235 0.6904 -0.6904 0.7235 8.7474 -5.327)" style="fill:#565656;stroke:#000000;stroke-width:0.25;" cx="11.023" cy="8.255" rx="3.416" ry="1"/>
		
			<ellipse transform="matrix(0.7234 -0.6904 0.6904 0.7234 -4.9042 4.1217)" style="fill:#565656;stroke:#000000;stroke-width:0.25;" cx="2.692" cy="8.181" rx="3.416" ry="1.001"/>
		<polygon style="fill:#3F3F3F;stroke:#000000;stroke-width:0.25;" points="7.289,9.001 6.154,9.029 6.575,6.75 7.113,6.75 		"/>
		<path style="fill:#565656;stroke:#000000;stroke-width:0.25;" d="M6.544,9.227c0,0,2.165-2.655,2.055-3.601
			c2.342,1.335,3.343,6.56,2.742,7.749c-0.615,1.207-4.888,0.932-4.888,0.932L6.544,9.227z"/>
		<path style="fill:#565656;stroke:#000000;stroke-width:0.25;" d="M7.239,9.168c0,0-2.165-2.655-2.056-3.601
			c-2.341,1.335-3.344,6.559-2.74,7.75c0.613,1.207,4.887,0.932,4.887,0.932L7.239,9.168z"/>
		<path style="fill:#565656;stroke:#000000;stroke-width:0.25;" d="M8.717,5.816c0.019,0.037,0.567,1.63,0.567,1.63l-0.751,0.2
			L8.404,8.58L6.947,8.938C6.947,8.938,8.33,7.025,8.717,5.816z"/>
		<path style="fill:#565656;stroke:#000000;stroke-width:0.25;" d="M5.032,5.875c-0.018,0.038-0.566,1.63-0.566,1.63l0.75,0.201
			l0.128,0.934l1.701,0.567C7.045,9.206,5.418,7.084,5.032,5.875z"/>
		<ellipse style="fill:#FFFFFF;stroke:#7F7F7F;stroke-width:0.25;" cx="6.923" cy="10.365" rx="0.203" ry="0.192"/>
		<ellipse style="fill:#FFFFFF;stroke:#7F7F7F;stroke-width:0.25;" cx="6.923" cy="12.231" rx="0.219" ry="0.191"/>
		<polygon style="fill:#3F3F3F;stroke:#000000;stroke-width:0.25;" points="7.087,6.705 6.593,6.705 6.466,6.127 7.197,6.127 		"/>
		<radialGradient id="XMLID_2_" cx="5.7871" cy="1.4429" r="4.4266" gradientUnits="userSpaceOnUse">
			<stop  offset="0.0056" style="stop-color:#F3ECC4"/>
			<stop  offset="0.1012" style="stop-color:#F4E8B0"/>
			<stop  offset="0.2301" style="stop-color:#F5E49B"/>
			<stop  offset="0.3146" style="stop-color:#F5E393"/>
			<stop  offset="0.4233" style="stop-color:#F2D982"/>
			<stop  offset="0.6624" style="stop-color:#EBC562"/>
			<stop  offset="0.8632" style="stop-color:#E7B94E"/>
			<stop  offset="1" style="stop-color:#E6B547"/>
		</radialGradient>
		<circle style="fill:url(#XMLID_2_);stroke:#000000;stroke-width:0.25;" cx="7.082" cy="3.126" r="3.001"/>
	</g>
	<g>
		<path style="fill:#EBF0EB;stroke:#3D4A40;stroke-width:0.5;" d="M11.77,11.193H9.36v-0.329c0-0.56,0.047-1.013,0.142-1.363
			c0.091-0.349,0.229-0.667,0.412-0.957c0.186-0.289,0.598-0.795,1.234-1.524c0.344-0.381,0.515-0.73,0.515-1.047
			c0-0.318-0.069-0.565-0.205-0.741c-0.137-0.175-0.345-0.262-0.623-0.262c-0.299,0-0.543,0.134-0.741,0.405
			C9.897,5.645,9.774,6.117,9.719,6.79L7.257,6.375C7.344,5.142,7.673,4.15,8.244,3.399c0.57-0.752,1.449-1.129,2.632-1.129
			c0.919,0,1.662,0.263,2.229,0.788c0.768,0.71,1.151,1.657,1.151,2.839c0,0.492-0.098,0.964-0.297,1.419
			c-0.198,0.457-0.604,1.013-1.217,1.671c-0.424,0.462-0.694,0.833-0.806,1.111C11.825,10.377,11.77,10.744,11.77,11.193z"/>
		<rect x="9.414" y="11.977" style="fill:#EBF0EB;stroke:#3D4A40;stroke-width:0.5;" width="2.578" height="2.128"/>
	</g>
</g>
</svg>
