<?xml version="1.0" encoding="iso-8859-1"?>
<!-- Generator: Adobe Illustrator 12.0.1, SVG Export Plug-In . SVG Version: 6.00 Build 51448)  -->
<!DOCTYPE svg PUBLIC "-//W3C//DTD SVG 1.1//EN" "http://www.w3.org/Graphics/SVG/1.1/DTD/svg11.dtd" [
	<!ENTITY ns_svg "http://www.w3.org/2000/svg">
	<!ENTITY ns_xlink "http://www.w3.org/1999/xlink">
]>
<svg  version="1.1" id="&#x56FE;&#x5C42;_1" xmlns="&ns_svg;" xmlns:xlink="&ns_xlink;" width="13.91" height="15.822"
	 viewBox="0 0 13.91 15.822" style="overflow:visible;enable-background:new 0 0 13.91 15.822;" xml:space="preserve">
<g>
	<path style="fill:#94CD17;stroke:#000000;stroke-width:0.25;" d="M4.333,0.142c0,0-2.584-0.333-3.833,2c0,0-0.638,1.105-0.25,3.042
		c0.542,2.708,5.167,8.708,7.167,9.75c1.312,0.684,2.566,1.044,4.124,0.5c1.791-0.625,2.24-2.073,2.24-2.073s-0.688-3-3.864-3.468
		c-1.636,0.999-1.959,2.124-1.959,2.124S2.076,5.484,3.333,5.642c2,0.25,2.875-1.083,2.875-1.083S6.167,1.309,4.333,0.142z"/>
	<path style="opacity:0.61;fill:#025F02;enable-background:new    ;" d="M3.333,5.642c2,0.25,2.875-1.083,2.875-1.083
		s0.043-3.166-1.791-4.333c0,0-0.593-0.096-1.042-0.053c2.656,1.563,1.906,4.094,1.906,4.094s-0.999,0.906-3,0.656
		c-1.257-0.157,5.188,7.375,5.188,7.375l0.625,0.031C6.535,10.547,2.368,5.521,3.333,5.642z M9.813,10.048
		c2.625,1.469,2.813,2.146,2.813,2.938s-0.251,1.699-2.042,2.324c-0.649,0.228-1.387,0.128-1.958,0.082
		c0.889,0.28,1.978,0.576,3,0.126c1.042-0.459,2.32-1.753,2.156-2.157C12.313,9.735,9.813,10.048,9.813,10.048z"/>
</g>
</svg>
