<?xml version="1.0" encoding="iso-8859-1"?>
<!-- Generator: Adobe Illustrator 12.0.0, SVG Export Plug-In . SVG Version: 6.00 Build 51448)  -->
<!DOCTYPE svg PUBLIC "-//W3C//DTD SVG 1.1//EN" "http://www.w3.org/Graphics/SVG/1.1/DTD/svg11.dtd" [
	<!ENTITY ns_svg "http://www.w3.org/2000/svg">
	<!ENTITY ns_xlink "http://www.w3.org/1999/xlink">
]>
<svg  version="1.1" id="&#xCD;_xBC__xB2_&#xE3;_x5F_1" xmlns="&ns_svg;" xmlns:xlink="&ns_xlink;" width="11.308" height="10.809"
	 viewBox="0 0 11.308 10.809" style="overflow:visible;enable-background:new 0 0 11.308 10.809;" xml:space="preserve">
<g>
	<path style="fill:#FFFFFF;stroke:#000000;stroke-width:0.25;" d="M6.395,9.775c-0.844,0.979-5.229,0.554-6.104-0.053
		c-0.338-0.234,0.198-4.43,1.569-5.431c1.02-0.745,2.037-0.643,2.901-0.053C6.052,5.121,6.671,9.455,6.395,9.775z"/>
	<polygon style="fill:#AF3143;" points="3.521,6.519 2.703,6.539 3.006,4.897 3.396,4.897 	"/>
	<path style="fill:#AF3143;" d="M3.037,6.769c0,0-0.961-2.014-0.914-2.602c-1.652,1.02-2.672,4.83-1.811,5.555
		c0.505,0.425,3.015,0.606,3.015,0.606L3.037,6.769z"/>
	<path style="fill:#AF3143;" d="M2.984,6.682c0,0,1.56-1.912,1.481-2.594C6.152,5.05,6.874,8.813,6.438,9.67
		c-0.442,0.869-3.52,0.672-3.52,0.672L2.984,6.682z"/>
	<radialGradient id="XMLID_3_" cx="2.4399" cy="1.0737" r="3.1885" gradientUnits="userSpaceOnUse">
		<stop  offset="0.0056" style="stop-color:#F5EACE"/>
		<stop  offset="0.0796" style="stop-color:#F8E6BF"/>
		<stop  offset="0.1842" style="stop-color:#F9E1AE"/>
		<stop  offset="0.2528" style="stop-color:#FAE0A7"/>
		<stop  offset="0.563" style="stop-color:#E3C382"/>
		<stop  offset="0.823" style="stop-color:#D6B36E"/>
		<stop  offset="1" style="stop-color:#D2AD67"/>
	</radialGradient>
	<circle style="fill:url(#XMLID_3_);stroke:#000000;stroke-width:0.25;" cx="3.372" cy="2.287" r="2.162"/>
	<path style="fill:#CA324B;" d="M4.549,4.225c0.013,0.026,0.409,1.173,0.409,1.173L4.417,5.543L4.325,6.215L3.099,6.625
		C3.099,6.625,4.272,5.095,4.549,4.225z"/>
	<path style="fill:#CA324B;" d="M2.084,4.146C2.065,4.169,1.462,5.171,1.462,5.171l0.501,0.248l-0.04,0.678l0.99,0.508
		C2.914,6.604,2.186,5.053,2.084,4.146z"/>
	<ellipse style="fill:#FFFFFF;stroke:#888F95;stroke-width:0.25;" cx="3.257" cy="7.5" rx="0.145" ry="0.139"/>
	<ellipse style="fill:#FFFFFF;stroke:#888F95;stroke-width:0.25;" cx="3.257" cy="8.846" rx="0.158" ry="0.138"/>
	<polygon style="fill:#AF3143;" points="3.375,4.864 3.02,4.864 2.928,4.449 3.455,4.449 	"/>
	<path style="fill:#FFFFFF;stroke:#000000;stroke-width:0.25;" d="M11.014,10.097c-0.844,0.979-5.229,0.554-6.104-0.052
		c-0.338-0.234,0.198-4.43,1.569-5.432c1.02-0.745,2.037-0.643,2.9-0.052C10.672,5.444,11.292,9.776,11.014,10.097z"/>
	<polygon style="fill:#505859;stroke:#000000;stroke-width:0.25;" points="8.141,6.841 7.323,6.861 7.626,5.219 8.016,5.219 	"/>
	<path style="fill:#8A9197;stroke:#000000;stroke-width:0.25;" d="M7.657,7.091c0,0-0.961-2.014-0.914-2.602
		c-1.652,1.02-2.671,4.83-1.811,5.556c0.505,0.424,3.015,0.605,3.015,0.605L7.657,7.091z"/>
	<path style="fill:#656D70;stroke:#000000;stroke-width:0.25;" d="M7.604,7.004c0,0,1.56-1.912,1.481-2.594
		c1.687,0.962,2.408,4.725,1.973,5.583c-0.442,0.869-3.52,0.672-3.52,0.672L7.604,7.004z"/>
	<radialGradient id="XMLID_4_" cx="7.0591" cy="1.3965" r="3.1885" gradientUnits="userSpaceOnUse">
		<stop  offset="0.0056" style="stop-color:#F5EACE"/>
		<stop  offset="0.0796" style="stop-color:#F8E6BF"/>
		<stop  offset="0.1842" style="stop-color:#F9E1AE"/>
		<stop  offset="0.2528" style="stop-color:#FAE0A7"/>
		<stop  offset="0.563" style="stop-color:#E3C382"/>
		<stop  offset="0.823" style="stop-color:#D6B36E"/>
		<stop  offset="1" style="stop-color:#D2AD67"/>
	</radialGradient>
	<circle style="fill:url(#XMLID_4_);stroke:#000000;stroke-width:0.25;" cx="7.991" cy="2.609" r="2.162"/>
	<path style="fill:#656D70;stroke:#000000;stroke-width:0.25;" d="M9.169,4.547C9.182,4.574,9.578,5.72,9.578,5.72L9.037,5.865
		L8.944,6.538L7.719,6.946C7.719,6.946,8.892,5.417,9.169,4.547z"/>
	<path style="fill:#8A9197;stroke:#000000;stroke-width:0.25;" d="M6.703,4.468C6.686,4.492,6.083,5.493,6.083,5.493l0.501,0.248
		l-0.04,0.678l0.99,0.508C7.534,6.927,6.806,5.376,6.703,4.468z"/>
	<ellipse style="fill:#FFFFFF;stroke:#888F95;stroke-width:0.25;" cx="7.877" cy="7.823" rx="0.145" ry="0.139"/>
	<ellipse style="fill:#FFFFFF;stroke:#888F95;stroke-width:0.25;" cx="7.877" cy="9.168" rx="0.158" ry="0.138"/>
	<polygon style="fill:#505859;stroke:#000000;stroke-width:0.25;" points="7.996,5.187 7.64,5.187 7.548,4.771 8.075,4.771 	"/>
</g>
</svg>
