<?xml version="1.0" encoding="iso-8859-1"?>
<!-- Generator: Adobe Illustrator 12.0.1, SVG Export Plug-In . SVG Version: 6.00 Build 51448)  -->
<!DOCTYPE svg PUBLIC "-//W3C//DTD SVG 1.1//EN" "http://www.w3.org/Graphics/SVG/1.1/DTD/svg11.dtd" [
	<!ENTITY ns_svg "http://www.w3.org/2000/svg">
	<!ENTITY ns_xlink "http://www.w3.org/1999/xlink">
]>
<svg  version="1.1" id="&#x56FE;&#x5C42;_1" xmlns="&ns_svg;" xmlns:xlink="&ns_xlink;" width="13.082" height="14.239"
	 viewBox="0 0 13.082 14.239" style="overflow:visible;enable-background:new 0 0 13.082 14.239;" xml:space="preserve">
<g>
	<radialGradient id="XMLID_14_" cx="1.5947" cy="1.125" r="2.3509" gradientUnits="userSpaceOnUse">
		<stop  offset="0" style="stop-color:#FFFFFF"/>
		<stop  offset="0.1424" style="stop-color:#E6E6E6"/>
		<stop  offset="0.4462" style="stop-color:#A5A5A5"/>
		<stop  offset="0.7697" style="stop-color:#595959"/>
	</radialGradient>
	<path style="fill:url(#XMLID_14_);" d="M3.564,2.998c0,0.312-0.255,0.567-0.567,0.567H0.942c-0.313,0-0.567-0.255-0.567-0.567
		V0.942c0-0.312,0.255-0.567,0.567-0.567h2.055c0.313,0,0.567,0.255,0.567,0.567V2.998z"/>
	<path style="fill:none;stroke:#000000;stroke-width:0.75;" d="M3.564,2.998c0,0.312-0.255,0.567-0.567,0.567H0.942
		c-0.313,0-0.567-0.255-0.567-0.567V0.942c0-0.312,0.255-0.567,0.567-0.567h2.055c0.313,0,0.567,0.255,0.567,0.567V2.998z"/>
</g>
<g>
	<radialGradient id="XMLID_15_" cx="5.2676" cy="1.125" r="2.3514" gradientUnits="userSpaceOnUse">
		<stop  offset="0" style="stop-color:#FFFFFF"/>
		<stop  offset="0.1424" style="stop-color:#E6E6E6"/>
		<stop  offset="0.4462" style="stop-color:#A5A5A5"/>
		<stop  offset="0.7697" style="stop-color:#595959"/>
	</radialGradient>
	<path style="fill:url(#XMLID_15_);" d="M7.238,2.998c0,0.312-0.255,0.567-0.567,0.567H4.615c-0.313,0-0.567-0.255-0.567-0.567
		V0.942c0-0.312,0.255-0.567,0.567-0.567h2.056c0.313,0,0.567,0.255,0.567,0.567V2.998z"/>
	<path style="fill:none;stroke:#000000;stroke-width:0.75;" d="M7.238,2.998c0,0.312-0.255,0.567-0.567,0.567H4.615
		c-0.313,0-0.567-0.255-0.567-0.567V0.942c0-0.312,0.255-0.567,0.567-0.567h2.056c0.313,0,0.567,0.255,0.567,0.567V2.998z"/>
</g>
<g>
	<radialGradient id="XMLID_16_" cx="8.6514" cy="1.125" r="2.3509" gradientUnits="userSpaceOnUse">
		<stop  offset="0" style="stop-color:#FFFFFF"/>
		<stop  offset="0.1424" style="stop-color:#E6E6E6"/>
		<stop  offset="0.4462" style="stop-color:#A5A5A5"/>
		<stop  offset="0.7697" style="stop-color:#595959"/>
	</radialGradient>
	<path style="fill:url(#XMLID_16_);" d="M10.621,2.998c0,0.312-0.255,0.567-0.567,0.567H7.999c-0.313,0-0.567-0.255-0.567-0.567
		V0.942c0-0.312,0.255-0.567,0.567-0.567h2.055c0.313,0,0.567,0.255,0.567,0.567V2.998z"/>
	<path style="fill:none;stroke:#000000;stroke-width:0.75;" d="M10.621,2.998c0,0.312-0.255,0.567-0.567,0.567H7.999
		c-0.313,0-0.567-0.255-0.567-0.567V0.942c0-0.312,0.255-0.567,0.567-0.567h2.055c0.313,0,0.567,0.255,0.567,0.567V2.998z"/>
</g>
<g>
	<radialGradient id="XMLID_17_" cx="1.5947" cy="4.6528" r="2.3509" gradientUnits="userSpaceOnUse">
		<stop  offset="0" style="stop-color:#FFFFFF"/>
		<stop  offset="0.1424" style="stop-color:#E6E6E6"/>
		<stop  offset="0.4462" style="stop-color:#A5A5A5"/>
		<stop  offset="0.7697" style="stop-color:#595959"/>
	</radialGradient>
	<path style="fill:url(#XMLID_17_);" d="M3.564,6.525c0,0.312-0.255,0.567-0.567,0.567H0.942c-0.313,0-0.567-0.255-0.567-0.567V4.47
		c0-0.312,0.255-0.567,0.567-0.567h2.055c0.313,0,0.567,0.255,0.567,0.567V6.525z"/>
	<path style="fill:none;stroke:#000000;stroke-width:0.75;" d="M3.564,6.525c0,0.312-0.255,0.567-0.567,0.567H0.942
		c-0.313,0-0.567-0.255-0.567-0.567V4.47c0-0.312,0.255-0.567,0.567-0.567h2.055c0.313,0,0.567,0.255,0.567,0.567V6.525z"/>
</g>
<g>
	<radialGradient id="XMLID_18_" cx="5.2676" cy="4.6528" r="2.3514" gradientUnits="userSpaceOnUse">
		<stop  offset="0" style="stop-color:#FFFFFF"/>
		<stop  offset="0.1424" style="stop-color:#E6E6E6"/>
		<stop  offset="0.4462" style="stop-color:#A5A5A5"/>
		<stop  offset="0.7697" style="stop-color:#595959"/>
	</radialGradient>
	<path style="fill:url(#XMLID_18_);" d="M7.238,6.525c0,0.312-0.255,0.567-0.567,0.567H4.615c-0.313,0-0.567-0.255-0.567-0.567V4.47
		c0-0.312,0.255-0.567,0.567-0.567h2.056c0.313,0,0.567,0.255,0.567,0.567V6.525z"/>
	<path style="fill:none;stroke:#000000;stroke-width:0.75;" d="M7.238,6.525c0,0.312-0.255,0.567-0.567,0.567H4.615
		c-0.313,0-0.567-0.255-0.567-0.567V4.47c0-0.312,0.255-0.567,0.567-0.567h2.056c0.313,0,0.567,0.255,0.567,0.567V6.525z"/>
</g>
<g>
	<radialGradient id="XMLID_19_" cx="8.6514" cy="4.6528" r="2.3509" gradientUnits="userSpaceOnUse">
		<stop  offset="0" style="stop-color:#FFFFFF"/>
		<stop  offset="0.1424" style="stop-color:#E6E6E6"/>
		<stop  offset="0.4462" style="stop-color:#A5A5A5"/>
		<stop  offset="0.7697" style="stop-color:#595959"/>
	</radialGradient>
	<path style="fill:url(#XMLID_19_);" d="M10.621,6.525c0,0.312-0.255,0.567-0.567,0.567H7.999c-0.313,0-0.567-0.255-0.567-0.567
		V4.47c0-0.312,0.255-0.567,0.567-0.567h2.055c0.313,0,0.567,0.255,0.567,0.567V6.525z"/>
	<path style="fill:none;stroke:#000000;stroke-width:0.75;" d="M10.621,6.525c0,0.312-0.255,0.567-0.567,0.567H7.999
		c-0.313,0-0.567-0.255-0.567-0.567V4.47c0-0.312,0.255-0.567,0.567-0.567h2.055c0.313,0,0.567,0.255,0.567,0.567V6.525z"/>
</g>
<g>
	<radialGradient id="XMLID_20_" cx="1.5947" cy="7.8423" r="2.3509" gradientUnits="userSpaceOnUse">
		<stop  offset="0" style="stop-color:#FFFFFF"/>
		<stop  offset="0.1424" style="stop-color:#E6E6E6"/>
		<stop  offset="0.4462" style="stop-color:#A5A5A5"/>
		<stop  offset="0.7697" style="stop-color:#595959"/>
	</radialGradient>
	<path style="fill:url(#XMLID_20_);" d="M3.564,9.715c0,0.312-0.255,0.567-0.567,0.567H0.942c-0.313,0-0.567-0.255-0.567-0.567
		V7.659c0-0.312,0.255-0.567,0.567-0.567h2.055c0.313,0,0.567,0.255,0.567,0.567V9.715z"/>
	<path style="fill:none;stroke:#000000;stroke-width:0.75;" d="M3.564,9.715c0,0.312-0.255,0.567-0.567,0.567H0.942
		c-0.313,0-0.567-0.255-0.567-0.567V7.659c0-0.312,0.255-0.567,0.567-0.567h2.055c0.313,0,0.567,0.255,0.567,0.567V9.715z"/>
</g>
<g>
	<radialGradient id="XMLID_21_" cx="5.2676" cy="7.8423" r="2.3514" gradientUnits="userSpaceOnUse">
		<stop  offset="0" style="stop-color:#FFFFFF"/>
		<stop  offset="0.1424" style="stop-color:#E6E6E6"/>
		<stop  offset="0.4462" style="stop-color:#A5A5A5"/>
		<stop  offset="0.7697" style="stop-color:#595959"/>
	</radialGradient>
	<path style="fill:url(#XMLID_21_);" d="M7.238,9.715c0,0.312-0.255,0.567-0.567,0.567H4.615c-0.313,0-0.567-0.255-0.567-0.567
		V7.659c0-0.312,0.255-0.567,0.567-0.567h2.056c0.313,0,0.567,0.255,0.567,0.567V9.715z"/>
	<path style="fill:none;stroke:#000000;stroke-width:0.75;" d="M7.238,9.715c0,0.312-0.255,0.567-0.567,0.567H4.615
		c-0.313,0-0.567-0.255-0.567-0.567V7.659c0-0.312,0.255-0.567,0.567-0.567h2.056c0.313,0,0.567,0.255,0.567,0.567V9.715z"/>
</g>
<g>
	<radialGradient id="XMLID_22_" cx="8.6514" cy="7.8423" r="2.3509" gradientUnits="userSpaceOnUse">
		<stop  offset="0" style="stop-color:#FFFFFF"/>
		<stop  offset="0.1424" style="stop-color:#E6E6E6"/>
		<stop  offset="0.4462" style="stop-color:#A5A5A5"/>
		<stop  offset="0.7697" style="stop-color:#595959"/>
	</radialGradient>
	<path style="fill:url(#XMLID_22_);" d="M10.621,9.715c0,0.312-0.255,0.567-0.567,0.567H7.999c-0.313,0-0.567-0.255-0.567-0.567
		V7.659c0-0.312,0.255-0.567,0.567-0.567h2.055c0.313,0,0.567,0.255,0.567,0.567V9.715z"/>
	<path style="fill:none;stroke:#000000;stroke-width:0.75;" d="M10.621,9.715c0,0.312-0.255,0.567-0.567,0.567H7.999
		c-0.313,0-0.567-0.255-0.567-0.567V7.659c0-0.312,0.255-0.567,0.567-0.567h2.055c0.313,0,0.567,0.255,0.567,0.567V9.715z"/>
</g>
<g>
	<radialGradient id="XMLID_23_" cx="1.5947" cy="11.1289" r="2.3509" gradientUnits="userSpaceOnUse">
		<stop  offset="0" style="stop-color:#FFFFFF"/>
		<stop  offset="0.1424" style="stop-color:#E6E6E6"/>
		<stop  offset="0.4462" style="stop-color:#A5A5A5"/>
		<stop  offset="0.7697" style="stop-color:#595959"/>
	</radialGradient>
	<path style="fill:url(#XMLID_23_);" d="M3.564,13.001c0,0.312-0.255,0.567-0.567,0.567H0.942c-0.313,0-0.567-0.255-0.567-0.567
		v-2.056c0-0.312,0.255-0.567,0.567-0.567h2.055c0.313,0,0.567,0.255,0.567,0.567V13.001z"/>
	<path style="fill:none;stroke:#000000;stroke-width:0.75;" d="M3.564,13.001c0,0.312-0.255,0.567-0.567,0.567H0.942
		c-0.313,0-0.567-0.255-0.567-0.567v-2.056c0-0.312,0.255-0.567,0.567-0.567h2.055c0.313,0,0.567,0.255,0.567,0.567V13.001z"/>
</g>
<g>
	<radialGradient id="XMLID_24_" cx="5.2676" cy="11.1289" r="2.3514" gradientUnits="userSpaceOnUse">
		<stop  offset="0" style="stop-color:#FFFFFF"/>
		<stop  offset="0.1424" style="stop-color:#E6E6E6"/>
		<stop  offset="0.4462" style="stop-color:#A5A5A5"/>
		<stop  offset="0.7697" style="stop-color:#595959"/>
	</radialGradient>
	<path style="fill:url(#XMLID_24_);" d="M7.238,13.001c0,0.312-0.255,0.567-0.567,0.567H4.615c-0.313,0-0.567-0.255-0.567-0.567
		v-2.056c0-0.312,0.255-0.567,0.567-0.567h2.056c0.313,0,0.567,0.255,0.567,0.567V13.001z"/>
	<path style="fill:none;stroke:#000000;stroke-width:0.75;" d="M7.238,13.001c0,0.312-0.255,0.567-0.567,0.567H4.615
		c-0.313,0-0.567-0.255-0.567-0.567v-2.056c0-0.312,0.255-0.567,0.567-0.567h2.056c0.313,0,0.567,0.255,0.567,0.567V13.001z"/>
</g>
<g>
	<radialGradient id="XMLID_25_" cx="8.6514" cy="11.1289" r="2.3509" gradientUnits="userSpaceOnUse">
		<stop  offset="0" style="stop-color:#FFFFFF"/>
		<stop  offset="0.1424" style="stop-color:#E6E6E6"/>
		<stop  offset="0.4462" style="stop-color:#A5A5A5"/>
		<stop  offset="0.7697" style="stop-color:#595959"/>
	</radialGradient>
	<path style="fill:url(#XMLID_25_);" d="M10.621,13.001c0,0.312-0.255,0.567-0.567,0.567H7.999c-0.313,0-0.567-0.255-0.567-0.567
		v-2.056c0-0.312,0.255-0.567,0.567-0.567h2.055c0.313,0,0.567,0.255,0.567,0.567V13.001z"/>
	<path style="fill:none;stroke:#000000;stroke-width:0.75;" d="M10.621,13.001c0,0.312-0.255,0.567-0.567,0.567H7.999
		c-0.313,0-0.567-0.255-0.567-0.567v-2.056c0-0.312,0.255-0.567,0.567-0.567h2.055c0.313,0,0.567,0.255,0.567,0.567V13.001z"/>
</g>
<g>
	<g>
		<path style="fill:#FFFFFF;" d="M6.887,9.534c-0.513,0-0.814-0.627-0.671-1.393l0.519-2.755C6.878,4.62,7.634,3.993,8.413,3.993
			h1.333c0.779,0,1.549,0.624,1.709,1.387l0.584,2.768c0.16,0.763-0.163,1.401-0.72,1.418c-0.556,0.017-1.001-0.606-0.989-1.386
			l0.02-1.229c0.012-0.779-0.504-1.426-1.146-1.438c-0.641-0.011-1.2,0.616-1.242,1.395L7.896,8.119
			C7.854,8.897,7.399,9.534,6.887,9.534z"/>
		<path style="fill:none;stroke:#000000;stroke-width:0.25;" d="M6.887,9.534c-0.513,0-0.814-0.627-0.671-1.393l0.519-2.755
			C6.878,4.62,7.634,3.993,8.413,3.993h1.333c0.779,0,1.549,0.624,1.709,1.387l0.584,2.768c0.16,0.763-0.163,1.401-0.72,1.418
			c-0.556,0.017-1.001-0.606-0.989-1.386l0.02-1.229c0.012-0.779-0.504-1.426-1.146-1.438c-0.641-0.011-1.2,0.616-1.242,1.395
			L7.896,8.119C7.854,8.897,7.399,9.534,6.887,9.534z"/>
	</g>
	<linearGradient id="XMLID_26_" gradientUnits="userSpaceOnUse" x1="9.165" y1="8.7261" x2="9.165" y2="17.8039">
		<stop  offset="0" style="stop-color:#F78F42"/>
		<stop  offset="0.2134" style="stop-color:#F79C4D"/>
		<stop  offset="0.6067" style="stop-color:#F7BE6A"/>
		<stop  offset="1" style="stop-color:#F7E68C"/>
	</linearGradient>
	<rect x="5.499" y="8.194" style="fill:url(#XMLID_26_);stroke:#000000;stroke-width:0.5;" width="7.333" height="5.795"/>
</g>
</svg>
