<?xml version="1.0" encoding="iso-8859-1"?>
<!-- Generator: Adobe Illustrator 12.0.0, SVG Export Plug-In . SVG Version: 6.00 Build 51448)  -->
<!DOCTYPE svg PUBLIC "-//W3C//DTD SVG 1.1//EN" "http://www.w3.org/Graphics/SVG/1.1/DTD/svg11.dtd" [
	<!ENTITY ns_svg "http://www.w3.org/2000/svg">
	<!ENTITY ns_xlink "http://www.w3.org/1999/xlink">
]>
<svg  version="1.1" id="&#xCD;_xBC__xB2_&#xE3;_x5F_1" xmlns="&ns_svg;" xmlns:xlink="&ns_xlink;" width="17.108" height="17.843"
	 viewBox="0 0 17.108 17.843" style="overflow:visible;enable-background:new 0 0 17.108 17.843;" xml:space="preserve">
<g>
	<g>
		<g>
			<g>
				<path style="fill:#A2A8AF;stroke:#363639;stroke-width:0.25;" d="M14.105,5.776l-2.343,0.027
					c1.398-1.233,2.589-1.093,2.589-1.093L14.105,5.776z"/>
				<path style="fill:#FFFFFF;" d="M14.201,4.908l0.044-0.195c0,0-0.947-0.24-2.344,0.995l0.408-0.007
					C13.261,4.958,13.841,4.92,14.201,4.908z"/>
			</g>
		</g>
		<linearGradient id="XMLID_3_" gradientUnits="userSpaceOnUse" x1="2.6494" y1="8.7407" x2="15.9761" y2="8.7407">
			<stop  offset="0.0899" style="stop-color:#E3DDE1"/>
			<stop  offset="0.2914" style="stop-color:#D3D0D6"/>
			<stop  offset="0.6778" style="stop-color:#ACAFB6"/>
			<stop  offset="0.9775" style="stop-color:#8E939C"/>
		</linearGradient>
		<path style="fill:url(#XMLID_3_);stroke:#1A2120;" d="M11.862,16.981H2.649c0,0,3.578-15.254,4.328-15.962
			s8.531-0.688,8.969,0.031S11.862,16.981,11.862,16.981z"/>
		<polygon style="fill:#C1CC38;stroke:#313A3A;" points="12.953,8.079 6.271,8.147 7.587,2.692 14.243,2.583 		"/>
		<polygon style="fill:#F7F9FA;" points="7.345,11.074 5.655,11.086 5.966,9.858 7.654,9.846 		"/>
		<polygon style="fill:#F7F9FA;" points="9.759,11.059 8.06,11.07 8.368,9.84 10.065,9.826 		"/>
		<polygon style="fill:#F7F9FA;" points="12.251,11.043 10.542,11.055 10.849,9.819 12.556,9.807 		"/>
		<polygon style="fill:#F7F9FA;" points="11.728,13.164 10.016,13.172 10.323,11.934 12.033,11.924 		"/>
		<polygon style="fill:#F7F9FA;" points="9.297,13.175 7.595,13.182 7.905,11.946 9.604,11.938 		"/>
		<polygon style="fill:#F7F9FA;" points="6.841,13.079 5.148,13.086 5.46,11.855 7.151,11.846 		"/>
		<polygon style="fill:#F7F9FA;" points="6.31,14.933 4.614,14.937 4.929,13.7 6.621,13.695 		"/>
		<polygon style="fill:#F7F9FA;" points="8.794,14.927 7.091,14.932 7.401,13.691 9.104,13.686 		"/>
		<polygon style="fill:#F7F9FA;" points="11.28,14.976 9.567,14.979 9.876,13.736 11.587,13.73 		"/>
		<polygon style="fill:#00738D;" points="9.19,13.457 7.487,13.464 7.798,12.228 9.498,12.22 		"/>
		<polygon style="fill:#00738D;" points="6.745,13.454 5.052,13.46 5.364,12.227 7.056,12.219 		"/>
		<polygon style="fill:#00738D;" points="6.212,15.313 4.517,15.315 4.83,14.078 6.524,14.073 		"/>
		<polygon style="fill:#00738D;" points="8.745,15.32 7.042,15.324 7.353,14.083 9.056,14.078 		"/>
		<polygon style="fill:#00738D;" points="11.208,15.316 9.495,15.319 9.804,14.075 11.516,14.069 		"/>
	</g>
	<linearGradient id="XMLID_4_" gradientUnits="userSpaceOnUse" x1="6.3105" y1="11.6797" x2="6.4771" y2="16.8468">
		<stop  offset="0.0899" style="stop-color:#E3DDE1"/>
		<stop  offset="0.2914" style="stop-color:#D3D0D6"/>
		<stop  offset="0.6778" style="stop-color:#ACAFB6"/>
		<stop  offset="0.9775" style="stop-color:#8E939C"/>
	</linearGradient>
	<path style="fill:url(#XMLID_4_);stroke:#1A2120;" d="M11.978,17.051c-0.334,0.334-8.864,0.479-9.447-0.104
		c-0.584-0.583-1.75-5.417-1.75-5.417l8.75-0.249C9.53,11.28,12.312,16.718,11.978,17.051z"/>
	<path style="fill:#939BA2;stroke:#242525;" d="M12.853,16.27c-0.531,0.678-0.844,0.656-0.844,0.656l3.688-16.063
		c0,0,0.739,0.428,0.906,1.844S13.384,15.592,12.853,16.27z"/>
	<path style="fill:#FBDD2A;stroke:#1A2120;stroke-width:0.25;" d="M1.59,7.835L0.131,6.519l0.098,4.752l5.054-0.104L3.845,9.87
		c0.044-5.642,3.32-0.882,3.32-0.882S8.198,8.922,8.29,9.02C4.049,2.801,1.915,7.082,1.59,7.835z"/>
</g>
</svg>
