<?xml version="1.0" encoding="iso-8859-1"?>
<!-- Generator: Adobe Illustrator 12.0.0, SVG Export Plug-In . SVG Version: 6.00 Build 51448)  -->
<!DOCTYPE svg PUBLIC "-//W3C//DTD SVG 1.1//EN" "http://www.w3.org/Graphics/SVG/1.1/DTD/svg11.dtd" [
	<!ENTITY ns_svg "http://www.w3.org/2000/svg">
	<!ENTITY ns_xlink "http://www.w3.org/1999/xlink">
]>
<svg  version="1.1" id="&#xCD;_xBC__xB2_&#xE3;_x5F_1" xmlns="&ns_svg;" xmlns:xlink="&ns_xlink;" width="9.491" height="9.436"
	 viewBox="0 0 9.491 9.436" style="overflow:visible;enable-background:new 0 0 9.491 9.436;" xml:space="preserve">
<g>
	<g>
		<rect x="0.051" y="0.041" style="fill:#EA3230;" width="9.375" height="9.375"/>
		<rect x="0.051" y="0.049" style="fill:#E23130;" width="9.375" height="8.821"/>
		<rect x="0.051" y="0.057" style="fill:#DC312F;" width="9.375" height="8.269"/>
		<rect x="0.051" y="0.064" style="fill:#D6302F;" width="9.375" height="7.715"/>
		<rect x="0.051" y="0.072" style="fill:#D0302F;" width="9.375" height="7.163"/>
		<rect x="0.051" y="0.08" style="fill:#CB302F;" width="9.375" height="6.609"/>
		<rect x="0.051" y="0.087" style="fill:#C6312F;" width="9.375" height="6.056"/>
		<rect x="0.051" y="0.095" style="fill:#C1312F;" width="9.375" height="5.502"/>
		<rect x="0.051" y="0.103" style="fill:#BB312F;" width="9.375" height="4.949"/>
		<rect x="0.051" y="0.11" style="fill:#B6302F;" width="9.375" height="4.396"/>
		<rect x="0.051" y="0.118" style="fill:#B1302E;" width="9.375" height="3.843"/>
		<rect x="0.051" y="0.126" style="fill:#AC302E;" width="9.375" height="3.29"/>
	</g>
	<rect x="0.031" y="0.052" style="fill:#F1D3D7;" width="0.625" height="9.292"/>
	<rect x="8.781" y="0.114" style="fill:#852623;" width="0.625" height="9.292"/>
	<rect x="0.01" y="8.791" style="fill:#852623;" width="9.292" height="0.625"/>
	<polygon style="fill:#F8AFB2;" points="0.042,0.716 0,0 9.488,0.053 9.491,0.677 	"/>
	<g>
		<g style="opacity:0.35;">
			<polygon points="7.962,7.314 5.7,5.044 7.97,2.785 7.419,2.233 5.15,4.492 2.889,2.222 2.335,2.774 4.597,5.044 2.327,7.305 
				2.877,7.855 5.147,5.597 7.408,7.866 			"/>
		</g>
		<g>
			<polygon style="fill:#FFFFFF;" points="7.678,7.031 5.416,4.761 7.687,2.501 7.135,1.949 4.866,4.208 2.605,1.938 2.051,2.49 
				4.313,4.761 2.043,7.021 2.594,7.572 4.863,5.313 7.125,7.583 			"/>
		</g>
	</g>
</g>
</svg>
