<?xml version="1.0" encoding="iso-8859-1"?>
<!-- Generator: Adobe Illustrator 12.0.1, SVG Export Plug-In . SVG Version: 6.00 Build 51448)  -->
<!DOCTYPE svg PUBLIC "-//W3C//DTD SVG 1.1//EN" "http://www.w3.org/Graphics/SVG/1.1/DTD/svg11.dtd" [
	<!ENTITY ns_svg "http://www.w3.org/2000/svg">
	<!ENTITY ns_xlink "http://www.w3.org/1999/xlink">
]>
<svg  version="1.1" id="&#xCD;_xBC__xB2_&#xE3;_x5F_1" xmlns="&ns_svg;" xmlns:xlink="&ns_xlink;" width="27.905" height="28.002"
	 viewBox="0 0 27.905 28.002" style="overflow:visible;enable-background:new 0 0 27.905 28.002;" xml:space="preserve">
<g>
	<g>
		<polygon style="fill:#0DB14B;stroke:#000000;stroke-width:0.5;" points="22.385,0.589 16.252,6.746 22.709,12.344 22.611,8.775 
			27.648,8.636 27.526,4.228 22.49,4.367 		"/>
	</g>
</g>
<g>
	
		<linearGradient id="XMLID_5_" gradientUnits="userSpaceOnUse" x1="-8.2231" y1="-40.75" x2="-4.3758" y2="-42.3633" gradientTransform="matrix(0.9968 -0.0791 0.0791 0.9968 18.9338 57.2941)">
		<stop  offset="0.0056" style="stop-color:#424242"/>
		<stop  offset="0.3202" style="stop-color:#FFFFFF"/>
		<stop  offset="0.736" style="stop-color:#CCCCCC"/>
		<stop  offset="1" style="stop-color:#424242"/>
	</linearGradient>
	<path style="fill:url(#XMLID_5_);stroke:#010101;stroke-width:0.25;" d="M2.783,7.856c0,0,8.268,17.184,9.844,19.262
		c1.579,2.078,8.031-0.472,8.516-3.253C21.631,21.081,9.36,2.177,9.36,2.177S7.49,2.165,6.62,2.692
		C5.99,3.07,3.988,4.183,3.728,4.579C3.469,4.973,2.783,7.856,2.783,7.856z"/>
	
		<linearGradient id="XMLID_6_" gradientUnits="userSpaceOnUse" x1="-8.7236" y1="-43.2983" x2="4.9082" y2="-43.2983" gradientTransform="matrix(0.9968 -0.0791 0.0791 0.9968 18.9338 57.2941)">
		<stop  offset="0.1067" style="stop-color:#ECECEC"/>
		<stop  offset="0.3202" style="stop-color:#FFFFFF"/>
		<stop  offset="0.736" style="stop-color:#CCCCCC"/>
		<stop  offset="1" style="stop-color:#424242"/>
	</linearGradient>
	<path style="fill:url(#XMLID_6_);stroke:#010101;stroke-width:0.25;" d="M6.267,3.005c0,0,0.933-0.822,2.569-1.163
		c1.635-0.336,2.618-0.537,3.57,0.467c0.957,1.006,5.268,10.311,7.115,14.736c0,0,2.502,5.835,1.276,7.679
		c-1.228,1.842-3.541,3.066-4.876,1.468c-1.33-1.601-8.154-17.946-8.969-19.835C6.139,4.469,5.52,3.561,6.267,3.005z"/>
	
		<linearGradient id="XMLID_7_" gradientUnits="userSpaceOnUse" x1="-7.1772" y1="-45.8984" x2="3.7251" y2="-45.8984" gradientTransform="matrix(0.9968 -0.0791 0.0791 0.9968 18.9338 57.2941)">
		<stop  offset="0" style="stop-color:#F3E755"/>
		<stop  offset="0.9831" style="stop-color:#F2B71B"/>
	</linearGradient>
	<path style="fill:url(#XMLID_7_);stroke:#010101;stroke-width:0.25;" d="M7.877,6.036C7.518,5.107,7.205,4.347,8.795,3.929
		c1.589-0.417,3.732-1.109,4.188-0.538c0.968,1.209,5.768,10.989,6.465,13.787c0.22,0.87-0.024,1.248-0.972,1.363
		c-0.588,0.076-0.967-0.128-1.725,0.807c-0.757,0.931-1.948,1.109-2.555,0.284C13.141,18.193,8.24,6.963,7.877,6.036z"/>
	
		<linearGradient id="XMLID_8_" gradientUnits="userSpaceOnUse" x1="-24.5596" y1="-40.2031" x2="-22.4107" y2="-41.1949" gradientTransform="matrix(0.9023 0.0193 -0.0158 0.7697 23.0212 35.4692)">
		<stop  offset="0.0056" style="stop-color:#4F4F4F"/>
		<stop  offset="0.3202" style="stop-color:#FFFFFF"/>
		<stop  offset="0.736" style="stop-color:#CCCCCC"/>
		<stop  offset="1" style="stop-color:#424242"/>
	</linearGradient>
	<path style="fill:url(#XMLID_8_);stroke:#010101;stroke-width:0.25;" d="M0.191,1.696c0,0-0.305-0.558,0.393-0.945
		c0.18-0.101,0.17-0.095,0.627-0.286c0.307-0.128,0.92-0.11,1.275,0.582c0.346,0.67,2.195,4.322,2.195,4.322
		s0.286,0.679-0.398,1.176C3.602,7.039,3.146,7.189,2.852,7.021C2.558,6.858,0.191,1.696,0.191,1.696z"/>
	<path style="fill:#97C63D;stroke:#010101;stroke-width:0.25;stroke-linecap:round;stroke-linejoin:round;" d="M9.04,6.527
		c0,0,3.337-0.931,4.264-1.295l4.602,9.782l-3.925,1.894L9.04,6.527z"/>
</g>
</svg>
