<?xml version="1.0" encoding="iso-8859-1"?>
<!-- Generator: Adobe Illustrator 12.0.0, SVG Export Plug-In . SVG Version: 6.00 Build 51448)  -->
<!DOCTYPE svg PUBLIC "-//W3C//DTD SVG 1.1//EN" "http://www.w3.org/Graphics/SVG/1.1/DTD/svg11.dtd" [
	<!ENTITY ns_svg "http://www.w3.org/2000/svg">
	<!ENTITY ns_xlink "http://www.w3.org/1999/xlink">
]>
<svg  version="1.1" id="&#xCD;_xBC__xB2_&#xE3;_x5F_1" xmlns="&ns_svg;" xmlns:xlink="&ns_xlink;" width="15.441" height="15.862"
	 viewBox="0 0 15.441 15.862" style="overflow:visible;enable-background:new 0 0 15.441 15.862;" xml:space="preserve">
<g>
	<g>
		<g>
			<g>
				<path style="fill:#A2A8AF;stroke:#363639;stroke-width:0.25;" d="M7.701,5.072H5.828c0.877-1.138,1.859-0.989,1.859-0.989
					L7.701,5.072z"/>
				<path style="fill:#FFFFFF;" d="M7.605,4.264L7.604,4.083c0,0-0.809-0.236-1.686,0.899h0.328C6.861,4.299,7.32,4.271,7.605,4.264
					z"/>
			</g>
		</g>
		<linearGradient id="XMLID_4_" gradientUnits="userSpaceOnUse" x1="4.6094" y1="14.0078" x2="4.2194" y2="4.7463">
			<stop  offset="0.0899" style="stop-color:#E3DDE1"/>
			<stop  offset="0.2914" style="stop-color:#D3D0D6"/>
			<stop  offset="0.6778" style="stop-color:#ACAFB6"/>
			<stop  offset="0.9775" style="stop-color:#8E939C"/>
		</linearGradient>
		<rect x="0.5" y="0.5" style="fill:url(#XMLID_4_);stroke:#1A2120;" width="7.707" height="14.862"/>
		<rect x="1.529" y="2.089" style="fill:#C1CC38;" width="5.65" height="5.111"/>
		<rect x="1.943" y="8.698" style="fill:#F7F9FA;" width="0.859" height="0.717"/>
		<rect x="3.844" y="8.747" style="fill:#F7F9FA;" width="0.859" height="0.717"/>
		<rect x="5.83" y="8.696" style="fill:#F7F9FA;" width="0.857" height="0.672"/>
		<rect x="5.934" y="10.363" style="fill:#F7F9FA;" width="0.859" height="0.718"/>
		<rect x="3.877" y="10.412" style="fill:#F7F9FA;" width="0.859" height="0.718"/>
		<rect x="2.102" y="10.448" style="fill:#F7F9FA;" width="0.857" height="0.717"/>
		<rect x="2.225" y="12.35" style="fill:#F7F9FA;" width="0.859" height="0.717"/>
		<rect x="3.896" y="12.252" style="fill:#F7F9FA;" width="0.857" height="0.717"/>
		<rect x="5.934" y="12.331" style="fill:#F7F9FA;" width="0.859" height="0.717"/>
		<rect x="1.586" y="2.011" style="fill:#00738D;" width="5.598" height="0.584"/>
		<rect x="6.504" y="2.011" style="fill:#00738D;" width="0.785" height="5.16"/>
		<linearGradient id="XMLID_5_" gradientUnits="userSpaceOnUse" x1="7.1309" y1="7.9248" x2="7.811" y2="7.9248">
			<stop  offset="0.1348" style="stop-color:#767478"/>
			<stop  offset="0.1534" style="stop-color:#737276"/>
			<stop  offset="0.2855" style="stop-color:#62656B"/>
			<stop  offset="0.4045" style="stop-color:#5D6168"/>
		</linearGradient>
		<rect x="7.131" y="0.843" style="fill:url(#XMLID_5_);" width="0.732" height="14.164"/>
		<linearGradient id="XMLID_6_" gradientUnits="userSpaceOnUse" x1="2.6772" y1="14.5449" x2="6.8249" y2="14.5449">
			<stop  offset="0.1124" style="stop-color:#676568"/>
			<stop  offset="0.2611" style="stop-color:#606166"/>
			<stop  offset="0.5278" style="stop-color:#5A5E64"/>
			<stop  offset="0.9326" style="stop-color:#5A5D64"/>
		</linearGradient>
		<rect x="1.848" y="14.082" style="fill:url(#XMLID_6_);" width="5.807" height="0.925"/>
	</g>
	<path style="fill:#C6CAD0;stroke:#000000;" d="M10.021,3.506c-1.842,0-3.334,1.111-3.334,2.482v2.275h6.668V5.988
		C13.355,4.617,11.861,3.506,10.021,3.506z M11.094,8H8.949V6.643c0-0.818,0.48-1.482,1.072-1.482s1.072,0.664,1.072,1.482V8z"/>
	<g>
		<rect x="5.275" y="8" style="fill:#F7D89F;stroke:#000000;stroke-width:2;" width="9.166" height="6.756"/>
		<rect x="5.277" y="8.001" style="fill:#F8D89E;" width="9.163" height="6.708"/>
		<rect x="5.278" y="8.003" style="fill:#F7D79D;" width="9.16" height="6.661"/>
		<rect x="5.28" y="8.005" style="fill:#F8D79C;" width="9.158" height="6.613"/>
		<rect x="5.281" y="8.007" style="fill:#F7D69B;" width="9.155" height="6.566"/>
		<rect x="5.282" y="8.009" style="fill:#F8D699;" width="9.152" height="6.518"/>
		<rect x="5.284" y="8.01" style="fill:#F7D598;" width="9.149" height="6.471"/>
		<rect x="5.285" y="8.012" style="fill:#F8D597;" width="9.146" height="6.423"/>
		<rect x="5.286" y="8.014" style="fill:#F7D496;" width="9.144" height="6.375"/>
		<rect x="5.288" y="8.015" style="fill:#F8D494;" width="9.141" height="6.328"/>
		<rect x="5.289" y="8.017" style="fill:#F7D393;" width="9.138" height="6.281"/>
		<rect x="5.291" y="8.019" style="fill:#F7D392;" width="9.135" height="6.233"/>
		<rect x="5.292" y="8.02" style="fill:#F7D391;" width="9.132" height="6.187"/>
		<rect x="5.293" y="8.021" style="fill:#F7D290;" width="9.13" height="6.139"/>
		<rect x="5.295" y="8.023" style="fill:#F7D28F;" width="9.127" height="6.091"/>
		<rect x="5.296" y="8.025" style="fill:#F6D18D;" width="9.125" height="6.044"/>
		<rect x="5.298" y="8.026" style="fill:#F6D08C;" width="9.122" height="5.997"/>
		<rect x="5.299" y="8.029" style="fill:#F6D08B;" width="9.119" height="5.949"/>
		<rect x="5.3" y="8.03" style="fill:#F6D089;" width="9.116" height="5.901"/>
		<rect x="5.302" y="8.032" style="fill:#F6D089;" width="9.113" height="5.854"/>
		<rect x="5.303" y="8.034" style="fill:#F6CF87;" width="9.11" height="5.806"/>
		<rect x="5.304" y="8.035" style="fill:#F6CF87;" width="9.107" height="5.759"/>
		<rect x="5.306" y="8.037" style="fill:#F6CE85;" width="9.104" height="5.711"/>
		<rect x="5.307" y="8.039" style="fill:#F6CE84;" width="9.103" height="5.664"/>
		<rect x="5.308" y="8.041" style="fill:#F6CE83;" width="9.1" height="5.616"/>
		<rect x="5.31" y="8.042" style="fill:#F6CD82;" width="9.097" height="5.569"/>
		<rect x="5.311" y="8.044" style="fill:#F6CD81;" width="9.094" height="5.521"/>
		<rect x="5.313" y="8.045" style="fill:#F6CC7F;" width="9.091" height="5.474"/>
		<rect x="5.314" y="8.047" style="fill:#F6CC7E;" width="9.088" height="5.426"/>
		<rect x="5.315" y="8.049" style="fill:#F6CB7D;" width="9.085" height="5.378"/>
		<rect x="5.317" y="8.051" style="fill:#F6CB7C;" width="9.083" height="5.331"/>
		<rect x="5.318" y="8.052" style="fill:#F6CB7A;" width="9.08" height="5.284"/>
		<rect x="5.32" y="8.054" style="fill:#F6CA79;" width="9.077" height="5.236"/>
		<rect x="5.321" y="8.056" style="fill:#F6CA78;" width="9.075" height="5.188"/>
		<rect x="5.322" y="8.057" style="fill:#F6CA77;" width="9.072" height="5.142"/>
		<rect x="5.324" y="8.059" style="fill:#F6C976;" width="9.069" height="5.094"/>
		<rect x="5.325" y="8.061" style="fill:#F6C975;" width="9.066" height="5.047"/>
		<rect x="5.326" y="8.063" style="fill:#F6C873;" width="9.063" height="4.999"/>
		<rect x="5.328" y="8.063" style="fill:#F6C872;" width="9.061" height="4.952"/>
		<rect x="5.329" y="8.065" style="fill:#F6C771;" width="9.058" height="4.904"/>
		<rect x="5.331" y="8.067" style="fill:#F6C770;" width="9.055" height="4.856"/>
		<rect x="5.332" y="8.068" style="fill:#F6C66E;" width="9.052" height="4.81"/>
		<rect x="5.333" y="8.071" style="fill:#F6C66D;" width="9.049" height="4.762"/>
		<rect x="5.334" y="8.073" style="fill:#F6C66C;" width="9.047" height="4.714"/>
		<rect x="5.336" y="8.074" style="fill:#F6C56B;" width="9.044" height="4.667"/>
		<rect x="5.337" y="8.076" style="fill:#F6C569;" width="9.041" height="4.619"/>
		<rect x="5.339" y="8.078" style="fill:#F3C367;" width="9.038" height="4.571"/>
		<rect x="5.34" y="8.079" style="fill:#F3C366;" width="9.035" height="4.524"/>
		<rect x="5.342" y="8.081" style="fill:#F3C264;" width="9.033" height="4.477"/>
		<rect x="5.343" y="8.083" style="fill:#F3C264;" width="9.03" height="4.429"/>
		<rect x="5.344" y="8.084" style="fill:#F3C162;" width="9.027" height="4.382"/>
		<rect x="5.346" y="8.086" style="fill:#F3C161;" width="9.024" height="4.334"/>
		<rect x="5.347" y="8.088" style="fill:#F3C15F;" width="9.021" height="4.286"/>
		<rect x="5.348" y="8.089" style="fill:#F3C15E;" width="9.019" height="4.239"/>
		<rect x="5.35" y="8.091" style="fill:#F3C05C;" width="9.016" height="4.191"/>
		<rect x="5.351" y="8.093" style="fill:#F3C05B;" width="9.013" height="4.144"/>
		<rect x="5.353" y="8.094" style="fill:#F3BF5A;" width="9.01" height="4.097"/>
		<rect x="5.354" y="8.096" style="fill:#F3BF59;" width="9.007" height="4.05"/>
		<rect x="5.355" y="8.098" style="fill:#F3BE57;" width="9.005" height="4.002"/>
		<rect x="5.357" y="8.099" style="fill:#F3BE56;" width="9.002" height="3.955"/>
		<rect x="5.358" y="8.101" style="fill:#F3BD54;" width="9" height="3.907"/>
		<rect x="5.36" y="8.103" style="fill:#F3BD52;" width="8.997" height="3.859"/>
		<rect x="5.361" y="8.104" style="fill:#F3BD51;" width="8.994" height="3.813"/>
		<rect x="5.362" y="8.106" style="fill:#F3BD4F;" width="8.991" height="3.765"/>
		<rect x="5.364" y="8.108" style="fill:#F3BC4E;" width="8.988" height="3.717"/>
		<rect x="5.365" y="8.109" style="fill:#F3BC4C;" width="8.985" height="3.67"/>
		<rect x="5.366" y="8.111" style="fill:#F3BB4B;" width="8.982" height="3.622"/>
		<rect x="5.368" y="8.113" style="fill:#F3BB49;" width="8.979" height="3.574"/>
		<rect x="5.369" y="8.114" style="fill:#F3BB48;" width="8.978" height="3.527"/>
		<rect x="5.37" y="8.116" style="fill:#F3BA46;" width="8.975" height="3.479"/>
		<rect x="5.372" y="8.118" style="fill:#F3BA45;" width="8.972" height="3.432"/>
		<rect x="5.373" y="8.119" style="fill:#F3B944;" width="8.969" height="3.385"/>
		<rect x="5.375" y="8.121" style="fill:#F3B942;" width="8.966" height="3.337"/>
		<rect x="5.376" y="8.123" style="fill:#F3B941;" width="8.963" height="3.289"/>
		<rect x="5.377" y="8.125" style="fill:#F3B940;" width="8.96" height="3.242"/>
		<rect x="5.379" y="8.126" style="fill:#F3B83E;" width="8.958" height="3.194"/>
		<rect x="5.38" y="8.128" style="fill:#F2B73C;" width="8.955" height="3.146"/>
		<rect x="5.382" y="8.129" style="fill:#F2B73B;" width="8.952" height="3.1"/>
		<rect x="5.383" y="8.131" style="fill:#F2B739;" width="8.95" height="3.052"/>
		<rect x="5.384" y="8.133" style="fill:#F2B638;" width="8.947" height="3.005"/>
		<rect x="5.386" y="8.134" style="fill:#F2B636;" width="8.944" height="2.958"/>
		<rect x="5.387" y="8.136" style="fill:#F2B535;" width="8.941" height="2.91"/>
		<rect x="5.388" y="8.138" style="fill:#F2B533;" width="8.938" height="2.862"/>
		<rect x="5.39" y="8.139" style="fill:#F2B432;" width="8.936" height="2.815"/>
		<rect x="5.391" y="8.141" style="fill:#F2B430;" width="8.933" height="2.768"/>
		<rect x="5.393" y="8.143" style="fill:#F2B42F;" width="8.93" height="2.72"/>
		<rect x="5.394" y="8.144" style="fill:#F2B42D;" width="8.927" height="2.673"/>
		
			<rect x="5.395" y="8.146" transform="matrix(1 0.0011 -0.0011 1 0.0104 -0.0108)" style="fill:#F2B32C;" width="8.924" height="2.625"/>
		
			<rect x="5.396" y="8.148" transform="matrix(1 0.0011 -0.0011 1 0.0103 -0.0108)" style="fill:#F2B329;" width="8.922" height="2.577"/>
		
			<rect x="5.398" y="8.149" transform="matrix(1 0.0011 -0.0011 1 0.0103 -0.0108)" style="fill:#F1B228;" width="8.919" height="2.53"/>
		
			<rect x="5.399" y="8.151" transform="matrix(1 0.0011 -0.0011 1 0.0103 -0.0108)" style="fill:#F1B226;" width="8.916" height="2.482"/>
	</g>
</g>
</svg>
