<?xml version="1.0" encoding="iso-8859-1"?>
<!-- Generator: Adobe Illustrator 12.0.1, SVG Export Plug-In . SVG Version: 6.00 Build 51448)  -->
<!DOCTYPE svg PUBLIC "-//W3C//DTD SVG 1.1//EN" "http://www.w3.org/Graphics/SVG/1.1/DTD/svg11.dtd" [
	<!ENTITY ns_svg "http://www.w3.org/2000/svg">
	<!ENTITY ns_xlink "http://www.w3.org/1999/xlink">
]>
<svg  version="1.1" id="&#xCD;_xBC__xB2_&#xE3;_x5F_1" xmlns="&ns_svg;" xmlns:xlink="&ns_xlink;" width="27.619" height="28.089"
	 viewBox="0 0 27.619 28.089" style="overflow:visible;enable-background:new 0 0 27.619 28.089;" xml:space="preserve">
<g>
	
		<linearGradient id="XMLID_5_" gradientUnits="userSpaceOnUse" x1="-8.0762" y1="-50.4668" x2="-4.2288" y2="-52.0801" gradientTransform="matrix(0.9968 -0.0791 0.0791 0.9968 19.5555 67.0785)">
		<stop  offset="0.0056" style="stop-color:#424242"/>
		<stop  offset="0.3202" style="stop-color:#FFFFFF"/>
		<stop  offset="0.736" style="stop-color:#CCCCCC"/>
		<stop  offset="1" style="stop-color:#424242"/>
	</linearGradient>
	<path style="fill:url(#XMLID_5_);stroke:#010101;stroke-width:0.25;" d="M2.783,7.943c0,0,8.268,17.184,9.844,19.262
		c1.579,2.078,8.031-0.472,8.516-3.253C21.631,21.167,9.36,2.264,9.36,2.264S7.49,2.251,6.62,2.779
		C5.99,3.157,3.988,4.27,3.728,4.666C3.469,5.06,2.783,7.943,2.783,7.943z"/>
	
		<linearGradient id="XMLID_6_" gradientUnits="userSpaceOnUse" x1="-8.5762" y1="-53.0161" x2="5.0557" y2="-53.0161" gradientTransform="matrix(0.9968 -0.0791 0.0791 0.9968 19.5555 67.0785)">
		<stop  offset="0.1067" style="stop-color:#ECECEC"/>
		<stop  offset="0.3202" style="stop-color:#FFFFFF"/>
		<stop  offset="0.736" style="stop-color:#CCCCCC"/>
		<stop  offset="1" style="stop-color:#424242"/>
	</linearGradient>
	<path style="fill:url(#XMLID_6_);stroke:#010101;stroke-width:0.25;" d="M6.267,3.092c0,0,0.933-0.822,2.569-1.163
		c1.635-0.336,2.618-0.537,3.57,0.467c0.957,1.006,5.268,10.311,7.115,14.736c0,0,2.502,5.835,1.276,7.679
		c-1.228,1.842-3.541,3.066-4.876,1.468c-1.33-1.601-8.154-17.946-8.969-19.835C6.139,4.556,5.52,3.648,6.267,3.092z"/>
	
		<linearGradient id="XMLID_7_" gradientUnits="userSpaceOnUse" x1="-7.0298" y1="-55.6157" x2="3.8726" y2="-55.6157" gradientTransform="matrix(0.9968 -0.0791 0.0791 0.9968 19.5555 67.0785)">
		<stop  offset="0" style="stop-color:#F3E755"/>
		<stop  offset="0.9831" style="stop-color:#F2B71B"/>
	</linearGradient>
	<path style="fill:url(#XMLID_7_);stroke:#010101;stroke-width:0.25;" d="M7.877,6.123C7.518,5.194,7.205,4.434,8.795,4.016
		c1.589-0.417,3.732-1.109,4.188-0.538c0.968,1.209,5.768,10.989,6.465,13.787c0.22,0.87-0.024,1.248-0.972,1.363
		c-0.588,0.076-0.967-0.128-1.725,0.807c-0.757,0.931-1.948,1.109-2.555,0.284C13.141,18.28,8.24,7.05,7.877,6.123z"/>
	
		<linearGradient id="XMLID_8_" gradientUnits="userSpaceOnUse" x1="-37.8389" y1="-35.8003" x2="-35.69" y2="-36.792" gradientTransform="matrix(0.9023 0.0193 -0.0158 0.7697 35.0727 32.4231)">
		<stop  offset="0.0056" style="stop-color:#4F4F4F"/>
		<stop  offset="0.3202" style="stop-color:#FFFFFF"/>
		<stop  offset="0.736" style="stop-color:#CCCCCC"/>
		<stop  offset="1" style="stop-color:#424242"/>
	</linearGradient>
	<path style="fill:url(#XMLID_8_);stroke:#010101;stroke-width:0.25;" d="M0.191,1.783c0,0-0.305-0.558,0.393-0.945
		c0.18-0.101,0.17-0.095,0.627-0.286c0.307-0.128,0.92-0.11,1.275,0.582c0.346,0.67,2.195,4.322,2.195,4.322
		s0.286,0.679-0.398,1.176C3.602,7.125,3.146,7.276,2.852,7.108C2.558,6.945,0.191,1.783,0.191,1.783z"/>
	<path style="fill:#97C63D;stroke:#010101;stroke-width:0.25;stroke-linecap:round;stroke-linejoin:round;" d="M9.04,6.614
		c0,0,3.337-0.931,4.264-1.295l4.602,9.782l-3.925,1.894L9.04,6.614z"/>
</g>
<polygon style="fill:#EA2D2E;stroke:#000000;stroke-width:0.5;" points="27.265,9.91 23.215,6.11 27.015,2.061 25.195,0.354 
	21.396,4.404 17.345,0.604 15.638,2.421 19.69,6.221 15.889,10.271 17.707,11.977 21.508,7.927 25.558,11.73 "/>
</svg>
