<?xml version="1.0" encoding="iso-8859-1"?>
<!-- Generator: Adobe Illustrator 12.0.1, SVG Export Plug-In . SVG Version: 6.00 Build 51448)  -->
<!DOCTYPE svg PUBLIC "-//W3C//DTD SVG 1.1//EN" "http://www.w3.org/Graphics/SVG/1.1/DTD/svg11.dtd" [
	<!ENTITY ns_svg "http://www.w3.org/2000/svg">
	<!ENTITY ns_xlink "http://www.w3.org/1999/xlink">
]>
<svg  version="1.1" id="&#xCD;_xBC__xB2_&#xE3;_x5F_1" xmlns="&ns_svg;" xmlns:xlink="&ns_xlink;" width="27.805" height="27.725"
	 viewBox="0 0 27.805 27.725" style="overflow:visible;enable-background:new 0 0 27.805 27.725;" xml:space="preserve">
<g>
	<g>
		<path style="fill:#EA2F2F;" d="M23.557,10.781l-3.123,0.028L20.38,9.544c0,0,4.767-2.471,4.59-4.649
			c-0.177-2.177-4.237-3.883-5.474-0.646h-3.06c0.146-1.573,1.883-3.649,5.12-3.943c3.236-0.294,6.354,2.707,5.767,5.531
			c-0.387,1.853-3.658,3.996-3.658,3.996C23.588,9.786,23.565,10.721,23.557,10.781z"/>
		<path style="fill:none;stroke:#363639;stroke-width:0.25;" d="M23.557,10.781l-3.123,0.028L20.38,9.544
			c0,0,4.767-2.471,4.59-4.649c-0.177-2.177-4.237-3.883-5.474-0.646h-3.06c0.146-1.573,1.883-3.649,5.12-3.943
			c3.236-0.294,6.354,2.707,5.767,5.531c-0.387,1.853-3.658,3.996-3.658,3.996C23.588,9.786,23.565,10.721,23.557,10.781z"/>
	</g>
	<g>
		<rect x="20.35" y="12.104" style="fill:#EA2F2F;" width="3.266" height="2.855"/>
		<rect x="20.35" y="12.104" style="fill:none;stroke:#363639;stroke-width:0.25;" width="3.266" height="2.855"/>
	</g>
</g>
<linearGradient id="XMLID_23_" gradientUnits="userSpaceOnUse" x1="-38.8455" y1="65.8684" x2="-34.9981" y2="67.4817" gradientTransform="matrix(0.9968 -0.0791 -0.0791 -0.9968 51.444 79.632)">
	<stop  offset="0.0056" style="stop-color:#424242"/>
	<stop  offset="0.3202" style="stop-color:#FFFFFF"/>
	<stop  offset="0.736" style="stop-color:#CCCCCC"/>
	<stop  offset="1" style="stop-color:#424242"/>
</linearGradient>
<path style="fill:url(#XMLID_23_);stroke:#010101;stroke-width:0.25;" d="M2.783,7.578c0,0,8.268,17.184,9.844,19.262
	c1.579,2.078,8.031-0.472,8.517-3.253C21.631,20.803,9.36,1.899,9.36,1.899S7.49,1.887,6.62,2.414
	C5.99,2.792,3.988,3.906,3.728,4.301C3.469,4.695,2.783,7.578,2.783,7.578z"/>
<linearGradient id="XMLID_24_" gradientUnits="userSpaceOnUse" x1="-39.345" y1="68.4163" x2="-25.7146" y2="68.4163" gradientTransform="matrix(0.9968 -0.0791 -0.0791 -0.9968 51.444 79.632)">
	<stop  offset="0.1067" style="stop-color:#ECECEC"/>
	<stop  offset="0.3202" style="stop-color:#FFFFFF"/>
	<stop  offset="0.736" style="stop-color:#CCCCCC"/>
	<stop  offset="1" style="stop-color:#424242"/>
</linearGradient>
<path style="fill:url(#XMLID_24_);stroke:#010101;stroke-width:0.25;" d="M6.267,2.728c0,0,0.933-0.821,2.568-1.163
	c1.636-0.336,2.618-0.537,3.57,0.468c0.957,1.006,5.268,10.311,7.115,14.735c0,0,2.502,5.835,1.275,7.68
	c-1.228,1.842-3.541,3.065-4.876,1.468C14.591,24.314,7.767,7.969,6.952,6.08C6.139,4.191,5.52,3.283,6.267,2.728z"/>
<linearGradient id="XMLID_25_" gradientUnits="userSpaceOnUse" x1="-37.7991" y1="71.0168" x2="-26.8972" y2="71.0168" gradientTransform="matrix(0.9968 -0.0791 -0.0791 -0.9968 51.444 79.632)">
	<stop  offset="0" style="stop-color:#F3E755"/>
	<stop  offset="0.9831" style="stop-color:#F2B71B"/>
</linearGradient>
<path style="fill:url(#XMLID_25_);stroke:#010101;stroke-width:0.25;" d="M7.877,5.758C7.518,4.829,7.205,4.069,8.795,3.651
	c1.589-0.417,3.732-1.108,4.188-0.538c0.968,1.21,5.768,10.989,6.465,13.787c0.22,0.87-0.024,1.248-0.972,1.363
	c-0.588,0.076-0.968-0.128-1.726,0.807c-0.757,0.932-1.947,1.109-2.555,0.284C13.141,17.915,8.24,6.686,7.877,5.758z"/>
<linearGradient id="XMLID_26_" gradientUnits="userSpaceOnUse" x1="-11.6116" y1="-46.863" x2="-9.4635" y2="-45.8716" gradientTransform="matrix(0.9023 0.0193 0.0158 -0.7697 12.7133 -32.0738)">
	<stop  offset="0.0056" style="stop-color:#4F4F4F"/>
	<stop  offset="0.3202" style="stop-color:#FFFFFF"/>
	<stop  offset="0.736" style="stop-color:#CCCCCC"/>
	<stop  offset="1" style="stop-color:#424242"/>
</linearGradient>
<path style="fill:url(#XMLID_26_);stroke:#010101;stroke-width:0.25;" d="M0.191,1.418c0,0-0.305-0.559,0.393-0.945
	c0.181-0.101,0.17-0.095,0.627-0.286c0.308-0.128,0.92-0.109,1.275,0.582c0.346,0.67,2.195,4.322,2.195,4.322
	S4.968,5.77,4.283,6.267C3.602,6.761,3.146,6.911,2.852,6.743C2.558,6.58,0.191,1.418,0.191,1.418z"/>
<path style="fill:#97C63D;stroke:#010101;stroke-width:0.25;stroke-linecap:round;stroke-linejoin:round;" d="M9.04,6.249
	c0,0,3.337-0.932,4.265-1.295l4.602,9.781L13.98,16.63L9.04,6.249z"/>
</svg>
