<?xml version="1.0" encoding="iso-8859-1"?>
<!-- Generator: Adobe Illustrator 12.0.1, SVG Export Plug-In . SVG Version: 6.00 Build 51448)  -->
<!DOCTYPE svg PUBLIC "-//W3C//DTD SVG 1.1//EN" "http://www.w3.org/Graphics/SVG/1.1/DTD/svg11.dtd" [
	<!ENTITY ns_svg "http://www.w3.org/2000/svg">
	<!ENTITY ns_xlink "http://www.w3.org/1999/xlink">
]>
<svg  version="1.1" id="&#x56FE;&#x5C42;_1" xmlns="&ns_svg;" xmlns:xlink="&ns_xlink;" width="19.292" height="19"
	 viewBox="0 0 19.292 19" style="overflow:visible;enable-background:new 0 0 19.292 19;" xml:space="preserve">
<rect x="0.5" y="0.146" style="fill:none;" width="18.792" height="18.792"/>
<g>
	<path style="fill:#9BC41E;" d="M7.949,10.063c0.032,0,0.054-0.02,0.091-0.053C7.953,10.041,7.906,10.063,7.949,10.063z"/>
</g>
<g>
	<path style="fill:#9BC41E;" d="M4.353,9.748c0.028,0.014,0.058,0.006,0.105-0.01C4.366,9.729,4.314,9.73,4.353,9.748z"/>
</g>
<g>
	
		<linearGradient id="XMLID_5_" gradientUnits="userSpaceOnUse" x1="-8.8853" y1="-45.9346" x2="-6.2705" y2="-47.031" gradientTransform="matrix(0.9968 -0.0791 0.0791 0.9968 19.7615 56.7563)">
		<stop  offset="0.0056" style="stop-color:#424242"/>
		<stop  offset="0.3202" style="stop-color:#FFFFFF"/>
		<stop  offset="0.736" style="stop-color:#CCCCCC"/>
		<stop  offset="1" style="stop-color:#424242"/>
	</linearGradient>
	<path style="fill:url(#XMLID_5_);stroke:#000000;stroke-width:0.25;" d="M4.058,5.237c0,0,5.618,11.678,6.689,13.09
		c1.073,1.412,5.458-0.32,5.787-2.211c0.332-1.892-8.007-14.738-8.007-14.738S7.256,1.37,6.665,1.728
		C6.237,1.985,4.876,2.741,4.699,3.01C4.523,3.278,4.058,5.237,4.058,5.237z"/>
	
		<linearGradient id="XMLID_6_" gradientUnits="userSpaceOnUse" x1="-9.2241" y1="-47.666" x2="0.0396" y2="-47.666" gradientTransform="matrix(0.9968 -0.0791 0.0791 0.9968 19.7615 56.7563)">
		<stop  offset="0.1067" style="stop-color:#ECECEC"/>
		<stop  offset="0.3202" style="stop-color:#FFFFFF"/>
		<stop  offset="0.736" style="stop-color:#CCCCCC"/>
		<stop  offset="1" style="stop-color:#424242"/>
	</linearGradient>
	<path style="fill:url(#XMLID_6_);stroke:#000000;stroke-width:0.25;" d="M6.425,1.94c0,0,0.634-0.559,1.746-0.79
		c1.111-0.229,1.779-0.366,2.426,0.317c0.65,0.684,3.58,7.007,4.836,10.016c0,0,1.7,3.964,0.867,5.217
		c-0.834,1.252-2.406,2.084-3.313,0.998C12.082,16.61,7.444,5.503,6.892,4.22C6.338,2.936,5.917,2.319,6.425,1.94z"/>
	
		<linearGradient id="XMLID_7_" gradientUnits="userSpaceOnUse" x1="-8.1738" y1="-49.4326" x2="-0.7642" y2="-49.4326" gradientTransform="matrix(0.9968 -0.0791 0.0791 0.9968 19.7615 56.7563)">
		<stop  offset="0" style="stop-color:#F7E855"/>
		<stop  offset="0.9831" style="stop-color:#F7B80D"/>
	</linearGradient>
	<path style="fill:url(#XMLID_7_);stroke:#000000;stroke-width:0.25;" d="M7.52,4C7.274,3.37,7.063,2.853,8.143,2.568
		c1.08-0.283,2.537-0.754,2.847-0.366c0.658,0.822,3.92,7.468,4.394,9.369c0.149,0.594-0.017,0.85-0.66,0.928
		c-0.399,0.051-0.657-0.088-1.172,0.547s-1.324,0.755-1.736,0.193C11.097,12.263,7.766,4.63,7.52,4z"/>
	
		<linearGradient id="XMLID_8_" gradientUnits="userSpaceOnUse" x1="-21.7935" y1="-39.042" x2="-20.3331" y2="-39.716" gradientTransform="matrix(0.9023 0.0193 -0.0158 0.7697 22.2299 33.1229)">
		<stop  offset="0.0056" style="stop-color:#4F4F4F"/>
		<stop  offset="0.3202" style="stop-color:#FFFFFF"/>
		<stop  offset="0.736" style="stop-color:#CCCCCC"/>
		<stop  offset="1" style="stop-color:#424242"/>
	</linearGradient>
	<path style="fill:url(#XMLID_8_);stroke:#000000;stroke-width:0.25;" d="M2.296,1.051c0,0-0.207-0.38,0.267-0.643
		C2.685,0.34,2.679,0.343,2.989,0.214C3.197,0.126,3.614,0.139,3.855,0.61c0.235,0.454,1.492,2.938,1.492,2.938
		s0.194,0.461-0.271,0.797C4.613,4.683,4.305,4.784,4.104,4.671C3.904,4.56,2.296,1.051,2.296,1.051z"/>
	<path style="fill:#99CA22;stroke:#000000;stroke-width:0.25;stroke-linecap:round;stroke-linejoin:round;" d="M8.31,4.333
		c0,0,2.268-0.631,2.897-0.879l3.127,6.647l-2.667,1.286L8.31,4.333z"/>
</g>
<rect style="fill:none;" width="19" height="19"/>
</svg>
