<?xml version="1.0" encoding="iso-8859-1"?>
<!-- Generator: Adobe Illustrator 12.0.1, SVG Export Plug-In . SVG Version: 6.00 Build 51448)  -->
<!DOCTYPE svg PUBLIC "-//W3C//DTD SVG 1.1//EN" "http://www.w3.org/Graphics/SVG/1.1/DTD/svg11.dtd" [
	<!ENTITY ns_svg "http://www.w3.org/2000/svg">
	<!ENTITY ns_xlink "http://www.w3.org/1999/xlink">
]>
<svg  version="1.1" id="&#xCD;_xBC__xB2_&#xE3;_x5F_1" xmlns="&ns_svg;" xmlns:xlink="&ns_xlink;" width="27.88" height="27.888"
	 viewBox="0 0 27.88 27.888" style="overflow:visible;enable-background:new 0 0 27.88 27.888;" xml:space="preserve">
<g>
	
		<linearGradient id="XMLID_5_" gradientUnits="userSpaceOnUse" x1="-8.1221" y1="-49.4829" x2="-4.2747" y2="-51.0962" gradientTransform="matrix(0.9968 -0.0791 0.0791 0.9968 19.5235 65.8914)">
		<stop  offset="0.0056" style="stop-color:#424242"/>
		<stop  offset="0.3202" style="stop-color:#FFFFFF"/>
		<stop  offset="0.736" style="stop-color:#CCCCCC"/>
		<stop  offset="1" style="stop-color:#424242"/>
	</linearGradient>
	<path style="fill:url(#XMLID_5_);stroke:#010101;stroke-width:0.25;" d="M2.783,7.741c0,0,8.268,17.184,9.844,19.262
		c1.579,2.078,8.031-0.473,8.516-3.254C21.631,20.966,9.36,2.062,9.36,2.062S7.49,2.049,6.62,2.577
		C5.99,2.955,3.988,4.068,3.728,4.463C3.469,4.858,2.783,7.741,2.783,7.741z"/>
	
		<linearGradient id="XMLID_6_" gradientUnits="userSpaceOnUse" x1="-8.6221" y1="-52.0313" x2="5.0098" y2="-52.0313" gradientTransform="matrix(0.9968 -0.0791 0.0791 0.9968 19.5235 65.8914)">
		<stop  offset="0.1067" style="stop-color:#ECECEC"/>
		<stop  offset="0.3202" style="stop-color:#FFFFFF"/>
		<stop  offset="0.736" style="stop-color:#CCCCCC"/>
		<stop  offset="1" style="stop-color:#424242"/>
	</linearGradient>
	<path style="fill:url(#XMLID_6_);stroke:#010101;stroke-width:0.25;" d="M6.267,2.89c0,0,0.933-0.822,2.569-1.163
		c1.635-0.336,2.618-0.537,3.57,0.467c0.957,1.006,5.268,10.311,7.115,14.737c0,0,2.502,5.834,1.276,7.678
		c-1.228,1.842-3.541,3.066-4.876,1.469C14.592,24.476,7.768,8.13,6.953,6.242C6.139,4.354,5.52,3.446,6.267,2.89z"/>
	
		<linearGradient id="XMLID_7_" gradientUnits="userSpaceOnUse" x1="-7.0757" y1="-54.6309" x2="3.8267" y2="-54.6309" gradientTransform="matrix(0.9968 -0.0791 0.0791 0.9968 19.5235 65.8914)">
		<stop  offset="0" style="stop-color:#F3E755"/>
		<stop  offset="0.9831" style="stop-color:#F2B71B"/>
	</linearGradient>
	<path style="fill:url(#XMLID_7_);stroke:#010101;stroke-width:0.25;" d="M7.877,5.92C7.518,4.992,7.205,4.232,8.795,3.814
		c1.589-0.417,3.732-1.109,4.188-0.538c0.968,1.209,5.768,10.989,6.465,13.788c0.22,0.869-0.024,1.248-0.972,1.363
		c-0.588,0.076-0.967-0.129-1.725,0.807c-0.757,0.93-1.948,1.109-2.555,0.283C13.141,18.077,8.24,6.848,7.877,5.92z"/>
	
		<linearGradient id="XMLID_8_" gradientUnits="userSpaceOnUse" x1="-36.2217" y1="-36.4185" x2="-34.073" y2="-37.4101" gradientTransform="matrix(0.9023 0.0193 -0.0158 0.7697 33.604 32.6661)">
		<stop  offset="0.0056" style="stop-color:#4F4F4F"/>
		<stop  offset="0.3202" style="stop-color:#FFFFFF"/>
		<stop  offset="0.736" style="stop-color:#CCCCCC"/>
		<stop  offset="1" style="stop-color:#424242"/>
	</linearGradient>
	<path style="fill:url(#XMLID_8_);stroke:#010101;stroke-width:0.25;" d="M0.191,1.581c0,0-0.305-0.558,0.393-0.945
		c0.18-0.101,0.17-0.095,0.627-0.286c0.307-0.128,0.92-0.11,1.275,0.582c0.346,0.67,2.195,4.322,2.195,4.322
		s0.286,0.679-0.398,1.176C3.602,6.923,3.146,7.074,2.852,6.906C2.558,6.743,0.191,1.581,0.191,1.581z"/>
	<path style="fill:#97C63D;stroke:#010101;stroke-width:0.25;stroke-linecap:round;stroke-linejoin:round;" d="M9.04,6.412
		c0,0,3.337-0.931,4.264-1.295l4.602,9.783l-3.925,1.893L9.04,6.412z"/>
</g>
<path style="fill:#EA2D2E;stroke:#000000;stroke-width:0.5;" d="M16.494,1.751c-2.957,2.364-3.437,6.678-1.072,9.634
	c2.365,2.957,6.678,3.438,9.634,1.072c2.956-2.364,3.436-6.678,1.072-9.634C23.764-0.133,19.451-0.612,16.494,1.751z M17.84,3.435
	c1.681-1.344,3.991-1.329,5.659-0.136l-7.035,5.626C15.667,7.036,16.159,4.778,17.84,3.435z M23.71,10.775
	c-1.681,1.345-3.991,1.329-5.659,0.136l7.036-5.626C25.884,7.174,25.392,9.431,23.71,10.775z"/>
</svg>
