<?xml version="1.0" encoding="iso-8859-1"?>
<!-- Generator: Adobe Illustrator 12.0.1, SVG Export Plug-In . SVG Version: 6.00 Build 51448)  -->
<!DOCTYPE svg PUBLIC "-//W3C//DTD SVG 1.1//EN" "http://www.w3.org/Graphics/SVG/1.1/DTD/svg11.dtd" [
	<!ENTITY ns_svg "http://www.w3.org/2000/svg">
	<!ENTITY ns_xlink "http://www.w3.org/1999/xlink">
]>
<svg  version="1.1" id="&#x56FE;&#x5C42;_1" xmlns="&ns_svg;" xmlns:xlink="&ns_xlink;" width="13.247" height="11.859"
	 viewBox="0 0 13.247 11.859" style="overflow:visible;enable-background:new 0 0 13.247 11.859;" xml:space="preserve">
<g>
	<polygon style="fill:#ABB1B8;stroke:#58595B;stroke-width:0.5;" points="7.442,3.766 7.442,5.028 4.91,5.028 4.91,3.766 
		3.905,3.766 3.905,6.465 4.873,6.465 4.91,6.465 7.442,6.465 7.628,6.465 8.446,6.465 8.446,3.766 	"/>
	<g>
		<g>
			<g>
				<path style="fill:#ABB1B8;stroke:#3E3E3F;stroke-width:0.5;" d="M11.165,4.583c0.416-0.282,0.725-1.23,0.521-1.949
					s-0.409-1.838-2.755-1.926c-0.059-0.002-5.579,0-5.579,0C1.467,0.543,0.815,2.34,0.815,2.34
					c-0.261,0.689,0.08,1.963,0.372,2.352c0,0,2.12,0,2.569,0c0.019,0,0.837-0.479,0.335-2.373c0,0,3.962-0.042,3.956-0.009
					C7.776,3.723,8.704,4.614,8.708,4.593C8.708,4.593,11.179,4.597,11.165,4.583z"/>
			</g>
		</g>
	</g>
	<linearGradient id="XMLID_8_" gradientUnits="userSpaceOnUse" x1="6.2715" y1="6.0146" x2="6.2138" y2="16.3886">
		<stop  offset="0.0056" style="stop-color:#A4AAB1"/>
		<stop  offset="0.212" style="stop-color:#A2A8AF"/>
		<stop  offset="0.2863" style="stop-color:#9CA2A8"/>
		<stop  offset="0.3393" style="stop-color:#92969D"/>
		<stop  offset="0.3821" style="stop-color:#83868C"/>
		<stop  offset="0.4188" style="stop-color:#6F7176"/>
		<stop  offset="0.4513" style="stop-color:#57575A"/>
		<stop  offset="0.48" style="stop-color:#3B393B"/>
		<stop  offset="0.5" style="stop-color:#231F20"/>
	</linearGradient>
	<path style="fill:url(#XMLID_8_);stroke:#6F7073;stroke-width:0.5;" d="M11.723,11.604c0-0.043-11.187,0.022-11.205,0
		c-1.211-1.416,2.084-5.312,2.084-5.312h7.222C13.714,11.104,11.741,11.627,11.723,11.604z"/>
	<g>
		<g>
			<g>
				<polygon style="fill:#EBEBEB;" points="7.689,7.142 7.688,7.932 9.028,7.932 9.024,9.496 7.684,9.496 7.682,10.285 
					5.036,10.285 5.038,9.496 3.696,9.496 3.7,7.932 5.042,7.932 5.043,7.142 				"/>
			</g>
		</g>
	</g>
	<ellipse style="fill:#99363A;stroke:#231F20;stroke-width:0.5;" cx="10.955" cy="2.124" rx="2.042" ry="1.873"/>
	<ellipse style="fill:#5E4100;stroke:#231F20;stroke-width:0.5;" cx="10.955" cy="5.961" rx="2.042" ry="1.874"/>
	<ellipse style="fill:#00FF00;stroke:#231F20;stroke-width:0.5;" cx="10.955" cy="9.708" rx="2.042" ry="1.874"/>
</g>
</svg>
