<?xml version="1.0" encoding="iso-8859-1"?>
<!-- Generator: Adobe Illustrator 12.0.1, SVG Export Plug-In . SVG Version: 6.00 Build 51448)  -->
<!DOCTYPE svg PUBLIC "-//W3C//DTD SVG 1.1//EN" "http://www.w3.org/Graphics/SVG/1.1/DTD/svg11.dtd" [
	<!ENTITY ns_svg "http://www.w3.org/2000/svg">
	<!ENTITY ns_xlink "http://www.w3.org/1999/xlink">
]>
<svg  version="1.1" id="&#x56FE;&#x5C42;_1" xmlns="&ns_svg;" xmlns:xlink="&ns_xlink;" width="21.677" height="21.676"
	 viewBox="0 0 21.677 21.676" style="overflow:visible;enable-background:new 0 0 21.677 21.676;" xml:space="preserve">
<g>
	<radialGradient id="XMLID_2_" cx="12.7578" cy="4.1387" r="17.4642" gradientUnits="userSpaceOnUse">
		<stop  offset="0" style="stop-color:#FDF1E0"/>
		<stop  offset="0.1017" style="stop-color:#E3E9DE"/>
		<stop  offset="0.32" style="stop-color:#9FD4D8"/>
		<stop  offset="0.6356" style="stop-color:#34B2CE"/>
		<stop  offset="0.6798" style="stop-color:#24ADCD"/>
	</radialGradient>
	<circle style="fill:url(#XMLID_2_);stroke:#454545;stroke-width:0.5;" cx="10.838" cy="10.837" r="10.588"/>
	<path style="fill:#EDF004;" d="M13.543,18.336c0,0,0.95,0.223,0.908,0.839c-0.043,0.619-3.481,1.983-3.481,1.983
		s3.878,0.399,7.12-2.958c3.241-3.36-0.039-0.527-0.039-0.527s1.514-2.078,1.303-2.829c-0.212-0.75-0.884-1.59-1.221-0.839
		c-0.337,0.752-0.505-0.442-0.505-0.442s-0.126,0.046-0.422-0.176c-0.294-0.22-0.042,0.398-0.42,0.708
		c-0.379,0.309-0.212-0.619-0.294-1.016c-0.085-0.398-1.517-0.355-1.687-0.089c-0.167,0.265-0.42,0.574-0.42,0.574l-0.083-0.84
		c0,0-0.254,0.752-0.548,0.84c-0.294,0.089,0.167,0.707-1.136,0.354c-1.306-0.354-0.59-0.883-0.59-0.883l0.464-0.531
		c0,0-0.379,0.133-0.801-0.176c-0.42-0.311-0.296-1.238-0.296-1.238s-0.714-0.22-0.925,0.574c-0.211,0.796-0.757,0.22-0.927,0.309
		c-0.168,0.09-1.177-2.032,0.59-2.604c1.769-0.577,1.01,0.338,1.01,0.338s0.844-0.517,0.844,0.058s0.335,0.133,0.335,0.133
		s-0.673-1.019-0.126-1.371c0.546-0.353,1.18-2.475,1.516-2.475s1.011-0.574,1.011-0.574s0.211-0.222-0.506-0.487
		c-0.716-0.266,0.632-0.794,0.085-1.058c-0.548-0.268-1.264-0.797-1.264-0.797s-0.252-0.397-0.252,0
		c0,0.398-1.137-0.486-1.137-0.486s0.588,1.327,0.253,1.546c-0.338,0.222-0.338,0.222-0.338,0.222s-0.252,0-1.179-0.84
		c-0.925-0.839-0.252-0.973,0.296-0.973c0.546,0,0.375-0.296,0.375-0.296s-0.503,0.075-0.797-0.232
		c-0.294-0.311-1.474,0.13-0.59-0.046c2.278-0.458-1.617-0.098-1.978-0.398C7.314,1.316,8.03,2.042,7.105,1.821
		C6.18,1.602,7.298,1.456,7.298,1.456S7.091,1.213,6.936,1.28C4.251,2.43,3.781,3.679,3.851,3.405
		c0.053-0.208,1.571-0.933,1.571-0.933s-0.255,0.708,0,0.884c0.25,0.178,0.631,0.222,0.294,0.707
		C5.378,4.55,5.631,5.212,5.631,5.212s-1.01,1.105-0.673,1.856c0.335,0.75,0.503,0.575,0.503,0.575s1.728,2.695,2.149,3.359
		c0.418,0.662,0.882,0.353,0.882,0.353l-0.588,0.309c0,0,0.379,0.442,0.799,0.531c0.422,0.087,0.927,0.133,0.927,0.133
		s0.463,0.442,0.59,0.442c0.126,0,1.177,0.22,1.177,0.22l0.592,1.062l0.714,0.089c0,0,2.021,0.176-0.041,1.765
		c-2.063,1.592-0.297,1.459,0,0.576c0.293-0.885,0.882,0.353,0.293,1.104"/>
	<path style="fill:#4E6211;" d="M9.943,19.401c0,0,0.959-1.315,0.824-1.791c-0.13-0.476-0.56-1.006-0.772-0.531
		C9.781,17.555,9.678,16.8,9.678,16.8s-0.081,0.027-0.269-0.112c-0.187-0.139-0.025,0.251-0.265,0.447
		c-0.241,0.196-0.135-0.39-0.188-0.642c-0.054-0.252-0.959-0.225-1.066-0.057C7.785,16.604,7.626,16.8,7.626,16.8l-0.055-0.532
		c0,0-0.161,0.477-0.346,0.532c-0.185,0.054,0.098,0.436-0.689,0.23c-0.022,0.038-0.035,0.081-0.039,0.124l0.06,0.01
		c0,0,1.282,0.111-0.023,1.117c-0.188,0.146-0.321,0.266-0.42,0.367c-0.007,0.094-0.007,0.242,0.027,0.381
		c0.149-0.053,0.328-0.188,0.393-0.383c0.186-0.561,0.559,0.223,0.186,0.698l0.084,0.108c0.007-0.002,0.012-0.003,0.012-0.003
		l-0.007,0.007l0.284,0.364c0,0,0.423,0.054,0.449,0.39c0.011-0.041,0.028-0.076,0.072-0.09C7.8,20.064,7.961,19.59,7.961,19.59
		l0.054,0.531c0,0,0.159-0.195,0.267-0.363c0.105-0.168,1.011-0.195,1.065,0.056c0.016,0.071,0.018,0.167,0.018,0.266
		c0.069-0.065,0.135-0.13,0.207-0.202C11.623,17.751,9.943,19.401,9.943,19.401z"/>
	<path style="fill:#7A9A17;" d="M6.74,16.627c-0.101-0.229-0.23-0.632,0.005-0.81c0.045-0.033,0.094-0.09,0.14-0.164
		c-0.051-0.162-0.097-0.285-0.097-0.285s0.076,0.067,0.177,0.148c0.273-0.522,0.552-1.467,0.715-1.467
		c0.209,0,0.625-0.41,0.625-0.41s0.131-0.159-0.313-0.348c-0.439-0.19,0.392-0.568,0.052-0.757c-0.334-0.191-0.778-0.57-0.778-0.57
		s-0.154-0.283-0.154,0c0,0.286-0.703-0.347-0.703-0.347s0.363,0.948,0.156,1.105c-0.209,0.158-0.209,0.158-0.209,0.158
		s-0.154,0-0.726-0.601c-0.572-0.599-0.157-0.695,0.18-0.695s0.104-0.379,0.104-0.379s-0.181,0.221-0.362,0
		c-0.068-0.082-0.06-0.125-0.053-0.14c-0.018,0.015-0.085,0.057-0.311,0.109c-0.547,0.126-1.169,0.252-1.222-0.284
		s0.105,0.252-0.468,0.095c-0.572-0.158-0.209-0.095-0.209-0.095s0.305-0.294,0.209-0.252c-1.386,0.595-1.721,1.01-1.875,1.179
		c0.296-0.12,0.939-0.328,0.939-0.328s-0.156,0.506,0,0.633c0.154,0.127,0.39,0.157,0.182,0.505
		c-0.207,0.348-0.053,0.821-0.053,0.821s-0.622,0.79-0.416,1.327c0.081,0.208,0.146,0.314,0.195,0.37
		c0.275-0.202,0.705-0.457,1.406-0.756c0.098-0.042-0.207,0.251-0.207,0.251s-0.365-0.062,0.207,0.095
		c0.572,0.158,0.415-0.631,0.468-0.095c0.053,0.539,0.675,0.411,1.22,0.285c0.228-0.052,0.297-0.095,0.313-0.107
		c-0.007,0.013-0.014,0.056,0.052,0.139c0.183,0.222,0.365,0,0.365,0s0.233,0.379-0.104,0.379s-0.752,0.094-0.183,0.693
		c0.054,0.058,0.103,0.104,0.15,0.153c0.161,0.081,0.351,0.205,0.427,0.372c0.11,0.076,0.151,0.076,0.151,0.076
		S6.735,16.63,6.74,16.627z"/>
	<path style="fill:#9BC41E;" d="M0.266,10.648c0.043,0,0.076-0.026,0.127-0.074C0.269,10.617,0.204,10.648,0.266,10.648z"/>
	<path style="fill:#90C31F;" d="M11.207,1.799c0,0,2.087-0.34,4.286,1.134c2.202,1.477,0.455,0.113,0.477,0
		c0.023-0.113-0.748-0.929-0.477-0.929c0.272,0-0.032-0.358-0.032-0.358S12.85,0.254,12.546,0.96
		c-0.207,0.476-0.024,0.385-0.024,0.385s-0.431,0.228-0.522-0.045c-0.092-0.272,0.296-0.136,0.296-0.136s-0.794-0.294-0.84-0.114
		C11.409,1.233,11.207,1.799,11.207,1.799z"/>
</g>
</svg>
