<?xml version="1.0" encoding="iso-8859-1"?>
<!-- Generator: Adobe Illustrator 12.0.1, SVG Export Plug-In . SVG Version: 6.00 Build 51448)  -->
<!DOCTYPE svg PUBLIC "-//W3C//DTD SVG 1.1//EN" "http://www.w3.org/Graphics/SVG/1.1/DTD/svg11.dtd" [
	<!ENTITY ns_svg "http://www.w3.org/2000/svg">
	<!ENTITY ns_xlink "http://www.w3.org/1999/xlink">
]>
<svg  version="1.1" id="&#xCD;_xBC__xB2_&#xE3;_x5F_1" xmlns="&ns_svg;" xmlns:xlink="&ns_xlink;" width="17.854" height="29.043"
	 viewBox="0 0 17.854 29.043" style="overflow:visible;enable-background:new 0 0 17.854 29.043;" xml:space="preserve">
<rect x="-5.073" y="1.522" style="fill:none;" width="27.583" height="27.583"/>
<g>
	<polygon style="fill:#99A2B3;stroke:#000000;" points="12.488,2.167 0.5,2.167 0.5,28.543 17.354,28.543 17.354,8.703 	"/>
	
		<radialGradient id="XMLID_22_" cx="53.7903" cy="872.0996" r="6.3365" gradientTransform="matrix(0.8949 0 0 0.895 -40.0497 -763.3768)" gradientUnits="userSpaceOnUse">
		<stop  offset="0.0169" style="stop-color:#E3B92C"/>
		<stop  offset="1" style="stop-color:#FFF9B1"/>
	</radialGradient>
	<polygon style="fill:url(#XMLID_22_);stroke:#000000;stroke-width:0.75;" points="14.297,12.957 14.352,25.823 13.008,26.549 
		3.055,26.549 2.271,25.602 2.271,12.846 3.277,11.895 13.291,11.895 	"/>
	<path style="opacity:0.67;fill:none;stroke:#000000;stroke-width:0.75;enable-background:new    ;" d="M4.135,26.12h3.098v-5.222
		H4.135V26.12z M7.578,26.12h3.096v-5.222H7.578V26.12z M10.807,20.898v5.222h3.063v-5.222H10.807z"/>
	<path style="opacity:0.67;fill:none;stroke:#000000;stroke-width:0.75;enable-background:new    ;" d="M3.838,17.84h3.096v-5.294
		H3.838V17.84z M7.279,17.84h3.1v-5.294h-3.1V17.84z M10.582,12.546v5.294h3.1v-5.294H10.582z"/>
</g>
</svg>
