<?xml version="1.0" encoding="iso-8859-1"?>
<!-- Generator: Adobe Illustrator 12.0.1, SVG Export Plug-In . SVG Version: 6.00 Build 51448)  -->
<!DOCTYPE svg PUBLIC "-//W3C//DTD SVG 1.1//EN" "http://www.w3.org/Graphics/SVG/1.1/DTD/svg11.dtd" [
	<!ENTITY ns_svg "http://www.w3.org/2000/svg">
	<!ENTITY ns_xlink "http://www.w3.org/1999/xlink">
]>
<svg  version="1.1" id="&#x56FE;&#x5C42;_1" xmlns="&ns_svg;" xmlns:xlink="&ns_xlink;" width="18.792" height="18.922"
	 viewBox="0 0 18.792 18.922" style="overflow:visible;enable-background:new 0 0 18.792 18.922;" xml:space="preserve">
<rect y="0.099" style="fill:none;" width="18.792" height="18.792"/>
<rect x="2" y="8.237" style="fill:#E6DAA9;stroke:#000000;stroke-width:0.5;" width="15.086" height="10.182"/>
<polygon style="fill:#FFEDB8;stroke:#000000;stroke-width:0.5;" points="9.546,9.798 16.812,18.295 2.351,18.295 "/>
<polygon style="fill:#FFFFFF;stroke:#000000;stroke-width:0.5;" points="9.58,16.933 2.188,8.312 16.899,8.312 "/>
<g>
	<path style="fill:#9BC41E;" d="M7.449,10.016c0.032,0,0.054-0.02,0.091-0.053C7.453,9.994,7.405,10.016,7.449,10.016z"/>
</g>
<g>
	<path style="fill:#9BC41E;" d="M3.853,9.701c0.028,0.014,0.058,0.006,0.105-0.01C3.866,9.682,3.813,9.684,3.853,9.701z"/>
</g>
<g>
	
		<linearGradient id="XMLID_5_" gradientUnits="userSpaceOnUse" x1="-9.3857" y1="-45.9814" x2="-6.771" y2="-47.0779" gradientTransform="matrix(0.9968 -0.0791 0.0791 0.9968 19.7636 56.7166)">
		<stop  offset="0.0056" style="stop-color:#424242"/>
		<stop  offset="0.3202" style="stop-color:#FFFFFF"/>
		<stop  offset="0.736" style="stop-color:#CCCCCC"/>
		<stop  offset="1" style="stop-color:#424242"/>
	</linearGradient>
	<path style="fill:url(#XMLID_5_);stroke:#000000;stroke-width:0.25;" d="M3.557,5.19c0,0,5.618,11.678,6.689,13.09
		c1.073,1.412,5.458-0.32,5.787-2.211c0.332-1.892-8.007-14.738-8.007-14.738s-1.271-0.008-1.862,0.35
		C5.737,1.938,4.375,2.694,4.199,2.963C4.023,3.231,3.557,5.19,3.557,5.19z"/>
	
		<linearGradient id="XMLID_6_" gradientUnits="userSpaceOnUse" x1="-9.7246" y1="-47.7129" x2="-0.4609" y2="-47.7129" gradientTransform="matrix(0.9968 -0.0791 0.0791 0.9968 19.7636 56.7166)">
		<stop  offset="0.1067" style="stop-color:#ECECEC"/>
		<stop  offset="0.3202" style="stop-color:#FFFFFF"/>
		<stop  offset="0.736" style="stop-color:#CCCCCC"/>
		<stop  offset="1" style="stop-color:#424242"/>
	</linearGradient>
	<path style="fill:url(#XMLID_6_);stroke:#000000;stroke-width:0.25;" d="M5.924,1.894c0,0,0.634-0.559,1.746-0.79
		c1.111-0.229,1.779-0.366,2.426,0.317c0.65,0.684,3.58,7.007,4.836,10.016c0,0,1.7,3.964,0.867,5.217
		c-0.834,1.252-2.406,2.084-3.313,0.998C11.582,16.563,6.944,5.456,6.391,4.173C5.837,2.889,5.417,2.272,5.924,1.894z"/>
	
		<linearGradient id="XMLID_7_" gradientUnits="userSpaceOnUse" x1="-8.6743" y1="-49.4795" x2="-1.2646" y2="-49.4795" gradientTransform="matrix(0.9968 -0.0791 0.0791 0.9968 19.7636 56.7166)">
		<stop  offset="0" style="stop-color:#F7E855"/>
		<stop  offset="0.9831" style="stop-color:#F7B80D"/>
	</linearGradient>
	<path style="fill:url(#XMLID_7_);stroke:#000000;stroke-width:0.25;" d="M7.019,3.953c-0.245-0.63-0.457-1.147,0.623-1.432
		c1.08-0.283,2.537-0.754,2.847-0.366c0.658,0.822,3.92,7.468,4.394,9.369c0.149,0.594-0.017,0.85-0.66,0.928
		c-0.399,0.051-0.657-0.088-1.172,0.547s-1.324,0.755-1.736,0.193C10.596,12.216,7.265,4.583,7.019,3.953z"/>
	
		<linearGradient id="XMLID_8_" gradientUnits="userSpaceOnUse" x1="-22.2939" y1="-39.0889" x2="-20.8335" y2="-39.7629" gradientTransform="matrix(0.9023 0.0193 -0.0158 0.7697 22.1803 33.1218)">
		<stop  offset="0.0056" style="stop-color:#4F4F4F"/>
		<stop  offset="0.3202" style="stop-color:#FFFFFF"/>
		<stop  offset="0.736" style="stop-color:#CCCCCC"/>
		<stop  offset="1" style="stop-color:#424242"/>
	</linearGradient>
	<path style="fill:url(#XMLID_8_);stroke:#000000;stroke-width:0.25;" d="M1.795,1.004c0,0-0.207-0.38,0.267-0.643
		c0.122-0.068,0.116-0.065,0.427-0.194C2.697,0.08,3.114,0.092,3.355,0.563C3.59,1.017,4.847,3.501,4.847,3.501
		s0.194,0.461-0.271,0.797C4.113,4.636,3.804,4.737,3.603,4.624C3.404,4.513,1.795,1.004,1.795,1.004z"/>
	<path style="fill:#99CA22;stroke:#000000;stroke-width:0.25;stroke-linecap:round;stroke-linejoin:round;" d="M7.809,4.286
		c0,0,2.268-0.631,2.897-0.879l3.127,6.647l-2.667,1.286L7.809,4.286z"/>
</g>
</svg>
