<?xml version="1.0" encoding="iso-8859-1"?>
<!-- Generator: Adobe Illustrator 12.0.1, SVG Export Plug-In . SVG Version: 6.00 Build 51448)  -->
<!DOCTYPE svg PUBLIC "-//W3C//DTD SVG 1.1//EN" "http://www.w3.org/Graphics/SVG/1.1/DTD/svg11.dtd" [
	<!ENTITY ns_svg "http://www.w3.org/2000/svg">
	<!ENTITY ns_xlink "http://www.w3.org/1999/xlink">
]>
<svg  version="1.1" id="&#xCD;_xBC__xB2_&#xE3;_x5F_1" xmlns="&ns_svg;" xmlns:xlink="&ns_xlink;" width="27.659" height="27.725"
	 viewBox="0 0 27.659 27.725" style="overflow:visible;enable-background:new 0 0 27.659 27.725;" xml:space="preserve">
<g>
	<linearGradient id="XMLID_10_" gradientUnits="userSpaceOnUse" x1="27.6592" y1="13.4316" x2="13.4092" y2="13.4316">
		<stop  offset="0" style="stop-color:#DDE0F1"/>
		<stop  offset="0.0506" style="stop-color:#D3D6EC"/>
		<stop  offset="0.1383" style="stop-color:#B7BADD"/>
		<stop  offset="0.2525" style="stop-color:#9191C7"/>
		<stop  offset="0.3872" style="stop-color:#6466AE"/>
		<stop  offset="0.4944" style="stop-color:#3C459C"/>
	</linearGradient>
	<rect x="13.409" y="12.744" style="fill:url(#XMLID_10_);" width="14.25" height="1.375"/>
	<linearGradient id="XMLID_11_" gradientUnits="userSpaceOnUse" x1="25.7842" y1="11.0566" x2="11.5342" y2="11.0566">
		<stop  offset="0" style="stop-color:#DDE0F1"/>
		<stop  offset="0.0506" style="stop-color:#D3D6EC"/>
		<stop  offset="0.1383" style="stop-color:#B7BADD"/>
		<stop  offset="0.2525" style="stop-color:#9191C7"/>
		<stop  offset="0.3872" style="stop-color:#6466AE"/>
		<stop  offset="0.4944" style="stop-color:#3C459C"/>
	</linearGradient>
	<rect x="11.534" y="10.369" style="fill:url(#XMLID_11_);" width="14.25" height="1.375"/>
	<linearGradient id="XMLID_12_" gradientUnits="userSpaceOnUse" x1="24.2217" y1="8.6821" x2="9.9717" y2="8.6821">
		<stop  offset="0" style="stop-color:#DDE0F1"/>
		<stop  offset="0.0506" style="stop-color:#D3D6EC"/>
		<stop  offset="0.1383" style="stop-color:#B7BADD"/>
		<stop  offset="0.2525" style="stop-color:#9191C7"/>
		<stop  offset="0.3872" style="stop-color:#6466AE"/>
		<stop  offset="0.4944" style="stop-color:#3C459C"/>
	</linearGradient>
	<rect x="9.972" y="7.994" style="fill:url(#XMLID_12_);" width="14.25" height="1.375"/>
	<linearGradient id="XMLID_13_" gradientUnits="userSpaceOnUse" x1="22.6592" y1="6.2441" x2="8.4092" y2="6.2441">
		<stop  offset="0" style="stop-color:#DDE0F1"/>
		<stop  offset="0.0506" style="stop-color:#D3D6EC"/>
		<stop  offset="0.1383" style="stop-color:#B7BADD"/>
		<stop  offset="0.2525" style="stop-color:#9191C7"/>
		<stop  offset="0.3872" style="stop-color:#6466AE"/>
		<stop  offset="0.4944" style="stop-color:#3C459C"/>
	</linearGradient>
	<rect x="8.409" y="5.557" style="fill:url(#XMLID_13_);" width="14.25" height="1.375"/>
	<linearGradient id="XMLID_14_" gradientUnits="userSpaceOnUse" x1="21.1592" y1="3.9316" x2="6.9092" y2="3.9316">
		<stop  offset="0" style="stop-color:#DDE0F1"/>
		<stop  offset="0.0506" style="stop-color:#D3D6EC"/>
		<stop  offset="0.1383" style="stop-color:#B7BADD"/>
		<stop  offset="0.2525" style="stop-color:#9191C7"/>
		<stop  offset="0.3872" style="stop-color:#6466AE"/>
		<stop  offset="0.4944" style="stop-color:#3C459C"/>
	</linearGradient>
	<rect x="6.909" y="3.244" style="fill:url(#XMLID_14_);" width="14.25" height="1.375"/>
</g>
<g>
	
		<linearGradient id="XMLID_15_" gradientUnits="userSpaceOnUse" x1="-7.9185" y1="-60.0063" x2="-4.0711" y2="-61.6197" gradientTransform="matrix(0.9968 -0.0791 0.0791 0.9968 20.1529 76.2351)">
		<stop  offset="0.0056" style="stop-color:#424242"/>
		<stop  offset="0.3202" style="stop-color:#FFFFFF"/>
		<stop  offset="0.736" style="stop-color:#CCCCCC"/>
		<stop  offset="1" style="stop-color:#424242"/>
	</linearGradient>
	<path style="fill:url(#XMLID_15_);stroke:#010101;stroke-width:0.25;" d="M2.783,7.578c0,0,8.268,17.184,9.844,19.262
		c1.579,2.078,8.031-0.472,8.516-3.253C21.631,20.803,9.36,1.899,9.36,1.899S7.49,1.887,6.62,2.414
		C5.99,2.792,3.988,3.905,3.728,4.301C3.469,4.695,2.783,7.578,2.783,7.578z"/>
	
		<linearGradient id="XMLID_16_" gradientUnits="userSpaceOnUse" x1="-8.4185" y1="-62.5547" x2="5.2134" y2="-62.5547" gradientTransform="matrix(0.9968 -0.0791 0.0791 0.9968 20.1529 76.2351)">
		<stop  offset="0.1067" style="stop-color:#ECECEC"/>
		<stop  offset="0.3202" style="stop-color:#FFFFFF"/>
		<stop  offset="0.736" style="stop-color:#CCCCCC"/>
		<stop  offset="1" style="stop-color:#424242"/>
	</linearGradient>
	<path style="fill:url(#XMLID_16_);stroke:#010101;stroke-width:0.25;" d="M6.267,2.728c0,0,0.933-0.822,2.569-1.163
		c1.635-0.336,2.618-0.537,3.57,0.467c0.957,1.006,5.268,10.311,7.115,14.736c0,0,2.502,5.835,1.276,7.679
		c-1.228,1.842-3.541,3.066-4.876,1.468c-1.33-1.601-8.154-17.946-8.969-19.835C6.139,4.191,5.52,3.283,6.267,2.728z"/>
	
		<linearGradient id="XMLID_17_" gradientUnits="userSpaceOnUse" x1="-6.8721" y1="-65.1548" x2="4.0303" y2="-65.1548" gradientTransform="matrix(0.9968 -0.0791 0.0791 0.9968 20.1529 76.2351)">
		<stop  offset="0" style="stop-color:#F3E755"/>
		<stop  offset="0.9831" style="stop-color:#F2B71B"/>
	</linearGradient>
	<path style="fill:url(#XMLID_17_);stroke:#010101;stroke-width:0.25;" d="M7.877,5.758C7.518,4.829,7.205,4.069,8.795,3.651
		c1.589-0.417,3.732-1.109,4.188-0.538c0.968,1.209,5.768,10.989,6.465,13.787c0.22,0.87-0.024,1.248-0.972,1.363
		c-0.588,0.076-0.967-0.128-1.725,0.807c-0.757,0.931-1.948,1.109-2.555,0.284C13.141,17.915,8.24,6.686,7.877,5.758z"/>
	
		<linearGradient id="XMLID_18_" gradientUnits="userSpaceOnUse" x1="-50.2729" y1="-32.1997" x2="-48.1241" y2="-33.1914" gradientTransform="matrix(0.9023 0.0193 -0.0158 0.7697 46.3484 29.5269)">
		<stop  offset="0.0056" style="stop-color:#4F4F4F"/>
		<stop  offset="0.3202" style="stop-color:#FFFFFF"/>
		<stop  offset="0.736" style="stop-color:#CCCCCC"/>
		<stop  offset="1" style="stop-color:#424242"/>
	</linearGradient>
	<path style="fill:url(#XMLID_18_);stroke:#010101;stroke-width:0.25;" d="M0.191,1.418c0,0-0.305-0.558,0.393-0.945
		c0.18-0.101,0.17-0.095,0.627-0.286c0.307-0.128,0.92-0.11,1.275,0.582c0.346,0.67,2.195,4.322,2.195,4.322S4.968,5.77,4.283,6.267
		C3.602,6.761,3.146,6.911,2.852,6.743C2.558,6.58,0.191,1.418,0.191,1.418z"/>
	<path style="fill:#97C63D;stroke:#010101;stroke-width:0.25;stroke-linecap:round;stroke-linejoin:round;" d="M9.04,6.249
		c0,0,3.337-0.931,4.264-1.295l4.602,9.782L13.98,16.63L9.04,6.249z"/>
</g>
</svg>
