<?xml version="1.0" encoding="iso-8859-1"?>
<!-- Generator: Adobe Illustrator 12.0.0, SVG Export Plug-In . SVG Version: 6.00 Build 51448)  -->
<!DOCTYPE svg PUBLIC "-//W3C//DTD SVG 1.1//EN" "http://www.w3.org/Graphics/SVG/1.1/DTD/svg11.dtd" [
	<!ENTITY ns_svg "http://www.w3.org/2000/svg">
	<!ENTITY ns_xlink "http://www.w3.org/1999/xlink">
]>
<svg  version="1.1" id="&#xCD;_xBC__xB2_&#xE3;_x5F_1" xmlns="&ns_svg;" xmlns:xlink="&ns_xlink;" width="10.762" height="11.473"
	 viewBox="0 0 10.762 11.473" style="overflow:visible;enable-background:new 0 0 10.762 11.473;" xml:space="preserve">
<g>
	<linearGradient id="XMLID_3_" gradientUnits="userSpaceOnUse" x1="4.0977" y1="2.5122" x2="4.0195" y2="6.8716">
		<stop  offset="0.0056" style="stop-color:#3A785B"/>
		<stop  offset="0.2228" style="stop-color:#248957"/>
		<stop  offset="0.4797" style="stop-color:#009A52"/>
		<stop  offset="0.7045" style="stop-color:#00A64F"/>
		<stop  offset="0.8708" style="stop-color:#00AC4F"/>
	</linearGradient>
	<polygon style="fill:url(#XMLID_3_);stroke:#000000;stroke-width:0.5;" points="7.568,4.116 4.006,0.366 0.568,4.116 2.693,4.116 
		2.693,7.116 5.318,7.116 5.318,4.116 	"/>
	<polygon style="fill:#C7E6DA;" points="4.021,1.147 6.584,3.851 7.225,3.819 4.021,0.272 0.803,3.913 1.521,3.897 	"/>
	
		<linearGradient id="XMLID_4_" gradientUnits="userSpaceOnUse" x1="250.4531" y1="791.6719" x2="250.375" y2="796.0313" gradientTransform="matrix(-1 0 0 -1 257.1162 800.6328)">
		<stop  offset="0.0056" style="stop-color:#A8716D"/>
		<stop  offset="0.0087" style="stop-color:#A9706D"/>
		<stop  offset="0.1072" style="stop-color:#C16D67"/>
		<stop  offset="0.2186" style="stop-color:#D46962"/>
		<stop  offset="0.3506" style="stop-color:#E2665F"/>
		<stop  offset="0.5214" style="stop-color:#EC645D"/>
		<stop  offset="0.8708" style="stop-color:#F0635D"/>
	</linearGradient>
	<polygon style="fill:url(#XMLID_4_);stroke:#000000;stroke-width:0.5;" points="3.193,7.356 6.756,11.106 10.193,7.356 
		8.068,7.356 8.068,4.356 5.443,4.356 5.443,7.356 	"/>
	<polygon style="fill:#CB372D;" points="6.74,10.325 4.178,7.622 3.537,7.653 6.74,11.2 9.959,7.56 9.24,7.575 	"/>
</g>
</svg>
