<?xml version="1.0" encoding="iso-8859-1"?>
<!-- Generator: Adobe Illustrator 12.0.1, SVG Export Plug-In . SVG Version: 6.00 Build 51448)  -->
<!DOCTYPE svg PUBLIC "-//W3C//DTD SVG 1.1//EN" "http://www.w3.org/Graphics/SVG/1.1/DTD/svg11.dtd" [
	<!ENTITY ns_svg "http://www.w3.org/2000/svg">
	<!ENTITY ns_xlink "http://www.w3.org/1999/xlink">
]>
<svg  version="1.1" id="&#x56FE;&#x5C42;_1" xmlns="&ns_svg;" xmlns:xlink="&ns_xlink;" width="37.391" height="38.651"
	 viewBox="0 0 37.391 38.651" style="overflow:visible;enable-background:new 0 0 37.391 38.651;" xml:space="preserve">
<g>
	<ellipse style="fill:#4E5C29;stroke:#363639;stroke-width:0.5;" cx="19.016" cy="18.625" rx="18.125" ry="18.375"/>
	<linearGradient id="XMLID_3_" gradientUnits="userSpaceOnUse" x1="9.9082" y1="8.3926" x2="30.1582" y2="31.1426">
		<stop  offset="0.0225" style="stop-color:#F4F7FC"/>
		<stop  offset="0.0961" style="stop-color:#F2F4EB"/>
		<stop  offset="0.2475" style="stop-color:#EDF1D5"/>
		<stop  offset="0.3762" style="stop-color:#EBF0C8"/>
		<stop  offset="0.4663" style="stop-color:#E9EFC2"/>
		<stop  offset="0.6566" style="stop-color:#EDF1D7"/>
		<stop  offset="0.927" style="stop-color:#F4F7FC"/>
	</linearGradient>
	
		<ellipse style="opacity:0.84;fill:url(#XMLID_3_);stroke:#455949;stroke-width:0.5;" cx="19.016" cy="18.625" rx="16.769" ry="17"/>
</g>
<g>
	<polygon style="opacity:0.72;fill:#297139;" points="22.459,19.411 19.241,18.473 20.584,15.691 34.292,8.748 	"/>
	<polygon style="fill:#E2E419;stroke:#1E2220;stroke-width:0.25;" points="22.347,18.053 19.149,18.334 20.498,15.281 35.771,5.886 
			"/>
	<polygon style="opacity:0.72;fill:#297139;" points="17.411,21.042 18.337,19.264 20.484,19.752 23.025,27.526 	"/>
	<polygon style="opacity:0.72;fill:#297139;" points="17.331,17.16 18.848,18.626 16.952,17.686 6.258,9.805 	"/>
	<polygon style="fill:#ED1C24;" points="17.081,17.285 18.598,18.751 16.702,17.811 6.008,9.93 	"/>
	<polygon style="fill:#E2E419;stroke:#1E2220;stroke-width:0.25;" points="18.036,20.542 18.962,18.764 21.109,19.252 23.65,27.026 
			"/>
</g>
<circle style="fill:#297139;stroke:#1E2220;stroke-width:0.25;" cx="19.016" cy="18.625" r="1.125"/>
<defs>
	<filter id="Adobe_OpacityMaskFilter" filterUnits="userSpaceOnUse" x="0" y="14.836" width="22.455" height="23.815">
		<feFlood  style="flood-color:white;flood-opacity:1" result="back"/>
		<feBlend  in="SourceGraphic" in2="back" mode="normal"/>
	</filter>
</defs>
<mask maskUnits="userSpaceOnUse" x="0" y="14.836" width="22.455" height="23.815" id="XMLID_4_">
	<g style="filter:url(#Adobe_OpacityMaskFilter);">
	</g>
</mask>
<g style="mask:url(#XMLID_4_);">
	<g>
		<polyline style="fill:#262627;" points="1.438,32.651 0,38.651 6.09,36.467 1.487,33.222 		"/>
		<polygon style="fill:#C8944C;stroke:#363639;stroke-width:0.25;" points="10.866,34.261 6.02,36.446 1.487,33.222 3.85,30.326 
			16.55,16.026 22.278,20.904 		"/>
		<polygon style="fill:#D9A66E;stroke:#363639;stroke-width:0.25;" points="4.415,30.173 1.487,33.222 2.625,28.92 14.952,14.999 
			16.55,16.026 		"/>
		<polygon style="fill:#9E743B;stroke:#363639;stroke-width:0.25;" points="10.847,34.556 6.152,36.426 5.749,36.257 7.069,32.695 
			19.081,18.079 22.278,20.904 		"/>
		<path style="fill:#F2D5AC;" d="M2.562,29.136c1.272,0.224,2.48,0.266,2.48,0.266l0.365,1.982l2.802-0.149L8,33.276
			c0,0,3.252,0.877,2.866,0.984c-2.53,1.111-4.714,2.165-4.714,2.165l-4.735-3.316L2.562,29.136z"/>
		<path style="opacity:0.35;fill:#938976;" d="M7.875,33.276l-3.309,2.037l1.524,1.153c0,0,4.944-2.007,4.935-2.071
			C11.051,33.938,7.875,33.276,7.875,33.276z"/>
		<path style="opacity:0.59;fill:#CCB49B;" d="M5.407,31.384L2.875,34.24l1.638,1.146C5.006,34.962,7.504,33.705,8,33.276
			c0.141-0.264,0.254-1.935,0.25-1.958C8.054,31.153,5.407,31.384,5.407,31.384z"/>
	</g>
</g>
<rect x="18.188" y="1.796" style="fill:#297139;" width="1.438" height="1.375"/>
<rect x="2.375" y="17.796" style="fill:#297139;" width="1.5" height="1.375"/>
<rect x="34.084" y="17.879" style="fill:#297139;" width="1.5" height="1.417"/>
<rect x="18.084" y="34.004" style="fill:#297139;" width="1.458" height="1.5"/>
</svg>
