<?xml version="1.0" encoding="iso-8859-1"?>
<!-- Generator: Adobe Illustrator 12.0.1, SVG Export Plug-In . SVG Version: 6.00 Build 51448)  -->
<!DOCTYPE svg PUBLIC "-//W3C//DTD SVG 1.1//EN" "http://www.w3.org/Graphics/SVG/1.1/DTD/svg11.dtd" [
	<!ENTITY ns_svg "http://www.w3.org/2000/svg">
	<!ENTITY ns_xlink "http://www.w3.org/1999/xlink">
]>
<svg  version="1.1" id="&#xCD;_xBC__xB2_&#xE3;_x5F_1" xmlns="&ns_svg;" xmlns:xlink="&ns_xlink;" width="109.146" height="97.457"
	 viewBox="0 0 109.146 97.457" style="overflow:visible;enable-background:new 0 0 109.146 97.457;" xml:space="preserve">
<path style="fill:#0B763C;stroke:#000000;stroke-width:2;" d="M103.826,76.816c1.467,2.421,0.579,4.852-2.007,5.396L38.251,95.761
	c-2.735,0.574-5.641-1.131-6.471-3.768L10.16,21.529c-0.47-1.495-0.459-2.986,1.58-3.349l50.531-9.052
	c1.957-0.348,4.219,0.487,5.062,1.88L103.826,76.816z"/>
<polygon style="fill:#F1E2C5;stroke:#F7EBD0;" points="101.235,79.109 32.911,92.956 35.335,86.94 104.137,73.728 "/>
<polygon style="fill:#EA2D2E;stroke:#030304;stroke-width:2;" points="95.914,29.228 80.965,33.266 71.493,12.511 84.095,9.997 "/>
<polygon style="fill:#008FD4;stroke:#747C81;stroke-width:2;" points="107.635,55.009 89.772,60.528 79.651,41.399 96.737,36.775 
	"/>
<linearGradient id="XMLID_3_" gradientUnits="userSpaceOnUse" x1="27.9717" y1="57.5264" x2="91.8186" y2="25.9657">
	<stop  offset="0" style="stop-color:#F3F7FC"/>
	<stop  offset="0.1461" style="stop-color:#D2E2AD"/>
	<stop  offset="0.2121" style="stop-color:#CADDA1"/>
	<stop  offset="0.3384" style="stop-color:#B7D086"/>
	<stop  offset="0.5106" style="stop-color:#98BD57"/>
	<stop  offset="0.5787" style="stop-color:#8BB646"/>
	<stop  offset="0.7346" style="stop-color:#86B745"/>
	<stop  offset="0.92" style="stop-color:#76BB45"/>
	<stop  offset="1" style="stop-color:#6BBE45"/>
</linearGradient>
<path style="fill:url(#XMLID_3_);stroke:#000000;stroke-width:2;" d="M106.191,68.768c1.466,2.421,0.579,4.852-2.007,5.396
	L40.616,87.712c-2.734,0.574-5.641-1.131-6.471-3.768L11.255,13.48c-0.47-1.495,0.81-2.986,2.85-3.349l50.531-9.053
	c1.957-0.347,4.219,0.487,5.061,1.88L106.191,68.768z"/>
<path style="fill:#B4D670;stroke:#000000;stroke-width:2;" d="M35.209,86.667c0,0-1.088,0.846-1.814,2.902s-0.605,4.232-0.605,4.232
	L9.633,22.335c0,0-0.544-0.726-0.544-4.354s1.66-5.478,1.66-5.478L35.209,86.667z"/>
<g>
	
		<ellipse transform="matrix(-0.5636 0.8261 -0.8261 -0.5636 75.6706 105.5799)" style="fill:#9299A0;stroke:#000000;stroke-width:2;" cx="9.945" cy="72.779" rx="14.582" ry="4.271"/>
	
		<ellipse transform="matrix(0.7234 0.6904 -0.6904 0.7234 61.0111 -10.8978)" style="fill:#656D70;stroke:#000000;stroke-width:2;" cx="44.106" cy="70.695" rx="14.581" ry="4.27"/>
	<path style="fill:#FFFFFF;stroke:#000000;stroke-width:2;" d="M44.627,92.985c-5,5.795-30.985,3.279-36.167-0.314
		c-2.002-1.388,1.172-26.246,9.296-32.182c6.04-4.415,12.069-3.811,17.185-0.313C42.597,65.41,46.268,91.083,44.627,92.985z"/>
	<polygon style="fill:#505859;stroke:#000000;stroke-width:2;" points="27.739,73.44 22.896,73.558 24.692,62.081 26.997,62.081 	
		"/>
	<path style="fill:#8A9197;stroke:#000000;stroke-width:2;" d="M24.734,75.175c0,0-5.696-11.937-5.415-15.416
		C9.529,65.801,3.488,88.376,8.592,92.671c2.99,2.518,17.861,3.594,17.861,3.594L24.734,75.175z"/>
	<path style="fill:#656D70;stroke:#000000;stroke-width:2;" d="M24.422,74.653c0,0,9.241-11.329,8.774-15.368
		c9.993,5.7,14.269,27.997,11.691,33.074c-2.617,5.154-20.857,3.983-20.857,3.983L24.422,74.653z"/>
	<radialGradient id="XMLID_4_" cx="21.1929" cy="41.4287" r="18.8935" gradientUnits="userSpaceOnUse">
		<stop  offset="0.0056" style="stop-color:#F5EACE"/>
		<stop  offset="0.0796" style="stop-color:#F8E6BF"/>
		<stop  offset="0.1842" style="stop-color:#F9E1AE"/>
		<stop  offset="0.2528" style="stop-color:#FAE0A7"/>
		<stop  offset="0.563" style="stop-color:#E3C382"/>
		<stop  offset="0.823" style="stop-color:#D6B36E"/>
		<stop  offset="1" style="stop-color:#D2AD67"/>
	</radialGradient>
	<circle style="fill:url(#XMLID_4_);stroke:#000000;stroke-width:2;" cx="26.714" cy="48.615" r="12.811"/>
	<path style="fill:#656D70;stroke:#000000;stroke-width:2;" d="M33.692,60.099c0.078,0.154,2.422,6.952,2.422,6.952l-3.203,0.858
		l-0.547,3.983L25.1,74.315C25.1,74.315,32.051,65.253,33.692,60.099z"/>
	<path style="fill:#8A9197;stroke:#000000;stroke-width:2;" d="M19.084,59.63c-0.107,0.137-3.682,6.074-3.682,6.074l2.974,1.465
		l-0.238,4.015l5.868,3.015C24.006,74.198,19.69,65.005,19.084,59.63z"/>
</g>
<path style="fill:#008745;" d="M58.442,33.562c-1.693-1.907-4.158-2.867-5.504-2.145c-0.026,0.014-0.048,0.033-0.073,0.047
	c-0.301,0.034-1.356,0.651-2.153,1.661c-2.438-1.964-5.398-5.794-3.318-12.011c1.092,0.286,2.443,0.332,3.345,0.321
	c0.109,0.016,0.219,0.025,0.33,0.025c0.147-0.001,0.29-0.02,0.431-0.047c0.146-0.007,0.234-0.013,0.234-0.013l-0.005-0.04
	c1.386-0.411,2.381-2.083,2.318-4.083c-0.07-2.306-1.52-4.172-3.236-4.169c-0.216,0.001-0.426,0.031-0.628,0.088
	c-0.9,0.025-2.866,0.197-4.253,1.169c-0.602,0.422-0.935,1.15-1.06,1.969c-1.79,2.493-9.665,15.014,7.098,21.968
	c0.64,0.485,1.346,0.853,2,1.005c2.027,0.474,5.056-0.783,5.378-1.479c0.006-0.012,0.004-0.027,0.006-0.038
	C60.097,36.852,59.858,35.158,58.442,33.562z"/>
</svg>
