<?xml version="1.0" encoding="iso-8859-1"?>
<!-- Generator: Adobe Illustrator 12.0.1, SVG Export Plug-In . SVG Version: 6.00 Build 51448)  -->
<!DOCTYPE svg PUBLIC "-//W3C//DTD SVG 1.1//EN" "http://www.w3.org/Graphics/SVG/1.1/DTD/svg11.dtd" [
	<!ENTITY ns_svg "http://www.w3.org/2000/svg">
	<!ENTITY ns_xlink "http://www.w3.org/1999/xlink">
]>
<svg  version="1.1" id="&#xCD;_xBC__xB2_&#xE3;_x5F_1" xmlns="&ns_svg;" xmlns:xlink="&ns_xlink;" width="18.288" height="19.307"
	 viewBox="0 0 18.288 19.307" style="overflow:visible;enable-background:new 0 0 18.288 19.307;" xml:space="preserve">
<g>
	<g>
		<rect x="4.479" y="5.569" style="fill:#7D8489;stroke:#000000;stroke-width:0.25;" width="3.998" height="0.585"/>
		<rect x="0.125" y="6.777" style="fill:#C58C2D;stroke:#69493E;stroke-width:0.25;" width="16.302" height="12.404"/>
		<linearGradient id="XMLID_6_" gradientUnits="userSpaceOnUse" x1="8.2593" y1="14.5859" x2="8.2593" y2="13.9739">
			<stop  offset="0" style="stop-color:#CDCED0"/>
			<stop  offset="0.1397" style="stop-color:#ABADB0"/>
			<stop  offset="0.3546" style="stop-color:#808284"/>
			<stop  offset="0.554" style="stop-color:#5E5F61"/>
			<stop  offset="0.7316" style="stop-color:#414142"/>
			<stop  offset="0.8806" style="stop-color:#1A1A1A"/>
			<stop  offset="0.9831" style="stop-color:#000000"/>
		</linearGradient>
		<path style="fill:url(#XMLID_6_);" d="M16.328,12.867c0,0-0.538,1.397-1.658,1.623c0,0-12.652,0.046-12.527,0
			C0.481,14.4,0.19,12.867,0.19,12.867v-0.498h16.138V12.867z"/>
		<path style="fill:#C58C2D;stroke:#69493E;stroke-width:0.25;" d="M16.313,12.236c0,0-0.536,1.398-1.659,1.621
			c0,0-12.652,0.047-12.525,0c-1.661-0.089-1.952-1.623-1.952-1.623V6.777h16.135V12.236z"/>
		<polygon style="fill:#D4DADF;stroke:#696A6C;stroke-width:0.25;" points="8.89,14.475 8.612,15.512 7.588,15.512 7.367,14.444 
			7.341,12.941 8.89,12.941 		"/>
		<path style="fill:#A2A8AF;stroke:#363639;stroke-width:0.25;" d="M4.575,6.598H2.626C3.538,5.213,4.56,5.395,4.56,5.395
			L4.575,6.598z"/>
	</g>
</g>
<g>
	
		<linearGradient id="XMLID_7_" gradientUnits="userSpaceOnUse" x1="-6.2319" y1="-59.5801" x2="-3.945" y2="-60.5391" gradientTransform="matrix(0.9968 -0.0791 0.0791 0.9968 20.977 69.08)">
		<stop  offset="0.0056" style="stop-color:#424242"/>
		<stop  offset="0.3202" style="stop-color:#FFFFFF"/>
		<stop  offset="0.736" style="stop-color:#CCCCCC"/>
		<stop  offset="1" style="stop-color:#424242"/>
	</linearGradient>
	<path style="fill:url(#XMLID_7_);stroke:#000100;stroke-width:0.25;" d="M7.241,4.555c0,0,4.915,10.217,5.851,11.451
		c0.939,1.234,4.774-0.281,5.063-1.934C18.444,12.418,11.15,1.18,11.15,1.18s-1.112-0.008-1.629,0.307
		c-0.375,0.225-1.565,0.887-1.72,1.121C7.648,2.842,7.241,4.555,7.241,4.555z"/>
	
		<linearGradient id="XMLID_8_" gradientUnits="userSpaceOnUse" x1="-6.5288" y1="-61.0947" x2="1.5737" y2="-61.0947" gradientTransform="matrix(0.9968 -0.0791 0.0791 0.9968 20.977 69.08)">
		<stop  offset="0.1067" style="stop-color:#ECECEC"/>
		<stop  offset="0.3202" style="stop-color:#FFFFFF"/>
		<stop  offset="0.736" style="stop-color:#CCCCCC"/>
		<stop  offset="1" style="stop-color:#424242"/>
	</linearGradient>
	<path style="fill:url(#XMLID_8_);stroke:#000100;stroke-width:0.25;" d="M9.312,1.672c0,0,0.554-0.488,1.527-0.691
		c0.972-0.199,1.557-0.319,2.122,0.277c0.569,0.599,3.132,6.129,4.229,8.761c0,0,1.487,3.468,0.759,4.563
		c-0.729,1.096-2.104,1.824-2.898,0.873C14.26,14.504,10.203,4.787,9.72,3.665C9.235,2.542,8.867,2.002,9.312,1.672z"/>
	
		<linearGradient id="XMLID_9_" gradientUnits="userSpaceOnUse" x1="-5.6108" y1="-62.6401" x2="0.8706" y2="-62.6401" gradientTransform="matrix(0.9968 -0.0791 0.0791 0.9968 20.977 69.08)">
		<stop  offset="0" style="stop-color:#E5DA67"/>
		<stop  offset="0.9831" style="stop-color:#E7AB39"/>
	</linearGradient>
	<path style="fill:url(#XMLID_9_);stroke:#000100;stroke-width:0.25;" d="M10.269,3.473c-0.214-0.551-0.399-1.003,0.545-1.252
		c0.945-0.248,2.219-0.659,2.49-0.319c0.576,0.719,3.429,6.533,3.844,8.195c0.131,0.518-0.014,0.742-0.577,0.811
		c-0.35,0.046-0.575-0.076-1.026,0.479c-0.45,0.555-1.157,0.66-1.519,0.17C13.397,10.699,10.484,4.025,10.269,3.473z"/>
	
		<linearGradient id="XMLID_10_" gradientUnits="userSpaceOnUse" x1="-34.7817" y1="-32.5581" x2="-33.5042" y2="-33.1477" gradientTransform="matrix(0.9023 0.0193 -0.0158 0.7697 37.3443 28.025)">
		<stop  offset="0.0056" style="stop-color:#4F4F4F"/>
		<stop  offset="0.3202" style="stop-color:#FFFFFF"/>
		<stop  offset="0.736" style="stop-color:#CCCCCC"/>
		<stop  offset="1" style="stop-color:#424242"/>
	</linearGradient>
	<path style="fill:url(#XMLID_10_);stroke:#000100;stroke-width:0.25;" d="M5.7,0.894c0,0-0.182-0.331,0.233-0.562
		c0.106-0.061,0.102-0.057,0.373-0.17c0.182-0.076,0.547-0.066,0.758,0.346C7.27,0.906,8.369,3.077,8.369,3.077
		s0.17,0.403-0.237,0.698C7.727,4.069,7.457,4.159,7.281,4.06C7.106,3.963,5.7,0.894,5.7,0.894z"/>
	<path style="fill:#90BD45;stroke:#000100;stroke-width:0.25;stroke-linecap:round;stroke-linejoin:round;" d="M10.96,3.766
		c0,0,1.983-0.554,2.534-0.77l2.735,5.814l-2.333,1.125L10.96,3.766z"/>
</g>
</svg>
