<?xml version="1.0" encoding="iso-8859-1"?>
<!-- Generator: Adobe Illustrator 12.0.1, SVG Export Plug-In . SVG Version: 6.00 Build 51448)  -->
<!DOCTYPE svg PUBLIC "-//W3C//DTD SVG 1.1//EN" "http://www.w3.org/Graphics/SVG/1.1/DTD/svg11.dtd" [
	<!ENTITY ns_svg "http://www.w3.org/2000/svg">
	<!ENTITY ns_xlink "http://www.w3.org/1999/xlink">
]>
<svg  version="1.1" id="&#xCD;_xBC__xB2_&#xE3;_x5F_1" xmlns="&ns_svg;" xmlns:xlink="&ns_xlink;" width="19.431" height="19.744"
	 viewBox="0 0 19.431 19.744" style="overflow:visible;enable-background:new 0 0 19.431 19.744;" xml:space="preserve">
<g>
	<g>
		<rect x="0.125" y="7.215" style="fill:#C58C2D;stroke:#69493E;stroke-width:0.25;" width="16.302" height="12.404"/>
		<linearGradient id="XMLID_7_" gradientUnits="userSpaceOnUse" x1="8.2593" y1="15.0234" x2="8.2593" y2="14.4114">
			<stop  offset="0" style="stop-color:#CDCED0"/>
			<stop  offset="0.1397" style="stop-color:#ABADB0"/>
			<stop  offset="0.3546" style="stop-color:#808284"/>
			<stop  offset="0.554" style="stop-color:#5E5F61"/>
			<stop  offset="0.7316" style="stop-color:#414142"/>
			<stop  offset="0.8806" style="stop-color:#1A1A1A"/>
			<stop  offset="0.9831" style="stop-color:#000000"/>
		</linearGradient>
		<path style="fill:url(#XMLID_7_);" d="M16.328,13.305c0,0-0.538,1.397-1.658,1.623c0,0-12.652,0.046-12.527,0
			c-1.661-0.09-1.952-1.623-1.952-1.623v-0.498h16.138V13.305z"/>
		<path style="fill:#C58C2D;stroke:#69493E;stroke-width:0.25;" d="M16.313,12.674c0,0-0.536,1.398-1.659,1.621
			c0,0-12.652,0.047-12.525,0c-1.661-0.089-1.952-1.623-1.952-1.623V7.215h16.135V12.674z"/>
		<polygon style="fill:#D4DADF;stroke:#696A6C;stroke-width:0.25;" points="8.89,14.912 8.612,15.949 7.588,15.949 7.367,14.882 
			7.341,13.379 8.89,13.379 		"/>
		<path style="fill:#A2A8AF;stroke:#363639;stroke-width:0.25;" d="M4.575,7.035H2.626C3.538,5.65,4.56,5.832,4.56,5.832
			L4.575,7.035z"/>
	</g>
</g>
<g>
	<linearGradient id="XMLID_8_" gradientUnits="userSpaceOnUse" x1="10.7471" y1="3.0703" x2="10.7471" y2="5.0157">
		<stop  offset="0" style="stop-color:#F0F0F0"/>
		<stop  offset="1" style="stop-color:#9E9E9E"/>
	</linearGradient>
	<polygon style="fill:url(#XMLID_8_);stroke:#000000;stroke-width:0.25;" points="12.969,3.004 11.554,3.004 11.554,4.5 9.94,4.5 
		9.94,3.004 8.525,3.004 8.525,5.662 12.969,5.662 	"/>
	<g>
		<linearGradient id="XMLID_9_" gradientUnits="userSpaceOnUse" x1="11.1431" y1="5.6621" x2="11.1431" y2="13.4121">
			<stop  offset="0" style="stop-color:#D6D6D6"/>
			<stop  offset="1" style="stop-color:#6B6B6B"/>
		</linearGradient>
		<polygon style="fill:url(#XMLID_9_);stroke:#070707;stroke-width:0.25;" points="18.94,10.707 18.94,13.439 3.346,13.51 
			3.364,10.725 6.987,5.822 14.75,5.822 		"/>
		<linearGradient id="XMLID_10_" gradientUnits="userSpaceOnUse" x1="9.3823" y1="9.041" x2="13.6738" y2="9.041">
			<stop  offset="0" style="stop-color:#D6D6D6"/>
			<stop  offset="1" style="stop-color:#6B6B6B"/>
		</linearGradient>
		<path style="fill:url(#XMLID_10_);" d="M14.248,8.614c-0.303-1.153-1.79-1.947-3.366-1.947S7.82,7.461,7.516,8.614
			c-0.371,1.408,1.099,2.801,3.366,2.801C13.149,11.415,14.619,10.022,14.248,8.614z M10.786,6.8c0.169,0,0.309,0.089,0.311,0.202
			c0.002,0.114-0.139,0.208-0.314,0.208s-0.315-0.094-0.311-0.208C10.476,6.889,10.617,6.8,10.786,6.8z M8.004,8.727
			c-0.199,0-0.33-0.122-0.293-0.267c0.036-0.145,0.22-0.259,0.41-0.259c0.191,0,0.324,0.114,0.296,0.259S8.203,8.727,8.004,8.727z
			 M8.629,10.103c-0.22,0-0.372-0.147-0.339-0.326C8.323,9.601,8.52,9.464,8.729,9.464S9.093,9.601,9.07,9.776
			C9.047,9.955,8.849,10.103,8.629,10.103z M9.202,7.696c-0.183,0-0.314-0.102-0.293-0.227c0.021-0.121,0.18-0.218,0.356-0.218
			S9.573,7.349,9.56,7.47C9.545,7.595,9.385,7.696,9.202,7.696z M10.749,11.042c-0.234,0-0.419-0.169-0.412-0.369
			c0.007-0.198,0.195-0.357,0.418-0.357s0.409,0.159,0.412,0.357C11.171,10.873,10.983,11.042,10.749,11.042z M12.091,7.551
			c-0.013-0.124,0.122-0.222,0.299-0.222c0.177,0,0.337,0.098,0.357,0.222c0.02,0.126-0.114,0.229-0.298,0.229
			C12.265,7.78,12.104,7.677,12.091,7.551z M12.998,10.411c-0.225,0-0.426-0.155-0.448-0.34c-0.021-0.183,0.137-0.328,0.351-0.328
			s0.415,0.146,0.446,0.328C13.379,10.256,13.222,10.411,12.998,10.411z M13.633,8.901c-0.202,0-0.388-0.123-0.416-0.273
			c-0.027-0.148,0.109-0.264,0.302-0.264s0.378,0.115,0.414,0.264C13.969,8.778,13.834,8.901,13.633,8.901z"/>
		<linearGradient id="XMLID_11_" gradientUnits="userSpaceOnUse" x1="9.4136" y1="8.3896" x2="13.7051" y2="8.3896">
			<stop  offset="0" style="stop-color:#D6D6D6"/>
			<stop  offset="1" style="stop-color:#6B6B6B"/>
		</linearGradient>
		<path style="fill:url(#XMLID_11_);stroke:#6D6F71;stroke-width:0.25;" d="M14.279,7.963c-0.303-1.153-1.79-1.947-3.366-1.947
			S7.851,6.81,7.547,7.963c-0.371,1.408,1.099,2.801,3.366,2.801C13.18,10.764,14.65,9.371,14.279,7.963z M10.817,6.148
			c0.169,0,0.309,0.089,0.311,0.202c0.002,0.114-0.139,0.208-0.314,0.208s-0.315-0.094-0.311-0.208
			C10.507,6.237,10.648,6.148,10.817,6.148z M8.036,8.075c-0.199,0-0.33-0.122-0.293-0.267c0.036-0.145,0.22-0.259,0.41-0.259
			c0.191,0,0.324,0.114,0.296,0.259S8.234,8.075,8.036,8.075z M8.66,9.451c-0.22,0-0.372-0.147-0.339-0.326
			c0.033-0.176,0.229-0.313,0.439-0.313s0.364,0.137,0.341,0.313C9.079,9.304,8.88,9.451,8.66,9.451z M9.233,7.045
			c-0.183,0-0.314-0.102-0.293-0.227C8.96,6.697,9.12,6.601,9.296,6.601s0.309,0.097,0.295,0.218
			C9.577,6.943,9.416,7.045,9.233,7.045z M10.78,10.391c-0.234,0-0.419-0.169-0.412-0.369c0.007-0.198,0.195-0.357,0.418-0.357
			s0.409,0.159,0.412,0.357C11.203,10.222,11.015,10.391,10.78,10.391z M12.122,6.899c-0.013-0.124,0.122-0.222,0.299-0.222
			c0.177,0,0.337,0.098,0.357,0.222c0.02,0.126-0.114,0.229-0.298,0.229C12.296,7.129,12.135,7.025,12.122,6.899z M13.029,9.76
			c-0.225,0-0.426-0.155-0.448-0.34c-0.021-0.183,0.137-0.328,0.351-0.328s0.415,0.146,0.446,0.328
			C13.41,9.604,13.253,9.76,13.029,9.76z M13.664,8.25c-0.202,0-0.388-0.123-0.416-0.273c-0.027-0.148,0.109-0.264,0.302-0.264
			s0.378,0.115,0.414,0.264C14,8.127,13.865,8.25,13.664,8.25z"/>
		<linearGradient id="XMLID_12_" gradientUnits="userSpaceOnUse" x1="11.1118" y1="0.7031" x2="11.1118" y2="4.8284">
			<stop  offset="0" style="stop-color:#F0F0F0"/>
			<stop  offset="1" style="stop-color:#9E9E9E"/>
		</linearGradient>
		<path style="fill:url(#XMLID_12_);stroke:#000000;stroke-width:0.25;" d="M15.347,0.125L6.378,0.207
			c-3.714,0.33-3.623,4.5-3.339,5.121c0.667,1.459,3.6,1.597,4.296,0.269C7.602,5.086,7.701,4.419,7.539,3.62
			c-0.133-0.658,6.823-0.662,6.785,0.026c-0.042,0.754,0.042,1.518,0.257,1.89c0.917,1.584,3.534,0.605,4.042,0.334
			C19.872,5.203,19.747,0.328,15.347,0.125z"/>
	</g>
</g>
</svg>
