<?xml version="1.0" encoding="iso-8859-1"?>
<!-- Generator: Adobe Illustrator 12.0.1, SVG Export Plug-In . SVG Version: 6.00 Build 51448)  -->
<!DOCTYPE svg PUBLIC "-//W3C//DTD SVG 1.1//EN" "http://www.w3.org/Graphics/SVG/1.1/DTD/svg11.dtd" [
	<!ENTITY ns_svg "http://www.w3.org/2000/svg">
	<!ENTITY ns_xlink "http://www.w3.org/1999/xlink">
]>
<svg  version="1.1" id="&#xCD;_xBC__xB2_&#xE3;_x5F_1" xmlns="&ns_svg;" xmlns:xlink="&ns_xlink;" width="19.287" height="18.333"
	 viewBox="0 0 19.287 18.333" style="overflow:visible;enable-background:new 0 0 19.287 18.333;" xml:space="preserve">
<g>
	<g>
		<rect x="4.479" y="4.596" style="fill:#7D8489;stroke:#000000;stroke-width:0.25;" width="3.048" height="0.585"/>
		<rect x="0.125" y="5.804" style="fill:#C58C2D;stroke:#69493E;stroke-width:0.25;" width="16.302" height="12.404"/>
		<linearGradient id="XMLID_4_" gradientUnits="userSpaceOnUse" x1="4.3325" y1="13.6123" x2="4.3325" y2="13.0002">
			<stop  offset="0" style="stop-color:#CDCED0"/>
			<stop  offset="0.1397" style="stop-color:#ABADB0"/>
			<stop  offset="0.3546" style="stop-color:#808284"/>
			<stop  offset="0.554" style="stop-color:#5E5F61"/>
			<stop  offset="0.7316" style="stop-color:#414142"/>
			<stop  offset="0.8806" style="stop-color:#1A1A1A"/>
			<stop  offset="0.9831" style="stop-color:#000000"/>
		</linearGradient>
		<path style="fill:url(#XMLID_4_);" d="M8.475,11.894c0,0-0.538,1.397-1.658,1.623c0,0-4.799,0.046-4.674,0
			c-1.661-0.09-1.952-1.623-1.952-1.623v-0.498h8.285V11.894z"/>
		<path style="fill:#C58C2D;stroke:#69493E;stroke-width:0.25;" d="M8.227,11.263c0,0-0.536,1.398-1.659,1.621
			c0,0-4.566,0.047-4.439,0c-1.661-0.089-1.952-1.623-1.952-1.623V5.804h8.049V11.263z"/>
		<path style="fill:#A2A8AF;stroke:#363639;stroke-width:0.25;" d="M4.575,5.624H2.626C3.538,4.239,4.56,4.421,4.56,4.421
			L4.575,5.624z"/>
		<path style="fill:#A2A8AF;stroke:#363639;stroke-width:0.25;" d="M11.802,4.403l-0.009,1.203l1.95-0.013"/>
	</g>
</g>
<g>
	<linearGradient id="XMLID_5_" gradientUnits="userSpaceOnUse" x1="11.5444" y1="0.25" x2="11.5444" y2="12.5508">
		<stop  offset="0.0056" style="stop-color:#DADCE1"/>
		<stop  offset="0.1573" style="stop-color:#DADCE1"/>
		<stop  offset="0.1868" style="stop-color:#D2D5DA"/>
		<stop  offset="0.2676" style="stop-color:#C7CACF"/>
		<stop  offset="0.3811" style="stop-color:#C0C4CA"/>
		<stop  offset="0.6966" style="stop-color:#BEC2C9"/>
		<stop  offset="0.7547" style="stop-color:#B6BAC0"/>
		<stop  offset="0.8316" style="stop-color:#A0A6AB"/>
		<stop  offset="0.9188" style="stop-color:#81888C"/>
		<stop  offset="0.9831" style="stop-color:#687073"/>
	</linearGradient>
	<polygon style="fill:url(#XMLID_5_);stroke:#363639;stroke-width:0.5;" points="11.76,0.25 6.922,0.25 6.922,12.551 16.167,12.551 
		16.167,4.958 	"/>
	<linearGradient id="XMLID_6_" gradientUnits="userSpaceOnUse" x1="11.8364" y1="10.0508" x2="11.8364" y2="14.7515">
		<stop  offset="0.0056" style="stop-color:#DADCE1"/>
		<stop  offset="0.1573" style="stop-color:#DADCE1"/>
		<stop  offset="0.1868" style="stop-color:#D2D5DA"/>
		<stop  offset="0.2676" style="stop-color:#C7CACF"/>
		<stop  offset="0.3811" style="stop-color:#C0C4CA"/>
		<stop  offset="0.6966" style="stop-color:#BEC2C9"/>
		<stop  offset="0.7547" style="stop-color:#B6BAC0"/>
		<stop  offset="0.8316" style="stop-color:#A0A6AB"/>
		<stop  offset="0.9188" style="stop-color:#81888C"/>
		<stop  offset="0.9831" style="stop-color:#687073"/>
	</linearGradient>
	<polygon style="fill:url(#XMLID_6_);stroke:#262D2E;stroke-width:0.5;" points="19.035,15.801 4.691,15.801 4.638,9.45 
		18.982,9.45 	"/>
	<rect x="14.785" y="10.65" style="fill:#3EB549;" width="0.85" height="0.7"/>
	<rect x="15.635" y="10.65" style="fill:#EA2F2E;" width="0.85" height="0.7"/>
	<polygon style="fill:#FFFFFF;stroke:#A2A9B0;stroke-width:0.25;" points="16.042,5.018 11.792,5.018 11.969,0.768 	"/>
</g>
</svg>
