<?xml version="1.0" encoding="iso-8859-1"?>
<!-- Generator: Adobe Illustrator 12.0.1, SVG Export Plug-In . SVG Version: 6.00 Build 51448)  -->
<!DOCTYPE svg PUBLIC "-//W3C//DTD SVG 1.1//EN" "http://www.w3.org/Graphics/SVG/1.1/DTD/svg11.dtd" [
	<!ENTITY ns_svg "http://www.w3.org/2000/svg">
	<!ENTITY ns_xlink "http://www.w3.org/1999/xlink">
]>
<svg  version="1.1" id="&#xCD;_xBC__xB2_&#xE3;_x5F_1" xmlns="&ns_svg;" xmlns:xlink="&ns_xlink;" width="19.399" height="19.399"
	 viewBox="0 0 19.399 19.399" style="overflow:visible;enable-background:new 0 0 19.399 19.399;" xml:space="preserve">
<g>
	<g>
		<rect x="4.479" y="5.662" style="fill:#7D8489;stroke:#000000;stroke-width:0.25;" width="7.238" height="0.585"/>
		<rect x="0.126" y="6.87" style="fill:#C58C2D;stroke:#69493E;stroke-width:0.25;" width="16.301" height="12.404"/>
		<linearGradient id="XMLID_2_" gradientUnits="userSpaceOnUse" x1="8.2598" y1="14.6787" x2="8.2598" y2="14.0666">
			<stop  offset="0" style="stop-color:#CDCED0"/>
			<stop  offset="0.1397" style="stop-color:#ABADB0"/>
			<stop  offset="0.3546" style="stop-color:#808284"/>
			<stop  offset="0.554" style="stop-color:#5E5F61"/>
			<stop  offset="0.7316" style="stop-color:#414142"/>
			<stop  offset="0.8806" style="stop-color:#1A1A1A"/>
			<stop  offset="0.9831" style="stop-color:#000000"/>
		</linearGradient>
		<path style="fill:url(#XMLID_2_);" d="M16.329,12.96c0,0-0.539,1.397-1.658,1.623c0,0-12.652,0.046-12.527,0
			C0.481,14.493,0.19,12.96,0.19,12.96v-0.498h16.139V12.96z"/>
		<path style="fill:#C58C2D;stroke:#69493E;stroke-width:0.25;" d="M16.313,12.329c0,0-0.536,1.398-1.658,1.621
			c0,0-12.652,0.047-12.525,0c-1.66-0.089-1.951-1.623-1.951-1.623V6.87h16.135V12.329z"/>
		<polygon style="fill:#D4DADF;stroke:#696A6C;stroke-width:0.25;" points="8.891,14.567 8.612,15.604 7.589,15.604 7.368,14.537 
			7.341,13.034 8.891,13.034 		"/>
		<path style="fill:#A2A8AF;stroke:#363639;stroke-width:0.25;" d="M4.575,6.69H2.626c0.912-1.385,1.935-1.203,1.935-1.203
			L4.575,6.69z"/>
		<path style="fill:#A2A8AF;stroke:#363639;stroke-width:0.25;" d="M11.794,6.673l1.949-0.013c-1.018-1.413-1.94-1.19-1.94-1.19
			L11.794,6.673z"/>
	</g>
</g>
<g>
	<path style="fill:none;stroke:#EA302F;stroke-width:0.25;" d="M16.452,0.964c0,2.439-1.823,4.419-4.072,4.419
		c-2.25,0-4.072-1.979-4.072-4.419"/>
	<path style="fill:none;stroke:#EA302F;stroke-width:0.25;" d="M14.607,1.508c0,1.562-1.092,2.829-2.438,2.829
		c-1.348,0-2.438-1.268-2.438-2.829"/>
	<path style="fill:none;stroke:#EA302F;stroke-width:0.25;" d="M18.103,0.361c0,3.404-2.563,6.165-5.723,6.165
		c-3.161,0-5.724-2.761-5.724-6.165"/>
	<path style="fill:none;stroke:#EA302F;stroke-width:0.25;" d="M19.274,0c0,4.103-3.089,7.43-6.895,7.43
		C8.572,7.43,5.485,4.103,5.485,0"/>
	<path style="fill:#9EA5AC;stroke:#6F7071;stroke-width:0.5;" d="M12.943,16.063c0,0.501-0.404,0.907-0.902,0.907l0,0
		c-0.5,0-0.903-0.406-0.903-0.907V2.857c0-0.502,0.403-0.908,0.903-0.908l0,0c0.498,0,0.902,0.406,0.902,0.908V16.063z"/>
	<rect x="11.245" y="5.082" style="fill:#EA2D2E;" width="1.606" height="1.083"/>
	<rect x="11.245" y="6.889" style="fill:#EA2D2E;" width="1.667" height="1.083"/>
	<rect x="11.185" y="2.407" style="fill:#EA2D2E;" width="1.556" height="2.106"/>
</g>
</svg>
