<?xml version="1.0" encoding="iso-8859-1"?>
<!-- Generator: Adobe Illustrator 12.0.1, SVG Export Plug-In . SVG Version: 6.00 Build 51448)  -->
<!DOCTYPE svg PUBLIC "-//W3C//DTD SVG 1.1//EN" "http://www.w3.org/Graphics/SVG/1.1/DTD/svg11.dtd" [
	<!ENTITY ns_svg "http://www.w3.org/2000/svg">
	<!ENTITY ns_xlink "http://www.w3.org/1999/xlink">
]>
<svg  version="1.1" xmlns="&ns_svg;" xmlns:xlink="&ns_xlink;" width="19.809" height="20.362" viewBox="0 0 19.809 20.362"
	 style="overflow:visible;enable-background:new 0 0 19.809 20.362;" xml:space="preserve">
<g id="&#x56FE;&#x5C42;_2">
</g>
<g id="&#x56FE;&#x5C42;_1">
	<g>
		
			<ellipse transform="matrix(0.7234 0.6904 -0.6904 0.7234 12.5131 -7.8463)" style="fill:#656D70;stroke:#000000;stroke-width:0.25;" cx="16.05" cy="11.695" rx="4.835" ry="1.416"/>
		
			<ellipse transform="matrix(0.7234 -0.6905 0.6905 0.7234 -6.9199 5.7835)" style="fill:#656D70;stroke:#000000;stroke-width:0.25;" cx="3.758" cy="11.528" rx="4.835" ry="1.416"/>
		<polygon style="fill:#505859;stroke:#000000;stroke-width:0.25;" points="10.576,12.688 8.969,12.727 9.565,9.501 10.33,9.501 		
			"/>
		<path style="fill:#656D70;stroke:#000000;stroke-width:0.25;" d="M9.523,13.008c0,0,3.064-3.757,2.908-5.097
			c3.314,1.891,4.732,9.284,3.878,10.969c-0.869,1.708-6.917,1.319-6.917,1.319L9.523,13.008z"/>
		<path style="fill:#656D70;stroke:#000000;stroke-width:0.25;" d="M10.505,12.925c0,0-3.063-3.757-2.908-5.097
			c-3.314,1.891-4.732,9.284-3.878,10.969c0.868,1.707,6.917,1.318,6.917,1.318L10.505,12.925z"/>
		<path style="fill:#656D70;stroke:#000000;stroke-width:0.25;" d="M12.597,8.181c0.025,0.052,0.803,2.306,0.803,2.306l-1.063,0.284
			l-0.181,1.32l-2.063,0.508C10.093,12.599,12.052,9.891,12.597,8.181z"/>
		<path style="fill:#656D70;stroke:#000000;stroke-width:0.25;" d="M7.382,8.264C7.356,8.316,6.58,10.57,6.58,10.57l1.063,0.284
			l0.181,1.32l2.409,0.804C10.232,12.978,7.926,9.974,7.382,8.264z"/>
		<polygon style="fill:#505859;stroke:#000000;stroke-width:0.25;" points="10.291,9.438 9.591,9.438 9.41,8.621 10.446,8.621 		"/>
		<radialGradient id="XMLID_2_" cx="8.4512" cy="1.9897" r="6.2652" gradientUnits="userSpaceOnUse">
			<stop  offset="0.0056" style="stop-color:#F2E8CE"/>
			<stop  offset="0.0821" style="stop-color:#F4E5BE"/>
			<stop  offset="0.1852" style="stop-color:#F5E1AE"/>
			<stop  offset="0.2528" style="stop-color:#F5DFA7"/>
			<stop  offset="0.3286" style="stop-color:#EFD79D"/>
			<stop  offset="0.607" style="stop-color:#DDBF7F"/>
			<stop  offset="0.8408" style="stop-color:#D3B26F"/>
			<stop  offset="1" style="stop-color:#CFAD6A"/>
		</radialGradient>
		<circle style="fill:url(#XMLID_2_);stroke:#000000;stroke-width:0.25;" cx="10.282" cy="4.373" r="4.248"/>
	</g>
</g>
</svg>
