<?xml version="1.0" encoding="iso-8859-1"?>
<!-- Generator: Adobe Illustrator 12.0.1, SVG Export Plug-In . SVG Version: 6.00 Build 51448)  -->
<!DOCTYPE svg PUBLIC "-//W3C//DTD SVG 1.1//EN" "http://www.w3.org/Graphics/SVG/1.1/DTD/svg11.dtd" [
	<!ENTITY ns_svg "http://www.w3.org/2000/svg">
	<!ENTITY ns_xlink "http://www.w3.org/1999/xlink">
]>
<svg  version="1.1" id="&#x56FE;&#x5C42;_1" xmlns="&ns_svg;" xmlns:xlink="&ns_xlink;" width="18.757" height="19.066"
	 viewBox="0 0 18.757 19.066" style="overflow:visible;enable-background:new 0 0 18.757 19.066;" xml:space="preserve">
<g>
	<polygon style="fill:#E83A36;stroke:#000000;" points="15.775,11.148 8.28,4.313 1.233,11.155 3.29,11.154 3.293,18.566 
		13.796,18.562 13.793,11.149 	"/>
	
		<linearGradient id="XMLID_3_" gradientUnits="userSpaceOnUse" x1="8.4595" y1="13.2412" x2="8.4595" y2="6.4802" gradientTransform="matrix(1 -5.000000e-004 5.000000e-004 1 0.0754 -0.0613)">
		<stop  offset="0" style="stop-color:#F0D4AF"/>
		<stop  offset="0.9831" style="stop-color:#F1A32B"/>
	</linearGradient>
	<polygon style="fill:url(#XMLID_3_);" points="13.334,10.862 13.445,18.178 3.643,18.359 3.712,10.825 8.375,6.599 	"/>
	<rect x="6.552" y="12.246" style="fill:#1E1E1F;" width="4.212" height="6.055"/>
</g>
<g>
	<rect x="16.849" y="0.25" style="fill:#89CFF2;stroke:#1A2120;stroke-width:0.5;" width="1.34" height="1.779"/>
	<rect x="9.263" y="2.032" style="fill:#A9AFB6;stroke:#141314;stroke-width:0.5;" width="9.244" height="12.932"/>
	<rect x="16.339" y="13.585" style="fill:#81898E;" width="1.1" height="0.894"/>
	<rect x="12.993" y="13.648" style="fill:#81898E;" width="1.1" height="0.894"/>
	<g>
		<linearGradient id="XMLID_4_" gradientUnits="userSpaceOnUse" x1="13.9053" y1="13.3262" x2="13.9053" y2="3.6318">
			<stop  offset="0" style="stop-color:#32A048"/>
			<stop  offset="1" style="stop-color:#1F3F1C"/>
		</linearGradient>
		<rect x="10.517" y="3.632" style="fill:url(#XMLID_4_);" width="6.777" height="9.694"/>
	</g>
	<rect x="11.324" y="6.242" style="fill:#71C172;" width="3" height="0.333"/>
	<rect x="12.366" y="7.908" style="fill:#71C172;" width="3.833" height="0.334"/>
	<rect x="11.783" y="9.658" style="fill:#71C172;" width="3.875" height="0.417"/>
</g>
</svg>
