<?xml version="1.0" encoding="iso-8859-1"?>
<!-- Generator: Adobe Illustrator 12.0.1, SVG Export Plug-In . SVG Version: 6.00 Build 51448)  -->
<!DOCTYPE svg PUBLIC "-//W3C//DTD SVG 1.1//EN" "http://www.w3.org/Graphics/SVG/1.1/DTD/svg11.dtd" [
	<!ENTITY ns_svg "http://www.w3.org/2000/svg">
	<!ENTITY ns_xlink "http://www.w3.org/1999/xlink">
]>
<svg  version="1.1" id="&#x56FE;&#x5C42;_1" xmlns="&ns_svg;" xmlns:xlink="&ns_xlink;" width="19.216" height="18.845"
	 viewBox="0 0 19.216 18.845" style="overflow:visible;enable-background:new 0 0 19.216 18.845;" xml:space="preserve">
<g>
	<polygon style="fill:#E83A36;stroke:#000000;" points="15.774,10.927 8.28,4.092 1.233,10.934 3.29,10.934 3.293,18.345 
		13.796,18.34 13.792,10.928 	"/>
	
		<linearGradient id="XMLID_6_" gradientUnits="userSpaceOnUse" x1="8.4609" y1="13.041" x2="8.4609" y2="6.28" gradientTransform="matrix(1 -5.000000e-004 5.000000e-004 1 0.0752 -0.0829)">
		<stop  offset="0" style="stop-color:#F0D4AF"/>
		<stop  offset="0.9831" style="stop-color:#F1A32B"/>
	</linearGradient>
	<polygon style="fill:url(#XMLID_6_);" points="13.333,10.641 13.445,17.956 3.643,18.138 3.711,10.604 8.374,6.377 	"/>
	<rect x="6.551" y="12.024" style="fill:#1E1E1F;" width="4.212" height="6.055"/>
</g>
<g>
	
		<linearGradient id="XMLID_7_" gradientUnits="userSpaceOnUse" x1="-4.8135" y1="-46.8379" x2="-2.5264" y2="-47.7969" gradientTransform="matrix(0.9968 -0.0791 0.0791 0.9968 19.4834 56.4907)">
		<stop  offset="0.0056" style="stop-color:#424242"/>
		<stop  offset="0.3202" style="stop-color:#FFFFFF"/>
		<stop  offset="0.736" style="stop-color:#CCCCCC"/>
		<stop  offset="1" style="stop-color:#424242"/>
	</linearGradient>
	<path style="fill:url(#XMLID_7_);stroke:#000100;stroke-width:0.25;" d="M8.169,4.555c0,0,4.915,10.215,5.851,11.45
		c0.939,1.235,4.774-0.28,5.063-1.934c0.29-1.654-7.004-12.892-7.004-12.892s-1.112-0.007-1.629,0.306
		C10.075,1.71,8.885,2.373,8.73,2.607C8.577,2.842,8.169,4.555,8.169,4.555z"/>
	
		<linearGradient id="XMLID_8_" gradientUnits="userSpaceOnUse" x1="-5.1108" y1="-48.3525" x2="2.9917" y2="-48.3525" gradientTransform="matrix(0.9968 -0.0791 0.0791 0.9968 19.4834 56.4907)">
		<stop  offset="0.1067" style="stop-color:#ECECEC"/>
		<stop  offset="0.3202" style="stop-color:#FFFFFF"/>
		<stop  offset="0.736" style="stop-color:#CCCCCC"/>
		<stop  offset="1" style="stop-color:#424242"/>
	</linearGradient>
	<path style="fill:url(#XMLID_8_);stroke:#000100;stroke-width:0.25;" d="M10.24,1.672c0,0,0.554-0.488,1.527-0.691
		c0.972-0.2,1.557-0.32,2.122,0.277c0.569,0.598,3.132,6.128,4.229,8.76c0,0,1.487,3.468,0.759,4.563
		c-0.729,1.095-2.104,1.823-2.898,0.873c-0.791-0.951-4.848-10.668-5.331-11.79C10.164,2.542,9.795,2.002,10.24,1.672z"/>
	<path style="fill:#535456;" d="M8.832,2.551c0,0,1.141-0.808,1.808-1.108c0.67-0.301-0.725,0.086-0.469,0.877
		c0.211,0.654,5.324,12.01,5.649,12.675c0.324,0.67,1.088,0.953,1.64,0.736c0,0-0.64,0.348-0.86,0.39
		c-0.219,0.043-0.975-0.467-1.338-1.302c-0.364-0.837-4.136-9.757-4.415-10.155c-0.278-0.397-0.311-1.112-1.482-0.921
		C8.194,3.936,8.956,2.565,8.832,2.551z"/>
	
		<linearGradient id="XMLID_9_" gradientUnits="userSpaceOnUse" x1="-4.1919" y1="-49.8979" x2="2.2891" y2="-49.8979" gradientTransform="matrix(0.9968 -0.0791 0.0791 0.9968 19.4834 56.4907)">
		<stop  offset="0" style="stop-color:#E5DA67"/>
		<stop  offset="0.9831" style="stop-color:#E7AB39"/>
	</linearGradient>
	<path style="fill:url(#XMLID_9_);stroke:#000100;stroke-width:0.25;" d="M11.197,3.473c-0.214-0.551-0.399-1.003,0.545-1.252
		c0.945-0.248,2.219-0.66,2.49-0.32c0.576,0.719,3.429,6.533,3.844,8.195c0.131,0.518-0.014,0.742-0.577,0.811
		c-0.35,0.046-0.575-0.076-1.026,0.479c-0.45,0.554-1.157,0.659-1.519,0.169C14.326,10.699,11.412,4.025,11.197,3.473z"/>
	
		<linearGradient id="XMLID_10_" gradientUnits="userSpaceOnUse" x1="-16.8257" y1="-40.729" x2="-15.5482" y2="-41.3186" gradientTransform="matrix(0.9023 0.0193 -0.0158 0.7697 21.9419 33.9676)">
		<stop  offset="0.0056" style="stop-color:#4F4F4F"/>
		<stop  offset="0.3202" style="stop-color:#FFFFFF"/>
		<stop  offset="0.736" style="stop-color:#CCCCCC"/>
		<stop  offset="1" style="stop-color:#424242"/>
	</linearGradient>
	<path style="fill:url(#XMLID_10_);stroke:#000100;stroke-width:0.25;" d="M6.628,0.894c0,0-0.182-0.332,0.233-0.562
		c0.106-0.06,0.102-0.056,0.373-0.17c0.182-0.076,0.547-0.066,0.758,0.346c0.206,0.398,1.305,2.57,1.305,2.57
		s0.17,0.403-0.237,0.699C8.655,4.069,8.385,4.159,8.209,4.06C8.035,3.962,6.628,0.894,6.628,0.894z"/>
	<path style="fill:#90BD45;stroke:#000100;stroke-width:0.25;stroke-linecap:round;stroke-linejoin:round;" d="M11.889,3.766
		c0,0,1.983-0.554,2.534-0.77l2.735,5.814l-2.333,1.125L11.889,3.766z"/>
</g>
</svg>
