<?xml version="1.0" encoding="iso-8859-1"?>
<!-- Generator: Adobe Illustrator 12.0.1, SVG Export Plug-In . SVG Version: 6.00 Build 51448)  -->
<!DOCTYPE svg PUBLIC "-//W3C//DTD SVG 1.1//EN" "http://www.w3.org/Graphics/SVG/1.1/DTD/svg11.dtd" [
	<!ENTITY ns_svg "http://www.w3.org/2000/svg">
	<!ENTITY ns_xlink "http://www.w3.org/1999/xlink">
]>
<svg  version="1.1" id="&#x56FE;&#x5C42;_1" xmlns="&ns_svg;" xmlns:xlink="&ns_xlink;" width="19.076" height="18.898"
	 viewBox="0 0 19.076 18.898" style="overflow:visible;enable-background:new 0 0 19.076 18.898;" xml:space="preserve">
<polygon style="fill:#E83A36;stroke:#000000;" points="17.39,10.156 9.064,2.561 1.234,10.164 3.519,10.162 3.523,18.398 
	15.193,18.393 15.189,10.156 "/>
<linearGradient id="XMLID_2_" gradientUnits="userSpaceOnUse" x1="9.2744" y1="12.4961" x2="9.2744" y2="4.7771" gradientTransform="matrix(1 -5.000000e-004 5.000000e-004 1 0.0735 -0.0833)">
	<stop  offset="0" style="stop-color:#F0D4AF"/>
	<stop  offset="0.9831" style="stop-color:#F1A32B"/>
</linearGradient>
<polygon style="fill:url(#XMLID_2_);" points="14.677,9.996 14.802,18.125 3.912,18.326 3.986,9.955 9.167,4.899 "/>
<polygon style="fill:#1E1E1F;" points="11.699,18.218 6.957,18.399 7.015,11.491 11.695,11.489 "/>
<g>
	<g>
		<polygon style="fill:#A2A8AF;" points="10.094,5.578 9.027,5.736 9.061,2.866 10.04,2.288 		"/>
		<polygon style="fill:#A2A8AF;" points="13.933,5.64 12.926,5.64 12.828,2.301 13.823,2.846 		"/>
		<polygon style="fill:#61686B;" points="13.907,5.272 13.297,5.325 13.12,2.447 13.823,2.846 		"/>
		<polygon style="fill:#61686B;" points="9.679,5.212 9.033,5.212 9.033,2.873 9.685,2.5 		"/>
		<polygon style="fill:#979EA4;stroke:#070707;stroke-width:0.5;" points="17.994,9.574 17.994,11.899 5.325,11.959 5.339,9.589 
			8.284,5.418 14.589,5.418 		"/>
		<path style="fill:#C9CDD3;" d="M13.385,7.348c0,0.921-0.856,1.668-1.911,1.668c-1.057,0-1.913-0.747-1.913-1.668
			c0-0.917,0.856-1.665,1.913-1.665C12.529,5.684,13.385,6.431,13.385,7.348z"/>
		<ellipse style="fill:#FFFFFF;" cx="11.41" cy="6.01" rx="0.203" ry="0.195"/>
		<ellipse style="fill:#FFFFFF;" cx="11.41" cy="8.635" rx="0.203" ry="0.195"/>
		<ellipse style="fill:#FFFFFF;" cx="10.327" cy="8.122" rx="0.203" ry="0.195"/>
		<ellipse style="fill:#FFFFFF;" cx="12.527" cy="8.297" rx="0.204" ry="0.195"/>
		<ellipse style="fill:#FFFFFF;" cx="13.001" cy="7.359" rx="0.203" ry="0.195"/>
		<ellipse style="fill:#FFFFFF;" cx="9.853" cy="7.236" rx="0.203" ry="0.195"/>
		<ellipse style="fill:#FFFFFF;" cx="10.445" cy="6.438" rx="0.203" ry="0.195"/>
		<ellipse style="fill:#FFFFFF;" cx="12.426" cy="6.508" rx="0.203" ry="0.195"/>
		<path style="fill:#444B4C;" d="M5.48,5.409c-0.691-0.791-0.6-2.853,0.125-3.6C5.132,1.846,5.026,2.613,4.81,2.82
			C4.065,3.536,4.045,5.03,4.766,5.854c0.719,0.823,1.906,0.912,2.651,0.197C7.452,6.018,7.479,5.975,7.512,5.94
			C6.816,6.197,6.009,6.014,5.48,5.409z"/>
		<path style="fill:#444B4C;" d="M17.827,5.035c-0.701,0.781-2.268,0.521-3.032-0.181c0.07,0.492,0.404,0.861,0.619,1.072
			c0.733,0.724,2.16,0.633,2.892-0.18c0.729-0.812,0.726-2.058-0.009-2.784c-0.035-0.035,0.001-0.07-0.035-0.102
			C18.558,3.567,18.365,4.437,17.827,5.035z"/>
		<path style="fill:#ABB1B8;stroke:#000000;stroke-width:0.5;" d="M18.676,3.379c0.047-0.239-1.283-2.739-3.719-3.129L7.67,0.32
			c-2.059-0.16-3.182,3.291-3.182,3.291C4.144,4.912,4.625,6.049,5.891,6.545s2.566-1.013,2.786-3.192
			c0.19-1.89,5.212-1.596,5.448-0.105c0.577,3.655,2.835,3.34,3.372,3.085C18.599,5.808,19.101,4.711,18.676,3.379z"/>
		<polygon style="fill:#FFFFFF;" points="15.405,0.818 6.976,0.923 7.349,0.551 15.032,0.48 		"/>
		<path style="fill:#FFFFFF;" d="M6.617,2.43c-0.1,0.336-0.371,0.545-0.604,0.468C5.781,2.82,5.677,2.486,5.779,2.15
			C5.881,1.814,6.15,1.604,6.383,1.681C6.616,1.758,6.719,2.094,6.617,2.43z"/>
	</g>
	<rect x="5.422" y="9.68" style="opacity:0.38;fill:#3D4546;" width="12.34" height="2.074"/>
</g>
</svg>
