<?xml version="1.0" encoding="UTF-8" standalone="no"?>
<!-- Generator: Adobe Illustrator 12.0.1, SVG Export Plug-In . SVG Version: 6.00 Build 51448)  -->
<svg
   xmlns:dc="http://purl.org/dc/elements/1.1/"
   xmlns:cc="http://web.resource.org/cc/"
   xmlns:rdf="http://www.w3.org/1999/02/22-rdf-syntax-ns#"
   xmlns:svg="http://www.w3.org/2000/svg"
   xmlns="http://www.w3.org/2000/svg"
   xmlns:sodipodi="http://sodipodi.sourceforge.net/DTD/sodipodi-0.dtd"
   xmlns:inkscape="http://www.inkscape.org/namespaces/inkscape"
   version="1.1"
   id="图层_1"
   width="19.216"
   height="18.845"
   viewBox="0 0 19.216 18.845"
   style="overflow:visible;enable-background:new 0 0 19.216 18.845;"
   xml:space="preserve"
   sodipodi:version="0.32"
   inkscape:version="0.44.1"
   sodipodi:docname="mobile.svg"
   sodipodi:docbase="/home/user"><metadata
   id="metadata65"><rdf:RDF><cc:Work
       rdf:about=""><dc:format>image/svg+xml</dc:format><dc:type
         rdf:resource="http://purl.org/dc/dcmitype/StillImage" /></cc:Work></rdf:RDF></metadata><defs
   id="defs63" /><sodipodi:namedview
   inkscape:cy="7.9825395"
   inkscape:cx="10.748766"
   inkscape:zoom="15.643233"
   inkscape:window-height="617"
   inkscape:window-width="869"
   inkscape:pageshadow="2"
   inkscape:pageopacity="0.0"
   guidetolerance="10.0"
   gridtolerance="10.0"
   objecttolerance="10.0"
   borderopacity="1.0"
   bordercolor="#666666"
   pagecolor="#ffffff"
   id="base"
   inkscape:window-x="0"
   inkscape:window-y="505"
   inkscape:current-layer="图层_1" />

<g
   id="g16"
   transform="translate(-3.231843,1.131551)">
	
		<linearGradient
   id="XMLID_7_"
   gradientUnits="userSpaceOnUse"
   x1="-4.8134999"
   y1="-46.837898"
   x2="-2.5264001"
   y2="-47.796902"
   gradientTransform="matrix(0.9968,-7.91e-2,7.91e-2,0.9968,19.4834,56.4907)">
		<stop
   offset="0.0056"
   style="stop-color:#424242"
   id="stop19" />
		<stop
   offset="0.3202"
   style="stop-color:#FFFFFF"
   id="stop21" />
		<stop
   offset="0.736"
   style="stop-color:#CCCCCC"
   id="stop23" />
		<stop
   offset="1"
   style="stop-color:#424242"
   id="stop25" />
	</linearGradient>
	<path
   style="fill:url(#XMLID_7_);stroke:#000100;stroke-width:0.25"
   d="M 8.169,4.555 C 8.169,4.555 13.084,14.77 14.02,16.005 C 14.959,17.24 18.794,15.725 19.083,14.071 C 19.373,12.417 12.079,1.179 12.079,1.179 C 12.079,1.179 10.967,1.172 10.45,1.485 C 10.075,1.71 8.885,2.373 8.73,2.607 C 8.577,2.842 8.169,4.555 8.169,4.555 z "
   id="path27" />
	
		<linearGradient
   id="XMLID_8_"
   gradientUnits="userSpaceOnUse"
   x1="-5.1107998"
   y1="-48.352501"
   x2="2.9916999"
   y2="-48.352501"
   gradientTransform="matrix(0.9968,-7.91e-2,7.91e-2,0.9968,19.4834,56.4907)">
		<stop
   offset="0.1067"
   style="stop-color:#ECECEC"
   id="stop30" />
		<stop
   offset="0.3202"
   style="stop-color:#FFFFFF"
   id="stop32" />
		<stop
   offset="0.736"
   style="stop-color:#CCCCCC"
   id="stop34" />
		<stop
   offset="1"
   style="stop-color:#424242"
   id="stop36" />
	</linearGradient>
	<path
   style="fill:url(#XMLID_8_);stroke:#000100;stroke-width:0.25"
   d="M 10.24,1.672 C 10.24,1.672 10.794,1.184 11.767,0.981 C 12.739,0.781 13.324,0.661 13.889,1.258 C 14.458,1.856 17.021,7.386 18.118,10.018 C 18.118,10.018 19.605,13.486 18.877,14.581 C 18.148,15.676 16.773,16.404 15.979,15.454 C 15.188,14.503 11.131,4.786 10.648,3.664 C 10.164,2.542 9.795,2.002 10.24,1.672 z "
   id="path38" />
	<path
   style="fill:#535456"
   d="M 8.832,2.551 C 8.832,2.551 9.973,1.743 10.64,1.443 C 11.31,1.142 9.915,1.529 10.171,2.32 C 10.382,2.974 15.495,14.33 15.82,14.995 C 16.144,15.665 16.908,15.948 17.46,15.731 C 17.46,15.731 16.82,16.079 16.6,16.121 C 16.381,16.164 15.625,15.654 15.262,14.819 C 14.898,13.982 11.126,5.062 10.847,4.664 C 10.569,4.267 10.536,3.552 9.365,3.743 C 8.194,3.936 8.956,2.565 8.832,2.551 z "
   id="path40" />
	
		<linearGradient
   id="XMLID_9_"
   gradientUnits="userSpaceOnUse"
   x1="-4.1918998"
   y1="-49.8979"
   x2="2.2890999"
   y2="-49.8979"
   gradientTransform="matrix(0.9968,-7.91e-2,7.91e-2,0.9968,19.4834,56.4907)">
		<stop
   offset="0"
   style="stop-color:#E5DA67"
   id="stop43" />
		<stop
   offset="0.9831"
   style="stop-color:#E7AB39"
   id="stop45" />
	</linearGradient>
	<path
   style="fill:url(#XMLID_9_);stroke:#000100;stroke-width:0.25"
   d="M 11.197,3.473 C 10.983,2.922 10.798,2.47 11.742,2.221 C 12.687,1.973 13.961,1.561 14.232,1.901 C 14.808,2.62 17.661,8.434 18.076,10.096 C 18.207,10.614 18.062,10.838 17.499,10.907 C 17.149,10.953 16.924,10.831 16.473,11.386 C 16.023,11.94 15.316,12.045 14.954,11.555 C 14.326,10.699 11.412,4.025 11.197,3.473 z "
   id="path47" />
	
		<linearGradient
   id="XMLID_10_"
   gradientUnits="userSpaceOnUse"
   x1="-16.825701"
   y1="-40.729"
   x2="-15.5482"
   y2="-41.3186"
   gradientTransform="matrix(0.9023,1.93e-2,-1.58e-2,0.7697,21.9419,33.9676)">
		<stop
   offset="0.0056"
   style="stop-color:#4F4F4F"
   id="stop50" />
		<stop
   offset="0.3202"
   style="stop-color:#FFFFFF"
   id="stop52" />
		<stop
   offset="0.736"
   style="stop-color:#CCCCCC"
   id="stop54" />
		<stop
   offset="1"
   style="stop-color:#424242"
   id="stop56" />
	</linearGradient>
	<path
   style="fill:url(#XMLID_10_);stroke:#000100;stroke-width:0.25"
   d="M 6.628,0.894 C 6.628,0.894 6.446,0.562 6.861,0.332 C 6.967,0.272 6.963,0.276 7.234,0.162 C 7.416,0.086 7.781,0.096 7.992,0.508 C 8.198,0.906 9.297,3.078 9.297,3.078 C 9.297,3.078 9.467,3.481 9.06,3.777 C 8.655,4.069 8.385,4.159 8.209,4.06 C 8.035,3.962 6.628,0.894 6.628,0.894 z "
   id="path58" />
	<path
   style="fill:#90bd45;stroke:#000100;stroke-width:0.25;stroke-linecap:round;stroke-linejoin:round"
   d="M 11.889,3.766 C 11.889,3.766 13.872,3.212 14.423,2.996 L 17.158,8.81 L 14.825,9.935 L 11.889,3.766 z "
   id="path60" />
</g>
</svg>
