<?xml version="1.0" encoding="UTF-8" standalone="no"?>
<!-- Generator: Adobe Illustrator 12.0.0, SVG Export Plug-In . SVG Version: 6.00 Build 51448)  -->
<svg
   xmlns:dc="http://purl.org/dc/elements/1.1/"
   xmlns:cc="http://web.resource.org/cc/"
   xmlns:rdf="http://www.w3.org/1999/02/22-rdf-syntax-ns#"
   xmlns:svg="http://www.w3.org/2000/svg"
   xmlns="http://www.w3.org/2000/svg"
   xmlns:sodipodi="http://sodipodi.sourceforge.net/DTD/sodipodi-0.dtd"
   xmlns:inkscape="http://www.inkscape.org/namespaces/inkscape"
   version="1.1"
   id="Í_xBC__xB2_ã_x5F_1"
   width="18.428"
   height="20.612"
   viewBox="0 0 18.428 20.612"
   style="overflow:visible;enable-background:new 0 0 18.428 20.612;"
   xml:space="preserve"
   sodipodi:version="0.32"
   inkscape:version="0.44.1"
   sodipodi:docname="offline.svg"
   sodipodi:docbase="/home/user"><metadata
   id="metadata47"><rdf:RDF><cc:Work
       rdf:about=""><dc:format>image/svg+xml</dc:format><dc:type
         rdf:resource="http://purl.org/dc/dcmitype/StillImage" /></cc:Work></rdf:RDF></metadata><defs
   id="defs45">
	
		
	
		
	
	
	
	
	<radialGradient
   gradientUnits="userSpaceOnUse"
   r="6.2654"
   cy="2.1147"
   cx="6.9458"
   id="XMLID_2_">
		<stop
   id="stop18"
   style="stop-color:#f4f4f4;stop-opacity:1;"
   offset="0.0056" />
		<stop
   id="stop20"
   style="stop-color:#e2e2e2;stop-opacity:1;"
   offset="0.0796" />
		<stop
   id="stop22"
   style="stop-color:#d9d9d9;stop-opacity:1;"
   offset="0.1842" />
		<stop
   id="stop24"
   style="stop-color:#d9d9d9;stop-opacity:1;"
   offset="0.25279999" />
		<stop
   id="stop26"
   style="stop-color:#d2d2d2;stop-opacity:1;"
   offset="0.56300002" />
		<stop
   id="stop28"
   style="stop-color:#cecece;stop-opacity:1;"
   offset="0.82300001" />
		<stop
   id="stop30"
   style="stop-color:#c8c8c8;stop-opacity:1;"
   offset="1" />
	</radialGradient>
	
	
	
	
	
	
</defs><sodipodi:namedview
   inkscape:window-height="617"
   inkscape:window-width="869"
   inkscape:pageshadow="2"
   inkscape:pageopacity="0.0"
   guidetolerance="10.0"
   gridtolerance="10.0"
   objecttolerance="10.0"
   borderopacity="1.0"
   bordercolor="#666666"
   pagecolor="#ffffff"
   id="base"
   inkscape:zoom="13.962375"
   inkscape:cx="2.7004199"
   inkscape:cy="12.024932"
   inkscape:window-x="723"
   inkscape:window-y="506"
   inkscape:current-layer="Í_xBC__xB2_ã_x5F_1" />
<g
   id="g3176"><ellipse
     transform="matrix(-0.5635,0.8261,-0.8261,-0.5635,15.3635,16.9042)"
     style="fill:#a7acb1;stroke:#7f868a;stroke-width:0.5;stroke-opacity:1;fill-opacity:1"
     cx="3.2160001"
     cy="12.511"
     rx="4.836"
     ry="1.416"
     id="ellipse5"
     sodipodi:cx="3.2160001"
     sodipodi:cy="12.511"
     sodipodi:rx="4.836"
     sodipodi:ry="1.416" /><ellipse
     transform="matrix(0.7234,0.6904,-0.6904,0.7234,12.1838,-6.7727)"
     style="fill:#a9afb1;stroke:#7f868a;stroke-width:0.5;stroke-opacity:1;fill-opacity:1"
     cx="14.545"
     cy="11.82"
     rx="4.835"
     ry="1.416"
     id="ellipse7"
     sodipodi:cx="14.545"
     sodipodi:cy="11.82"
     sodipodi:rx="4.835"
     sodipodi:ry="1.416" /><path
     style="fill:white;stroke:#7f868a;stroke-width:0.5;stroke-opacity:1"
     d="M 14.718,19.212 C 13.059,21.133 4.443,20.299 2.725,19.107 C 2.06,18.647 3.113,10.404 5.807,8.435 C 7.81,6.971 9.809,7.172 11.506,8.331 C 14.044,10.067 15.262,18.581 14.718,19.212 z "
     id="path9" /><polygon
     style="fill:#a9b1b2;stroke:#7f868a;stroke-width:0.5;stroke-opacity:1;fill-opacity:1"
     points="9.07,12.813 7.464,12.852 8.06,9.626 8.825,9.626 9.07,12.813 "
     id="polygon11" /><path
     style="fill:#a7acb1;stroke:#7f868a;stroke-width:0.5;stroke-opacity:1;fill-opacity:1"
     d="M 8.121,13.306 C 8.121,13.306 6.231,9.347 6.325,8.193 C 3.079,10.198 1.075,17.683 2.767,19.107 C 3.759,19.943 8.691,20.299 8.691,20.299 L 8.121,13.306 z "
     id="path13" /><path
     style="fill:#a9afb1;stroke:#7f868a;stroke-width:0.5;stroke-opacity:1;fill-opacity:1"
     d="M 8.018,13.133 C 8.018,13.133 11.082,9.376 10.927,8.036 C 14.241,9.927 15.659,17.32 14.804,19.005 C 13.936,20.713 7.887,20.324 7.887,20.324 L 8.018,13.133 z "
     id="path15" /><path
     style="fill:#a9afb1;fill-opacity:1;stroke:#7f868a;stroke-width:0.48120794;stroke-linecap:square;stroke-opacity:1"
     d="M 11.146374,8.296604 C 11.170885,8.347694 11.903396,10.562249 11.903396,10.562249 L 10.901261,10.841279 L 10.730624,12.138179 L 8.4605008,12.928109 C 8.4605008,12.928109 10.633522,9.9766788 11.146374,8.296604 z "
     id="path34" /><path
     style="fill:#a7acb1;fill-opacity:1;stroke:#7f868a;stroke-width:0.47319931;stroke-linecap:square;stroke-linejoin:miter;stroke-opacity:1"
     d="M 6.1475063,8.1365996 C 6.1149741,8.180926 5.0125996,10.077321 5.0125996,10.077321 L 5.9290762,10.545638 L 5.8556466,11.82821 L 7.6635035,12.791825 C 7.6635035,12.791825 6.3334041,9.8556894 6.1475063,8.1365996 z "
     id="path36" /><ellipse
     style="fill:white;stroke:#7f868a;stroke-width:0.5;stroke-opacity:1"
     cx="8.552"
     cy="14.743"
     rx="0.285"
     ry="0.27200001"
     id="ellipse38"
     sodipodi:cx="8.552"
     sodipodi:cy="14.743"
     sodipodi:rx="0.285"
     sodipodi:ry="0.27200001" /><ellipse
     style="fill:white;stroke:#7f868a;stroke-width:0.5;stroke-opacity:1"
     cx="8.5530005"
     cy="17.385"
     rx="0.31099999"
     ry="0.271"
     id="ellipse40"
     sodipodi:cx="8.5530005"
     sodipodi:cy="17.385"
     sodipodi:rx="0.31099999"
     sodipodi:ry="0.271" /><polygon
     style="fill:#a9b1b2;stroke:#7f868a;stroke-width:0.5;stroke-opacity:1;fill-opacity:1"
     points="8.786,9.563 8.086,9.563 7.905,8.746 8.941,8.746 8.786,9.563 "
     id="polygon42" /><circle
     style="fill:url(#XMLID_2_);stroke:#7f868a;stroke-width:0.5;stroke-opacity:1"
     cx="8.7770004"
     cy="4.4980001"
     r="4.2480001"
     id="circle32"
     sodipodi:cx="8.7770004"
     sodipodi:cy="4.4980001"
     sodipodi:rx="4.2480001"
     sodipodi:ry="4.2480001" /></g>
</svg>
