<?xml version="1.0" encoding="UTF-8" standalone="no"?>
<!-- Generator: Adobe Illustrator 12.0.1, SVG Export Plug-In . SVG Version: 6.00 Build 51448)  -->
<svg
   xmlns:dc="http://purl.org/dc/elements/1.1/"
   xmlns:cc="http://web.resource.org/cc/"
   xmlns:rdf="http://www.w3.org/1999/02/22-rdf-syntax-ns#"
   xmlns:svg="http://www.w3.org/2000/svg"
   xmlns="http://www.w3.org/2000/svg"
   xmlns:sodipodi="http://sodipodi.sourceforge.net/DTD/sodipodi-0.dtd"
   xmlns:inkscape="http://www.inkscape.org/namespaces/inkscape"
   version="1.1"
   id="Í_xBC__xB2_ã_x5F_1"
   width="19.399"
   height="19.399"
   viewBox="0 0 19.399 19.399"
   style="overflow:visible;enable-background:new 0 0 19.399 19.399;"
   xml:space="preserve"
   sodipodi:version="0.32"
   inkscape:version="0.44.1"
   sodipodi:docname="pager.svg"
   sodipodi:docbase="/home/user"><metadata
   id="metadata57"><rdf:RDF><cc:Work
       rdf:about=""><dc:format>image/svg+xml</dc:format><dc:type
         rdf:resource="http://purl.org/dc/dcmitype/StillImage" /></cc:Work></rdf:RDF></metadata><defs
   id="defs55" /><sodipodi:namedview
   inkscape:cy="-2.303307"
   inkscape:cx="18.426456"
   inkscape:zoom="8.0516641"
   inkscape:window-height="617"
   inkscape:window-width="869"
   inkscape:pageshadow="2"
   inkscape:pageopacity="0.0"
   guidetolerance="10.0"
   gridtolerance="10.0"
   objecttolerance="10.0"
   borderopacity="1.0"
   bordercolor="#666666"
   pagecolor="#ffffff"
   id="base"
   inkscape:window-x="0"
   inkscape:window-y="505"
   inkscape:current-layer="Í_xBC__xB2_ã_x5F_1" />

<g
   id="g36"
   transform="translate(-2.68,1.152)">
	<path
   style="fill:none;stroke:#ea302f;stroke-width:0.25"
   d="M 16.452,0.964 C 16.452,3.403 14.629,5.383 12.38,5.383 C 10.13,5.383 8.308,3.404 8.308,0.964"
   id="path38" />
	<path
   style="fill:none;stroke:#ea302f;stroke-width:0.25"
   d="M 14.607,1.508 C 14.607,3.07 13.515,4.337 12.169,4.337 C 10.821,4.337 9.731,3.069 9.731,1.508"
   id="path40" />
	<path
   style="fill:none;stroke:#ea302f;stroke-width:0.25"
   d="M 18.103,0.361 C 18.103,3.765 15.54,6.526 12.38,6.526 C 9.219,6.526 6.656,3.765 6.656,0.361"
   id="path42" />
	<path
   style="fill:none;stroke:#ea302f;stroke-width:0.25"
   d="M 19.274,0 C 19.274,4.103 16.185,7.43 12.379,7.43 C 8.572,7.43 5.485,4.103 5.485,0"
   id="path44" />
	<path
   style="fill:#9ea5ac;stroke:#6f7071;stroke-width:0.5"
   d="M 12.943,16.063 C 12.943,16.564 12.539,16.97 12.041,16.97 L 12.041,16.97 C 11.541,16.97 11.138,16.564 11.138,16.063 L 11.138,2.857 C 11.138,2.355 11.541,1.949 12.041,1.949 L 12.041,1.949 C 12.539,1.949 12.943,2.355 12.943,2.857 L 12.943,16.063 z "
   id="path46" />
	<rect
   x="11.245"
   y="5.0819998"
   style="fill:#ea2d2e"
   width="1.6059999"
   height="1.0829999"
   id="rect48" />
	<rect
   x="11.245"
   y="6.8889999"
   style="fill:#ea2d2e"
   width="1.6670001"
   height="1.0829999"
   id="rect50" />
	<rect
   x="11.185"
   y="2.4070001"
   style="fill:#ea2d2e"
   width="1.556"
   height="2.1059999"
   id="rect52" />
</g>
</svg>
