<?xml version="1.0" encoding="iso-8859-1"?>
<!-- Generator: Adobe Illustrator 12.0.1, SVG Export Plug-In . SVG Version: 6.00 Build 51448)  -->
<!DOCTYPE svg PUBLIC "-//W3C//DTD SVG 1.1//EN" "http://www.w3.org/Graphics/SVG/1.1/DTD/svg11.dtd" [
	<!ENTITY ns_svg "http://www.w3.org/2000/svg">
	<!ENTITY ns_xlink "http://www.w3.org/1999/xlink">
]>
<svg  version="1.1" xmlns="&ns_svg;" xmlns:xlink="&ns_xlink;" width="20.284" height="20.362" viewBox="0 0 20.284 20.362"
	 style="overflow:visible;enable-background:new 0 0 20.284 20.362;" xml:space="preserve">
<g id="&#x56FE;&#x5C42;_2">
</g>
<g id="&#x56FE;&#x5C42;_1">
	<g>
		
			<ellipse transform="matrix(0.7234 0.6905 -0.6905 0.7234 12.5146 -7.8469)" style="fill:#565656;stroke:#000000;stroke-width:0.25;" cx="16.05" cy="11.695" rx="4.835" ry="1.416"/>
		
			<ellipse transform="matrix(0.7234 -0.6905 0.6905 0.7234 -6.9198 5.7838)" style="fill:#565656;stroke:#000000;stroke-width:0.25;" cx="3.758" cy="11.528" rx="4.835" ry="1.416"/>
		<polygon style="fill:#3F3F3F;stroke:#000000;stroke-width:0.25;" points="10.576,12.688 8.97,12.727 9.565,9.501 10.33,9.501 		
			"/>
		<path style="fill:#565656;stroke:#000000;stroke-width:0.25;" d="M9.523,13.008c0,0,3.063-3.757,2.908-5.097
			c3.314,1.891,4.732,9.284,3.878,10.969c-0.868,1.708-6.917,1.319-6.917,1.319L9.523,13.008z"/>
		<path style="fill:#565656;stroke:#000000;stroke-width:0.25;" d="M10.506,12.925c0,0-3.063-3.757-2.908-5.097
			C4.283,9.719,2.865,17.112,3.72,18.797c0.868,1.707,6.917,1.318,6.917,1.318L10.506,12.925z"/>
		<path style="fill:#565656;stroke:#000000;stroke-width:0.25;" d="M12.597,8.181c0.026,0.052,0.803,2.306,0.803,2.306l-1.063,0.284
			l-0.181,1.32l-2.063,0.508C10.094,12.599,12.053,9.891,12.597,8.181z"/>
		<path style="fill:#565656;stroke:#000000;stroke-width:0.25;" d="M7.383,8.264C7.356,8.316,6.58,10.57,6.58,10.57l1.063,0.284
			l0.181,1.32l2.409,0.804C10.232,12.978,7.927,9.974,7.383,8.264z"/>
		<ellipse style="fill:#FFFFFF;stroke:#7F7F7F;stroke-width:0.25;" cx="10.058" cy="14.618" rx="0.285" ry="0.272"/>
		<ellipse style="fill:#FFFFFF;stroke:#7F7F7F;stroke-width:0.25;" cx="10.058" cy="17.26" rx="0.311" ry="0.271"/>
		<polygon style="fill:#3F3F3F;stroke:#000000;stroke-width:0.25;" points="10.291,9.438 9.592,9.438 9.41,8.621 10.446,8.621 		"/>
		<radialGradient id="XMLID_4_" cx="8.4512" cy="1.9897" r="6.2656" gradientUnits="userSpaceOnUse">
			<stop  offset="0.0056" style="stop-color:#F6EEC5"/>
			<stop  offset="0.0845" style="stop-color:#F8E9B0"/>
			<stop  offset="0.1862" style="stop-color:#F9E59B"/>
			<stop  offset="0.2528" style="stop-color:#FAE393"/>
			<stop  offset="0.3599" style="stop-color:#F1D784"/>
			<stop  offset="0.6253" style="stop-color:#DEBC64"/>
			<stop  offset="0.8482" style="stop-color:#D2AC50"/>
			<stop  offset="1" style="stop-color:#CEA649"/>
		</radialGradient>
		<circle style="fill:url(#XMLID_4_);stroke:#000000;stroke-width:0.25;" cx="10.283" cy="4.373" r="4.249"/>
	</g>
	<defs>
		<filter id="Adobe_OpacityMaskFilter" filterUnits="userSpaceOnUse" x="5.609" y="4.928" width="14.675" height="8.556">
			
				<feColorMatrix  type="matrix" values="-1 0 0 0 1  0 -1 0 0 1  0 0 -1 0 1  0 0 0 1 0" color-interpolation-filters="sRGB" result="source"/>
		</filter>
	</defs>
	<mask maskUnits="userSpaceOnUse" x="5.609" y="4.928" width="14.675" height="8.556" id="XMLID_5_">
		<g style="filter:url(#Adobe_OpacityMaskFilter);">
			<linearGradient id="XMLID_6_" gradientUnits="userSpaceOnUse" x1="6.8281" y1="9.2061" x2="19.4884" y2="9.2061">
				<stop  offset="0" style="stop-color:#FFFFFF"/>
				<stop  offset="0.0263" style="stop-color:#F9F9F9"/>
				<stop  offset="0.0623" style="stop-color:#E7E7E7"/>
				<stop  offset="0.1039" style="stop-color:#CACACA"/>
				<stop  offset="0.1498" style="stop-color:#A2A2A2"/>
				<stop  offset="0.1991" style="stop-color:#6E6E6E"/>
				<stop  offset="0.2506" style="stop-color:#303030"/>
				<stop  offset="0.2865" style="stop-color:#000000"/>
			</linearGradient>
			<rect x="4.284" y="4.512" style="fill:url(#XMLID_6_);" width="16.598" height="9.389"/>
		</g>
	</mask>
	<g style="mask:url(#XMLID_5_);">
		<polygon style="fill:#ABCD03;stroke:#1E0000;stroke-width:0.5;stroke-linejoin:round;" points="20.034,9.297 15.566,5.178 
			15.566,7.359 5.859,7.359 5.859,11.054 15.566,11.054 15.566,13.234 		"/>
		<polygon style="fill:#949A3F;" points="20.155,9.524 19.443,9.236 15.799,10.187 15.794,10.146 6.162,10.115 6.162,10.914 
			15.637,10.933 16.109,13.102 		"/>
	</g>
</g>
</svg>
