<?xml version="1.0" encoding="iso-8859-1"?>
<!-- Generator: Adobe Illustrator 12.0.1, SVG Export Plug-In . SVG Version: 6.00 Build 51448)  -->
<!DOCTYPE svg PUBLIC "-//W3C//DTD SVG 1.1//EN" "http://www.w3.org/Graphics/SVG/1.1/DTD/svg11.dtd" [
	<!ENTITY ns_svg "http://www.w3.org/2000/svg">
	<!ENTITY ns_xlink "http://www.w3.org/1999/xlink">
]>
<svg  version="1.1" id="&#x56FE;&#x5C42;_1" xmlns="&ns_svg;" xmlns:xlink="&ns_xlink;" width="19.809" height="20.366"
	 viewBox="0 0 19.809 20.366" overflow="visible" enable-background="new 0 0 19.809 20.366" xml:space="preserve">
<g>
	
		<ellipse transform="matrix(0.7234 0.6904 -0.6904 0.7234 12.5132 -7.8467)" fill="#38DEFF" stroke="#000000" stroke-width="0.25" cx="16.05" cy="11.695" rx="4.835" ry="1.416"/>
	
		<ellipse transform="matrix(0.7233 -0.6905 0.6905 0.7233 -6.9202 5.7846)" fill="#38DEFF" stroke="#000000" stroke-width="0.25" cx="3.758" cy="11.528" rx="4.835" ry="1.416"/>
	<polygon fill="#38DEFF" stroke="#000000" stroke-width="0.25" points="10.576,12.687 8.97,12.726 9.565,9.501 10.33,9.501 	"/>
	<linearGradient id="XMLID_4_" gradientUnits="userSpaceOnUse" x1="9.3926" y1="14.0742" x2="16.5527" y2="14.0742">
		<stop  offset="0.5" style="stop-color:#47DEFF"/>
		<stop  offset="0.5683" style="stop-color:#41CFF5"/>
		<stop  offset="0.7008" style="stop-color:#32A6DB"/>
		<stop  offset="0.8824" style="stop-color:#1965B1"/>
		<stop  offset="0.9719" style="stop-color:#0C439B"/>
	</linearGradient>
	<path fill="url(#XMLID_4_)" stroke="#000000" stroke-width="0.25" d="M9.523,13.007c0,0,3.063-3.756,2.908-5.096
		c3.314,1.891,4.732,9.283,3.878,10.969c-0.868,1.707-6.917,1.318-6.917,1.318L9.523,13.007z"/>
	<linearGradient id="XMLID_5_" gradientUnits="userSpaceOnUse" x1="9.665" y1="14.0342" x2="2.977" y2="14.0342">
		<stop  offset="0.5" style="stop-color:#47DEFF"/>
		<stop  offset="0.5683" style="stop-color:#41CFF5"/>
		<stop  offset="0.7008" style="stop-color:#32A6DB"/>
		<stop  offset="0.8824" style="stop-color:#1965B1"/>
		<stop  offset="0.9719" style="stop-color:#0C439B"/>
	</linearGradient>
	<path fill="url(#XMLID_5_)" stroke="#000000" stroke-width="0.25" d="M10.506,12.925c0,0-3.063-3.758-2.908-5.098
		c-3.314,1.891-4.732,9.285-3.878,10.97c0.868,1.707,6.686,1.426,6.686,1.426L10.506,12.925z"/>
	<path fill="#38DEFF" stroke="#000000" stroke-width="0.25" d="M12.597,8.181c0.026,0.051,0.803,2.305,0.803,2.305l-1.063,0.285
		l-0.181,1.32l-2.063,0.508C10.094,12.599,12.053,9.89,12.597,8.181z"/>
	<path fill="#38DEFF" stroke="#000000" stroke-width="0.25" d="M7.57,8.077c-0.026,0.052-0.803,2.306-0.803,2.306l1.063,0.284
		l0.181,1.32l2.409,0.804C10.42,12.791,8.114,9.787,7.57,8.077z"/>
	<ellipse fill="#FFFFFF" stroke="#7F7F7F" stroke-width="0.25" cx="10.058" cy="14.619" rx="0.285" ry="0.271"/>
	<ellipse fill="#FFFFFF" stroke="#7F7F7F" stroke-width="0.25" cx="10.058" cy="17.259" rx="0.311" ry="0.271"/>
	<polygon fill="#38DEFF" stroke="#000000" stroke-width="0.25" points="10.291,9.437 9.592,9.437 9.41,8.621 10.446,8.621 	"/>
	<radialGradient id="XMLID_6_" cx="8.4512" cy="1.9902" r="6.2651" gradientUnits="userSpaceOnUse">
		<stop  offset="0.0056" style="stop-color:#F6EEC5"/>
		<stop  offset="0.0845" style="stop-color:#F8E9B0"/>
		<stop  offset="0.1862" style="stop-color:#F9E59B"/>
		<stop  offset="0.2528" style="stop-color:#FAE393"/>
		<stop  offset="0.3599" style="stop-color:#F1D784"/>
		<stop  offset="0.6253" style="stop-color:#DEBC64"/>
		<stop  offset="0.8482" style="stop-color:#D2AC50"/>
		<stop  offset="1" style="stop-color:#CEA649"/>
	</radialGradient>
	<circle fill="url(#XMLID_6_)" stroke="#000000" stroke-width="0.25" cx="10.283" cy="4.373" r="4.249"/>
</g>
</svg>
