<?xml version="1.0" encoding="iso-8859-1"?>
<!-- Generator: Adobe Illustrator 12.0.1, SVG Export Plug-In . SVG Version: 6.00 Build 51448)  -->
<!DOCTYPE svg PUBLIC "-//W3C//DTD SVG 1.1//EN" "http://www.w3.org/Graphics/SVG/1.1/DTD/svg11.dtd" [
	<!ENTITY ns_svg "http://www.w3.org/2000/svg">
	<!ENTITY ns_xlink "http://www.w3.org/1999/xlink">
]>
<svg  version="1.1" id="&#x56FE;&#x5C42;_1" xmlns="&ns_svg;" xmlns:xlink="&ns_xlink;" width="22.873" height="21.581"
	 viewBox="0 0 22.873 21.581" style="overflow:visible;enable-background:new 0 0 22.873 21.581;" xml:space="preserve">
<g>
	<g>
		<radialGradient id="XMLID_3_" cx="10.2539" cy="5.124" r="14.9601" fx="9.1914" fy="2.4991" gradientUnits="userSpaceOnUse">
			<stop  offset="0.0056" style="stop-color:#DBF7E3"/>
			<stop  offset="0.2901" style="stop-color:#B3DCE0"/>
			<stop  offset="0.9265" style="stop-color:#4D97DA"/>
			<stop  offset="0.9775" style="stop-color:#4591D9"/>
		</radialGradient>
		<circle style="fill:url(#XMLID_3_);stroke:#000000;stroke-width:0.5;" cx="11.167" cy="10.421" r="10.171"/>
		<path style="fill:#C7BA0A;" d="M13.767,17.624c0,0,0.728,0.086,0.688,0.678c-0.041,0.596-3.998,2.025-3.998,2.025
			s4.59,0.319,7.703-2.906c3.116-3.228-0.065-0.434-0.065-0.434s1.455-1.996,1.253-2.718c-0.203-0.721-0.85-1.527-1.173-0.807
			c-0.324,0.724-0.486-0.425-0.486-0.425s-0.121,0.044-0.404-0.169c-0.282-0.211-0.04,0.383-0.403,0.68
			c-0.365,0.297-0.203-0.594-0.283-0.977c-0.082-0.382-1.457-0.341-1.619-0.086c-0.161,0.256-0.403,0.552-0.403,0.552l-0.081-0.807
			c0,0-0.243,0.724-0.526,0.807c-0.282,0.086,0.162,0.68-1.091,0.341c-1.254-0.341-0.566-0.849-0.566-0.849l0.445-0.51
			c0,0-0.364,0.128-0.769-0.169c-0.404-0.299-0.283-1.189-0.283-1.189s-0.687-0.211-0.89,0.552
			c-0.202,0.765-0.727,0.211-0.889,0.297s-1.132-1.952,0.565-2.502c1.699-0.554,0.648-0.471,0.648-0.471s1.133,0.299,1.133,0.852
			c0,0.552,0.323,0.127,0.323,0.127S11.948,8.538,12.473,8.2c0.524-0.339,1.132-2.377,1.456-2.377c0.323,0,0.97-0.552,0.97-0.552
			s0.203-0.213-0.485-0.468c-0.688-0.255,0.607-0.763,0.082-1.016c-0.526-0.258-1.213-0.766-1.213-0.766s-0.242-0.382-0.242,0
			c0,0.383-1.091-0.468-1.091-0.468s0.564,1.274,0.242,1.486c-0.324,0.213-0.324,0.213-0.324,0.213s-0.242,0-1.132-0.807
			c-0.889-0.807-0.243-0.935,0.283-0.935c0.525,0,0.161-0.508,0.161-0.508s-0.283,0.295-0.565,0
			c-0.283-0.299,0.282-0.213-0.566-0.044S8.227,2.3,8.146,1.578C8.066,0.857,8.308,1.919,7.418,1.706
			c-0.89-0.211-0.323-0.128-0.323-0.128S7.57,1.184,7.418,1.24c-2.85,1.058-2.842,1.696-3.114,1.696c-0.323,0,1.66-0.552,1.66-0.552
			s-0.245,0.68,0,0.849c0.241,0.172,0.606,0.214,0.282,0.68C5.922,4.381,6.164,5.017,6.164,5.017S5.194,6.078,5.518,6.8
			c0.323,0.721,0.484,0.552,0.484,0.552s1.659,2.59,2.064,3.227c0.402,0.636,0.848,0.339,0.848,0.339l-0.565,0.297
			c0,0,0.364,0.424,0.768,0.51c0.405,0.084,0.891,0.128,0.891,0.128s0.444,0.424,0.565,0.424c0.121,0,1.132,0.211,1.132,0.211
			l0.567,1.021l0.687,0.086c0,0,1.941,0.169-0.04,1.694c-1.981,1.53-0.284,1.403,0,0.555c0.282-0.851,0.849,0.338,0.282,1.06"/>
		<path style="fill:#4E6211;" d="M10.317,18.898c0,0,0.922-1.264,0.792-1.721c-0.126-0.457-0.537-0.967-0.742-0.51
			c-0.205,0.456-0.307-0.269-0.307-0.269s-0.077,0.026-0.256-0.107c-0.18-0.134-0.026,0.241-0.256,0.429
			c-0.231,0.188-0.129-0.375-0.18-0.616c-0.051-0.242-0.922-0.217-1.024-0.055c-0.103,0.161-0.255,0.35-0.255,0.35l-0.051-0.512
			c0,0-0.155,0.458-0.333,0.512c-0.176,0.052,0.094,0.419-0.663,0.222c-0.021,0.036-0.032,0.077-0.038,0.119l0.06,0.009
			c0,0,1.23,0.106-0.024,1.073c-0.181,0.141-0.309,0.255-0.403,0.353c-0.005,0.09-0.005,0.232,0.025,0.366
			c0.145-0.051,0.316-0.182,0.378-0.368c0.179-0.538,0.537,0.214,0.179,0.671l0.082,0.104c0.006-0.002,0.01-0.003,0.01-0.003
			l-0.007,0.007l0.274,0.35c0,0,0.407,0.051,0.431,0.374c0.01-0.04,0.027-0.072,0.07-0.086c0.18-0.055,0.333-0.511,0.333-0.511
			l0.052,0.511c0,0,0.153-0.188,0.255-0.349c0.103-0.162,0.973-0.188,1.024,0.053c0.015,0.068,0.017,0.161,0.018,0.255
			c0.066-0.063,0.13-0.124,0.198-0.194C11.93,17.313,10.317,18.898,10.317,18.898z"/>
		<path style="fill:#C7BA0A;" d="M7.231,15.982c-0.096-0.22-0.223-0.607,0.004-0.777c0.044-0.032,0.089-0.087,0.134-0.158
			c-0.048-0.155-0.093-0.273-0.093-0.273s0.073,0.064,0.169,0.142c0.264-0.501,0.532-1.408,0.688-1.408
			c0.201,0,0.599-0.395,0.599-0.395s0.125-0.152-0.3-0.334c-0.423-0.183,0.376-0.546,0.05-0.728
			c-0.323-0.183-0.749-0.548-0.749-0.548s-0.148-0.271-0.148,0c0,0.275-0.674-0.332-0.674-0.332s0.349,0.91,0.149,1.062
			c-0.2,0.152-0.2,0.152-0.2,0.152s-0.148,0-0.699-0.577c-0.549-0.576-0.151-0.668,0.174-0.668c0.324,0,0.101-0.363,0.101-0.363
			s-0.175,0.212-0.349,0c-0.065-0.079-0.058-0.12-0.05-0.135c-0.017,0.015-0.083,0.054-0.3,0.104
			c-0.525,0.121-1.123,0.242-1.173-0.273c-0.05-0.515,0.101,0.243-0.449,0.091c-0.55-0.151-0.2-0.091-0.2-0.091
			s0.292-0.283,0.2-0.242c-1.331,0.571-1.652,0.971-1.802,1.133c0.285-0.115,0.904-0.314,0.904-0.314s-0.151,0.486,0,0.607
			c0.148,0.122,0.375,0.151,0.174,0.485c-0.2,0.334-0.05,0.788-0.05,0.788s-0.599,0.759-0.399,1.275
			c0.078,0.199,0.139,0.302,0.188,0.355c0.264-0.193,0.678-0.439,1.35-0.727c0.094-0.041-0.199,0.241-0.199,0.241
			s-0.351-0.06,0.199,0.091c0.55,0.151,0.399-0.606,0.45-0.091c0.05,0.518,0.648,0.396,1.173,0.273
			c0.216-0.05,0.283-0.091,0.299-0.103c-0.006,0.012-0.014,0.054,0.05,0.134c0.174,0.213,0.35,0,0.35,0s0.224,0.364-0.1,0.364
			s-0.723,0.09-0.174,0.666c0.052,0.055,0.098,0.1,0.143,0.146c0.156,0.078,0.337,0.197,0.41,0.357
			c0.107,0.073,0.146,0.073,0.146,0.073S7.226,15.985,7.231,15.982z"/>
		<path style="fill:#9BC41E;" d="M1.01,10.239c0.043,0,0.073-0.025,0.124-0.071C1.015,10.209,0.951,10.239,1.01,10.239z"/>
		<path style="fill:#C7BA0A;" d="M11.521,1.645c0,0,2.004-0.327,4.118,1.09c2.115,1.418,0.437,0.108,0.458,0
			c0.022-0.108-0.72-0.893-0.458-0.893c0.262,0,0-0.284,0-0.284s-2.637-1.177-2.832-0.719c-0.197,0.458-0.023,0.37-0.023,0.37
			s-0.414,0.219-0.501-0.043c-0.087-0.262,0.283-0.131,0.283-0.131s-0.763-0.282-0.806-0.109
			C11.716,1.101,11.521,1.645,11.521,1.645z"/>
	</g>
	<g>
		<g>
			<linearGradient id="XMLID_4_" gradientUnits="userSpaceOnUse" x1="11.2744" y1="23.8115" x2="11.2744" y2="1.0615">
				<stop  offset="0" style="stop-color:#EBF015"/>
				<stop  offset="0.1664" style="stop-color:#D7E716"/>
				<stop  offset="0.7327" style="stop-color:#96CB1A"/>
				<stop  offset="1" style="stop-color:#7DC01B"/>
			</linearGradient>
			<polygon style="fill:url(#XMLID_4_);stroke:#000000;stroke-width:0.5;" points="17.939,1.648 4.199,16.459 4.269,11.53 
				0.25,11.53 0.25,21.331 4.199,21.331 22.299,1.604 			"/>
		</g>
	</g>
</g>
</svg>
