<?xml version="1.0" encoding="iso-8859-1"?>
<!-- Generator: Adobe Illustrator 12.0.1, SVG Export Plug-In . SVG Version: 6.00 Build 51448)  -->
<!DOCTYPE svg PUBLIC "-//W3C//DTD SVG 1.1//EN" "http://www.w3.org/Graphics/SVG/1.1/DTD/svg11.dtd" [
	<!ENTITY ns_svg "http://www.w3.org/2000/svg">
	<!ENTITY ns_xlink "http://www.w3.org/1999/xlink">
]>
<svg  version="1.1" id="&#x56FE;&#x5C42;_1" xmlns="&ns_svg;" xmlns:xlink="&ns_xlink;" width="21.032" height="20.47"
	 viewBox="0 0 21.032 20.47" style="overflow:visible;enable-background:new 0 0 21.032 20.47;" xml:space="preserve">
<g>
	<g>
		<radialGradient id="XMLID_3_" cx="7.6201" cy="7.8213" r="12.112" fx="6.7599" fy="5.6961" gradientUnits="userSpaceOnUse">
			<stop  offset="0.0056" style="stop-color:#DBF7E3"/>
			<stop  offset="0.2901" style="stop-color:#B3DCE0"/>
			<stop  offset="0.9265" style="stop-color:#4D97DA"/>
			<stop  offset="0.9775" style="stop-color:#4591D9"/>
		</radialGradient>
		<circle style="fill:url(#XMLID_3_);stroke:#000000;stroke-width:0.25;" cx="8.36" cy="12.109" r="8.235"/>
		<path style="fill:#C7BA0A;" d="M10.465,17.941c0,0,0.59,0.069,0.558,0.548c-0.033,0.482-3.238,1.64-3.238,1.64
			s3.717,0.259,6.237-2.353c2.522-2.612-0.052-0.351-0.052-0.351s1.177-1.616,1.013-2.201c-0.163-0.583-0.688-1.236-0.948-0.653
			c-0.263,0.586-0.395-0.344-0.395-0.344s-0.097,0.035-0.327-0.137c-0.229-0.171-0.032,0.31-0.326,0.551
			c-0.295,0.24-0.164-0.481-0.229-0.791c-0.065-0.309-1.179-0.276-1.311-0.069c-0.131,0.207-0.327,0.447-0.327,0.447l-0.064-0.653
			c0,0-0.197,0.586-0.427,0.653c-0.228,0.069,0.131,0.55-0.883,0.276c-1.016-0.276-0.459-0.687-0.459-0.687l0.361-0.413
			c0,0-0.296,0.103-0.623-0.137c-0.327-0.242-0.229-0.962-0.229-0.962s-0.557-0.171-0.721,0.446c-0.162,0.619-0.588,0.171-0.72,0.24
			c-0.131,0.07-0.916-1.581,0.458-2.025c1.375-0.448,0.524-0.381,0.524-0.381s0.917,0.242,0.917,0.69
			c0,0.446,0.262,0.103,0.262,0.103s-0.522-0.792-0.099-1.066c0.425-0.274,0.917-1.924,1.179-1.924s0.786-0.447,0.786-0.447
			s0.163-0.172-0.393-0.378c-0.557-0.207,0.491-0.618,0.065-0.823c-0.427-0.208-0.982-0.62-0.982-0.62s-0.196-0.309-0.196,0
			c0,0.31-0.883-0.379-0.883-0.379S9.45,6.773,9.188,6.944C8.926,7.117,8.926,7.117,8.926,7.117s-0.196,0-0.917-0.653
			c-0.72-0.653-0.196-0.757,0.229-0.757s0.131-0.411,0.131-0.411s-0.229,0.239-0.457,0C7.683,5.054,8.14,5.124,7.452,5.26
			C6.766,5.397,5.98,5.535,5.915,4.951c-0.065-0.583,0.13,0.275-0.59,0.104C4.604,4.883,5.063,4.951,5.063,4.951
			s0.384-0.32,0.262-0.274C3.018,5.533,3.023,6.05,2.805,6.05c-0.263,0,1.342-0.447,1.342-0.447s-0.197,0.55,0,0.687
			c0.196,0.139,0.492,0.173,0.229,0.55C4.114,7.22,4.309,7.734,4.309,7.734S3.524,8.594,3.787,9.178
			c0.262,0.583,0.392,0.446,0.392,0.446s1.343,2.097,1.671,2.612c0.325,0.515,0.687,0.274,0.687,0.274l-0.459,0.24
			c0,0,0.296,0.343,0.623,0.413c0.327,0.068,0.721,0.104,0.721,0.104s0.359,0.343,0.458,0.343c0.098,0,0.916,0.171,0.916,0.171
			l0.459,0.826l0.557,0.069c0,0,1.571,0.137-0.032,1.372c-1.604,1.239-0.23,1.136,0,0.449c0.228-0.689,0.687,0.273,0.228,0.857"/>
		<path style="fill:#4E6211;" d="M7.673,18.973c0,0,0.746-1.023,0.64-1.393c-0.102-0.37-0.434-0.783-0.6-0.413
			c-0.166,0.369-0.248-0.217-0.248-0.217s-0.063,0.021-0.207-0.087c-0.146-0.108-0.021,0.195-0.207,0.347
			c-0.188,0.153-0.104-0.303-0.146-0.499c-0.042-0.196-0.746-0.176-0.828-0.044c-0.084,0.13-0.207,0.283-0.207,0.283l-0.042-0.415
			c0,0-0.125,0.371-0.27,0.415c-0.144,0.042,0.077,0.339-0.537,0.179c-0.016,0.03-0.025,0.063-0.029,0.097l0.048,0.007
			c0,0,0.995,0.086-0.02,0.869c-0.146,0.114-0.25,0.206-0.326,0.286c-0.005,0.072-0.005,0.188,0.021,0.296
			c0.117-0.041,0.255-0.146,0.306-0.298c0.146-0.436,0.435,0.173,0.146,0.543l0.065,0.084c0.006-0.001,0.009-0.002,0.009-0.002
			l-0.007,0.005l0.222,0.283c0,0,0.33,0.041,0.35,0.303c0.008-0.032,0.022-0.059,0.057-0.069c0.145-0.044,0.27-0.414,0.27-0.414
			l0.042,0.414c0,0,0.123-0.153,0.206-0.282c0.084-0.131,0.789-0.153,0.83,0.042c0.012,0.055,0.014,0.13,0.015,0.207
			c0.054-0.051,0.104-0.101,0.159-0.157C8.977,17.689,7.673,18.973,7.673,18.973z"/>
		<path style="fill:#C7BA0A;" d="M5.174,16.612c-0.079-0.178-0.18-0.492,0.003-0.629c0.035-0.026,0.072-0.071,0.107-0.128
			c-0.038-0.126-0.074-0.222-0.074-0.222s0.06,0.052,0.137,0.115c0.215-0.406,0.431-1.14,0.559-1.14
			c0.161,0,0.483-0.319,0.483-0.319s0.103-0.124-0.242-0.271c-0.343-0.148,0.305-0.442,0.04-0.589
			c-0.261-0.148-0.605-0.444-0.605-0.444s-0.12-0.22-0.12,0c0,0.223-0.546-0.269-0.546-0.269s0.282,0.737,0.12,0.859
			C4.874,13.7,4.874,13.7,4.874,13.7s-0.12,0-0.566-0.467c-0.444-0.467-0.121-0.541,0.142-0.541s0.082-0.294,0.082-0.294
			s-0.142,0.172-0.283,0c-0.053-0.064-0.047-0.097-0.04-0.109C4.193,12.3,4.14,12.332,3.964,12.373
			c-0.425,0.098-0.908,0.196-0.948-0.221c-0.041-0.417,0.08,0.197-0.364,0.074c-0.445-0.123-0.162-0.074-0.162-0.074
			s0.237-0.229,0.162-0.196c-1.078,0.462-1.337,0.786-1.458,0.917c0.229-0.094,0.731-0.255,0.731-0.255s-0.123,0.394,0,0.492
			c0.12,0.099,0.303,0.123,0.141,0.393c-0.161,0.271-0.041,0.638-0.041,0.638s-0.484,0.614-0.323,1.033
			c0.063,0.161,0.113,0.244,0.151,0.288c0.214-0.157,0.55-0.356,1.094-0.588c0.075-0.033-0.162,0.195-0.162,0.195
			S2.5,15.02,2.946,15.142c0.444,0.123,0.322-0.491,0.363-0.074c0.042,0.419,0.525,0.32,0.951,0.221
			c0.175-0.04,0.229-0.073,0.241-0.083c-0.005,0.009-0.011,0.043,0.041,0.108c0.141,0.172,0.282,0,0.282,0s0.181,0.295-0.081,0.295
			s-0.585,0.073-0.141,0.54c0.043,0.044,0.079,0.081,0.115,0.118c0.126,0.063,0.274,0.16,0.332,0.289
			c0.087,0.06,0.118,0.06,0.118,0.06S5.169,16.614,5.174,16.612z"/>
		<path style="fill:#9BC41E;" d="M0.136,11.962c0.035,0,0.062-0.021,0.102-0.058C0.142,11.938,0.089,11.962,0.136,11.962z"/>
		<path style="fill:#C7BA0A;" d="M8.646,5.004c0,0,1.623-0.265,3.333,0.882c1.713,1.148,0.354,0.088,0.372,0
			c0.018-0.087-0.583-0.722-0.372-0.722c0.213,0,0-0.23,0-0.23S9.845,3.981,9.688,4.352c-0.159,0.371-0.019,0.3-0.019,0.3
			S9.334,4.829,9.264,4.617C9.192,4.405,9.492,4.511,9.492,4.511S8.875,4.282,8.841,4.422C8.805,4.564,8.646,5.004,8.646,5.004z"/>
	</g>
</g>
<g>
	<g>
		<radialGradient id="XMLID_4_" cx="11.9326" cy="4.0713" r="12.112" fx="11.0724" fy="1.9461" gradientUnits="userSpaceOnUse">
			<stop  offset="0.0056" style="stop-color:#DBF7E3"/>
			<stop  offset="0.2901" style="stop-color:#B3DCE0"/>
			<stop  offset="0.9265" style="stop-color:#4D97DA"/>
			<stop  offset="0.9775" style="stop-color:#4591D9"/>
		</radialGradient>
		<circle style="fill:url(#XMLID_4_);stroke:#000000;stroke-width:0.25;" cx="12.672" cy="8.359" r="8.235"/>
		<path style="fill:#C7BA0A;" d="M14.777,14.191c0,0,0.59,0.069,0.558,0.548c-0.033,0.482-3.238,1.64-3.238,1.64
			s3.717,0.259,6.237-2.353c2.522-2.612-0.052-0.351-0.052-0.351s1.177-1.616,1.013-2.201c-0.163-0.583-0.688-1.236-0.948-0.653
			c-0.263,0.586-0.395-0.344-0.395-0.344s-0.097,0.035-0.327-0.137c-0.229-0.171-0.032,0.31-0.326,0.551
			c-0.295,0.24-0.164-0.481-0.229-0.791c-0.065-0.309-1.179-0.276-1.311-0.069c-0.131,0.207-0.327,0.447-0.327,0.447l-0.064-0.653
			c0,0-0.197,0.586-0.427,0.653c-0.228,0.069,0.131,0.55-0.883,0.276c-1.016-0.276-0.459-0.687-0.459-0.687l0.361-0.413
			c0,0-0.296,0.103-0.623-0.137c-0.327-0.242-0.229-0.962-0.229-0.962s-0.557-0.171-0.721,0.446c-0.162,0.619-0.588,0.171-0.72,0.24
			c-0.131,0.07-0.916-1.581,0.458-2.025c1.375-0.448,0.524-0.381,0.524-0.381s0.917,0.242,0.917,0.69
			c0,0.446,0.262,0.103,0.262,0.103s-0.522-0.792-0.099-1.066c0.425-0.274,0.917-1.924,1.179-1.924s0.786-0.447,0.786-0.447
			s0.163-0.172-0.393-0.378c-0.557-0.207,0.491-0.618,0.065-0.823c-0.427-0.208-0.982-0.62-0.982-0.62s-0.196-0.309-0.196,0
			c0,0.31-0.883-0.379-0.883-0.379s0.457,1.032,0.194,1.204c-0.262,0.172-0.262,0.172-0.262,0.172s-0.196,0-0.917-0.653
			c-0.72-0.653-0.196-0.757,0.229-0.757s0.131-0.411,0.131-0.411s-0.229,0.239-0.457,0c-0.229-0.242,0.228-0.172-0.46-0.036
			c-0.687,0.137-1.472,0.274-1.537-0.31c-0.065-0.583,0.13,0.275-0.59,0.104C8.917,1.133,9.376,1.201,9.376,1.201
			s0.384-0.32,0.262-0.274C7.33,1.783,7.336,2.3,7.117,2.3c-0.263,0,1.342-0.447,1.342-0.447s-0.197,0.55,0,0.687
			c0.196,0.139,0.492,0.173,0.229,0.55C8.427,3.47,8.621,3.984,8.621,3.984S7.837,4.844,8.1,5.428
			c0.262,0.583,0.392,0.446,0.392,0.446s1.343,2.097,1.671,2.612c0.325,0.515,0.687,0.274,0.687,0.274l-0.459,0.24
			c0,0,0.296,0.343,0.623,0.413c0.327,0.068,0.721,0.104,0.721,0.104s0.359,0.343,0.458,0.343c0.098,0,0.916,0.171,0.916,0.171
			l0.459,0.826l0.557,0.069c0,0,1.571,0.137-0.032,1.372c-1.604,1.239-0.23,1.136,0,0.449c0.228-0.689,0.687,0.273,0.228,0.857"/>
		<path style="fill:#4E6211;" d="M11.985,15.223c0,0,0.746-1.023,0.64-1.393c-0.102-0.37-0.434-0.783-0.6-0.413
			c-0.166,0.369-0.248-0.217-0.248-0.217s-0.063,0.021-0.207-0.087c-0.146-0.108-0.021,0.195-0.207,0.347
			c-0.188,0.153-0.104-0.303-0.146-0.499c-0.042-0.196-0.746-0.176-0.828-0.044c-0.084,0.13-0.207,0.283-0.207,0.283l-0.042-0.415
			c0,0-0.125,0.371-0.27,0.415c-0.144,0.042,0.077,0.339-0.537,0.179c-0.016,0.03-0.025,0.063-0.029,0.097l0.048,0.007
			c0,0,0.995,0.086-0.02,0.869c-0.146,0.114-0.25,0.206-0.326,0.286c-0.005,0.072-0.005,0.188,0.021,0.296
			c0.117-0.041,0.255-0.146,0.306-0.298c0.146-0.436,0.435,0.173,0.146,0.543l0.065,0.084c0.006-0.001,0.009-0.002,0.009-0.002
			l-0.007,0.005l0.222,0.283c0,0,0.33,0.041,0.35,0.303c0.008-0.032,0.022-0.059,0.057-0.069c0.145-0.044,0.27-0.414,0.27-0.414
			l0.042,0.414c0,0,0.123-0.153,0.206-0.282c0.084-0.131,0.789-0.153,0.83,0.042c0.012,0.055,0.014,0.13,0.015,0.207
			c0.054-0.051,0.104-0.101,0.159-0.157C13.289,13.939,11.985,15.223,11.985,15.223z"/>
		<path style="fill:#C7BA0A;" d="M9.486,12.862c-0.079-0.178-0.18-0.492,0.003-0.629c0.035-0.026,0.072-0.071,0.107-0.128
			c-0.038-0.126-0.074-0.222-0.074-0.222s0.06,0.052,0.137,0.115c0.215-0.406,0.431-1.14,0.559-1.14
			c0.161,0,0.483-0.319,0.483-0.319s0.103-0.124-0.242-0.271c-0.343-0.148,0.305-0.442,0.04-0.589
			c-0.261-0.148-0.605-0.444-0.605-0.444s-0.12-0.22-0.12,0c0,0.223-0.546-0.269-0.546-0.269s0.282,0.737,0.12,0.859
			C9.187,9.95,9.187,9.95,9.187,9.95s-0.12,0-0.566-0.467C8.176,9.016,8.499,8.941,8.762,8.941s0.082-0.294,0.082-0.294
			s-0.142,0.172-0.283,0C8.508,8.583,8.514,8.55,8.521,8.538C8.506,8.55,8.452,8.582,8.276,8.623
			C7.852,8.721,7.368,8.819,7.328,8.401c-0.041-0.417,0.08,0.197-0.364,0.074C6.519,8.352,6.802,8.401,6.802,8.401
			s0.237-0.229,0.162-0.196C5.886,8.668,5.627,8.991,5.506,9.123c0.229-0.094,0.731-0.255,0.731-0.255s-0.123,0.394,0,0.492
			c0.12,0.099,0.303,0.123,0.141,0.393c-0.161,0.271-0.041,0.638-0.041,0.638s-0.484,0.614-0.323,1.033
			c0.063,0.161,0.113,0.244,0.151,0.288c0.214-0.157,0.55-0.356,1.094-0.588c0.075-0.033-0.162,0.195-0.162,0.195
			s-0.284-0.048,0.162,0.074c0.444,0.123,0.322-0.491,0.363-0.074c0.042,0.419,0.525,0.32,0.951,0.221
			c0.175-0.04,0.229-0.073,0.241-0.083C8.81,11.466,8.804,11.5,8.855,11.564c0.141,0.172,0.282,0,0.282,0s0.181,0.295-0.081,0.295
			s-0.585,0.073-0.141,0.54c0.043,0.044,0.079,0.081,0.115,0.118c0.126,0.063,0.274,0.16,0.332,0.289
			c0.087,0.06,0.118,0.06,0.118,0.06S9.481,12.864,9.486,12.862z"/>
		<path style="fill:#9BC41E;" d="M4.448,8.212c0.035,0,0.062-0.021,0.102-0.058C4.454,8.188,4.401,8.212,4.448,8.212z"/>
		<path style="fill:#C7BA0A;" d="M12.959,1.254c0,0,1.623-0.265,3.333,0.882c1.713,1.148,0.354,0.088,0.372,0
			c0.018-0.087-0.583-0.722-0.372-0.722c0.213,0,0-0.23,0-0.23S14.157,0.231,14,0.602c-0.159,0.371-0.019,0.3-0.019,0.3
			s-0.335,0.177-0.405-0.035c-0.071-0.211,0.229-0.106,0.229-0.106s-0.617-0.229-0.651-0.088
			C13.117,0.814,12.959,1.254,12.959,1.254z"/>
	</g>
</g>
</svg>
