<?xml version="1.0" encoding="iso-8859-1"?>
<!-- Generator: Adobe Illustrator 12.0.1, SVG Export Plug-In . SVG Version: 6.00 Build 51448)  -->
<!DOCTYPE svg PUBLIC "-//W3C//DTD SVG 1.1//EN" "http://www.w3.org/Graphics/SVG/1.1/DTD/svg11.dtd" [
	<!ENTITY ns_svg "http://www.w3.org/2000/svg">
	<!ENTITY ns_xlink "http://www.w3.org/1999/xlink">
]>
<svg  version="1.1" id="&#x56FE;&#x5C42;_1" xmlns="&ns_svg;" xmlns:xlink="&ns_xlink;" width="19.125" height="19.172"
	 viewBox="0 0 19.125 19.172" style="overflow:visible;enable-background:new 0 0 19.125 19.172;" xml:space="preserve">
<rect style="fill:none;" width="19.125" height="19.125"/>
<g>
	<g>
		<g>
			<radialGradient id="XMLID_3_" cx="8.9219" cy="3.8667" r="11.1003" fx="8.1335" fy="1.919" gradientUnits="userSpaceOnUse">
				<stop  offset="0.0056" style="stop-color:#DBF7E3"/>
				<stop  offset="0.2901" style="stop-color:#B3DCE0"/>
				<stop  offset="0.9265" style="stop-color:#4D97DA"/>
				<stop  offset="0.9775" style="stop-color:#4591D9"/>
			</radialGradient>
			<circle style="fill:url(#XMLID_3_);stroke:#000000;stroke-width:0.5;" cx="9.6" cy="7.797" r="7.547"/>
			<path style="fill:#C7BA0A;" d="M11.529,13.143c0,0,0.541,0.063,0.509,0.502c-0.029,0.442-2.965,1.504-2.965,1.504
				s3.406,0.236,5.716-2.156c2.311-2.396-0.049-0.322-0.049-0.322s1.08-1.481,0.93-2.019c-0.15-0.533-0.631-1.133-0.87-0.598
				c-0.24,0.537-0.36-0.315-0.36-0.315s-0.089,0.033-0.301-0.124c-0.209-0.157-0.028,0.284-0.299,0.504
				c-0.27,0.22-0.15-0.44-0.21-0.725s-1.08-0.253-1.201-0.064c-0.12,0.189-0.3,0.409-0.3,0.409L12.07,9.141
				c0,0-0.181,0.537-0.393,0.598c-0.207,0.064,0.121,0.504-0.808,0.253c-0.931-0.253-0.422-0.628-0.422-0.628l0.332-0.379
				c0,0-0.271,0.095-0.571-0.126c-0.301-0.222-0.21-0.883-0.21-0.883s-0.511-0.157-0.66,0.41c-0.149,0.568-0.541,0.156-0.66,0.22
				c-0.121,0.064-0.84-1.449,0.42-1.857C10.358,6.338,9.578,6.4,9.578,6.4s0.841,0.222,0.841,0.631s0.24,0.095,0.24,0.095
				S10.18,6.4,10.568,6.149c0.391-0.252,0.841-1.765,1.082-1.765c0.239,0,0.719-0.409,0.719-0.409s0.15-0.157-0.36-0.347
				s0.451-0.566,0.062-0.753c-0.393-0.192-0.901-0.568-0.901-0.568s-0.179-0.284-0.179,0c0,0.283-0.811-0.348-0.811-0.348
				s0.42,0.945,0.179,1.103c-0.239,0.158-0.239,0.158-0.239,0.158s-0.18,0-0.84-0.599C8.618,2.023,9.099,1.929,9.488,1.929
				c0.391,0,0.12-0.377,0.12-0.377s-0.211,0.219-0.419,0C8.979,1.33,9.397,1.394,8.769,1.519c-0.63,0.125-1.35,0.251-1.41-0.284
				C7.299,0.7,7.479,1.488,6.817,1.33c-0.66-0.157-0.238-0.095-0.238-0.095s0.353-0.293,0.238-0.251
				C4.703,1.77,4.708,2.243,4.508,2.243c-0.239,0,1.231-0.409,1.231-0.409s-0.183,0.504,0,0.629
				c0.179,0.127,0.449,0.159,0.209,0.504c-0.24,0.348-0.061,0.819-0.061,0.819s-0.72,0.786-0.479,1.322
				c0.239,0.535,0.358,0.409,0.358,0.409s1.23,1.922,1.531,2.395c0.299,0.473,0.629,0.251,0.629,0.251L7.51,8.386
				c0,0,0.269,0.314,0.568,0.377c0.301,0.063,0.661,0.096,0.661,0.096s0.329,0.314,0.42,0.314c0.089,0,0.84,0.156,0.84,0.156
				l0.42,0.758l0.512,0.063c0,0,1.438,0.126-0.031,1.257c-1.471,1.136-0.21,1.042,0,0.412c0.21-0.631,0.63,0.25,0.21,0.787"/>
			<path style="fill:#4E6211;" d="M8.97,14.087c0,0,0.685-0.938,0.587-1.276c-0.093-0.339-0.397-0.717-0.55-0.377
				c-0.153,0.337-0.228-0.201-0.228-0.201s-0.058,0.021-0.19-0.079s-0.018,0.179-0.189,0.318c-0.171,0.141-0.096-0.278-0.134-0.456
				c-0.037-0.18-0.683-0.162-0.759-0.042c-0.077,0.12-0.189,0.259-0.189,0.259l-0.038-0.379c0,0-0.115,0.34-0.248,0.379
				c-0.131,0.039,0.07,0.311-0.492,0.165c-0.015,0.026-0.022,0.058-0.027,0.089l0.044,0.007c0,0,0.913,0.078-0.018,0.796
				c-0.134,0.104-0.229,0.189-0.298,0.262c-0.006,0.066-0.006,0.173,0.017,0.271c0.107-0.037,0.235-0.135,0.281-0.272
				c0.133-0.4,0.398,0.157,0.133,0.497l0.06,0.077c0.006-0.001,0.01-0.002,0.01-0.002l-0.007,0.005l0.203,0.26
				c0,0,0.303,0.037,0.32,0.277c0.007-0.029,0.021-0.053,0.051-0.063c0.134-0.041,0.247-0.38,0.247-0.38l0.04,0.38
				c0,0,0.112-0.14,0.188-0.259c0.077-0.121,0.723-0.139,0.76,0.04c0.012,0.05,0.013,0.119,0.014,0.188
				c0.049-0.046,0.097-0.092,0.147-0.145C10.166,12.911,8.97,14.087,8.97,14.087z"/>
			<path style="fill:#C7BA0A;" d="M6.68,11.923c-0.072-0.163-0.165-0.45,0.004-0.576c0.03-0.023,0.064-0.063,0.098-0.117
				c-0.035-0.115-0.068-0.203-0.068-0.203s0.055,0.049,0.125,0.105c0.197-0.372,0.396-1.045,0.512-1.045
				c0.148,0,0.443-0.293,0.443-0.293s0.094-0.113-0.222-0.248C7.257,9.411,7.85,9.142,7.608,9.007
				C7.368,8.87,7.053,8.601,7.053,8.601s-0.11-0.202-0.11,0c0,0.204-0.499-0.248-0.499-0.248S6.7,9.028,6.552,9.142
				C6.404,9.255,6.404,9.255,6.404,9.255s-0.109,0-0.518-0.43C5.479,8.398,5.773,8.33,6.016,8.33c0.241,0,0.075-0.271,0.075-0.271
				s-0.131,0.158-0.261,0C5.783,8.001,5.788,7.972,5.795,7.961C5.781,7.972,5.731,8,5.572,8.038C5.181,8.129,4.738,8.218,4.7,7.835
				C4.664,7.453,4.775,8.016,4.368,7.903C3.959,7.79,4.22,7.835,4.22,7.835s0.217-0.209,0.148-0.179
				c-0.987,0.424-1.226,0.72-1.337,0.84C3.242,8.41,3.702,8.263,3.702,8.263s-0.113,0.361,0,0.451
				c0.11,0.091,0.277,0.111,0.128,0.36C3.683,9.321,3.794,9.659,3.794,9.659s-0.445,0.563-0.296,0.946
				c0.057,0.147,0.102,0.223,0.138,0.264c0.196-0.144,0.503-0.326,1.002-0.54c0.07-0.03-0.148,0.18-0.148,0.18
				s-0.26-0.045,0.148,0.067s0.296-0.449,0.334-0.067c0.037,0.384,0.481,0.293,0.87,0.202c0.161-0.036,0.211-0.067,0.223-0.075
				c-0.005,0.008-0.011,0.04,0.037,0.1c0.129,0.157,0.259,0,0.259,0s0.166,0.269-0.074,0.269s-0.536,0.068-0.13,0.495
				c0.039,0.04,0.072,0.074,0.106,0.109c0.115,0.058,0.251,0.146,0.305,0.264c0.079,0.055,0.107,0.055,0.107,0.055
				S6.675,11.926,6.68,11.923z"/>
			<path style="fill:#9BC41E;" d="M2.063,7.662c0.032,0,0.055-0.02,0.093-0.053C2.066,7.64,2.019,7.662,2.063,7.662z"/>
			<path style="fill:#C7BA0A;" d="M9.863,1.285c0,0,1.486-0.243,3.055,0.808c1.569,1.053,0.325,0.081,0.34,0
				c0.017-0.08-0.534-0.662-0.34-0.662c0.195,0,0-0.21,0-0.21s-1.957-0.874-2.102-0.534c-0.146,0.34-0.018,0.275-0.018,0.275
				s-0.307,0.163-0.371-0.032c-0.064-0.194,0.211-0.096,0.211-0.096s-0.566-0.21-0.598-0.082C10.008,0.881,9.863,1.285,9.863,1.285z
				"/>
		</g>
	</g>
	<g>
		<linearGradient id="XMLID_4_" gradientUnits="userSpaceOnUse" x1="1.6973" y1="15.4404" x2="17.627" y2="15.4404">
			<stop  offset="0" style="stop-color:#FFFFFF"/>
			<stop  offset="0.233" style="stop-color:#D5D5D0"/>
			<stop  offset="0.4139" style="stop-color:#BABAB3"/>
			<stop  offset="0.5169" style="stop-color:#B0B0A8"/>
			<stop  offset="0.5969" style="stop-color:#B4B4AD"/>
			<stop  offset="0.69" style="stop-color:#C1C1BB"/>
			<stop  offset="0.7895" style="stop-color:#D6D6D2"/>
			<stop  offset="0.8931" style="stop-color:#F4F4F3"/>
			<stop  offset="0.927" style="stop-color:#FFFFFF"/>
		</linearGradient>
		<polygon style="fill:url(#XMLID_4_);stroke:#000000;stroke-width:0.5;stroke-linejoin:round;" points="10.988,16.37 
			10.988,11.959 8.295,11.959 8.295,16.37 1.697,16.37 1.697,18.922 8.475,18.922 8.475,18.154 10.85,18.154 10.85,18.922 
			17.627,18.922 17.627,16.37 		"/>
		<polygon style="opacity:0.52;fill:#8B8B8B;" points="11.125,16.578 10.25,16.563 10.209,12.141 11.125,12.141 		"/>
	</g>
</g>
</svg>
