<?xml version="1.0" encoding="iso-8859-1"?>
<!-- Generator: Adobe Illustrator 12.0.1, SVG Export Plug-In . SVG Version: 6.00 Build 51448)  -->
<!DOCTYPE svg PUBLIC "-//W3C//DTD SVG 1.1//EN" "http://www.w3.org/Graphics/SVG/1.1/DTD/svg11.dtd" [
	<!ENTITY ns_svg "http://www.w3.org/2000/svg">
	<!ENTITY ns_xlink "http://www.w3.org/1999/xlink">
]>
<svg  version="1.1" id="&#x56FE;&#x5C42;_1" xmlns="&ns_svg;" xmlns:xlink="&ns_xlink;" width="22.875" height="22.875"
	 viewBox="0 0 22.875 22.875" style="overflow:visible;enable-background:new 0 0 22.875 22.875;" xml:space="preserve">
<g>
	<ellipse style="opacity:0.44;fill:#474747;" cx="12.953" cy="10.488" rx="8.258" ry="7.964"/>
	<radialGradient id="XMLID_7_" cx="12.6587" cy="4.4014" r="13.0973" gradientUnits="userSpaceOnUse">
		<stop  offset="0.0506" style="stop-color:#D9EEF5"/>
		<stop  offset="0.3034" style="stop-color:#3E9FFF"/>
		<stop  offset="0.4922" style="stop-color:#4B98EF"/>
		<stop  offset="0.861" style="stop-color:#6E87C5"/>
		<stop  offset="1" style="stop-color:#7D80B3"/>
	</radialGradient>
	<circle style="fill:url(#XMLID_7_);stroke:#454545;stroke-width:0.5;" cx="14.365" cy="10.509" r="8.258"/>
	<radialGradient id="XMLID_8_" cx="11.4673" cy="4.9521" r="12.519" gradientUnits="userSpaceOnUse">
		<stop  offset="0.0899" style="stop-color:#FFE98A"/>
		<stop  offset="0.1221" style="stop-color:#F4E283"/>
		<stop  offset="0.2755" style="stop-color:#C5C565"/>
		<stop  offset="0.4287" style="stop-color:#9EAE4C"/>
		<stop  offset="0.5793" style="stop-color:#809B39"/>
		<stop  offset="0.7264" style="stop-color:#6A8E2B"/>
		<stop  offset="0.8685" style="stop-color:#5D8623"/>
		<stop  offset="1" style="stop-color:#598320"/>
	</radialGradient>
	<path style="fill:url(#XMLID_8_);" d="M16.75,16.404c0,0,0.591,0.069,0.559,0.549c-0.034,0.483-1.831,1.193-1.831,1.193
		s2.079,0.537,4.606-2.08c2.529-2.621,0.179-0.18,0.179-0.18s1.181-1.623,1.019-2.207c-0.164-0.585-0.691-1.241-0.952-0.655
		c-0.263,0.586-0.395-0.344-0.395-0.344s-0.099,0.035-0.329-0.137c-0.229-0.172-0.032,0.309-0.328,0.551
		c-0.296,0.241-0.164-0.482-0.23-0.792c-0.066-0.312-1.183-0.276-1.314-0.069c-0.13,0.206-0.327,0.448-0.327,0.448l-0.066-0.655
		c0,0-0.197,0.586-0.427,0.655c-0.229,0.069,0.131,0.551-0.886,0.276c-1.018-0.276-0.46-0.69-0.46-0.69l0.361-0.414
		c0,0-0.295,0.103-0.624-0.137c-0.328-0.243-0.23-0.966-0.23-0.966s-0.557-0.171-0.722,0.448c-0.164,0.621-0.591,0.171-0.723,0.242
		c-0.131,0.069-0.918-1.585,0.459-2.031c1.379-0.45,0.526-0.382,0.526-0.382s0.92,0.243,0.92,0.69c0,0.447,0.261,0.104,0.261,0.104
		s-0.524-0.795-0.098-1.07c0.426-0.275,0.919-1.932,1.182-1.932c0.262,0,0.788-0.448,0.788-0.448s0.165-0.171-0.394-0.377
		c-0.559-0.208,0.493-0.621,0.066-0.827c-0.427-0.207-0.985-0.621-0.985-0.621s-0.196-0.312-0.196,0
		c0,0.309-0.886-0.378-0.886-0.378s0.458,1.033,0.196,1.206c-0.263,0.173-0.263,0.173-0.263,0.173s-0.197,0-0.919-0.656
		c-0.722-0.655-0.197-0.758,0.23-0.758c0.426,0,0.13-0.413,0.13-0.413s-0.229,0.242-0.459,0c-0.23-0.243,0.229-0.172-0.46-0.036
		c-0.689,0.139-1.477,0.277-1.542-0.311c-0.065-0.584,0.13,0.277-0.591,0.104c-0.723-0.172-0.263-0.104-0.263-0.104
		s0.487-0.449,0.364-0.404c-2.314,0.859-2.409,1.564-2.63,1.564c-0.262,0,1.348-0.505,1.348-0.505s-0.199,0.551,0,0.692
		c0.196,0.135,0.492,0.17,0.229,0.549c-0.262,0.379-0.067,0.896-0.067,0.896S9.79,7.027,10.053,7.615
		c0.262,0.584,0.393,0.448,0.393,0.448s1.347,2.102,1.676,2.62c0.326,0.516,0.688,0.275,0.688,0.275l-0.459,0.241
		c0,0,0.295,0.344,0.624,0.415c0.329,0.068,0.722,0.104,0.722,0.104s0.361,0.345,0.46,0.345c0.098,0,0.918,0.172,0.918,0.172
		l0.461,0.827l0.557,0.071c0,0,1.576,0.136-0.032,1.376c-1.609,1.241-0.231,1.138,0,0.45c0.229-0.693,0.689,0.274,0.229,0.859"/>
	<path style="fill:#4E6211;" d="M13.257,17.289c0,0,0.748-1.025,0.643-1.396c-0.103-0.37-0.436-0.784-0.603-0.414
		c-0.166,0.371-0.249-0.217-0.249-0.217s-0.063,0.019-0.208-0.089c-0.146-0.107-0.021,0.197-0.208,0.35
		c-0.188,0.152-0.104-0.305-0.146-0.5c-0.042-0.198-0.749-0.176-0.831-0.044c-0.083,0.13-0.208,0.284-0.208,0.284l-0.041-0.416
		c0,0-0.126,0.372-0.27,0.416c-0.144,0.042,0.076,0.339-0.54,0.179c-0.016,0.029-0.026,0.063-0.03,0.097l0.048,0.006
		c0,0,0.999,0.087-0.02,0.873c-0.146,0.114-0.251,0.208-0.327,0.286c-0.004,0.072-0.004,0.188,0.021,0.296
		c0.117-0.041,0.255-0.145,0.307-0.299c0.145-0.437,0.436,0.176,0.145,0.545l0.066,0.085c0.005-0.002,0.008-0.002,0.008-0.002
		l-0.006,0.005l0.222,0.285c0,0,0.331,0.042,0.35,0.303c0.009-0.032,0.021-0.058,0.057-0.07c0.146-0.044,0.271-0.412,0.271-0.412
		l0.042,0.412c0,0,0.124-0.152,0.207-0.282c0.083-0.13,0.791-0.153,0.833,0.044c0.011,0.054,0.013,0.131,0.013,0.206
		c0.054-0.051,0.106-0.101,0.161-0.156C14.566,16.005,13.257,17.289,13.257,17.289z"/>
	<path style="fill:#7A9A17;" d="M11.168,15.023c-0.078-0.177-0.181-0.491,0.003-0.63c0.036-0.026,0.073-0.07,0.109-0.127
		c-0.039-0.127-0.076-0.222-0.076-0.222s0.06,0.052,0.138,0.115c0.215-0.407,0.431-1.144,0.559-1.144
		c0.162,0,0.486-0.321,0.486-0.321s0.102-0.124-0.243-0.271c-0.344-0.147,0.306-0.442,0.041-0.59
		c-0.263-0.148-0.609-0.446-0.609-0.446s-0.121-0.22-0.121,0c0,0.225-0.547-0.269-0.547-0.269s0.283,0.739,0.121,0.862
		c-0.162,0.124-0.162,0.124-0.162,0.124s-0.121,0-0.568-0.468c-0.446-0.469-0.122-0.544,0.142-0.544
		c0.263,0,0.081-0.295,0.081-0.295s-0.141,0.173-0.283,0c-0.053-0.062-0.047-0.097-0.041-0.108
		c-0.014,0.012-0.067,0.045-0.244,0.085c-0.426,0.099-0.911,0.197-0.952-0.221c-0.041-0.418,0.082,0.196-0.364,0.074
		c-0.447-0.124-0.163-0.074-0.163-0.074s0.238-0.23,0.163-0.197c-1.08,0.464-1.342,0.788-1.463,0.918
		c0.232-0.092,0.734-0.254,0.734-0.254s-0.123,0.394,0,0.492c0.121,0.101,0.304,0.125,0.142,0.396
		c-0.163,0.27-0.041,0.641-0.041,0.641s-0.487,0.615-0.325,1.035c0.063,0.16,0.113,0.244,0.152,0.288
		c0.214-0.157,0.551-0.357,1.096-0.59c0.077-0.033-0.161,0.198-0.161,0.198s-0.285-0.051,0.161,0.072
		c0.447,0.124,0.325-0.493,0.367-0.072c0.04,0.419,0.525,0.32,0.952,0.221c0.175-0.04,0.23-0.075,0.242-0.085
		c-0.004,0.01-0.011,0.045,0.042,0.108c0.141,0.174,0.284,0,0.284,0s0.181,0.298-0.082,0.298s-0.587,0.072-0.141,0.539
		c0.042,0.045,0.079,0.082,0.116,0.118c0.126,0.063,0.274,0.16,0.333,0.29c0.087,0.06,0.119,0.06,0.119,0.06
		S11.165,15.028,11.168,15.023z"/>
	<path style="fill:#9BC41E;" d="M6.118,10.361c0.035,0,0.06-0.021,0.1-0.059C6.122,10.337,6.07,10.361,6.118,10.361z"/>
	<path style="fill:#90C31F;" d="M14.652,3.459c0,0,1.627-0.264,3.343,0.885c1.718,1.15,0.355,0.088,0.373,0
		c0.018-0.088-0.584-0.725-0.373-0.725c0.213,0,0-0.23,0-0.23s-2.141-0.956-2.299-0.583c-0.159,0.372-0.019,0.3-0.019,0.3
		s-0.336,0.177-0.406-0.036C15.199,2.858,15.5,2.965,15.5,2.965s-0.619-0.229-0.654-0.09C14.81,3.018,14.652,3.459,14.652,3.459z"/>
</g>
<g>
	<g>
		<path style="fill:#9CC422;" d="M5.193,14.194c0.031,0,0.055-0.02,0.091-0.054C5.197,14.171,5.15,14.194,5.193,14.194z"/>
	</g>
	
		<linearGradient id="XMLID_9_" gradientUnits="userSpaceOnUse" x1="-10.0698" y1="-46.7764" x2="-7.455" y2="-47.8728" gradientTransform="matrix(0.9968 -0.0791 0.0791 0.9968 18.9286 59.3006)">
		<stop  offset="0.0056" style="stop-color:#424242"/>
		<stop  offset="0.3202" style="stop-color:#FFFFFF"/>
		<stop  offset="0.736" style="stop-color:#CCCCCC"/>
		<stop  offset="1" style="stop-color:#424242"/>
	</linearGradient>
	<path style="fill:url(#XMLID_9_);stroke:#000000;stroke-width:0.25;" d="M1.979,7.038c0,0,5.618,11.677,6.689,13.089
		c1.073,1.412,5.458-0.32,5.787-2.211c0.332-1.891-8.007-14.738-8.007-14.738S5.177,3.17,4.586,3.528
		C4.158,3.785,2.797,4.542,2.62,4.811C2.444,5.079,1.979,7.038,1.979,7.038z"/>
	
		<linearGradient id="XMLID_10_" gradientUnits="userSpaceOnUse" x1="-10.4082" y1="-48.5073" x2="-1.144" y2="-48.5073" gradientTransform="matrix(0.9968 -0.0791 0.0791 0.9968 18.9286 59.3006)">
		<stop  offset="0.1067" style="stop-color:#ECECEC"/>
		<stop  offset="0.3202" style="stop-color:#FFFFFF"/>
		<stop  offset="0.736" style="stop-color:#CCCCCC"/>
		<stop  offset="1" style="stop-color:#424242"/>
	</linearGradient>
	<path style="fill:url(#XMLID_10_);stroke:#000000;stroke-width:0.25;" d="M4.346,3.741c0,0,0.634-0.559,1.746-0.79
		c1.111-0.229,1.779-0.366,2.426,0.317c0.65,0.684,3.58,7.007,4.836,10.015c0,0,1.7,3.965,0.867,5.217
		c-0.834,1.252-2.406,2.084-3.313,0.998C10.003,18.41,5.365,7.303,4.813,6.02C4.259,4.736,3.838,4.119,4.346,3.741z"/>
	<path style="fill:#515151;" d="M2.736,4.746c0,0,1.305-0.924,2.067-1.267c0.766-0.345-0.829,0.098-0.537,1.003
		c0.242,0.747,6.087,13.73,6.459,14.49c0.371,0.766,1.245,1.09,1.875,0.842c0,0-0.73,0.398-0.982,0.445
		c-0.25,0.049-1.115-0.533-1.531-1.488C9.672,17.814,5.359,7.616,5.04,7.162C4.722,6.706,4.685,5.89,3.347,6.108
		C2.007,6.329,2.878,4.762,2.736,4.746z"/>
	
		<linearGradient id="XMLID_11_" gradientUnits="userSpaceOnUse" x1="-9.3574" y1="-50.2739" x2="-1.9478" y2="-50.2739" gradientTransform="matrix(0.9968 -0.0791 0.0791 0.9968 18.9286 59.3006)">
		<stop  offset="0" style="stop-color:#F7E855"/>
		<stop  offset="0.9831" style="stop-color:#F7B80D"/>
	</linearGradient>
	<path style="fill:url(#XMLID_11_);stroke:#000000;stroke-width:0.25;" d="M5.44,5.8C5.195,5.17,4.983,4.653,6.063,4.369
		c1.08-0.283,2.537-0.754,2.847-0.366c0.658,0.822,3.92,7.468,4.394,9.369c0.149,0.593-0.017,0.849-0.66,0.927
		c-0.399,0.051-0.657-0.087-1.172,0.547c-0.515,0.634-1.324,0.754-1.736,0.193C9.018,14.063,5.687,6.431,5.44,5.8z"/>
	
		<linearGradient id="XMLID_12_" gradientUnits="userSpaceOnUse" x1="-27.7412" y1="-39.2944" x2="-26.2808" y2="-39.9684" gradientTransform="matrix(0.9023 0.0193 -0.0158 0.7697 25.5125 35.2318)">
		<stop  offset="0.0056" style="stop-color:#4F4F4F"/>
		<stop  offset="0.3202" style="stop-color:#FFFFFF"/>
		<stop  offset="0.736" style="stop-color:#CCCCCC"/>
		<stop  offset="1" style="stop-color:#424242"/>
	</linearGradient>
	<path style="fill:url(#XMLID_12_);stroke:#000000;stroke-width:0.25;" d="M0.217,2.852c0,0-0.207-0.38,0.267-0.643
		C0.605,2.141,0.6,2.144,0.91,2.014C1.118,1.927,1.535,1.939,1.776,2.41c0.235,0.454,1.492,2.938,1.492,2.938
		s0.194,0.461-0.271,0.798C2.534,6.482,2.226,6.584,2.024,6.471C1.825,6.359,0.217,2.852,0.217,2.852z"/>
	<path style="fill:#99CA22;stroke:#000000;stroke-width:0.25;stroke-linecap:round;stroke-linejoin:round;" d="M6.23,6.134
		c0,0,2.268-0.632,2.897-0.879l3.127,6.647l-2.667,1.287L6.23,6.134z"/>
</g>
<rect style="fill:none;" width="22.875" height="22.875"/>
</svg>
