<?xml version="1.0" encoding="iso-8859-1"?>
<!-- Generator: Adobe Illustrator 12.0.1, SVG Export Plug-In . SVG Version: 6.00 Build 51448)  -->
<!DOCTYPE svg PUBLIC "-//W3C//DTD SVG 1.1//EN" "http://www.w3.org/Graphics/SVG/1.1/DTD/svg11.dtd" [
	<!ENTITY ns_svg "http://www.w3.org/2000/svg">
	<!ENTITY ns_xlink "http://www.w3.org/1999/xlink">
]>
<svg  version="1.1" id="&#xCD;_xBC__xB2_&#xE3;_x5F_1" xmlns="&ns_svg;" xmlns:xlink="&ns_xlink;" width="22.5" height="30.719"
	 viewBox="0 0 22.5 30.719" style="overflow:visible;enable-background:new 0 0 22.5 30.719;" xml:space="preserve">
<g>
	<rect style="fill:none;" width="22.5" height="30.719"/>
</g>
<g>
	
		<ellipse transform="matrix(-0.5636 0.8261 -0.8261 -0.5636 23.3318 27.4157)" style="fill:#9299A0;stroke:#000000;stroke-width:0.25;" cx="4.424" cy="19.871" rx="5.488" ry="1.607"/>
	
		<ellipse transform="matrix(0.7233 0.6905 -0.6905 0.7233 17.9609 -6.6507)" style="fill:#656D70;stroke:#000000;stroke-width:0.25;" cx="17.28" cy="19.088" rx="5.487" ry="1.606"/>
	<path style="fill:#FFFFFF;stroke:#000000;stroke-width:0.25;" d="M17.475,27.476c-1.882,2.181-11.659,1.234-13.609-0.118
		c-0.753-0.522,0.441-9.877,3.499-12.11c2.272-1.662,4.541-1.435,6.467-0.118C16.712,17.098,18.094,26.759,17.475,27.476z"/>
	<polygon style="fill:#505859;stroke:#000000;stroke-width:0.25;" points="11.067,20.215 9.245,20.259 9.92,16.599 10.788,16.599 	
		"/>
	<path style="fill:#8A9197;stroke:#000000;stroke-width:0.25;" d="M9.989,20.772c0,0-2.144-4.491-2.037-5.801
		C4.267,17.245,1.993,25.74,3.914,27.357c1.126,0.948,6.722,1.353,6.722,1.353L9.989,20.772z"/>
	<path style="fill:#656D70;stroke:#000000;stroke-width:0.25;" d="M9.872,20.577c0,0,3.478-4.264,3.302-5.784
		c3.762,2.146,5.369,10.537,4.4,12.447c-0.985,1.939-7.85,1.499-7.85,1.499L9.872,20.577z"/>
	<radialGradient id="XMLID_2_" cx="8.6572" cy="8.0737" r="7.11" gradientUnits="userSpaceOnUse">
		<stop  offset="0.0056" style="stop-color:#F5EACE"/>
		<stop  offset="0.0796" style="stop-color:#F8E6BF"/>
		<stop  offset="0.1842" style="stop-color:#F9E1AE"/>
		<stop  offset="0.2528" style="stop-color:#FAE0A7"/>
		<stop  offset="0.563" style="stop-color:#E3C382"/>
		<stop  offset="0.823" style="stop-color:#D6B36E"/>
		<stop  offset="1" style="stop-color:#D2AD67"/>
	</radialGradient>
	<circle style="fill:url(#XMLID_2_);stroke:#000000;stroke-width:0.25;" cx="10.735" cy="10.778" r="4.821"/>
	<path style="fill:#656D70;stroke:#000000;stroke-width:0.25;" d="M13.36,15.1c0.029,0.059,0.911,2.616,0.911,2.616l-1.205,0.323
		l-0.206,1.498l-2.733,0.912C10.127,20.449,12.743,17.04,13.36,15.1z"/>
	<path style="fill:#8A9197;stroke:#000000;stroke-width:0.25;" d="M7.863,14.923c-0.041,0.052-1.386,2.286-1.386,2.286l1.12,0.552
		l-0.091,1.511l2.209,1.134C9.716,20.405,8.091,16.946,7.863,14.923z"/>
	<ellipse style="fill:#FFFFFF;stroke:#888F95;stroke-width:0.25;" cx="10.479" cy="22.404" rx="0.323" ry="0.309"/>
	<ellipse style="fill:#FFFFFF;stroke:#888F95;stroke-width:0.25;" cx="10.479" cy="25.402" rx="0.353" ry="0.309"/>
	<polygon style="fill:#505859;stroke:#000000;stroke-width:0.25;" points="10.744,16.525 9.95,16.525 9.745,15.6 10.921,15.6 	"/>
</g>
</svg>
