<?xml version="1.0" encoding="utf-8"?>
<!-- Generator: Adobe Illustrator 13.0.0, SVG Export Plug-In  -->
<!DOCTYPE svg PUBLIC "-//W3C//DTD SVG 1.1 Tiny//EN" "http://www.w3.org/Graphics/SVG/1.1/DTD/svg11-tiny.dtd" [
	<!ENTITY ns_flows "http://ns.adobe.com/Flows/1.0/">
]>
<svg version="1.1" baseProfile="tiny"
	 xmlns="http://www.w3.org/2000/svg" xmlns:xlink="http://www.w3.org/1999/xlink" xmlns:a="http://ns.adobe.com/AdobeSVGViewerExtensions/3.0/"
	 x="0px" y="0px" width="25px" height="29px" viewBox="-0.7 -0.8 25 29" xml:space="preserve">
<defs>
</defs>
<path fill="#FFFFFF" d="M23.8,11.9l-4.1-4.4C19,6.8,18,5.6,17.3,4.9l-4.1-4.4c-0.6-0.7-1.7-0.7-2.3,0L6.8,4.9
	C6.2,5.6,5.1,6.8,4.5,7.4l-4.1,4.4c-0.6,0.7-0.4,1.2,0.5,1.2H3c0,0.1,0,0.2,0,0.3V26c0,0.9,0.7,1.6,1.6,1.6h4V16.7h7v10.9h3.4
	c0.9,0,1.6-0.7,1.6-1.6V13.4c0-0.1,0-0.2,0-0.3h2.7C24.2,13.1,24.4,12.6,23.8,11.9z"/>
</svg>
