<?xml version="1.0" encoding="utf-8"?>
<!-- Generator: Adobe Illustrator 13.0.2, SVG Export Plug-In . SVG Version: 6.00 Build 14948)  -->
<!DOCTYPE svg PUBLIC "-//W3C//DTD SVG 1.1 Tiny//EN" "http://www.w3.org/Graphics/SVG/1.1/DTD/svg11-tiny.dtd">
<svg version="1.1" baseProfile="tiny" id="Layer_1" xmlns="http://www.w3.org/2000/svg" xmlns:xlink="http://www.w3.org/1999/xlink"
	 x="0px" y="0px" width="61.632px" height="39.493px" viewBox="0 0 61.632 39.493" xml:space="preserve">
<path fill="#FFFFFF" d="M38.419,1.094L37.89,0.911c-6.814-2.788-13.63,1.818-20.446,0.707l-0.863-0.287l-5.817,17.566
	c-0.861-1.253-2.842-2.128-5.151-2.128C2.512,16.77,0,18.347,0,20.293c0,1.946,2.512,3.523,5.612,3.523
	c2.519,0,4.65-1.043,5.359-2.479l0.112,0.038L15.332,8.55c6.553,2.337,13.106-1.86,19.66-0.943l-3.354,9.589
	c-0.862-1.25-2.842-2.122-5.149-2.122c-3.099,0-5.611,1.577-5.611,3.524c0,1.944,2.512,3.521,5.611,3.521
	c2.582,0,4.75-1.094,5.405-2.582l0.066,0.021L38.419,1.094z"/>
<path fill="#FFFFFF" d="M61.632,16.77l-0.527-0.183c-6.815-2.789-13.632,1.818-20.445,0.707l-0.864-0.287l-5.816,17.566
	c-0.862-1.252-2.845-2.128-5.151-2.128c-3.101,0-5.613,1.578-5.613,3.523c0,1.948,2.512,3.523,5.613,3.523
	c2.518,0,4.649-1.043,5.359-2.479l0.112,0.038l4.247-12.826c6.554,2.337,13.105-1.86,19.659-0.943l-3.354,9.589
	c-0.861-1.249-2.841-2.121-5.146-2.121c-3.101,0-5.612,1.575-5.612,3.523c0,1.943,2.512,3.521,5.612,3.521
	c2.582,0,4.749-1.095,5.403-2.582l0.068,0.021L61.632,16.77z"/>
</svg>
