<?xml version="1.0" encoding="utf-8"?>
<!-- Generator: Adobe Illustrator 13.0.2, SVG Export Plug-In . SVG Version: 6.00 Build 14948)  -->
<!DOCTYPE svg PUBLIC "-//W3C//DTD SVG 1.1 Tiny//EN" "http://www.w3.org/Graphics/SVG/1.1/DTD/svg11-tiny.dtd">
<svg version="1.1" baseProfile="tiny" id="Layer_1" xmlns="http://www.w3.org/2000/svg" xmlns:xlink="http://www.w3.org/1999/xlink"
	 x="0px" y="0px" width="44.262px" height="29.678px" viewBox="0 0 44.262 29.678" xml:space="preserve">
<path fill="#FFFFFF" d="M42.826,0c0,0,0.502,0.812,0.715,0.802c0,0,0.794,0.159,0.619,1.022c0,0-0.076,0.749,0.103,0.977
	c0,0-2.339,0.693-4.745,2.842c0,0-0.972-0.282-1.849,0.202L19.702,16.212c0,0-1.453,1.513-0.352,2.81
	c0.032-0.235,0.425,0.474,1.484,0.814c0,0,1.027,0.576,0.127,1.512c0,0-0.277,0.479-1.024,0.512c0,0-2.038,0.254-2.382,0.225
	c0,0-1.07-0.062-1.559,1.025c0,0-1.117,1.676-1.599,2.627c0,0-2.652,4.462-6.837,3.891c-0.026-0.15-2.743,0.26-5.571-4.167
	c0.148-0.028-2.774-3.64-1.786-7.565c0,0,0.367-2.981,4.199-4.227c0,0,2.725-0.689,4.016-0.423
	c-0.028-0.148,1.813,0.522,3.424-0.312c-0.148,0.026,0.94-0.958,1.239-1.502c0,0,0.63-1.713,3.127-1.729
	c0,0,1.792-0.011,3.005,1.389l1.029,1.664l16.6-8.795c0,0,0.604-0.388,0.885-1.253C37.728,2.707,40.826,1.705,42.826,0z"/>
</svg>
