<?xml version="1.0" encoding="utf-8"?>
<!-- Generator: Adobe Illustrator 13.0.0, SVG Export Plug-In  -->
<!DOCTYPE svg PUBLIC "-//W3C//DTD SVG 1.1 Tiny//EN" "http://www.w3.org/Graphics/SVG/1.1/DTD/svg11-tiny.dtd" [
	<!ENTITY ns_flows "http://ns.adobe.com/Flows/1.0/">
]>
<svg version="1.1" baseProfile="tiny"
	 xmlns="http://www.w3.org/2000/svg" xmlns:xlink="http://www.w3.org/1999/xlink" xmlns:a="http://ns.adobe.com/AdobeSVGViewerExtensions/3.0/"
	 x="0px" y="0px" width="17px" height="30px" viewBox="-0.6 -1 17 30" xml:space="preserve">
<defs>
</defs>
<ellipse fill="#FFFFFF" cx="7.7" cy="5.4" rx="5.6" ry="5.4"/>
<path fill="#FFFFFF" d="M14.8,14.6l-2.1-3c-0.9-0.7-2-0.6-2.4,0.2c-0.5,0.8-1.2,2.2-1.7,3c-0.5,0.8-1.3,0.8-1.7,0
	c-0.5-0.8-1.3-2.2-1.7-3S3.5,11,2.7,11.7l-2,2.9c-0.4,1-0.7,2.8-0.7,3.9v3.3c0,1.1,0,2.2,0,2.5c0,0,0,0.1,0.1,0.2c0,0,0,0.1,0,0.1
	C0.1,27,3.5,29,7.7,29c4,0,7.3-1.9,7.6-4.2c0.1,0,0.1-0.1,0.1-0.1c0-0.2,0.1-1.8,0.1-2.9v-3.3C15.4,17.4,15.1,15.6,14.8,14.6z"/>
</svg>
