<?xml version="1.0" encoding="utf-8"?>
<!-- Generator: Adobe Illustrator 13.0.0, SVG Export Plug-In  -->
<!DOCTYPE svg PUBLIC "-//W3C//DTD SVG 1.1 Tiny//EN" "http://www.w3.org/Graphics/SVG/1.1/DTD/svg11-tiny.dtd" [
	<!ENTITY ns_flows "http://ns.adobe.com/Flows/1.0/">
]>
<svg version="1.1" baseProfile="tiny"
	 xmlns="http://www.w3.org/2000/svg" xmlns:xlink="http://www.w3.org/1999/xlink" xmlns:a="http://ns.adobe.com/AdobeSVGViewerExtensions/3.0/"
	 x="0px" y="0px" width="26px" height="28px" viewBox="-0.6 -0.6 26 28" xml:space="preserve">
<defs>
</defs>
<polygon fill="#FFFFFF" points="17.1,10.8 22.5,17.2 24.3,15.8 25.3,22.2 18.8,20.3 20.9,18.6 15.6,12.2 "/>
<polygon fill="#FFFFFF" points="18.9,27.4 13.6,20.9 11.8,22.4 10.8,16 17.2,17.9 15.1,19.6 20.5,26 "/>
<path fill="#FFFFFF" d="M22.2,0.9c-1.3-1.4-4.2-0.8-4.2-0.8c-1.2,0.1-1.5,0.4-1.5,0.4c-4.3,2-7.5,4.8-9,6.4l0,0c0,0-0.2,0.2-0.5,0.5
	C6.5,7.7,6.3,7.9,6.3,7.9l0,0c-1.4,1.6-4.1,4.9-5.9,9.3c0,0-0.3,0.4-0.3,1.5c0,0-0.4,3,1,4.2c0,0,1.2,1.4,3.1,2c0,0,1.3,0.1,2.2-0.8
	c0,0,2.5-1.8,2.1-6.7c0,0-0.3-1-1.6-1.3l-1.6-0.6c0,0,2.3-3.3,4.4-5.3l0,0c0,0,0.1-0.1,0.1-0.1c0,0,0.1-0.1,0.1-0.1l0,0
	c2-2.2,5.1-4.7,5.1-4.7L15.6,7C16,8.2,17,8.5,17,8.5c4.9,0.2,6.6-2.4,6.6-2.4c0.8-0.9,0.7-2.2,0.7-2.2C23.6,2.1,22.2,0.9,22.2,0.9z"
	/>
</svg>
