<?xml version="1.0" encoding="UTF-8" standalone="no"?>
<!-- Generator: Adobe Illustrator 13.0.2, SVG Export Plug-In . SVG Version: 6.00 Build 14948)  -->
<svg
   xmlns:dc="http://purl.org/dc/elements/1.1/"
   xmlns:cc="http://creativecommons.org/ns#"
   xmlns:rdf="http://www.w3.org/1999/02/22-rdf-syntax-ns#"
   xmlns:svg="http://www.w3.org/2000/svg"
   xmlns="http://www.w3.org/2000/svg"
   xmlns:sodipodi="http://sodipodi.sourceforge.net/DTD/sodipodi-0.dtd"
   xmlns:inkscape="http://www.inkscape.org/namespaces/inkscape"
   version="1.0"
   baseProfile="tiny"
   id="Layer_1"
   x="0px"
   y="0px"
   width="61"
   height="57"
   viewBox="0 0 61.632 39.493"
   xml:space="preserve"
   sodipodi:version="0.32"
   inkscape:version="0.46"
   sodipodi:docname="launch_music.svg"
   inkscape:output_extension="org.inkscape.output.svg.inkscape"><metadata
   id="metadata10"><rdf:RDF><cc:Work
       rdf:about=""><dc:format>image/svg+xml</dc:format><dc:type
         rdf:resource="http://purl.org/dc/dcmitype/StillImage" /></cc:Work></rdf:RDF></metadata><defs
   id="defs8"><inkscape:perspective
     sodipodi:type="inkscape:persp3d"
     inkscape:vp_x="0 : 19.7465 : 1"
     inkscape:vp_y="0 : 1000 : 0"
     inkscape:vp_z="61.632 : 19.7465 : 1"
     inkscape:persp3d-origin="30.816 : 13.164333 : 1"
     id="perspective12" /></defs><sodipodi:namedview
   inkscape:window-height="948"
   inkscape:window-width="1274"
   inkscape:pageshadow="2"
   inkscape:pageopacity="0.0"
   guidetolerance="10.0"
   gridtolerance="10.0"
   objecttolerance="10.0"
   borderopacity="1.0"
   bordercolor="#666666"
   pagecolor="#ffffff"
   id="base"
   showgrid="false"
   inkscape:zoom="18.914744"
   inkscape:cx="30.815999"
   inkscape:cy="15.389719"
   inkscape:window-x="0"
   inkscape:window-y="0"
   inkscape:current-layer="Layer_1" />
<path
   d="M 61.476966,-2.2761491 L 60.634299,-2.6471771 C 49.779981,-8.2997921 38.922477,1.0387818 28.064971,-1.2137491 L 26.690261,-1.7956361 L 17.424107,33.819081 C 16.052583,31.278648 12.896962,29.504602 9.2188552,29.504602 C 4.2791354,29.50663 0.27766064,32.703965 0.27766064,36.649441 C 0.27766064,40.594917 4.2791354,43.792255 9.217262,43.792255 C 13.229888,43.792255 16.62445,41.677594 17.753846,38.766132 L 17.932257,38.843176 L 24.700674,12.840743 C 35.139236,17.578964 45.577796,9.06963 56.017949,10.92883 L 50.675215,30.370337 C 49.302098,27.835987 46.14807,26.068024 42.473149,26.068024 C 37.536616,26.068024 33.535141,29.265359 33.535141,33.212863 C 33.535141,37.154284 37.536616,40.351622 42.473149,40.351622 C 46.586129,40.351622 50.039631,38.133558 51.08301,35.116667 L 51.188144,35.159244 L 61.476966,-2.2761491 z"
   id="path3"
   style="fill:#ffffff" />

</svg>