<?xml version="1.0" encoding="utf-8"?>
<!-- Generator: Adobe Illustrator 13.0.0, SVG Export Plug-In  -->
<!DOCTYPE svg PUBLIC "-//W3C//DTD SVG 1.1 Tiny//EN" "http://www.w3.org/Graphics/SVG/1.1/DTD/svg11-tiny.dtd" [
	<!ENTITY ns_flows "http://ns.adobe.com/Flows/1.0/">
]>
<svg version="1.1" baseProfile="tiny"
	 xmlns="http://www.w3.org/2000/svg" xmlns:xlink="http://www.w3.org/1999/xlink" xmlns:a="http://ns.adobe.com/AdobeSVGViewerExtensions/3.0/"
	 x="0px" y="0px" width="30px" height="30px" viewBox="-0.9 -0.5 30 30" xml:space="preserve">
<defs>
</defs>
<path fill="#FFFFFF" d="M28.6,15.9l0-2.7l-3.6-1.5l-1-2.7l1.4-3.8l-2-2.1l-3.9,1.7l-0.1-0.1l-2.5-1L15.9,0l-2.8,0l-1.6,3.6l-0.2,0.1
	L8.5,4.8L5.1,3.2l-2,2l1.4,4.2l-0.9,2.4l-0.1,0L0,12.7l0,2.8l3.6,1.3l1,2.6l-1.4,4l2,2l3-2.1l2.5,1.2l2,4.2l2.9,0L17,25l0.1-0.1
	l2.6-1l3.8,1.6l1.9-2.1l-1.7-3.7l1.1-2.5L28.6,15.9z M22.5,16.8h-5.9v5.8h-4v-5.8H6.8v-4h5.8V7h4v5.9h5.9V16.8z"/>
</svg>
