<?xml version="1.0" encoding="iso-8859-1"?>
<!-- Generator: Adobe Illustrator 12.0.1, SVG Export Plug-In . SVG Version: 6.00 Build 51448)  -->
<!DOCTYPE svg PUBLIC "-//W3C//DTD SVG 1.1//EN" "http://www.w3.org/Graphics/SVG/1.1/DTD/svg11.dtd" [
	<!ENTITY ns_svg "http://www.w3.org/2000/svg">
	<!ENTITY ns_xlink "http://www.w3.org/1999/xlink">
]>
<svg  version="1.1" id="&#x56FE;&#x5C42;_2" xmlns="&ns_svg;" xmlns:xlink="&ns_xlink;" width="395.053" height="395.053"
	 viewBox="0 0 395.053 395.053" style="overflow:visible;enable-background:new 0 0 395.053 395.053;" xml:space="preserve">
<radialGradient id="XMLID_9_" cx="145.689" cy="365.7134" r="187.3903" gradientTransform="matrix(1.0487 0 0 0.4905 -31.4322 158.2676)" gradientUnits="userSpaceOnUse">
	<stop  offset="0" style="stop-color:#FFFFFF"/>
	<stop  offset="1" style="stop-color:#000000"/>
</radialGradient>
<ellipse style="fill:url(#XMLID_9_);stroke:#000000;stroke-width:4;" cx="177.843" cy="351.661" rx="122.398" ry="33.627"/>
<g>
	<path style="fill:#686667;" d="M169.844,254.206c-4.848-5.034-3.789-13.198,2.357-18.284l134.753-111.512
		c6.625-5.479,23.367,7.374,16.111,13.076L169.844,254.206z"/>
	
		<linearGradient id="XMLID_10_" gradientUnits="userSpaceOnUse" x1="178.7705" y1="275.2661" x2="329.9525" y2="312.1133" gradientTransform="matrix(0.7759 0.6308 -0.6308 0.7759 171.6598 -263.0386)">
		<stop  offset="0.0056" style="stop-color:#FFC01F"/>
		<stop  offset="0.0709" style="stop-color:#FFC42E"/>
		<stop  offset="0.1972" style="stop-color:#FFD056"/>
		<stop  offset="0.3716" style="stop-color:#FFE297"/>
		<stop  offset="0.5854" style="stop-color:#FFFAEF"/>
		<stop  offset="0.6236" style="stop-color:#FFFFFF"/>
		<stop  offset="1" style="stop-color:#FFD03F"/>
	</linearGradient>
	<path style="fill:url(#XMLID_10_);stroke:#000000;stroke-width:4;" d="M200.056,241.747l-4.145-4.66
		c-5.221-5.877-3.719-14.665,3.342-19.686l7.85-5.577c7.125-5.061,17.268-4.48,22.672,1.362l2.607,2.815l11.824-9.418l-4.232-4.505
		c-5.457-5.809-4.002-14.638,3.227-19.786l8.033-5.722c7.295-5.188,17.768-4.773,23.414,0.994l2.631,2.686l16.387-13.047
		l-4.119-4.124c-5.721-5.727-4.33-14.607,3.09-19.899l8.25-5.879c7.486-5.338,18.342-5.112,24.264,0.57l2.137,2.054
		c20.662-20.491,22.207-50.051,2.736-67.801l-51.951-47.362C260.164,8.432,227.4,7.86,202.91,22.192
		c1.455,4.564-0.6,10.136-5.699,14.019l-7.439,5.672c-5.779,4.401-13.534,5.127-18.661,2.138l-17.053,11.849
		c1.462,4.602-0.564,10.214-5.59,14.049l-7.23,5.522c-5.616,4.282-13.085,4.88-17.984,1.832L110.61,86.06
		c1.225,4.55-0.819,9.983-5.635,13.663l-7.051,5.385c-5.385,4.116-12.472,4.649-17.17,1.696l-14.944,10.383
		c-22.612,15.714-27.355,42.842-20.358,64.086c0,0,6.375,17.244,20.106,35.371c14.054,18.553,43.449,36.406,43.449,36.406
		c22.768,14.27,52.301,19.545,75.855,0.794L200.056,241.747z"/>
	<path style="fill:#686667;" d="M186.441,37.747c-6.715,5.058-8.975,12.378-5.043,16.392c0,0,45.859,34.588,59.549,48.436
		c13.973,14.125,19.178,25.242,19.178,25.242c4.436,4.501,14.014,3.949,21.391-1.28l8.199-5.814
		c7.439-5.276,7.113-11.528,5.164-17.68c0,0-7.215-12.186-19.979-24.572c-12.541-12.161-61.385-48.408-61.385-48.408
		c-4.064-3.977-12.846-3.034-19.615,2.065L186.441,37.747z"/>
	<path style="fill:#686667;" d="M294.255,102.846c0,0-7.211-12.183-19.969-24.559c-12.533-12.161-61.336-48.389-61.336-48.389
		c-4.063-3.973-12.842-3.03-19.609,2.067l-7.457,5.62c-1.475,1.114-2.727,2.339-3.752,3.611c6.541-4.368,14.535-4.98,18.334-1.202
		c0,0,48.227,36.438,60.6,48.648c12.596,12.427,19.688,24.631,19.688,24.631c1.49,4.794,1.982,9.646-1.365,14.039
		c0.51-0.309,1.012-0.634,1.504-0.98l8.195-5.812C296.525,115.246,296.195,108.997,294.255,102.846z"/>
	<path style="fill:#686667;" d="M137.59,74.089c-6.522,4.917-8.791,12.169-5.059,16.229c0,0,43.679,35.217,56.666,49.222
		c13.242,14.288,18.104,25.431,18.104,25.431c4.205,4.551,13.416,4.16,20.58-0.916l7.955-5.642
		c7.219-5.121,6.988-11.342,5.199-17.493c0,0-6.77-12.243-18.879-24.777c-11.896-12.316-58.403-49.235-58.403-49.235
		c-3.86-4.028-12.321-3.244-18.906,1.716L137.59,74.089z"/>
	<path style="fill:#686667;" d="M240.88,141.583c0,0-6.771-12.249-18.877-24.789c-11.895-12.323-58.401-49.267-58.401-49.267
		c-3.858-4.031-12.327-3.247-18.909,1.71l-7.254,5.465c-1.438,1.084-2.654,2.283-3.661,3.533c6.362-4.236,14.066-4.703,17.676-0.871
		c0,0,45.948,37.136,57.694,49.503c11.955,12.591,18.623,24.858,18.623,24.858c1.359,4.798,1.773,9.631-1.508,13.943
		c0.492-0.295,0.984-0.61,1.457-0.95l7.961-5.641C242.904,153.96,242.667,147.736,240.88,141.583z"/>
	<path style="fill:#686667;" d="M92.475,104.447c-6.354,4.794-8.628,11.968-5.078,16.06c0,0,41.664,35.629,54.001,49.73
		c12.578,14.376,17.12,25.51,17.12,25.51c3.995,4.582,12.864,4.323,19.819-0.616l7.733-5.488c7.012-4.982,6.865-11.164,5.221-17.294
		c0,0-6.367-12.252-17.864-24.875c-11.305-12.408-55.651-49.776-55.651-49.776c-3.673-4.061-11.837-3.406-18.242,1.423
		L92.475,104.447z"/>
	<path style="fill:#686667;" d="M190.984,172.283c0,0-6.363-12.251-17.858-24.874c-11.301-12.403-55.628-49.765-55.628-49.765
		c-3.671-4.062-11.836-3.407-18.239,1.425l-7.06,5.328c-1.398,1.052-2.585,2.228-3.572,3.454c6.181-4.117,13.616-4.469,17.043-0.61
		c0,0,43.805,37.543,54.962,49.995c11.346,12.661,17.607,24.931,17.607,24.931c1.252,4.78,1.588,9.582-1.621,13.818
		c0.48-0.288,0.951-0.595,1.414-0.923l7.731-5.489C192.773,184.596,192.628,178.415,190.984,172.283z"/>
</g>
<linearGradient id="XMLID_11_" gradientUnits="userSpaceOnUse" x1="194.8481" y1="326.8247" x2="146.2933" y2="326.8247" gradientTransform="matrix(1 0.0032 -0.0019 0.6086 2.4753 127.3809)">
	<stop  offset="0" style="stop-color:#FFFFFF"/>
	<stop  offset="1" style="stop-color:#000000"/>
</linearGradient>
<path style="fill:url(#XMLID_11_);stroke:#000000;stroke-width:4;" d="M199.753,299.092l-51.038-0.152
	c0,0-0.313,45.967-0.696,48.791c-0.254,1.859,11.18,6.89,25.603,6.934c14.424,0.043,26.235-3.63,26.244-5.497
	C199.866,349.009,199.753,299.092,199.753,299.092z"/>
<defs>
	<filter id="Adobe_OpacityMaskFilter" filterUnits="userSpaceOnUse" x="76.488" y="153.492" width="195.235" height="178.846">
		
			<feColorMatrix  type="matrix" values="-1 0 0 0 1  0 -1 0 0 1  0 0 -1 0 1  0 0 0 1 0" color-interpolation-filters="sRGB" result="source"/>
		<feFlood  style="flood-color:white;flood-opacity:1" result="back"/>
		<feBlend  in="source" in2="back" mode="normal"/>
	</filter>
</defs>
<mask maskUnits="userSpaceOnUse" x="76.488" y="153.492" width="195.235" height="178.846" id="XMLID_12_">
	<g style="filter:url(#Adobe_OpacityMaskFilter);">
	</g>
</mask>
<g style="mask:url(#XMLID_12_);">
	
		<linearGradient id="XMLID_13_" gradientUnits="userSpaceOnUse" x1="153.915" y1="175.1841" x2="167.3944" y2="237.1904" gradientTransform="matrix(0.9998 -0.0197 0.0197 0.9998 -14.1368 77.431)">
		<stop  offset="0" style="stop-color:#FFFFFF"/>
		<stop  offset="0.3956" style="stop-color:#8E8E8E"/>
		<stop  offset="0.7912" style="stop-color:#FFFFFF"/>
		<stop  offset="1" style="stop-color:#000000"/>
	</linearGradient>
	<path style="fill:url(#XMLID_13_);stroke:#000000;stroke-width:4;" d="M126.527,261.527l-12-5l-9.5-6l-4,6.5
		c0.042,11.059,7.719,19.094,17.665,21.859l40.606,11.749c9.877,2.752,36.797-9.479,35.52-11.43
		C194.818,279.204,166.027,274.027,126.527,261.527z"/>
	
		<linearGradient id="XMLID_14_" gradientUnits="userSpaceOnUse" x1="201.5093" y1="169.4873" x2="275.4425" y2="170.9441" gradientTransform="matrix(0.9998 -0.0197 0.0197 0.9998 -14.1368 77.431)">
		<stop  offset="0.0056" style="stop-color:#8E8E8E"/>
		<stop  offset="0.5" style="stop-color:#636363"/>
		<stop  offset="1" style="stop-color:#FFFFFF"/>
		<stop  offset="1" style="stop-color:#000000"/>
	</linearGradient>
	<path style="fill:url(#XMLID_14_);stroke:#000000;stroke-width:4;" d="M220.552,155.994c0,0-13.179,3.685-20.469,9.312
		c-7.036,5.435-9.767,12.072-13.041,20.833l47.959-2.601l3.4,120.25c-0.599,10.56-18.688,21.55-26.707,26.291
		c22.268,0.625,47.914,2.615,58.023-30.051c0,0-1.729-102.699-2-113C266.718,149.027,220.552,155.994,220.552,155.994z"/>
	
		<linearGradient id="XMLID_15_" gradientUnits="userSpaceOnUse" x1="90.1104" y1="175.4834" x2="254.3999" y2="175.4834" gradientTransform="matrix(0.9998 -0.0197 0.0197 0.9998 -14.1368 77.431)">
		<stop  offset="0" style="stop-color:#FFFFFF"/>
		<stop  offset="0.2637" style="stop-color:#7F7F7F"/>
		<stop  offset="0.3956" style="stop-color:#8E8E8E"/>
		<stop  offset="0.573" style="stop-color:#5F5F5F"/>
		<stop  offset="1" style="stop-color:#FFFFFF"/>
	</linearGradient>
	<path style="fill:url(#XMLID_15_);stroke:#000000;stroke-width:4;" d="M191.977,175.97c-10.196,9.269-4.087,36.277-4.241,91.776
		c-0.027,10.032-8.847,22.486-24.131,18.36l-41.342-11.572c-10.106-2.723-18.213-13.337-18.236-24.508l-4.5-3l-10.5-7.5l-10-8
		l3.045,26.608c0.176,15.331,11.397,31.686,26.658,37.288l79.113,30.039c31.851,11.729,53.579-0.587,55.16-27.082
		c0,0,4.081-89.125-6.661-116.298C231.784,170.565,204.846,158.427,191.977,175.97z"/>
</g>
<g>
	
		<radialGradient id="XMLID_16_" cx="288.6069" cy="215.395" r="15.264" gradientTransform="matrix(1.0963 0 0 1.0339 -47.8645 -17.476)" gradientUnits="userSpaceOnUse">
		<stop  offset="0" style="stop-color:#FFFFFF"/>
		<stop  offset="1" style="stop-color:#000000"/>
	</radialGradient>
	<ellipse style="fill:url(#XMLID_16_);stroke:#000000;stroke-width:4;" cx="269.284" cy="217.218" rx="20.955" ry="19.762"/>
	<path style="opacity:0.45;fill:#FFFFFF;" d="M254.317,221.218c0-10.913,10.378-5.646,21.951-5.646c2.843,0,9.542-6.048,12.015-5.08
		c-3.054-7.35-10.621-12.563-19.499-12.563c-11.571,0-20.954,8.847-20.954,19.761c0,8.231,5.341,15.282,12.929,18.253
		C259.832,233.71,254.317,223.761,254.317,221.218z"/>
</g>
<rect style="fill:none;" width="395.053" height="395.053"/>
</svg>
