<?xml version="1.0" encoding="UTF-8" standalone="no"?>
<!-- Created with Inkscape (http://www.inkscape.org/) -->
<svg
   xmlns:dc="http://purl.org/dc/elements/1.1/"
   xmlns:cc="http://web.resource.org/cc/"
   xmlns:rdf="http://www.w3.org/1999/02/22-rdf-syntax-ns#"
   xmlns:svg="http://www.w3.org/2000/svg"
   xmlns="http://www.w3.org/2000/svg"
   xmlns:xlink="http://www.w3.org/1999/xlink"
   xmlns:sodipodi="http://sodipodi.sourceforge.net/DTD/sodipodi-0.dtd"
   xmlns:inkscape="http://www.inkscape.org/namespaces/inkscape"
   width="256"
   height="256"
   id="svg2"
   sodipodi:version="0.32"
   inkscape:version="0.44.1"
   version="1.0"
   sodipodi:docbase="/home/user"
   sodipodi:docname="Rotation.svg">
  <defs
     id="defs4">
    <linearGradient
       id="linearGradient2760">
      <stop
         style="stop-color:#14acac;stop-opacity:1;"
         offset="0"
         id="stop2762" />
      <stop
         style="stop-color:#156f6f;stop-opacity:1;"
         offset="1"
         id="stop2764" />
    </linearGradient>
    <linearGradient
       inkscape:collect="always"
       xlink:href="#linearGradient2760"
       id="linearGradient2766"
       x1="66.617142"
       y1="44.495827"
       x2="207.35823"
       y2="206.20087"
       gradientUnits="userSpaceOnUse" />
  </defs>
  <sodipodi:namedview
     id="base"
     pagecolor="#ffffff"
     bordercolor="#666666"
     borderopacity="1.0"
     gridtolerance="10000"
     guidetolerance="10"
     objecttolerance="10"
     inkscape:pageopacity="0.0"
     inkscape:pageshadow="2"
     inkscape:zoom="2.484375"
     inkscape:cx="128"
     inkscape:cy="128"
     inkscape:document-units="px"
     inkscape:current-layer="layer1"
     width="256px"
     height="256px"
     inkscape:window-width="1360"
     inkscape:window-height="844"
     inkscape:window-x="104"
     inkscape:window-y="275" />
  <metadata
     id="metadata7">
    <rdf:RDF>
      <cc:Work
         rdf:about="">
        <dc:format>image/svg+xml</dc:format>
        <dc:type
           rdf:resource="http://purl.org/dc/dcmitype/StillImage" />
      </cc:Work>
    </rdf:RDF>
  </metadata>
  <g
     inkscape:label="Layer 1"
     inkscape:groupmode="layer"
     id="layer1">
    <path
       sodipodi:type="arc"
       style="opacity:1;fill:url(#linearGradient2766);fill-opacity:1.0;stroke:#332f2f;stroke-width:9.5493928;stroke-linejoin:round;stroke-miterlimit:4;stroke-dasharray:none;stroke-dashoffset:0;stroke-opacity:1"
       id="path1872"
       sodipodi:cx="132.79251"
       sodipodi:cy="128.39938"
       sodipodi:rx="110.02808"
       sodipodi:ry="110.02808"
       d="M 242.82059 128.39938 A 110.02808 110.02808 0 1 1  22.764427,128.39938 A 110.02808 110.02808 0 1 1  242.82059 128.39938 z"
       transform="matrix(1.047187,0,0,1.047187,-11.45796,-7.656277)" />
    <path
       style="opacity:1;fill:#fdfdfd;fill-opacity:1;stroke:#4d4d4d;stroke-width:6;stroke-linejoin:round;stroke-miterlimit:4;stroke-dasharray:none;stroke-dashoffset:0;stroke-opacity:1"
       d="M 144.80228,28.430162 C 143.1458,35.054366 148.29125,47.573617 141.89329,50.461022 C 97.143311,47.752142 52.463611,77.707658 38.745957,120.5439 C 34.963595,131.71172 33.116229,143.5431 33.418355,155.33415 C 41.071263,153.4894 53.737804,159.1576 58.220776,152.24908 C 58.153671,114.94012 88.578605,80.553606 125.56991,75.854313 C 132.28943,76.048298 147.95039,70.37958 144.85451,81.943004 C 144.73007,86.638304 142.90113,99.399704 150.26616,92.733735 C 168.12829,82.543673 185.99042,72.353615 203.85255,62.163551 C 184.15877,50.937231 164.47535,39.692726 144.80228,28.430162 z "
       id="path2786" />
    <path
       style="opacity:1;fill:#fdfdfd;fill-opacity:1;stroke:#4d4d4d;stroke-width:6;stroke-linejoin:round;stroke-miterlimit:4;stroke-dasharray:none;stroke-dashoffset:0;stroke-opacity:1"
       d="M 108.65263,223.65324 C 110.30911,217.02904 105.16366,204.5098 111.56162,201.6224 C 156.3116,204.33127 200.99129,174.37575 214.70894,131.53951 C 218.4913,120.37169 220.33867,108.54032 220.03655,96.749264 C 212.38364,98.594 199.7171,92.925822 195.23413,99.834329 C 195.30123,137.1433 164.8763,171.52981 127.88499,176.22909 C 121.16547,176.0351 105.50451,181.70383 108.60039,170.14041 C 108.72482,165.44511 110.55379,152.68371 103.18875,159.34967 C 85.326607,169.53972 67.464475,179.72979 49.602348,189.91986 C 69.296132,201.14618 88.979556,212.39068 108.65263,223.65324 z "
       id="path5466" />
    <path
       style="opacity:1;fill:#88ebf1;fill-opacity:1;stroke:none;stroke-width:6;stroke-linejoin:round;stroke-miterlimit:4;stroke-dasharray:none;stroke-dashoffset:0;stroke-opacity:1"
       d="M 185.34375 33.90625 C 213.12582 53.690695 231.25 86.144622 231.25 122.78125 C 231.25 182.99435 182.29299 231.84375 121.96875 231.84375 C 100.74865 231.84375 80.927267 225.80444 64.15625 215.34375 C 82.011211 228.02065 103.84209 235.46875 127.40625 235.46875 C 187.73049 235.46875 236.6875 186.5881 236.6875 126.375 C 236.6875 87.403532 216.1691 53.199602 185.34375 33.90625 z "
       id="path5468" />
  </g>
</svg>
