<?xml version="1.0" encoding="iso-8859-1"?>
<!-- Generator: Adobe Illustrator 12.0.1, SVG Export Plug-In . SVG Version: 6.00 Build 51448)  -->
<!DOCTYPE svg PUBLIC "-//W3C//DTD SVG 1.1//EN" "http://www.w3.org/Graphics/SVG/1.1/DTD/svg11.dtd" [
	<!ENTITY ns_svg "http://www.w3.org/2000/svg">
	<!ENTITY ns_xlink "http://www.w3.org/1999/xlink">
]>
<svg  version="1.1" id="&#x56FE;&#x5C42;_1" xmlns="&ns_svg;" xmlns:xlink="&ns_xlink;" width="20.233" height="20.53"
	 viewBox="0 0 20.233 20.53" style="overflow:visible;enable-background:new 0 0 20.233 20.53;" xml:space="preserve">
<g>
	<path style="fill:#9BC41E;" d="M7.73,11.934c0.031,0,0.055-0.02,0.091-0.054C7.734,11.911,7.688,11.934,7.73,11.934z"/>
</g>
<linearGradient id="XMLID_9_" gradientUnits="userSpaceOnUse" x1="-9.627" y1="-37.1543" x2="-7.0122" y2="-38.2508" gradientTransform="matrix(0.9968 -0.0791 0.0791 0.9968 17.6807 49.5067)">
	<stop  offset="0.0056" style="stop-color:#424242"/>
	<stop  offset="0.3202" style="stop-color:#FFFFFF"/>
	<stop  offset="0.736" style="stop-color:#CCCCCC"/>
	<stop  offset="1" style="stop-color:#424242"/>
</linearGradient>
<path style="fill:url(#XMLID_9_);stroke:#000000;stroke-width:0.25;" d="M1.932,6.798c0,0,5.618,11.677,6.689,13.089
	c1.073,1.413,5.458-0.32,5.787-2.211C14.74,15.786,6.401,2.939,6.401,2.939S5.13,2.931,4.539,3.289
	C4.111,3.546,2.75,4.302,2.573,4.571C2.397,4.839,1.932,6.798,1.932,6.798z"/>
<linearGradient id="XMLID_10_" gradientUnits="userSpaceOnUse" x1="-9.9658" y1="-38.8862" x2="-0.7031" y2="-38.8862" gradientTransform="matrix(0.9968 -0.0791 0.0791 0.9968 17.6807 49.5067)">
	<stop  offset="0.1067" style="stop-color:#ECECEC"/>
	<stop  offset="0.3202" style="stop-color:#FFFFFF"/>
	<stop  offset="0.736" style="stop-color:#CCCCCC"/>
	<stop  offset="1" style="stop-color:#424242"/>
</linearGradient>
<path style="fill:url(#XMLID_10_);stroke:#000000;stroke-width:0.25;" d="M4.299,3.501c0,0,0.634-0.559,1.746-0.79
	c1.111-0.229,1.779-0.366,2.426,0.317c0.65,0.684,3.58,7.007,4.836,10.015c0,0,1.7,3.964,0.867,5.217
	c-0.834,1.252-2.406,2.084-3.313,0.998C9.956,18.171,5.318,7.063,4.766,5.78C4.212,4.497,3.791,3.88,4.299,3.501z"/>
<path style="fill:#515151;" d="M2.689,4.507c0,0,1.305-0.924,2.067-1.267C5.522,2.895,3.928,3.338,4.22,4.243
	c0.242,0.747,6.087,13.73,6.459,14.491c0.371,0.764,1.245,1.089,1.875,0.841c0,0-0.73,0.397-0.982,0.444
	c-0.25,0.049-1.115-0.533-1.531-1.488C9.625,17.575,5.313,7.377,4.993,6.922C4.675,6.467,4.638,5.65,3.3,5.869
	C1.96,6.089,2.831,4.523,2.689,4.507z"/>
<linearGradient id="XMLID_11_" gradientUnits="userSpaceOnUse" x1="-8.915" y1="-40.6528" x2="-1.5059" y2="-40.6528" gradientTransform="matrix(0.9968 -0.0791 0.0791 0.9968 17.6807 49.5067)">
	<stop  offset="0" style="stop-color:#FFE855"/>
	<stop  offset="0.9831" style="stop-color:#FFB800"/>
</linearGradient>
<path style="fill:url(#XMLID_11_);stroke:#000000;stroke-width:0.25;" d="M5.394,5.561c-0.245-0.63-0.457-1.147,0.623-1.432
	c1.08-0.283,2.537-0.754,2.847-0.366c0.658,0.822,3.92,7.468,4.394,9.369c0.149,0.593-0.017,0.849-0.66,0.927
	c-0.399,0.051-0.657-0.087-1.172,0.547c-0.515,0.634-1.324,0.754-1.736,0.193C8.971,13.823,5.64,6.191,5.394,5.561z"/>
<linearGradient id="XMLID_12_" gradientUnits="userSpaceOnUse" x1="-14.6484" y1="-46.2646" x2="-13.1882" y2="-46.9386" gradientTransform="matrix(0.9023 0.0193 -0.0158 0.7697 13.543 40.1052)">
	<stop  offset="0.0056" style="stop-color:#4F4F4F"/>
	<stop  offset="0.3202" style="stop-color:#FFFFFF"/>
	<stop  offset="0.736" style="stop-color:#CCCCCC"/>
	<stop  offset="1" style="stop-color:#424242"/>
</linearGradient>
<path style="fill:url(#XMLID_12_);stroke:#000000;stroke-width:0.25;" d="M0.17,2.612c0,0-0.207-0.38,0.267-0.643
	c0.122-0.068,0.116-0.065,0.427-0.194C1.071,1.688,1.488,1.7,1.729,2.171c0.235,0.454,1.492,2.938,1.492,2.938
	s0.194,0.461-0.271,0.798C2.487,6.243,2.179,6.345,1.978,6.231C1.778,6.12,0.17,2.612,0.17,2.612z"/>
<path style="fill:#99CF16;stroke:#000000;stroke-width:0.25;stroke-linecap:round;stroke-linejoin:round;" d="M6.184,5.895
	c0,0,2.268-0.632,2.897-0.879l3.127,6.647l-2.667,1.287L6.184,5.895z"/>
<g>
	<linearGradient id="XMLID_13_" gradientUnits="userSpaceOnUse" x1="12.2676" y1="9.2227" x2="12.2676" y2="0.25">
		<stop  offset="0" style="stop-color:#DEB824"/>
		<stop  offset="0.1515" style="stop-color:#E1AC21"/>
		<stop  offset="0.4248" style="stop-color:#E88C18"/>
		<stop  offset="0.7862" style="stop-color:#F35909"/>
		<stop  offset="1" style="stop-color:#FA3800"/>
	</linearGradient>
	<polygon style="fill:url(#XMLID_13_);stroke:#000000;stroke-width:0.5;stroke-linejoin:round;" points="16.233,4.924 11.599,0.25 
		11.675,3.259 8.302,3.259 8.408,7.408 11.78,7.321 11.83,9.223 	"/>
	<linearGradient id="XMLID_14_" gradientUnits="userSpaceOnUse" x1="12.2607" y1="6.8682" x2="12.2607" y2="2.222">
		<stop  offset="0" style="stop-color:#FFE02C"/>
		<stop  offset="0.1336" style="stop-color:#FFD428"/>
		<stop  offset="0.3747" style="stop-color:#FFB41F"/>
		<stop  offset="0.6931" style="stop-color:#FF8110"/>
		<stop  offset="1" style="stop-color:#FF4A00"/>
	</linearGradient>
	<polygon style="fill:url(#XMLID_14_);" points="15.31,4.926 12.09,1.68 12.144,3.769 9.212,3.809 9.285,6.69 12.216,6.591 
		12.25,7.911 	"/>
	<linearGradient id="XMLID_15_" gradientUnits="userSpaceOnUse" x1="16.0176" y1="8.0195" x2="16.0176" y2="12.8318">
		<stop  offset="0" style="stop-color:#6FB7CD"/>
		<stop  offset="0.1914" style="stop-color:#64A7C6"/>
		<stop  offset="0.5643" style="stop-color:#477EB3"/>
		<stop  offset="0.9719" style="stop-color:#224A9C"/>
	</linearGradient>
	<polygon style="fill:url(#XMLID_15_);stroke:#1D2100;stroke-width:0.5;stroke-linejoin:round;" points="12.052,9.612 16.687,4.938 
		16.61,7.946 19.983,7.946 19.877,12.096 16.505,12.009 16.455,13.91 	"/>
	<linearGradient id="XMLID_16_" gradientUnits="userSpaceOnUse" x1="16.0244" y1="11.5825" x2="16.0244" y2="7.2697">
		<stop  offset="0" style="stop-color:#14B5E0"/>
		<stop  offset="0.2552" style="stop-color:#17A9DB"/>
		<stop  offset="0.7139" style="stop-color:#1D8ACD"/>
		<stop  offset="0.9719" style="stop-color:#2275C4"/>
	</linearGradient>
	<polygon style="fill:url(#XMLID_16_);" points="12.976,9.613 16.195,6.367 16.142,8.457 19.073,8.496 19,11.378 16.069,11.278 
		16.035,12.598 	"/>
</g>
</svg>
