<?xml version="1.0" encoding="UTF-8" standalone="no"?>
<!-- Generator: Adobe Illustrator 12.0.1, SVG Export Plug-In . SVG Version: 6.00 Build 51448)  -->
<svg
   xmlns:dc="http://purl.org/dc/elements/1.1/"
   xmlns:cc="http://web.resource.org/cc/"
   xmlns:rdf="http://www.w3.org/1999/02/22-rdf-syntax-ns#"
   xmlns:svg="http://www.w3.org/2000/svg"
   xmlns="http://www.w3.org/2000/svg"
   xmlns:sodipodi="http://sodipodi.sourceforge.net/DTD/sodipodi-0.dtd"
   xmlns:inkscape="http://www.inkscape.org/namespaces/inkscape"
   version="1.0"
   id="Í_xBC__xB2_ã_x5F_1"
   width="45"
   height="45"
   viewBox="0 0 27.804 27.725"
   style="overflow:visible;enable-background:new 0 0 27.804 27.725;"
   xml:space="preserve"
   sodipodi:version="0.32"
   inkscape:version="0.44.1"
   sodipodi:docname="call.svg"
   sodipodi:docbase="/home/user"><metadata
   id="metadata82"><rdf:RDF><cc:Work
       rdf:about=""><dc:format>image/svg+xml</dc:format><dc:type
         rdf:resource="http://purl.org/dc/dcmitype/StillImage" /></cc:Work></rdf:RDF></metadata><defs
   id="defs80" /><sodipodi:namedview
   inkscape:window-height="1116"
   inkscape:window-width="1592"
   inkscape:pageshadow="2"
   inkscape:pageopacity="0.0"
   guidetolerance="10.0"
   gridtolerance="10.0"
   objecttolerance="10.0"
   borderopacity="1.0"
   bordercolor="#666666"
   pagecolor="#ffffff"
   id="base"
   width="45px"
   height="45px"
   inkscape:zoom="20.177778"
   inkscape:cx="22.5"
   inkscape:cy="22.5"
   inkscape:window-x="0"
   inkscape:window-y="24"
   inkscape:current-layer="Í_xBC__xB2_ã_x5F_1" />

<g
   id="g33"
   transform="matrix(0.96862,0,0,0.96862,3.346488,0.376148)">
	
		<linearGradient
   id="XMLID_5_"
   gradientUnits="userSpaceOnUse"
   x1="-7.6767998"
   y1="-61.116199"
   x2="-3.8294001"
   y2="-62.7295"
   gradientTransform="matrix(0.9968,-7.91e-2,7.91e-2,0.9968,20.0004,77.3604)">
		<stop
   offset="0.0056"
   style="stop-color:#424242"
   id="stop36" />
		<stop
   offset="0.3202"
   style="stop-color:#FFFFFF"
   id="stop38" />
		<stop
   offset="0.736"
   style="stop-color:#CCCCCC"
   id="stop40" />
		<stop
   offset="1"
   style="stop-color:#424242"
   id="stop42" />
	</linearGradient>
	<path
   style="fill:url(#XMLID_5_);stroke:#010101;stroke-width:0.25809893"
   d="M 2.783,7.578 C 2.783,7.578 11.051,24.762 12.627,26.84 C 14.206,28.918 20.658,26.368 21.143,23.587 C 21.631,20.803 9.36,1.899 9.36,1.899 C 9.36,1.899 7.49,1.887 6.62,2.414 C 5.99,2.792 3.988,3.905 3.728,4.301 C 3.469,4.695 2.783,7.578 2.783,7.578 z "
   id="path44" />
	
		<linearGradient
   id="XMLID_6_"
   gradientUnits="userSpaceOnUse"
   x1="-8.1777"
   y1="-63.665001"
   x2="5.4551001"
   y2="-63.665001"
   gradientTransform="matrix(0.9968,-7.91e-2,7.91e-2,0.9968,20.0004,77.3604)">
		<stop
   offset="0.1067"
   style="stop-color:#ECECEC"
   id="stop47" />
		<stop
   offset="0.3202"
   style="stop-color:#FFFFFF"
   id="stop49" />
		<stop
   offset="0.736"
   style="stop-color:#CCCCCC"
   id="stop51" />
		<stop
   offset="1"
   style="stop-color:#424242"
   id="stop53" />
	</linearGradient>
	<path
   style="fill:url(#XMLID_6_);stroke:#010101;stroke-width:0.25809893"
   d="M 6.267,2.728 C 6.267,2.728 7.2,1.906 8.836,1.565 C 10.471,1.229 11.454,1.028 12.406,2.032 C 13.363,3.038 17.674,12.343 19.521,16.768 C 19.521,16.768 22.023,22.603 20.797,24.447 C 19.569,26.289 17.256,27.513 15.921,25.915 C 14.591,24.314 7.767,7.969 6.952,6.08 C 6.139,4.191 5.52,3.283 6.267,2.728 z "
   id="path55" />
	<path
   style="fill:#525252"
   d="M 3.898,4.206 C 3.898,4.206 5.818,2.847 6.941,2.342 C 8.067,1.835 5.721,2.487 6.15,3.817 C 6.506,4.917 15.107,24.023 15.654,25.141 C 16.201,26.266 17.486,26.745 18.414,26.379 C 18.414,26.379 17.339,26.964 16.968,27.033 C 16.6,27.106 15.327,26.248 14.715,24.845 C 14.104,23.438 7.758,8.431 7.289,7.761 C 6.82,7.091 6.766,5.89 4.797,6.212 C 2.825,6.535 4.107,4.23 3.898,4.206 z "
   id="path57" />
	
		<linearGradient
   id="XMLID_7_"
   gradientUnits="userSpaceOnUse"
   x1="-6.6308999"
   y1="-66.264603"
   x2="4.2715001"
   y2="-66.264603"
   gradientTransform="matrix(0.9968,-7.91e-2,7.91e-2,0.9968,20.0004,77.3604)">
		<stop
   offset="0"
   style="stop-color:#F3E755"
   id="stop60" />
		<stop
   offset="0.9831"
   style="stop-color:#F2B71B"
   id="stop62" />
	</linearGradient>
	<path
   style="fill:url(#XMLID_7_);stroke:#010101;stroke-width:0.25809893"
   d="M 7.877,5.758 C 7.518,4.829 7.205,4.069 8.795,3.651 C 10.384,3.234 12.527,2.542 12.983,3.113 C 13.951,4.322 18.751,14.102 19.448,16.9 C 19.668,17.77 19.424,18.148 18.476,18.263 C 17.888,18.339 17.509,18.135 16.751,19.07 C 15.994,20.001 14.803,20.179 14.196,19.354 C 13.141,17.915 8.24,6.686 7.877,5.758 z "
   id="path64" />
	
		<linearGradient
   id="XMLID_8_"
   gradientUnits="userSpaceOnUse"
   x1="-51.852501"
   y1="-32.5522"
   x2="-49.703701"
   y2="-33.543999"
   gradientTransform="matrix(0.9023,1.93e-2,-1.58e-2,0.7697,47.7679,29.8301)">
		<stop
   offset="0.0056"
   style="stop-color:#4F4F4F"
   id="stop67" />
		<stop
   offset="0.3202"
   style="stop-color:#FFFFFF"
   id="stop69" />
		<stop
   offset="0.736"
   style="stop-color:#CCCCCC"
   id="stop71" />
		<stop
   offset="1"
   style="stop-color:#424242"
   id="stop73" />
	</linearGradient>
	<path
   style="fill:url(#XMLID_8_);stroke:#010101;stroke-width:0.25809893"
   d="M 0.191,1.418 C 0.191,1.418 -0.114,0.86 0.584,0.473 C 0.764,0.372 0.754,0.378 1.211,0.187 C 1.518,0.059 2.131,0.077 2.486,0.769 C 2.832,1.439 4.681,5.091 4.681,5.091 C 4.681,5.091 4.968,5.77 4.283,6.267 C 3.602,6.761 3.146,6.911 2.852,6.743 C 2.558,6.58 0.191,1.418 0.191,1.418 z "
   id="path75" />
	<path
   style="fill:#97c63d;stroke:#010101;stroke-width:0.25809893;stroke-linecap:round;stroke-linejoin:round"
   d="M 9.04,6.249 C 9.04,6.249 12.377,5.318 13.304,4.954 L 17.906,14.736 L 13.98,16.63 L 9.04,6.249 z "
   id="path77" />
</g>
</svg>
