<?xml version="1.0" encoding="iso-8859-1"?>
<!-- Generator: Adobe Illustrator 12.0.1, SVG Export Plug-In . SVG Version: 6.00 Build 51448)  -->
<!DOCTYPE svg PUBLIC "-//W3C//DTD SVG 1.1//EN" "http://www.w3.org/Graphics/SVG/1.1/DTD/svg11.dtd" [
	<!ENTITY ns_svg "http://www.w3.org/2000/svg">
	<!ENTITY ns_xlink "http://www.w3.org/1999/xlink">
]>
<svg  version="1.1" id="&#x56FE;&#x5C42;_1" xmlns="&ns_svg;" xmlns:xlink="&ns_xlink;" width="14.25" height="14.25"
	 viewBox="0 0 14.25 14.25" style="overflow:visible;enable-background:new 0 0 14.25 14.25;" xml:space="preserve">
<linearGradient id="XMLID_4_" gradientUnits="userSpaceOnUse" x1="7.125" y1="13.875" x2="7.125" y2="0.375">
	<stop  offset="0" style="stop-color:#DEEF08"/>
	<stop  offset="0.2361" style="stop-color:#C4DC11"/>
	<stop  offset="0.5083" style="stop-color:#AECB19"/>
	<stop  offset="0.7681" style="stop-color:#A1C11E"/>
	<stop  offset="1" style="stop-color:#9CBE20"/>
</linearGradient>
<rect x="0.375" y="0.375" style="fill:url(#XMLID_4_);stroke:#000000;stroke-width:0.75;" width="13.5" height="13.5"/>
<linearGradient id="XMLID_5_" gradientUnits="userSpaceOnUse" x1="7.0625" y1="13.562" x2="7.0625" y2="0.375">
	<stop  offset="0" style="stop-color:#E8EC87"/>
	<stop  offset="0.3722" style="stop-color:#E5EC8B"/>
	<stop  offset="0.7775" style="stop-color:#DAEB99"/>
	<stop  offset="1" style="stop-color:#D2EBA3"/>
</linearGradient>
<polygon style="opacity:0.5;fill:url(#XMLID_5_);" points="1.354,1.406 13.563,1.406 13.563,0.375 0.563,0.375 0.563,13.562 
	1.354,13.562 "/>
<linearGradient id="XMLID_6_" gradientUnits="userSpaceOnUse" x1="28.4731" y1="35.1284" x2="28.4731" y2="21.9409" gradientTransform="matrix(0 -1 -1 0 35.6914 35.6924)">
	<stop  offset="0" style="stop-color:#E8EC87"/>
	<stop  offset="0.3722" style="stop-color:#E5EC8B"/>
	<stop  offset="0.7775" style="stop-color:#DAEB99"/>
	<stop  offset="1" style="stop-color:#D2EBA3"/>
</linearGradient>
<polygon style="fill:url(#XMLID_6_);" points="12.72,12.927 12.72,0.718 13.75,0.718 13.75,13.719 0.563,13.719 0.563,12.927 "/>
<path style="fill:#FFFFFF;" d="M10.479,3.004C8.192,1.078,4.775,1.373,2.85,3.66c-1.926,2.288-1.632,5.704,0.656,7.63
	c1.945,1.636,4.702,1.664,6.669,0.231l1.549,1.303l1.598-1.898l-1.526-1.285C12.94,7.441,12.456,4.667,10.479,3.004z M9.269,9.063
	c-1.058,1.257-2.934,1.418-4.191,0.36c-1.257-1.057-1.418-2.934-0.36-4.19c1.058-1.257,2.934-1.418,4.191-0.36
	C10.165,5.928,10.327,7.805,9.269,9.063z"/>
</svg>
