<?xml version="1.0" encoding="iso-8859-1"?>
<!-- Generator: Adobe Illustrator 12.0.1, SVG Export Plug-In . SVG Version: 6.00 Build 51448)  -->
<!DOCTYPE svg PUBLIC "-//W3C//DTD SVG 1.1//EN" "http://www.w3.org/Graphics/SVG/1.1/DTD/svg11.dtd" [
	<!ENTITY ns_svg "http://www.w3.org/2000/svg">
	<!ENTITY ns_xlink "http://www.w3.org/1999/xlink">
]>
<svg  version="1.1" id="&#xCD;_xBC__xB2_&#xE3;_x5F_1" xmlns="&ns_svg;" xmlns:xlink="&ns_xlink;" width="31.554" height="29.708"
	 viewBox="0 0 31.554 29.708" style="overflow:visible;enable-background:new 0 0 31.554 29.708;" xml:space="preserve">
<g>
	<linearGradient id="XMLID_3_" gradientUnits="userSpaceOnUse" x1="8.8647" y1="21.2139" x2="33.6978" y2="22.8804">
		<stop  offset="0" style="stop-color:#FEF5E8"/>
		<stop  offset="0.8202" style="stop-color:#F7E3D6"/>
	</linearGradient>
	<path style="fill:url(#XMLID_3_);stroke:#636767;stroke-width:0.25;" d="M31.404,29.575L0.19,28.073l5.75-12.668
		c0,0,15.25,0.96,18,0.877s4.958-1.167,4.958-1.167L31.404,29.575z"/>
	<linearGradient id="XMLID_4_" gradientUnits="userSpaceOnUse" x1="25.7236" y1="18.9834" x2="28.8338" y2="14.7117">
		<stop  offset="0" style="stop-color:#FFFFFF"/>
		<stop  offset="0.6498" style="stop-color:#BEBBAD"/>
		<stop  offset="1" style="stop-color:#A6A290"/>
	</linearGradient>
	<path style="fill:url(#XMLID_4_);" d="M28.855,15.24c-3.341,1.527-10.16,0.881-9,1.021l10.417,7.458L28.855,15.24z"/>
	<polygon style="fill:#272B29;" points="5.809,27.218 10.094,15.421 8.502,15.593 4.487,27.159 	"/>
	<polygon style="fill:#272B29;" points="12.154,27.575 15.023,15.989 13.752,16.218 10.487,27.493 	"/>
</g>
<g>
	<polyline style="fill:#2B2625;" points="7.6,18.503 5.584,24.62 12.781,21.271 7.718,18.384 	"/>
	<polygon style="fill:#C57A4A;stroke:#263235;stroke-width:0.25;" points="16.994,19.454 12.202,21.704 7.444,18.401 10.055,15.399 
		22.864,0.54 26.209,2.898 28.168,6.261 	"/>
	<polygon style="fill:#D5A570;stroke:#263235;stroke-width:0.25;" points="10.614,15.243 7.575,18.282 8.843,13.952 20.606,0.136 
		22.864,0.54 	"/>
	<polygon style="fill:#A07940;stroke:#263235;stroke-width:0.25;" points="16.975,19.759 12.331,21.683 11.935,21.511 13.24,17.843 
		26.356,3.136 28.168,6.261 	"/>
	<path style="fill:#EED3AC;" d="M8.945,14.034c1.142,0.573,2.438,0.292,2.438,0.292l0.212,2.163l2.91-0.26l-0.414,1.822
		c0,0,3.238,1.518,2.854,1.629c-2.502,1.146-4.615,2.002-4.615,2.002l-4.755-3.4L8.945,14.034z"/>
	<path style="opacity:0.35;fill:#998D7C;" d="M14.091,18.052l-3.326,2.488l1.507,1.188c0,0,4.746-1.96,4.736-2.026
		C17.033,19.23,14.091,18.052,14.091,18.052z"/>
	<path style="opacity:0.59;fill:#CCB69D;" d="M11.595,16.489L9.09,19.431l1.619,1.184c0.49-0.438,2.895-2.121,3.382-2.563
		c0.141-0.271,0.417-1.797,0.414-1.822C13.15,16.25,11.595,16.489,11.595,16.489z"/>
</g>
</svg>
