<?xml version="1.0" encoding="UTF-8" standalone="no"?>
<!-- Generator: Adobe Illustrator 12.0.1, SVG Export Plug-In . SVG Version: 6.00 Build 51448)  -->
<svg
   xmlns:dc="http://purl.org/dc/elements/1.1/"
   xmlns:cc="http://web.resource.org/cc/"
   xmlns:rdf="http://www.w3.org/1999/02/22-rdf-syntax-ns#"
   xmlns:svg="http://www.w3.org/2000/svg"
   xmlns="http://www.w3.org/2000/svg"
   xmlns:sodipodi="http://sodipodi.sourceforge.net/DTD/sodipodi-0.dtd"
   xmlns:inkscape="http://www.inkscape.org/namespaces/inkscape"
   version="1.1"
   id="图层_1"
   width="13.91"
   height="15.822"
   viewBox="0 0 13.91 15.822"
   style="overflow:visible;enable-background:new 0 0 13.91 15.822;"
   xml:space="preserve"
   sodipodi:version="0.32"
   inkscape:version="0.44.1"
   sodipodi:docname="hangup.svg"
   sodipodi:docbase="/home/user"><metadata
   id="metadata12"><rdf:RDF><cc:Work
       rdf:about=""><dc:format>image/svg+xml</dc:format><dc:type
         rdf:resource="http://purl.org/dc/dcmitype/StillImage" /></cc:Work></rdf:RDF></metadata><defs
   id="defs10">
	
	
</defs><sodipodi:namedview
   inkscape:window-height="624"
   inkscape:window-width="928"
   inkscape:pageshadow="2"
   inkscape:pageopacity="0.0"
   guidetolerance="10.0"
   gridtolerance="10.0"
   objecttolerance="10.0"
   borderopacity="1.0"
   bordercolor="#666666"
   pagecolor="#ffffff"
   id="base"
   inkscape:zoom="21.435469"
   inkscape:cx="6.9549999"
   inkscape:cy="7.8915624"
   inkscape:window-x="664"
   inkscape:window-y="0"
   inkscape:current-layer="图层_1" />
<path
   id="path5"
   d="M 4.333,0.142 C 4.333,0.142 1.749,-0.191 0.50000006,2.142 C 0.50000006,2.142 -0.13799994,3.247 0.25000006,5.184 C 0.79200006,7.892 5.417,13.892 7.417,14.934 C 8.7289999,15.618 9.9829999,15.978 11.541,15.434 C 13.332,14.809 13.781,13.361 13.781,13.361 C 13.781,13.361 13.093,10.361 9.9169999,9.893 C 8.2809999,10.892 7.958,12.017 7.958,12.017 C 7.958,12.017 2.076,5.484 3.333,5.642 C 5.333,5.892 6.208,4.559 6.208,4.559 C 6.208,4.559 6.167,1.309 4.333,0.142 z "
   style="fill:#ce3815;stroke:black;stroke-width:0.25;fill-opacity:1" /><path
   id="path7"
   d="M 3.333,5.642 C 5.333,5.892 6.208,4.559 6.208,4.559 C 6.208,4.559 6.251,1.393 4.417,0.226 C 4.417,0.226 3.824,0.13 3.375,0.173 C 6.031,1.736 5.281,4.267 5.281,4.267 C 5.281,4.267 4.282,5.173 2.281,4.923 C 1.024,4.766 7.469,12.298 7.469,12.298 L 8.0939999,12.329 C 6.535,10.547 2.368,5.521 3.333,5.642 z M 9.8129999,10.048 C 12.438,11.517 12.626,12.194 12.626,12.986 C 12.626,13.778 12.375,14.685 10.584,15.31 C 9.9349999,15.538 9.1969999,15.438 8.6259999,15.392 C 9.5149999,15.672 10.604,15.968 11.626,15.518 C 12.668,15.059 13.946,13.765 13.782,13.361 C 12.313,9.735 9.8129999,10.048 9.8129999,10.048 z "
   style="opacity:0.61000001;fill:#90270e;fill-opacity:1" />
</svg>
