<?xml version="1.0" encoding="utf-8"?>
<!-- Generator: Adobe Illustrator 13.0.2, SVG Export Plug-In . SVG Version: 6.00 Build 14948)  -->
<!DOCTYPE svg PUBLIC "-//W3C//DTD SVG 1.1 Tiny//EN" "http://www.w3.org/Graphics/SVG/1.1/DTD/svg11-tiny.dtd">
<svg version="1.1" baseProfile="tiny" id="Layer_1" xmlns="http://www.w3.org/2000/svg" xmlns:xlink="http://www.w3.org/1999/xlink"
	 x="0px" y="0px" width="24px" height="22px" viewBox="-0.61 -0.03 24 22" xml:space="preserve">
<rect x="2.875" y="1.875" fill="#FFFFFF" width="17.125" height="17.625"/>
<path fill="#0F7D3F" d="M0,4.83v12.109c0,2.67,2.16,4.83,4.83,4.83h13.109c2.67,0,4.83-2.16,4.83-4.83V4.83
	c0-2.67-2.17-4.83-4.83-4.83H4.83C2.16,0,0,2.16,0,4.83z M7.94,2.58L7.94,2.58l5.93,0.01c1.34,0,2.42,1.08,2.42,2.42
	c0,1.34-1.08,2.42-2.42,2.42h-2.46l3.39,3.39l-0.03,0.03l4.201,4.19c0.949,0.95,0.949,2.479,0,3.42c-0.951,0.95-2.48,0.95-3.431,0
	l-0.74-0.739c-0.1-0.131-0.19-0.261-0.31-0.381l-6.56-6.56v2.57c0,1.33-1.08,2.42-2.42,2.42c-1.34,0-2.42-1.08-2.42-2.42V7.43l0,0
	v-2.6h0.03c0,0-0.08-2.24,2.16-2.24V2.58H7.94z"/>
</svg>
