<?xml version="1.0" encoding="iso-8859-1"?>
<!-- Generator: Adobe Illustrator 12.0.1, SVG Export Plug-In . SVG Version: 6.00 Build 51448)  -->
<!DOCTYPE svg PUBLIC "-//W3C//DTD SVG 1.1//EN" "http://www.w3.org/Graphics/SVG/1.1/DTD/svg11.dtd" [
	<!ENTITY ns_svg "http://www.w3.org/2000/svg">
	<!ENTITY ns_xlink "http://www.w3.org/1999/xlink">
]>
<svg  version="1.1" id="&#x56FE;&#x5C42;_1" xmlns="&ns_svg;" xmlns:xlink="&ns_xlink;" width="21.75" height="21.768"
	 viewBox="0 0 21.75 21.768" style="overflow:visible;enable-background:new 0 0 21.75 21.768;" xml:space="preserve">
<rect style="fill:none;" width="21.75" height="21.75"/>
<path style="fill:#FFFFFF;stroke:#8F8F8F;stroke-width:0.5;stroke-linejoin:round;" d="M14.857,6.527l-6.48-6.246l0.147,8.244
	L7.167,7.013L5.979,8.004l2.588,2.881V10.9v0.015l-2.588,2.88l1.187,0.992l1.358-1.514l-0.147,8.245l6.48-6.247l-4.12-4.371
	L14.857,6.527z M12.52,6.65l-2.266,2.406L10.17,4.385L12.52,6.65z M10.17,17.414l0.084-4.671l2.266,2.406L10.17,17.414z"/>
<g>
	<polygon style="fill:#D80B06;" points="19.762,20.184 15.849,16.273 19.762,12.36 18.467,11.063 14.553,14.976 10.639,11.063 
		9.343,12.36 13.257,16.273 9.343,20.184 10.639,21.481 14.553,17.569 18.467,21.481 	"/>
	<polygon style="opacity:0.46;fill:#FFFFFF;" points="18.725,11.292 18.467,11.063 14.553,14.976 10.639,11.063 10.438,11.277 
		14.552,15.347 	"/>
	<polygon style="opacity:0.46;fill:#FFFFFF;" points="10.422,21.268 10.643,21.518 14.553,17.569 18.467,21.481 18.623,21.327 
		14.522,17.183 	"/>
	<polygon style="opacity:0.46;fill:#FFFFFF;" points="19.577,20.342 19.728,20.19 15.849,16.273 19.762,12.36 19.548,12.188 
		15.551,16.345 	"/>
	<polygon style="opacity:0.46;fill:#FFFFFF;" points="9.556,12.174 9.343,12.36 13.257,16.273 9.343,20.184 9.541,20.373 
		13.597,16.244 	"/>
</g>
</svg>
