<?xml version="1.0" encoding="iso-8859-1"?>
<!-- Generator: Adobe Illustrator 12.0.1, SVG Export Plug-In . SVG Version: 6.00 Build 51448)  -->
<!DOCTYPE svg PUBLIC "-//W3C//DTD SVG 1.1//EN" "http://www.w3.org/Graphics/SVG/1.1/DTD/svg11.dtd" [
	<!ENTITY ns_svg "http://www.w3.org/2000/svg">
	<!ENTITY ns_xlink "http://www.w3.org/1999/xlink">
]>
<svg  version="1.1" id="&#x56FE;&#x5C42;_1" xmlns="&ns_svg;" xmlns:xlink="&ns_xlink;" width="21.688" height="21.736"
	 viewBox="0 0 21.688 21.736" style="overflow:visible;enable-background:new 0 0 21.688 21.736;" xml:space="preserve">
<rect y="0.01" style="fill:none;" width="21.688" height="21.688"/>
<g>
	<path style="fill:#FFFFFF;stroke:#8F8F8F;stroke-width:0.5;stroke-linejoin:round;" d="M14.857,6.496L8.377,0.25l0.147,8.244
		L7.167,6.98L5.979,7.973l2.588,2.881v0.015v0.015l-2.588,2.88l1.187,0.992l1.358-1.514l-0.147,8.245l6.48-6.247l-4.119-4.371
		L14.857,6.496z M12.52,6.618l-2.266,2.406L10.17,4.354L12.52,6.618z M10.17,17.382l0.084-4.671l2.266,2.406L10.17,17.382z"/>
	<g>
		<path style="fill:#FFFFFF;stroke:#696969;stroke-width:0.5;" d="M18.622,18.398h-2.581v-0.255c0-0.436,0.05-0.787,0.149-1.061
			c0.099-0.27,0.247-0.518,0.443-0.74c0.197-0.226,0.639-0.619,1.325-1.185c0.366-0.295,0.549-0.567,0.549-0.813
			s-0.073-0.438-0.22-0.575c-0.147-0.137-0.369-0.204-0.667-0.204c-0.319,0-0.584,0.104-0.795,0.315
			c-0.209,0.209-0.343,0.576-0.402,1.098l-2.637-0.321c0.091-0.956,0.443-1.729,1.056-2.311c0.614-0.584,1.554-0.876,2.822-0.876
			c0.986,0,1.784,0.203,2.39,0.61c0.824,0.552,1.236,1.287,1.236,2.204c0,0.382-0.107,0.749-0.32,1.103
			c-0.213,0.354-0.646,0.786-1.304,1.297c-0.456,0.359-0.746,0.646-0.866,0.863C18.682,17.766,18.622,18.05,18.622,18.398z
			 M15.953,19.079h2.764v2.407h-2.764V19.079z"/>
	</g>
</g>
</svg>
