<?xml version="1.0" encoding="iso-8859-1"?>
<!-- Generator: Adobe Illustrator 12.0.1, SVG Export Plug-In . SVG Version: 6.00 Build 51448)  -->
<!DOCTYPE svg PUBLIC "-//W3C//DTD SVG 1.1//EN" "http://www.w3.org/Graphics/SVG/1.1/DTD/svg11.dtd" [
	<!ENTITY ns_svg "http://www.w3.org/2000/svg">
	<!ENTITY ns_xlink "http://www.w3.org/1999/xlink">
]>
<svg  version="1.1" id="&#x56FE;&#x5C42;_1" xmlns="&ns_svg;" xmlns:xlink="&ns_xlink;" width="21.125" height="21.135"
	 viewBox="0 0 21.125 21.135" overflow="visible" enable-background="new 0 0 21.125 21.135" xml:space="preserve">
<g>
	<path fill="#FFFFFF" stroke="#C4C4C4" stroke-width="0.5" stroke-linejoin="round" d="M8.806,9.255l0.123,11.63l6.467-5.883
		L8.806,9.255z M10.333,12.859l2.488,2.17l-2.441,2.22L10.333,12.859z"/>
	<linearGradient id="XMLID_2_" gradientUnits="userSpaceOnUse" x1="10.3369" y1="3.6816" x2="10.7119" y2="12.8392">
		<stop  offset="0.0112" style="stop-color:#83BCD0"/>
		<stop  offset="0.2018" style="stop-color:#619EC3"/>
		<stop  offset="0.3948" style="stop-color:#4686B9"/>
		<stop  offset="0.5913" style="stop-color:#3275B2"/>
		<stop  offset="0.7913" style="stop-color:#276AAD"/>
		<stop  offset="1" style="stop-color:#2367AC"/>
	</linearGradient>
	<path fill="url(#XMLID_2_)" stroke="#000000" stroke-width="0.5" stroke-linejoin="round" d="M8.864,0.25L8.815,9.455L6.872,7.56
		L5.788,8.671l2.027,1.98l-2.041,1.956l1.031,1.219L15.362,6.1L8.864,0.25z M10.312,8.267l0.023-4.389l2.453,2.208L10.312,8.267z"/>
</g>
<rect x="9.96" y="-1.218" transform="matrix(0.6657 0.7462 -0.7462 0.6657 11.4237 -4.3661)" fill="#F7A510" width="1.25" height="23.571"/>
<rect y="0.002" opacity="0" fill="#FFFFFF" width="21.125" height="21.125"/>
</svg>
