<?xml version="1.0" encoding="iso-8859-1"?>
<!-- Generator: Adobe Illustrator 12.0.1, SVG Export Plug-In . SVG Version: 6.00 Build 51448)  -->
<!DOCTYPE svg PUBLIC "-//W3C//DTD SVG 1.1//EN" "http://www.w3.org/Graphics/SVG/1.1/DTD/svg11.dtd" [
	<!ENTITY ns_svg "http://www.w3.org/2000/svg">
	<!ENTITY ns_xlink "http://www.w3.org/1999/xlink">
]>
<svg  version="1.1" id="&#x56FE;&#x5C42;_1" xmlns="&ns_svg;" xmlns:xlink="&ns_xlink;" width="158.201" height="156.321"
	 viewBox="0 0 158.201 156.321" style="overflow:visible;enable-background:new 0 0 158.201 156.321;" xml:space="preserve">
<linearGradient id="XMLID_21_" gradientUnits="userSpaceOnUse" x1="-32.1016" y1="189.0732" x2="-187.1154" y2="247.6342" gradientTransform="matrix(1 0 0 1 201.5 -95.498)">
	<stop  offset="0" style="stop-color:#F8DE73"/>
	<stop  offset="0.1314" style="stop-color:#F8E07A"/>
	<stop  offset="0.3267" style="stop-color:#F9E48E"/>
	<stop  offset="0.5618" style="stop-color:#FBECAF"/>
	<stop  offset="0.8255" style="stop-color:#FDF7DD"/>
	<stop  offset="1" style="stop-color:#FFFFFF"/>
</linearGradient>
<polygon style="fill:url(#XMLID_21_);" points="104.38,140.934 48.064,116.618 104.452,96.361 158.201,116.938 "/>
<linearGradient id="XMLID_22_" gradientUnits="userSpaceOnUse" x1="105.167" y1="107.082" x2="101.5009" y2="62.9143">
	<stop  offset="0" style="stop-color:#73BD1E"/>
	<stop  offset="0.0723" style="stop-color:#69AF1C"/>
	<stop  offset="0.3402" style="stop-color:#498117"/>
	<stop  offset="0.5778" style="stop-color:#325F12"/>
	<stop  offset="0.774" style="stop-color:#234A10"/>
	<stop  offset="0.9045" style="stop-color:#1E430F"/>
</linearGradient>
<polygon style="fill:url(#XMLID_22_);stroke:#153612;stroke-width:0.5;" points="102.709,95.5 47.708,73.119 103.208,53.245 
	156.874,71.744 "/>
<linearGradient id="XMLID_23_" gradientUnits="userSpaceOnUse" x1="103.1348" y1="-543.6636" x2="170.1203" y2="-517.8843" gradientTransform="matrix(1 0 0 -1 0 -471.0117)">
	<stop  offset="0" style="stop-color:#73BD1E"/>
	<stop  offset="0.3427" style="stop-color:#9CD91E"/>
</linearGradient>
<polygon style="fill:url(#XMLID_23_);stroke:#155E38;stroke-width:0.5;" points="146.624,72.036 103.624,57.286 103.718,52.911 
	156.749,71.536 "/>
<linearGradient id="XMLID_24_" gradientUnits="userSpaceOnUse" x1="-107.6646" y1="-325.165" x2="-44.547" y2="-300.8744" gradientTransform="matrix(0.762 -0.6949 -0.7118 -0.7807 -85.1619 -240.5858)">
	<stop  offset="0" style="stop-color:#73BD1E"/>
	<stop  offset="0.3427" style="stop-color:#9CD91E"/>
</linearGradient>
<polygon style="fill:url(#XMLID_24_);stroke:#155E38;stroke-width:0.5;" points="103.624,57.286 57.041,73.536 47.405,72.942 
	103.447,52.9 "/>
<linearGradient id="XMLID_25_" gradientUnits="userSpaceOnUse" x1="50.9404" y1="108.0508" x2="45.8104" y2="-43.0506" gradientTransform="matrix(0.9862 -0.1653 0.1653 0.9862 51.5695 41.5899)">
	<stop  offset="0" style="stop-color:#ABCCFF"/>
	<stop  offset="0.2445" style="stop-color:#8ACAFC"/>
	<stop  offset="0.78" style="stop-color:#37C6F5"/>
	<stop  offset="0.9944" style="stop-color:#14C4F2"/>
</linearGradient>
<polygon style="fill:url(#XMLID_25_);stroke:#000000;stroke-linejoin:round;" points="142.195,96.863 141.938,99.157 
	85.579,127.248 82.867,126.416 66.67,27.885 68.805,25.278 108.559,8.302 129.342,19.228 "/>
<linearGradient id="XMLID_26_" gradientUnits="userSpaceOnUse" x1="49.5342" y1="87.5244" x2="46.2985" y2="-7.7802" gradientTransform="matrix(0.9876 -0.1574 0.1574 0.9876 53.2018 41.4733)">
	<stop  offset="0" style="stop-color:#FFD90F"/>
	<stop  offset="0.3704" style="stop-color:#FFDE0F"/>
	<stop  offset="0.7995" style="stop-color:#FFEC0E"/>
	<stop  offset="1" style="stop-color:#FFF50D"/>
</linearGradient>
<path style="fill:url(#XMLID_26_);stroke:#000000;stroke-linejoin:round;" d="M130.754,86.822
	c0.808,5.237-3.119,11.597-8.818,14.232l-19.634,9.082c-5.953,2.755-11.525,0.627-12.387-4.784l-7.33-46
	c-0.874-5.476,3.367-11.918,9.422-14.363l19.952-8.057c5.792-2.34,11.108,0.08,11.926,5.377L130.754,86.822z"/>
<polygon style="opacity:0.75;fill:#630000;" points="115.482,35.88 120.508,65.665 108.018,71.725 102.377,40.525 100.622,41.562 
	106.356,72.53 93.32,78.854 88.069,47.922 86.486,49.083 97.157,111.485 99.034,111.171 93.672,80.955 106.707,74.604 
	111.88,105.375 113.534,104.518 108.365,73.798 120.853,67.713 125.976,98.074 127.586,97.242 117.295,36.044 "/>
<polygon style="fill:#FFFFFF;" points="93.755,78.596 93.321,78.879 88.073,47.939 88.557,47.586 "/>
<polygon style="fill:#FFFFFF;" points="108.209,71.713 107.776,71.996 102.527,41.057 103.011,40.704 "/>
<polygon style="fill:#FFFFFF;" points="122.99,67.486 122.555,67.771 117.313,36.499 117.792,36.479 "/>
<linearGradient id="XMLID_27_" gradientUnits="userSpaceOnUse" x1="103.6475" y1="72.2734" x2="169.4766" y2="97.6076">
	<stop  offset="0" style="stop-color:#73BD1E"/>
	<stop  offset="0.3427" style="stop-color:#9CD91E"/>
</linearGradient>
<polygon style="fill:url(#XMLID_27_);stroke:#155E38;stroke-width:0.5;" points="147.292,71.953 103.248,89.661 103.916,93.661 
	157.041,71.536 "/>
<linearGradient id="XMLID_28_" gradientUnits="userSpaceOnUse" x1="295.6816" y1="106.6895" x2="358.8742" y2="131.009" gradientTransform="matrix(0.762 0.6949 -0.7118 0.7807 -85.1619 -230.425)">
	<stop  offset="0" style="stop-color:#73BD1E"/>
	<stop  offset="0.3427" style="stop-color:#9CD91E"/>
</linearGradient>
<polygon style="fill:url(#XMLID_28_);stroke:#155E38;stroke-width:0.5;" points="103.125,89.828 56.458,73.619 47.999,73.161 
	103.666,93.453 "/>
<linearGradient id="XMLID_29_" gradientUnits="userSpaceOnUse" x1="94.416" y1="95.6289" x2="185.9541" y2="130.8571">
	<stop  offset="0" style="stop-color:#73BD1E"/>
	<stop  offset="0.5674" style="stop-color:#306C18"/>
	<stop  offset="0.9045" style="stop-color:#1E430F"/>
</linearGradient>
<polygon style="fill:url(#XMLID_29_);stroke:#153612;" points="157.624,123.286 103.875,147.342 103.875,93.785 157.374,71.786 "/>
<linearGradient id="XMLID_30_" gradientUnits="userSpaceOnUse" x1="137.3262" y1="112.2939" x2="105.5313" y2="98.6039">
	<stop  offset="0" style="stop-color:#7C8B8F"/>
	<stop  offset="1" style="stop-color:#EBEBEB"/>
</linearGradient>
<polygon style="fill:url(#XMLID_30_);" points="151.992,120.164 109.505,139.756 109.505,96.91 152.307,79.303 "/>
<linearGradient id="XMLID_31_" gradientUnits="userSpaceOnUse" x1="100.7607" y1="129.9346" x2="164.5078" y2="91.833">
	<stop  offset="0" style="stop-color:#88B613"/>
	<stop  offset="0.2907" style="stop-color:#81B616"/>
	<stop  offset="0.7212" style="stop-color:#6DB41D"/>
	<stop  offset="1" style="stop-color:#5CB323"/>
</linearGradient>
<polygon style="fill:url(#XMLID_31_);" points="147.201,81.326 146.887,117.328 109.505,133.647 109.505,139.756 151.992,120.164 
	152.307,79.303 "/>
<linearGradient id="XMLID_32_" gradientUnits="userSpaceOnUse" x1="100.0947" y1="113.8828" x2="47.5653" y2="105.9539">
	<stop  offset="0" style="stop-color:#70BC1F"/>
	<stop  offset="0.3051" style="stop-color:#77BF1D"/>
	<stop  offset="0.757" style="stop-color:#8BC919"/>
	<stop  offset="1" style="stop-color:#99CF16"/>
</linearGradient>
<polygon style="fill:url(#XMLID_32_);stroke:#213D11;" points="103.875,147.342 47.558,123.023 47.374,73.036 103.875,93.785 "/>
<linearGradient id="XMLID_33_" gradientUnits="userSpaceOnUse" x1="48.5781" y1="101.6182" x2="101.9247" y2="118.5232">
	<stop  offset="0.0112" style="stop-color:#9AA6A8"/>
	<stop  offset="0.1775" style="stop-color:#A3AEB0"/>
	<stop  offset="0.4498" style="stop-color:#BCC4C5"/>
	<stop  offset="0.7925" style="stop-color:#E3E7E7"/>
	<stop  offset="1" style="stop-color:#FFFFFF"/>
</linearGradient>
<polygon style="fill:url(#XMLID_33_);" points="98.241,139.756 53.188,119.902 53.005,80.621 98.241,96.91 "/>
<linearGradient id="XMLID_34_" gradientUnits="userSpaceOnUse" x1="101.1631" y1="103.21" x2="37.0877" y2="120.7188">
	<stop  offset="0" style="stop-color:#73BD1E"/>
	<stop  offset="0.5225" style="stop-color:#306C18"/>
	<stop  offset="0.7921" style="stop-color:#195318"/>
</linearGradient>
<polygon style="fill:url(#XMLID_34_);" points="56.969,116.121 56.785,82.119 53.005,80.621 53.188,119.902 98.241,139.756 
	98.241,134.482 "/>
<linearGradient id="XMLID_35_" gradientUnits="userSpaceOnUse" x1="-99.1021" y1="-86.4194" x2="-121.76" y2="-153.6131" gradientTransform="matrix(0.6247 -0.7809 0.7809 0.6246 243.4349 114.7001)">
	<stop  offset="0" style="stop-color:#70BC1F"/>
	<stop  offset="1" style="stop-color:#081204"/>
</linearGradient>
<polygon style="opacity:0.43;fill:url(#XMLID_35_);" points="0.886,139.821 23.106,149.621 66.207,131.369 77.738,83.514 
	70.228,77.506 "/>
<g>
	
		<linearGradient id="XMLID_36_" gradientUnits="userSpaceOnUse" x1="-213.8213" y1="-99.5518" x2="-75.5234" y2="-118.1855" gradientTransform="matrix(0.4035 -0.915 0.915 0.4035 219.2463 -28.0267)">
		<stop  offset="0.236" style="stop-color:#488217"/>
		<stop  offset="1" style="stop-color:#99CF16"/>
	</linearGradient>
	<polygon style="fill:url(#XMLID_36_);stroke:#1E3910;" points="71.761,39.299 69.295,104.1 47.063,94.296 49.529,29.495 	"/>
	
		<linearGradient id="XMLID_37_" gradientUnits="userSpaceOnUse" x1="-159.1724" y1="-108.978" x2="-237.6476" y2="-107.4886" gradientTransform="matrix(0.4035 -0.915 0.915 0.4035 219.2463 -28.0267)">
		<stop  offset="0" style="stop-color:#99CF16"/>
		<stop  offset="1" style="stop-color:#99CF16"/>
	</linearGradient>
	<polygon style="fill:url(#XMLID_37_);stroke:#173411;" points="69.295,104.1 23.106,149.621 0.875,139.816 47.063,94.296 	"/>
	
		<linearGradient id="XMLID_38_" gradientUnits="userSpaceOnUse" x1="-109.3677" y1="-159.2319" x2="-279.3244" y2="-95.0258" gradientTransform="matrix(0.4035 -0.915 0.915 0.4035 219.2463 -28.0267)">
		<stop  offset="0" style="stop-color:#E0F007"/>
		<stop  offset="1" style="stop-color:#90CB18"/>
	</linearGradient>
	<polygon style="fill:url(#XMLID_38_);stroke:#20390F;" points="47.07,94.299 0.886,139.821 3.443,74.975 49.626,29.456 	"/>
	
		<linearGradient id="XMLID_39_" gradientUnits="userSpaceOnUse" x1="-190.9067" y1="-149.3843" x2="-162.373" y2="-97.5587" gradientTransform="matrix(0.4035 -0.915 0.915 0.4035 219.2463 -28.0267)">
		<stop  offset="0" style="stop-color:#EDEDED"/>
		<stop  offset="0.1811" style="stop-color:#E6E9EA"/>
		<stop  offset="0.4501" style="stop-color:#D2DFE3"/>
		<stop  offset="0.7723" style="stop-color:#B1CFD6"/>
		<stop  offset="0.8483" style="stop-color:#A8CBD3"/>
	</linearGradient>
	<polygon style="fill:url(#XMLID_39_);" points="42.707,92.369 5.761,128.782 7.807,76.906 44.752,40.491 	"/>
	
		<linearGradient id="XMLID_40_" gradientUnits="userSpaceOnUse" x1="-207.2271" y1="-160.0503" x2="-172.0829" y2="-121.9963" gradientTransform="matrix(0.4035 -0.915 0.915 0.4035 219.2463 -28.0267)">
		<stop  offset="0" style="stop-color:#478419"/>
		<stop  offset="1" style="stop-color:#A6D513"/>
	</linearGradient>
	<polygon style="fill:url(#XMLID_40_);" points="13.411,79.379 44.424,48.812 44.752,40.491 7.807,76.906 5.761,128.782 
		11.694,122.934 	"/>
</g>
<rect x="0.886" style="fill:none;" width="156.321" height="156.321"/>
</svg>
