<?xml version="1.0" encoding="iso-8859-1"?>
<!-- Generator: Adobe Illustrator 12.0.0, SVG Export Plug-In . SVG Version: 6.00 Build 51448)  -->
<!DOCTYPE svg PUBLIC "-//W3C//DTD SVG 1.1//EN" "http://www.w3.org/Graphics/SVG/1.1/DTD/svg11.dtd" [
	<!ENTITY ns_svg "http://www.w3.org/2000/svg">
	<!ENTITY ns_xlink "http://www.w3.org/1999/xlink">
]>
<svg  version="1.1" id="&#xCD;_xBC__xB2_&#xE3;_x5F_1" xmlns="&ns_svg;" xmlns:xlink="&ns_xlink;" width="20.085" height="19.383"
	 viewBox="0 0 20.085 19.383" style="overflow:visible;enable-background:new 0 0 20.085 19.383;" xml:space="preserve">
<g>
	<linearGradient id="XMLID_2_" gradientUnits="userSpaceOnUse" x1="9.6289" y1="5.2056" x2="10.6586" y2="16.3819">
		<stop  offset="0.0056" style="stop-color:#56A23C"/>
		<stop  offset="0.193" style="stop-color:#6FAB3E"/>
		<stop  offset="0.5833" style="stop-color:#A8C248"/>
		<stop  offset="1" style="stop-color:#F2E85C"/>
	</linearGradient>
	<rect x="0.5" y="0.5" style="fill:url(#XMLID_2_);stroke:#000000;" width="19.085" height="18.383"/>
	<rect x="0.5" y="13.777" style="fill:#FFFFFF;stroke:#000000;" width="19.085" height="5.105"/>
	<rect x="1.062" y="0.792" style="fill:#E4E8CD;" width="18.04" height="0.948"/>
	
		<rect x="10.235" y="9.646" transform="matrix(-0.0014 1 -1 -0.0014 28.8532 -8.4784)" style="fill:#80983C;" width="16.849" height="1.041"/>
	<polygon style="fill:#DDE7CD;" points="1.023,14.32 0.951,0.75 1.992,0.763 1.806,14.328 	"/>
	<polygon style="fill:#B3B136;" points="4.114,18.531 4.025,14.229 10.119,14.129 10.205,18.432 	"/>
	<rect x="2.266" y="13.193" style="fill:#7F8912;" width="4.409" height="4.484"/>
	<rect x="8.038" y="13.193" style="fill:#7F8912;" width="4.409" height="4.484"/>
	<rect x="13.65" y="13.193" style="fill:#7F8912;" width="4.41" height="4.484"/>
	<polygon style="fill:#B3B136;" points="10.771,18.531 10.681,14.154 16.773,14.055 16.862,18.432 	"/>
	<rect x="2.266" y="13.961" style="fill:#FDFEFC;" width="4.409" height="4.484"/>
	<rect x="8.039" y="14.02" style="fill:#FDFEFC;" width="4.41" height="4.365"/>
	<rect x="13.731" y="14.02" style="fill:#FDFEFC;" width="4.41" height="4.365"/>
	<polygon style="opacity:0.82;fill:#8A9298;" points="19.102,18.664 1.061,18.664 1.141,17.496 19.183,17.496 	"/>
	<path style="fill:none;stroke:#B2BF7A;" d="M18.101,0.847c0,3.545-4.753,6.217-8.538,6.217"/>
	<path style="fill:none;stroke:#F1F0BB;" d="M16.176,0.847c0,2.985-4.993,5.051-8.297,5.051"/>
	<path style="fill:none;stroke:#EAEAEA;" d="M14.071,0.847c0,3.397-5.284,3.811-7.958,3.811"/>
</g>
</svg>
