<?xml version="1.0" encoding="iso-8859-1"?>
<!-- Generator: Adobe Illustrator 12.0.0, SVG Export Plug-In . SVG Version: 6.00 Build 51448)  -->
<!DOCTYPE svg PUBLIC "-//W3C//DTD SVG 1.1//EN" "http://www.w3.org/Graphics/SVG/1.1/DTD/svg11.dtd" [
	<!ENTITY ns_svg "http://www.w3.org/2000/svg">
	<!ENTITY ns_xlink "http://www.w3.org/1999/xlink">
]>
<svg  version="1.1" id="&#xCD;_xBC__xB2_&#xE3;_x5F_1" xmlns="&ns_svg;" xmlns:xlink="&ns_xlink;" width="21.981" height="22.59"
	 viewBox="0 0 21.981 22.59" style="overflow:visible;enable-background:new 0 0 21.981 22.59;" xml:space="preserve">
<g>
	<rect x="0.5" y="0.5" style="fill:#F3D7C4;stroke:#363639;" width="20.981" height="21.59"/>
	<linearGradient id="XMLID_7_" gradientUnits="userSpaceOnUse" x1="1.5371" y1="13.9741" x2="20.5273" y2="13.9741">
		<stop  offset="0.0056" style="stop-color:#9DA1A7"/>
		<stop  offset="0.0423" style="stop-color:#ABAFB4"/>
		<stop  offset="0.1492" style="stop-color:#D3D4D7"/>
		<stop  offset="0.2435" style="stop-color:#EFEFF0"/>
		<stop  offset="0.3146" style="stop-color:#FFFFFF"/>
		<stop  offset="0.5083" style="stop-color:#F4F4F5"/>
		<stop  offset="0.7026" style="stop-color:#DEDFE1"/>
		<stop  offset="0.8967" style="stop-color:#C0C3C8"/>
		<stop  offset="1" style="stop-color:#AEB1B7"/>
	</linearGradient>
	<path style="fill:url(#XMLID_7_);" d="M20.527,13.79c-1.868,2.02-7.95,4.117-9.291,4.455s-9.699-1.92-9.699-4.287
		S5.88,9.67,11.236,9.67S20.527,11.422,20.527,13.79z"/>
	<linearGradient id="XMLID_8_" gradientUnits="userSpaceOnUse" x1="11.3716" y1="16.8149" x2="11.5401" y2="10.9302">
		<stop  offset="0.0056" style="stop-color:#2A83C5"/>
		<stop  offset="0.0564" style="stop-color:#2A7DC1"/>
		<stop  offset="0.2669" style="stop-color:#2C67B1"/>
		<stop  offset="0.4716" style="stop-color:#2E56A6"/>
		<stop  offset="0.6664" style="stop-color:#2F499E"/>
		<stop  offset="0.8471" style="stop-color:#30419A"/>
		<stop  offset="1" style="stop-color:#303E98"/>
	</linearGradient>
	<ellipse style="fill:url(#XMLID_8_);" cx="11.479" cy="13.073" rx="4.098" ry="4.246"/>
	<ellipse style="fill:#1E1E1F;" cx="11.113" cy="12.36" rx="2.759" ry="3.109"/>
	<path style="fill:#373A05;" d="M0.44,14.924c0,0-0.542-3.209,5.459-5.444c4.543-1.85,11.796-0.355,13.033,0.879
		c1.236,1.237,1.941,3.094,1.941,3.094l-1.156-0.127c0,0-0.244-1.471-1.992-2.489c-1.521-0.883-6.885-1.105-10.344-0.412
		c-2.517,0.506-4.465,4.374-4.465,4.374L0.44,14.924z"/>
	<linearGradient id="XMLID_9_" gradientUnits="userSpaceOnUse" x1="10.7993" y1="17.4048" x2="10.7993" y2="18.6656">
		<stop  offset="0.0056" style="stop-color:#9DA1A7"/>
		<stop  offset="0.2761" style="stop-color:#ADB0B5"/>
		<stop  offset="0.7625" style="stop-color:#DADBDD"/>
		<stop  offset="1" style="stop-color:#FFFFFF"/>
	</linearGradient>
	<path style="fill:url(#XMLID_9_);" d="M0.726,14.881c0,0,1.784,1.852,5.843,3.363c3.947,1.473,8.927-0.25,11.281-1.764
		c2.007-1.289,3.023-3.027,3.023-3.027l-1.156-0.127c0,0-0.505,1.006-2.679,2.48c-1.508,1.023-6.411,2.691-9.821,1.346
		c-1.938-0.764-4.301-2.354-4.301-2.354L0.726,14.881z"/>
	<path style="fill:#F6F1EB;" d="M0.968,16.858c0,0,0.837,1.268,5.172,2.803c4.215,1.492,9.284-0.369,11.758-2.027
		c2.613-1.754,2.975-3.549,2.975-3.549v-0.631c0,0-1.478,1.432-3.725,3.096c-1.557,1.154-6.659,2.496-10.335,1.613
		c-2.281-0.551-3.521-1.602-6.087-3.281L0.968,16.858z"/>
	<ellipse style="fill:#F6F6F7;" cx="12.98" cy="11.225" rx="1.218" ry="0.799"/>
	<linearGradient id="XMLID_10_" gradientUnits="userSpaceOnUse" x1="3.7617" y1="7.8931" x2="18.1142" y2="7.7144">
		<stop  offset="0.0056" style="stop-color:#F1E3D6"/>
		<stop  offset="0.2832" style="stop-color:#F2E4D8"/>
		<stop  offset="0.3831" style="stop-color:#F3E8DF"/>
		<stop  offset="0.4542" style="stop-color:#FAF3EC"/>
		<stop  offset="0.5" style="stop-color:#FFFFFF"/>
		<stop  offset="0.5917" style="stop-color:#F8EDE4"/>
		<stop  offset="0.7037" style="stop-color:#F3E0D2"/>
		<stop  offset="0.83" style="stop-color:#F2D9C9"/>
		<stop  offset="1" style="stop-color:#F1D7C6"/>
	</linearGradient>
	<path style="fill:url(#XMLID_10_);" d="M20.813,13.012c-1.705-4.477-5.823-5.163-9.679-4.792C7.619,8.559,3.667,9.482,0.582,13.35
		c0,0,4.708-9.584,7.69-10.678c1.723-0.631,5.783,0,5.783,0S20.568,8.555,20.813,13.012z"/>
	<linearGradient id="XMLID_11_" gradientUnits="userSpaceOnUse" x1="17.4829" y1="7.6655" x2="24.1996" y2="4.3072">
		<stop  offset="0.0056" style="stop-color:#F1D7C6"/>
		<stop  offset="0.3355" style="stop-color:#E9C0B8"/>
		<stop  offset="0.7551" style="stop-color:#E3A8AB"/>
		<stop  offset="1" style="stop-color:#E1A0A6"/>
	</linearGradient>
	<path style="fill:url(#XMLID_11_);" d="M12.655,2.945c3.814-0.252,8.368,1.354,8.368,1.354l-0.009,8.735
		C20.649,10.258,12.655,2.945,12.655,2.945z"/>
	<linearGradient id="XMLID_12_" gradientUnits="userSpaceOnUse" x1="3.7505" y1="7.8164" x2="-1.5553" y2="4.5606">
		<stop  offset="0.0056" style="stop-color:#F1D7C6"/>
		<stop  offset="0.3355" style="stop-color:#E9C0B8"/>
		<stop  offset="0.7551" style="stop-color:#E3A8AB"/>
		<stop  offset="1" style="stop-color:#E1A0A6"/>
	</linearGradient>
	<path style="fill:url(#XMLID_12_);" d="M8.272,3.113C2.368,4.375,0.907,5.719,0.907,5.719L0.582,13.35
		C2.023,10.465,8.272,3.113,8.272,3.113z"/>
	<path style="fill:#6C5825;" d="M21.981,5.98c-6.928-3.012-6.738-3.188-7.926-3.309C9.833,2.246,4.084,2.104,2.324,3.996
		C0.965,5.451,1.341,5.701,1.341,5.98c0.807-1.318,9.622-2.361,12.547-2.117C14.792,3.939,21.981,5.98,21.981,5.98z"/>
</g>
</svg>
