<?xml version="1.0" encoding="iso-8859-1"?>
<!-- Generator: Adobe Illustrator 12.0.1, SVG Export Plug-In . SVG Version: 6.00 Build 51448)  -->
<!DOCTYPE svg PUBLIC "-//W3C//DTD SVG 1.1//EN" "http://www.w3.org/Graphics/SVG/1.1/DTD/svg11.dtd" [
	<!ENTITY ns_svg "http://www.w3.org/2000/svg">
	<!ENTITY ns_xlink "http://www.w3.org/1999/xlink">
]>
<svg  version="1.1" id="&#x56FE;&#x5C42;_1" xmlns="&ns_svg;" xmlns:xlink="&ns_xlink;" width="50.038" height="45.776"
	 viewBox="0 0 50.038 45.776" style="overflow:visible;enable-background:new 0 0 50.038 45.776;" xml:space="preserve">
<g>
	<path style="fill:#8F4E46;" d="M35.835,34.494c0,0,0.005,0,0.008-0.001c1.222-0.8,0.325-5.015-2.776-9.234
		c-0.342-0.465-0.658-0.858-1.006-1.287c0.232-0.211,0.583-0.504,0.787-0.692c-2.943-3.647-6.881-5.593-8.435-4.468
		c-0.323,0.228-0.434,0.7-0.384,1.326c-0.034,1.729,1.289,5.145,3.823,8.483c2.924,3.856,6.284,6.268,7.687,5.95
		c0.11-0.013,0.238-0.01,0.331-0.057C35.859,34.508,35.845,34.5,35.835,34.494z"/>
	<path style="fill:#8F4E46;" d="M0.583,34.59c-0.001-0.001-0.006-0.001-0.008-0.003c-1.223-0.798-0.549-5.014,2.553-9.234
		c0.342-0.465,0.784-0.89,1.132-1.318c-0.233-0.211-0.646-0.755-0.85-0.943c3.522-4.365,6.633-5.605,8.593-4.186
		c0.324,0.228,0.434,0.7,0.386,1.327c0.032,1.728-1.291,5.144-3.825,8.482c-2.922,3.856-6.284,6.267-7.688,5.951
		c-0.111-0.013-0.236-0.009-0.33-0.057C0.559,34.602,0.573,34.594,0.583,34.59z"/>
	<path style="fill:#8F4E46;" d="M26.643,20.099c-0.011-0.014-0.801-0.966-0.941-1.155c-0.01,0.011-1.902-1.711-1.933-1.728
		c2.638-2.066,3.9-4.222,3.958-7.696C27.814,4.218,23.594,0,18.161,0c-5.436,0-9.696,4.266-9.613,9.566
		c0.051,3.347,1.223,4.596,3.534,7.523c-0.882,0.49-2.588,2.31-2.597,2.296c-2.117,2.605-3.432,6.585-3.34,11.118
		c0.151,7.596,5.297,10.904,11.584,10.904c0.03,0,0.055-0.002,0.082-0.002c0.029,0,0.053,0.002,0.08,0.002c0.01,0,0.017,0,0.022,0
		c0.007,0,0.013,0,0.017,0c6.287,0,11.471-3.309,11.621-10.904C29.629,26.625,28.739,22.693,26.643,20.099z"/>
	
		<radialGradient id="XMLID_10_" cx="22.127" cy="27.4131" r="11.3871" gradientTransform="matrix(1.5217 0 0 1.9274 -19.3813 -31.2516)" gradientUnits="userSpaceOnUse">
		<stop  offset="0.1629" style="stop-color:#F8E6D3"/>
		<stop  offset="1" style="stop-color:#FBDEBC"/>
	</radialGradient>
	<path style="fill:url(#XMLID_10_);" d="M28.669,29.471c0,7.526-4.835,10.868-10.78,10.868S7.145,36.997,7.145,29.471
		c0-7.529,4.818-13.632,10.763-13.632S28.669,21.941,28.669,29.471z"/>
	
		<radialGradient id="XMLID_11_" cx="11.7856" cy="33.251" r="16.8119" gradientTransform="matrix(2.1758 0.4598 -0.1608 2.0266 -23.0779 -37.4688)" gradientUnits="userSpaceOnUse">
		<stop  offset="0.1629" style="stop-color:#F8E6D3"/>
		<stop  offset="1" style="stop-color:#F6CC99"/>
	</radialGradient>
	<path style="fill:url(#XMLID_11_);" d="M4.317,24.886c-2.897,3.983-4.367,7.853-3.285,8.641c1.078,0.785,4.307-1.813,7.201-5.796
		c2.896-3.989,4.369-7.857,3.288-8.643C10.44,18.305,7.219,20.898,4.317,24.886z"/>
	<path style="fill:#5BC1D1;" d="M8.409,26.985c2.607-3.766,4.074-7.359,3.045-8.104c-0.969-0.701-4.375,1.026-7.012,4.323
		C5.512,24.272,7.24,25.813,8.409,26.985z"/>
	<g>
		<path style="fill:#F6D8B0;" d="M8.554,26.872c-0.171-0.17-0.368-0.359-0.559-0.544c-0.308,0.479-0.632,0.963-0.985,1.448
			c-2.158,2.974-4.504,5.171-6.006,5.769c1.134,0.658,4.291-1.899,7.135-5.814c2.274-3.13,3.647-6.166,3.62-7.716
			C11.647,21.521,10.457,24.128,8.554,26.872z"/>
	</g>
	
		<radialGradient id="XMLID_12_" cx="37.1411" cy="27.6836" r="16.8126" gradientTransform="matrix(-2.1758 0.4598 0.1608 2.0266 115.6345 -37.4688)" gradientUnits="userSpaceOnUse">
		<stop  offset="0.1629" style="stop-color:#F8E6D3"/>
		<stop  offset="1" style="stop-color:#F6CC99"/>
	</radialGradient>
	<path style="fill:url(#XMLID_12_);" d="M32.174,25.265c2.898,3.982,4.37,7.848,3.287,8.638c-1.078,0.788-4.309-1.81-7.205-5.796
		c-2.893-3.987-4.366-7.856-3.284-8.642C26.053,18.682,29.273,21.277,32.174,25.265z"/>
	<g>
		<path style="fill:#F6D8B0;" d="M27.938,27.25c0.172-0.174,0.367-0.36,0.559-0.545c0.309,0.479,0.632,0.961,0.985,1.448
			c2.159,2.972,4.503,5.17,6.003,5.771c-1.131,0.656-4.288-1.901-7.133-5.817c-2.273-3.132-3.647-6.165-3.618-7.714
			C24.846,21.897,26.036,24.506,27.938,27.25z"/>
	</g>
	<path style="fill:#F9CFA0;" d="M31.117,23.719c-1.051,1.051-2.729,2.552-3.897,3.717c0.126,0.19,0.24,0.377,0.373,0.567
		c1.168-1.169,3.024-2.381,4.094-3.45C31.354,24.138,30.93,23.483,31.117,23.719z"/>
	<path style="fill:#FFFEEE;" d="M27.844,27.25c-2.609-3.766-3.902-7.294-2.873-8.038c0.969-0.702,4.202,0.961,6.838,4.256
		C30.741,24.538,29.013,26.079,27.844,27.25z"/>
	<path style="fill:#F9CFA0;" d="M11.589,19.316c1.78,2.094,3.857,3.959,6.731,3.959c2.639,0,5.045-1.409,6.463-3.481
		c2.063,2.386,3.309,5.88,3.407,9.74c0.004-0.157,0.02-0.308,0.02-0.469c0-4.05-1.284-7.727-3.427-10.209
		c-1.418,2.071-3.824,3.482-6.463,3.482c-2.874,0-4.951-1.865-6.731-3.959c-2.448,2.479-4.041,6.312-4.041,10.686
		c0,0.174,0.016,0.335,0.021,0.502C7.671,25.377,9.223,21.713,11.589,19.316z"/>
	<path style="fill:#5BC1D1;" d="M24.948,19.203c-1.477,2.085-3.984,3.501-6.732,3.501c-2.994,0-5.161-1.876-7.014-3.981
		c-2.552,2.492-4.209,6.349-4.209,10.748c0,7.526,4.799,10.868,10.744,10.868c5.943,0,10.779-3.342,10.779-10.868
		C28.516,25.399,27.181,21.701,24.948,19.203z"/>
	<path style="fill:#00AAD7;" d="M18.348,23.655c2.914-0.009,5.561-1.317,7.299-3.285c-0.184-0.236-0.363-0.478-0.559-0.694
		c-1.477,2.082-3.984,3.5-6.731,3.5c-2.995,0-5.161-1.874-7.013-3.981c-0.217,0.21-0.191,0.367-0.393,0.597
		C12.961,21.842,15.13,23.67,18.348,23.655z"/>
	<path style="fill:#00AAD7;" d="M25.053,19.256c-0.035,0.051-0.08,0.096-0.117,0.147c0.832,1.928,1.318,4.132,1.318,6.486
		c0,7.526-4.836,10.868-10.779,10.868c-2.916,0-5.552-0.811-7.486-2.518c1.605,4.184,5.441,6.099,9.938,6.099
		c5.943,0,10.779-3.342,10.779-10.868C28.706,25.399,27.287,21.753,25.053,19.256z"/>
	<path style="fill:#007C95;" d="M24.991,19.319c-0.018,0.025-0.039,0.05-0.061,0.075c1.898,2.456,3.084,5.801,3.084,9.51
		c0,7.527-4.836,10.869-10.779,10.869c-3.051,0-5.78-0.907-7.73-2.783c1.966,2.324,4.974,3.411,8.357,3.411
		c5.945,0,10.781-3.342,10.781-10.868C28.643,25.462,27.224,21.815,24.991,19.319z"/>
	<radialGradient id="XMLID_13_" cx="15.1978" cy="5.0718" r="14.7931" gradientUnits="userSpaceOnUse">
		<stop  offset="0.1629" style="stop-color:#F8E6D3"/>
		<stop  offset="1" style="stop-color:#FBDEBC"/>
	</radialGradient>
	<circle style="fill:url(#XMLID_13_);" cx="18.114" cy="9.677" r="8.672"/>
	
		<radialGradient id="XMLID_14_" cx="16.0679" cy="5.6938" r="13.5006" gradientTransform="matrix(1 0 0 0.9762 0 0.5845)" gradientUnits="userSpaceOnUse">
		<stop  offset="0.1629" style="stop-color:#F8E6D3"/>
		<stop  offset="1" style="stop-color:#F6CC99"/>
	</radialGradient>
	<path style="fill:url(#XMLID_14_);" d="M22.866,2.52c0.955,1.362,1.515,3.006,1.515,4.778c0,4.676-3.882,8.465-8.671,8.465
		c-1.817,0-3.5-0.547-4.895-1.479c1.564,2.224,4.184,3.687,7.157,3.687c4.789,0,8.671-3.789,8.671-8.466
		C26.643,6.605,25.145,4.045,22.866,2.52z"/>
</g>
<polygon style="fill:#8F4E46;" points="17.26,10.16 17.26,17.571 19.447,17.571 19.575,45.776 47.575,45.776 47.575,17.571 
	50.038,17.571 50.038,10.16 "/>
<linearGradient id="XMLID_15_" gradientUnits="userSpaceOnUse" x1="46.3706" y1="43.1455" x2="11.0745" y2="7.2422">
	<stop  offset="0" style="stop-color:#E4E4E4"/>
	<stop  offset="0.2483" style="stop-color:#F1F1F1"/>
	<stop  offset="0.6036" style="stop-color:#FBFBFB"/>
	<stop  offset="1" style="stop-color:#FFFFFF"/>
</linearGradient>
<rect x="20.084" y="15.239" style="fill:url(#XMLID_15_);" width="27.009" height="29.81"/>
<linearGradient id="XMLID_16_" gradientUnits="userSpaceOnUse" x1="19.2603" y1="16.3843" x2="44.7499" y2="17.3774">
	<stop  offset="0" style="stop-color:#D7D7D7"/>
	<stop  offset="0.2046" style="stop-color:#C2C2C2"/>
	<stop  offset="0.4517" style="stop-color:#AFAFB1"/>
	<stop  offset="0.7111" style="stop-color:#A5A5A6"/>
	<stop  offset="1" style="stop-color:#A1A1A3"/>
</linearGradient>
<rect x="20.073" y="15.558" style="opacity:0.51;fill:url(#XMLID_16_);" width="27.008" height="2.769"/>
<linearGradient id="XMLID_17_" gradientUnits="userSpaceOnUse" x1="43.6108" y1="14.0376" x2="11.7903" y2="12.8624">
	<stop  offset="0" style="stop-color:#00A33D"/>
	<stop  offset="0.4813" style="stop-color:#62BC1D"/>
	<stop  offset="0.8344" style="stop-color:#A3CD08"/>
	<stop  offset="1" style="stop-color:#BCD400"/>
</linearGradient>
<rect x="17.9" y="10.81" style="fill:url(#XMLID_17_);" width="31.545" height="5.722"/>
<path style="fill:#F08700;" d="M46.885,29.108c0.515-0.511,0.348-1.009-0.371-1.107l-7.1-0.967
	c-0.719-0.098-1.574-0.707-1.901-1.355l-3.229-6.396c-0.327-0.647-0.853-0.643-1.168,0.01l-3.112,6.454
	c-0.315,0.652-1.159,1.277-1.877,1.389l-7.082,1.094c-0.718,0.111-0.875,0.611-0.352,1.113l5.177,4.955
	c0.523,0.502,0.856,1.498,0.74,2.215l-1.146,7.072c-0.116,0.715,0.311,1.02,0.95,0.677l6.312-3.39
	c0.64-0.344,1.69-0.354,2.335-0.021l6.372,3.277c0.645,0.332,1.067,0.02,0.938-0.694l-1.275-7.052
	c-0.129-0.713,0.188-1.715,0.702-2.227L46.885,29.108z"/>
<linearGradient id="XMLID_18_" gradientUnits="userSpaceOnUse" x1="38.6646" y1="19.8418" x2="24.1484" y2="2.0595">
	<stop  offset="0" style="stop-color:#009342"/>
	<stop  offset="0.0919" style="stop-color:#169B3B"/>
	<stop  offset="0.5417" style="stop-color:#7DBF1C"/>
	<stop  offset="0.8538" style="stop-color:#BFD608"/>
	<stop  offset="1" style="stop-color:#D8DF00"/>
</linearGradient>
<path style="fill:url(#XMLID_18_);" d="M17.854,10.81v5.722h31.545V10.81H17.854z M48.764,15.978H18.489v-4.614h30.275V15.978z"/>
<g>
	<path d="M35.073,25.648v12.7h-2.146v-8.322c-0.349,0.434-0.685,0.785-1.009,1.052c-0.325,0.266-0.733,0.522-1.222,0.767v-2.85
		c0.722-0.379,1.284-0.838,1.683-1.371s0.712-1.191,0.938-1.976H35.073z"/>
</g>
</svg>
