<?xml version="1.0" standalone="no"?>
<!DOCTYPE svg PUBLIC "-//W3C//DTD SVG 20010904//EN" "http://www.w3.org/TR/2001/REC-SVG-20010904/DTD/svg10.dtd">
<!-- This file was created using the SVG export filter from Karbon14, a free vector drawing app. -->
<!-- It is part of koffice, the free, integrated office suite for KDE (http://www.koffice.org/). -->
<svg xmlns="http://www.w3.org/2000/svg" width="33.46px" height="31.786px">
<defs>
<linearGradient id="defitem0" gradientUnits="userSpaceOnUse" x1="8.17005" y1="15.2771" x2="25.5214" y2="16.0462" >
<stop stop-color="#c68911" offset="0" stop-opacity="1" />
<stop stop-color="#d49314" offset="0.0618" stop-opacity="1" />
<stop stop-color="#fbaa17" offset="0.1742" stop-opacity="1" />
<stop stop-color="#ffef9a" offset="0.4494" stop-opacity="1" />
<stop stop-color="#ffef9a" offset="0.4503" stop-opacity="1" />
<stop stop-color="#ffe68a" offset="0.475" stop-opacity="1" />
<stop stop-color="#ffdf82" offset="0.5027" stop-opacity="1" />
<stop stop-color="#ffdf80" offset="0.5393" stop-opacity="1" />
<stop stop-color="#f9a818" offset="0.8146" stop-opacity="1" />
<stop stop-color="#f6931c" offset="1" stop-opacity="1" />
</linearGradient>
<linearGradient id="defitem1" gradientUnits="userSpaceOnUse" x1="16.0209" y1="1.54431" x2="16.3192" y2="10.2787" >
<stop stop-color="#8e5018" offset="0.0787" stop-opacity="1" />
<stop stop-color="#8e5018" offset="0.081" stop-opacity="1" />
<stop stop-color="#6e490a" offset="0.4035" stop-opacity="1" />
<stop stop-color="#624402" offset="0.5618" stop-opacity="1" />
<stop stop-color="#523800" offset="0.6673" stop-opacity="1" />
<stop stop-color="#000000" offset="1" stop-opacity="1" />
</linearGradient>
<linearGradient id="defitem2" gradientUnits="userSpaceOnUse" x1="17.6966" y1="30.2837" x2="16.1665" y2="9.24083" >
<stop stop-color="#ffd100" offset="0" stop-opacity="1" />
<stop stop-color="#f4ba0d" offset="0.2123" stop-opacity="1" />
<stop stop-color="#db8e17" offset="0.6384" stop-opacity="1" />
<stop stop-color="#d17e17" offset="0.7865" stop-opacity="1" />
<stop stop-color="#a56908" offset="0.9604" stop-opacity="1" />
<stop stop-color="#9c6405" offset="0.9888" stop-opacity="1" />
</linearGradient>
<linearGradient id="defitem3" gradientUnits="userSpaceOnUse" x1="13.3484" y1="5.00813" x2="19.8086" y2="5.08077" >
<stop stop-color="#c8a305" offset="0" stop-opacity="1" />
<stop stop-color="#d8b602" offset="0.1344" stop-opacity="1" />
<stop stop-color="#f0d100" offset="0.2865" stop-opacity="1" />
<stop stop-color="#ffef9a" offset="0.5674" stop-opacity="1" />
<stop stop-color="#ffed91" offset="0.6001" stop-opacity="1" />
<stop stop-color="#ffe679" offset="0.6569" stop-opacity="1" />
<stop stop-color="#ffdd4b" offset="0.7304" stop-opacity="1" />
<stop stop-color="#ffd400" offset="0.7978" stop-opacity="1" />
<stop stop-color="#f9a818" offset="1" stop-opacity="1" />
</linearGradient>
</defs>
<g transform="scale(1, -1) translate(0, -31.786)">
<g>
<path fill="url(#defitem0)" stroke="#070707" d="M23.919 16.7245C23.1351 19.7932 23.4052 22.3209 23.4052 22.3209C23.4052 26.3132 20.1685 29.5489 16.1781 29.5489C12.1868 29.5489 8.95007 26.3132 8.95007 22.3209C8.95007 22.3209 8.95463 19.1882 8.39891 16.8997C7.8441 14.6092 1.55049 7.90226 1.44737 5.37186C1.34426 2.84328 8.32956 1.7583 16.0576 1.7583C23.7848 1.7583 30.5986 3.30684 31.0457 5.42387C31.4937 7.54091 24.7028 13.6557 23.919 16.7245Z"  />
<path fill="url(#defitem1)" d="M30.531 5.93032C30.5612 3.81602 24.1507 1.99464 16.2146 1.8678C8.27846 1.74005 1.82333 3.35155 1.79413 5.46858C1.76584 7.58471 8.17352 9.40426 16.1106 9.53292C24.0476 9.65976 30.5028 8.04735 30.531 5.93032Z"  />
<path fill="url(#defitem2)" d="M23.4198 16.1277C22.8084 18.2666 22.7692 23.3539 22.7692 23.3539C22.73 23.4168 23.001 23.5336 22.9563 23.5975C22.5411 26.3889 19.9459 29.2478 16.5732 29.3993C12.8036 29.5681 9.39811 26.4154 9.02033 23.353C9.00664 23.2325 8.97471 23.0354 8.9455 22.8292C8.92634 22.7991 8.89988 22.7662 8.88163 22.7343L8.88163 22.2762C8.8798 22.2424 8.88254 22.2224 8.88163 22.1922C8.88163 22.1922 9.1271 19.1691 8.33047 16.3996C7.53476 13.6301 1.93739 7.53999 1.65451 5.83633C6.53282 12.0049 9.97665 14.0225 10.6045 16.5045C11.2323 18.9866 10.6209 23.3174 11.9477 25.2054C13.1641 26.9355 14.3147 27.1782 16.0978 27.1782C17.3051 27.1782 18.7943 26.8324 19.5818 25.8642C21.4351 23.5847 20.8219 18.3953 21.5263 16.2125C22.2317 14.0289 30.5447 6.06811 30.2436 6.79173C29.2353 9.21811 24.0312 13.9887 23.4198 16.1277Z"  />
<path fill="none" stroke="#f8d126" stroke-width="0.5" d="M30.7108 5.76698C30.7108 3.58227 24.2022 1.81122 16.1735 1.81122C8.14482 1.81122 1.63626 3.58227 1.63626 5.76698C1.63626 7.95167 8.14482 9.72273 16.1735 9.72273C24.2022 9.72273 30.7108 7.95167 30.7108 5.76698Z"  />
<path fill="url(#defitem3)" stroke="#070707" d="M21.3493 8.68702L21.3493 6.05807C21.3493 3.51672 19.1912 1.45626 16.5294 1.45626L16.5294 1.45626C13.8667 1.45626 11.7086 3.51672 11.7086 6.05807L11.5416 8.55015"  />
</g>
</g>
</svg>
