<?xml version="1.0" encoding="iso-8859-1"?>
<!-- Generator: Adobe Illustrator 12.0.1, SVG Export Plug-In . SVG Version: 6.00 Build 51448)  -->
<!DOCTYPE svg PUBLIC "-//W3C//DTD SVG 1.1//EN" "http://www.w3.org/Graphics/SVG/1.1/DTD/svg11.dtd" [
	<!ENTITY ns_svg "http://www.w3.org/2000/svg">
	<!ENTITY ns_xlink "http://www.w3.org/1999/xlink">
]>
<svg  version="1.1" id="&#x56FE;&#x5C42;_1" xmlns="&ns_svg;" xmlns:xlink="&ns_xlink;" width="45.25" height="44.085"
	 viewBox="0 0 45.25 44.085" style="overflow:visible;enable-background:new 0 0 45.25 44.085;" xml:space="preserve">
<g>
	<path style="fill:#8F4E46;" d="M35.552,34.224c0,0,0.006,0,0.008-0.002c1.213-0.793,0.322-4.975-2.754-9.16
		c-0.34-0.463-0.652-0.854-0.998-1.279c0.23-0.208,0.578-0.499,0.781-0.686c-2.92-3.619-6.826-5.549-8.367-4.434
		c-0.322,0.226-0.432,0.695-0.381,1.316c-0.035,1.714,1.277,5.104,3.793,8.416c2.9,3.826,6.234,6.219,7.625,5.904
		c0.109-0.014,0.236-0.01,0.328-0.057C35.576,34.237,35.562,34.229,35.552,34.224z"/>
	<path style="fill:#8F4E46;" d="M0.578,34.317c0,0-0.006,0-0.008-0.002c-1.213-0.793-0.543-4.975,2.533-9.162
		c0.34-0.461,0.777-0.883,1.123-1.309c-0.232-0.209-0.641-0.748-0.844-0.936c3.494-4.331,6.58-5.561,8.525-4.152
		c0.32,0.226,0.43,0.694,0.383,1.316c0.031,1.714-1.281,5.104-3.795,8.416c-2.9,3.826-6.234,6.217-7.627,5.904
		c-0.109-0.014-0.234-0.01-0.326-0.057C0.554,34.331,0.568,34.321,0.578,34.317z"/>
	<path style="fill:#8F4E46;" d="M26.433,19.94c-0.01-0.014-0.795-0.958-0.936-1.146c-0.008,0.011-1.887-1.698-1.916-1.714
		c2.617-2.051,3.869-4.188,3.928-7.637C27.595,4.186,23.408,0,18.017,0C12.625,0,8.398,4.232,8.48,9.491
		c0.051,3.32,1.213,4.56,3.506,7.465c-0.873,0.485-2.568,2.29-2.576,2.277c-2.1,2.585-3.404,6.533-3.313,11.031
		c0.15,7.535,5.254,10.818,11.492,10.818c0.029,0,0.055-0.002,0.082-0.002s0.053,0.002,0.08,0.002c0.008,0,0.016,0,0.021,0
		c0.008,0,0.012,0,0.016,0c6.238,0,11.381-3.283,11.529-10.818C29.396,26.415,28.513,22.515,26.433,19.94z"/>
	
		<radialGradient id="XMLID_11_" cx="29.3618" cy="15.3232" r="11.297" gradientTransform="matrix(1.5217 0 0 1.9274 -30.5036 -8.1174)" gradientUnits="userSpaceOnUse">
		<stop  offset="0.1629" style="stop-color:#F8E6D3"/>
		<stop  offset="1" style="stop-color:#FBDEBC"/>
	</radialGradient>
	<path style="fill:url(#XMLID_11_);" d="M28.443,29.239c0,7.467-4.797,10.783-10.693,10.783c-5.898,0-10.66-3.316-10.66-10.783
		c0-7.471,4.779-13.525,10.678-13.525C23.664,15.714,28.443,21.769,28.443,29.239z"/>
	
		<radialGradient id="XMLID_12_" cx="24.3628" cy="22.4609" r="16.6783" gradientTransform="matrix(2.1758 0.4598 -0.1608 2.0266 -52.1563 -21.6626)" gradientUnits="userSpaceOnUse">
		<stop  offset="0.1629" style="stop-color:#F8E6D3"/>
		<stop  offset="1" style="stop-color:#F6CC99"/>
	</radialGradient>
	<path style="fill:url(#XMLID_12_);" d="M4.283,24.69c-2.875,3.953-4.332,7.791-3.26,8.572c1.07,0.779,4.273-1.797,7.146-5.75
		c2.871-3.958,4.334-7.796,3.26-8.574C10.357,18.161,7.162,20.734,4.283,24.69z"/>
	<path style="fill:#5BC1D1;" d="M8.341,26.772c2.588-3.735,4.043-7.301,3.021-8.04c-0.961-0.696-4.34,1.018-6.955,4.289
		C5.468,24.081,7.183,25.61,8.341,26.772z"/>
	<g>
		<path style="fill:#F6D8B0;" d="M8.486,26.661c-0.17-0.17-0.363-0.355-0.553-0.539c-0.307,0.475-0.627,0.955-0.979,1.438
			c-2.143,2.949-4.467,5.129-5.957,5.723c1.123,0.652,4.256-1.885,7.078-5.77c2.256-3.106,3.617-6.118,3.59-7.655
			C11.554,21.353,10.375,23.938,8.486,26.661z"/>
	</g>
	
		<radialGradient id="XMLID_13_" cx="69.1216" cy="12.4902" r="16.6803" gradientTransform="matrix(-2.1758 0.4598 0.1608 2.0266 187.3517 -21.6626)" gradientUnits="userSpaceOnUse">
		<stop  offset="0.1629" style="stop-color:#F8E6D3"/>
		<stop  offset="1" style="stop-color:#F6CC99"/>
	</radialGradient>
	<path style="fill:url(#XMLID_13_);" d="M31.919,25.065c2.877,3.951,4.336,7.787,3.262,8.57c-1.068,0.781-4.273-1.795-7.146-5.75
		c-2.871-3.956-4.334-7.794-3.26-8.573C25.847,18.535,29.042,21.109,31.919,25.065z"/>
	<g>
		<path style="fill:#F6D8B0;" d="M27.718,27.036c0.17-0.172,0.363-0.357,0.553-0.541c0.307,0.475,0.629,0.953,0.979,1.438
			c2.143,2.947,4.469,5.129,5.955,5.725c-1.121,0.652-4.254-1.887-7.076-5.771c-2.256-3.105-3.619-6.117-3.59-7.653
			C24.65,21.726,25.832,24.313,27.718,27.036z"/>
	</g>
	<path style="fill:#F9CFA0;" d="M30.871,23.532c-1.041,1.043-2.707,2.533-3.865,3.688c0.125,0.189,0.238,0.375,0.369,0.564
		c1.16-1.16,3-2.363,4.063-3.425C31.107,23.947,30.685,23.299,30.871,23.532z"/>
	<path style="fill:#5BC1D1;" d="M27.625,27.036c-2.588-3.736-3.871-7.236-2.852-7.976c0.961-0.696,4.17,0.953,6.785,4.223
		C30.498,24.345,28.785,25.874,27.625,27.036z"/>
	<path style="fill:#F9CFA0;" d="M11.498,19.165c1.766,2.076,3.828,3.928,6.68,3.928c2.617,0,5.004-1.399,6.41-3.454
		c2.047,2.367,3.285,5.833,3.381,9.665c0.004-0.158,0.02-0.307,0.02-0.467c0-4.018-1.273-7.666-3.4-10.129
		c-1.406,2.055-3.793,3.455-6.41,3.455c-2.852,0-4.914-1.851-6.68-3.928c-2.428,2.459-4.01,6.262-4.01,10.602
		c0,0.172,0.016,0.332,0.021,0.498C7.611,25.179,9.15,21.542,11.498,19.165z"/>
	<path style="fill:#5BC1D1;" d="M24.751,19.052c-1.465,2.068-3.953,3.474-6.68,3.474c-2.971,0-5.121-1.86-6.957-3.949
		c-2.533,2.473-4.178,6.298-4.178,10.663c0,7.467,4.762,10.783,10.66,10.783c5.896,0,10.695-3.316,10.695-10.783
		C28.292,25.2,26.966,21.53,24.751,19.052z"/>
	<path style="fill:#58ABC7;" d="M18.205,23.47c2.891-0.009,5.516-1.308,7.24-3.26c-0.182-0.234-0.361-0.474-0.555-0.689
		c-1.463,2.066-3.953,3.474-6.678,3.474c-2.971,0-5.121-1.86-6.959-3.951c-0.215,0.209-0.188,0.365-0.389,0.593
		C12.859,21.67,15.011,23.483,18.205,23.47z"/>
	<path style="fill:#58ABC7;" d="M24.855,19.105c-0.035,0.049-0.078,0.095-0.115,0.145c0.826,1.913,1.307,4.1,1.307,6.437
		c0,7.467-4.797,10.781-10.693,10.781c-2.893,0-5.508-0.803-7.428-2.496c1.594,4.15,5.398,6.051,9.859,6.051
		c5.896,0,10.695-3.316,10.695-10.783C28.48,25.2,27.072,21.582,24.855,19.105z"/>
	<path style="fill:#007C95;" d="M24.792,19.168c-0.016,0.024-0.037,0.049-0.059,0.074c1.883,2.437,3.059,5.755,3.059,9.437
		c0,7.467-4.797,10.781-10.693,10.781c-3.027,0-5.734-0.898-7.67-2.76c1.951,2.305,4.936,3.383,8.293,3.383
		c5.896,0,10.695-3.314,10.695-10.781C28.417,25.263,27.009,21.645,24.792,19.168z"/>
	<radialGradient id="XMLID_14_" cx="15.0771" cy="5.0322" r="14.6769" gradientUnits="userSpaceOnUse">
		<stop  offset="0.1629" style="stop-color:#F8E6D3"/>
		<stop  offset="1" style="stop-color:#FBDEBC"/>
	</radialGradient>
	<circle style="fill:url(#XMLID_14_);" cx="17.97" cy="9.601" r="8.604"/>
	
		<radialGradient id="XMLID_15_" cx="15.9414" cy="6.2539" r="13.3934" gradientTransform="matrix(1 0 0 0.9762 0 -0.0092)" gradientUnits="userSpaceOnUse">
		<stop  offset="0.1629" style="stop-color:#F8E6D3"/>
		<stop  offset="1" style="stop-color:#F6CC99"/>
	</radialGradient>
	<path style="fill:url(#XMLID_15_);" d="M22.685,2.501c0.947,1.351,1.504,2.98,1.504,4.74c0,4.639-3.852,8.397-8.604,8.397
		c-1.803,0-3.473-0.543-4.855-1.467c1.551,2.206,4.15,3.657,7.102,3.657c4.75,0,8.602-3.759,8.602-8.398
		C26.433,6.554,24.947,4.014,22.685,2.501z"/>
</g>
<g>
	<path style="fill:#8F4E46;" d="M30.924,14.09c-0.867-0.952-1.489-2.108-1.54-4.398c0,0-2.901,2.985-2.667,4.757
		c0.116,0.878,0.411,1.105,0.941,1.327l-0.715,0.989c0,3.529,0.127,11.29,0.127,11.297c0,0.321,0.868,0.584,1.942,0.584
		c1.046,0,1.893-0.25,1.935-0.838l0.036-10.957l-0.718-1.119C30.832,15.205,31.257,14.455,30.924,14.09z"/>
	<path style="fill:#8F4E46;" d="M29.035,20.771c-8.958,0-16.219,2.734-16.219,6.109c0,0,0,10.979,0,11.257
		c0,2.798,7.366,5.948,16.322,5.948c8.958,0,16.111-3.15,16.111-5.948c0-0.278,0-11.257,0-11.257
		C45.25,23.505,37.991,20.771,29.035,20.771z"/>
	<linearGradient id="XMLID_16_" gradientUnits="userSpaceOnUse" x1="18.3896" y1="26.4629" x2="40.4052" y2="40.298">
		<stop  offset="0" style="stop-color:#FFEB96"/>
		<stop  offset="1" style="stop-color:#FFD900"/>
	</linearGradient>
	<path style="fill:url(#XMLID_16_);" d="M44.471,27.182c-3.854-1.29-9.155-2.999-14.753-2.999c-6.289,0-12.153,1.414-16.123,2.999
		c0,0,0,10.382,0,10.646c0,2.646,7.011,5.625,15.537,5.625s15.339-2.979,15.339-5.625C44.471,37.563,44.471,27.182,44.471,27.182z"
		/>
	<linearGradient id="XMLID_17_" gradientUnits="userSpaceOnUse" x1="14.2622" y1="33.8164" x2="43.5835" y2="33.8164">
		<stop  offset="0" style="stop-color:#FFEB96"/>
		<stop  offset="1" style="stop-color:#F2C000"/>
	</linearGradient>
	<path style="fill:url(#XMLID_17_);" d="M43.583,27.515c-3.66-1.224-8.695-2.848-14.011-2.848c-5.973,0-11.54,1.344-15.311,2.848
		c0,0,0,9.861,0,10.109c0,2.514,6.659,5.342,14.754,5.342c8.097,0,14.567-2.828,14.567-5.342
		C43.583,37.376,43.583,27.515,43.583,27.515z"/>
	<path style="opacity:0.3;fill:#FDE9DD;" d="M20.371,25.831c-2.452,0.501-4.651,1.154-6.442,1.848c0,0,0,9.558,0,9.8
		c0,1.511,2.675,3.343,6.553,4.362L20.371,25.831z"/>
	<linearGradient id="XMLID_18_" gradientUnits="userSpaceOnUse" x1="20.2695" y1="21.6738" x2="38.7048" y2="33.259">
		<stop  offset="0" style="stop-color:#FFEB96"/>
		<stop  offset="1" style="stop-color:#FFD900"/>
	</linearGradient>
	<ellipse style="fill:url(#XMLID_18_);" cx="29.033" cy="27.182" rx="15.438" ry="5.774"/>
	<linearGradient id="XMLID_19_" gradientUnits="userSpaceOnUse" x1="20.2695" y1="21.6055" x2="38.7048" y2="33.1906">
		<stop  offset="0" style="stop-color:#F8E6A5"/>
		<stop  offset="1" style="stop-color:#F3CA22"/>
	</linearGradient>
	<path style="fill:url(#XMLID_19_);" d="M29.035,21.337c-8.526,0-15.439,2.586-15.439,5.776c0,3.188,6.913,5.774,15.439,5.774
		c8.524,0,15.437-2.586,15.437-5.774C44.471,23.923,37.559,21.337,29.035,21.337z M29.035,32.37c-8.156,0-14.768-2.355-14.768-5.257
		c0-2.903,6.611-5.257,14.768-5.257c8.154,0,14.765,2.354,14.765,5.257C43.799,30.015,37.189,32.37,29.035,32.37z"/>
	<linearGradient id="XMLID_20_" gradientUnits="userSpaceOnUse" x1="19.6738" y1="20.8701" x2="38.1266" y2="32.4663">
		<stop  offset="0" style="stop-color:#FFFFFF"/>
		<stop  offset="0.1912" style="stop-color:#FFFBF6"/>
		<stop  offset="0.5735" style="stop-color:#FEF5EC"/>
		<stop  offset="1" style="stop-color:#FEF3E8"/>
	</linearGradient>
	<ellipse style="fill:url(#XMLID_20_);" cx="28.899" cy="26.669" rx="12.619" ry="4.004"/>
	<ellipse style="fill:#EBEBEB;" cx="29" cy="26.567" rx="5.493" ry="2.143"/>
	<ellipse style="fill:#E0E0E1;" cx="29.076" cy="26.467" rx="2.913" ry="1.136"/>
	<path style="fill:#E37905;" d="M30.453,16.806l-1.287-1.65l-0.393,0.016l-1.276,1.605c0,3.122-0.005,9.623-0.005,9.628
		c0,0.284,0.658,0.517,1.473,0.517c0.794,0,1.436-0.221,1.465-0.498L30.453,16.806z"/>
	<path style="fill:#EC6700;" d="M27.23,14.462c0.514,1.684,1.999,1.531,1.999,1.531s1.539-1.492,1.18-1.951
		c-0.659-0.843-1.349-1.497-1.194-3.525C29.214,10.517,26.719,12.778,27.23,14.462z"/>
	<path style="opacity:0.16;fill:#FFFFFF;" d="M27.786,14.241c0.28,0.93,1.103,0.846,1.103,0.846s0.848-0.824,0.65-1.077
		c-0.362-0.466-0.745-0.826-0.66-1.946C28.878,12.063,27.502,13.313,27.786,14.241z"/>
</g>
</svg>
