<?xml version="1.0" encoding="iso-8859-1"?>
<!-- Generator: Adobe Illustrator 12.0.1, SVG Export Plug-In . SVG Version: 6.00 Build 51448)  -->
<!DOCTYPE svg PUBLIC "-//W3C//DTD SVG 1.1//EN" "http://www.w3.org/Graphics/SVG/1.1/DTD/svg11.dtd" [
	<!ENTITY ns_svg "http://www.w3.org/2000/svg">
	<!ENTITY ns_xlink "http://www.w3.org/1999/xlink">
]>
<svg  version="1.1" id="&#x56FE;&#x5C42;_1" xmlns="&ns_svg;" xmlns:xlink="&ns_xlink;" width="36.606" height="39.702"
	 viewBox="0 0 36.606 39.702" style="overflow:visible;enable-background:new 0 0 36.606 39.702;" xml:space="preserve">
<path style="fill:#8F4E46;" d="M35.034,0H1.572C0.707,0,0,0.588,0,1.307v37.089c0,0.719,0.707,1.307,1.572,1.307h33.462
	c0.866,0,1.572-0.588,1.572-1.307V1.307C36.606,0.588,35.9,0,35.034,0z"/>
<path style="fill:#FDCD00;" d="M34.58,0.507H2.16c-0.838,0-1.522,0.572-1.522,1.275v36.264c0,0.703,0.685,1.276,1.522,1.276h32.42
	c0.838,0,1.523-0.573,1.523-1.276V1.782C36.104,1.079,35.418,0.507,34.58,0.507z"/>
<linearGradient id="XMLID_7_" gradientUnits="userSpaceOnUse" x1="6.5088" y1="2.0732" x2="22.4162" y2="25.999">
	<stop  offset="0" style="stop-color:#F7D663"/>
	<stop  offset="1" style="stop-color:#F2C000"/>
</linearGradient>
<path style="fill:url(#XMLID_7_);" d="M34.58,0.507H2.16c-0.838,0-1.522,0.572-1.522,1.275v36.264c0,0.701,0.685,1.276,1.522,1.276
	h32.42c0.838,0,1.523-0.575,1.523-1.276V1.782C36.104,1.079,35.418,0.507,34.58,0.507z M35.209,37.131
	c0,0.666-0.652,1.212-1.447,1.212H2.979c-0.795,0-1.446-0.546-1.446-1.212V2.698c0-0.666,0.651-1.213,1.446-1.213h30.783
	c0.795,0,1.447,0.547,1.447,1.213V37.131z"/>
<polygon style="fill:#D3D2D9;" points="26.297,3.636 26.297,7.009 9.907,7.009 9.907,3.468 12.773,1.694 23.334,1.694 "/>
<linearGradient id="XMLID_8_" gradientUnits="userSpaceOnUse" x1="30.8945" y1="32.1592" x2="0.8029" y2="4.7716">
	<stop  offset="0" style="stop-color:#E4E4E4"/>
	<stop  offset="0.0171" style="stop-color:#E5E5E5"/>
	<stop  offset="0.4818" style="stop-color:#EFEFEF"/>
	<stop  offset="1" style="stop-color:#F3F3F3"/>
</linearGradient>
<polygon style="fill:url(#XMLID_8_);" points="33.215,28.771 22.805,37.755 4.332,37.755 4.332,4.499 33.215,4.499 "/>
<linearGradient id="XMLID_9_" gradientUnits="userSpaceOnUse" x1="30.3584" y1="32.0322" x2="0.266" y2="4.6439">
	<stop  offset="0" style="stop-color:#E4E4E4"/>
	<stop  offset="0.2483" style="stop-color:#F1F1F1"/>
	<stop  offset="0.6036" style="stop-color:#FBFBFB"/>
	<stop  offset="1" style="stop-color:#FFFFFF"/>
</linearGradient>
<polygon style="fill:url(#XMLID_9_);" points="32.678,28.646 22.266,37.628 3.795,37.628 3.795,4.372 32.678,4.372 "/>
<linearGradient id="XMLID_10_" gradientUnits="userSpaceOnUse" x1="9.8398" y1="5.7861" x2="26.2295" y2="5.7861">
	<stop  offset="0" style="stop-color:#8F9091"/>
	<stop  offset="1" style="stop-color:#8F8F90"/>
</linearGradient>
<rect x="9.84" y="4.268" style="fill:url(#XMLID_10_);" width="16.39" height="3.036"/>
<rect x="9.84" y="3.699" style="opacity:0.41;fill:#FFFFFF;" width="16.39" height="3.034"/>
<rect x="9.84" y="3.974" style="fill:#C8C7CE;" width="16.39" height="3.035"/>
<g>
	<path d="M19.971,13.007v18.145h-3.064V19.263c-0.498,0.619-0.977,1.121-1.441,1.502c-0.463,0.379-1.047,0.746-1.744,1.096v-4.07
		c1.031-0.543,1.832-1.199,2.402-1.961c0.572-0.762,1.018-1.701,1.34-2.822H19.971z"/>
</g>
<path style="fill:#E60012;" d="M17.781,9.603c-6.997,0-12.67,5.674-12.67,12.669c0,6.998,5.673,12.671,12.67,12.671
	c6.995,0,12.668-5.673,12.668-12.671C30.449,15.276,24.776,9.603,17.781,9.603z M17.781,31.155c-4.909,0-8.883-3.977-8.883-8.884
	c0-4.906,3.974-8.882,8.883-8.882c4.904,0,8.882,3.976,8.882,8.882C26.663,27.179,22.686,31.155,17.781,31.155z"/>
<linearGradient id="XMLID_11_" gradientUnits="userSpaceOnUse" x1="21.7598" y1="32.8252" x2="32.6777" y2="32.8252">
	<stop  offset="0" style="stop-color:#E4E4E4"/>
	<stop  offset="0.0171" style="stop-color:#E5E5E5"/>
	<stop  offset="0.4818" style="stop-color:#EFEFEF"/>
	<stop  offset="1" style="stop-color:#F3F3F3"/>
</linearGradient>
<polygon style="fill:url(#XMLID_11_);" points="22.137,37.632 32.678,28.646 32.666,28.256 21.762,28.018 21.76,37.631 "/>
<linearGradient id="XMLID_12_" gradientUnits="userSpaceOnUse" x1="27.6123" y1="33.3662" x2="23.4019" y2="26.5065">
	<stop  offset="0" style="stop-color:#DADADA"/>
	<stop  offset="0.2279" style="stop-color:#E6E6E6"/>
	<stop  offset="0.6796" style="stop-color:#F8F8F8"/>
	<stop  offset="1" style="stop-color:#FFFFFF"/>
</linearGradient>
<polygon style="fill:url(#XMLID_12_);" points="32.678,28.646 22.221,28.435 22.266,37.628 "/>
</svg>
