<?xml version="1.0" standalone="no"?>
<!DOCTYPE svg PUBLIC "-//W3C//DTD SVG 20010904//EN" "http://www.w3.org/TR/2001/REC-SVG-20010904/DTD/svg10.dtd">
<!-- This file was created using the SVG export filter from Karbon14, a free vector drawing app. -->
<!-- It is part of koffice, the free, integrated office suite for KDE (http://www.koffice.org/). -->
<svg xmlns="http://www.w3.org/2000/svg" width="33.46px" height="31.786px">
<defs>
<linearGradient id="defitem4" gradientUnits="userSpaceOnUse" x1="8.17005" y1="-16.5089" x2="25.5214" y2="-15.7398" >
<stop stop-color="#c68911" offset="0" stop-opacity="1" />
<stop stop-color="#d49314" offset="0.0618" stop-opacity="1" />
<stop stop-color="#fbaa17" offset="0.1742" stop-opacity="1" />
<stop stop-color="#ffef9a" offset="0.4494" stop-opacity="1" />
<stop stop-color="#ffef9a" offset="0.4503" stop-opacity="1" />
<stop stop-color="#ffe689" offset="0.475" stop-opacity="1" />
<stop stop-color="#ffdf82" offset="0.5027" stop-opacity="1" />
<stop stop-color="#ffdf80" offset="0.5393" stop-opacity="1" />
<stop stop-color="#f9a817" offset="0.8146" stop-opacity="1" />
<stop stop-color="#f6931c" offset="1" stop-opacity="1" />
</linearGradient>
<linearGradient id="defitem5" gradientUnits="userSpaceOnUse" x1="16.0209" y1="-30.2417" x2="16.3192" y2="-21.5073" >
<stop stop-color="#8e5017" offset="0.0787" stop-opacity="1" />
<stop stop-color="#8e5017" offset="0.081" stop-opacity="1" />
<stop stop-color="#6e490a" offset="0.4035" stop-opacity="1" />
<stop stop-color="#624402" offset="0.5618" stop-opacity="1" />
<stop stop-color="#523800" offset="0.6673" stop-opacity="1" />
<stop stop-color="#000000" offset="1" stop-opacity="1" />
</linearGradient>
<linearGradient id="defitem6" gradientUnits="userSpaceOnUse" x1="17.6966" y1="-1.5023" x2="16.1665" y2="-22.5452" >
<stop stop-color="#ffd100" offset="0" stop-opacity="1" />
<stop stop-color="#f4ba0d" offset="0.2123" stop-opacity="1" />
<stop stop-color="#db8e17" offset="0.6384" stop-opacity="1" />
<stop stop-color="#d17e17" offset="0.7865" stop-opacity="1" />
<stop stop-color="#a56908" offset="0.9604" stop-opacity="1" />
<stop stop-color="#9c6404" offset="0.9888" stop-opacity="1" />
</linearGradient>
<linearGradient id="defitem7" gradientUnits="userSpaceOnUse" x1="13.3484" y1="-26.7779" x2="19.8086" y2="-26.7052" >
<stop stop-color="#c8a304" offset="0" stop-opacity="1" />
<stop stop-color="#d8b602" offset="0.1344" stop-opacity="1" />
<stop stop-color="#efd100" offset="0.2865" stop-opacity="1" />
<stop stop-color="#ffef9a" offset="0.5674" stop-opacity="1" />
<stop stop-color="#ffed90" offset="0.6001" stop-opacity="1" />
<stop stop-color="#ffe679" offset="0.6569" stop-opacity="1" />
<stop stop-color="#ffdd4b" offset="0.7304" stop-opacity="1" />
<stop stop-color="#ffd400" offset="0.7978" stop-opacity="1" />
<stop stop-color="#f9a817" offset="1" stop-opacity="1" />
</linearGradient>
</defs>
<g transform="scale(1, -1) translate(0, -0)">
<g>
<g>
<path fill="url(#defitem4)" stroke="#070707" d="M23.919 -15.0615C23.1351 -11.9928 23.4052 -9.4651 23.4052 -9.4651C23.4052 -5.4728 20.1685 -2.2371 16.1781 -2.2371C12.1868 -2.2371 8.95007 -5.4728 8.95007 -9.4651C8.95007 -9.4651 8.95463 -12.5978 8.39891 -14.8863C7.8441 -17.1768 1.55049 -23.8837 1.44737 -26.4141C1.34426 -28.9427 8.32956 -30.0277 16.0576 -30.0277C23.7848 -30.0277 30.5986 -28.4792 31.0457 -26.3621C31.4937 -24.2451 24.7028 -18.1303 23.919 -15.0615Z"  />
<path fill="url(#defitem5)" d="M30.531 -25.8557C30.5612 -27.97 24.1507 -29.7914 16.2146 -29.9182C8.27846 -30.046 1.82333 -28.4345 1.79413 -26.3174C1.76584 -24.2013 8.17352 -22.3817 16.1106 -22.2531C24.0476 -22.1262 30.5028 -23.7386 30.531 -25.8557Z"  />
<path fill="url(#defitem6)" d="M23.4198 -15.6583C22.8084 -13.5194 22.7692 -8.4321 22.7692 -8.4321C22.73 -8.3692 23.001 -8.2524 22.9563 -8.1885C22.5411 -5.3971 19.9459 -2.5382 16.5732 -2.3867C12.8036 -2.2179 9.39811 -5.3706 9.02033 -8.433C9.00664 -8.5535 8.97471 -8.7506 8.9455 -8.9568C8.92634 -8.9869 8.89988 -9.0198 8.88163 -9.0517L8.88163 -9.5098C8.8798 -9.5436 8.88254 -9.5636 8.88163 -9.5938C8.88163 -9.5938 9.1271 -12.6169 8.33047 -15.3864C7.53476 -18.1559 1.93739 -24.246 1.65451 -25.9497C6.53282 -19.7811 9.97665 -17.7635 10.6045 -15.2815C11.2323 -12.7994 10.6209 -8.4686 11.9477 -6.5806C13.1641 -4.8505 14.3147 -4.6078 16.0978 -4.6078C17.3051 -4.6078 18.7943 -4.9536 19.5818 -5.9218C21.4351 -8.2013 20.8219 -13.3907 21.5263 -15.5735C22.2317 -17.7571 30.5447 -25.7179 30.2436 -24.9943C29.2353 -22.5679 24.0312 -17.7973 23.4198 -15.6583Z"  />
<path fill="none" stroke="#f8d126" stroke-width="0.5" d="M30.7108 -26.019C30.7108 -28.2037 24.2022 -29.9748 16.1735 -29.9748C8.14482 -29.9748 1.63626 -28.2037 1.63626 -26.019C1.63626 -23.8343 8.14482 -22.0633 16.1735 -22.0633C24.2022 -22.0633 30.7108 -23.8343 30.7108 -26.019Z"  />
<path fill="url(#defitem7)" stroke="#070707" d="M21.3493 -23.099L21.3493 -25.7279C21.3493 -28.2693 19.1912 -30.3297 16.5294 -30.3297L16.5294 -30.3297C13.8667 -30.3297 11.7086 -28.2693 11.7086 -25.7279L11.5416 -23.2358"  />
</g>
</g>
<g>
<path fill="#ff0000" stroke="#000000" stroke-width="0.75" d="M26.47 -24.989L18.98 -17.5L26.47 -10.011L23.989 -7.53L16.5 -15.02L9.011 -7.53L6.53 -10.011L14.02 -17.5L6.53 -24.989L9.011 -27.47L16.5 -19.98L23.989 -27.47L26.47 -24.989Z"  />
<path fill="#bcbcbc" d="M24.504 -8.526L23.957 -8.011L16.464 -15.221L9.011 -8.049L8.52 -8.542L16.517 -16.063L24.504 -8.526Z"  />
<path fill="#bcbcbc" d="M8.504 -26.491L8.995 -26.965L16.517 -19.676L23.988 -26.917L24.473 -26.448L16.464 -18.834L8.504 -26.491Z"  />
<path fill="#bcbcbc" d="M25.478 -25.461L25.897 -24.97L18.508 -17.579L25.957 -10.026L25.551 -9.573L17.666 -17.632L25.478 -25.461Z"  />
<path fill="#bcbcbc" d="M7.408 -9.522L6.986 -10.012L14.376 -17.403L7.021 -24.953L7.478 -25.408L15.218 -17.35L7.408 -9.522Z"  />
</g>
</g>
</svg>
