<?xml version="1.0" encoding="UTF-8" standalone="no"?>
<!-- Generator: Adobe Illustrator 12.0.0, SVG Export Plug-In . SVG Version: 6.00 Build 51448)  -->
<svg
   xmlns:xml="http://www.w3.org/XML/1998/namespace"
   xmlns:dc="http://purl.org/dc/elements/1.1/"
   xmlns:cc="http://web.resource.org/cc/"
   xmlns:rdf="http://www.w3.org/1999/02/22-rdf-syntax-ns#"
   xmlns:svg="http://www.w3.org/2000/svg"
   xmlns="http://www.w3.org/2000/svg"
   xmlns:xlink="http://www.w3.org/1999/xlink"
   xmlns:sodipodi="http://inkscape.sourceforge.net/DTD/sodipodi-0.dtd"
   xmlns:inkscape="http://www.inkscape.org/namespaces/inkscape"
   sodipodi:docbase="/home/user"
   sodipodi:docname="silent.svg"
   inkscape:version="0.41"
   sodipodi:version="0.32"
   xml:space="preserve"
   style="overflow:visible;enable-background:new 0 0 33.46 31.786;"
   viewBox="0 0 33.46 31.786"
   height="31.786"
   width="33.46"
   id="Í_xBC__xB2_ã_x5F_1"
   version="1.1"><metadata
   id="metadata84">
  <rdf:RDF
   id="RDF86">
    <cc:Work
   id="Work88"
   rdf:about="">
      <dc:format
   id="format90">image/svg+xml</dc:format>




      <dc:type
   rdf:resource="http://purl.org/dc/dcmitype/StillImage"
   id="type92" />




    </cc:Work>




  </rdf:RDF>




</metadata>




<defs
   id="defs82">
  <linearGradient
     y2="15.2973"
     x2="26.8831"
     y1="16.1401"
     x1="7.8682"
     gradientUnits="userSpaceOnUse"
     id="XMLID_5_">
		<stop
   id="stop6"
   style="stop-color:#c6c0b4;stop-opacity:1.0000000;"
   offset="0.0000000" />





		<stop
   id="stop8"
   style="stop-color:#d5cdbd;stop-opacity:1.0000000;"
   offset="0.061799999" />





		<stop
   id="stop10"
   style="stop-color:#fbeccf;stop-opacity:1.0000000;"
   offset="0.17420000" />





		<stop
   id="stop12"
   style="stop-color:#fff9d5;stop-opacity:1.0000000;"
   offset="0.44940001" />





		<stop
   id="stop14"
   style="stop-color:#fffadd;stop-opacity:1.0000000;"
   offset="0.45030001" />





		<stop
   id="stop16"
   style="stop-color:#fff4ca;stop-opacity:1.0000000;"
   offset="0.47499999" />





		<stop
   id="stop18"
   style="stop-color:#fff4d0;stop-opacity:1.0000000;"
   offset="0.50269997" />





		<stop
   id="stop20"
   style="stop-color:#fff4d2;stop-opacity:1.0000000;"
   offset="0.53930002" />





		<stop
   id="stop22"
   style="stop-color:#faebd1;stop-opacity:1.0000000;"
   offset="0.81459999" />





		<stop
   id="stop24"
   style="stop-color:#f7e3cc;stop-opacity:1.0000000;"
   offset="1.0000000" />





	</linearGradient>
  <linearGradient
     y2="21.6177"
     x2="16.7986"
     y1="31.1895"
     x1="16.4717"
     gradientUnits="userSpaceOnUse"
     id="XMLID_6_">
		<stop
   id="stop29"
   style="stop-color:#8f8073;stop-opacity:1.0000000;"
   offset="0.078699999" />





		<stop
   id="stop31"
   style="stop-color:#8f867d;stop-opacity:1.0000000;"
   offset="0.081000000" />





		<stop
   id="stop33"
   style="stop-color:#6f685e;stop-opacity:1.0000000;"
   offset="0.40349999" />





		<stop
   id="stop35"
   style="stop-color:#635d4f;stop-opacity:1.0000000;"
   offset="0.56180000" />





		<stop
   id="stop37"
   style="stop-color:#534e44;stop-opacity:1.0000000;"
   offset="0.66729999" />





		<stop
   id="stop39"
   style="stop-color:#000000"
   offset="1" />





	</linearGradient>
  <linearGradient
     y2="22.7551"
     x2="16.6313"
     y1="-0.3052"
     x1="18.3081"
     gradientUnits="userSpaceOnUse"
     id="XMLID_7_">
		<stop
   id="stop44"
   style="stop-color:#fffae0;stop-opacity:1.0000000;"
   offset="0.0000000" />





		<stop
   id="stop46"
   style="stop-color:#f4e8c2;stop-opacity:1.0000000;"
   offset="0.21230000" />





		<stop
   id="stop48"
   style="stop-color:#dbd0be;stop-opacity:1.0000000;"
   offset="0.63840002" />





		<stop
   id="stop50"
   style="stop-color:#d2c8ba;stop-opacity:1.0000000;"
   offset="0.78649998" />





		<stop
   id="stop52"
   style="stop-color:#a59e92;stop-opacity:1.0000000;"
   offset="0.96039999" />





		<stop
   id="stop54"
   style="stop-color:#9d978d;stop-opacity:1.0000000;"
   offset="0.98879999" />





	</linearGradient>
  <linearGradient
     gradientTransform="matrix(0.913464,0.000000,0.000000,0.913464,1.756112,1.229293)"
     y2="22.7551"
     x2="16.6313"
     y1="-0.3052"
     x1="18.3081"
     gradientUnits="userSpaceOnUse"
     id="linearGradient1413"
     xlink:href="#XMLID_7_"
     inkscape:collect="always" />
  <linearGradient
     gradientTransform="matrix(0.913464,0.000000,0.000000,0.913464,1.756112,1.229293)"
     y2="21.6177"
     x2="16.7986"
     y1="31.1895"
     x1="16.4717"
     gradientUnits="userSpaceOnUse"
     id="linearGradient1416"
     xlink:href="#XMLID_6_"
     inkscape:collect="always" />
  <linearGradient
     gradientTransform="matrix(0.913464,0.000000,0.000000,0.913464,1.756112,1.229293)"
     y2="15.2973"
     x2="26.8831"
     y1="16.1401"
     x1="7.8682"
     gradientUnits="userSpaceOnUse"
     id="linearGradient1419"
     xlink:href="#XMLID_5_"
     inkscape:collect="always" />
</defs>




<sodipodi:namedview
   inkscape:current-layer="Í_xBC__xB2_ã_x5F_1"
   inkscape:window-y="207"
   inkscape:window-x="718"
   inkscape:cy="15.893000"
   inkscape:cx="16.730000"
   inkscape:zoom="11.388662"
   inkscape:window-height="542"
   inkscape:window-width="640"
   inkscape:pageshadow="2"
   inkscape:pageopacity="0.0"
   borderopacity="1.0"
   bordercolor="#666666"
   pagecolor="#ffffff"
   id="base" />





<path
   id="path26"
   d="M 24.708710,14.523840 C 23.924045,11.451863 24.194430,8.9215693 24.194430,8.9215693 C 24.194430,4.9251662 20.954375,1.6860246 16.959799,1.6860246 C 12.964310,1.6860246 9.7242543,4.9251662 9.7242543,8.9215693 C 9.7242543,8.9215693 9.7288217,12.057489 9.1725224,14.348455 C 8.6171366,16.641249 2.3169788,23.355205 2.2137574,25.888240 C 2.1105361,28.419447 9.1030992,29.505555 16.839222,29.505555 C 24.574431,29.505555 31.395263,27.955408 31.842860,25.836172 C 32.291371,23.716937 25.493375,17.595818 24.708710,14.523840 z "
   style="fill:url(#linearGradient1419);stroke:#070707" />




<path
   id="path41"
   d="M 31.327667,25.329200 C 31.357811,27.445695 24.940730,29.268968 16.996338,29.395940 C 9.0519452,29.523825 2.5901044,27.910648 2.5608736,25.791413 C 2.5325562,23.673091 8.9468969,21.851645 16.892203,21.722846 C 24.837508,21.595875 31.299349,23.209965 31.327667,25.329200 z "
   style="fill:url(#linearGradient1416)" />




<path
   id="path56"
   d="M 24.209046,15.121245 C 23.597025,12.980087 23.557746,7.8875283 23.557746,7.8875283 C 23.518467,7.8244993 23.789766,7.7075760 23.745006,7.6436336 C 23.329380,4.8493487 20.731490,1.9874675 17.355329,1.8358326 C 13.581811,1.6668419 10.172765,4.8228583 9.7945910,7.8884418 C 9.7808891,8.0090190 9.7489179,8.2063271 9.7196870,8.4127698 C 9.7005043,8.4429141 9.6740139,8.4757988 9.6557446,8.5077703 L 9.6557446,8.9663283 C 9.6539177,9.0001273 9.6566580,9.0202233 9.6557446,9.0503673 C 9.6557446,9.0503673 9.9014663,12.076672 9.1040126,14.849033 C 8.3074725,17.621395 2.7042873,23.717850 2.4211137,25.423287 C 7.3044895,19.248274 10.751901,17.228606 11.380364,14.743985 C 12.008827,12.259364 11.396806,7.9240668 12.724982,6.0341109 C 13.942629,4.3021841 15.094507,4.0592028 16.879414,4.0592028 C 18.087927,4.0592028 19.578699,4.4054054 20.367018,5.3745902 C 22.222262,7.6564220 21.608415,12.851289 22.313609,15.036293 C 23.019716,17.222212 31.341369,25.191267 31.039926,24.466891 C 30.030548,22.037991 24.821066,17.262404 24.209046,15.121245 z "
   style="fill:url(#linearGradient1413)" />




<ellipse
   transform="matrix(0.913464,0.000000,0.000000,0.913464,1.756112,1.229293)"
   sodipodi:ry="4.3350000"
   sodipodi:rx="15.931000"
   sodipodi:cy="26.562000"
   sodipodi:cx="16.639000"
   id="ellipse58"
   ry="4.3350000"
   rx="15.931000"
   cy="26.562000"
   cx="16.639000"
   style="fill:none;stroke:#f8f3db;stroke-width:0.50000000;stroke-opacity:1.0000000" />







</svg>
