<?xml version="1.0" encoding="UTF-8" standalone="no"?>
<!-- Created with Inkscape (http://www.inkscape.org/) -->
<svg
   xmlns:svg="http://www.w3.org/2000/svg"
   xmlns="http://www.w3.org/2000/svg"
   xmlns:xlink="http://www.w3.org/1999/xlink"
   version="1.0"
   width="256"
   height="256"
   id="svg2">
  <defs
     id="defs4">
    <linearGradient
       id="linearGradient2768">
      <stop
         style="stop-color:white;stop-opacity:1"
         offset="0"
         id="stop2770" />
      <stop
         style="stop-color:#d6d6d6;stop-opacity:1"
         offset="1"
         id="stop2772" />
    </linearGradient>
    <linearGradient
       x1="27.490196"
       y1="29.490196"
       x2="239.17647"
       y2="238.43137"
       id="linearGradient2905"
       xlink:href="#linearGradient2768"
       gradientUnits="userSpaceOnUse"
       gradientTransform="matrix(0.972433,0,0,1.000366,0.408593,-4.683931e-2)" />
  </defs>
  <g
     id="layer1">
    <rect
       width="222.11765"
       height="166.27451"
       x="20.078432"
       y="81.568626"
       style="opacity:1;fill:#606060;fill-opacity:1;stroke:none;stroke-width:9.30599976;stroke-linejoin:round;stroke-miterlimit:4;stroke-dasharray:none;stroke-dashoffset:0;stroke-opacity:1"
       id="rect2859" />
    <path
       d="M 16.2714,15.646401 C 16.2714,90.548803 16.2714,165.45121 16.2714,240.35361 C 89.082296,240.35361 161.89319,240.35361 234.70409,240.35361 C 234.70409,185.396 234.70409,130.4384 234.70409,75.480789 C 210.22107,55.535993 185.73805,35.591197 161.25504,15.646401 C 112.92716,15.646401 64.599279,15.646401 16.2714,15.646401 z "
       style="opacity:1;fill:url(#linearGradient2905);fill-opacity:1;stroke:black;stroke-width:5.91780233;stroke-linejoin:round;stroke-miterlimit:3.9000001;stroke-dasharray:none;stroke-dashoffset:0;stroke-opacity:1"
       id="rect1872" />
    <path
       d="M 29.490196,32.627453 C 50.196078,32.627453 70.90196,32.627453 91.607841,32.627453 C 91.607841,51.660133 91.607841,70.692814 91.607841,89.725494 C 70.90196,89.725494 50.196078,89.725494 29.490196,89.725494 C 29.490196,70.692814 29.490196,51.660133 29.490196,32.627453 z "
       style="opacity:1;fill:white;fill-opacity:1;stroke:black;stroke-width:6;stroke-linejoin:miter;stroke-miterlimit:3.9000001;stroke-dasharray:none;stroke-dashoffset:0;stroke-opacity:1"
       id="rect2843" />
    <path
       d="M 37.650242,47.436344 C 45.610278,53.741986 52.09016,61.656523 58.779754,69.241995 C 61.575864,72.492757 64.339592,75.771174 67.101051,79.051364 C 68.997514,76.784919 70.039637,73.766594 71.601404,71.209722 C 74.946367,64.947482 78.804821,58.854834 84.142963,54.08664 C 90.403206,47.855269 97.75041,42.689168 106.03604,39.532588"
       style="fill:none;fill-rule:evenodd;stroke:black;stroke-width:9.30599976;stroke-linecap:butt;stroke-linejoin:round;stroke-miterlimit:4;stroke-dasharray:none;stroke-opacity:1"
       id="path2845" />
    <path
       d="M 28.474477,107.56954 C 31.567941,107.55686 35.26635,106.62931 35.590215,110.80511 C 36.787629,112.50369 37.979204,119.71804 39.183815,114.61842 C 40.859166,112.52237 40.559078,107.43198 43.707984,107.56954 C 47.973193,106.3855 48.510357,108.92951 47.928168,112.59288 C 47.928168,116.74712 47.928168,120.90137 47.928168,125.05561 C 43.665512,126.22276 43.063208,123.72956 43.664987,120.03228 C 43.36462,118.40848 44.324829,110.62685 43.072804,113.65184 C 41.644381,116.15785 41.076009,119.96667 39.133713,121.69425 C 35.362883,122.66596 35.651955,117.48769 34.014793,115.2273 C 32.225318,109.56857 32.83197,115.6148 32.749371,118.29407 C 32.140782,120.77655 34.539771,126.26661 30.237701,125.05561 C 26.687218,125.50668 29.249712,119.84478 28.474477,117.5206 C 28.474477,114.20359 28.474477,110.88656 28.474477,107.56954 z M 58.059079,119.15274 C 51.01556,120.28658 60.945673,125.88123 60.237517,119.15274 C 59.511371,119.15274 58.785225,119.15274 58.059079,119.15274 z M 64.465561,117.57162 C 63.719262,119.98976 66.295135,125.73008 62.456227,125.05561 C 58.789609,125.26731 61.199039,121.92213 57.171886,125.26056 C 46.72719,125.95473 52.442819,113.3998 60.237517,116.65808 C 59.573297,112.12863 47.98944,117.13579 53.693415,112.00256 C 58.040008,111.02628 65.106306,111.32716 64.465561,117.57162 z M 78.133506,115.51029 C 71.7345,112.94841 72.469888,121.07678 72.582002,125.05561 C 68.315195,126.25034 67.819335,123.67411 68.389093,120.03228 C 69.048053,117.65829 67.058141,112.63545 69.393762,111.93813 C 74.050373,110.83355 71.396972,116.11157 75.589059,111.77124 C 79.196887,110.62968 77.903219,113.2718 78.133506,115.51029 z M 89.37706,121.9402 C 93.880321,123.27421 93.668886,119.89352 93.359152,116.41453 C 93.364374,113.31053 94.370501,108.97805 89.915339,111.34856 C 87.313215,109.5455 91.058006,106.99346 93.838062,107.56954 C 98.333652,106.17727 97.825945,109.78829 97.622333,113.09521 C 97.970151,115.86316 96.934058,120.01504 98.124667,121.9402 C 101.94887,119.95309 103.39004,126.30395 99.092756,125.05561 C 95.854191,125.05561 92.615626,125.05561 89.37706,125.05561 C 89.37706,124.01715 89.37706,122.97867 89.37706,121.9402 z M 114.41739,115.62741 C 125.85224,120.97459 107.65371,130.55099 104.84866,123.02157 C 103.61849,119.18526 116.91878,125.42219 112.53175,118.12208 C 105.55535,118.61253 107.40188,113.38178 112.89775,113.39335 C 113.94784,107.69098 100.90486,113.1404 106.92754,107.67496 C 112.49911,104.92971 123.32093,110.85342 114.41739,115.62741 z M 37.305353,140.28125 C 38.640354,131.45387 29.385776,134.71274 31.968321,141.81626 C 31.792363,149.39404 38.858394,145.98103 37.305353,140.28125 z M 41.814486,140.31639 C 43.75269,152.79865 24.271934,151.18283 27.449674,139.25847 C 26.86047,127.92186 43.623451,129.31737 41.814486,140.31639 z M 45.35152,148.65535 C 43.303942,141.89126 54.520852,150.26145 53.819322,141.99121 C 43.091368,148.91668 40.654515,128.10346 52.551488,131.4072 C 63.154439,134.46514 57.523964,153.70917 46.440737,148.97158 L 45.35152,148.65535 z M 50.914736,140.2344 C 58.336924,137.72275 47.044626,129.51566 48.686518,138.50981 C 48.851019,139.54695 49.874064,140.32765 50.914736,140.2344 z M 62.310547,135.92438 C 66.207716,134.94741 67.275173,136.80015 66.538592,140.45693 C 61.900084,141.00587 62.017399,140.32645 62.310547,135.92438 z M 62.310547,144.5093 C 66.207716,143.53233 67.275173,145.38507 66.538592,149.04186 C 61.900084,149.59078 62.017399,148.91137 62.310547,144.5093 z M 80.265097,140.28125 C 81.600097,131.45387 72.345522,134.71274 74.928066,141.81626 C 74.752109,149.39404 81.818138,145.98103 80.265097,140.28125 z M 84.774231,140.31639 C 86.712435,152.79865 67.231679,151.18283 70.409419,139.25847 C 69.820215,127.92186 86.583196,129.31737 84.774231,140.31639 z M 94.260979,141.21821 C 83.774152,147.80456 104.4,147.9863 94.260979,141.21821 z M 90.969897,139.73079 C 78.16325,130.92918 107.92049,127.10544 98.913575,139.12177 C 97.233003,139.45702 104.45146,145.17037 99.379138,148.05804 C 93.245388,153.04136 80.939454,144.95932 90.969897,139.73079 z M 92.023981,136.22888 C 97.522564,144.89205 97.643046,127.82233 92.023981,136.22888 z M 105.27029,135.92438 C 109.16745,134.94741 110.23491,136.80015 109.49833,140.45693 C 104.85982,141.00587 104.97713,140.32645 105.27029,135.92438 z M 105.27029,144.5093 C 109.16745,143.53233 110.23491,145.38507 109.49833,149.04186 C 104.85982,149.59078 104.97713,148.91137 105.27029,144.5093 z M 121.02298,135.2685 C 119.8262,137.55798 116.46445,140.99793 116.58283,142.58852 C 120.83483,143.68602 121.705,141.40169 121.02298,137.56518 C 121.02298,136.79963 121.02298,136.03406 121.02298,135.2685 z M 120.27341,131.55579 C 124.17374,130.83336 126.34873,131.8363 125.28616,136.07679 C 125.34232,139.19022 124.38937,143.31274 127.78082,143.09086 C 128.51853,146.81124 124.31941,145.59478 124.78383,149.04186 C 119.73106,151.10933 122.58104,145.27407 119.01364,145.85618 C 115.91423,145.86882 111.81678,146.87947 113.26961,142.33984 C 115.20626,138.64134 118.01293,135.15604 120.27341,131.55579 z M 131.41156,131.55579 C 135.14769,131.55579 138.88383,131.55579 142.61997,131.55579 C 144.08386,136.13384 139.54575,134.7099 136.59197,134.87029 C 130.18572,138.27516 144.4974,136.0909 143.7736,141.98829 C 146.59031,149.86377 129.78024,152.79938 130.72055,145.20801 C 132.84354,147.57334 143.93036,145.42514 137.31441,140.56234 C 131.86842,141.76888 130.59496,140.89284 131.41156,135.36589 C 131.41156,134.09585 131.41156,132.82582 131.41156,131.55579 z M 29.083503,169.9127 C 33.586763,171.2467 33.375328,167.86601 33.065596,164.38703 C 33.070817,161.28302 34.076944,156.95055 29.621781,159.32106 C 27.019658,157.518 30.764449,154.96596 33.544505,155.54203 C 38.040094,154.14976 37.532388,157.76078 37.328776,161.0677 C 37.676593,163.83566 36.640502,167.98754 37.83111,169.9127 C 41.655304,167.92559 43.096489,174.27645 38.799199,173.02811 C 35.560634,173.02811 32.322069,173.02811 29.083503,173.02811 C 29.083503,171.98963 29.083503,170.95117 29.083503,169.9127 z M 53.983291,164.2675 C 55.318292,155.44011 46.063715,158.69898 48.646259,165.80251 C 48.470303,173.38029 55.536331,169.96728 53.983291,164.2675 z M 58.492424,164.30264 C 60.430628,176.7849 40.949872,175.16908 44.127612,163.24472 C 43.538408,151.90811 60.301389,153.30361 58.492424,164.30264 z M 62.076306,168.49554 C 65.974322,167.51382 67.024638,169.37981 66.292639,173.02811 C 61.649277,173.5814 61.790224,172.88882 62.076306,168.49554 z M 71.574767,169.9127 C 76.078028,171.2467 75.866592,167.86601 75.556859,164.38703 C 75.56208,161.28302 76.568207,156.95055 72.113045,159.32106 C 69.510921,157.518 73.255712,154.96596 76.035768,155.54203 C 80.531358,154.14976 80.023651,157.76078 79.820039,161.0677 C 80.167858,163.83566 79.131765,167.98754 80.322374,169.9127 C 84.146568,167.92559 85.587752,174.27645 81.290463,173.02811 C 78.051898,173.02811 74.813332,173.02811 71.574767,173.02811 C 71.574767,171.98963 71.574767,170.95117 71.574767,169.9127 z M 96.474554,164.2675 C 97.809555,155.44011 88.554978,158.69898 91.137523,165.80251 C 90.961567,173.38029 98.027595,169.96728 96.474554,164.2675 z M 100.98369,164.30264 C 102.92189,176.7849 83.441135,175.16908 86.618876,163.24472 C 86.029672,151.90811 102.79265,153.30361 100.98369,164.30264 z M 104.56757,168.49554 C 108.46558,167.51382 109.5159,169.37981 108.7839,173.02811 C 104.14054,173.5814 104.28149,172.88882 104.56757,168.49554 z M 114.06603,169.9127 C 118.56929,171.2467 118.35786,167.86601 118.04812,164.38703 C 118.05334,161.28302 119.05947,156.95055 114.60431,159.32106 C 112.00218,157.518 115.74698,154.96596 118.52703,155.54203 C 123.02262,154.14976 122.51492,157.76078 122.31131,161.0677 C 122.65912,163.83566 121.62303,167.98754 122.81363,169.9127 C 126.63784,167.92559 128.07902,174.27645 123.78173,173.02811 C 120.54316,173.02811 117.30459,173.02811 114.06603,173.02811 C 114.06603,171.98963 114.06603,170.95117 114.06603,169.9127 z M 138.96582,164.2675 C 140.30082,155.44011 131.04624,158.69899 133.62879,165.80251 C 133.45283,173.38029 140.51885,169.96728 138.96582,164.2675 z M 143.47495,164.30264 C 145.41316,176.7849 125.9324,175.16908 129.11014,163.24472 C 128.52093,151.90811 145.28392,153.30361 143.47495,164.30264 z M 147.05883,168.49554 C 150.95685,167.51382 152.00716,169.37981 151.27517,173.02811 C 146.6318,173.5814 146.77275,172.88882 147.05883,168.49554 z M 160.65651,169.7136 C 162.94955,170.48782 168.48569,168.01895 168.35132,171.2206 C 168.83992,174.82338 163.16014,172.25777 160.81631,173.02811 C 157.72781,173.50016 153.85327,173.26386 156.02038,169.38119 C 158.63758,166.38141 163.87218,164.40944 163.49374,159.92527 C 160.79604,155.28684 153.91697,163.4219 155.6906,156.25646 C 164.04043,150.86018 173.9474,161.58973 163.63758,167.09697 C 162.6439,167.96918 161.6502,168.84138 160.65651,169.7136 z M 181.45708,164.2675 C 182.79209,155.44011 173.5375,158.69898 176.12005,165.80251 C 175.9441,173.38028 183.01012,169.96728 181.45708,164.2675 z M 185.96622,164.30264 C 187.90443,176.7849 168.42366,175.16908 171.60141,163.24472 C 171.0122,151.90811 187.77518,153.30363 185.96622,164.30264 z M 28.287085,178.79042 C 32.553893,177.5957 33.049752,180.17192 32.479993,183.81376 C 31.936496,188.26288 32.730837,189.48772 35.680708,185.51757 C 36.320673,183.10968 44.416069,183.13481 40.713261,185.27282 C 39.325018,187.41349 33.643775,189.45868 37.523178,191.71647 C 38.438524,193.42578 45.012989,197.52365 40.671841,197.01435 C 37.169209,198.09492 35.643265,194.61863 33.479429,192.61288 C 30.776718,189.85048 34.759943,199.41539 29.968325,197.01435 C 26.515805,197.39479 29.070749,191.76775 28.287085,189.47935 C 28.287085,185.91636 28.287085,182.35339 28.287085,178.79042 z M 56.700482,190.42047 C 56.281187,193.07851 51.040121,190.91476 48.663141,191.6151 C 43.13328,193.50365 55.132611,195.77107 56.079744,193.48774 C 56.344273,201.22173 39.282108,197.1354 42.743396,188.94842 C 43.860027,181.06293 57.448574,182.13113 56.700482,190.42047 z M 52.390453,189.02674 C 51.393974,182.33039 41.125503,190.72837 52.390453,189.02674 z M 69.607145,187.46904 C 63.208143,184.90715 63.943526,193.03552 64.055641,197.01435 C 59.788833,198.20908 59.292974,195.63286 59.862732,191.99101 C 60.521692,189.61704 58.531779,184.59419 60.867399,183.89687 C 65.524017,182.79229 62.870607,188.07032 67.062698,183.72998 C 70.670526,182.58842 69.376858,185.23054 69.607145,187.46904 z M 84.903063,189.02674 C 84.165278,191.45383 86.539421,196.99284 83.396062,197.01435 C 79.128423,198.34098 81.118365,193.41004 80.68673,190.90066 C 80.133717,182.01249 73.9491,190.77717 75.90822,195.58436 C 75.819995,198.62734 69.554394,197.26363 71.715312,193.49801 C 71.715312,190.29763 71.715311,187.09725 71.715312,183.89687 C 76.962706,183.33058 75.340174,186.63702 80.27681,183.58065 C 83.307385,183.32523 85.127376,186.2713 84.903063,189.02674 z M 101.90894,190.42047 C 101.48964,193.07851 96.248577,190.91476 93.871597,191.6151 C 88.341736,193.50365 100.34107,195.77107 101.2882,193.48774 C 101.55273,201.22173 84.490564,197.1354 87.951852,188.94842 C 89.06848,181.06293 102.65703,182.13113 101.90894,190.42047 z M 97.598909,189.02674 C 96.60243,182.33039 86.333959,190.72837 97.598909,189.02674 z M 105.07119,178.79042 C 109.33799,177.5957 109.83386,180.17192 109.2641,183.81376 C 109.2641,188.21395 109.2641,192.61415 109.2641,197.01435 C 104.99729,198.20908 104.50143,195.63286 105.07119,191.99101 C 105.07119,187.59081 105.07119,183.19062 105.07119,178.79042 z M 113.98404,183.89687 C 117.88121,182.9199 118.94867,184.77265 118.21209,188.42943 C 113.57358,188.97836 113.6909,188.29895 113.98404,183.89687 z M 113.98404,192.48179 C 117.88121,191.50482 118.94867,193.35756 118.21209,197.01435 C 113.57358,197.56328 113.6909,196.88387 113.98404,192.48179 z M 146.80117,187.05912 C 147.43607,195.52135 136.88093,188.30073 132.89898,191.09099 C 128.39412,190.35203 137.95462,184.6923 141.3287,188.75444 C 143.32794,189.38191 145.32909,188.34472 146.80117,187.05912 z M 151.74364,196.62785 C 149.69607,189.86376 160.91297,198.23395 160.21145,189.96371 C 149.48349,196.88918 147.04664,176.07595 158.94362,179.37969 C 169.54657,182.43764 163.9161,201.68166 152.83287,196.94407 L 151.74364,196.62785 z M 157.30686,188.2069 C 164.72906,185.69524 153.43676,177.48815 155.07865,186.48231 C 155.24315,187.51944 156.26618,188.30015 157.30686,188.2069 z M 42.341527,220.04021 C 31.524745,227.35143 20.450393,208.85447 33.027526,203.81027 C 36.897246,200.30102 46.040969,206.71892 41.097113,207.37658 C 30.870361,201.07224 28.696701,221.71229 39.870288,217.67437 C 44.0245,214.79404 41.784708,217.74758 42.341527,220.04021 z M 55.88064,224.43223 C 56.870224,228.5078 51.224596,225.94816 48.847966,226.65751 C 45.894095,228.04709 41.001905,224.70212 45.896852,224.43223 C 49.224781,224.43223 52.55271,224.43223 55.88064,224.43223 z M 58.082502,203.51453 C 62.33041,202.44411 63.304635,204.64738 62.591636,208.53787 C 62.591636,211.55604 62.591636,214.57422 62.591636,217.5924 C 64.987483,218.338 70.523641,215.94328 70.508972,219.0994 C 71.075616,222.81144 65.360125,220.24136 62.973964,221.0006 C 59.066712,221.77036 57.056671,220.64291 58.082502,216.4796 C 58.082502,212.15791 58.082502,207.83622 58.082502,203.51453 z M 80.499338,206.46596 C 67.647523,210.47553 85.820894,226.13547 84.773491,210.97071 C 84.640327,208.73166 83.041448,206.27855 80.499338,206.46596 z M 80.499338,203.1983 C 93.688683,202.14055 91.410135,224.99231 78.509753,221.18945 C 68.082566,219.90994 69.723724,202.0461 80.499338,203.1983 z M 108.60822,219.70056 C 97.531224,228.14906 83.913995,209.73929 97.563768,203.80441 C 101.51526,200.37897 112.1656,206.53548 106.50297,207.39122 C 97.833883,201.11005 91.754821,217.65931 101.94407,218.07259 C 107.13704,217.54233 103.08926,213.76014 101.581,213.30835 C 100.70426,209.41687 106.36006,212.05792 108.60822,211.29132 C 108.60822,214.09441 108.60822,216.89748 108.60822,219.70056 z M 122.35816,224.43223 C 123.34773,228.5078 117.70211,225.94816 115.32547,226.65751 C 112.37161,228.04709 107.47942,224.70212 112.37436,224.43223 C 115.70229,224.43223 119.03023,224.43223 122.35816,224.43223 z M 133.02782,221.31682 C 122.11156,223.09154 119.84372,204.61782 130.55804,203.34911 C 140.89949,200.20945 145.96987,216.4622 136.65855,220.56725 C 139.4072,223.18041 141.41864,225.46424 136.1652,224.5025 C 134.96015,223.89498 134.08431,222.28027 133.02782,221.31682 z M 132.54762,206.46596 C 122.71472,207.49765 131.66589,225.41466 136.60877,214.72002 C 137.3741,211.60929 136.84818,206.42293 132.54762,206.46596 z M 142.85421,203.51453 C 148.22614,203.51453 153.59805,203.51453 158.96997,203.51453 C 160.38618,207.99929 156.19304,206.8747 153.17251,206.92274 C 153.17251,211.61535 153.17251,216.30798 153.17251,221.0006 C 148.9246,222.07101 147.95038,219.86775 148.66338,215.97726 C 148.66338,212.95908 148.66338,209.9409 148.66338,206.92274 C 145.44189,206.51417 141.56013,208.60153 142.85421,203.51453 z M 169.27656,206.46596 C 156.42474,210.47553 174.59812,226.13547 173.55072,210.97071 C 173.41755,208.73166 171.81867,206.27854 169.27656,206.46596 z M 169.27656,203.1983 C 182.4659,202.14055 180.18736,224.9923 167.28698,221.18945 C 156.8598,219.90994 158.50095,202.04611 169.27656,203.1983 z M 181.66789,203.51453 C 186.55436,203.94707 194.17116,201.69299 195.94998,207.92705 C 198.74223,216.47148 186.3128,212.49563 186.17704,216.9431 C 187.75691,220.87301 184.03949,222.17237 181.66789,220.49826 C 181.66789,214.83702 181.66789,209.17577 181.66789,203.51453 z M 186.17704,206.78219 C 184.18079,211.44548 189.58023,214.11716 191.41231,209.21828 C 191.48087,206.25645 188.13079,206.83115 186.17704,206.78219 z M 199.23594,203.51453 C 203.48385,202.44411 204.45808,204.64738 203.74509,208.53787 C 203.74509,212.69211 203.74509,216.84636 203.74509,221.0006 C 199.49718,222.07101 198.52295,219.86775 199.23594,215.97726 C 199.23594,211.82302 199.23596,207.66877 199.23594,203.51453 z M 218.79505,217.81492 C 216.28976,218.5399 211.4992,216.04604 211.08186,219.71189 C 210.42568,222.17801 203.67627,221.6778 207.14608,218.17424 C 208.95603,213.28767 210.76599,208.40109 212.57596,203.51453 C 215.95401,203.16029 219.1103,203.12468 219.34761,207.283 C 221.04125,211.85553 222.73489,216.42807 224.42854,221.0006 C 221.35403,221.09369 219.05497,221.73319 218.79505,217.81492 z M 212.86876,214.57068 C 217.04499,215.33634 218.51707,214.1715 216.1905,210.29482 C 215.17847,204.77234 214.15705,211.71225 213.13929,213.78679 L 212.97542,214.26164 L 212.86876,214.57068 z "
       style="font-size:22px;font-style:normal;font-variant:normal;font-weight:bold;font-stretch:normal;text-align:start;line-height:100%;writing-mode:lr-tb;text-anchor:start;font-family:Bitstream Vera Sans"
       id="flowRoot2880" />
  </g>
</svg>
