<?xml version="1.0" encoding="UTF-8" standalone="no"?>
<!-- Generator: Adobe Illustrator 12.0.1, SVG Export Plug-In . SVG Version: 6.00 Build 51448)  -->
<svg
   xmlns:dc="http://purl.org/dc/elements/1.1/"
   xmlns:cc="http://web.resource.org/cc/"
   xmlns:rdf="http://www.w3.org/1999/02/22-rdf-syntax-ns#"
   xmlns:svg="http://www.w3.org/2000/svg"
   xmlns="http://www.w3.org/2000/svg"
   xmlns:xlink="http://www.w3.org/1999/xlink"
   xmlns:sodipodi="http://sodipodi.sourceforge.net/DTD/sodipodi-0.dtd"
   xmlns:inkscape="http://www.inkscape.org/namespaces/inkscape"
   version="1.1"
   id="图层_1"
   width="39.951"
   height="29.68"
   viewBox="0 0 39.951 29.68"
   style="overflow:visible;enable-background:new 0 0 39.951 29.68;"
   xml:space="preserve"
   sodipodi:version="0.32"
   inkscape:version="0.44.1"
   sodipodi:docname="account.svg"
   sodipodi:docbase="/home/user"><metadata
   id="metadata38"><rdf:RDF><cc:Work
       rdf:about=""><dc:format>image/svg+xml</dc:format><dc:type
         rdf:resource="http://purl.org/dc/dcmitype/StillImage" /></cc:Work></rdf:RDF></metadata><defs
   id="defs36"><linearGradient
   gradientTransform="matrix(-0.952956,0,0,0.952956,1254.594,2.534545)"
   y2="33.983898"
   x2="1263.4569"
   y1="-5.3607998"
   x1="1221.9253"
   gradientUnits="userSpaceOnUse"
   id="XMLID_2_">
		<stop
   id="stop14"
   style="stop-color:#FFFFFF"
   offset="0" />
		<stop
   id="stop16"
   style="stop-color:#FFFDEF"
   offset="0.1112" />
		<stop
   id="stop18"
   style="stop-color:#FEF6C7"
   offset="0.3271" />
		<stop
   id="stop20"
   style="stop-color:#FDEC85"
   offset="0.626" />
		<stop
   id="stop22"
   style="stop-color:#FBDD2C"
   offset="0.9934" />
		<stop
   id="stop24"
   style="stop-color:#FBDD2A"
   offset="1" />
	</linearGradient>
	
	
<linearGradient
   inkscape:collect="always"
   xlink:href="#XMLID_2_"
   id="linearGradient2137"
   gradientUnits="userSpaceOnUse"
   gradientTransform="matrix(-0.112509,0,0,0.112509,147.9061,12.46046)"
   x1="1221.9253"
   y1="-5.3607998"
   x2="1263.4569"
   y2="33.983898" /></defs><sodipodi:namedview
   inkscape:window-height="870"
   inkscape:window-width="1341"
   inkscape:pageshadow="2"
   inkscape:pageopacity="0.0"
   guidetolerance="10.0"
   gridtolerance="10.0"
   objecttolerance="10.0"
   borderopacity="1.0"
   bordercolor="#666666"
   pagecolor="#ffffff"
   id="base"
   inkscape:zoom="13.712938"
   inkscape:cx="19.9755"
   inkscape:cy="14.767076"
   inkscape:window-x="251"
   inkscape:window-y="258"
   inkscape:current-layer="图层_1" />
<g
   id="g5"
   transform="matrix(0.876801,0,0,0.876801,2.795893,1.750169)">
		<path
   id="path7"
   d="M 27.91,0.21 C 26.507,0.451 11.26,4.052 11.26,4.052 C 4.188,5.828 5.595,14.194 5.48,24.254 L 23.521,28.412 L 39.938,20.578 C 40.188,5.703 36.938,-1.339 27.91,0.21 z "
   style="fill:#753e38" />
		<linearGradient
   y2="0.64109999"
   x2="24.4261"
   y1="25.854"
   x1="27.105"
   gradientUnits="userSpaceOnUse"
   id="XMLID_3_">
			<stop
   id="stop10"
   style="stop-color:#F6A900"
   offset="0" /><stop
   offset="0.5"
   style="stop-color:#ffcb3e;stop-opacity:1;"
   id="stop2785" /><stop
   id="stop2787"
   style="stop-color:#fff5cd;stop-opacity:1;"
   offset="0.75" />
			<stop
   id="stop12"
   style="stop-color:#fed700;stop-opacity:1;"
   offset="1" />
		</linearGradient>
		<path
   id="path14"
   d="M 38.769,19.704 C 38.688,5.953 35.611,-0.306 27.733,1.137 C 26.263,1.444 12.187,4.828 12.187,4.828 L 22.854,24.994 L 23.437,26.89 L 38.769,19.704 z "
   style="fill:url(#XMLID_3_)" />
		<path
   id="path16"
   d="M 24.048,14.854 C 23.908,9.067 19.595,4.42 14.828,4.311 C 10.666,4.214 7.423,7.652 7.022,12.183 L 6.775,22.977 L 23.696,26.763 L 24.156,26.515 C 24.156,26.515 24.057,15.265 24.048,14.854 z "
   style="opacity:0.25;fill:white" />
		<path
   id="path18"
   d="M 23.336,14.876 C 23.2,9.124 18.97,4.503 14.293,4.396 C 10.21,4.3 7.027,7.718 6.634,12.223 L 6.39,22.956 L 23.546,26.839 C 23.546,26.839 23.345,15.285 23.336,14.876 z "
   style="fill:#f4d719" />
		<linearGradient
   y2="15.7827"
   x2="23.024401"
   y1="15.7827"
   x1="6.6181998"
   gradientUnits="userSpaceOnUse"
   id="XMLID_4_">
			<stop
   id="stop21"
   style="stop-color:#F6A900"
   offset="0" />
			<stop
   id="stop23"
   style="stop-color:#FED600"
   offset="1" />
		</linearGradient>
		<path
   id="path25"
   d="M 7.206,13.619 C 7.568,9.31 10.481,6.04 14.216,6.129 C 18.493,6.23 22.361,10.645 22.481,16.147 C 22.487,16.46 22.602,23.589 22.648,26.43 L 23.025,26.516 C 23.025,26.516 22.833,15.467 22.824,15.076 C 22.694,9.575 18.649,5.157 14.177,5.054 C 10.273,4.963 7.229,8.231 6.853,12.539 L 6.618,22.802 L 6.999,22.888 L 7.206,13.619 z "
   style="fill:url(#XMLID_4_)" />
		<polygon
   id="polygon27"
   points="21.42,18.893 7.902,16.646 8.163,13.598 21.225,15.138 21.42,18.893 "
   style="fill:#5e2f2a" />
	</g>
<g
   id="g3030"><path
     style="fill:#fecc25;stroke:#5d3d16;stroke-width:0.677;stroke-miterlimit:4;stroke-dasharray:none"
     d="M 13.743469,18.661156 C 11.910025,15.798368 10.173114,13.064291 10.173114,13.064291 C 10.173114,13.064291 9.9479835,12.485433 9.368788,12.549788 C 8.7900424,12.613918 1.488556,14.286587 1.488556,14.286587 C 1.488556,14.286587 0.60479903,14.387732 0.87718295,15.251688 C 1.171056,16.182924 3.3862427,21.684831 3.772148,22.456754 C 4.1580534,23.228452 4.222521,23.357163 5.0586867,23.035612 C 6.3634517,22.533823 12.400114,20.26542 13.421694,19.754854 C 14.000777,19.465144 14.056132,19.149557 13.743469,18.661156 z "
     id="path2123" /><path
     style="fill:none;stroke:#8a6224;stroke-width:0.377;stroke-miterlimit:4;stroke-dasharray:none"
     d="M 13.936422,19.304369 C 13.936422,19.304369 10.15275,16.871253 9.2200512,16.292282"
     id="path9" /><path
     style="fill:none;stroke:#8a6224;stroke-width:0.377;stroke-miterlimit:4;stroke-dasharray:none"
     d="M 6.1963761,17.160851 C 6.1963761,17.160851 5.00637,21.149289 4.3309794,23.175461"
     id="path11" /><path
     style="fill:#d0872d"
     d="M 13.558055,19.16317 C 8.6354553,21.31794 5.5752148,22.608754 4.5766987,22.650945 C 4.5171815,22.680872 4.414911,23.164322 4.4219991,23.164322 C 4.4758909,23.173773 13.926521,19.901566 13.812888,19.326758 C 13.820875,19.333171 13.690478,19.231238 13.558055,19.16317 z "
     id="path28" /><path
     style="fill:#d0872d"
     d="M 0.93422493,14.761262 C 0.93422493,14.761262 1.1112013,14.866345 1.3280059,14.96524 C 2.3627497,18.206958 4.4289747,22.693135 4.4289747,22.693135 C 4.4289747,22.693135 4.337505,22.904089 4.2742749,23.136195 C 4.1401645,23.582518 0.5052287,14.979304 0.93422493,14.761262 z "
     id="path30" /><path
     style="fill:#d0872d"
     d="M 9.0207981,17.215417 C 8.7254624,18.094449 8.8017434,18.535484 6.7818721,17.470812 C 3.3870302,15.681134 2.2787056,15.331682 1.3280059,14.944089 C 0.78976356,14.724584 1.0819491,15.012269 1.4110374,15.325606 C 2.8827656,15.889163 5.7168634,17.329839 7.4235101,18.144065 C 9.0452126,18.917564 9.025861,17.200454 9.0207981,17.215417 z "
     id="path32" /><path
     style="fill:none;stroke:#8a6224;stroke-width:0.377;stroke-miterlimit:4;stroke-dasharray:none"
     d="M 9.8954418,12.754104 C 9.8954418,12.754104 9.9918619,12.818234 9.9276194,13.429382 C 9.8631519,14.04053 9.1281315,16.647473 8.8339209,17.578708 C 8.6409683,18.189631 8.2870154,18.189631 7.5470448,17.803726 C 6.8075242,17.417933 2.2290892,15.173044 1.3392567,14.876808 C 1.0497715,14.780613 0.74025968,14.625126 1.0962376,14.417322"
     id="path34" /><path
     style="fill:url(#linearGradient2137)"
     d="M 9.5416015,12.786282 C 9.5416015,12.786282 7.0917215,13.263544 5.068925,13.826088 C 5.068925,13.826088 8.1137518,14.269148 8.9948085,16.324572 C 8.9948085,16.324572 9.6222704,14.127837 9.7451301,13.268269 C 9.7685319,13.104119 9.8310868,12.786282 9.5416015,12.786282 z "
     id="path26" /></g></svg>
