<?xml version="1.0" encoding="iso-8859-1"?>
<!-- Generator: Adobe Illustrator 12.0.1, SVG Export Plug-In . SVG Version: 6.00 Build 51448)  -->
<!DOCTYPE svg PUBLIC "-//W3C//DTD SVG 1.1//EN" "http://www.w3.org/Graphics/SVG/1.1/DTD/svg11.dtd" [
	<!ENTITY ns_svg "http://www.w3.org/2000/svg">
	<!ENTITY ns_xlink "http://www.w3.org/1999/xlink">
]>
<svg  version="1.1" id="&#x56FE;&#x5C42;_1" xmlns="&ns_svg;" xmlns:xlink="&ns_xlink;" width="13.876" height="11.316"
	 viewBox="0 0 13.876 11.316" style="overflow:visible;enable-background:new 0 0 13.876 11.316;" xml:space="preserve">
<rect y="0.022" style="fill:#D1D1D1;" width="13.875" height="1.914"/>
<rect y="3.085" style="fill:#D1D1D1;" width="13.875" height="1.915"/>
<rect y="6.338" style="fill:#D1D1D1;" width="13.875" height="1.915"/>
<rect y="9.401" style="fill:#D1D1D1;" width="13.875" height="1.915"/>
<polygon style="fill:#C2C2C2;" points="0.816,0.679 13.876,0.679 13.876,0 0.001,0 0.001,1.914 0.816,1.914 "/>
<polygon style="fill:#C2C2C2;" points="0.816,3.765 13.876,3.765 13.876,3.085 0.001,3.085 0.001,5 0.816,5 "/>
<polygon style="fill:#C2C2C2;" points="0.816,6.996 13.876,6.996 13.876,6.315 0.001,6.315 0.001,8.23 0.816,8.23 "/>
<polygon style="fill:#C2C2C2;" points="0.816,10.06 13.876,10.06 13.876,9.379 0.001,9.379 0.001,11.294 0.816,11.294 "/>
</svg>
