<?xml version="1.0" encoding="iso-8859-1"?>
<!-- Generator: Adobe Illustrator 12.0.1, SVG Export Plug-In . SVG Version: 6.00 Build 51448)  -->
<!DOCTYPE svg PUBLIC "-//W3C//DTD SVG 1.1//EN" "http://www.w3.org/Graphics/SVG/1.1/DTD/svg11.dtd" [
	<!ENTITY ns_svg "http://www.w3.org/2000/svg">
	<!ENTITY ns_xlink "http://www.w3.org/1999/xlink">
]>
<svg  version="1.1" id="&#x56FE;&#x5C42;_1" xmlns="&ns_svg;" xmlns:xlink="&ns_xlink;" width="14.163" height="14.409"
	 viewBox="0 0 14.163 14.409" style="overflow:visible;enable-background:new 0 0 14.163 14.409;" xml:space="preserve">
<path style="fill:#D6D6D6;stroke:#000000;stroke-width:0.5;" d="M1.684,3.947c0,0-1.066-4.015,3.451-3.676l8.709,8.571
	c0,0,1.105,6.311-5.521,5.183l-8.07-7.366c0.038-1.493,1.374-1.374,1.374-1.374l7.097,6.795c0,0,3.263,0.917,3.137-2.724
	l-7.58-6.989C3.328,2.279,3.566,3.119,3.566,3.119l6.865,6.589c0,0,0.502,1.656-1.28,1.33C9.033,11.016,1.684,3.947,1.684,3.947z"/>
<path style="fill:#C2C2C2;" d="M8.799,12.229L1.646,5.491L1.138,5.999l7.097,6.796c0,0,1.869,0.521,2.723-0.804
	C10.036,12.573,8.799,12.229,8.799,12.229z M10.324,9.783L3.641,3.269L3.077,3.833l6.865,6.589c0,0-0.083,0.295-0.164,0.659
	C10.623,10.852,10.324,9.783,10.324,9.783z M13.919,8.992L5.21,0.421C3.34,0.22,4.646,0.986,4.646,0.986l8.709,8.57
	c0,0,0.412,2.388-0.81,3.963C14.447,12.039,13.919,8.992,13.919,8.992z"/>
<path style="opacity:0.48;fill:#FFFFFF;" d="M4.933,2.165C4.549,2.129,4.447,2.159,4.356,2.309l7.68,7.003
	c-0.075,1.694-0.338,1.863-0.884,2.522c1.035-0.527,1.412-2.598,1.36-2.681L4.933,2.165z M9.194,10.93
	c0.467,0.086,0.576,0.038,0.779-0.083c-0.061-0.006-0.104,0.001-0.171-0.011c-0.117-0.021-7.467-7.091-7.467-7.091
	s-0.884-2.76,1.814-3.356C0.836,0.671,1.834,3.853,1.834,3.853S9.078,10.91,9.194,10.93z M8.975,13.823l-8.07-7.366
	c0.018-0.7,0.367-0.815,0.685-0.985L1.514,5.416c0,0-1.092-0.308-1.129,1.186l7.944,7.285c1.067,0.181,1.759,0.192,2.462,0.046
	C10.257,13.961,9.667,13.94,8.975,13.823z"/>
</svg>
