<?xml version="1.0" encoding="iso-8859-1"?>
<!-- Generator: Adobe Illustrator 12.0.1, SVG Export Plug-In . SVG Version: 6.00 Build 51448)  -->
<!DOCTYPE svg PUBLIC "-//W3C//DTD SVG 1.1//EN" "http://www.w3.org/Graphics/SVG/1.1/DTD/svg11.dtd" [
	<!ENTITY ns_svg "http://www.w3.org/2000/svg">
	<!ENTITY ns_xlink "http://www.w3.org/1999/xlink">
]>
<svg  version="1.1" id="&#x56FE;&#x5C42;_1" xmlns="&ns_svg;" xmlns:xlink="&ns_xlink;" width="15.71" height="16.183"
	 viewBox="0 0 15.71 16.183" style="overflow:visible;enable-background:new 0 0 15.71 16.183;" xml:space="preserve">
<g>
	<path style="fill:#FDCE12;stroke:#492407;stroke-width:0.25;" d="M14.53,14.851c-0.2-4.596-0.39-9.434-0.39-9.434
		s0.185-1.035-0.788-1.142C12.401,4.169,1.349,4.25,1.349,4.25S0.244,4.117,0.165,5.403c-0.083,1.34-0.022,8.553,0.062,9.49
		c0.083,0.917,0.097,1.066,1.086,1.076c1.604,0.016,10.121,0.162,11.876,0.042C14.221,15.941,14.56,15.59,14.53,14.851z"/>
	<path style="fill:none;stroke:#7C4707;stroke-width:0.25;" d="M14.223,15.758c0,0-3.299-4.751-4.142-5.916"/>
	<path style="fill:none;stroke:#7C4707;stroke-width:0.25;" d="M5.562,9.786c0,0-3.483,4.201-5.079,6.01"/>
	
		<linearGradient id="XMLID_2_" gradientUnits="userSpaceOnUse" x1="1072.8188" y1="17.3354" x2="1086.7745" y2="30.5563" gradientTransform="matrix(-0.5253 -0.1796 -0.1795 0.5253 582.0345 187.4602)">
		<stop  offset="0" style="stop-color:#FFFFFF"/>
		<stop  offset="0.1032" style="stop-color:#FFFDEF"/>
		<stop  offset="0.3036" style="stop-color:#FDF9C7"/>
		<stop  offset="0.581" style="stop-color:#FBF285"/>
		<stop  offset="0.9217" style="stop-color:#F9E82C"/>
		<stop  offset="1" style="stop-color:#F8E616"/>
	</linearGradient>
	<path style="fill:url(#XMLID_2_);" d="M13.441,4.757c0,0-4.049-0.15-7.24-0.011c0,0,3.875,1.78,3.551,5.049
		c0,0,2.63-2.896,3.567-4.183C13.503,5.358,13.892,4.867,13.441,4.757z"/>
	<path style="fill:#D1720E;" d="M13.813,15.412c-7.746,0.238-11.797,0.315-12.858-0.04c-0.075,0.007-0.381,0.446-0.374,0.449
		c0.05,0.03,13.139,0.633,13.453-0.094C14.039,15.738,13.941,15.555,13.813,15.412z"/>
	<path style="fill:#D1720E;" d="M0.495,4.703c0,0,0.158,0.204,0.366,0.412C0.532,9.656,0.784,15.357,0.784,15.357
		s-0.181,0.175-0.342,0.379C0.125,16.117-0.107,4.865,0.495,4.703z"/>
	<path style="fill:#D1720E;" d="M9.144,10.985c-0.982,0.99-1.178,1.564-3.041-0.576C2.958,6.797,1.807,5.938,0.87,5.086
		C0.342,4.604,0.548,5.098,0.785,5.637c1.457,1.264,4.09,4.18,5.705,5.867C8.024,13.11,9.164,10.967,9.144,10.985z"/>
	<path style="fill:none;stroke:#7C4707;stroke-width:0.25;" d="M14.025,4.84c0,0,0.089,0.143-0.572,1.099
		c-0.638,0.923-3.756,4.344-4.806,5.435c-0.657,0.685-1.105,0.538-1.793-0.241c-0.686-0.781-5.025-5.43-5.937-6.137
		C0.622,4.767,0.333,4.449,0.854,4.27"/>
</g>
<polygon style="fill:#E60E0C;stroke:#000000;stroke-width:0.5;" points="15.357,6.189 13.583,4.416 15.356,2.643 13.066,0.354 
	11.293,2.126 9.521,0.354 7.231,2.643 9.003,4.416 7.231,6.188 9.521,8.478 11.293,6.706 13.067,8.479 "/>
</svg>
