<?xml version="1.0" encoding="iso-8859-1"?>
<!-- Generator: Adobe Illustrator 12.0.1, SVG Export Plug-In . SVG Version: 6.00 Build 51448)  -->
<!DOCTYPE svg PUBLIC "-//W3C//DTD SVG 1.1//EN" "http://www.w3.org/Graphics/SVG/1.1/DTD/svg11.dtd" [
	<!ENTITY ns_svg "http://www.w3.org/2000/svg">
	<!ENTITY ns_xlink "http://www.w3.org/1999/xlink">
]>
<svg  version="1.1" id="&#x56FE;&#x5C42;_1" xmlns="&ns_svg;" xmlns:xlink="&ns_xlink;" width="32.167" height="24.189"
	 viewBox="0 0 32.167 24.189" style="overflow:visible;enable-background:new 0 0 32.167 24.189;" xml:space="preserve">
<g>
	<g>
		<path style="fill:#8F4E46;" d="M27.789,2.654H1.336C0.602,2.654,0,3.303,0,4.094v17.582c0,0.793,0.602,1.439,1.336,1.439h26.453
			c0.734,0,1.336-0.646,1.336-1.439V4.094C29.125,3.303,28.523,2.654,27.789,2.654z"/>
		<path style="fill:#FDCD00;" d="M26.953,3.529H2.068c-0.693,0-1.258,0.596-1.258,1.322v16.164c0,0.729,0.564,1.322,1.258,1.322
			h24.885c0.691,0,1.258-0.594,1.258-1.322V4.852C28.211,4.125,27.645,3.529,26.953,3.529z"/>
		<linearGradient id="XMLID_5_" gradientUnits="userSpaceOnUse" x1="0.8853" y1="2.8472" x2="31.2125" y2="25.1698">
			<stop  offset="0" style="stop-color:#F7D450"/>
			<stop  offset="1" style="stop-color:#E7B11A"/>
		</linearGradient>
		<path style="fill:url(#XMLID_5_);" d="M26.953,3.471H2.068c-0.693,0-1.258,0.596-1.258,1.324v16.162
			c0,0.729,0.564,1.324,1.258,1.324h24.885c0.691,0,1.258-0.596,1.258-1.324V4.795C28.211,4.066,27.645,3.471,26.953,3.471z
			 M27.322,20.207c0,0.66-0.529,1.199-1.176,1.199H2.873c-0.646,0-1.176-0.539-1.176-1.199V5.545c0-0.66,0.529-1.199,1.176-1.199
			h23.273c0.646,0,1.176,0.539,1.176,1.199V20.207z"/>
		<polygon style="fill:#FDCD00;" points="0.699,5.586 11.076,15.928 17.795,15.93 28.357,5.664 28.32,4.77 17.422,15.385 
			11.299,15.385 0.736,4.887 		"/>
		<polygon style="fill:#8F4E46;" points="0.699,5.119 11.076,15.461 17.795,15.463 28.357,5.197 28.32,4.303 17.422,14.918 
			11.299,14.918 0.736,4.418 		"/>
		<polygon style="fill:#8F4E46;" points="28.232,22.459 17.855,15.006 11.137,15.004 0.574,22.402 0.797,22.834 11.51,15.396 
			17.633,15.396 28.195,22.965 		"/>
	</g>
	<g>
		<polygon style="fill:#8F4E46;" points="29.216,17.309 29.216,0 8.268,0 8.268,23.633 22.296,23.633 		"/>
		<linearGradient id="XMLID_6_" gradientUnits="userSpaceOnUse" x1="17.7378" y1="6.0732" x2="20.4325" y2="20.5165">
			<stop  offset="0" style="stop-color:#F3E1BE"/>
			<stop  offset="1" style="stop-color:#EAE6BA"/>
		</linearGradient>
		<polygon style="fill:url(#XMLID_6_);" points="28.748,16.994 28.748,0.502 8.848,0.502 8.848,23.016 22.174,23.016 		"/>
		<linearGradient id="XMLID_7_" gradientUnits="userSpaceOnUse" x1="26.0063" y1="20.96" x2="22.362" y2="17.3156">
			<stop  offset="0" style="stop-color:#DAC675"/>
			<stop  offset="1" style="stop-color:#EAE6BA"/>
		</linearGradient>
		<polygon style="opacity:0.37;fill:url(#XMLID_7_);" points="22.048,17.215 28.304,17.215 22.24,23.004 22.018,23.014 		"/>
		<linearGradient id="XMLID_8_" gradientUnits="userSpaceOnUse" x1="26.333" y1="20.8418" x2="22.5913" y2="17.1001">
			<stop  offset="0" style="stop-color:#DAC98C"/>
			<stop  offset="1" style="stop-color:#EAE6BA"/>
		</linearGradient>
		<polygon style="fill:url(#XMLID_8_);" points="22.262,17.004 28.686,17.004 22.24,22.939 		"/>
		<rect x="10.501" y="10.162" style="fill:#8F4E46;" width="16.701" height="1.711"/>
		<rect x="10.501" y="7.207" style="fill:#8F4E46;" width="16.701" height="1.711"/>
		<rect x="10.501" y="4.221" style="fill:#8F4E46;" width="16.701" height="1.709"/>
	</g>
	<g>
		<polygon style="fill:#8F4E46;" points="32.167,7.16 25.535,5.113 21.113,18.898 22.759,23.943 23.518,24.189 27.723,21.082 		"/>
		<polygon style="fill:#D99F6C;" points="23.707,23.658 22.991,23.424 21.615,18.676 27.483,20.557 		"/>
		<polygon style="fill:#E8B883;" points="23.632,19.482 21.635,18.813 23.012,23.391 		"/>
		<polygon style="fill:#D28E51;" points="27.465,20.688 25.973,19.303 23.739,23.633 		"/>
		<polygon style="fill:#E85105;" points="27.465,20.688 21.596,18.807 25.789,5.502 31.659,7.385 		"/>
		<polygon style="fill:#A84125;" points="31.659,7.385 29.796,6.787 25.606,20.072 27.465,20.688 		"/>
		<polygon style="fill:#D03F19;" points="29.832,6.779 27.896,6.158 23.715,19.447 25.646,20.086 		"/>
	</g>
</g>
</svg>
