<?xml version="1.0" encoding="iso-8859-1"?>
<!-- Generator: Adobe Illustrator 12.0.1, SVG Export Plug-In . SVG Version: 6.00 Build 51448)  -->
<!DOCTYPE svg PUBLIC "-//W3C//DTD SVG 1.1//EN" "http://www.w3.org/Graphics/SVG/1.1/DTD/svg11.dtd" [
	<!ENTITY ns_svg "http://www.w3.org/2000/svg">
	<!ENTITY ns_xlink "http://www.w3.org/1999/xlink">
]>
<svg  version="1.1" id="&#x56FE;&#x5C42;_1" xmlns="&ns_svg;" xmlns:xlink="&ns_xlink;" width="15.208" height="15.202"
	 viewBox="0 0 15.208 15.202" style="overflow:visible;enable-background:new 0 0 15.208 15.202;" xml:space="preserve">
<g>
	<path style="fill:#FDCE12;stroke:#492407;stroke-width:0.25;" d="M14.53,13.871c-0.2-4.596-0.39-9.435-0.39-9.435
		s0.185-1.035-0.788-1.142C12.401,3.188,1.349,3.269,1.349,3.269S0.244,3.136,0.165,4.422c-0.083,1.34-0.022,8.552,0.062,9.49
		c0.083,0.916,0.097,1.066,1.086,1.076c1.604,0.016,10.121,0.162,11.876,0.043C14.221,14.96,14.56,14.609,14.53,13.871z"/>
	<path style="fill:none;stroke:#7C4707;stroke-width:0.25;" d="M14.223,14.777c0,0-3.299-4.751-4.142-5.915"/>
	<path style="fill:none;stroke:#7C4707;stroke-width:0.25;" d="M5.562,8.805c0,0-3.483,4.201-5.079,6.009"/>
	
		<linearGradient id="XMLID_3_" gradientUnits="userSpaceOnUse" x1="1070.3921" y1="19.2896" x2="1084.3489" y2="32.5114" gradientTransform="matrix(-0.5253 -0.1796 -0.1795 0.5253 581.1106 185.0167)">
		<stop  offset="0" style="stop-color:#FFFFFF"/>
		<stop  offset="0.1032" style="stop-color:#FFFDEF"/>
		<stop  offset="0.3036" style="stop-color:#FDF9C7"/>
		<stop  offset="0.581" style="stop-color:#FBF285"/>
		<stop  offset="0.9217" style="stop-color:#F9E82C"/>
		<stop  offset="1" style="stop-color:#F8E616"/>
	</linearGradient>
	<path style="fill:url(#XMLID_3_);" d="M13.441,3.776c0,0-4.049-0.15-7.24-0.011c0,0,3.875,1.78,3.551,5.049
		c0,0,2.63-2.896,3.567-4.183C13.503,4.377,13.892,3.886,13.441,3.776z"/>
	<path style="fill:#D1720E;" d="M13.813,14.431C6.067,14.667,2.016,14.746,0.955,14.39c-0.075,0.008-0.381,0.447-0.374,0.449
		c0.05,0.031,13.139,0.633,13.453-0.094C14.039,14.757,13.941,14.574,13.813,14.431z"/>
	<path style="fill:#D1720E;" d="M0.495,3.722c0,0,0.158,0.204,0.366,0.412C0.532,8.675,0.784,14.376,0.784,14.376
		s-0.181,0.174-0.342,0.379C0.125,15.136-0.107,3.884,0.495,3.722z"/>
	<path style="fill:#D1720E;" d="M9.144,10.004c-0.982,0.99-1.178,1.564-3.041-0.576C2.958,5.816,1.807,4.957,0.87,4.105
		C0.342,3.623,0.548,4.117,0.785,4.656c1.457,1.264,4.09,4.18,5.705,5.867C8.024,12.129,9.164,9.986,9.144,10.004z"/>
	<path style="fill:none;stroke:#7C4707;stroke-width:0.25;" d="M14.025,3.859c0,0,0.089,0.143-0.572,1.099
		c-0.638,0.923-3.756,4.344-4.806,5.435c-0.657,0.685-1.105,0.538-1.793-0.24c-0.686-0.781-5.025-5.43-5.937-6.138
		C0.622,3.786,0.333,3.468,0.854,3.289"/>
</g>
<g>
	<linearGradient id="XMLID_4_" gradientUnits="userSpaceOnUse" x1="10.9575" y1="10.917" x2="10.9575" y2="0.5005">
		<stop  offset="0" style="stop-color:#E5E3DE"/>
		<stop  offset="0" style="stop-color:#E1E2CF"/>
		<stop  offset="0" style="stop-color:#D5DFA8"/>
		<stop  offset="0" style="stop-color:#C3DB69"/>
		<stop  offset="0" style="stop-color:#A9D513"/>
		<stop  offset="0" style="stop-color:#A9D512"/>
		<stop  offset="0.5471" style="stop-color:#C5DF0B"/>
		<stop  offset="1" style="stop-color:#DFE904"/>
	</linearGradient>
	<polygon style="fill:url(#XMLID_4_);stroke:#000000;stroke-width:0.5;" points="10.888,0.25 6.958,0.25 6.958,11.167 
		14.958,11.167 14.958,4.581 	"/>
	<polygon style="fill:#DDEE08;stroke:#000000;stroke-width:0.25;" points="10.768,0.656 10.986,4.926 14.876,5.001 	"/>
</g>
</svg>
