<?xml version="1.0" encoding="iso-8859-1"?>
<!-- Generator: Adobe Illustrator 12.0.1, SVG Export Plug-In . SVG Version: 6.00 Build 51448)  -->
<!DOCTYPE svg PUBLIC "-//W3C//DTD SVG 1.1//EN" "http://www.w3.org/Graphics/SVG/1.1/DTD/svg11.dtd" [
	<!ENTITY ns_svg "http://www.w3.org/2000/svg">
	<!ENTITY ns_xlink "http://www.w3.org/1999/xlink">
]>
<svg  version="1.1" id="&#x56FE;&#x5C42;_1" xmlns="&ns_svg;" xmlns:xlink="&ns_xlink;" width="14.657" height="15.833"
	 viewBox="0 0 14.657 15.833" style="overflow:visible;enable-background:new 0 0 14.657 15.833;" xml:space="preserve">
<g>
	<path style="fill:#FDCE12;stroke:#492407;stroke-width:0.25;" d="M14.53,14.5c-0.2-4.596-0.39-9.434-0.39-9.434
		s0.185-1.034-0.788-1.142C12.401,3.818,1.35,3.899,1.35,3.899S0.244,3.767,0.165,5.052c-0.083,1.34-0.022,8.553,0.062,9.491
		c0.083,0.916,0.097,1.066,1.086,1.076c1.604,0.016,10.121,0.162,11.876,0.043C14.222,15.59,14.561,15.24,14.53,14.5z"/>
	<path style="fill:none;stroke:#7C4707;stroke-width:0.25;" d="M14.224,15.408c0,0-3.299-4.752-4.142-5.916"/>
	<path style="fill:none;stroke:#7C4707;stroke-width:0.25;" d="M5.563,9.436c0,0-3.483,4.201-5.078,6.01"/>
	
		<linearGradient id="XMLID_2_" gradientUnits="userSpaceOnUse" x1="1023.4072" y1="14.8457" x2="1037.3629" y2="28.0665" gradientTransform="matrix(-0.5253 -0.1796 -0.1795 0.5253 555.6324 179.5436)">
		<stop  offset="0" style="stop-color:#FFFFFF"/>
		<stop  offset="0.1032" style="stop-color:#FFFDEF"/>
		<stop  offset="0.3036" style="stop-color:#FDF9C7"/>
		<stop  offset="0.581" style="stop-color:#FBF285"/>
		<stop  offset="0.9217" style="stop-color:#F9E82C"/>
		<stop  offset="1" style="stop-color:#F8E616"/>
	</linearGradient>
	<path style="fill:url(#XMLID_2_);" d="M13.441,4.406c0,0-4.049-0.149-7.24-0.011c0,0,3.875,1.78,3.551,5.05
		c0,0,2.63-2.897,3.567-4.184C13.504,5.007,13.893,4.517,13.441,4.406z"/>
	<path style="fill:#D1720E;" d="M13.813,15.061c-7.746,0.238-11.797,0.316-12.858-0.039c-0.075,0.006-0.381,0.445-0.373,0.449
		c0.049,0.029,13.139,0.633,13.452-0.094C14.039,15.387,13.941,15.205,13.813,15.061z"/>
	<path style="fill:#D1720E;" d="M0.495,4.352c0,0,0.158,0.204,0.366,0.411C0.532,9.305,0.784,15.006,0.784,15.006
		s-0.181,0.176-0.343,0.379C0.126,15.768-0.106,4.514,0.495,4.352z"/>
	<path style="fill:#D1720E;" d="M9.145,10.635c-0.982,0.99-1.178,1.564-3.041-0.576C2.958,6.447,1.807,5.587,0.871,4.736
		C0.343,4.253,0.549,4.748,0.785,5.287c1.457,1.264,4.09,4.18,5.705,5.868C8.024,12.76,9.164,10.617,9.145,10.635z"/>
	<path style="fill:none;stroke:#7C4707;stroke-width:0.25;" d="M14.025,4.49c0,0,0.089,0.143-0.572,1.099
		c-0.638,0.923-3.756,4.345-4.806,5.435c-0.657,0.684-1.105,0.537-1.793-0.24c-0.686-0.781-5.024-5.43-5.937-6.138
		C0.622,4.416,0.333,4.099,0.854,3.919"/>
</g>
<path style="fill:#76CBE0;stroke:#000000;stroke-width:0.5;" d="M5.064,3.59c0,0,3.563-5.813,7.188-0.75l1.938-2.188l0.063,6.375
	L7.939,7.09l1.875-2c-1.75-3.438-3.842-1.067-3.563-1.375L5.064,3.59z"/>
</svg>
