<?xml version="1.0" encoding="iso-8859-1"?>
<!-- Generator: Adobe Illustrator 12.0.1, SVG Export Plug-In . SVG Version: 6.00 Build 51448)  -->
<!DOCTYPE svg PUBLIC "-//W3C//DTD SVG 1.1//EN" "http://www.w3.org/Graphics/SVG/1.1/DTD/svg11.dtd" [
	<!ENTITY ns_svg "http://www.w3.org/2000/svg">
	<!ENTITY ns_xlink "http://www.w3.org/1999/xlink">
]>
<svg  version="1.1" id="&#x56FE;&#x5C42;_1" xmlns="&ns_svg;" xmlns:xlink="&ns_xlink;" width="14.657" height="15.243"
	 viewBox="0 0 14.657 15.243" style="overflow:visible;enable-background:new 0 0 14.657 15.243;" xml:space="preserve">
<g>
	<path style="fill:#FDCE12;stroke:#492407;stroke-width:0.25;" d="M14.53,13.911c-0.2-4.596-0.39-9.434-0.39-9.434
		s0.185-1.035-0.788-1.142C12.401,3.229,1.35,3.31,1.35,3.31S0.244,3.177,0.165,4.463c-0.083,1.34-0.022,8.553,0.062,9.49
		c0.083,0.916,0.097,1.066,1.086,1.076c1.604,0.016,10.121,0.162,11.876,0.043C14.222,15.001,14.561,14.65,14.53,13.911z"/>
	<path style="fill:none;stroke:#7C4707;stroke-width:0.25;" d="M14.224,14.818c0,0-3.299-4.752-4.142-5.916"/>
	<path style="fill:none;stroke:#7C4707;stroke-width:0.25;" d="M5.563,8.846c0,0-3.483,4.201-5.078,6.01"/>
	
		<linearGradient id="XMLID_2_" gradientUnits="userSpaceOnUse" x1="1052.0156" y1="15.5439" x2="1065.9713" y2="28.7648" gradientTransform="matrix(-0.5253 -0.1796 -0.1795 0.5253 570.7855 183.725)">
		<stop  offset="0" style="stop-color:#FFFFFF"/>
		<stop  offset="0.1032" style="stop-color:#FFFDEF"/>
		<stop  offset="0.3036" style="stop-color:#FDF9C7"/>
		<stop  offset="0.581" style="stop-color:#FBF285"/>
		<stop  offset="0.9217" style="stop-color:#F9E82C"/>
		<stop  offset="1" style="stop-color:#F8E616"/>
	</linearGradient>
	<path style="fill:url(#XMLID_2_);" d="M13.441,3.817c0,0-4.049-0.15-7.24-0.011c0,0,3.875,1.78,3.551,5.049
		c0,0,2.63-2.896,3.567-4.183C13.504,4.418,13.893,3.927,13.441,3.817z"/>
	<path style="fill:#D1720E;" d="M13.813,14.472c-7.746,0.237-11.797,0.315-12.858-0.04c-0.075,0.007-0.381,0.446-0.373,0.449
		c0.049,0.03,13.139,0.633,13.452-0.094C14.039,14.798,13.941,14.615,13.813,14.472z"/>
	<path style="fill:#D1720E;" d="M0.495,3.763c0,0,0.158,0.204,0.366,0.412C0.532,8.716,0.784,14.417,0.784,14.417
		s-0.181,0.175-0.343,0.379C0.126,15.178-0.106,3.925,0.495,3.763z"/>
	<path style="fill:#D1720E;" d="M9.145,10.045c-0.982,0.99-1.178,1.564-3.041-0.576C2.958,5.857,1.807,4.998,0.871,4.146
		C0.343,3.664,0.549,4.158,0.785,4.697c1.457,1.264,4.09,4.18,5.705,5.867C8.024,12.17,9.164,10.027,9.145,10.045z"/>
	<path style="fill:none;stroke:#7C4707;stroke-width:0.25;" d="M14.025,3.9c0,0,0.089,0.143-0.572,1.099
		c-0.638,0.923-3.756,4.344-4.806,5.435c-0.657,0.685-1.105,0.538-1.793-0.24C6.169,9.412,1.83,4.763,0.918,4.056
		C0.622,3.827,0.333,3.509,0.854,3.33"/>
</g>
<polygon style="fill:#EC2F2F;stroke:#000000;stroke-width:0.5;" points="9.814,2.5 9.814,0.25 4.939,0.25 4.939,2.5 2.621,2.5 
	7.377,6.938 12.133,2.5 "/>
</svg>
