<?xml version="1.0" encoding="iso-8859-1"?>
<!-- Generator: Adobe Illustrator 12.0.1, SVG Export Plug-In . SVG Version: 6.00 Build 51448)  -->
<!DOCTYPE svg PUBLIC "-//W3C//DTD SVG 1.1//EN" "http://www.w3.org/Graphics/SVG/1.1/DTD/svg11.dtd" [
	<!ENTITY ns_svg "http://www.w3.org/2000/svg">
	<!ENTITY ns_xlink "http://www.w3.org/1999/xlink">
]>
<svg  version="1.1" id="&#x56FE;&#x5C42;_1" xmlns="&ns_svg;" xmlns:xlink="&ns_xlink;" width="34.52" height="30.236"
	 viewBox="0 0 34.52 30.236" style="overflow:visible;enable-background:new 0 0 34.52 30.236;" xml:space="preserve">
<g>
	<g>
		<path style="fill:#753E38;" d="M22.474,0.21C21.07,0.451,5.823,4.052,5.823,4.052c-7.072,1.776-5.665,10.142-5.78,20.201
			l18.041,4.158l16.417-7.833C34.751,5.703,31.501-1.339,22.474,0.21z"/>
		<linearGradient id="XMLID_3_" gradientUnits="userSpaceOnUse" x1="21.6689" y1="25.854" x2="18.9901" y2="0.6411">
			<stop  offset="0" style="stop-color:#F6A900"/>
			<stop  offset="1" style="stop-color:#FED600"/>
		</linearGradient>
		<path style="fill:url(#XMLID_3_);" d="M33.332,19.703C33.251,5.953,30.175-0.306,22.297,1.137
			C20.827,1.444,6.751,4.828,6.751,4.828l10.667,20.167l0.583,1.896L33.332,19.703z"/>
		<path style="opacity:0.25;fill:#FFFFFF;" d="M18.611,14.854c-0.14-5.787-4.453-10.434-9.22-10.543
			c-4.162-0.097-7.405,3.341-7.806,7.872L1.339,22.977l16.921,3.786l0.46-0.247C18.72,26.516,18.62,15.265,18.611,14.854z"/>
		<path style="fill:#F4D719;" d="M17.899,14.876C17.764,9.124,13.533,4.503,8.856,4.396C4.773,4.3,1.591,7.718,1.197,12.223
			L0.953,22.956l17.156,3.883C18.109,26.839,17.908,15.285,17.899,14.876z"/>
		<linearGradient id="XMLID_4_" gradientUnits="userSpaceOnUse" x1="1.1816" y1="15.7827" x2="17.5879" y2="15.7827">
			<stop  offset="0" style="stop-color:#F6A900"/>
			<stop  offset="1" style="stop-color:#FED600"/>
		</linearGradient>
		<path style="fill:url(#XMLID_4_);" d="M1.77,13.619c0.362-4.309,3.275-7.579,7.01-7.49c4.277,0.101,8.145,4.516,8.265,10.018
			c0.006,0.313,0.121,7.442,0.167,10.283l0.377,0.085c0,0-0.192-11.048-0.201-11.439c-0.13-5.501-4.175-9.919-8.647-10.022
			C4.835,4.961,1.791,8.23,1.415,12.538L1.182,22.802l0.381,0.087L1.77,13.619z"/>
		<polygon style="fill:#5E2F2A;" points="15.983,18.893 2.466,16.646 2.727,13.598 15.788,15.138 		"/>
	</g>
	<g>
		<path style="fill:#512722;" d="M9.115,20.848l11.501,9.23c0.426,0.344,0.771,0.107,0.771-0.516l-0.01-4.279l12.226-0.025
			c0.504-0.001,0.918-0.516,0.917-1.139l-0.016-7.22c-0.001-0.626-0.416-1.138-0.922-1.136l-12.225,0.025l-0.01-4.678
			c0-0.626-0.35-0.864-0.777-0.529L9.119,19.618C8.693,19.953,8.689,20.506,9.115,20.848z"/>
		<path style="fill:#75BC2E;" d="M10.074,20.822l9.905,8.164c0.364,0.301,0.662,0.095,0.662-0.457l-0.009-3.784l12.422-0.025
			c0.436-0.001,0.791-0.455,0.79-1.007l-0.014-6.383c-0.001-0.555-0.358-1.007-0.793-1.006l-12.423,0.026l-0.008-4.137
			c-0.002-0.554-0.303-0.763-0.67-0.466l-9.859,7.987C9.711,20.031,9.708,20.521,10.074,20.822z"/>
	</g>
</g>
</svg>
