<?xml version="1.0" encoding="iso-8859-1"?>
<!-- Generator: Adobe Illustrator 12.0.1, SVG Export Plug-In . SVG Version: 6.00 Build 51448)  -->
<!DOCTYPE svg PUBLIC "-//W3C//DTD SVG 1.1//EN" "http://www.w3.org/Graphics/SVG/1.1/DTD/svg11.dtd" [
	<!ENTITY ns_svg "http://www.w3.org/2000/svg">
	<!ENTITY ns_xlink "http://www.w3.org/1999/xlink">
]>
<svg  version="1.1" id="&#x56FE;&#x5C42;_1" xmlns="&ns_svg;" xmlns:xlink="&ns_xlink;" width="39.951" height="29.68"
	 viewBox="0 0 39.951 29.68" style="overflow:visible;enable-background:new 0 0 39.951 29.68;" xml:space="preserve">
<g>
	<g>
		<path style="fill:#753E38;" d="M27.91,0.21c-1.403,0.241-16.65,3.842-16.65,3.842c-7.072,1.776-5.665,10.142-5.78,20.202
			l18.041,4.158l16.417-7.834C40.188,5.703,36.938-1.339,27.91,0.21z"/>
		<linearGradient id="XMLID_3_" gradientUnits="userSpaceOnUse" x1="27.105" y1="25.854" x2="24.4261" y2="0.6411">
			<stop  offset="0" style="stop-color:#F6A900"/>
			<stop  offset="1" style="stop-color:#FED600"/>
		</linearGradient>
		<path style="fill:url(#XMLID_3_);" d="M38.769,19.704C38.688,5.953,35.611-0.306,27.733,1.137
			c-1.47,0.307-15.546,3.691-15.546,3.691l10.667,20.166l0.583,1.896L38.769,19.704z"/>
		<path style="opacity:0.25;fill:#FFFFFF;" d="M24.048,14.854c-0.14-5.787-4.453-10.434-9.22-10.543
			c-4.162-0.097-7.405,3.341-7.806,7.872L6.775,22.977l16.921,3.786l0.46-0.248C24.156,26.515,24.057,15.265,24.048,14.854z"/>
		<path style="fill:#F4D719;" d="M23.336,14.876C23.2,9.124,18.97,4.503,14.293,4.396C10.21,4.3,7.027,7.718,6.634,12.223
			L6.39,22.956l17.156,3.883C23.546,26.839,23.345,15.285,23.336,14.876z"/>
		<linearGradient id="XMLID_4_" gradientUnits="userSpaceOnUse" x1="6.6182" y1="15.7827" x2="23.0244" y2="15.7827">
			<stop  offset="0" style="stop-color:#F6A900"/>
			<stop  offset="1" style="stop-color:#FED600"/>
		</linearGradient>
		<path style="fill:url(#XMLID_4_);" d="M7.206,13.619c0.362-4.309,3.275-7.579,7.01-7.49c4.277,0.101,8.145,4.516,8.265,10.018
			c0.006,0.313,0.121,7.442,0.167,10.283l0.377,0.086c0,0-0.192-11.049-0.201-11.44c-0.13-5.501-4.175-9.919-8.647-10.022
			c-3.904-0.091-6.948,3.177-7.324,7.485L6.618,22.802l0.381,0.086L7.206,13.619z"/>
		<polygon style="fill:#5E2F2A;" points="21.42,18.893 7.902,16.646 8.163,13.598 21.225,15.138 		"/>
	</g>
	<g>
		<path style="fill:#512722;" d="M14.752,16.34c-0.957-0.558-1.745-0.11-1.752,1l-0.015,2.779c-5.162-1.225-6.632-2.833-6.632-5.249
			c0-0.253,0.041-1.019,0.114-1.265l-0.239-3.026C2.591,12.268,0,14.288,0,17.331c0,4.089,4.588,7.284,12.935,8.601l0.005,2.499
			c-0.005,1.107,0.779,1.566,1.743,1.016l9.646-5.492c0.767-0.437,0.917-1.097,0.469-1.631L14.752,16.34z"/>
		<path style="fill:#75BC2E;" d="M15.012,16.922c-0.846-0.494-1.545-0.097-1.55,0.885l-0.013,2.462
			c-4.567-1.085-7.599-2.96-7.599-5.101c0-0.225,0.039-0.445,0.104-0.664v-2.927c-3.219,1.497-5.194,3.508-5.194,5.723
			c0,3.622,5.277,6.704,12.662,7.87l-0.013,2.462c-0.005,0.98,0.688,1.387,1.542,0.899l8.534-4.866
			c0.677-0.386,0.811-0.971,0.413-1.444L15.012,16.922z"/>
	</g>
</g>
</svg>
