<?xml version="1.0" encoding="iso-8859-1"?>
<!-- Generator: Adobe Illustrator 12.0.1, SVG Export Plug-In . SVG Version: 6.00 Build 51448)  -->
<!DOCTYPE svg PUBLIC "-//W3C//DTD SVG 1.1//EN" "http://www.w3.org/Graphics/SVG/1.1/DTD/svg11.dtd" [
	<!ENTITY ns_svg "http://www.w3.org/2000/svg">
	<!ENTITY ns_xlink "http://www.w3.org/1999/xlink">
]>
<svg  version="1.1" id="&#x56FE;&#x5C42;_1" xmlns="&ns_svg;" xmlns:xlink="&ns_xlink;" width="14.657" height="15.319"
	 viewBox="0 0 14.657 15.319" style="overflow:visible;enable-background:new 0 0 14.657 15.319;" xml:space="preserve">
<g>
	<path style="fill:#FDCE12;stroke:#492407;stroke-width:0.25;" d="M14.53,13.987c-0.2-4.596-0.39-9.434-0.39-9.434
		s0.185-1.035-0.788-1.142C12.401,3.305,1.349,3.386,1.349,3.386S0.244,3.253,0.165,4.539c-0.083,1.34-0.022,8.553,0.062,9.49
		c0.083,0.916,0.097,1.066,1.086,1.076c1.604,0.016,10.121,0.162,11.876,0.043C14.221,15.077,14.56,14.727,14.53,13.987z"/>
	<path style="fill:none;stroke:#7C4707;stroke-width:0.25;" d="M14.223,14.895c0,0-3.299-4.752-4.142-5.916"/>
	<path style="fill:none;stroke:#7C4707;stroke-width:0.25;" d="M5.562,8.922c0,0-3.483,4.201-5.078,6.01"/>
	
		<linearGradient id="XMLID_2_" gradientUnits="userSpaceOnUse" x1="1067.4565" y1="19.1035" x2="1081.4122" y2="32.3243" gradientTransform="matrix(-0.5253 -0.1796 -0.1795 0.5253 579.5352 184.7048)">
		<stop  offset="0" style="stop-color:#FFFFFF"/>
		<stop  offset="0.1032" style="stop-color:#FFFDEF"/>
		<stop  offset="0.3036" style="stop-color:#FDF9C7"/>
		<stop  offset="0.581" style="stop-color:#FBF285"/>
		<stop  offset="0.9217" style="stop-color:#F9E82C"/>
		<stop  offset="1" style="stop-color:#F8E616"/>
	</linearGradient>
	<path style="fill:url(#XMLID_2_);" d="M13.441,3.893c0,0-4.049-0.15-7.24-0.011c0,0,3.875,1.78,3.551,5.049
		c0,0,2.63-2.896,3.567-4.183C13.503,4.495,13.892,4.003,13.441,3.893z"/>
	<path style="fill:#D1720E;" d="M13.813,14.548c-7.746,0.237-11.797,0.315-12.858-0.04c-0.075,0.007-0.381,0.446-0.373,0.449
		c0.049,0.03,13.139,0.633,13.452-0.094C14.039,14.874,13.941,14.691,13.813,14.548z"/>
	<path style="fill:#D1720E;" d="M0.495,3.839c0,0,0.158,0.204,0.366,0.412C0.532,8.792,0.784,14.493,0.784,14.493
		s-0.181,0.175-0.343,0.379C0.125,15.254-0.107,4.001,0.495,3.839z"/>
	<path style="fill:#D1720E;" d="M9.144,10.121c-0.982,0.99-1.178,1.564-3.041-0.576C2.958,5.934,1.806,5.074,0.871,4.222
		C0.342,3.74,0.548,4.234,0.785,4.773c1.457,1.264,4.09,4.18,5.705,5.867C8.024,12.246,9.164,10.104,9.144,10.121z"/>
	<path style="fill:none;stroke:#7C4707;stroke-width:0.25;" d="M14.025,3.976c0,0,0.089,0.143-0.572,1.099
		C12.815,5.999,9.697,9.42,8.647,10.51c-0.657,0.685-1.105,0.538-1.793-0.24C6.168,9.488,1.83,4.839,0.917,4.132
		C0.622,3.903,0.333,3.585,0.854,3.406"/>
</g>
<g>
	<path style="fill:#FFF200;stroke:#11100F;stroke-width:0.25;" d="M4.521,9.933c0,0-2.053,1.674-3.225,1.092l0,0
		c-1.173-0.583-1.018-3.201-1.018-3.201L4.328,0.13l1.561,0.099l1.828,0.969l0.891,1.161L4.521,9.933z"/>
	<polygon style="fill:#B86103;" points="4.427,9.972 3.158,9.104 7.701,1.26 8.623,2.416 	"/>
	<polygon style="fill:#CE800F;" points="3.276,9.148 1.382,8.218 5.873,0.291 7.701,1.26 	"/>
	<polygon style="fill:#F6BC45;" points="1.546,8.301 0.222,7.934 4.392,0.127 5.873,0.291 	"/>
	<polygon style="fill:#F9E2B8;" points="1.494,10.995 1.092,10.746 1.648,8.3 3.117,9.069 	"/>
	<polygon style="fill:#FAF7E9;" points="1.092,10.746 0.692,10.362 0.222,7.934 1.648,8.3 	"/>
	<polygon style="fill:#BCA584;" points="2.251,11.111 1.521,10.956 3.117,9.069 4.427,9.972 	"/>
	<polygon points="0.945,11.803 0.517,10.258 2.31,11.197 	"/>
</g>
</svg>
