<?xml version="1.0" encoding="iso-8859-1"?>
<!-- Generator: Adobe Illustrator 12.0.1, SVG Export Plug-In . SVG Version: 6.00 Build 51448)  -->
<!DOCTYPE svg PUBLIC "-//W3C//DTD SVG 1.1//EN" "http://www.w3.org/Graphics/SVG/1.1/DTD/svg11.dtd" [
	<!ENTITY ns_svg "http://www.w3.org/2000/svg">
	<!ENTITY ns_xlink "http://www.w3.org/1999/xlink">
]>
<svg  version="1.1" id="&#x56FE;&#x5C42;_1" xmlns="&ns_svg;" xmlns:xlink="&ns_xlink;" width="14.657" height="15.104"
	 viewBox="0 0 14.657 15.104" style="overflow:visible;enable-background:new 0 0 14.657 15.104;" xml:space="preserve">
<g>
	<path style="fill:#FDCE12;stroke:#492407;stroke-width:0.25;" d="M14.53,13.773c-0.2-4.596-0.39-9.435-0.39-9.435
		s0.185-1.035-0.788-1.142C12.401,3.09,1.349,3.171,1.349,3.171S0.244,3.039,0.165,4.324c-0.083,1.34-0.022,8.552,0.062,9.49
		c0.083,0.916,0.097,1.066,1.086,1.076c1.604,0.016,10.121,0.162,11.876,0.043C14.221,14.863,14.56,14.511,14.53,13.773z"/>
	<path style="fill:none;stroke:#7C4707;stroke-width:0.25;" d="M14.223,14.679c0,0-3.299-4.751-4.142-5.915"/>
	<path style="fill:none;stroke:#7C4707;stroke-width:0.25;" d="M5.562,8.707c0,0-3.483,4.201-5.078,6.009"/>
	
		<linearGradient id="XMLID_2_" gradientUnits="userSpaceOnUse" x1="1070.2427" y1="19.6968" x2="1084.1995" y2="32.9187" gradientTransform="matrix(-0.5253 -0.1796 -0.1795 0.5253 581.1051 184.6785)">
		<stop  offset="0" style="stop-color:#FFFFFF"/>
		<stop  offset="0.1032" style="stop-color:#FFFDEF"/>
		<stop  offset="0.3036" style="stop-color:#FDF9C7"/>
		<stop  offset="0.581" style="stop-color:#FBF285"/>
		<stop  offset="0.9217" style="stop-color:#F9E82C"/>
		<stop  offset="1" style="stop-color:#F8E616"/>
	</linearGradient>
	<path style="fill:url(#XMLID_2_);" d="M13.441,3.678c0,0-4.049-0.15-7.24-0.011c0,0,3.875,1.78,3.551,5.049
		c0,0,2.63-2.896,3.567-4.183C13.503,4.28,13.892,3.789,13.441,3.678z"/>
	<path style="fill:#D1720E;" d="M13.813,14.333C6.067,14.57,2.016,14.648,0.955,14.292C0.879,14.3,0.574,14.74,0.582,14.742
		c0.049,0.031,13.139,0.633,13.452-0.094C14.039,14.66,13.941,14.476,13.813,14.333z"/>
	<path style="fill:#D1720E;" d="M0.495,3.624c0,0,0.158,0.204,0.366,0.412C0.532,8.577,0.784,14.279,0.784,14.279
		s-0.181,0.174-0.343,0.379C0.125,15.039-0.107,3.786,0.495,3.624z"/>
	<path style="fill:#D1720E;" d="M9.144,9.906c-0.982,0.99-1.178,1.564-3.041-0.576C2.958,5.719,1.806,4.859,0.871,4.007
		C0.342,3.525,0.548,4.02,0.785,4.559c1.457,1.264,4.09,4.18,5.705,5.867C8.024,12.031,9.164,9.889,9.144,9.906z"/>
	<path style="fill:none;stroke:#7C4707;stroke-width:0.25;" d="M14.025,3.761c0,0,0.089,0.143-0.572,1.099
		c-0.638,0.923-3.756,4.345-4.806,5.435c-0.657,0.685-1.105,0.538-1.793-0.24C6.168,9.273,1.83,4.625,0.917,3.917
		C0.622,3.688,0.333,3.371,0.854,3.191"/>
</g>
<g>
	<path style="fill:#FFF200;stroke:#11100F;stroke-width:0.25;" d="M4.538,9.922c0,0-2.008,1.726-3.194,1.174l0,0
		c-1.188-0.553-1.1-3.174-1.1-3.174l3.85-7.794l1.563,0.059l1.853,0.921l0.92,1.138L4.538,9.922z"/>
	<polygon style="fill:#B86103;" points="4.446,9.964 3.155,9.128 7.496,1.171 8.447,2.303 	"/>
	<polygon style="fill:#CE800F;" points="3.274,9.17 1.358,8.288 5.643,0.25 7.496,1.171 	"/>
	<polygon style="fill:#F6BC45;" points="1.523,8.367 0.19,8.034 4.159,0.123 5.643,0.25 	"/>
	<polygon style="fill:#F9E2B8;" points="1.54,11.063 1.132,10.823 1.625,8.364 3.113,9.095 	"/>
	<polygon style="fill:#FAF7E9;" points="1.132,10.823 0.722,10.45 0.19,8.034 1.625,8.364 	"/>
	<polygon style="fill:#BCA584;" points="2.3,11.158 1.566,11.023 3.113,9.095 4.446,9.964 	"/>
	<polygon points="1.012,11.884 0.544,10.35 2.36,11.242 	"/>
</g>
<g>
	<path style="fill:#FFF200;stroke:#11100F;stroke-width:0.25;" d="M9.772,10.26c0,0-2.052,1.673-3.224,1.092l0,0
		C5.375,10.769,5.529,8.15,5.529,8.15l4.049-7.693l1.561,0.099l1.828,0.969l0.891,1.161L9.772,10.26z"/>
	<polygon style="fill:#B86103;" points="9.678,10.299 8.409,9.431 12.952,1.587 13.874,2.743 	"/>
	<polygon style="fill:#CE800F;" points="8.527,9.476 6.634,8.545 11.124,0.618 12.952,1.587 	"/>
	<polygon style="fill:#F6BC45;" points="6.796,8.628 5.473,8.261 9.643,0.454 11.124,0.618 	"/>
	<polygon style="fill:#F9E2B8;" points="6.746,11.322 6.343,11.073 6.899,8.627 8.369,9.396 	"/>
	<polygon style="fill:#FAF7E9;" points="6.343,11.073 5.943,10.689 5.473,8.261 6.899,8.627 	"/>
	<polygon style="fill:#BCA584;" points="7.501,11.438 6.773,11.283 8.369,9.396 9.678,10.299 	"/>
	<polygon points="6.196,12.128 5.768,10.585 7.56,11.523 	"/>
</g>
</svg>
