<?xml version="1.0" encoding="iso-8859-1"?>
<!-- Generator: Adobe Illustrator 12.0.1, SVG Export Plug-In . SVG Version: 6.00 Build 51448)  -->
<!DOCTYPE svg PUBLIC "-//W3C//DTD SVG 1.1//EN" "http://www.w3.org/Graphics/SVG/1.1/DTD/svg11.dtd" [
	<!ENTITY ns_svg "http://www.w3.org/2000/svg">
	<!ENTITY ns_xlink "http://www.w3.org/1999/xlink">
]>
<svg  version="1.1" id="&#x56FE;&#x5C42;_1" xmlns="&ns_svg;" xmlns:xlink="&ns_xlink;" width="14.639" height="15.594"
	 viewBox="0 0 14.639 15.594" style="overflow:visible;enable-background:new 0 0 14.639 15.594;" xml:space="preserve">
<g>
	<path style="fill:#FDCE12;stroke:#492407;stroke-width:0.25;" d="M14.512,14.253c-0.075-4.599-0.19-9.372-0.19-9.372
		s0.053-1.04-0.789-1.142C12.581,3.634,1.331,3.652,1.331,3.652S0.226,3.52,0.146,4.805c-0.083,1.34,0.103,8.475,0.062,9.491
		c0.083,0.916,0.097,1.066,1.086,1.076c1.604,0.016,10.122,0.162,11.876,0.043C14.203,15.343,14.543,14.994,14.512,14.253z"/>
	<path style="fill:none;stroke:#7C4707;stroke-width:0.25;" d="M14.205,15.162c0,0-3.299-4.753-4.142-5.917"/>
	<path style="fill:none;stroke:#7C4707;stroke-width:0.25;" d="M5.544,9.188c0,0-3.483,4.202-5.078,6.011"/>
	
		<linearGradient id="XMLID_2_" gradientUnits="userSpaceOnUse" x1="1076.1689" y1="19.8647" x2="1090.4487" y2="33.3926" gradientTransform="matrix(-0.5253 -0.1796 -0.1795 0.5253 584.4132 186.0518)">
		<stop  offset="0" style="stop-color:#FFFFFF"/>
		<stop  offset="0.1032" style="stop-color:#FFFDEF"/>
		<stop  offset="0.3036" style="stop-color:#FDF9C7"/>
		<stop  offset="0.581" style="stop-color:#FBF285"/>
		<stop  offset="0.9217" style="stop-color:#F9E82C"/>
		<stop  offset="1" style="stop-color:#F8E616"/>
	</linearGradient>
	<path style="fill:url(#XMLID_2_);" d="M13.622,4.222c0,0-4.248-0.212-7.439-0.074c0,0,3.875,1.78,3.551,5.049
		c0,0,2.828-2.833,3.766-4.121C13.685,4.823,14.073,4.332,13.622,4.222z"/>
	<path style="fill:#D1720E;" d="M13.795,14.814C6.049,15.052,1.998,15.13,0.937,14.775c-0.075,0.006-0.381,0.445-0.373,0.449
		c0.474,0.284,13.106,0.71,13.452-0.094C14.021,15.14,13.924,14.958,13.795,14.814z"/>
	<path style="fill:#D1720E;" d="M0.437,4.061c0,0,0.261,0.248,0.469,0.456C0.576,9.058,0.828,14.759,0.828,14.759
		s-0.181,0.176-0.343,0.379C0.17,15.521-0.165,4.223,0.437,4.061z"/>
	<path style="fill:#D1720E;" d="M9.126,10.387c-0.982,0.99-1.178,1.564-3.041-0.576C2.939,6.2,1.788,5.34,0.853,4.488
		C0.324,4.006,0.53,4.5,0.767,5.04c1.457,1.264,4.09,4.18,5.705,5.867C8.006,12.512,9.146,10.37,9.126,10.387z"/>
	<path style="fill:none;stroke:#7C4707;stroke-width:0.25;" d="M14.218,4.217c0,0,0.076,0.23-0.584,1.187
		c-0.639,0.923-3.955,4.282-5.005,5.372c-0.657,0.685-1.105,0.538-1.793-0.24C6.15,9.754,1.812,5.105,0.899,4.398
		C0.604,4.169,0.314,3.852,0.836,3.672"/>
</g>
<polygon style="fill:#95CD17;stroke:#000000;stroke-width:0.5;" points="9.995,4.779 9.995,7.029 5.12,7.029 5.12,4.779 
	2.801,4.779 7.557,0.342 12.315,4.779 "/>
</svg>
