<?xml version="1.0" encoding="iso-8859-1"?>
<!-- Generator: Adobe Illustrator 12.0.1, SVG Export Plug-In . SVG Version: 6.00 Build 51448)  -->
<!DOCTYPE svg PUBLIC "-//W3C//DTD SVG 1.1//EN" "http://www.w3.org/Graphics/SVG/1.1/DTD/svg11.dtd" [
	<!ENTITY ns_svg "http://www.w3.org/2000/svg">
	<!ENTITY ns_xlink "http://www.w3.org/1999/xlink">
]>
<svg  version="1.1" id="&#x56FE;&#x5C42;_1" xmlns="&ns_svg;" xmlns:xlink="&ns_xlink;" width="32.908" height="32.633"
	 viewBox="0 0 32.908 32.633" style="overflow:visible;enable-background:new 0 0 32.908 32.633;" xml:space="preserve">
<g>
	<path style="fill:#8F4E46;" d="M26.68,6.396L0.997,12.731c-0.713,0.176-1.142,0.949-0.953,1.718l4.213,17.07
		c0.189,0.771,0.929,1.253,1.641,1.077l25.684-6.336c0.713-0.176,1.143-0.948,0.953-1.718l-4.213-17.07
		C28.133,6.704,27.393,6.22,26.68,6.396z"/>
	<path style="fill:#FDCD00;" d="M26.078,7.444l-24.16,5.962c-0.673,0.166-1.079,0.88-0.904,1.585l3.872,15.693
		c0.174,0.707,0.863,1.148,1.538,0.982l24.159-5.961c0.671-0.166,1.079-0.878,0.904-1.585L27.615,8.427
		C27.442,7.722,26.749,7.279,26.078,7.444z"/>
	
		<linearGradient id="XMLID_3_" gradientUnits="userSpaceOnUse" x1="-9.7139" y1="-25.4072" x2="20.6133" y2="-3.0846" gradientTransform="matrix(0.9709 -0.2395 0.2395 0.9709 16.1217 35.3675)">
		<stop  offset="0" style="stop-color:#F7D450"/>
		<stop  offset="1" style="stop-color:#E7B11A"/>
	</linearGradient>
	<path style="fill:url(#XMLID_3_);" d="M26.064,7.388l-24.16,5.961C1.23,13.515,0.825,14.229,1,14.937l3.871,15.691
		c0.175,0.707,0.865,1.15,1.539,0.984l24.16-5.961c0.671-0.166,1.078-0.88,0.903-1.588L27.603,8.372
		C27.428,7.665,26.735,7.222,26.064,7.388z M30.432,23.549c0.158,0.641-0.227,1.291-0.854,1.446L6.98,30.569
		c-0.627,0.155-1.27-0.242-1.428-0.883L2.04,15.452c-0.157-0.642,0.228-1.291,0.854-1.446L25.49,8.431
		c0.628-0.154,1.271,0.242,1.429,0.883L30.432,23.549z"/>
	<polygon style="fill:#FDCD00;" points="1.081,15.73 13.633,23.286 20.157,21.679 27.952,9.181 27.703,8.321 19.664,21.238 
		13.72,22.705 0.949,15.043 	"/>
	<polygon style="fill:#8F4E46;" points="0.97,15.277 13.521,22.833 20.045,21.225 27.841,8.728 27.591,7.868 19.553,20.785 
		13.607,22.252 0.837,14.588 	"/>
	<polygon style="fill:#8F4E46;" points="31.854,25.517 19.994,20.767 13.471,22.374 4.988,32.087 5.308,32.453 13.927,22.666 
		19.872,21.199 31.939,26.017 	"/>
</g>
<g>
	<linearGradient id="XMLID_4_" gradientUnits="userSpaceOnUse" x1="14.9717" y1="12.2207" x2="30.1526" y2="12.2207">
		<stop  offset="0" style="stop-color:#BCD400"/>
		<stop  offset="0.0468" style="stop-color:#B8D203"/>
		<stop  offset="0.4382" style="stop-color:#97C71A"/>
		<stop  offset="0.7643" style="stop-color:#82C029"/>
		<stop  offset="0.9831" style="stop-color:#7BBD2E"/>
	</linearGradient>
	<polygon style="fill:url(#XMLID_4_);stroke:#84532A;stroke-width:0.75;" points="18.049,16.777 18.069,11.75 13.81,11.434 
		13.825,22.378 17.473,23.05 32.353,7.354 32.508,1.391 	"/>
</g>
<rect x="0.367" style="fill:none;" width="32.125" height="32.125"/>
</svg>
