<?xml version="1.0" encoding="iso-8859-1"?>
<!-- Generator: Adobe Illustrator 12.0.1, SVG Export Plug-In . SVG Version: 6.00 Build 51448)  -->
<!DOCTYPE svg PUBLIC "-//W3C//DTD SVG 1.1//EN" "http://www.w3.org/Graphics/SVG/1.1/DTD/svg11.dtd" [
	<!ENTITY ns_svg "http://www.w3.org/2000/svg">
	<!ENTITY ns_xlink "http://www.w3.org/1999/xlink">
]>
<svg  version="1.1" id="&#xCD;_xBC__xB2_&#xE3;_x5F_1" xmlns="&ns_svg;" xmlns:xlink="&ns_xlink;" width="37.333" height="37.731"
	 viewBox="0 0 37.333 37.731" style="overflow:visible;enable-background:new 0 0 37.333 37.731;" xml:space="preserve">
<g>
	
		<linearGradient id="XMLID_12_" gradientUnits="userSpaceOnUse" x1="7.2827" y1="1.8433" x2="15.2437" y2="1.8433" gradientTransform="matrix(1 -0.0097 0.0097 1 -2.4473 3.0202)">
		<stop  offset="0" style="stop-color:#FEF6FA"/>
		<stop  offset="0.1136" style="stop-color:#EAE7EC"/>
		<stop  offset="0.3238" style="stop-color:#C5C8D1"/>
		<stop  offset="0.4101" style="stop-color:#B5BBC5"/>
		<stop  offset="0.6334" style="stop-color:#878F8F"/>
		<stop  offset="1" style="stop-color:#44564C"/>
	</linearGradient>
	<path style="fill:url(#XMLID_12_);stroke:#363639;stroke-width:0.25;" d="M12.162,1.992c1.267,1.32,0.567,2.989-1.346,4.666
		C8.903,8.334,6.981,9.138,5.716,7.816C4.448,6.495,4.515,4.019,6.429,2.341C8.343,0.664,10.896,0.671,12.162,1.992z"/>
	
		<linearGradient id="XMLID_13_" gradientUnits="userSpaceOnUse" x1="11.0483" y1="27.6411" x2="13.8433" y2="29.8018" gradientTransform="matrix(1 -0.0097 0.0097 1 -2.4473 3.0202)">
		<stop  offset="0" style="stop-color:#FEF6FA"/>
		<stop  offset="0.1136" style="stop-color:#EAE7EC"/>
		<stop  offset="0.3238" style="stop-color:#C5C8D1"/>
		<stop  offset="0.4101" style="stop-color:#B5BBC5"/>
		<stop  offset="0.6334" style="stop-color:#878F8F"/>
		<stop  offset="1" style="stop-color:#44564C"/>
	</linearGradient>
	<path style="fill:url(#XMLID_13_);stroke:#363639;stroke-width:0.25;" d="M10.679,36.096c-1.297,0.34-2.994-0.908-2.934-2.012
		c0.06-1.105,1.736-5.061,3.432-5.555c1.692-0.496,2.864,0.287,2.973,1.832C14.259,31.909,12.318,35.667,10.679,36.096z"/>
	
		<linearGradient id="XMLID_14_" gradientUnits="userSpaceOnUse" x1="27.8423" y1="1.021" x2="24.4116" y2="29.9737" gradientTransform="matrix(1 -0.0097 0.0095 0.981 -2.5804 3.4395)">
		<stop  offset="0" style="stop-color:#E86D27"/>
		<stop  offset="0.1041" style="stop-color:#E9712B"/>
		<stop  offset="0.2466" style="stop-color:#EC7D39"/>
		<stop  offset="0.4112" style="stop-color:#F09150"/>
		<stop  offset="0.5912" style="stop-color:#F7B073"/>
		<stop  offset="0.7079" style="stop-color:#FDC88F"/>
		<stop  offset="0.8776" style="stop-color:#F19D50"/>
		<stop  offset="1" style="stop-color:#EB8527"/>
	</linearGradient>
	<path style="fill:url(#XMLID_14_);stroke:#363639;" d="M24.013,31.876l-7.762,0.106L15.588,4.148l7.447-0.215
		C38.653,7.636,34.462,30.927,24.013,31.876z"/>
	
		<linearGradient id="XMLID_15_" gradientUnits="userSpaceOnUse" x1="22.4834" y1="1.0557" x2="19.05" y2="30.0317" gradientTransform="matrix(1 -0.0097 0.0096 0.988 -2.3183 3.0918)">
		<stop  offset="0" style="stop-color:#E86D27"/>
		<stop  offset="0.1041" style="stop-color:#E9712B"/>
		<stop  offset="0.2466" style="stop-color:#EC7D39"/>
		<stop  offset="0.4112" style="stop-color:#F09150"/>
		<stop  offset="0.5912" style="stop-color:#F7B073"/>
		<stop  offset="0.7079" style="stop-color:#FDC88F"/>
		<stop  offset="0.8776" style="stop-color:#F19D50"/>
		<stop  offset="1" style="stop-color:#EB8527"/>
	</linearGradient>
	<path style="fill:url(#XMLID_15_);stroke:#363639;" d="M19.603,31.774L11.634,32l-0.36-28.003l8.066-0.171
		C31.384,7.75,28.632,30.85,19.603,31.774z"/>
	
		<radialGradient id="XMLID_16_" cx="-31.3066" cy="-32.3315" r="22.8871" gradientTransform="matrix(0.784 -0.0079 0.007 0.7493 40.226 41.8266)" gradientUnits="userSpaceOnUse">
		<stop  offset="0.2191" style="stop-color:#FFFFFD"/>
		<stop  offset="0.4606" style="stop-color:#FAFAF9"/>
		<stop  offset="0.5476" style="stop-color:#EEEEEE"/>
		<stop  offset="0.6097" style="stop-color:#E1E0E1"/>
		<stop  offset="0.6598" style="stop-color:#CDCED0"/>
		<stop  offset="0.7028" style="stop-color:#B7B9BD"/>
		<stop  offset="0.7401" style="stop-color:#9DA2A7"/>
		<stop  offset="0.7584" style="stop-color:#8F959A"/>
		<stop  offset="0.9551" style="stop-color:#8A9197"/>
		<stop  offset="0.9618" style="stop-color:#7A7F84"/>
		<stop  offset="0.9757" style="stop-color:#535557"/>
		<stop  offset="0.9775" style="stop-color:#4E5052"/>
	</radialGradient>
	<path style="fill:url(#XMLID_16_);stroke:#1E2220;stroke-width:0.25;" d="M20.684,17.936c0.065,7.918-3.553,14.372-8.081,14.415
		c-4.527,0.041-8.254-6.348-8.318-14.265C4.218,10.165,7.933,3.446,12.46,3.404C16.989,3.364,20.618,10.016,20.684,17.936z"/>
	<polygon style="fill:#545D49;" points="14.539,31.352 13.36,31.016 13.327,27.524 14.503,27.512 	"/>
	<polygon style="fill:#545D49;" points="14.161,8.728 12.98,8.391 12.948,4.899 14.124,4.887 	"/>
	<polygon style="fill:#949AA1;" points="14.524,16.811 13.765,18.52 13.155,16.724 14.227,5.605 	"/>
	
		<linearGradient id="XMLID_17_" gradientUnits="userSpaceOnUse" x1="-229.0879" y1="-57.9917" x2="-221.9374" y2="-57.8937" gradientTransform="matrix(0.5248 0.0195 -0.0253 0.6803 131.0643 55.8494)">
		<stop  offset="0.0056" style="stop-color:#4E5052"/>
		<stop  offset="0.1017" style="stop-color:#525455"/>
		<stop  offset="0.2091" style="stop-color:#5D5E60"/>
		<stop  offset="0.322" style="stop-color:#717273"/>
		<stop  offset="0.4386" style="stop-color:#929192"/>
		<stop  offset="0.557" style="stop-color:#C2C1C1"/>
		<stop  offset="0.6517" style="stop-color:#FFFFFD"/>
		<stop  offset="0.6522" style="stop-color:#FFFFFD"/>
		<stop  offset="0.7332" style="stop-color:#AFADAE"/>
		<stop  offset="0.8089" style="stop-color:#807F81"/>
		<stop  offset="0.8772" style="stop-color:#636465"/>
		<stop  offset="0.9357" style="stop-color:#535556"/>
		<stop  offset="0.9775" style="stop-color:#4E5052"/>
	</linearGradient>
	<polygon style="fill:url(#XMLID_17_);stroke:#1E2220;stroke-width:0.25;" points="13.923,16.712 13.219,18.441 12.552,16.664 
		13.267,5.522 	"/>
	<polygon style="fill:#949AA1;" points="12.554,19.883 13.098,18.673 14.263,20.098 14.46,27.709 	"/>
	
		<linearGradient id="XMLID_18_" gradientUnits="userSpaceOnUse" x1="-116.0132" y1="-29.8394" x2="-111.7808" y2="-30.2241" gradientTransform="matrix(0.6484 -0.0056 0.0087 0.8201 88.3334 47.0978)">
		<stop  offset="0.0056" style="stop-color:#4E5052"/>
		<stop  offset="0.1416" style="stop-color:#505253"/>
		<stop  offset="0.1992" style="stop-color:#565759"/>
		<stop  offset="0.2419" style="stop-color:#616162"/>
		<stop  offset="0.2773" style="stop-color:#707172"/>
		<stop  offset="0.3082" style="stop-color:#888788"/>
		<stop  offset="0.3358" style="stop-color:#A8A7A8"/>
		<stop  offset="0.3606" style="stop-color:#D3D1D1"/>
		<stop  offset="0.3764" style="stop-color:#FFFFFD"/>
		<stop  offset="0.5568" style="stop-color:#F8F7F6"/>
		<stop  offset="0.6533" style="stop-color:#E8E7E6"/>
		<stop  offset="0.7299" style="stop-color:#D4D3D3"/>
		<stop  offset="0.7961" style="stop-color:#BBBABA"/>
		<stop  offset="0.8555" style="stop-color:#9C9B9C"/>
		<stop  offset="0.9101" style="stop-color:#7B7B7C"/>
		<stop  offset="0.96" style="stop-color:#5A5C5D"/>
		<stop  offset="0.9775" style="stop-color:#4E5052"/>
	</linearGradient>
	<polygon style="fill:url(#XMLID_18_);stroke:#1E2220;stroke-width:0.25;" points="12.442,19.827 13.065,18.65 14.134,20.143 
		13.84,27.752 	"/>
	
		<linearGradient id="XMLID_19_" gradientUnits="userSpaceOnUse" x1="24.6436" y1="28.5034" x2="30.1102" y2="33.5886" gradientTransform="matrix(0.9937 -0.1111 0.1113 0.9938 -5.3393 5.6319)">
		<stop  offset="0" style="stop-color:#D3CED2"/>
		<stop  offset="0.2168" style="stop-color:#C1C2C7"/>
		<stop  offset="0.427" style="stop-color:#ADB4BA"/>
		<stop  offset="0.5227" style="stop-color:#8B9292"/>
		<stop  offset="0.6213" style="stop-color:#6F7A76"/>
		<stop  offset="0.7196" style="stop-color:#5B6861"/>
		<stop  offset="0.8163" style="stop-color:#4F5D54"/>
		<stop  offset="0.9107" style="stop-color:#47584E"/>
		<stop  offset="1" style="stop-color:#44564C"/>
	</linearGradient>
	<path style="fill:url(#XMLID_19_);stroke:#363639;stroke-width:0.25;" d="M27.92,36.409c-0.792,1.278-3.273,1.591-4.167,0.654
		c-0.892-0.936-2.875-5.428-1.882-7.141c0.993-1.712,2.637-1.993,4.05-0.832C27.332,30.252,28.922,34.788,27.92,36.409z"/>
	
		<linearGradient id="XMLID_20_" gradientUnits="userSpaceOnUse" x1="24.9912" y1="-0.022" x2="28.316" y2="3.4309" gradientTransform="matrix(1 -0.0097 0.0097 1 -2.4473 3.0202)">
		<stop  offset="0" style="stop-color:#FEF6FA"/>
		<stop  offset="0.1136" style="stop-color:#EAE7EC"/>
		<stop  offset="0.3238" style="stop-color:#C5C8D1"/>
		<stop  offset="0.4101" style="stop-color:#B5BBC5"/>
		<stop  offset="0.6334" style="stop-color:#878F8F"/>
		<stop  offset="1" style="stop-color:#44564C"/>
	</linearGradient>
	<path style="fill:url(#XMLID_20_);stroke:#363639;stroke-width:0.25;" d="M28.323,7.807c-1.357,1.825-3.67,1.45-6.309-0.339
		c-2.64-1.788-4.164-3.817-2.807-5.645c1.357-1.826,4.537-2.401,7.177-0.613C29.023,2.998,29.681,5.979,28.323,7.807z"/>
	
		<linearGradient id="XMLID_21_" gradientUnits="userSpaceOnUse" x1="13.8682" y1="1.0645" x2="10.7339" y2="27.516" gradientTransform="matrix(1 -0.0097 0.0097 1 -2.4473 3.0202)">
		<stop  offset="0" style="stop-color:#FEF6FA"/>
		<stop  offset="0.0268" style="stop-color:#D6D5DB"/>
		<stop  offset="0.0592" style="stop-color:#B5B7BE"/>
		<stop  offset="0.0934" style="stop-color:#9C9FA7"/>
		<stop  offset="0.1292" style="stop-color:#898D95"/>
		<stop  offset="0.1674" style="stop-color:#7C8189"/>
		<stop  offset="0.2097" style="stop-color:#767A82"/>
		<stop  offset="0.264" style="stop-color:#73787F"/>
		<stop  offset="0.2814" style="stop-color:#71757D"/>
		<stop  offset="0.372" style="stop-color:#686C73"/>
		<stop  offset="0.492" style="stop-color:#63676E"/>
		<stop  offset="0.7584" style="stop-color:#61656C"/>
		<stop  offset="0.8161" style="stop-color:#64686E"/>
		<stop  offset="0.8528" style="stop-color:#6A6E75"/>
		<stop  offset="0.8836" style="stop-color:#757980"/>
		<stop  offset="0.9113" style="stop-color:#858990"/>
		<stop  offset="0.9367" style="stop-color:#9A9EA5"/>
		<stop  offset="0.9606" style="stop-color:#B6BAC0"/>
		<stop  offset="0.9828" style="stop-color:#D9DCE0"/>
		<stop  offset="1" style="stop-color:#FFFFFF"/>
	</linearGradient>
	<path style="opacity:0.61;fill:url(#XMLID_21_);" d="M6.7,18.018C6.632,10.764,9.952,4.763,14.278,3.973
		c-0.47-0.123-1.344-0.572-1.834-0.568c-4.763,0.049-8.17,6.749-8.097,14.509c0.073,7.759,4.189,15.224,9.015,14.177
		c0.302-0.066,0.516-0.031,0.781-0.234C10.056,30.78,6.767,24.979,6.7,18.018z"/>
	
		<radialGradient id="XMLID_22_" cx="-34.3481" cy="-32.1445" r="2.3584" fx="-33.6582" fy="-34.3998" gradientTransform="matrix(0.784 -0.0079 0.007 0.7493 40.226 41.8266)" gradientUnits="userSpaceOnUse">
		<stop  offset="0.0056" style="stop-color:#4E5052"/>
		<stop  offset="0.0164" style="stop-color:#69696A"/>
		<stop  offset="0.03" style="stop-color:#888889"/>
		<stop  offset="0.0454" style="stop-color:#A7A5A6"/>
		<stop  offset="0.0628" style="stop-color:#C2C1C1"/>
		<stop  offset="0.0832" style="stop-color:#DAD8D8"/>
		<stop  offset="0.1083" style="stop-color:#EBEBEA"/>
		<stop  offset="0.1436" style="stop-color:#FAF9F7"/>
		<stop  offset="0.2416" style="stop-color:#FFFFFD"/>
		<stop  offset="0.3307" style="stop-color:#F8F8F7"/>
		<stop  offset="0.3879" style="stop-color:#ECECEB"/>
		<stop  offset="0.4361" style="stop-color:#D9DADB"/>
		<stop  offset="0.4793" style="stop-color:#C3C4C7"/>
		<stop  offset="0.5187" style="stop-color:#A8ADB1"/>
		<stop  offset="0.5557" style="stop-color:#8A9197"/>
		<stop  offset="0.5562" style="stop-color:#8A9197"/>
		<stop  offset="0.6834" style="stop-color:#7A7F84"/>
		<stop  offset="0.9435" style="stop-color:#535557"/>
		<stop  offset="0.9775" style="stop-color:#4E5052"/>
	</radialGradient>
	<path style="fill:url(#XMLID_22_);stroke:#1E2220;stroke-width:0.25;" d="M13.856,18.004c0.006,0.634-0.342,1.153-0.773,1.157
		c-0.434,0.006-0.789-0.506-0.795-1.141s0.34-1.151,0.772-1.156C13.493,16.859,13.85,17.369,13.856,18.004z"/>
	<polygon style="fill:#545D49;" points="6.897,18.074 6.894,17.7 8.946,17.117 8.86,18.335 	"/>
	<polygon style="fill:#545D49;" points="20.403,15.878 20.46,16.86 17.475,17.218 17.464,16.142 	"/>
</g>
<rect y="0.16" style="fill:none;" width="37.333" height="37.333"/>
</svg>
