<?xml version="1.0" encoding="iso-8859-1"?>
<!-- Generator: Adobe Illustrator 12.0.0, SVG Export Plug-In . SVG Version: 6.00 Build 51448)  -->
<!DOCTYPE svg PUBLIC "-//W3C//DTD SVG 1.1//EN" "http://www.w3.org/Graphics/SVG/1.1/DTD/svg11.dtd" [
	<!ENTITY ns_svg "http://www.w3.org/2000/svg">
	<!ENTITY ns_xlink "http://www.w3.org/1999/xlink">
]>
<svg  version="1.1" id="&#xCD;_xBC__xB2_&#xE3;_x5F_1" xmlns="&ns_svg;" xmlns:xlink="&ns_xlink;" width="33.019" height="29.833"
	 viewBox="0 0 33.019 29.833" style="overflow:visible;enable-background:new 0 0 33.019 29.833;" xml:space="preserve">
<g>
	
		<linearGradient id="XMLID_6_" gradientUnits="userSpaceOnUse" x1="11.5303" y1="5.1377" x2="24.6976" y2="26.6382" gradientTransform="matrix(1 0.0092 -0.0092 1 -2.8548 -0.8108)">
		<stop  offset="0.0225" style="stop-color:#F7FCFE"/>
		<stop  offset="0.0756" style="stop-color:#C7D3E5"/>
		<stop  offset="0.1478" style="stop-color:#93ADCE"/>
		<stop  offset="0.2179" style="stop-color:#6B92BD"/>
		<stop  offset="0.2843" style="stop-color:#4880B1"/>
		<stop  offset="0.3458" style="stop-color:#2475A9"/>
		<stop  offset="0.4008" style="stop-color:#006FA5"/>
		<stop  offset="0.4438" style="stop-color:#006DA4"/>
		<stop  offset="0.6797" style="stop-color:#00507A"/>
		<stop  offset="0.8614" style="stop-color:#003A5E"/>
		<stop  offset="0.9494" style="stop-color:#003153"/>
	</linearGradient>
	<circle style="fill:url(#XMLID_6_);stroke:#163854;" cx="14.917" cy="14.917" r="14.417"/>
	<path style="fill:#007AA2;" d="M5.235,5.591C1.128,9.918,1.05,14.188,1.362,17.413C0.003,13.935,2.024,7.946,4.757,5.108
		c3.038-3.156,9.192-5.456,14.524-3.254C15.606,1.153,10.861,0.606,5.235,5.591z"/>
	<path style="fill:#FFFFFF;" d="M27.909,12.977c-3.25,2.715-1.261,3.469-8.41,6.768c-4.195,0.656-7.071,1.889-12.964,0.605
		c-3.774-0.822-6.037-3.583-5.963-5.559c0.117-3.129,6.249-6.357,13.653-6.08C21.63,8.989,28.026,9.849,27.909,12.977z"/>
	
		<linearGradient id="XMLID_7_" gradientUnits="userSpaceOnUse" x1="17.7036" y1="9.1177" x2="17.7036" y2="9.1177" gradientTransform="matrix(0.9993 0.0374 -0.0374 0.9993 -0.7517 -0.7665)">
		<stop  offset="0.0225" style="stop-color:#F7FCFE"/>
		<stop  offset="0.06" style="stop-color:#EDF6FB"/>
		<stop  offset="0.1177" style="stop-color:#D6E8F4"/>
		<stop  offset="0.1883" style="stop-color:#B0D4EA"/>
		<stop  offset="0.2692" style="stop-color:#7BBCDF"/>
		<stop  offset="0.3576" style="stop-color:#22A5D2"/>
		<stop  offset="0.4213" style="stop-color:#0095CA"/>
		<stop  offset="0.4407" style="stop-color:#008DBE"/>
		<stop  offset="0.5248" style="stop-color:#006D94"/>
		<stop  offset="0.6003" style="stop-color:#005878"/>
		<stop  offset="0.6639" style="stop-color:#004B68"/>
		<stop  offset="0.7079" style="stop-color:#004663"/>
	</linearGradient>
	<path style="fill:url(#XMLID_7_);stroke:#B4B9C0;stroke-width:0.75;" d="M16.599,9.006"/>
	
		<linearGradient id="XMLID_8_" gradientUnits="userSpaceOnUse" x1="23.1118" y1="14.5327" x2="29.566" y2="15.0292" gradientTransform="matrix(1 0.0092 -0.0092 1 -2.8548 -0.8108)">
		<stop  offset="0.0225" style="stop-color:#F7FCFE"/>
		<stop  offset="0.0245" style="stop-color:#F7FAFE"/>
		<stop  offset="0.2161" style="stop-color:#F4CEE2"/>
		<stop  offset="0.4017" style="stop-color:#F3ABCB"/>
		<stop  offset="0.5774" style="stop-color:#F28FBA"/>
		<stop  offset="0.7404" style="stop-color:#F07CAF"/>
		<stop  offset="0.8861" style="stop-color:#F06FA9"/>
		<stop  offset="1" style="stop-color:#F069A6"/>
	</linearGradient>
	<path style="opacity:0.32;fill:url(#XMLID_8_);" d="M21.316,18.608c0,0,4.646-2.291,5.582-4.864
		c-1.166-2.845-6.444-4.351-6.444-4.351L21.316,18.608z"/>
	
		<linearGradient id="XMLID_9_" gradientUnits="userSpaceOnUse" x1="4.9468" y1="15.3716" x2="2.5085" y2="15.3716" gradientTransform="matrix(0.9993 0.0374 -0.0374 0.9993 -0.7517 -0.7665)">
		<stop  offset="0.0225" style="stop-color:#F7FCFE"/>
		<stop  offset="0.0245" style="stop-color:#F7FAFE"/>
		<stop  offset="0.2161" style="stop-color:#F4CEE2"/>
		<stop  offset="0.4017" style="stop-color:#F3ABCB"/>
		<stop  offset="0.5774" style="stop-color:#F28FBA"/>
		<stop  offset="0.7404" style="stop-color:#F07CAF"/>
		<stop  offset="0.8861" style="stop-color:#F06FA9"/>
		<stop  offset="1" style="stop-color:#F069A6"/>
	</linearGradient>
	<path style="opacity:0.32;fill:url(#XMLID_9_);" d="M3.92,18.355c0,0-2.514-1.345-3.004-3.314
		c-0.088-1.776,2.521-3.833,2.521-3.833L3.92,18.355z"/>
	<g>
		
			<linearGradient id="XMLID_10_" gradientUnits="userSpaceOnUse" x1="14.3506" y1="20.8638" x2="13.3705" y2="7.6367" gradientTransform="matrix(0.9993 0.0374 -0.0374 0.9993 -0.7517 -0.7665)">
			<stop  offset="0.0225" style="stop-color:#F7FCFE"/>
			<stop  offset="0.06" style="stop-color:#EDF6FB"/>
			<stop  offset="0.1177" style="stop-color:#D6E8F4"/>
			<stop  offset="0.1883" style="stop-color:#B0D4EA"/>
			<stop  offset="0.2692" style="stop-color:#7BBCDF"/>
			<stop  offset="0.3576" style="stop-color:#22A5D2"/>
			<stop  offset="0.4213" style="stop-color:#0095CA"/>
			<stop  offset="0.4407" style="stop-color:#008DBE"/>
			<stop  offset="0.5248" style="stop-color:#006D94"/>
			<stop  offset="0.6003" style="stop-color:#005878"/>
			<stop  offset="0.6639" style="stop-color:#004B68"/>
			<stop  offset="0.7079" style="stop-color:#004663"/>
		</linearGradient>
		<path style="fill:url(#XMLID_10_);stroke:#B4B9C0;stroke-width:0.75;" d="M15.659,8.172C12.852,8.099,9.997,8.49,8.391,8.789
			c-1.446,1.167-2.402,2.925-2.477,4.929c-0.137,3.674,2.729,6.764,6.403,6.9c3.674,0.138,6.763-2.729,6.9-6.402
			C19.315,11.599,17.815,9.34,15.659,8.172z"/>
	</g>
	<circle cx="12.385" cy="13.015" r="4.517"/>
	<path style="fill:none;stroke:#000000;stroke-width:0.75;" d="M28.02,12.815c-1.245,2.604-5.396,5.814-8.52,6.93
		c-3.518,1.257-9.319,1.805-12.854,0.442c-3.573-1.011-6.037-3.583-5.963-5.56C0.799,11.5,6.536,8.069,13.94,8.346
		C21.345,8.624,28.137,9.686,28.02,12.815z"/>
	<path d="M26.919,13.864c-1.831-3.027-6.478-4.725-11.056-5.242c-3.391-0.383-6.432-0.357-6.432-0.357s8.299-1.998,18.785,2.181
		c1.298,0.538,3.135,0.351,4.801,0.413L26.919,13.864z"/>
	<circle style="opacity:0.55;fill:#D0D9DF;" cx="10.118" cy="10.883" r="1.631"/>
	
		<ellipse transform="matrix(0.9993 0.0369 -0.0369 0.9993 0.4084 -0.3659)" style="fill:#FFFFFF;" cx="10.118" cy="10.883" rx="0.86" ry="0.837"/>
</g>
</svg>
