<?xml version="1.0" encoding="iso-8859-1"?>
<!-- Generator: Adobe Illustrator 12.0.1, SVG Export Plug-In . SVG Version: 6.00 Build 51448)  -->
<!DOCTYPE svg PUBLIC "-//W3C//DTD SVG 1.1//EN" "http://www.w3.org/Graphics/SVG/1.1/DTD/svg11.dtd" [
	<!ENTITY ns_svg "http://www.w3.org/2000/svg">
	<!ENTITY ns_xlink "http://www.w3.org/1999/xlink">
]>
<svg  version="1.1" id="&#x56FE;&#x5C42;_1" xmlns="&ns_svg;" xmlns:xlink="&ns_xlink;" width="18.856" height="18.922"
	 viewBox="0 0 18.856 18.922" style="overflow:visible;enable-background:new 0 0 18.856 18.922;" xml:space="preserve">
<radialGradient id="XMLID_8_" cx="-6318.7852" cy="4.5435" r="1.6861" gradientTransform="matrix(-1 0 0 1 -6302.9922 0)" gradientUnits="userSpaceOnUse">
	<stop  offset="0" style="stop-color:#FFCC00"/>
	<stop  offset="0.0934" style="stop-color:#FFA500"/>
	<stop  offset="0.2287" style="stop-color:#FF7300"/>
	<stop  offset="0.3627" style="stop-color:#FF4A00"/>
	<stop  offset="0.4927" style="stop-color:#FF2A00"/>
	<stop  offset="0.6174" style="stop-color:#FF1300"/>
	<stop  offset="0.7348" style="stop-color:#FF0500"/>
	<stop  offset="0.8371" style="stop-color:#FF0000"/>
</radialGradient>
<circle style="fill:url(#XMLID_8_);stroke:#8A0000;stroke-width:0.25;" cx="15.539" cy="4.99" r="0.98"/>
<radialGradient id="XMLID_9_" cx="-6316.2295" cy="4.2358" r="2.8466" gradientTransform="matrix(-1 0 0 1 -6302.9922 0)" gradientUnits="userSpaceOnUse">
	<stop  offset="0.073" style="stop-color:#FF7D00"/>
	<stop  offset="0.1955" style="stop-color:#FF6000"/>
	<stop  offset="0.3934" style="stop-color:#FF3700"/>
	<stop  offset="0.5732" style="stop-color:#FF1900"/>
	<stop  offset="0.7271" style="stop-color:#FF0600"/>
	<stop  offset="0.8371" style="stop-color:#FF0000"/>
</radialGradient>
<circle style="fill:url(#XMLID_9_);stroke:#8A0000;stroke-width:0.25;" cx="12.818" cy="4.811" r="1.184"/>
<radialGradient id="XMLID_10_" cx="-6321.3013" cy="4.7983" r="1.573" gradientTransform="matrix(-1 0 0 1 -6302.9922 0)" gradientUnits="userSpaceOnUse">
	<stop  offset="0" style="stop-color:#FF8200"/>
	<stop  offset="0.0569" style="stop-color:#FF7300"/>
	<stop  offset="0.2274" style="stop-color:#FF4A00"/>
	<stop  offset="0.3944" style="stop-color:#FF2A00"/>
	<stop  offset="0.5547" style="stop-color:#FF1300"/>
	<stop  offset="0.7055" style="stop-color:#FF0500"/>
	<stop  offset="0.8371" style="stop-color:#FF0000"/>
</radialGradient>
<circle style="fill:url(#XMLID_10_);stroke:#8A0000;stroke-width:0.25;" cx="18.078" cy="5.116" r="0.654"/>
<g>
	
		<linearGradient id="XMLID_11_" gradientUnits="userSpaceOnUse" x1="-3.2593" y1="-43.1255" x2="-0.6447" y2="-44.2219" gradientTransform="matrix(0.9968 -0.0791 0.0791 0.9968 11.8058 54.3536)">
		<stop  offset="0.0056" style="stop-color:#424242"/>
		<stop  offset="0.3202" style="stop-color:#FFFFFF"/>
		<stop  offset="0.736" style="stop-color:#CCCCCC"/>
		<stop  offset="1" style="stop-color:#424242"/>
	</linearGradient>
	<path style="fill:url(#XMLID_11_);stroke:#231F20;stroke-width:0.25;" d="M1.932,5.19c0,0,5.618,11.678,6.689,13.09
		c1.073,1.412,5.458-0.32,5.787-2.211C14.74,14.178,6.401,1.331,6.401,1.331S5.13,1.323,4.539,1.681
		C4.111,1.938,2.75,2.694,2.573,2.963C2.397,3.231,1.932,5.19,1.932,5.19z"/>
	
		<linearGradient id="XMLID_12_" gradientUnits="userSpaceOnUse" x1="-3.5986" y1="-44.8564" x2="5.665" y2="-44.8564" gradientTransform="matrix(0.9968 -0.0791 0.0791 0.9968 11.8058 54.3536)">
		<stop  offset="0.1067" style="stop-color:#ECECEC"/>
		<stop  offset="0.3202" style="stop-color:#FFFFFF"/>
		<stop  offset="0.736" style="stop-color:#CCCCCC"/>
		<stop  offset="1" style="stop-color:#424242"/>
	</linearGradient>
	<path style="fill:url(#XMLID_12_);stroke:#231F20;stroke-width:0.25;" d="M4.299,1.894c0,0,0.634-0.559,1.746-0.79
		c1.111-0.229,1.779-0.366,2.426,0.317c0.65,0.684,3.58,7.007,4.836,10.015c0,0,1.7,3.964,0.867,5.217
		c-0.834,1.252-2.406,2.084-3.313,0.998C9.956,16.563,5.318,5.456,4.766,4.172C4.212,2.889,3.791,2.272,4.299,1.894z"/>
	<path style="fill:#61686B;" d="M2.689,2.899c0,0,1.305-0.924,2.067-1.267C5.522,1.287,3.928,1.73,4.22,2.635
		c0.242,0.747,6.087,13.731,6.459,14.491c0.371,0.765,1.245,1.09,1.875,0.842c0,0-0.73,0.397-0.982,0.444
		c-0.25,0.05-1.115-0.533-1.531-1.487C9.625,15.968,5.313,5.769,4.993,5.314C4.675,4.859,4.638,4.042,3.3,4.261
		C1.96,4.481,2.831,2.915,2.689,2.899z"/>
	
		<linearGradient id="XMLID_13_" gradientUnits="userSpaceOnUse" x1="-2.5483" y1="-46.6235" x2="4.8613" y2="-46.6235" gradientTransform="matrix(0.9968 -0.0791 0.0791 0.9968 11.8058 54.3536)">
		<stop  offset="0" style="stop-color:#F8DF76"/>
		<stop  offset="0.9831" style="stop-color:#F3BA22"/>
	</linearGradient>
	<path style="fill:url(#XMLID_13_);stroke:#231F20;stroke-width:0.25;" d="M5.394,3.953c-0.245-0.63-0.457-1.147,0.623-1.432
		c1.08-0.283,2.537-0.754,2.847-0.366c0.658,0.822,3.92,7.468,4.394,9.369c0.149,0.593-0.017,0.849-0.66,0.927
		c-0.399,0.051-0.657-0.087-1.172,0.547c-0.515,0.634-1.324,0.754-1.736,0.193C8.971,12.215,5.64,4.583,5.394,3.953z"/>
	
		<linearGradient id="XMLID_14_" gradientUnits="userSpaceOnUse" x1="-22.6982" y1="-69.6196" x2="-21.238" y2="-70.2935" gradientTransform="matrix(0.9023 0.0193 -0.0158 0.7697 20.4374 56.6294)">
		<stop  offset="0.0056" style="stop-color:#4F4F4F"/>
		<stop  offset="0.3202" style="stop-color:#FFFFFF"/>
		<stop  offset="0.736" style="stop-color:#CCCCCC"/>
		<stop  offset="1" style="stop-color:#424242"/>
	</linearGradient>
	<path style="fill:url(#XMLID_14_);stroke:#231F20;stroke-width:0.25;" d="M0.17,1.004c0,0-0.207-0.38,0.267-0.643
		c0.122-0.068,0.116-0.065,0.427-0.194C1.071,0.08,1.488,0.092,1.729,0.563C1.965,1.017,3.222,3.5,3.222,3.5
		s0.194,0.461-0.271,0.798C2.487,4.635,2.179,4.737,1.978,4.624C1.778,4.512,0.17,1.004,0.17,1.004z"/>
	<path style="fill:#A5C742;stroke:#231F20;stroke-width:0.25;stroke-linecap:round;stroke-linejoin:round;" d="M6.184,4.287
		c0,0,2.268-0.632,2.897-0.879l3.127,6.647l-2.667,1.287L6.184,4.287z"/>
</g>
</svg>
