<?xml version="1.0" encoding="iso-8859-1"?>
<!-- Generator: Adobe Illustrator 12.0.0, SVG Export Plug-In . SVG Version: 6.00 Build 51448)  -->
<!DOCTYPE svg PUBLIC "-//W3C//DTD SVG 1.1//EN" "http://www.w3.org/Graphics/SVG/1.1/DTD/svg11.dtd" [
	<!ENTITY ns_svg "http://www.w3.org/2000/svg">
	<!ENTITY ns_xlink "http://www.w3.org/1999/xlink">
]>
<svg  version="1.1" id="&#xCD;_xBC__xB2_&#xE3;_x5F_1" xmlns="&ns_svg;" xmlns:xlink="&ns_xlink;" width="17.29" height="12.063"
	 viewBox="0 0 17.29 12.063" style="overflow:visible;enable-background:new 0 0 17.29 12.063;" xml:space="preserve">
<g>
	<polygon style="fill:#F3C46D;stroke:#000000;stroke-width:0.5;" points="17.04,11.813 6.103,11.813 0.353,6.313 6.103,0.25 
		17.04,0.25 	"/>
	<polygon style="fill:#FFFFFF;stroke:#000000;stroke-width:0.5;" points="14.36,8.666 11.991,6.158 14.677,3.617 13.597,2.479 
		10.911,5.02 8.54,2.514 7.319,3.67 9.69,6.176 7.005,8.719 8.083,9.857 10.769,7.316 13.14,9.82 	"/>
	<polygon style="fill:#D29849;" points="16.821,11.563 16.05,10.813 16.009,1.078 16.806,0.484 	"/>
	<polygon style="fill:#B5B338;" points="16.821,11.563 16.05,10.813 6.603,10.766 6.196,11.563 	"/>
	<polygon style="fill:#F5EDA7;" points="16.806,0.484 16.009,1.141 6.616,1.289 6.21,0.492 	"/>
	<polygon style="fill:#FBEEA1;" points="6.228,11.609 6.603,10.766 1.665,6.328 0.728,6.328 	"/>
	<polygon style="fill:#F0E2B6;" points="6.21,0.498 6.624,1.326 1.665,6.328 0.692,6.324 	"/>
	
		<rect x="9.413" y="2.513" transform="matrix(0.7322 -0.6811 0.6811 0.7322 -0.3204 7.6637)" style="fill:#82C993;" width="0.344" height="3.452"/>
	<polygon style="fill:#82C993;" points="11.149,5.609 10.638,5.617 13.587,2.828 13.837,3.078 	"/>
</g>
</svg>
