<?xml version="1.0" encoding="utf-8"?>
<!-- Generator: Adobe Illustrator 13.0.2, SVG Export Plug-In . SVG Version: 6.00 Build 14948)  -->
<!DOCTYPE svg PUBLIC "-//W3C//DTD SVG 1.1 Tiny//EN" "http://www.w3.org/Graphics/SVG/1.1/DTD/svg11-tiny.dtd">
<svg version="1.1" baseProfile="tiny" id="Layer_1" xmlns="http://www.w3.org/2000/svg" xmlns:xlink="http://www.w3.org/1999/xlink"
	 x="0px" y="0px" width="24px" height="22px" viewBox="-0.61 -0.03 24 22" xml:space="preserve">
<rect x="2.375" y="1.875" fill="#FFFFFF" width="18.005" height="17.995"/>
<path fill="#0F7D3F" d="M22.77,16.93V4.83c0-2.67-2.17-4.83-4.83-4.83H4.83C2.16,0,0,2.16,0,4.83v12.109c0,2.67,2.16,4.83,4.83,4.83
	h13.109C20.6,21.76,22.77,19.6,22.77,16.93z M14.83,19.18L14.83,19.18L8.9,19.17c-1.34,0-2.42-1.08-2.42-2.42s1.08-2.42,2.42-2.42
	h2.46l-3.39-3.39L8,10.91l-4.2-4.2c-0.95-0.95-0.95-2.48,0-3.42c0.95-0.95,2.48-0.95,3.43,0l0.74,0.74c0.1,0.13,0.19,0.26,0.31,0.38
	l6.56,6.56V8.4c0-1.33,1.08-2.42,2.42-2.42s2.42,1.08,2.42,2.42v5.94h0.01v2.6H19.66c0,0,0.08,2.24-2.16,2.24v0.01h-2.67V19.18z"/>
</svg>
