<?xml version="1.0" encoding="iso-8859-1"?>
<!-- Generator: Adobe Illustrator 12.0.1, SVG Export Plug-In . SVG Version: 6.00 Build 51448)  -->
<!DOCTYPE svg PUBLIC "-//W3C//DTD SVG 1.1//EN" "http://www.w3.org/Graphics/SVG/1.1/DTD/svg11.dtd" [
	<!ENTITY ns_svg "http://www.w3.org/2000/svg">
	<!ENTITY ns_xlink "http://www.w3.org/1999/xlink">
]>
<svg  version="1.1" id="&#x56FE;&#x5C42;_1" xmlns="&ns_svg;" xmlns:xlink="&ns_xlink;" width="137" height="137"
	 viewBox="0 0 137 137" style="overflow:visible;enable-background:new 0 0 137 137;" xml:space="preserve">
<path style="fill:#68441F;stroke:#000000;stroke-width:2;" d="M95.501,19.167c-1.543-7.216-8.96-5.792-8.96-5.792l0.781,4.837
	c-0.086,1.412-0.88,3.19-1.76,3.958c-0.882,0.771-1.362,2.122-1.068,2.997c0.292,0.875,0.559,2.758,0.593,4.184l1.829,95.774
	c0.03,1.334,4.166,0.958,6.604-0.291c3.229-2.167,3.661-2.192,3.646-3.501l-2.285-90.778c-0.019-1.391-0.431-2.834-0.716-3.555
	c-0.729-1.854,0.022-2.059,0.5-3.125C95.613,21.762,96,21.5,95.501,19.167z"/>
<linearGradient id="XMLID_5_" gradientUnits="userSpaceOnUse" x1="18.0942" y1="10.6484" x2="85.6372" y2="127.6363">
	<stop  offset="0" style="stop-color:#B77737"/>
	<stop  offset="1" style="stop-color:#5E3D1C"/>
</linearGradient>
<path style="fill:url(#XMLID_5_);stroke:#4B3A0D;stroke-width:2;" d="M89.345,18.188c-0.008,1.427-0.328,3.253-0.713,4.055
	c-0.386,0.803-0.601,2.038-0.481,2.745c0.118,0.71,0.232,2.451,0.253,3.869l1.347,95.071c0.019,1.345-1.013,2.327-2.291,2.184
	l-75.4-8.545c-1.092-0.122-2.009-1.24-2.041-2.483L7.792,30.222c-0.035-1.304,0.112-2.875,0.325-3.496
	c0.212-0.62,0.187-1.594-0.057-2.168c-0.243-0.573-0.474-2.111-0.508-3.421l-0.073-2.799c-0.034-1.314,0.851-2.42,1.968-2.458
	l77.528-2.652c1.318-0.046,2.392,1.089,2.384,2.519L89.345,18.188z"/>
<polygon style="fill:#00A33D;stroke:#000000;stroke-width:2;" points="125.333,15.417 117.333,16.667 120.833,43.417 
	129.583,40.167 "/>
<polygon style="fill:#00A33D;stroke:#000000;stroke-width:2;" points="43,125.167 61.333,111.667 129.583,40.167 120.917,43.333 "/>
<linearGradient id="XMLID_6_" gradientUnits="userSpaceOnUse" x1="45.2251" y1="72.9502" x2="57.1599" y2="79.1828">
	<stop  offset="0" style="stop-color:#A2C431"/>
	<stop  offset="0.3938" style="stop-color:#84BE32"/>
	<stop  offset="0.7465" style="stop-color:#6FBA32"/>
	<stop  offset="0.9831" style="stop-color:#68B832"/>
</linearGradient>
<polygon style="fill:url(#XMLID_6_);stroke:#000000;stroke-width:2;" points="24.75,64.5 46.292,66.626 46.421,93.197 58.001,83 
	58,60 38.583,58.407 "/>
<g>
	<polygon style="fill:#D2DC00;stroke:#000000;stroke-width:2;" points="57.667,60 38.833,58.167 25.083,64.5 46.105,66.646 	"/>
</g>
<linearGradient id="XMLID_7_" gradientUnits="userSpaceOnUse" x1="30.2505" y1="70.9165" x2="108.6659" y2="70.9165">
	<stop  offset="0" style="stop-color:#BCD400"/>
	<stop  offset="0.0468" style="stop-color:#B8D203"/>
	<stop  offset="0.4382" style="stop-color:#97C71A"/>
	<stop  offset="0.7643" style="stop-color:#82C029"/>
	<stop  offset="0.9831" style="stop-color:#7BBD2E"/>
</linearGradient>
<polygon style="fill:url(#XMLID_7_);stroke:#000000;stroke-width:2;" points="46.333,92.5 46.438,66.313 24.25,64.667 
	24.333,121.667 43.333,125.167 120.833,43.417 117.333,16.667 "/>
<linearGradient id="XMLID_8_" gradientUnits="userSpaceOnUse" x1="48.8013" y1="22.6626" x2="48.3651" y2="10.1712">
	<stop  offset="0" style="stop-color:#FFFFFF"/>
	<stop  offset="0.4944" style="stop-color:#474747"/>
	<stop  offset="1" style="stop-color:#FFFFFF"/>
</linearGradient>
<path style="fill:url(#XMLID_8_);stroke:#000000;stroke-width:2;" d="M73.818,15.535c0.121,3.45-2.578,6.344-6.028,6.464
	l-37.977,1.326c-3.45,0.121-6.344-2.579-6.464-6.028l0,0c-0.121-3.45,2.578-6.344,6.027-6.464l37.978-1.326
	C70.804,9.387,73.698,12.086,73.818,15.535L73.818,15.535z"/>
<rect style="fill:none;" width="137" height="137"/>
</svg>
