<?xml version="1.0" encoding="iso-8859-1"?>
<!-- Generator: Adobe Illustrator 12.0.0, SVG Export Plug-In . SVG Version: 6.00 Build 51448)  -->
<!DOCTYPE svg PUBLIC "-//W3C//DTD SVG 1.1//EN" "http://www.w3.org/Graphics/SVG/1.1/DTD/svg11.dtd" [
	<!ENTITY ns_svg "http://www.w3.org/2000/svg">
	<!ENTITY ns_xlink "http://www.w3.org/1999/xlink">
]>
<svg  version="1.1" id="&#xCD;_xBC__xB2_&#xE3;_x5F_1" xmlns="&ns_svg;" xmlns:xlink="&ns_xlink;" width="45.083" height="45.083"
	 viewBox="0 0 45.083 45.083" style="overflow:visible;enable-background:new 0 0 45.083 45.083;" xml:space="preserve">
<g>
	<radialGradient id="XMLID_5_" cx="22.5415" cy="22.5415" r="22.1665" gradientUnits="userSpaceOnUse">
		<stop  offset="0.2191" style="stop-color:#E4F5FD"/>
		<stop  offset="0.2831" style="stop-color:#DFF3FD"/>
		<stop  offset="0.3622" style="stop-color:#CFEDFC"/>
		<stop  offset="0.4492" style="stop-color:#B4E4FA"/>
		<stop  offset="0.5412" style="stop-color:#8CD7F8"/>
		<stop  offset="0.6067" style="stop-color:#66CEF6"/>
		<stop  offset="0.6708" style="stop-color:#62C5EF"/>
		<stop  offset="0.7546" style="stop-color:#55B4E2"/>
		<stop  offset="0.8494" style="stop-color:#419DD1"/>
		<stop  offset="0.9516" style="stop-color:#2480BA"/>
		<stop  offset="1" style="stop-color:#0E72AF"/>
	</radialGradient>
	<circle style="fill:url(#XMLID_5_);stroke:#000000;stroke-width:0.75;" cx="22.542" cy="22.541" r="22.167"/>
	<path style="fill:#A9D384;" d="M12.849,4.298c0,0-0.529,1.48,0,1.85c0.528,0.371,1.321,0.463,0.616,1.48
		c-0.704,1.018-0.176,2.404-0.176,2.404s-2.115,2.313-1.41,3.886s1.058,1.203,1.058,1.203s3.613,5.644,4.495,7.029
		c0.881,1.389,1.851,0.741,1.851,0.741l-1.234,0.647c0,0,0.794,0.925,1.675,1.11c0.882,0.185,1.938,0.277,1.938,0.277
		s0.97,0.925,1.234,0.925c0.264,0,2.468,0.462,2.468,0.462l1.234,2.22l1.497,0.187c0,0,4.229,0.369-0.087,3.7
		c-4.319,3.33-0.618,3.052,0,1.202c0.615-1.851,1.85,0.74,0.615,2.313c-1.233,1.573,1.234,1.573,1.234,1.573
		s1.586,0.185,1.499,1.479c-0.089,1.296-3.971,4.486-3.971,4.486s4.23,1.57,10.668-5.781c6.306-7.202,1.233-1.572,1.233-1.572
		s3.173-4.349,2.732-5.921c-0.441-1.573-1.851-3.33-2.556-1.758c-0.705,1.573-1.058-0.925-1.058-0.925s-0.265,0.092-0.881-0.37
		c-0.618-0.463-0.089,0.833-0.882,1.479c-0.793,0.648-0.441-1.294-0.617-2.127s-3.173-0.74-3.525-0.186
		c-0.353,0.556-0.882,1.203-0.882,1.203l-0.176-1.758c0,0-0.529,1.573-1.146,1.758c-0.616,0.186,0.353,1.48-2.379,0.741
		c-2.731-0.741-1.234-1.851-1.234-1.851l0.97-1.111c0,0-0.793,0.277-1.675-0.369c-0.881-0.647-0.616-2.591-0.616-2.591
		s-1.499-0.462-1.938,1.203c-0.441,1.665-1.587,0.462-1.939,0.647c-0.353,0.185-2.468-4.255,1.233-5.457
		c3.701-1.204,1.41-1.019,1.41-1.019s2.469,0.647,2.469,1.851s0.704,0.276,0.704,0.276s-1.41-2.127-0.265-2.867
		c1.146-0.739,2.468-5.18,3.173-5.18c0.704,0,2.114-1.203,2.114-1.203s0.442-0.463-1.057-1.018c-1.498-0.555,1.322-1.664,0.176-2.22
		C30.298,6.795,28.8,5.686,28.8,5.686s-0.528-0.834-0.528,0c0,0.833-2.38-1.018-2.38-1.018s1.234,2.774,0.528,3.238
		c-0.704,0.462-0.704,0.462-0.704,0.462s-0.528,0-2.468-1.758c-1.938-1.759-0.529-2.034,0.616-2.034c1.146,0,0.353-1.11,0.353-1.11
		s-0.616,0.646-1.233,0c-0.616-0.648,0.617-0.464-1.234-0.093c-1.85,0.37-3.965,0.739-4.141-0.833
		c-0.177-1.572,0.352,0.74-1.587,0.277c-1.939-0.462-0.705-0.277-0.705-0.277s0.353-0.74,0.705-0.74s-2.027-0.093-2.468,0.556
		c-0.44,0.646-1.234,0.646-1.234,0.646l-0.528,0.371l-1.146,0.739c0,0-0.705,1.388-1.41,1.388S12.849,4.298,12.849,4.298z"/>
	<path style="fill:#00A850;" d="M12.754,4.25c0,0-0.529,1.48,0,1.851c0.528,0.37,1.321,0.462,0.616,1.479
		c-0.704,1.018-0.176,2.404-0.176,2.404s-2.115,2.313-1.41,3.887c0.705,1.572,1.058,1.202,1.058,1.202s3.612,5.644,4.494,7.03
		c0.881,1.389,1.852,0.74,1.852,0.74l-1.234,0.648c0,0,0.793,0.924,1.674,1.109c0.882,0.185,1.939,0.277,1.939,0.277
		s0.97,0.926,1.233,0.926c0.265,0,2.468,0.462,2.468,0.462l1.234,2.22L28,28.672c0,0,4.229,0.369-0.088,3.7
		c-4.318,3.33-0.617,3.052,0,1.202c0.616-1.85,1.851,0.74,0.616,2.313c-1.233,1.574,1.234,1.574,1.234,1.574
		s1.586,0.184,1.498,1.479c-0.088,1.296-4.064,4.472-4.064,4.472s3.977,1.265,10.763-5.767c6.786-7.03,1.233-1.572,1.233-1.572
		s3.173-4.348,2.732-5.921c-0.441-1.572-1.851-3.329-2.556-1.758c-0.705,1.574-1.058-0.924-1.058-0.924s-0.266,0.092-0.882-0.371
		c-0.617-0.462-0.088,0.834-0.881,1.48c-0.793,0.647-0.441-1.295-0.617-2.127c-0.176-0.833-3.173-0.741-3.525-0.186
		s-0.882,1.203-0.882,1.203l-0.176-1.759c0,0-0.529,1.573-1.146,1.759s0.353,1.479-2.379,0.74c-2.732-0.74-1.234-1.851-1.234-1.851
		l0.969-1.11c0,0-0.792,0.277-1.674-0.37c-0.881-0.647-0.617-2.59-0.617-2.59s-1.498-0.463-1.938,1.203
		c-0.44,1.664-1.586,0.461-1.939,0.646c-0.353,0.186-2.467-4.255,1.233-5.457c3.702-1.204,1.41-1.019,1.41-1.019
		s2.469,0.647,2.469,1.851s0.705,0.277,0.705,0.277s-1.41-2.128-0.265-2.868c1.146-0.739,2.468-5.18,3.173-5.18
		c0.704,0,2.114-1.203,2.114-1.203s0.441-0.463-1.057-1.018c-1.499-0.555,1.321-1.664,0.176-2.219
		c-1.146-0.557-2.644-1.666-2.644-1.666s-0.528-0.833-0.528,0s-2.38-1.018-2.38-1.018s1.233,2.775,0.528,3.238
		S25.62,8.321,25.62,8.321s-0.528,0-2.468-1.759c-1.938-1.758-0.529-2.034,0.617-2.034c1.146,0,0.353-1.11,0.353-1.11
		s-0.617,0.647-1.233,0c-0.617-0.647,0.616-0.463-1.234-0.093s-3.966,0.74-4.141-0.833c-0.178-1.571,0.351,0.741-1.588,0.278
		c-1.939-0.463-0.705-0.278-0.705-0.278s0.353-0.739,0.705-0.739s-2.908,1.203-2.468,0.555c0.065-0.096-0.403,0.647-1.233,0.647
		l-0.529,0.37l-1.145,0.74c0,0-0.705,1.387-1.41,1.387S12.754,4.25,12.754,4.25z"/>
	<path style="fill:#00AD4D;" d="M23.349,3.13c0,0,4.37-0.712,8.978,2.375c4.607,3.088,0.95,0.237,0.997,0
		c0.048-0.237-1.567-1.947-0.997-1.947s0-0.617,0-0.617s-5.748-2.565-6.175-1.568C25.724,2.37,26.104,2.18,26.104,2.18
		s-0.902,0.476-1.093-0.095C24.821,1.515,25.629,1.8,25.629,1.8s-1.663-0.617-1.758-0.237S23.349,3.13,23.349,3.13z"/>
	<polygon style="fill:#311D07;" points="25.3,44.121 23.184,44.213 22.981,40.094 25.097,40 	"/>
	
		<linearGradient id="XMLID_6_" gradientUnits="userSpaceOnUse" x1="-121.769" y1="132" x2="-112.4837" y2="132.1272" gradientTransform="matrix(0.9015 1.3505 -0.8317 0.5552 250.448 100.9807)">
		<stop  offset="0" style="stop-color:#FFFFFF"/>
		<stop  offset="0.1137" style="stop-color:#FBFBFB"/>
		<stop  offset="0.2379" style="stop-color:#EDEDED"/>
		<stop  offset="0.3672" style="stop-color:#D8D8D8"/>
		<stop  offset="0.4998" style="stop-color:#B9B9B9"/>
		<stop  offset="0.6351" style="stop-color:#929292"/>
		<stop  offset="0.7726" style="stop-color:#616161"/>
		<stop  offset="0.9093" style="stop-color:#292929"/>
		<stop  offset="1" style="stop-color:#000000"/>
	</linearGradient>
	<polygon style="fill:url(#XMLID_6_);stroke:#1E2220;stroke-width:0.25;" points="26.919,21.109 22.41,20.873 23.784,16.578 
		43.879,5.646 	"/>
	
		<linearGradient id="XMLID_7_" gradientUnits="userSpaceOnUse" x1="95.5781" y1="29.0771" x2="101.4016" y2="28.5477" gradientTransform="matrix(1.6246 -0.0024 -0.0024 1 -133.8504 0.6695)">
		<stop  offset="0.0056" style="stop-color:#4E5052"/>
		<stop  offset="0.074" style="stop-color:#838284"/>
		<stop  offset="0.1405" style="stop-color:#BCBBBB"/>
		<stop  offset="0.1908" style="stop-color:#E7E5E4"/>
		<stop  offset="0.2191" style="stop-color:#FFFFFD"/>
		<stop  offset="0.3936" style="stop-color:#FAF9F7"/>
		<stop  offset="0.4868" style="stop-color:#EDECEC"/>
		<stop  offset="0.5609" style="stop-color:#DCDCDD"/>
		<stop  offset="0.6249" style="stop-color:#C7C9CB"/>
		<stop  offset="0.6823" style="stop-color:#AEB1B5"/>
		<stop  offset="0.7344" style="stop-color:#92989D"/>
		<stop  offset="0.7472" style="stop-color:#8A9197"/>
		<stop  offset="0.8167" style="stop-color:#7A7F84"/>
		<stop  offset="0.9589" style="stop-color:#535557"/>
		<stop  offset="0.9775" style="stop-color:#4E5052"/>
	</linearGradient>
	<polygon style="fill:url(#XMLID_7_);stroke:#1E2220;stroke-width:0.25;" points="20.055,23.504 22.696,21.295 25.79,23.482 
		24.702,37.472 	"/>
	<polygon style="fill:#EA2D2E;" points="20.568,19.915 23.446,20.554 20.567,21.289 2.251,20.996 	"/>
	
		<radialGradient id="XMLID_8_" cx="33.3682" cy="20.4375" r="1.9375" gradientTransform="matrix(1.0588 0 0 1 -12.6166 0)" gradientUnits="userSpaceOnUse">
		<stop  offset="0.0056" style="stop-color:#4E5052"/>
		<stop  offset="0.1639" style="stop-color:#838284"/>
		<stop  offset="0.318" style="stop-color:#BCBBBB"/>
		<stop  offset="0.4345" style="stop-color:#E7E5E4"/>
		<stop  offset="0.5" style="stop-color:#FFFFFD"/>
		<stop  offset="0.5817" style="stop-color:#FAF9F7"/>
		<stop  offset="0.6253" style="stop-color:#EDECEC"/>
		<stop  offset="0.66" style="stop-color:#DCDCDD"/>
		<stop  offset="0.6899" style="stop-color:#C7C9CB"/>
		<stop  offset="0.7168" style="stop-color:#AEB1B5"/>
		<stop  offset="0.7412" style="stop-color:#92989D"/>
		<stop  offset="0.7472" style="stop-color:#8A9197"/>
		<stop  offset="0.8167" style="stop-color:#7A7F84"/>
		<stop  offset="0.9589" style="stop-color:#535557"/>
		<stop  offset="0.9775" style="stop-color:#4E5052"/>
	</radialGradient>
	<ellipse style="fill:url(#XMLID_8_);stroke:#1E2220;stroke-width:0.25;" cx="22.713" cy="20.438" rx="2.051" ry="1.938"/>
	<polygon style="fill:#311D07;" points="23.234,4.954 21.119,5.047 20.916,0.927 23.031,0.833 	"/>
	<polygon style="fill:#311D07;" points="1.39,22.555 1.333,20.555 5.7,20.445 5.756,22.445 	"/>
	<polygon style="fill:#311D07;" points="40.441,22.68 40.386,20.68 44.751,20.57 44.808,22.57 	"/>
</g>
</svg>
