<?xml version="1.0" encoding="iso-8859-1"?>
<!-- Generator: Adobe Illustrator 12.0.1, SVG Export Plug-In . SVG Version: 6.00 Build 51448)  -->
<!DOCTYPE svg PUBLIC "-//W3C//DTD SVG 1.1//EN" "http://www.w3.org/Graphics/SVG/1.1/DTD/svg11.dtd" [
	<!ENTITY ns_svg "http://www.w3.org/2000/svg">
	<!ENTITY ns_xlink "http://www.w3.org/1999/xlink">
]>
<svg  version="1.1" id="&#x56FE;&#x5C42;_1" xmlns="&ns_svg;" xmlns:xlink="&ns_xlink;" width="21.765" height="21.5"
	 viewBox="0 0 21.765 21.5" style="overflow:visible;enable-background:new 0 0 21.765 21.5;" xml:space="preserve">
<g>
	
		<radialGradient id="XMLID_11_" cx="20.6602" cy="21.4224" r="21.4041" gradientTransform="matrix(1.0647 0 0 1 -0.7135 0)" gradientUnits="userSpaceOnUse">
		<stop  offset="0.0169" style="stop-color:#F5D015"/>
		<stop  offset="0.1487" style="stop-color:#F5CA14"/>
		<stop  offset="0.3171" style="stop-color:#F5BB12"/>
		<stop  offset="0.5054" style="stop-color:#F5A00E"/>
		<stop  offset="0.7082" style="stop-color:#F67C09"/>
		<stop  offset="0.9204" style="stop-color:#F64D03"/>
		<stop  offset="1" style="stop-color:#F63A00"/>
	</radialGradient>
	<polygon style="fill:url(#XMLID_11_);" points="21.516,21.438 21.516,0.645 19.063,4.298 17.725,2.364 14.046,4.513 5.908,0 
		7.246,8.489 2.676,9.242 4.683,13.754 0,21.438 	"/>
	<linearGradient id="XMLID_12_" gradientUnits="userSpaceOnUse" x1="10.3838" y1="10.0771" x2="21.1728" y2="20.9596">
		<stop  offset="0" style="stop-color:#6E676C"/>
		<stop  offset="0.4707" style="stop-color:#A3A5A9"/>
		<stop  offset="1" style="stop-color:#DBE7EA"/>
	</linearGradient>
	<polygon style="fill:url(#XMLID_12_);stroke:#000000;stroke-width:0.25;" points="21.64,21.375 21.64,3.301 19.585,6.477 
		18.463,4.795 15.381,6.664 8.563,2.74 9.683,10.12 5.854,10.773 7.534,14.697 3.611,21.375 	"/>
	<path style="opacity:0.84;fill:#FFFFFF;" d="M19.614,6.344l0.234,0.172l1.749-2.626l0.126-0.905L19.614,6.344z M15.067,6.75
		l0.266,0.109l3.281-2.016l-0.094-0.172L15.067,6.75z M8.854,3.03L8.516,2.706l1.121,7.379l-3.83,0.654l1.682,3.923l-3.924,6.679
		h0.402l3.896-6.633l-1.682-3.923l3.767-0.56L8.854,3.03z"/>
	<linearGradient id="XMLID_13_" gradientUnits="userSpaceOnUse" x1="11.002" y1="6.1616" x2="13.3368" y2="9.5238">
		<stop  offset="0" style="stop-color:#3F3F3F"/>
		<stop  offset="0.1341" style="stop-color:#464646"/>
		<stop  offset="0.3332" style="stop-color:#5A5A5A"/>
		<stop  offset="0.573" style="stop-color:#7B7B7B"/>
		<stop  offset="0.8421" style="stop-color:#A9A9A9"/>
		<stop  offset="1" style="stop-color:#C7C7C7"/>
	</linearGradient>
	<path style="opacity:0.69;fill:url(#XMLID_13_);" d="M14.855,7.268c0.459,1.102-0.241,2.44-1.563,2.989
		c-1.322,0.55-2.766,0.103-3.224-0.999c-0.457-1.102,0.243-2.44,1.565-2.99C12.955,5.719,14.397,6.166,14.855,7.268z"/>
	<linearGradient id="XMLID_14_" gradientUnits="userSpaceOnUse" x1="10.9844" y1="6.1772" x2="12.4951" y2="8.3527">
		<stop  offset="0" style="stop-color:#3F3F3F"/>
		<stop  offset="0.1341" style="stop-color:#464646"/>
		<stop  offset="0.3332" style="stop-color:#5A5A5A"/>
		<stop  offset="0.573" style="stop-color:#7B7B7B"/>
		<stop  offset="0.8421" style="stop-color:#A9A9A9"/>
		<stop  offset="1" style="stop-color:#C7C7C7"/>
	</linearGradient>
	<path style="opacity:0.35;fill:url(#XMLID_14_);" d="M10.769,10.052c-0.458-1.102,0.242-2.44,1.565-2.99
		c0.859-0.357,1.766-0.288,2.423,0.104c-0.462-1.096-1.898-1.54-3.217-0.992c-1.323,0.55-2.023,1.888-1.565,2.99
		c0.16,0.385,0.446,0.684,0.798,0.894C10.771,10.057,10.77,10.055,10.769,10.052z"/>
	<linearGradient id="XMLID_15_" gradientUnits="userSpaceOnUse" x1="16.8135" y1="16.4766" x2="19.3819" y2="18.4846">
		<stop  offset="0" style="stop-color:#7A7A7A"/>
		<stop  offset="0.1744" style="stop-color:#8B8B8B"/>
		<stop  offset="0.5209" style="stop-color:#B8B8B8"/>
		<stop  offset="1" style="stop-color:#FFFFFF"/>
	</linearGradient>
	<path style="opacity:0.94;fill:url(#XMLID_15_);" d="M20.061,16.064c0.796,1.037,0.588,2.532-0.466,3.338
		c-1.054,0.807-2.552,0.62-3.347-0.417c-0.796-1.037-0.587-2.531,0.466-3.338C17.769,14.84,19.265,15.027,20.061,16.064z"/>
	<linearGradient id="XMLID_16_" gradientUnits="userSpaceOnUse" x1="16.6641" y1="15.3843" x2="18.249" y2="17.6666">
		<stop  offset="0" style="stop-color:#3F3F3F"/>
		<stop  offset="0.1341" style="stop-color:#464646"/>
		<stop  offset="0.3332" style="stop-color:#5A5A5A"/>
		<stop  offset="0.573" style="stop-color:#7B7B7B"/>
		<stop  offset="0.8421" style="stop-color:#A9A9A9"/>
		<stop  offset="1" style="stop-color:#C7C7C7"/>
	</linearGradient>
	<path style="opacity:0.35;fill:url(#XMLID_16_);" d="M16.521,19.282c-0.42-1.085,0.229-2.509,1.438-3.05
		c0.788-0.353,1.694-0.289,2.297,0.097c-0.609-1.078-1.817-1.511-3.022-0.972c-1.209,0.542-1.772,1.89-1.353,2.976
		c0.146,0.378,0.381,0.82,0.703,1.027C16.582,19.357,16.521,19.284,16.521,19.282z"/>
	<linearGradient id="XMLID_17_" gradientUnits="userSpaceOnUse" x1="17.0059" y1="8.6123" x2="19.5029" y2="11.5859">
		<stop  offset="0" style="stop-color:#414141"/>
		<stop  offset="0.1907" style="stop-color:#6A6A68"/>
		<stop  offset="0.5834" style="stop-color:#BAB9B2"/>
		<stop  offset="0.8627" style="stop-color:#ECEBE1"/>
		<stop  offset="1" style="stop-color:#FFFEF3"/>
	</linearGradient>
	<path style="opacity:0.75;fill:url(#XMLID_17_);" d="M20.92,8.593c0.796,1.037,0.37,2.698-0.95,3.709
		c-1.323,1.013-3.037,0.992-3.833-0.044c-0.796-1.037-0.369-2.698,0.951-3.71C18.41,7.536,20.124,7.556,20.92,8.593z"/>
	<linearGradient id="XMLID_18_" gradientUnits="userSpaceOnUse" x1="10.8145" y1="15.3384" x2="12.2623" y2="19.8688">
		<stop  offset="0" style="stop-color:#3F3F3F"/>
		<stop  offset="0.444" style="stop-color:#828282"/>
		<stop  offset="0.8167" style="stop-color:#B4B4B4"/>
		<stop  offset="1" style="stop-color:#C7C7C7"/>
	</linearGradient>
	<path style="opacity:0.43;fill:url(#XMLID_18_);" d="M13.681,14.992c0.796,1.037,0.37,2.698-0.951,3.709
		c-1.322,1.013-3.036,0.991-3.832-0.045c-0.796-1.038-0.369-2.698,0.951-3.71C11.171,13.934,12.885,13.954,13.681,14.992z"/>
	<linearGradient id="XMLID_19_" gradientUnits="userSpaceOnUse" x1="10.7549" y1="15.1978" x2="12.0027" y2="19.1021">
		<stop  offset="0" style="stop-color:#3F3F3F"/>
		<stop  offset="0.1341" style="stop-color:#464646"/>
		<stop  offset="0.3332" style="stop-color:#5A5A5A"/>
		<stop  offset="0.573" style="stop-color:#7B7B7B"/>
		<stop  offset="0.8421" style="stop-color:#A9A9A9"/>
		<stop  offset="1" style="stop-color:#C7C7C7"/>
	</linearGradient>
	<path style="opacity:0.35;fill:url(#XMLID_19_);" d="M10.812,15.995c1.006-0.77,2.237-0.938,3.12-0.52
		c-0.066-0.18-0.149-0.354-0.27-0.509c-0.795-1.037-2.509-1.057-3.83-0.045c-1.321,1.012-1.748,2.673-0.952,3.71
		c0.19,0.248,0.436,0.433,0.712,0.565C9.223,18.18,9.689,16.855,10.812,15.995z"/>
	<linearGradient id="XMLID_20_" gradientUnits="userSpaceOnUse" x1="17.9854" y1="8.8218" x2="19.2378" y2="12.7406">
		<stop  offset="0" style="stop-color:#3F3F3F"/>
		<stop  offset="0.1341" style="stop-color:#464646"/>
		<stop  offset="0.3332" style="stop-color:#5A5A5A"/>
		<stop  offset="0.573" style="stop-color:#7B7B7B"/>
		<stop  offset="0.8421" style="stop-color:#A9A9A9"/>
		<stop  offset="1" style="stop-color:#C7C7C7"/>
	</linearGradient>
	<path style="opacity:0.35;fill:url(#XMLID_20_);" d="M18.062,9.59c0.998-0.761,2.219-0.927,3.094-0.514
		c-0.065-0.178-0.148-0.349-0.268-0.503C20.1,7.55,18.399,7.529,17.091,8.529c-1.312,1-1.783,2.673-0.995,3.697
		c0.189,0.245,0.469,0.472,0.743,0.602C16.473,11.824,16.949,10.44,18.062,9.59z"/>
	<polygon style="opacity:0.84;fill:#FFFFFF;" points="15.067,6.75 15.521,6.688 8.427,2.625 8.854,3.03 	"/>
</g>
</svg>
