/* XPM */
static const char *pix_new[]={
"20 20 3 1",
"  c None",
"# c #00FF00",
". c #000000",
"                    ",
"       ......       ",
"     ..######..     ",
"    .##########.    ",
"   .############.   ",
"  .##############.  ",
"  .##############.  ",
" .################. ",
" .################. ",
" .################. ",
" .################. ",
" .################. ",
" .################. ",
"  .##############.  ",
"  .##############.  ",
"   .############.   ",
"    .##########.    ",
"     ..######..     ",
"       ......       ",
"                    "};
