<?xml version="1.0" encoding="utf-8"?>
<!-- Generator: Adobe Illustrator 13.0.2, SVG Export Plug-In  -->
<!DOCTYPE svg PUBLIC "-//W3C//DTD SVG 1.1 Tiny//EN" "http://www.w3.org/Graphics/SVG/1.1/DTD/svg11-tiny.dtd" [
	<!ENTITY ns_flows "http://ns.adobe.com/Flows/1.0/">
]>
<svg version="1.1" baseProfile="tiny"
	 xmlns="http://www.w3.org/2000/svg" xmlns:xlink="http://www.w3.org/1999/xlink" xmlns:a="http://ns.adobe.com/AdobeSVGViewerExtensions/3.0/"
	 x="0px" y="0px" width="19px" height="17px" viewBox="-0.896 -0.938 19 17" xml:space="preserve">
<defs>
</defs>
<path fill-rule="evenodd" fill="#046593" d="M17.773,6.387C17.773,2.86,13.793,0,8.885,0C3.979,0,0,2.86,0,6.387
	c0,3.487,3.89,6.317,8.719,6.383c-0.031,0.027-0.061,0.049-0.094,0.08c0,0-0.599,2.501-3.397,2.839c0,0,3.397,0.519,6.367-3.103
	c0,0,0.009-0.046,0.022-0.124C15.189,11.633,17.773,9.229,17.773,6.387z"/>
<line fill="none" stroke="#FFFFFF" stroke-width="1.3" x1="3.062" y1="5.128" x2="15.45" y2="5.128"/>
<line fill="none" stroke="#FFFFFF" stroke-width="1.3" x1="3.062" y1="8.082" x2="15.45" y2="8.082"/>
</svg>
