<?xml version="1.0" encoding="UTF-8" standalone="no"?>
<!-- Created with Inkscape (http://www.inkscape.org/) -->
<svg
   xmlns:dc="http://purl.org/dc/elements/1.1/"
   xmlns:cc="http://web.resource.org/cc/"
   xmlns:rdf="http://www.w3.org/1999/02/22-rdf-syntax-ns#"
   xmlns:svg="http://www.w3.org/2000/svg"
   xmlns="http://www.w3.org/2000/svg"
   xmlns:sodipodi="http://sodipodi.sourceforge.net/DTD/sodipodi-0.dtd"
   xmlns:inkscape="http://www.inkscape.org/namespaces/inkscape"
   width="256"
   height="256"
   id="svg2"
   sodipodi:version="0.32"
   inkscape:version="0.44.1"
   version="1.0"
   sodipodi:docbase="/home/user"
   sodipodi:docname="gtalk.svg">
  <defs
     id="defs4" />
  <sodipodi:namedview
     id="base"
     pagecolor="#ffffff"
     bordercolor="#666666"
     borderopacity="1.0"
     gridtolerance="10000"
     guidetolerance="10"
     objecttolerance="10"
     inkscape:pageopacity="0.0"
     inkscape:pageshadow="2"
     inkscape:zoom="3.3828125"
     inkscape:cx="128"
     inkscape:cy="128"
     inkscape:document-units="px"
     inkscape:current-layer="layer1"
     width="256px"
     height="256px"
     inkscape:window-width="1304"
     inkscape:window-height="1074"
     inkscape:window-x="288"
     inkscape:window-y="0" />
  <metadata
     id="metadata7">
    <rdf:RDF>
      <cc:Work
         rdf:about="">
        <dc:format>image/svg+xml</dc:format>
        <dc:type
           rdf:resource="http://purl.org/dc/dcmitype/StillImage" />
      </cc:Work>
    </rdf:RDF>
  </metadata>
  <g
     inkscape:label="Layer 1"
     inkscape:groupmode="layer"
     id="layer1">
    <path
       style="opacity:1;fill:white;fill-opacity:1;stroke:#a0bdf0;stroke-width:10.136;stroke-linejoin:round;stroke-miterlimit:4;stroke-dasharray:none;stroke-dashoffset:0;stroke-opacity:1"
       d="M 124.75,18.03125 C 60.131576,18.03125 7.6875002,58.878375 7.6875,109.21875 C 7.6875,148.16791 39.080816,181.43679 83.21875,194.5 L 83.0625,194.5 C 83.062497,194.5 75.088298,219.34926 39.614896,244.77194 C 25.731828,254.7215 133.05689,228.45117 140.46673,197.67487 C 203.00347,185.93954 241.8125,148.37282 241.8125,109.21875 C 241.8125,58.878377 189.36842,18.031249 124.75,18.03125 z "
       id="path1872"
       sodipodi:nodetypes="csccscsc" />
    <path
       style="opacity:1;fill:#c2cee9;fill-opacity:1;stroke:none;stroke-width:6.5;stroke-linejoin:round;stroke-miterlimit:4;stroke-dasharray:none;stroke-dashoffset:0;stroke-opacity:1"
       d="M 231.56708,106.42025 C 227.75762,171.66721 142.89558,200.66855 90.984941,170.19185 C 41.006637,147.68553 36.23925,69.774359 87.053463,45.55085 C 138.59081,13.436069 228.90289,37.302365 231.56708,106.42025 z "
       id="path2820" />
    <path
       sodipodi:type="arc"
       style="opacity:1;fill:white;fill-opacity:1;stroke:none;stroke-width:6.5;stroke-linejoin:round;stroke-miterlimit:4;stroke-dasharray:none;stroke-dashoffset:0;stroke-opacity:1"
       id="path3707"
       sodipodi:cx="137.60739"
       sodipodi:cy="114.25404"
       sodipodi:rx="88.535797"
       sodipodi:ry="63.704388"
       d="M 226.14319 114.25404 A 88.535797 63.704388 0 1 1  49.071594,114.25404 A 88.535797 63.704388 0 1 1  226.14319 114.25404 z"
       transform="matrix(1.012848,0,0,1.233633,-12.1144,-31.57103)" />
    <path
       style="font-size:80px;font-style:normal;font-variant:normal;font-weight:bold;font-stretch:normal;text-align:start;line-height:100%;writing-mode:lr-tb;text-anchor:start;fill:#3074c1;fill-opacity:1;font-family:Bitstream Vera Sans"
       d="M 50.091011,76.76712 C 50.091011,81.955538 50.091011,87.143957 50.091011,92.332375 C 54.969368,92.332375 59.847725,92.332375 64.726082,92.332375 C 64.726082,96.509216 64.726082,100.68606 64.726082,104.8629 C 59.847725,104.8629 54.969368,104.8629 50.091011,104.8629 C 50.118322,113.06118 50.035423,121.26182 50.134225,129.45856 C 49.940627,132.25592 51.982201,134.80062 54.915595,134.57643 C 57.773946,134.67263 60.636433,134.60056 63.496578,134.62289 C 63.496578,138.79973 63.496578,142.97657 63.496578,147.15341 C 58.290182,147.07357 53.068612,147.34497 47.875344,146.9473 C 43.58124,146.55853 39.180447,144.17951 37.695252,139.91938 C 35.176928,133.38145 36.062517,126.27211 35.892211,119.42178 C 35.892212,114.56882 35.892212,109.71586 35.892212,104.8629 C 33.538966,104.8629 31.185721,104.8629 28.832476,104.8629 C 28.832476,100.68606 28.832476,96.509216 28.832476,92.332375 C 31.185721,92.332375 33.538966,92.332375 35.892212,92.332375 C 35.892212,87.143957 35.892212,81.955538 35.892212,76.76712 C 40.625145,76.76712 45.358078,76.76712 50.091011,76.76712 z "
       id="path4629" />
    <path
       style="font-size:80px;font-style:normal;font-variant:normal;font-weight:bold;font-stretch:normal;text-align:start;line-height:100%;writing-mode:lr-tb;text-anchor:start;font-family:Bitstream Vera Sans"
       d="M 93.361646,122.48395 C 90.400234,122.48397 88.165975,123.10397 86.658861,124.34394 C 85.178149,125.58396 84.437803,127.41132 84.43782,129.82604 C 84.437803,132.04501 85.032724,133.79079 86.222586,135.06341 C 87.438849,136.30342 89.117848,136.92342 91.259589,136.9234 C 93.930099,136.92342 96.177576,135.74868 98.002038,133.3992 C 99.826429,131.01712 100.73864,128.04765 100.73867,124.49078 L 100.73867,122.48395 L 93.361646,122.48395"
       id="path4627" />
    <path
       style="font-size:80px;font-style:normal;font-variant:normal;font-weight:bold;font-stretch:normal;text-align:start;line-height:100%;writing-mode:lr-tb;text-anchor:start;fill:#ee1b1e;fill-opacity:1;font-family:Bitstream Vera Sans"
       d="M 115.05645,115.87605 C 115.05645,126.30184 115.05645,136.72762 115.05645,147.15341 C 110.28386,147.15341 105.51126,147.15341 100.73867,147.15341 C 100.41834,145.05689 101.38027,140.31168 100.23588,139.92984 C 97.313967,145.17038 91.584384,149.03266 85.443641,148.63266 C 79.161752,148.64758 73.136748,144.33489 71.356798,138.26778 C 69.295353,132.39398 69.748944,125.68126 72.478968,120.10256 C 75.795177,114.47323 82.670736,112.43796 88.834178,112.18327 C 92.797608,111.9148 96.770921,112.13119 100.73867,112.05815 C 101.23921,108.52562 99.487576,104.18952 95.644496,103.48351 C 89.933434,101.77425 83.761533,102.82327 78.269587,104.80535 C 76.650006,105.5797 73.175264,108.3599 74.006863,104.72317 C 74.006864,101.08238 74.00686,97.441589 74.006859,93.800797 C 83.622894,91.093664 94.141183,89.567878 103.81536,92.844207 C 109.40017,95.016361 113.217,100.45499 114.15024,106.2779 C 114.84101,109.42638 115.0385,112.6601 115.05645,115.87605 z "
       id="path4625" />
    <path
       style="font-size:80px;font-style:normal;font-variant:normal;font-weight:bold;font-stretch:normal;text-align:start;line-height:100%;writing-mode:lr-tb;text-anchor:start;fill:#ffd634;fill-opacity:1;font-family:Bitstream Vera Sans"
       d="M 128.34303,70.991333 C 132.87513,71.390502 139.00229,70.194607 142.54182,71.586349 C 142.54182,96.775369 142.54182,121.96439 142.54182,147.15341 C 138.00972,146.75424 131.88256,147.95014 128.34303,146.55839 C 128.34303,121.36937 128.34303,96.180348 128.34303,70.991333 z "
       id="path4623" />
    <path
       style="font-size:80px;font-style:normal;font-variant:normal;font-weight:bold;font-stretch:normal;text-align:start;line-height:100%;writing-mode:lr-tb;text-anchor:start;fill:#279e12;fill-opacity:1;font-family:Bitstream Vera Sans"
       d="M 156.26469,70.991333 C 160.78082,71.424066 167.02736,70.126389 170.46349,71.63912 C 170.46349,85.242657 170.46349,98.846193 170.46349,112.44973 C 175.91033,105.74394 181.35717,99.038155 186.80402,92.332375 C 192.30374,92.332375 197.80346,92.332375 203.30318,92.332375 C 196.07157,100.71869 188.83996,109.105 181.60835,117.49131 C 189.40844,127.37868 197.20852,137.26604 205.00861,147.15341 C 199.10841,146.27742 191.44349,148.95417 186.7123,145.72476 C 181.29603,138.58151 175.87976,131.43825 170.46349,124.295 C 170.46349,131.91447 170.46349,139.53394 170.46349,147.15341 C 165.93139,146.75424 159.80422,147.95014 156.26469,146.55839 C 156.26469,121.36937 156.26463,96.180345 156.26469,70.991333 z "
       id="flowRoot4612" />
    <path
       style="fill:white;fill-opacity:1;stroke:none;stroke-width:6.5;stroke-linejoin:round;stroke-miterlimit:4;stroke-dashoffset:0;stroke-opacity:1"
       inkscape:transform-center-x="-8.3275602"
       inkscape:transform-center-y="-2.3294291"
       d="M 99.413433,121.56436 C 100.5362,122.65165 100.28177,131.65218 98.56165,132.9429 C 93.944866,136.40717 90.055977,140.25253 81.06485,137.39156 C 76.916409,136.07153 79.271931,127.75156 82.244469,124.23934 C 86.463992,119.25374 97.634963,119.59022 99.413433,121.56436 z "
       id="path5516"
       sodipodi:nodetypes="csssc" />
  </g>
</svg>
