<?xml version="1.0" encoding="iso-8859-1"?>
<!-- Generator: Adobe Illustrator 12.0.1, SVG Export Plug-In . SVG Version: 6.00 Build 51448)  -->
<!DOCTYPE svg PUBLIC "-//W3C//DTD SVG 1.1//EN" "http://www.w3.org/Graphics/SVG/1.1/DTD/svg11.dtd" [
	<!ENTITY ns_svg "http://www.w3.org/2000/svg">
	<!ENTITY ns_xlink "http://www.w3.org/1999/xlink">
]>
<svg  version="1.1" id="&#x56FE;&#x5C42;_1" xmlns="&ns_svg;" xmlns:xlink="&ns_xlink;" width="27.58" height="27.725"
	 viewBox="0 0 27.58 27.725" style="overflow:visible;enable-background:new 0 0 27.58 27.725;" xml:space="preserve">
<g>
	<g>
		<g>
			
				<linearGradient id="XMLID_8_" gradientUnits="userSpaceOnUse" x1="9.7739" y1="4.6338" x2="8.5428" y2="-9.1823" gradientTransform="matrix(0.7925 -0.3926 0.4381 0.8844 12.5865 12.0659)">
				<stop  offset="0" style="stop-color:#F46A58"/>
				<stop  offset="0.2008" style="stop-color:#F84D3A"/>
				<stop  offset="0.5393" style="stop-color:#FF1300"/>
				<stop  offset="0.6166" style="stop-color:#FD210F"/>
				<stop  offset="0.7654" style="stop-color:#F64737"/>
				<stop  offset="0.969" style="stop-color:#EC8376"/>
				<stop  offset="1" style="stop-color:#EA8D80"/>
			</linearGradient>
			<path style="fill:url(#XMLID_8_);stroke:#000000;stroke-width:0.5;" d="M20.471,6.468c1.473,2.621,2.328,4.097,2.328,4.097
				l-1.654,3.858c0,0-2.587-2.774-4.075-5.847c-1.89-3.9-2.233-7.976-2.233-7.976h3.632C18.468,0.601,18.826,3.541,20.471,6.468z"/>
		</g>
	</g>
	<g>
		<g>
			
				<linearGradient id="XMLID_9_" gradientUnits="userSpaceOnUse" x1="14.5117" y1="1.3154" x2="13.7704" y2="-7.0039" gradientTransform="matrix(0.7925 -0.3926 0.4381 0.8844 12.5865 12.0659)">
				<stop  offset="0" style="stop-color:#F46A58"/>
				<stop  offset="0.1987" style="stop-color:#F74C3F"/>
				<stop  offset="0.5393" style="stop-color:#FD110D"/>
				<stop  offset="0.6186" style="stop-color:#FB201B"/>
				<stop  offset="0.7714" style="stop-color:#F54740"/>
				<stop  offset="0.9805" style="stop-color:#EB877A"/>
				<stop  offset="1" style="stop-color:#EA8D80"/>
			</linearGradient>
			<path style="fill:url(#XMLID_9_);stroke:#000000;stroke-width:0.5;" d="M24.096,4.176c0.506,0.855,1.013,1.823,1.013,1.823
				l-1.437,2.958c0,0-1.154-1.439-2.201-3.614c-0.773-1.605-1.544-4.742-1.544-4.742h2.572C22.499,0.601,23.13,2.544,24.096,4.176z"
				/>
		</g>
	</g>
	<g>
		<g>
			
				<linearGradient id="XMLID_10_" gradientUnits="userSpaceOnUse" x1="18.666" y1="-1.0928" x2="18.3023" y2="-5.1747" gradientTransform="matrix(0.7925 -0.3926 0.4381 0.8844 12.5865 12.0659)">
				<stop  offset="0" style="stop-color:#F46A58"/>
				<stop  offset="0.1987" style="stop-color:#F74C3F"/>
				<stop  offset="0.5393" style="stop-color:#FD110D"/>
				<stop  offset="0.6186" style="stop-color:#FB201B"/>
				<stop  offset="0.7714" style="stop-color:#F54740"/>
				<stop  offset="0.9805" style="stop-color:#EB877A"/>
				<stop  offset="1" style="stop-color:#EA8D80"/>
			</linearGradient>
			<path style="fill:url(#XMLID_10_);stroke:#000000;stroke-width:0.5;" d="M27.303,2.551l-1.329,2.193c0,0-0.691-1.025-1.216-2.128
				c-0.745-1.565-0.715-1.914-0.715-1.914h2.553L27.303,2.551z"/>
		</g>
	</g>
</g>
<g>
	
		<linearGradient id="XMLID_11_" gradientUnits="userSpaceOnUse" x1="-9.7744" y1="-38.9341" x2="-5.9272" y2="-40.5473" gradientTransform="matrix(0.9968 -0.0791 0.0791 0.9968 20.3363 55.0833)">
		<stop  offset="0.0056" style="stop-color:#424242"/>
		<stop  offset="0.3202" style="stop-color:#FFFFFF"/>
		<stop  offset="0.736" style="stop-color:#CCCCCC"/>
		<stop  offset="1" style="stop-color:#424242"/>
	</linearGradient>
	<path style="fill:url(#XMLID_11_);stroke:#000000;stroke-width:0.25;" d="M2.783,7.578c0,0,8.268,17.184,9.844,19.262
		c1.579,2.078,8.031-0.472,8.516-3.253C21.631,20.803,9.36,1.899,9.36,1.899S7.49,1.887,6.62,2.414
		C5.99,2.792,3.988,3.905,3.728,4.301C3.469,4.695,2.783,7.578,2.783,7.578z"/>
	
		<linearGradient id="XMLID_12_" gradientUnits="userSpaceOnUse" x1="-10.2744" y1="-41.4824" x2="3.3574" y2="-41.4824" gradientTransform="matrix(0.9968 -0.0791 0.0791 0.9968 20.3363 55.0833)">
		<stop  offset="0.1067" style="stop-color:#ECECEC"/>
		<stop  offset="0.3202" style="stop-color:#FFFFFF"/>
		<stop  offset="0.736" style="stop-color:#CCCCCC"/>
		<stop  offset="1" style="stop-color:#424242"/>
	</linearGradient>
	<path style="fill:url(#XMLID_12_);stroke:#000000;stroke-width:0.25;" d="M6.267,2.728c0,0,0.933-0.822,2.569-1.163
		c1.635-0.336,2.618-0.537,3.57,0.467c0.957,1.006,5.268,10.311,7.115,14.736c0,0,2.502,5.835,1.276,7.679
		c-1.228,1.842-3.541,3.066-4.876,1.468c-1.33-1.601-8.154-17.946-8.969-19.835C6.139,4.191,5.52,3.283,6.267,2.728z"/>
	<path style="fill:#515151;" d="M3.898,4.206c0,0,1.92-1.359,3.043-1.864C8.067,1.835,5.721,2.487,6.15,3.817
		c0.356,1.1,8.957,20.206,9.504,21.324c0.547,1.125,1.832,1.604,2.76,1.238c0,0-1.075,0.585-1.446,0.654
		c-0.368,0.073-1.641-0.785-2.253-2.188C14.104,23.438,7.758,8.431,7.289,7.761S6.766,5.89,4.797,6.212
		C2.825,6.535,4.107,4.23,3.898,4.206z"/>
	
		<linearGradient id="XMLID_13_" gradientUnits="userSpaceOnUse" x1="-8.7285" y1="-44.0825" x2="2.1743" y2="-44.0825" gradientTransform="matrix(0.9968 -0.0791 0.0791 0.9968 20.3363 55.0833)">
		<stop  offset="0" style="stop-color:#F3E855"/>
		<stop  offset="0.9831" style="stop-color:#F3B711"/>
	</linearGradient>
	<path style="fill:url(#XMLID_13_);stroke:#000000;stroke-width:0.25;" d="M7.877,5.758C7.518,4.829,7.205,4.069,8.795,3.651
		c1.589-0.417,3.732-1.109,4.188-0.538c0.968,1.209,5.768,10.989,6.465,13.787c0.22,0.87-0.024,1.248-0.972,1.363
		c-0.588,0.076-0.967-0.128-1.725,0.807c-0.757,0.931-1.948,1.109-2.555,0.284C13.141,17.915,8.24,6.686,7.877,5.758z"/>
	
		<linearGradient id="XMLID_14_" gradientUnits="userSpaceOnUse" x1="-21.2075" y1="-35.6963" x2="-19.0587" y2="-36.688" gradientTransform="matrix(0.9023 0.0193 -0.0158 0.7697 20.0675 31.6574)">
		<stop  offset="0.0056" style="stop-color:#4F4F4F"/>
		<stop  offset="0.3202" style="stop-color:#FFFFFF"/>
		<stop  offset="0.736" style="stop-color:#CCCCCC"/>
		<stop  offset="1" style="stop-color:#424242"/>
	</linearGradient>
	<path style="fill:url(#XMLID_14_);stroke:#000000;stroke-width:0.25;" d="M0.191,1.418c0,0-0.305-0.558,0.393-0.945
		c0.18-0.101,0.17-0.095,0.627-0.286c0.307-0.128,0.92-0.11,1.275,0.582c0.346,0.67,2.195,4.322,2.195,4.322S4.968,5.77,4.283,6.267
		C3.602,6.761,3.146,6.911,2.852,6.743C2.558,6.58,0.191,1.418,0.191,1.418z"/>
	<path style="fill:#98C724;stroke:#000000;stroke-width:0.25;stroke-linecap:round;stroke-linejoin:round;" d="M9.04,6.249
		c0,0,3.337-0.931,4.264-1.295l4.602,9.782L13.98,16.63L9.04,6.249z"/>
</g>
</svg>
