<?xml version="1.0" encoding="iso-8859-1"?>
<!-- Generator: Adobe Illustrator 12.0.1, SVG Export Plug-In . SVG Version: 6.00 Build 51448)  -->
<!DOCTYPE svg PUBLIC "-//W3C//DTD SVG 1.1//EN" "http://www.w3.org/Graphics/SVG/1.1/DTD/svg11.dtd" [
	<!ENTITY ns_svg "http://www.w3.org/2000/svg">
	<!ENTITY ns_xlink "http://www.w3.org/1999/xlink">
]>
<svg  version="1.1" id="&#x56FE;&#x5C42;_1" xmlns="&ns_svg;" xmlns:xlink="&ns_xlink;" width="97.5" height="98.189"
	 viewBox="0 0 97.5 98.189" style="overflow:visible;enable-background:new 0 0 97.5 98.189;" xml:space="preserve">
<g>
	<path style="fill:#D6D923;" d="M18.166,14.822L45.575,1.667l-3.93-1.584L13.978,13.238L18.166,14.822z"/>
	<polygon style="fill:#DBC870;" points="62.583,15.53 62.666,17.613 45.166,26.478 45.135,2.103 	"/>
	<polygon style="opacity:0.72;fill:#FFFFFF;" points="48.041,21.353 47.197,3.228 46.447,2.728 47.229,22.541 62.01,15.134 
		61.229,14.541 	"/>
	<linearGradient id="XMLID_14_" gradientUnits="userSpaceOnUse" x1="40.3618" y1="72.2573" x2="36.6199" y2="24.3619">
		<stop  offset="0" style="stop-color:#ADADAD"/>
		<stop  offset="1" style="stop-color:#EBEBEB"/>
	</linearGradient>
	<polygon style="fill:url(#XMLID_14_);stroke:#221815;stroke-width:0.5;" points="62.499,15.113 46.909,2.333 42.979,0.937 
		14.312,13.427 14.874,86.519 19.833,88.905 63.25,63.988 	"/>
	<linearGradient id="XMLID_15_" gradientUnits="userSpaceOnUse" x1="13.665" y1="44.4771" x2="45.791" y2="44.4771">
		<stop  offset="0" style="stop-color:#ADADAD"/>
		<stop  offset="1" style="stop-color:#EBEBEB"/>
	</linearGradient>
	<polygon style="fill:url(#XMLID_15_);stroke:#221815;stroke-width:0.5;" points="18.437,15.051 45.791,1.884 41.646,0.271 
		13.665,13.009 15.05,86.517 19.517,88.683 	"/>
	<linearGradient id="XMLID_16_" gradientUnits="userSpaceOnUse" x1="54.9502" y1="20.8364" x2="53.7001" y2="15.2112">
		<stop  offset="0" style="stop-color:#ADADAD"/>
		<stop  offset="1" style="stop-color:#EBEBEB"/>
	</linearGradient>
	<polygon style="fill:url(#XMLID_16_);stroke:#221815;stroke-width:0.5;" points="62.124,15.269 47,22.905 46.416,2.519 	"/>
	<path style="opacity:0.31;fill:#FFFFFF;" d="M62.979,63.842L19.792,88.686l-0.626-52.364c0,0,4.853,5.907,16,12.114
		c14.667,8.167,27.396-11.698,27.396-11.698L62.979,63.842z"/>
	<linearGradient id="XMLID_17_" gradientUnits="userSpaceOnUse" x1="14.249" y1="7.7437" x2="46.25" y2="7.7437">
		<stop  offset="0" style="stop-color:#ADADAD"/>
		<stop  offset="1" style="stop-color:#EBEBEB"/>
	</linearGradient>
	<path style="fill:url(#XMLID_17_);stroke:#221815;stroke-width:0.5;" d="M18.437,15.051L46.25,2.269l-4.5-1.833L14.249,13.019
		L18.437,15.051z"/>
</g>
<g>
	<path style="fill:#D6D923;" d="M28.5,19.823L55.909,6.668l-3.93-1.585L24.312,18.24L28.5,19.823z"/>
	<polygon style="fill:#DBC870;" points="72.917,20.531 73,22.614 55.5,31.479 55.469,7.104 	"/>
	<polygon style="opacity:0.72;fill:#FFFFFF;" points="58.375,26.354 57.531,8.229 56.781,7.729 57.563,27.542 72.344,20.135 
		71.563,19.542 	"/>
	<linearGradient id="XMLID_18_" gradientUnits="userSpaceOnUse" x1="50.6953" y1="77.2583" x2="46.9534" y2="29.3623">
		<stop  offset="0" style="stop-color:#ADADAD"/>
		<stop  offset="1" style="stop-color:#EBEBEB"/>
	</linearGradient>
	<polygon style="fill:url(#XMLID_18_);stroke:#221815;stroke-width:0.5;" points="72.833,20.114 57.243,7.334 53.313,5.937 
		24.646,18.427 25.208,91.52 30.167,93.906 73.584,68.989 	"/>
	<linearGradient id="XMLID_19_" gradientUnits="userSpaceOnUse" x1="23.999" y1="49.4771" x2="56.125" y2="49.4771">
		<stop  offset="0" style="stop-color:#ADADAD"/>
		<stop  offset="1" style="stop-color:#EBEBEB"/>
	</linearGradient>
	<polygon style="fill:url(#XMLID_19_);stroke:#221815;stroke-width:0.5;" points="28.771,20.052 56.125,6.885 51.979,5.271 
		23.999,18.011 25.384,91.518 29.851,93.684 	"/>
	<linearGradient id="XMLID_20_" gradientUnits="userSpaceOnUse" x1="65.2842" y1="25.8364" x2="64.0342" y2="20.2114">
		<stop  offset="0" style="stop-color:#ADADAD"/>
		<stop  offset="1" style="stop-color:#EBEBEB"/>
	</linearGradient>
	<polygon style="fill:url(#XMLID_20_);stroke:#221815;stroke-width:0.5;" points="72.458,20.27 57.334,27.906 56.75,7.52 	"/>
	<path style="opacity:0.31;fill:#FFFFFF;" d="M73.313,68.843L30.126,93.687L29.5,41.323c0,0,4.853,5.907,16,12.114
		c14.667,8.167,27.396-11.698,27.396-11.698L73.313,68.843z"/>
	<linearGradient id="XMLID_21_" gradientUnits="userSpaceOnUse" x1="24.583" y1="12.7446" x2="56.584" y2="12.7446">
		<stop  offset="0" style="stop-color:#ADADAD"/>
		<stop  offset="1" style="stop-color:#EBEBEB"/>
	</linearGradient>
	<path style="fill:url(#XMLID_21_);stroke:#221815;stroke-width:0.5;" d="M28.771,20.052L56.584,7.27l-4.5-1.833L24.583,18.02
		L28.771,20.052z"/>
</g>
<g>
	<path style="fill:#D6D923;" d="M39.167,23.824l27.409-13.154l-3.93-1.584L34.979,22.24L39.167,23.824z"/>
	<polygon style="fill:#DBC870;" points="83.584,24.532 83.667,26.615 66.167,35.48 66.136,11.105 	"/>
	<polygon style="opacity:0.72;fill:#FFFFFF;" points="69.042,30.355 68.198,12.23 67.448,11.73 68.229,31.542 83.011,24.136 
		82.229,23.542 	"/>
	<linearGradient id="XMLID_22_" gradientUnits="userSpaceOnUse" x1="61.3623" y1="81.2593" x2="57.6204" y2="33.3638">
		<stop  offset="0" style="stop-color:#D0D0D0"/>
		<stop  offset="1" style="stop-color:#FEFEFE"/>
	</linearGradient>
	<polygon style="fill:url(#XMLID_22_);stroke:#221815;stroke-width:0.5;" points="83.5,24.115 67.91,11.335 63.98,9.939 
		35.313,22.429 35.875,95.521 40.834,97.907 84.251,72.99 	"/>
	<linearGradient id="XMLID_23_" gradientUnits="userSpaceOnUse" x1="34.666" y1="53.479" x2="66.792" y2="53.479">
		<stop  offset="0" style="stop-color:#ADADAD"/>
		<stop  offset="1" style="stop-color:#EBEBEB"/>
	</linearGradient>
	<polygon style="fill:url(#XMLID_23_);stroke:#221815;stroke-width:0.5;" points="39.438,24.053 66.792,10.886 62.646,9.273 
		34.666,22.011 36.051,95.519 40.518,97.685 	"/>
	<linearGradient id="XMLID_24_" gradientUnits="userSpaceOnUse" x1="75.9521" y1="29.8374" x2="74.7021" y2="24.2124">
		<stop  offset="0" style="stop-color:#ADADAD"/>
		<stop  offset="1" style="stop-color:#EBEBEB"/>
	</linearGradient>
	<polygon style="fill:url(#XMLID_24_);stroke:#221815;stroke-width:0.5;" points="83.125,24.271 68.001,31.907 67.417,11.521 	"/>
	<linearGradient id="XMLID_25_" gradientUnits="userSpaceOnUse" x1="40.167" y1="71.5063" x2="83.9805" y2="71.5063">
		<stop  offset="0" style="stop-color:#C1C1C1"/>
		<stop  offset="1" style="stop-color:#FEFEFE"/>
	</linearGradient>
	<path style="opacity:0.31;fill:url(#XMLID_25_);" d="M83.98,72.844L40.793,97.688l-0.626-52.364c0,0,4.853,5.907,16,12.114
		C70.834,65.605,83.563,45.74,83.563,45.74L83.98,72.844z"/>
	<linearGradient id="XMLID_26_" gradientUnits="userSpaceOnUse" x1="35.25" y1="16.7456" x2="67.251" y2="16.7456">
		<stop  offset="0" style="stop-color:#ADADAD"/>
		<stop  offset="1" style="stop-color:#EBEBEB"/>
	</linearGradient>
	<path style="fill:url(#XMLID_26_);stroke:#221815;stroke-width:0.5;" d="M39.438,24.053l27.813-12.782l-4.5-1.833L35.25,22.021
		L39.438,24.053z"/>
</g>
<rect y="0.157" style="fill:none;" width="97.5" height="97.5"/>
</svg>
