<?xml version="1.0" encoding="iso-8859-1"?>
<!-- Generator: Adobe Illustrator 12.0.1, SVG Export Plug-In . SVG Version: 6.00 Build 51448)  -->
<!DOCTYPE svg PUBLIC "-//W3C//DTD SVG 1.1//EN" "http://www.w3.org/Graphics/SVG/1.1/DTD/svg11.dtd" [
	<!ENTITY ns_svg "http://www.w3.org/2000/svg">
	<!ENTITY ns_xlink "http://www.w3.org/1999/xlink">
]>
<svg  version="1.1" id="&#x56FE;&#x5C42;_1" xmlns="&ns_svg;" xmlns:xlink="&ns_xlink;" width="96.894" height="95.505"
	 viewBox="0 0 96.894 95.505" style="overflow:visible;enable-background:new 0 0 96.894 95.505;" xml:space="preserve">
<path style="fill:#CB6A0B;stroke:#000000;stroke-width:2;" d="M19.724,93.421c-4.953-1.395-17.48-8.309-3.843-20.863
	C29.517,60.005,50.079,59.14,57.006,56.758c6.925-2.382,26.189,2.813,31.384,6.71c5.195,3.896,10.389,10.39,5.627,18.182
	c-4.762,7.792-15.367,10.823-26.623,10.823c-11.255,0-15.151-4.762-15.151-4.762S35.09,97.751,19.724,93.421z"/>
<path style="fill:#F8C20F;stroke:#7C3E08;" d="M19.506,90.392c-4.954-1.398-17.479-8.311-3.844-20.864
	c13.637-12.555,34.2-13.42,41.127-15.801c6.926-2.381,26.189,2.813,31.384,6.709c5.193,3.896,10.389,10.391,5.627,18.182
	c-4.762,7.792-15.367,10.823-26.623,10.823c-11.256,0-15.15-4.762-15.15-4.762S34.872,94.72,19.506,90.392z"/>
<linearGradient id="XMLID_7_" gradientUnits="userSpaceOnUse" x1="60.0742" y1="53.0483" x2="71.0205" y2="59.9445">
	<stop  offset="0" style="stop-color:#F4D512"/>
	<stop  offset="0.1163" style="stop-color:#E9B912"/>
	<stop  offset="0.3652" style="stop-color:#D38211"/>
	<stop  offset="0.5511" style="stop-color:#C56010"/>
	<stop  offset="0.6517" style="stop-color:#C05310"/>
	<stop  offset="1" style="stop-color:#7A350D"/>
</linearGradient>
<path style="fill:url(#XMLID_7_);stroke:#874A0C;stroke-width:0.5;" d="M59.115,54.57h12.77v4.003c0,0-6.277,4.113-12.77-0.215
	V54.57z"/>
<linearGradient id="XMLID_8_" gradientUnits="userSpaceOnUse" x1="53.6709" y1="65.5225" x2="70.6588" y2="76.2249">
	<stop  offset="0" style="stop-color:#F4D512"/>
	<stop  offset="0.1163" style="stop-color:#E9B912"/>
	<stop  offset="0.3652" style="stop-color:#D38211"/>
	<stop  offset="0.5511" style="stop-color:#C56010"/>
	<stop  offset="0.6517" style="stop-color:#C05310"/>
	<stop  offset="1" style="stop-color:#7A350D"/>
</linearGradient>
<path style="fill:url(#XMLID_8_);stroke:#874A0C;stroke-width:0.5;" d="M52.405,67.557h19.609c0,0,0,3.532,0,6.257
	c0,2.726-14.72,6.838-19.609-0.338C52.405,66.799,52.405,67.557,52.405,67.557z"/>
<linearGradient id="XMLID_9_" gradientUnits="userSpaceOnUse" x1="77.647" y1="62.6494" x2="91.2489" y2="71.2186">
	<stop  offset="0" style="stop-color:#F4D512"/>
	<stop  offset="0.1163" style="stop-color:#E9B912"/>
	<stop  offset="0.3652" style="stop-color:#D38211"/>
	<stop  offset="0.5511" style="stop-color:#C56010"/>
	<stop  offset="0.6517" style="stop-color:#C05310"/>
	<stop  offset="1" style="stop-color:#7A350D"/>
</linearGradient>
<path style="fill:url(#XMLID_9_);stroke:#874A0C;stroke-width:0.5;" d="M78.32,61.591l14.547,4.836c0,0-0.871,2.621-1.543,4.642
	c-0.674,2.022-12.605,1.442-14.465-5.086C78.505,61.029,78.32,61.591,78.32,61.591z"/>
<linearGradient id="XMLID_10_" gradientUnits="userSpaceOnUse" x1="14.1753" y1="63.9028" x2="40.7465" y2="80.6428">
	<stop  offset="0" style="stop-color:#FFFFFF"/>
	<stop  offset="0.2085" style="stop-color:#B2B2B2"/>
	<stop  offset="0.4329" style="stop-color:#676767"/>
	<stop  offset="0.6191" style="stop-color:#2F2F2F"/>
	<stop  offset="0.7569" style="stop-color:#0D0D0D"/>
	<stop  offset="0.8315" style="stop-color:#000000"/>
</linearGradient>
<path style="fill:url(#XMLID_10_);stroke:#000000;stroke-width:0.5;" d="M48.66,72.183c0.713,5.517-6.637,11.013-16.418,12.276
	c-9.78,1.263-18.289-2.184-19-7.698c-0.714-5.517,6.638-11.013,16.418-12.276C39.441,63.221,47.947,66.668,48.66,72.183z"/>
<linearGradient id="XMLID_11_" gradientUnits="userSpaceOnUse" x1="25.2368" y1="55.6211" x2="29.9917" y2="54.4798">
	<stop  offset="0" style="stop-color:#FFFFFF"/>
	<stop  offset="0.0278" style="stop-color:#F7F7F7"/>
	<stop  offset="0.3178" style="stop-color:#ACACAC"/>
	<stop  offset="0.5576" style="stop-color:#747575"/>
	<stop  offset="0.7354" style="stop-color:#525353"/>
	<stop  offset="0.8315" style="stop-color:#454646"/>
</linearGradient>
<path style="fill:url(#XMLID_11_);stroke:#000000;" d="M20.371,42.774l7.144,31.6c0,0,3.68,2.165,6.71-1.515l-3.897-31.602
	l-3.463-6.71L20.371,42.774z"/>
<circle style="fill:#FF4A00;stroke:#442707;stroke-width:2;" cx="21.887" cy="21.888" r="20.887"/>
<linearGradient id="XMLID_12_" gradientUnits="userSpaceOnUse" x1="9.9375" y1="11.9883" x2="25.9132" y2="20.1666">
	<stop  offset="0" style="stop-color:#FFFFFF"/>
	<stop  offset="0.0896" style="stop-color:#FFF8F2"/>
	<stop  offset="0.2555" style="stop-color:#FFE4D0"/>
	<stop  offset="0.4793" style="stop-color:#FFC598"/>
	<stop  offset="0.7492" style="stop-color:#FF9A4D"/>
	<stop  offset="1" style="stop-color:#FF6E00"/>
</linearGradient>
<ellipse style="fill:url(#XMLID_12_);" cx="15.437" cy="14.804" rx="8.864" ry="8.981"/>
<ellipse style="fill:#F8F842;stroke:#442707;stroke-width:0.5;" cx="65.5" cy="54.57" rx="6.385" ry="3.569"/>
<ellipse style="fill:#F8F842;stroke:#442707;stroke-width:0.5;" cx="62.145" cy="67.557" rx="9.74" ry="5.519"/>
<ellipse transform="matrix(0.9673 0.2535 -0.2535 0.9673 19.0486 -19.6165)" style="fill:#F8F842;stroke:#442707;stroke-width:0.5;" cx="85.629" cy="64.094" rx="7.9" ry="4.437"/>
</svg>
