<?xml version="1.0" encoding="UTF-8" standalone="no"?>
<!-- Created with Inkscape (http://www.inkscape.org/) -->
<svg
   xmlns:dc="http://purl.org/dc/elements/1.1/"
   xmlns:cc="http://web.resource.org/cc/"
   xmlns:rdf="http://www.w3.org/1999/02/22-rdf-syntax-ns#"
   xmlns:svg="http://www.w3.org/2000/svg"
   xmlns="http://www.w3.org/2000/svg"
   xmlns:xlink="http://www.w3.org/1999/xlink"
   xmlns:sodipodi="http://sodipodi.sourceforge.net/DTD/sodipodi-0.dtd"
   xmlns:inkscape="http://www.inkscape.org/namespaces/inkscape"
   width="69"
   height="134"
   id="svg1307"
   sodipodi:version="0.32"
   inkscape:version="0.44.1"
   version="1.0"
   sodipodi:docbase="/home/user"
   sodipodi:docname="Key.svg">
  <defs
     id="defs1309">
    <linearGradient
       inkscape:collect="always"
       id="linearGradient5022">
      <stop
         style="stop-color:white;stop-opacity:1;"
         offset="0"
         id="stop5024" />
      <stop
         style="stop-color:white;stop-opacity:0;"
         offset="1"
         id="stop5026" />
    </linearGradient>
    <linearGradient
       inkscape:collect="always"
       id="linearGradient3205">
      <stop
         style="stop-color:black;stop-opacity:1;"
         offset="0"
         id="stop3207" />
      <stop
         style="stop-color:black;stop-opacity:0;"
         offset="1"
         id="stop3210" />
    </linearGradient>
    <linearGradient
       id="linearGradient3160">
      <stop
         style="stop-color:#656565;stop-opacity:1;"
         offset="0"
         id="stop3162" />
      <stop
         style="stop-color:#a6a6a6;stop-opacity:1;"
         offset="1"
         id="stop3164" />
    </linearGradient>
    <linearGradient
       id="linearGradient3146">
      <stop
         style="stop-color:white;stop-opacity:1;"
         offset="0"
         id="stop3148" />
      <stop
         id="stop3183"
         offset="0"
         style="stop-color:white;stop-opacity:0.49803922;" />
      <stop
         style="stop-color:#ccc;stop-opacity:0.24705882;"
         offset="0.75"
         id="stop3185" />
      <stop
         style="stop-color:white;stop-opacity:0;"
         offset="1"
         id="stop3150" />
    </linearGradient>
    <linearGradient
       id="linearGradient2930">
      <stop
         style="stop-color:black;stop-opacity:0.50180507;"
         offset="0"
         id="stop2932" />
      <stop
         id="stop2938"
         offset="0.13736264"
         style="stop-color:black;stop-opacity:0;" />
      <stop
         style="stop-color:white;stop-opacity:0;"
         offset="0.29486871"
         id="stop2940" />
      <stop
         id="stop2942"
         offset="0.58544481"
         style="stop-color:white;stop-opacity:0.79061371;" />
      <stop
         style="stop-color:black;stop-opacity:0;"
         offset="1"
         id="stop2934" />
    </linearGradient>
    <linearGradient
       inkscape:collect="always"
       id="linearGradient2917">
      <stop
         style="stop-color:black;stop-opacity:1;"
         offset="0"
         id="stop2919" />
      <stop
         style="stop-color:black;stop-opacity:0;"
         offset="1"
         id="stop2921" />
    </linearGradient>
    <linearGradient
       id="linearGradient2890">
      <stop
         style="stop-color:#434542;stop-opacity:1;"
         offset="0"
         id="stop2892" />
      <stop
         id="stop2898"
         offset="0.07692308"
         style="stop-color:#cecfce;stop-opacity:1;" />
      <stop
         style="stop-color:white;stop-opacity:1;"
         offset="1"
         id="stop2894" />
    </linearGradient>
    <linearGradient
       id="linearGradient3225">
      <stop
         style="stop-color:#ffffff;stop-opacity:1;"
         offset="0"
         id="stop3227" />
      <stop
         style="stop-color:#aeaeae;stop-opacity:1;"
         offset="1"
         id="stop3229" />
    </linearGradient>
    <linearGradient
       inkscape:collect="always"
       xlink:href="#linearGradient3160"
       id="linearGradient2359"
       gradientUnits="userSpaceOnUse"
       gradientTransform="matrix(1.354639e-3,-0.977238,0.977238,-1.354639e-3,-26.55836,130.5345)"
       x1="34.981007"
       y1="89.296867"
       x2="34.981007"
       y2="6.8746934" />
    <linearGradient
       inkscape:collect="always"
       xlink:href="#linearGradient3225"
       id="linearGradient2363"
       gradientUnits="userSpaceOnUse"
       gradientTransform="matrix(1.475265e-3,-1.063804,1.063804,-1.475265e-3,-31.20591,141.3742)"
       x1="132.77945"
       y1="22.707912"
       x2="-20.653816"
       y2="91.103127" />
    <radialGradient
       inkscape:collect="always"
       xlink:href="#linearGradient5022"
       id="radialGradient2411"
       gradientUnits="userSpaceOnUse"
       gradientTransform="matrix(1.354639e-3,-0.977238,0.274033,-3.798624e-4,5.475927,130.4901)"
       cx="29.341269"
       cy="2.4504917"
       fx="29.341269"
       fy="2.4504917"
       r="63.399036" />
    <radialGradient
       inkscape:collect="always"
       xlink:href="#linearGradient3146"
       id="radialGradient2414"
       gradientUnits="userSpaceOnUse"
       gradientTransform="matrix(1.354639e-3,-0.977238,8.63384e-3,-1.196816e-5,38.38511,130.5819)"
       cx="96.350143"
       cy="66.806999"
       fx="96.350143"
       fy="66.806999"
       r="31.649858" />
    <radialGradient
       inkscape:collect="always"
       xlink:href="#linearGradient3205"
       id="radialGradient2417"
       gradientUnits="userSpaceOnUse"
       gradientTransform="matrix(1.354639e-3,-0.977238,3.378512e-3,-4.683265e-6,34.28356,130.4502)"
       cx="96.094643"
       cy="62.475086"
       fx="96.094643"
       fy="62.475086"
       r="30.94986" />
    <radialGradient
       inkscape:collect="always"
       xlink:href="#linearGradient3146"
       id="radialGradient2420"
       gradientUnits="userSpaceOnUse"
       gradientTransform="matrix(1.978397e-3,-1.427218,0.169858,-2.354552e-4,37.45542,172.0483)"
       cx="92.454208"
       cy="71.239235"
       fx="109.07122"
       fy="64.119919"
       r="29.344931" />
    <radialGradient
       inkscape:collect="always"
       xlink:href="#linearGradient3146"
       id="radialGradient2423"
       gradientUnits="userSpaceOnUse"
       gradientTransform="matrix(0.21062,-0.359246,0.13172,7.698473e-2,-1.055838,108.4502)"
       cx="32.381508"
       cy="14.567998"
       fx="32.381508"
       fy="14.567998"
       r="63.893539" />
    <radialGradient
       inkscape:collect="always"
       xlink:href="#linearGradient3146"
       id="radialGradient2426"
       gradientUnits="userSpaceOnUse"
       gradientTransform="matrix(1.258911e-3,-0.90818,0.152754,-2.118755e-4,15.04092,133.1806)"
       cx="98.227898"
       cy="44.293781"
       fx="98.227898"
       fy="44.293781"
       r="63.893539" />
    <radialGradient
       inkscape:collect="always"
       xlink:href="#linearGradient3146"
       id="radialGradient2429"
       gradientUnits="userSpaceOnUse"
       gradientTransform="matrix(1.258911e-3,-0.90818,0.152754,-2.118755e-4,15.04092,133.1806)"
       cx="98.227898"
       cy="44.293781"
       fx="98.227898"
       fy="44.293781"
       r="63.893539" />
    <linearGradient
       inkscape:collect="always"
       xlink:href="#linearGradient2930"
       id="linearGradient2440"
       gradientUnits="userSpaceOnUse"
       gradientTransform="matrix(1.474637e-3,-1.063805,1.063805,-1.474637e-3,-31.20591,141.3742)"
       x1="94.15625"
       y1="58.84375"
       x2="94.15625"
       y2="50.607132" />
    <linearGradient
       inkscape:collect="always"
       xlink:href="#linearGradient2917"
       id="linearGradient2443"
       gradientUnits="userSpaceOnUse"
       gradientTransform="matrix(1.474637e-3,-1.063805,1.063805,-1.474637e-3,-31.20591,141.3742)"
       x1="94.478127"
       y1="67.146591"
       x2="94.478127"
       y2="64.642754" />
    <linearGradient
       inkscape:collect="always"
       xlink:href="#linearGradient2890"
       id="linearGradient2447"
       gradientUnits="userSpaceOnUse"
       gradientTransform="matrix(1.474637e-3,-1.063805,1.063805,-1.474637e-3,-31.20591,141.3742)"
       x1="64.15625"
       y1="63.796875"
       x2="127.31514"
       y2="63.796875" />
    <linearGradient
       inkscape:collect="always"
       xlink:href="#linearGradient2890"
       id="linearGradient2450"
       gradientUnits="userSpaceOnUse"
       gradientTransform="matrix(1.474637e-3,-1.063805,1.063805,-1.474637e-3,-31.20591,141.3742)"
       x1="63.498344"
       y1="49.15625"
       x2="124.625"
       y2="49.15625" />
  </defs>
  <sodipodi:namedview
     id="base"
     pagecolor="#ffffff"
     bordercolor="#666666"
     borderopacity="1.0"
     inkscape:pageopacity="0.0"
     inkscape:pageshadow="2"
     inkscape:zoom="3.6268657"
     inkscape:cx="34.5"
     inkscape:cy="66.72428"
     inkscape:current-layer="layer1"
     showgrid="false"
     inkscape:document-units="px"
     inkscape:grid-bbox="true"
     guidetolerance="0.1px"
     showguides="true"
     inkscape:guide-bbox="true"
     inkscape:window-width="1018"
     inkscape:window-height="694"
     inkscape:window-x="441"
     inkscape:window-y="412"
     height="134px"
     width="69px" />
  <metadata
     id="metadata1312">
    <rdf:RDF>
      <cc:Work
         rdf:about="">
        <dc:format>image/svg+xml</dc:format>
        <dc:type
           rdf:resource="http://purl.org/dc/dcmitype/StillImage" />
        <cc:license
           rdf:resource="http://creativecommons.org/licenses/GPL/2.0/" />
        <dc:contributor>
          <cc:Agent>
            <dc:title>Oxygen team</dc:title>
          </cc:Agent>
        </dc:contributor>
      </cc:Work>
      <cc:License
         rdf:about="http://creativecommons.org/licenses/LGPL/2.1/">
        <cc:permits
           rdf:resource="http://web.resource.org/cc/Reproduction" />
        <cc:permits
           rdf:resource="http://web.resource.org/cc/Distribution" />
        <cc:requires
           rdf:resource="http://web.resource.org/cc/Notice" />
        <cc:permits
           rdf:resource="http://web.resource.org/cc/DerivativeWorks" />
        <cc:requires
           rdf:resource="http://web.resource.org/cc/ShareAlike" />
        <cc:requires
           rdf:resource="http://web.resource.org/cc/SourceCode" />
      </cc:License>
    </rdf:RDF>
  </metadata>
  <g
     id="layer1"
     inkscape:label="Layer 1"
     inkscape:groupmode="layer">
    <g
       id="g1941">
      <path
         style="fill:white;fill-opacity:0.75688076;fill-rule:nonzero;stroke:none;stroke-width:0.5;stroke-linecap:round;stroke-linejoin:round;stroke-miterlimit:4;stroke-dasharray:none;stroke-dashoffset:4;stroke-opacity:1"
         d="M 50.892799,3.2812959 L 50.892799,0.48658747 L 50.892799,3.2812959 z "
         id="path2276"
         sodipodi:nodetypes="ccc" />
      <path
         sodipodi:nodetypes="cssscccccccccccccsssccsccccccccccccccscccsssc"
         id="path4117"
         d="M 5.625434,101.27273 C 5.6032294,117.2907 18.602248,130.28972 34.620224,130.26752 C 50.638193,130.24531 63.639302,117.21025 63.661514,101.19228 C 63.671527,93.969109 61.409182,87.023846 56.683949,82.298614 C 54.99804,80.612716 53.147664,79.422536 51.215783,78.226336 L 51.293785,21.9582 C 51.294414,21.504772 51.260949,21.049476 51.159632,20.632433 C 51.154262,19.34585 50.633559,18.02955 49.600723,16.996714 L 40.501614,7.9316489 C 38.540472,5.9705178 35.528428,5.8089127 33.736306,7.6010462 L 27.029191,14.342109 C 27.296616,14.609523 27.470332,14.951066 27.469763,15.361461 L 27.467972,16.653415 L 24.540014,19.581372 C 23.958808,20.16259 23.957493,21.109717 24.537093,21.689316 L 26.710095,23.79422 L 23.475732,27.028583 C 23.313333,27.190994 23.206765,27.405028 23.134941,27.607043 C 23.106258,27.674887 23.085125,27.738525 23.066661,27.811125 C 23.062162,27.834082 23.069963,27.856021 23.066565,27.879128 C 23.046761,27.975781 23.032335,28.048552 23.03219,28.151159 L 23.026816,32.027032 C 23.026735,32.084593 23.054329,32.141179 23.060577,32.196981 C 23.018483,32.621968 23.14034,33.059796 23.466919,33.386375 L 27.439318,37.324731 L 27.429612,44.328498 L 23.446227,48.311882 C 22.865027,48.893082 22.863712,49.840221 23.443304,50.419812 L 25.71807,52.694579 L 22.653932,55.758718 C 22.072733,56.339919 22.071422,57.287062 22.651009,57.866649 L 27.404299,62.585895 L 27.399495,66.053778 C 27.398356,66.874578 26.722317,67.516667 25.901516,67.517805 L 23.521591,67.521108 C 22.191325,67.522945 21.718391,68.434763 21.717062,69.393541 L 21.707965,75.955324 C 20.152792,76.573884 18.649129,77.304073 17.217098,78.137473 C 17.168081,78.165998 17.129821,78.210892 17.080961,78.239656 C 10.145505,83.551105 5.6384514,91.881535 5.625434,101.27273 z M 14.386439,108.98166 C 14.392743,104.43772 18.04764,100.74887 22.591574,100.74257 C 27.135508,100.73627 30.848194,104.41491 30.841895,108.95885 C 30.835592,113.50278 27.112696,117.19173 22.568763,117.19803 C 18.024832,117.20433 14.380141,113.52559 14.386439,108.98166 z "
         style="opacity:0.1;fill:none;fill-opacity:1;fill-rule:nonzero;stroke:black;stroke-width:5.91263294;stroke-linecap:round;stroke-linejoin:round;stroke-miterlimit:4;stroke-dasharray:none;stroke-dashoffset:4;stroke-opacity:1"
         inkscape:transform-center-x="-6.6925515"
         inkscape:transform-center-y="-14.191647" />
      <path
         inkscape:transform-center-y="-14.191647"
         inkscape:transform-center-x="-6.6925515"
         style="opacity:0.2;fill:none;fill-opacity:1;fill-rule:nonzero;stroke:black;stroke-width:3.94175529;stroke-linecap:round;stroke-linejoin:round;stroke-miterlimit:4;stroke-dasharray:none;stroke-dashoffset:4;stroke-opacity:1"
         d="M 5.333185,100.98048 C 5.3109804,116.99845 18.309999,129.99747 34.327975,129.97527 C 50.345944,129.95306 63.347053,116.918 63.369265,100.90003 C 63.379278,93.67686 61.116933,86.731597 56.3917,82.006365 C 54.705791,80.320467 52.855415,79.130287 50.923534,77.934087 L 51.001536,21.665951 C 51.002165,21.212523 50.9687,20.757227 50.867383,20.340184 C 50.862013,19.053601 50.34131,17.737301 49.308474,16.704465 L 40.209365,7.6393999 C 38.248223,5.6782688 35.236179,5.5166637 33.444057,7.3087972 L 26.736942,14.04986 C 27.004367,14.317274 27.178083,14.658817 27.177514,15.069212 L 27.175723,16.361166 L 24.247765,19.289123 C 23.666559,19.870341 23.665244,20.817468 24.244844,21.397067 L 26.417846,23.501971 L 23.183483,26.736334 C 23.021084,26.898745 22.914516,27.112779 22.842692,27.314794 C 22.814009,27.382638 22.792876,27.446276 22.774412,27.518876 C 22.769913,27.541833 22.777714,27.563772 22.774316,27.586879 C 22.754512,27.683532 22.740086,27.756303 22.739941,27.85891 L 22.734567,31.734783 C 22.734486,31.792344 22.76208,31.84893 22.768328,31.904732 C 22.726234,32.329719 22.848091,32.767547 23.17467,33.094126 L 27.147069,37.032482 L 27.137363,44.036249 L 23.153978,48.019633 C 22.572778,48.600833 22.571463,49.547972 23.151055,50.127563 L 25.425821,52.40233 L 22.361683,55.466469 C 21.780484,56.04767 21.779173,56.994813 22.35876,57.5744 L 27.11205,62.293646 L 27.107246,65.761529 C 27.106107,66.582329 26.430068,67.224418 25.609267,67.225556 L 23.229342,67.228859 C 21.899076,67.230696 21.426142,68.142514 21.424813,69.101292 L 21.415716,75.663075 C 19.860543,76.281635 18.35688,77.011824 16.924849,77.845224 C 16.875832,77.873749 16.837572,77.918643 16.788712,77.947407 C 9.8532557,83.258856 5.3462024,91.589286 5.333185,100.98048 z M 14.09419,108.68941 C 14.100494,104.14547 17.755391,100.45662 22.299325,100.45032 C 26.843259,100.44403 30.555945,104.12267 30.549646,108.6666 C 30.543343,113.21053 26.820447,116.89948 22.276514,116.90578 C 17.732583,116.91208 14.087892,113.23334 14.09419,108.68941 z "
         id="path4115"
         sodipodi:nodetypes="cssscccccccccccccsssccsccccccccccccccscccsssc" />
      <path
         sodipodi:nodetypes="cssscccccccccccccsssccsccccccccccccccscccsssc"
         id="path4113"
         d="M 5.0993858,100.74668 C 5.0771812,116.76466 18.076199,129.76367 34.094176,129.74147 C 50.112144,129.71926 63.113254,116.6842 63.135466,100.66623 C 63.145479,93.44306 60.883134,86.497798 56.157901,81.772566 C 54.471991,80.086668 52.621615,78.896487 50.689735,77.700288 L 50.767737,21.432152 C 50.768366,20.978723 50.734901,20.523428 50.633584,20.106385 C 50.628214,18.819802 50.107511,17.503502 49.074675,16.470666 L 39.97556,7.4055948 C 38.014423,5.4444696 35.00238,5.2828645 33.210258,7.074998 L 26.503142,13.816061 C 26.770568,14.083475 26.944283,14.425018 26.943715,14.835413 L 26.941923,16.127367 L 24.013966,19.055324 C 23.43276,19.636541 23.431445,20.583668 24.011045,21.163268 L 26.184047,23.268171 L 22.949684,26.502534 C 22.787285,26.664946 22.680716,26.87898 22.608892,27.080995 C 22.580203,27.148833 22.559077,27.212476 22.540613,27.285077 C 22.536114,27.308034 22.543915,27.329972 22.540517,27.35308 C 22.520713,27.449733 22.506287,27.522504 22.506142,27.625111 L 22.500768,31.500984 C 22.500687,31.558545 22.528281,31.61513 22.534529,31.670932 C 22.492435,32.09592 22.614289,32.533746 22.94087,32.860327 L 26.91327,36.798683 L 26.903564,43.802449 L 22.920179,47.785834 C 22.338979,48.367034 22.337664,49.314172 22.917255,49.893764 L 25.192022,52.168531 L 22.127884,55.232669 C 21.546685,55.81387 21.545374,56.761014 22.124961,57.340601 L 26.878251,62.059847 L 26.873447,65.52773 C 26.872308,66.34853 26.196268,66.990619 25.375468,66.991757 L 22.995542,66.99506 C 21.665277,66.996897 21.192343,67.908714 21.191014,68.867493 L 21.181917,75.429276 C 19.626744,76.047836 18.123081,76.778025 16.69105,77.611425 C 16.642033,77.63995 16.603773,77.684844 16.554913,77.713608 C 9.6194565,83.025057 5.1124032,91.355487 5.0993858,100.74668 z M 13.860391,108.45561 C 13.866695,103.91168 17.521591,100.22283 22.065526,100.21653 C 26.60946,100.21023 30.322145,103.88887 30.315847,108.4328 C 30.309544,112.97673 26.586648,116.66568 22.042714,116.67198 C 17.498784,116.67828 13.854093,112.99955 13.860391,108.45561 z "
         style="opacity:0.3;fill:none;fill-opacity:1;fill-rule:nonzero;stroke:black;stroke-width:1.97087765;stroke-linecap:round;stroke-linejoin:round;stroke-miterlimit:4;stroke-dasharray:none;stroke-dashoffset:4;stroke-opacity:1"
         inkscape:transform-center-x="-6.6925515"
         inkscape:transform-center-y="-14.191647" />
      <path
         inkscape:transform-center-y="-14.191674"
         inkscape:transform-center-x="-6.692567"
         sodipodi:nodetypes="cssssscccccccccccccsssccsccccccccccccccscccsssc"
         id="path1969"
         d="M 5.0993723,100.74667 C 5.0771631,116.76464 18.076177,129.76365 34.094154,129.74145 C 50.112119,129.71923 63.113237,116.68416 63.135443,100.6662 C 63.145467,93.443025 60.514274,86.839977 56.157892,81.772533 C 56.126376,81.735883 56.087715,81.707174 56.056027,81.67068 C 55.985735,81.607023 55.923164,81.530033 55.852319,81.466972 C 54.257592,80.047293 52.535356,78.796711 50.689722,77.700263 L 50.767745,21.432125 C 50.768374,20.978696 50.734904,20.523407 50.633592,20.106358 C 50.628223,18.819775 50.10752,17.503476 49.074685,16.47064 L 39.975578,7.4055772 C 38.014441,5.444452 35.002397,5.2828469 33.21027,7.0749746 L 26.503154,13.816038 C 26.77058,14.083463 26.944295,14.424994 26.943727,14.835401 L 26.941935,16.127343 L 24.013978,19.0553 C 23.432766,19.636524 23.431451,20.583651 24.011056,21.163245 L 26.184059,23.268148 L 22.94969,26.502517 C 22.787296,26.664922 22.680722,26.878962 22.608898,27.080977 C 22.580215,27.148822 22.559083,27.212459 22.540619,27.285059 C 22.53612,27.308016 22.543927,27.329961 22.540522,27.353062 C 22.520719,27.449716 22.506293,27.522486 22.506148,27.625094 L 22.500774,31.500967 C 22.500693,31.558528 22.528287,31.615113 22.534535,31.670915 C 22.492441,32.095902 22.614295,32.533728 22.940876,32.860309 L 26.913274,36.798663 L 26.90356,43.802434 L 22.920182,47.785813 C 22.338982,48.367013 22.337666,49.314151 22.917258,49.893743 L 25.192024,52.168509 L 22.12788,55.232654 C 21.546681,55.813855 21.54537,56.760997 22.124957,57.340584 L 26.878251,62.059823 L 26.87344,65.527711 C 26.872307,66.348505 26.196261,66.9906 25.375461,66.991739 L 22.995542,66.995036 C 21.66527,66.996879 21.192336,67.908696 21.191008,68.867475 L 21.181909,75.429257 C 19.626737,76.047816 18.123075,76.778005 16.691043,77.611405 C 16.642026,77.63993 16.603766,77.684824 16.554906,77.713589 C 9.6194484,83.025039 5.1123927,91.355469 5.0993723,100.74667 z M 13.860376,108.45559 C 13.86668,103.91166 17.521578,100.2228 22.065512,100.2165 C 26.609446,100.2102 30.32213,103.88884 30.31583,108.43278 C 30.309525,112.97671 26.586628,116.66566 22.042696,116.67196 C 17.498765,116.67826 13.854075,112.99952 13.860376,108.45559 z "
         style="fill:url(#linearGradient2363);fill-opacity:1;fill-rule:nonzero;stroke:none;stroke-width:0.48889723;stroke-linecap:round;stroke-linejoin:round;stroke-miterlimit:4;stroke-dasharray:none;stroke-dashoffset:4;stroke-opacity:1" />
      <path
         inkscape:transform-center-y="-14.191647"
         inkscape:transform-center-x="-6.6925515"
         style="fill:none;fill-opacity:1;fill-rule:nonzero;stroke:url(#linearGradient2359);stroke-width:0.97459912;stroke-linecap:round;stroke-linejoin:round;stroke-miterlimit:4;stroke-dasharray:none;stroke-dashoffset:4;stroke-opacity:1"
         d="M 5.0993858,100.74668 C 5.0771812,116.76466 18.076199,129.76367 34.094176,129.74147 C 50.112144,129.71926 63.113254,116.6842 63.135466,100.66623 C 63.145479,93.44306 60.883134,86.497798 56.157901,81.772566 C 54.471991,80.086668 52.621615,78.896487 50.689735,77.700288 L 50.767737,21.432152 C 50.768366,20.978723 50.734901,20.523428 50.633584,20.106385 C 50.628214,18.819802 50.107511,17.503502 49.074675,16.470666 L 39.97556,7.4055948 C 38.014423,5.4444696 35.00238,5.2828645 33.210258,7.074998 L 26.503142,13.816061 C 26.770568,14.083475 26.944283,14.425018 26.943715,14.835413 L 26.941923,16.127367 L 24.013966,19.055324 C 23.43276,19.636541 23.431445,20.583668 24.011045,21.163268 L 26.184047,23.268171 L 22.949684,26.502534 C 22.787285,26.664946 22.680716,26.87898 22.608892,27.080995 C 22.580203,27.148833 22.559077,27.212476 22.540613,27.285077 C 22.536114,27.308034 22.543915,27.329972 22.540517,27.35308 C 22.520713,27.449733 22.506287,27.522504 22.506142,27.625111 L 22.500768,31.500984 C 22.500687,31.558545 22.528281,31.61513 22.534529,31.670932 C 22.492435,32.09592 22.614289,32.533746 22.94087,32.860327 L 26.91327,36.798683 L 26.903564,43.802449 L 22.920179,47.785834 C 22.338979,48.367034 22.337664,49.314172 22.917255,49.893764 L 25.192022,52.168531 L 22.127884,55.232669 C 21.546685,55.81387 21.545374,56.761014 22.124961,57.340601 L 26.878251,62.059847 L 26.873447,65.52773 C 26.872308,66.34853 26.196268,66.990619 25.375468,66.991757 L 22.995542,66.99506 C 21.665277,66.996897 21.192343,67.908714 21.191014,68.867493 L 21.181917,75.429276 C 19.626744,76.047836 18.123081,76.778025 16.69105,77.611425 C 16.642033,77.63995 16.603773,77.684844 16.554913,77.713608 C 9.6194565,83.025057 5.1124032,91.355487 5.0993858,100.74668 z M 13.860391,108.45561 C 13.866695,103.91168 17.521591,100.22283 22.065526,100.21653 C 26.60946,100.21023 30.322145,103.88887 30.315847,108.4328 C 30.309544,112.97673 26.586648,116.66568 22.042714,116.67198 C 17.498784,116.67828 13.854093,112.99955 13.860391,108.45561 z "
         id="path3142"
         sodipodi:nodetypes="cssscccccccccccccsssccsccccccccccccccscccsssc" />
      <path
         style="fill:url(#linearGradient2450);fill-opacity:1;fill-rule:nonzero;stroke:none;stroke-width:0.2;stroke-linecap:round;stroke-linejoin:round;stroke-miterlimit:4;stroke-dasharray:none;stroke-dashoffset:4;stroke-opacity:1"
         d="M 21.180732,73.517401 C 21.277328,73.53694 21.377278,73.550372 21.479881,73.55023 L 29.990322,73.538433 C 30.811139,73.537295 31.487189,72.894443 31.488326,72.073627 L 31.576159,8.710723 L 26.516034,13.804046 C 26.78346,14.071467 26.947345,14.423622 26.946776,14.834013 L 26.944979,16.130534 L 24.015459,19.060049 C 23.434249,19.641255 23.432955,20.57482 24.012556,21.154407 L 26.170461,23.279025 L 22.941332,26.508155 C 22.778936,26.670553 22.679935,26.871756 22.608109,27.073773 C 22.579425,27.141623 22.559812,27.200704 22.541346,27.273309 C 22.536848,27.29628 22.54465,27.316704 22.541254,27.33982 C 22.521447,27.436467 22.507736,27.536438 22.507594,27.639048 L 22.502249,31.495336 C 22.502169,31.552905 22.529014,31.605717 22.535263,31.661518 C 22.493165,32.086508 22.605951,32.53116 22.93253,32.857741 L 26.916316,36.808239 L 26.906638,43.789462 L 22.911839,47.784262 C 22.330639,48.365461 22.329347,49.299034 22.908936,49.878628 L 25.199586,52.169277 L 22.136907,55.231958 C 21.555709,55.813156 21.554414,56.746739 22.134004,57.326324 L 26.881293,62.073615 L 26.8765,65.530981 C 26.875364,66.35178 26.199298,66.99465 25.378497,66.995788 L 22.984934,66.999106 C 21.654663,67.00095 21.188512,67.904474 21.187183,68.863252 L 21.180732,73.517401 z "
         id="path2944" />
      <path
         sodipodi:nodetypes="ccccccc"
         id="path2900"
         d="M 34.585634,68.01216 C 34.584496,68.832977 34.581171,73.033411 36.396203,73.030895 L 36.999282,73.030059 C 38.699146,73.027702 38.939329,68.912688 38.940467,68.091871 L 39.025505,6.7456509 C 37.665224,5.8829367 36.045035,5.7238311 34.671244,6.2530423 L 34.585634,68.01216 z "
         style="fill:url(#linearGradient2447);fill-opacity:1;fill-rule:nonzero;stroke:none;stroke-width:0.2;stroke-linecap:round;stroke-linejoin:round;stroke-miterlimit:4;stroke-dasharray:none;stroke-dashoffset:4;stroke-opacity:1" />
      <path
         style="fill:url(#linearGradient2443);fill-opacity:1;fill-rule:nonzero;stroke:none;stroke-width:0.2;stroke-linecap:round;stroke-linejoin:round;stroke-miterlimit:4;stroke-dasharray:none;stroke-dashoffset:4;stroke-opacity:1"
         d="M 36.713244,68.009211 C 36.712107,68.830028 35.275114,73.032449 36.739193,73.030419 L 36.999282,73.030059 C 38.677573,73.027732 38.939329,68.912688 38.940467,68.091871 L 39.025652,6.6392688 C 37.665371,5.7765545 36.045183,5.617449 34.671392,6.1466601 L 36.713244,68.009211 z "
         id="path2915"
         sodipodi:nodetypes="ccccccc" />
      <path
         id="path2927"
         d="M 21.180732,73.517401 C 21.277328,73.53694 21.377278,73.550372 21.479881,73.55023 L 29.990322,73.538433 C 30.811139,73.537295 31.487189,72.894443 31.488326,72.073627 L 31.576159,8.710723 L 26.516034,13.804046 C 26.78346,14.071467 26.947345,14.423622 26.946776,14.834013 L 26.944979,16.130534 L 24.015459,19.060049 C 23.434249,19.641255 23.432955,20.57482 24.012556,21.154407 L 26.170461,23.279025 L 22.941332,26.508155 C 22.778936,26.670553 22.679935,26.871756 22.608109,27.073773 C 22.579425,27.141623 22.559812,27.200704 22.541346,27.273309 C 22.536848,27.29628 22.54465,27.316704 22.541254,27.33982 C 22.521447,27.436467 22.507736,27.536438 22.507594,27.639048 L 22.502249,31.495336 C 22.502169,31.552905 22.529014,31.605717 22.535263,31.661518 C 22.493165,32.086508 22.605951,32.53116 22.93253,32.857741 L 26.916316,36.808239 L 26.906638,43.789462 L 22.911839,47.784262 C 22.330639,48.365461 22.329347,49.299034 22.908936,49.878628 L 25.199586,52.169277 L 22.136907,55.231958 C 21.555709,55.813156 21.554414,56.746739 22.134004,57.326324 L 26.881293,62.073615 L 26.8765,65.530981 C 26.875364,66.35178 26.199298,66.99465 25.378497,66.995788 L 22.984934,66.999106 C 21.654663,67.00095 21.188512,67.904474 21.187183,68.863252 L 21.180732,73.517401 z "
         style="fill:url(#linearGradient2440);fill-opacity:1;fill-rule:nonzero;stroke:none;stroke-width:0.2;stroke-linecap:round;stroke-linejoin:round;stroke-miterlimit:4;stroke-dasharray:none;stroke-dashoffset:4;stroke-opacity:1" />
      <path
         style="opacity:0.65163933;fill:none;fill-opacity:1;fill-rule:nonzero;stroke:url(#radialGradient2429);stroke-width:1.46731865;stroke-linecap:round;stroke-linejoin:round;stroke-miterlimit:4;stroke-dasharray:none;stroke-dashoffset:4;stroke-opacity:1"
         d="M 5.0993603,100.74669 C 5.0771563,116.76466 18.076177,129.76368 34.094152,129.74148 L 39.975533,7.4056004 C 38.014396,5.444475 35.490978,5.2821848 33.698847,7.0743206 L 26.991737,13.815377 C 27.259163,14.082799 27.432878,14.424336 27.432309,14.834737 L 27.430518,16.126685 L 24.502562,19.054644 C 23.921351,19.63586 23.920038,20.582989 24.49964,21.162585 L 26.672645,23.267491 L 23.438275,26.501857 C 23.27588,26.664264 23.169312,26.8783 23.097486,27.080316 C 23.068802,27.148156 23.047671,27.211794 23.029205,27.284399 C 23.024707,27.30736 23.032508,27.329298 23.029111,27.352405 C 23.009305,27.449052 22.994877,27.521827 22.994734,27.624437 L 22.989362,31.500309 C 22.989282,31.557869 23.016877,31.614451 23.023125,31.670253 C 22.981028,32.095243 23.102883,32.533071 23.429462,32.859651 L 27.401864,36.798006 L 27.392155,43.801775 L 23.408772,47.785158 C 22.827573,48.366357 22.82626,49.313493 23.40585,49.893088 L 25.680617,52.167855 L 22.616477,55.231995 C 22.035279,55.813196 22.033965,56.760341 22.613555,57.339926 L 27.366847,62.059171 L 27.36204,65.527057 C 27.360906,66.347853 26.684863,66.989945 25.864063,66.991083 L 23.484141,66.994382 C 22.15387,66.996224 21.680938,67.908039 21.679609,68.866817 L 21.181894,75.429278 C 19.62672,76.047839 18.123057,76.778028 16.691025,77.611427 C 16.642009,77.639953 16.603749,77.684847 16.554889,77.713611 C 9.6194319,83.02506 5.1123773,91.35549 5.0993603,100.74669 z M 13.860367,108.45562 C 13.86667,103.91168 17.521568,100.22283 22.065502,100.21653 C 26.609436,100.21023 30.322123,103.88887 30.315824,108.43281 C 30.309521,112.97674 26.586625,116.66569 22.042691,116.67199 C 17.49876,116.67829 13.854068,112.99955 13.860367,108.45562 z "
         id="path3154"
         sodipodi:nodetypes="cscccccccccsssccsccccccccccccccscccsssc" />
      <path
         sodipodi:nodetypes="cscccccccccsssccsccccccccccccccscccsssc"
         id="path3158"
         d="M 5.0993603,100.74669 C 5.0771563,116.76466 18.076177,129.76368 34.094152,129.74148 L 39.975533,7.4056004 C 38.014396,5.444475 35.002359,5.2828621 33.210228,7.0749979 L 26.503118,13.816055 C 26.770544,14.083476 26.944259,14.425014 26.94369,14.835415 L 26.941899,16.127362 L 24.013943,19.055321 C 23.432732,19.636537 23.431419,20.583666 24.011021,21.163263 L 26.184026,23.268168 L 22.949656,26.502535 C 22.787261,26.664942 22.680693,26.878977 22.608867,27.080993 C 22.580183,27.148834 22.559052,27.212471 22.540586,27.285076 C 22.536088,27.308038 22.543889,27.329976 22.540492,27.353082 C 22.520686,27.449729 22.506258,27.522504 22.506115,27.625114 L 22.500743,31.500987 C 22.500663,31.558546 22.528258,31.615129 22.534506,31.67093 C 22.492409,32.09592 22.614264,32.533748 22.940843,32.860329 L 26.913245,36.798683 L 26.903536,43.802452 L 22.920153,47.785835 C 22.338954,48.367034 22.337641,49.31417 22.917231,49.893765 L 25.191998,52.168532 L 22.127858,55.232672 C 21.54666,55.813873 21.545346,56.761018 22.124936,57.340603 L 26.878228,62.059849 L 26.873421,65.527734 C 26.872287,66.34853 26.196244,66.990622 25.375444,66.99176 L 22.995522,66.995059 C 21.665251,66.996901 21.192319,67.908717 21.19099,68.867495 L 21.181894,75.429278 C 19.62672,76.047839 18.123057,76.778028 16.691025,77.611427 C 16.642009,77.639953 16.603749,77.684847 16.554889,77.713611 C 9.6194319,83.02506 5.1123773,91.35549 5.0993603,100.74669 z M 13.860367,108.45562 C 13.86667,103.91168 17.521568,100.22283 22.065502,100.21653 C 26.609436,100.21023 30.322123,103.88887 30.315824,108.43281 C 30.309521,112.97674 26.586625,116.66569 22.042691,116.67199 C 17.49876,116.67829 13.854068,112.99955 13.860367,108.45562 z "
         style="opacity:0.84836067;fill:none;fill-opacity:1;fill-rule:nonzero;stroke:url(#radialGradient2426);stroke-width:0.58042353;stroke-linecap:round;stroke-linejoin:round;stroke-miterlimit:4;stroke-dasharray:none;stroke-dashoffset:4;stroke-opacity:1" />
      <path
         sodipodi:nodetypes="cscccccccccsssccsccccccccccccccscccsssc"
         id="path3144"
         d="M 5.1970841,100.74655 C 5.1748801,116.76453 18.173901,129.76355 34.191876,129.74134 L 40.073257,7.4054649 C 38.11212,5.4443395 35.100083,5.2827266 33.307952,7.0748625 L 26.600841,13.815919 C 26.868268,14.083341 27.041983,14.424878 27.041414,14.835279 L 27.039623,16.127227 L 24.111667,19.055186 C 23.530456,19.636401 23.529143,20.583531 24.108745,21.163127 L 26.28175,23.268033 L 23.04738,26.502399 C 22.884985,26.664806 22.778417,26.878842 22.706591,27.080858 C 22.677907,27.148698 22.656775,27.212336 22.63831,27.284941 C 22.633812,27.307902 22.641613,27.32984 22.638215,27.352947 C 22.61841,27.449594 22.603981,27.522369 22.603839,27.624979 L 22.598467,31.500851 C 22.598387,31.558411 22.625982,31.614993 22.63223,31.670795 C 22.590133,32.095785 22.711988,32.533613 23.038567,32.860193 L 27.010968,36.798548 L 27.00126,43.802317 L 23.017877,47.7857 C 22.436678,48.366899 22.435365,49.314035 23.014955,49.893629 L 25.289722,52.168397 L 22.225582,55.232537 C 21.644384,55.813738 21.64307,56.760883 22.22266,57.340468 L 26.975952,62.059713 L 26.971144,65.527599 C 26.970011,66.348395 26.293968,66.990487 25.473168,66.991624 L 23.093245,66.994923 C 21.762974,66.996765 21.290042,67.908581 21.288713,68.867359 L 21.279618,75.429142 C 19.724444,76.047703 18.22078,76.777893 16.788749,77.611292 C 16.739732,77.639817 16.701473,77.684712 16.652612,77.713476 C 9.7171557,83.024925 5.2101011,91.355355 5.1970841,100.74655 z M 13.958091,108.45548 C 13.964394,103.91155 17.619291,100.22269 22.163225,100.2164 C 26.70716,100.2101 30.419846,103.88874 30.413548,108.43267 C 30.407245,112.9766 26.684349,116.66555 22.140415,116.67185 C 17.596484,116.67815 13.951792,112.99942 13.958091,108.45548 z "
         style="fill:none;fill-opacity:1;fill-rule:nonzero;stroke:url(#radialGradient2423);stroke-width:0.77751136;stroke-linecap:round;stroke-linejoin:round;stroke-miterlimit:4;stroke-dasharray:none;stroke-dashoffset:4;stroke-opacity:1" />
      <path
         id="path3168"
         d="M 43.984763,43.187895 C 43.962702,59.103195 46.87311,72.290434 50.690295,74.572311 L 50.763954,21.434994 C 50.764582,20.981566 50.74498,20.508503 50.643662,20.091462 C 50.638302,18.804879 50.093514,17.492395 49.060688,16.459559 L 48.084804,15.483676 C 45.653397,20.922472 44.001257,31.289261 43.984763,43.187895 z "
         style="opacity:0.63934428;fill:url(#radialGradient2420);fill-opacity:1;fill-rule:nonzero;stroke:none;stroke-width:0.78899997;stroke-linecap:round;stroke-linejoin:round;stroke-miterlimit:4;stroke-dasharray:none;stroke-dashoffset:4;stroke-opacity:1" />
      <path
         id="path3203"
         d="M 34.583028,66.683391 L 34.66659,6.4017645"
         style="fill:none;fill-opacity:0.75;fill-rule:evenodd;stroke:url(#radialGradient2417);stroke-width:0.21088393;stroke-linecap:butt;stroke-linejoin:miter;stroke-miterlimit:4;stroke-dasharray:none;stroke-opacity:1" />
      <path
         style="fill:none;fill-opacity:0.75;fill-rule:evenodd;stroke:url(#radialGradient2414);stroke-width:0.64619851;stroke-linecap:butt;stroke-linejoin:miter;stroke-miterlimit:4;stroke-dasharray:none;stroke-opacity:1"
         d="M 39.050662,66.564938 L 39.134224,6.2833066"
         id="path3214" />
      <path
         style="fill:url(#radialGradient2411);fill-opacity:1;fill-rule:nonzero;stroke:none;stroke-width:0.66832721;stroke-linecap:round;stroke-linejoin:round;stroke-miterlimit:4;stroke-dasharray:none;stroke-dashoffset:4;stroke-opacity:1"
         d="M 5.1970841,100.74655 C 5.1748801,116.76453 18.173901,129.76355 34.191876,129.74134 L 40.073257,7.4054649 C 38.11212,5.4443395 35.100083,5.2827266 33.307952,7.0748625 L 26.600841,13.815919 C 26.868268,14.083341 27.041983,14.424878 27.041414,14.835279 L 27.039623,16.127227 L 24.111667,19.055186 C 23.530456,19.636401 23.529143,20.583531 24.108745,21.163127 L 26.28175,23.268033 L 23.04738,26.502399 C 22.884985,26.664806 22.778417,26.878842 22.706591,27.080858 C 22.677907,27.148698 22.656775,27.212336 22.63831,27.284941 C 22.633812,27.307902 22.641613,27.32984 22.638215,27.352947 C 22.61841,27.449594 22.603981,27.522369 22.603839,27.624979 L 22.598467,31.500851 C 22.598387,31.558411 22.625982,31.614993 22.63223,31.670795 C 22.590133,32.095785 22.711988,32.533613 23.038567,32.860193 L 27.010968,36.798548 L 27.00126,43.802317 L 23.017877,47.7857 C 22.436678,48.366899 22.435365,49.314035 23.014955,49.893629 L 25.289722,52.168397 L 22.225582,55.232537 C 21.644384,55.813738 21.64307,56.760883 22.22266,57.340468 L 26.975952,62.059713 L 26.971144,65.527599 C 26.970011,66.348395 26.293968,66.990487 25.473168,66.991624 L 23.093245,66.994923 C 21.762974,66.996765 21.290042,67.908581 21.288713,68.867359 L 21.279618,75.429142 C 19.724444,76.047703 18.22078,76.777893 16.788749,77.611292 C 16.739732,77.639817 16.701473,77.684712 16.652612,77.713476 C 9.7171557,83.024925 5.2101011,91.355355 5.1970841,100.74655 z M 13.958091,108.45548 C 13.964394,103.91155 17.619291,100.22269 22.163225,100.2164 C 26.70716,100.2101 30.419846,103.88874 30.413548,108.43267 C 30.407245,112.9766 26.684349,116.66555 22.140415,116.67185 C 17.596484,116.67815 13.951792,112.99942 13.958091,108.45548 z "
         id="path5012"
         sodipodi:nodetypes="cscccccccccsssccsccccccccccccccscccsssc" />
      <path
         style="fill:white;fill-opacity:0.75688076;fill-rule:nonzero;stroke:none;stroke-width:0.5;stroke-linecap:round;stroke-linejoin:round;stroke-miterlimit:4;stroke-dasharray:none;stroke-dashoffset:4;stroke-opacity:1"
         d="M -70.472001,-43.149744 L -70.472001,-45.944453 L -70.472001,-43.149744 z "
         id="path5780"
         sodipodi:nodetypes="ccc" />
      <path
         style="fill:white;fill-opacity:0.75688076;fill-rule:nonzero;stroke:none;stroke-width:0.5;stroke-linecap:round;stroke-linejoin:round;stroke-miterlimit:4;stroke-dasharray:none;stroke-dashoffset:4;stroke-opacity:1"
         d="M -189.9742,-129.77999 L -189.9742,-132.5747 L -189.9742,-129.77999 z "
         id="path3206"
         sodipodi:nodetypes="ccc" />
      <path
         style="fill:white;fill-opacity:0.75688076;fill-rule:nonzero;stroke:none;stroke-width:0.5;stroke-linecap:round;stroke-linejoin:round;stroke-miterlimit:4;stroke-dasharray:none;stroke-dashoffset:4;stroke-opacity:1"
         d="M 56.6172,-64.024724 L 56.6172,-66.819433 L 56.6172,-64.024724 z "
         id="path3946"
         sodipodi:nodetypes="ccc" />
      <path
         style="fill:white;fill-opacity:0.75688076;fill-rule:nonzero;stroke:none;stroke-width:0.5;stroke-linecap:round;stroke-linejoin:round;stroke-miterlimit:4;stroke-dasharray:none;stroke-dashoffset:4;stroke-opacity:1"
         d="M -36.007246,9.868956 L -36.007246,8.34222 L -36.007246,9.868956 z "
         id="path1561"
         sodipodi:nodetypes="ccc" />
      <rect
         y="-46.73103"
         x="-93.491989"
         height="0"
         width="1"
         id="rect1327"
         style="opacity:0.57786889;fill:white;fill-opacity:1;fill-rule:nonzero;stroke:none;stroke-width:3.63199997;stroke-linecap:round;stroke-linejoin:round;stroke-miterlimit:4;stroke-dasharray:none;stroke-dashoffset:4;stroke-opacity:1" />
      <path
         style="fill:white;fill-opacity:0.75688076;fill-rule:nonzero;stroke:none;stroke-width:0.5;stroke-linecap:round;stroke-linejoin:round;stroke-miterlimit:4;stroke-dasharray:none;stroke-dashoffset:4;stroke-opacity:1"
         d="M -83.246101,-8.9245141 L -83.246101,-11.719223 L -83.246101,-8.9245141 z "
         id="path2538"
         sodipodi:nodetypes="ccc" />
      <path
         style="fill:white;fill-opacity:0.75688076;fill-rule:nonzero;stroke:none;stroke-width:0.5;stroke-linecap:round;stroke-linejoin:round;stroke-miterlimit:4;stroke-dasharray:none;stroke-dashoffset:4;stroke-opacity:1"
         d="M 48.5958,-82.189134 L 48.5958,-84.983843 L 48.5958,-82.189134 z "
         id="path3103"
         sodipodi:nodetypes="ccc" />
      <rect
         y="-96.403427"
         x="53.728928"
         height="0"
         width="1"
         id="rect2543"
         style="opacity:0.57786889;fill:white;fill-opacity:1;fill-rule:nonzero;stroke:none;stroke-width:3.63199997;stroke-linecap:round;stroke-linejoin:round;stroke-miterlimit:4;stroke-dasharray:none;stroke-dashoffset:4;stroke-opacity:1" />
      <path
         style="fill:white;fill-opacity:0.75688076;fill-rule:nonzero;stroke:none;stroke-width:0.5;stroke-linecap:round;stroke-linejoin:round;stroke-miterlimit:4;stroke-dasharray:none;stroke-dashoffset:4;stroke-opacity:1"
         d="M 76.2383,-125.37911 L 76.2383,-128.17382 L 76.2383,-125.37911 z "
         id="path3995"
         sodipodi:nodetypes="ccc" />
      <path
         inkscape:r_cy="true"
         inkscape:r_cx="true"
         sodipodi:nodetypes="ccc"
         id="path2479"
         d="M 119.29401,-45.90541 L 119.29401,-48.70012 L 119.29401,-45.90541 z "
         style="fill:white;fill-opacity:0.75688076;fill-rule:nonzero;stroke:none;stroke-width:0.5;stroke-linecap:round;stroke-linejoin:round;stroke-miterlimit:4;stroke-dasharray:none;stroke-dashoffset:4;stroke-opacity:1" />
      <path
         inkscape:r_cy="true"
         inkscape:r_cx="true"
         sodipodi:nodetypes="ccc"
         id="path3365"
         d="M 251.13591,-119.17003 L 251.13591,-121.96474 L 251.13591,-119.17003 z "
         style="fill:white;fill-opacity:0.75688076;fill-rule:nonzero;stroke:none;stroke-width:0.5;stroke-linecap:round;stroke-linejoin:round;stroke-miterlimit:4;stroke-dasharray:none;stroke-dashoffset:4;stroke-opacity:1" />
      <rect
         inkscape:r_cy="true"
         inkscape:r_cx="true"
         style="opacity:0.57786889;fill:white;fill-opacity:1;fill-rule:nonzero;stroke:none;stroke-width:3.63199997;stroke-linecap:round;stroke-linejoin:round;stroke-miterlimit:4;stroke-dasharray:none;stroke-dashoffset:4;stroke-opacity:1"
         id="rect3367"
         width="1"
         height="0"
         x="256.26907"
         y="-133.38432" />
    </g>
  </g>
</svg>
