<?xml version="1.0" encoding="UTF-8" standalone="no"?>
<!-- Generator: Adobe Illustrator 12.0.1, SVG Export Plug-In . SVG Version: 6.00 Build 51448)  -->
<svg
   xmlns:dc="http://purl.org/dc/elements/1.1/"
   xmlns:cc="http://web.resource.org/cc/"
   xmlns:rdf="http://www.w3.org/1999/02/22-rdf-syntax-ns#"
   xmlns:svg="http://www.w3.org/2000/svg"
   xmlns="http://www.w3.org/2000/svg"
   xmlns:sodipodi="http://sodipodi.sourceforge.net/DTD/sodipodi-0.dtd"
   xmlns:inkscape="http://www.inkscape.org/namespaces/inkscape"
   version="1.1"
   id="图层_1"
   width="14.25"
   height="14.25"
   viewBox="0 0 14.25 14.25"
   style="overflow:visible;enable-background:new 0 0 14.25 14.25;"
   xml:space="preserve"
   sodipodi:version="0.32"
   inkscape:version="0.44.1"
   sodipodi:docname="menu2.svg"
   sodipodi:docbase="/home/user"><metadata
   id="metadata2544"><rdf:RDF><cc:Work
       rdf:about=""><dc:format>image/svg+xml</dc:format><dc:type
         rdf:resource="http://purl.org/dc/dcmitype/StillImage" /></cc:Work></rdf:RDF></metadata><defs
   id="defs2542" /><sodipodi:namedview
   inkscape:window-height="1017"
   inkscape:window-width="1359"
   inkscape:pageshadow="2"
   inkscape:pageopacity="0.0"
   guidetolerance="10.0"
   gridtolerance="10.0"
   objecttolerance="10.0"
   borderopacity="1.0"
   bordercolor="#666666"
   pagecolor="#ffffff"
   id="base"
   inkscape:zoom="28.561404"
   inkscape:cx="7.125"
   inkscape:cy="7.125"
   inkscape:window-x="55"
   inkscape:window-y="0"
   inkscape:current-layer="图层_1" />
<linearGradient
   id="XMLID_4_"
   gradientUnits="userSpaceOnUse"
   x1="7.125"
   y1="13.875"
   x2="7.125"
   y2="0.375"
   gradientTransform="translate(15.09029,3.67629)">
	<stop
   offset="0"
   style="stop-color:#DEEF08"
   id="stop2505" />
	<stop
   offset="0.2361"
   style="stop-color:#C4DC11"
   id="stop2507" />
	<stop
   offset="0.5083"
   style="stop-color:#AECB19"
   id="stop2509" />
	<stop
   offset="0.7681"
   style="stop-color:#A1C11E"
   id="stop2511" />
	<stop
   offset="1"
   style="stop-color:#9CBE20"
   id="stop2513" />
</linearGradient>

<linearGradient
   id="XMLID_5_"
   gradientUnits="userSpaceOnUse"
   x1="7.0625"
   y1="13.562"
   x2="7.0625"
   y2="0.375">
	<stop
   offset="0"
   style="stop-color:#E8EC87"
   id="stop2518" />
	<stop
   offset="0.3722"
   style="stop-color:#E5EC8B"
   id="stop2520" />
	<stop
   offset="0.7775"
   style="stop-color:#DAEB99"
   id="stop2522" />
	<stop
   offset="1"
   style="stop-color:#D2EBA3"
   id="stop2524" />
</linearGradient>

<linearGradient
   id="XMLID_6_"
   gradientUnits="userSpaceOnUse"
   x1="28.4731"
   y1="35.1284"
   x2="28.4731"
   y2="21.9409"
   gradientTransform="matrix(0,-1,-1,0,35.6914,35.6924)">
	<stop
   offset="0"
   style="stop-color:#E8EC87"
   id="stop2529" />
	<stop
   offset="0.3722"
   style="stop-color:#E5EC8B"
   id="stop2531" />
	<stop
   offset="0.7775"
   style="stop-color:#DAEB99"
   id="stop2533" />
	<stop
   offset="1"
   style="stop-color:#D2EBA3"
   id="stop2535" />
</linearGradient>

<path
   style="fill:white"
   d="M 25.569295,6.6802899 C 23.282295,4.7542899 19.865295,5.0492899 17.940295,7.3362899 C 16.014295,9.6242899 16.308295,13.04029 18.596295,14.96629 C 20.541295,16.60229 23.298295,16.63029 25.265295,15.19729 L 26.814295,16.50029 L 28.412295,14.60229 L 26.886295,13.31729 C 28.030295,11.11729 27.546295,8.3432899 25.569295,6.6802899 z M 24.359295,12.73929 C 23.301295,13.99629 21.425295,14.15729 20.168295,13.09929 C 18.911295,12.04229 18.750295,10.16529 19.808295,8.9092899 C 20.866295,7.6522899 22.742295,7.4912899 23.999295,8.5492899 C 25.255295,9.6042899 25.417295,11.48129 24.359295,12.73929 z "
   id="path2539" />
<g
   id="g236"
   transform="matrix(7.924451e-2,0,0,6.588136e-2,3.261889e-2,3.055193e-2)">
	<path
   d="M 44.233,0.368 C 42.032,0.004 39.876,-0.083 37.788,0.079 L 37.784,0.078 C 37.784,0.078 23.532,1.048 22.886,1.099 C 9.875,2.138 0,12.834 0,27.605 L 0,201.792 L 14.567,215.37 L 160.968,190.766 C 171.041,189.016 178.999,177.133 178.999,164.303 L 178.999,22.46 L 44.233,0.368 z "
   id="path238"
   style="fill:#024c1c" />
	<path
   d="M 179,164.304 C 179,177.134 171.042,189.017 160.969,190.767 L 14.567,215.37 L 14.567,26.683 C 14.567,9.52 28.263,-2.264 44.231,0.368 L 179,22.462 L 179,164.304 z "
   id="path240"
   style="fill:#66b036" />
	<g
   id="g242">
		<path
   d="M 133.897,47.137 L 145.72,48.411 L 145.72,69.158 L 159.025,70.099 L 159.025,83.113 L 145.72,82.502 L 145.72,130.066 C 145.72,134.207 146.176,136.869 147.093,138.064 C 147.919,139.158 149.195,139.697 150.907,139.697 C 151.069,139.697 151.24,139.695 151.414,139.683 C 154.031,139.533 156.878,138.728 159.98,137.314 L 159.98,149.275 C 154.707,151.591 149.532,152.966 144.452,153.398 C 143.716,153.457 143.005,153.486 142.317,153.486 C 137.716,153.486 134.199,152.152 131.797,149.451 C 128.998,146.318 127.598,141.285 127.598,134.387 L 127.598,81.661 L 121.209,81.368 L 121.209,67.424 L 129,67.985 L 133.897,47.137 z "
   id="path244"
   style="fill:white" />
	</g>
	<polygon
   points="159.027,83.112 145.722,82.501 145.722,82.785 152.854,83.112 159.027,83.112 "
   id="polygon246"
   style="fill:#0a6333" />
	<path
   d="M 148.488,139.21 C 149.168,139.548 149.96,139.696 150.908,139.696 C 151.07,139.696 151.241,139.694 151.415,139.682 C 154.032,139.532 156.879,138.727 159.981,137.313 L 153.806,137.313 C 151.938,138.169 150.178,138.808 148.488,139.21 z "
   id="path248"
   style="fill:#024c1c" />
	<path
   d="M 133.897,47.137 L 127.723,47.137 L 122.93,67.549 L 129,67.985 L 133.897,47.137 z M 131.799,149.45 C 129,146.317 127.6,141.284 127.6,134.386 L 127.6,81.661 L 121.211,81.368 L 121.211,67.424 L 115.03,67.424 L 115.03,70.539 C 115.926,73.897 116.63,77.539 117.149,81.465 L 121.426,81.661 L 121.426,134.386 C 121.426,141.284 122.827,146.318 125.625,149.45 C 128.029,152.151 131.541,153.485 136.141,153.485 L 142.318,153.485 C 137.718,153.485 134.2,152.151 131.799,149.45 z "
   id="path250"
   style="fill:#024c1c" />
	<path
   d="M 102.954,170.419 C 103.782,170.419 104.669,170.362 105.615,170.259 L 100.649,170.259 C 101.341,170.364 102.138,170.419 102.954,170.419 z "
   id="path252"
   style="fill:#0a6333" />
	<path
   d="M 112.036,139.78 C 107.81,149.749 101.365,156.27 92.542,159.288 C 93.43,163.856 94.778,166.929 96.567,168.55 C 97.955,169.796 100.094,170.419 102.958,170.419 C 103.782,170.419 104.671,170.362 105.615,170.259 L 105.615,183.736 L 99.497,184.539 C 97.692,184.771 95.98,184.889 94.361,184.889 C 89.001,184.889 84.665,183.59 81.402,180.961 C 77.085,177.496 73.899,170.805 71.857,160.908 C 62.48,158.91 55.166,152.945 50.103,142.937 C 44.965,132.769 42.349,117.895 42.349,98.441 C 42.349,77.466 45.927,61.985 52.971,52.169 C 58.912,43.885 67.202,39.812 77.634,39.812 C 79.306,39.812 81.033,39.916 82.809,40.124 C 95.081,41.539 103.977,47.329 109.77,57.362 C 115.453,67.177 118.243,81.244 118.243,99.721 C 118.242,116.643 116.186,129.954 112.036,139.78 z M 93.582,135.933 C 95.996,129.724 97.189,117.54 97.189,99.37 C 97.189,83.054 96.007,71.837 93.608,65.682 C 91.21,59.496 87.622,56.153 82.808,55.731 C 82.441,55.7 82.075,55.681 81.724,55.681 C 77.264,55.681 73.84,58.283 71.447,63.508 C 68.863,69.201 67.555,81.003 67.555,98.866 C 67.555,116.129 68.826,128.379 71.388,135.569 C 73.804,142.419 77.423,145.813 82.174,145.813 C 82.384,145.813 82.593,145.805 82.809,145.79 C 87.566,145.489 91.148,142.202 93.582,135.933"
   id="path254"
   style="fill:white" />
	<path
   d="M 84.708,183.003 C 84.59,182.95 84.477,182.896 84.361,182.839 C 84.349,182.835 84.336,182.829 84.323,182.821 C 84.218,182.77 84.115,182.716 84.011,182.663 C 83.991,182.653 83.971,182.642 83.948,182.63 C 83.854,182.579 83.761,182.528 83.667,182.476 C 83.636,182.46 83.609,182.443 83.579,182.427 C 83.494,182.38 83.412,182.331 83.328,182.284 C 83.286,182.263 83.25,182.239 83.209,182.214 C 83.137,182.171 83.062,182.128 82.994,182.083 C 82.943,182.054 82.897,182.024 82.848,181.993 C 82.785,181.954 82.726,181.915 82.663,181.876 C 82.606,181.837 82.552,181.798 82.492,181.759 C 82.442,181.726 82.392,181.693 82.342,181.659 C 82.272,181.612 82.206,181.563 82.141,181.518 C 82.101,181.489 82.061,181.463 82.021,181.432 C 81.943,181.377 81.866,181.319 81.79,181.26 C 81.764,181.239 81.735,181.221 81.708,181.199 C 81.607,181.121 81.505,181.039 81.402,180.959 C 77.085,177.494 73.899,170.803 71.857,160.906 C 62.48,158.908 55.166,152.943 50.103,142.935 C 44.965,132.767 42.349,117.893 42.349,98.439 C 42.349,77.464 45.927,61.983 52.971,52.167 C 58.912,43.883 67.202,39.81 77.634,39.81 C 77.67,39.81 71.114,39.806 71.114,39.806 L 71.114,39.81 C 60.694,39.818 52.411,43.89 46.476,52.167 C 39.434,61.984 35.855,77.465 35.855,98.439 C 35.855,117.892 38.469,132.767 43.609,142.935 C 48.671,152.943 55.983,158.908 65.361,160.906 C 67.403,170.802 70.588,177.494 74.904,180.959 C 78.168,183.588 82.507,184.887 87.867,184.887 C 87.967,184.887 88.07,184.887 88.17,184.885 L 93.861,184.885 C 90.361,184.828 87.306,184.203 84.716,183.006 C 84.712,183.007 84.708,183.007 84.708,183.003 z M 87.113,65.681 C 89.511,71.837 90.69,83.054 90.69,99.369 C 90.69,117.539 89.502,129.723 87.083,135.932 C 85.142,140.942 82.439,144.047 79.013,145.248 C 79.999,145.621 81.058,145.81 82.173,145.81 C 82.383,145.81 82.592,145.802 82.808,145.787 C 87.567,145.488 91.149,142.201 93.582,135.932 C 95.996,129.723 97.189,117.539 97.189,99.369 C 97.189,83.053 96.007,71.836 93.608,65.681 C 91.21,59.495 87.622,56.152 82.808,55.73 C 82.441,55.699 82.075,55.68 81.724,55.68 C 80.601,55.68 79.549,55.845 78.556,56.173 L 78.556,56.175 L 78.556,56.175 C 82.254,57.322 85.104,60.5 87.113,65.681 z "
   id="path256"
   style="fill:#024c1c" />
</g></svg>
