<?xml version="1.0" encoding="iso-8859-1"?>
<!-- Generator: Adobe Illustrator 12.0.1, SVG Export Plug-In . SVG Version: 6.00 Build 51448)  -->
<!DOCTYPE svg PUBLIC "-//W3C//DTD SVG 1.1//EN" "http://www.w3.org/Graphics/SVG/1.1/DTD/svg11.dtd" [
	<!ENTITY ns_svg "http://www.w3.org/2000/svg">
	<!ENTITY ns_xlink "http://www.w3.org/1999/xlink">
]>
<svg  version="1.1" id="&#x56FE;&#x5C42;_1" xmlns="&ns_svg;" xmlns:xlink="&ns_xlink;" width="163.168" height="170.179"
	 viewBox="0 0 163.168 170.179" style="overflow:visible;enable-background:new 0 0 163.168 170.179;" xml:space="preserve">
<g>
	<g>
		<polygon style="fill:#7D7C7D;stroke:#221815;" points="121.005,155.674 132.611,166.171 136.39,163.125 129.198,149.208 
			124.207,145.871 65.861,72.382 60.444,76.683 118.857,150.118 		"/>
		<polygon style="fill:#FFFFFF;" points="122.573,146.291 128.365,149.231 135.686,163.046 131.936,166.123 132.564,166.581 
			136.696,163.141 129.213,149.024 124.713,146.106 		"/>
		<polygon style="opacity:0.69;fill:#FFFFFF;" points="122.761,146.33 123.747,146.266 65.137,72.74 62.938,74.062 		"/>
		
			<ellipse transform="matrix(-0.7832 0.6218 -0.6218 -0.7832 164.1908 98.9035)" style="fill:#FEB400;stroke:#221815;stroke-width:0.5;" cx="64.851" cy="78.079" rx="13.659" ry="5"/>
		<path style="fill:#FEB400;stroke:#221815;stroke-width:0.5;" d="M24.979,51.324c-2.66-3.08-1.612-7.063,1.667-9.667l12-9.333
			c3.279-2.603,7.603,0.044,10,3.333l14.333,19.333c3,4,2,3.667,5,10.334L51.312,78.658c-8.333-6-8.397-6.759-10.333-9
			L24.979,51.324z"/>
		<path style="fill:#221815;stroke:#221815;" d="M27.467,44.507l12.98-10.305c2.004-1.592,3.945-1.866,6.117-1.348l-2.327-4.122
			L27.106,5.122c-2.392-3.294-7.159-3.804-10.599-1.072L3.527,14.355c-3.44,2.731-4.025,7.49-1.358,10.566l18.897,21.791
			l3.673,3.684C24.727,48.162,25.462,46.1,27.467,44.507z"/>
		<path style="fill:#F6F6F6;fill-opacity:0.91;" d="M10.979,16.17c2.729,1.165,16.458,19.144,16.487,21.844
			c0.029,2.702-1.222,6.502-1.222,6.502c0.072-0.066,2.733-3.126,5.696-5.691c3.173-2.528,7.801-4.917,7.801-4.917
			s-4.67,0.644-6.91-0.259c-1.647-0.667-7.384-6.253-16.515-20.936c-1.569-3.383,0.72-4.722,4.136-7.857
			c-0.71,0.287-11.639,4.238-17.19,14.132C6.602,15.957,8.25,15.006,10.979,16.17z"/>
		
			<rect x="48.404" y="71.006" transform="matrix(-0.7832 0.6218 -0.6218 -0.7832 159.0219 96.4262)" style="fill:#FEB400;stroke:#221815;stroke-width:0.5;" width="28.594" height="9.861"/>
	</g>
	<g>
		<path style="fill:#DADBDB;stroke:#221815;" d="M63.814,152.898c3.708-7.12,1.07-17.177-1.862-23.46l68.205-76.209
			c6.927,0.304,17.541,0.851,23.217-4.48c9.07-8.517,11.615-21.689,7.134-32.361l-15.211,20.034c-1.41,1.859-4,2.389-5.782,1.185
			l-17.39-11.758c-1.782-1.205-2.081-3.688-0.67-5.548l15.019-19.782c-6.419,0.113-12.976,2.542-18.155,7.532
			c-12.136,11.687-8.625,21.396-6.215,31.194l-72.417,78.882c-11.614-2.85-22.968,4.541-27.565,13.368
			c-3.262,6.265-4.062,15.957-2.12,21.732l15.043-19.765c1.414-1.859,4.003-2.384,5.784-1.176l17.367,11.786
			c1.779,1.207,2.077,3.694,0.663,5.55l-15.236,20.02C45.767,170.231,58.171,163.737,63.814,152.898z"/>
		
			<linearGradient id="XMLID_3_" gradientUnits="userSpaceOnUse" x1="34.1934" y1="101.6758" x2="34.8479" y2="116.3668" gradientTransform="matrix(0.7403 0.6722 -0.6722 0.7403 165.6693 -53.9951)">
			<stop  offset="0" style="stop-color:#FFFFFF"/>
			<stop  offset="0.9831" style="stop-color:#BDBDBD"/>
		</linearGradient>
		<path style="fill:url(#XMLID_3_);" d="M109.621,48.716c5.15-5.656,1.111-20.537,1.111-20.537s12.606,22.514,30.466,24.139
			c0,0-9.712,0.642-13.61,1.239c-5.621,0.861-5.188,3.249-6.586,4.28L109.621,48.716z"/>
		
			<linearGradient id="XMLID_4_" gradientUnits="userSpaceOnUse" x1="45.4937" y1="323.644" x2="46.1546" y2="338.4794" gradientTransform="matrix(0.8497 0.5274 0.5274 -0.8497 -158.1954 375.6563)">
			<stop  offset="0" style="stop-color:#FFFFFF"/>
			<stop  offset="0.0034" style="stop-color:#FFFFFF"/>
			<stop  offset="0.1731" style="stop-color:#EAEAEA"/>
			<stop  offset="0.3652" style="stop-color:#DCDCDC"/>
			<stop  offset="0.5983" style="stop-color:#D4D4D4"/>
			<stop  offset="0.9831" style="stop-color:#D1D1D1"/>
		</linearGradient>
		<path style="fill:url(#XMLID_4_);" d="M51.405,110.458c-2.906,3.825-10.08,7.605-11.718,7.668
			c-4.667,0.182-8.379-0.197-8.379-0.197s26.795,6.142,33.266,22.822c0,0-2.262-9.669-2.959-13.541
			c-1.073-5.978,1.279-6.113,1.89-7.737L51.405,110.458z"/>
	</g>
</g>
</svg>
