<?xml version="1.0" encoding="iso-8859-1"?>
<!-- Generator: Adobe Illustrator 12.0.1, SVG Export Plug-In . SVG Version: 6.00 Build 51448)  -->
<!DOCTYPE svg PUBLIC "-//W3C//DTD SVG 1.1//EN" "http://www.w3.org/Graphics/SVG/1.1/DTD/svg11.dtd" [
	<!ENTITY ns_svg "http://www.w3.org/2000/svg">
	<!ENTITY ns_xlink "http://www.w3.org/1999/xlink">
]>
<svg  version="1.1" id="&#x56FE;&#x5C42;_1" xmlns="&ns_svg;" xmlns:xlink="&ns_xlink;" width="31.75" height="31.8"
	 viewBox="0 0 31.75 31.8" style="overflow:visible;enable-background:new 0 0 31.75 31.8;" xml:space="preserve">
<rect style="fill:none;" width="31.75" height="31.75"/>
<linearGradient id="XMLID_6_" gradientUnits="userSpaceOnUse" x1="17.4082" y1="2.7598" x2="23.9707" y2="10.5098">
	<stop  offset="0" style="stop-color:#FFFFFF"/>
	<stop  offset="0.1242" style="stop-color:#EFEFEF"/>
	<stop  offset="0.5223" style="stop-color:#BFBFBF"/>
	<stop  offset="0.8271" style="stop-color:#A2A2A2"/>
	<stop  offset="1" style="stop-color:#969696"/>
</linearGradient>
<polygon style="fill:url(#XMLID_6_);" points="19.417,9.042 19.291,1.771 18.646,1.169 18.792,9.604 27.333,9.271 26.78,8.754 "/>
<g>
	<linearGradient id="XMLID_7_" gradientUnits="userSpaceOnUse" x1="17.0996" y1="26.8086" x2="14.742" y2="10.7985">
		<stop  offset="0" style="stop-color:#FEFEFE"/>
		<stop  offset="0.4044" style="stop-color:#EAEAEB"/>
		<stop  offset="0.9045" style="stop-color:#CBCDCE"/>
	</linearGradient>
	<polygon style="fill:url(#XMLID_7_);stroke:#000000;" points="18.841,0.581 4.212,0.581 4.212,31.3 28.042,31.3 28.042,9.112 	"/>
	<rect x="5.021" y="1.074" style="fill:#E0E2E1;" width="13.651" height="1.117"/>
	<rect x="4.664" y="1.036" style="fill:#E0E2E1;" width="1.242" height="29.796"/>
	<polygon style="fill:#878888;" points="27.656,9.224 26.539,9.224 26.539,29.658 4.687,29.658 4.664,30.926 27.563,30.833 	"/>
</g>
<path style="opacity:0.51;fill:#191919;stroke:#FFFDFD;stroke-width:0.5;" d="M13.01,25.261H9.793l-0.015-0.759
	c0-1.019,0.174-1.842,0.522-2.474c0.346-0.633,1.022-1.327,2.021-2.086c1.114-0.851,1.783-1.437,2.008-1.752
	c0.226-0.317,0.339-0.684,0.339-1.1c0-0.688-0.29-1.253-0.869-1.694c-0.578-0.443-1.306-0.664-2.185-0.664
	c-1.896,0-3.061,0.974-3.501,2.923l-3.237-0.379c0.093-1.486,0.756-2.708,1.99-3.659c1.231-0.954,2.781-1.431,4.646-1.431
	c1.895,0,3.468,0.479,4.728,1.435c1.259,0.957,1.891,2.15,1.891,3.578c0,0.729-0.221,1.418-0.661,2.069
	c-0.438,0.652-1.384,1.544-2.835,2.671c-0.748,0.585-1.208,1.055-1.388,1.411C13.068,23.708,12.99,24.344,13.01,25.261z"/>
<rect x="9.605" y="27.102" style="opacity:0.51;fill:#191919;stroke:#FFFDFD;stroke-width:0.5;" width="3.545" height="2.648"/>
<linearGradient id="XMLID_8_" gradientUnits="userSpaceOnUse" x1="22.4165" y1="12.0625" x2="22.4165" y2="4">
	<stop  offset="0" style="stop-color:#FFFFFF"/>
	<stop  offset="0.3197" style="stop-color:#E1E1E1"/>
	<stop  offset="1" style="stop-color:#969696"/>
</linearGradient>
<polygon style="opacity:0.74;fill:url(#XMLID_8_);" points="27.5,12.188 27.521,9.271 18.646,1.013 17.313,0.906 17.313,12.188 "/>
<linearGradient id="XMLID_9_" gradientUnits="userSpaceOnUse" x1="19.5708" y1="9.4805" x2="24.7765" y2="3.2851">
	<stop  offset="0" style="stop-color:#EBEBEB"/>
	<stop  offset="0.4343" style="stop-color:#BFBFBF"/>
	<stop  offset="0.7951" style="stop-color:#A2A2A2"/>
	<stop  offset="1" style="stop-color:#969696"/>
</linearGradient>
<polygon style="fill:url(#XMLID_9_);" points="27.594,9.406 18.646,1.107 18.792,9.542 "/>
<linearGradient id="XMLID_10_" gradientUnits="userSpaceOnUse" x1="20.312" y1="4.1987" x2="23.9039" y2="10.9551">
	<stop  offset="0" style="stop-color:#FFFFFF"/>
	<stop  offset="0.1242" style="stop-color:#EFEFEF"/>
	<stop  offset="0.5223" style="stop-color:#BFBFBF"/>
	<stop  offset="0.8271" style="stop-color:#A2A2A2"/>
	<stop  offset="1" style="stop-color:#969696"/>
</linearGradient>
<polygon style="fill:url(#XMLID_10_);" points="19.417,9.042 19.57,1.849 18.729,1.065 18.75,9.75 27.594,9.406 26.969,8.844 "/>
</svg>
