<?xml version="1.0" encoding="iso-8859-1"?>
<!-- Generator: Adobe Illustrator 12.0.0, SVG Export Plug-In . SVG Version: 6.00 Build 51448)  -->
<!DOCTYPE svg PUBLIC "-//W3C//DTD SVG 1.1//EN" "http://www.w3.org/Graphics/SVG/1.1/DTD/svg11.dtd" [
	<!ENTITY ns_svg "http://www.w3.org/2000/svg">
	<!ENTITY ns_xlink "http://www.w3.org/1999/xlink">
]>
<svg  version="1.1" id="&#xCD;_xBC__xB2_&#xE3;_x5F_1" xmlns="&ns_svg;" xmlns:xlink="&ns_xlink;" width="29.87" height="29.142"
	 viewBox="0 0 29.87 29.142" style="overflow:visible;enable-background:new 0 0 29.87 29.142;" xml:space="preserve">
<g>
	<linearGradient id="XMLID_4_" gradientUnits="userSpaceOnUse" x1="7.1553" y1="5.3472" x2="19.4063" y2="20.8484">
		<stop  offset="0" style="stop-color:#FFFFFF"/>
		<stop  offset="0.0695" style="stop-color:#FAFCFB"/>
		<stop  offset="0.1573" style="stop-color:#EAF4F1"/>
		<stop  offset="0.2549" style="stop-color:#D0E7E0"/>
		<stop  offset="0.3596" style="stop-color:#ACD4C8"/>
		<stop  offset="0.469" style="stop-color:#7EBDA9"/>
		<stop  offset="0.4719" style="stop-color:#7DBCA8"/>
		<stop  offset="0.6413" style="stop-color:#77B49E"/>
		<stop  offset="0.7416" style="stop-color:#74B19A"/>
		<stop  offset="0.8246" style="stop-color:#6CAE95"/>
		<stop  offset="0.9293" style="stop-color:#59AA8B"/>
		<stop  offset="1" style="stop-color:#45A783"/>
	</linearGradient>
	<circle style="fill:url(#XMLID_4_);" cx="14.501" cy="14.642" r="13.917"/>
	<g>
		<path style="fill:none;stroke:#51785D;" d="M14.459,0.891c-7.518,0-13.615,6.034-13.738,13.521
			c2.295-2.926,5.855-4.813,9.863-4.813c6.926,0,12.541,5.615,12.541,12.542c0,1.237-0.186,2.43-0.52,3.559
			c3.393-2.505,5.604-6.519,5.604-11.059C28.209,7.047,22.053,0.891,14.459,0.891z"/>
		<path style="fill:none;stroke:#51785D;" d="M10.584,9.599c-4.008,0-7.568,1.887-9.863,4.813c-0.002,0.077-0.012,0.152-0.012,0.229
			c0,1.628,0.297,3.184,0.816,4.633c1.217-3.846,4.811-6.633,9.059-6.633c5.246,0,9.5,4.252,9.5,9.5c0,2.157-0.729,4.14-1.939,5.734
			c1.627-0.457,3.135-1.197,4.461-2.176c0.334-1.129,0.52-2.321,0.52-3.559C23.125,15.214,17.51,9.599,10.584,9.599z"/>
		<path style="fill:none;stroke:#51785D;" d="M10.584,12.641c-4.248,0-7.842,2.787-9.059,6.633
			c1.904,5.311,6.969,9.117,12.934,9.117c1.279,0,2.512-0.187,3.686-0.516c1.211-1.595,1.939-3.577,1.939-5.734
			C20.084,16.893,15.83,12.641,10.584,12.641z"/>
	</g>
	<circle style="fill:none;stroke:#51785D;" cx="10.709" cy="20.767" r="6.084"/>
	<circle style="fill:#51785D;" cx="10.709" cy="20.766" r="2.387"/>
	<circle style="fill:none;stroke:#000000;" cx="14.417" cy="14.725" r="13.917"/>
	<path style="opacity:0.45;fill:#8CA99C;" d="M5.418,5.891c2.336-2.46,8.273-4.462,11.416-4.313C13.25-0.005,7.48,2.604,4.826,5.398
		c-2.955,3.107-5.18,8.117-2.992,14.18C1.5,11.245,2.725,8.722,5.418,5.891z"/>
	<path style="fill:#E5EAEA;" d="M24.168,22.516c3.574-4.391,3.584-8.616,3-11.708c1.619,3.233,0.186,9.231-2.215,12.248
		c-2.666,3.357-8.428,6.191-13.785,4.586C14.787,27.957,19.418,28.349,24.168,22.516z"/>
	<linearGradient id="XMLID_5_" gradientUnits="userSpaceOnUse" x1="21.0522" y1="14.4106" x2="18.7033" y2="11.9982">
		<stop  offset="0.1629" style="stop-color:#90B999"/>
		<stop  offset="0.4444" style="stop-color:#63746C"/>
		<stop  offset="0.8258" style="stop-color:#000000"/>
	</linearGradient>
	<polygon style="opacity:0.72;fill:url(#XMLID_5_);" points="16.5,17.725 11.75,18.099 11,17.516 14.16,13.451 24.168,4.182 
		26.5,9.182 	"/>
	
		<linearGradient id="XMLID_6_" gradientUnits="userSpaceOnUse" x1="-87.6846" y1="33.7725" x2="-84.3506" y2="33.7725" gradientTransform="matrix(0.6747 0.7381 -0.7381 0.6747 102.7975 50.0931)">
		<stop  offset="0.0281" style="stop-color:#BEC8CF"/>
		<stop  offset="0.1263" style="stop-color:#BDC6CD"/>
		<stop  offset="0.1616" style="stop-color:#B6BFC5"/>
		<stop  offset="0.1854" style="stop-color:#ACB4BB"/>
		<stop  offset="0.4157" style="stop-color:#888F95"/>
		<stop  offset="0.5837" style="stop-color:#777A81"/>
		<stop  offset="0.7584" style="stop-color:#646169"/>
	</linearGradient>
	<polygon style="fill:url(#XMLID_6_);stroke:#1E2220;stroke-width:0.25;" points="15.992,15.161 11.324,17.621 10.861,17.114 
		13.742,12.701 27.443,0.177 29.693,2.637 	"/>
</g>
</svg>
