<?xml version="1.0" encoding="iso-8859-1"?>
<!-- Generator: Adobe Illustrator 12.0.1, SVG Export Plug-In . SVG Version: 6.00 Build 51448)  -->
<!DOCTYPE svg PUBLIC "-//W3C//DTD SVG 1.1//EN" "http://www.w3.org/Graphics/SVG/1.1/DTD/svg11.dtd" [
	<!ENTITY ns_svg "http://www.w3.org/2000/svg">
	<!ENTITY ns_xlink "http://www.w3.org/1999/xlink">
]>
<svg  version="1.1" id="&#x56FE;&#x5C42;_1" xmlns="&ns_svg;" xmlns:xlink="&ns_xlink;" width="22.764" height="32.683"
	 viewBox="0 0 22.764 32.683" style="overflow:visible;enable-background:new 0 0 22.764 32.683;" xml:space="preserve">
<g>
	<linearGradient id="XMLID_3_" gradientUnits="userSpaceOnUse" x1="0.2554" y1="20.5728" x2="22.5107" y2="20.5728">
		<stop  offset="0" style="stop-color:#DA640D"/>
		<stop  offset="0.1829" style="stop-color:#DB660C"/>
		<stop  offset="0.2855" style="stop-color:#DC6E09"/>
		<stop  offset="0.368" style="stop-color:#E07C05"/>
		<stop  offset="0.4213" style="stop-color:#E38A00"/>
	</linearGradient>
	<path style="fill:url(#XMLID_3_);stroke:#3B3B3B;stroke-width:0.5;" d="M22.212,12.001l-8.379-3.288
		c-3.734,0.889-3.685,0.947-6.232,1.823c-2.383,0.819-7.345,4.367-7.345,4.367l0.596,14.142l7.517,3.387
		c3.4-0.062,9.206-3.437,9.206-3.437s2.246-1.027,4.938-3.374L22.212,12.001z"/>
	<path style="fill:#F5AA59;" d="M20.062,10.957c2.592,0.96,2.529,1.626,0.215,2.719l-9.219,4.435
		c-2.251,0.882-3.992,0.217-5.892-0.658L2.3,16.131c-1.767-0.814-2.288-1.507-0.481-2.455c0,0,4.912-3.201,8.708-4.243
		c2.753-1.079,3.498-0.931,5.653,0.086L20.062,10.957z"/>
	<g>
		<linearGradient id="XMLID_4_" gradientUnits="userSpaceOnUse" x1="7.2959" y1="8.6611" x2="17.1712" y2="5.286">
			<stop  offset="0.0056" style="stop-color:#FFFFFF"/>
			<stop  offset="0.2632" style="stop-color:#F1F0F6"/>
			<stop  offset="0.5643" style="stop-color:#E9E7F1"/>
			<stop  offset="1" style="stop-color:#E6E4EF"/>
		</linearGradient>
		<path style="fill:url(#XMLID_4_);stroke:#4A4A4A;stroke-width:0.25;" d="M12.077,0.125h-1.079c-3.115,0-6.224,3.077-6.224,6.184
			l-0.152,9.107c0,0,1.294,1.163,3.473,0.51c1.746-0.411,1.552-1.483,1.552-1.483L9.459,7.387c-0.037-2.629,3.155-5.036,3.973-2.161
			l-0.049,5.904c0,0,1.596,1.404,3.125,0.625c1.01-0.514,0.725-0.966,0.725-0.966l-0.456-6.473
			C16.702,2.289,14.417,0.125,12.077,0.125z"/>
		<path style="opacity:0.27;fill:#6B6B86;" d="M11.183,0.146c-3.117,0-6.38,2.928-6.38,6.035l-0.098,9.238
			c0,0,1.303,0.868,3.094,0.547c-2.031-0.281-2.313-1.344-2.313-1.344l0.313-8.46c0.002-3.062,4.082-5.639,7.143-5.705
			c-0.037-0.002-0.654-0.276-0.689-0.276L11.183,0.146z"/>
		<path style="opacity:0.33;fill:#6B6B86;" d="M14.666,10.939l-0.304-5.463c-0.249-0.67-1.25-1.875-2.083-1.646
			c0.32,0.188,1.167,0.479,1.146,1.247v5.896c0,0,0.832,0.835,2.063,0.878C14.716,11.623,14.666,10.939,14.666,10.939z"/>
		<path style="fill:#FFFFFF;" d="M16.643,5.029c-0.121-1.639-0.719-3.875-3.563-4.625h-1.031C4.706,1.133,5.706,8.06,5.706,8.06
			c1.313-7.656,7.375-6.781,7.375-6.781C15.643,1.123,16.643,5.029,16.643,5.029z"/>
	</g>
	<path style="fill:#110200;" d="M17.929,22.07c0.537-0.535,0.85-1.291,0.795-1.992c-0.074-0.953-0.824-1.564-1.753-1.4
		c-1.028,0.182-1.975,1.241-2.015,2.424c-0.031,0.878,0.453,1.496,1.161,1.633l-0.002,2.467l-1.044,0.567l0.127,2.019l3.622-2.119
		L18.7,23.945l-0.66,0.32L17.929,22.07z"/>
	<path style="opacity:0.49;fill:#110200;" d="M18.815,23.857L18.3,24.169l-0.109-1.969c0.656-0.734,0.871-1.385,0.813-2.141
		c-0.078-1.031-0.891-1.688-1.703-1.594c-0.913,0.105-1.297,0.625-1.672,0.938c0.301-0.217,0.875-0.658,1.219-0.719
		c1.004-0.178,1.782,0.484,1.891,1.266c0.105,0.752-0.232,1.437-0.813,2.016l0.115,2.299l0.541-0.206l0.094,1.688l0.281-0.078
		L18.815,23.857z"/>
</g>
</svg>
