<?xml version="1.0" encoding="UTF-8" standalone="no"?>
<!-- Generator: Adobe Illustrator 12.0.1, SVG Export Plug-In . SVG Version: 6.00 Build 51448)  -->
<svg
   xmlns:dc="http://purl.org/dc/elements/1.1/"
   xmlns:cc="http://web.resource.org/cc/"
   xmlns:rdf="http://www.w3.org/1999/02/22-rdf-syntax-ns#"
   xmlns:svg="http://www.w3.org/2000/svg"
   xmlns="http://www.w3.org/2000/svg"
   xmlns:sodipodi="http://sodipodi.sourceforge.net/DTD/sodipodi-0.dtd"
   xmlns:inkscape="http://www.inkscape.org/namespaces/inkscape"
   version="1.1"
   id="图层_1"
   width="11.834"
   height="11.835"
   viewBox="0 0 11.834 11.835"
   overflow="visible"
   enable-background="new 0 0 11.834 11.835"
   xml:space="preserve"
   sodipodi:version="0.32"
   inkscape:version="0.44.1"
   sodipodi:docname="edit.svg"
   sodipodi:docbase="/home/user"><metadata
   id="metadata47"><rdf:RDF><cc:Work
       rdf:about=""><dc:format>image/svg+xml</dc:format><dc:type
         rdf:resource="http://purl.org/dc/dcmitype/StillImage" /></cc:Work></rdf:RDF></metadata><defs
   id="defs45">
	
	
	
	
	
	
	
	
</defs><sodipodi:namedview
   inkscape:window-height="624"
   inkscape:window-width="928"
   inkscape:pageshadow="2"
   inkscape:pageopacity="0.0"
   guidetolerance="10.0"
   gridtolerance="10.0"
   objecttolerance="10.0"
   borderopacity="1.0"
   bordercolor="#666666"
   pagecolor="#ffffff"
   id="base"
   inkscape:zoom="34.389522"
   inkscape:cx="5.9169998"
   inkscape:cy="5.9029607"
   inkscape:window-x="664"
   inkscape:window-y="495"
   inkscape:current-layer="图层_1" />
<linearGradient
   id="XMLID_2_"
   gradientUnits="userSpaceOnUse"
   x1="14.2363"
   y1="11.6465"
   x2="-8.1499"
   y2="11.6465">
	<stop
   offset="0.0056"
   style="stop-color:#FFFFFF"
   id="stop4" />
	<stop
   offset="0.1222"
   style="stop-color:#F3F2F1"
   id="stop6" />
	<stop
   offset="0.246"
   style="stop-color:#DBD8D7"
   id="stop8" />
	<stop
   offset="0.3732"
   style="stop-color:#BBB6B4"
   id="stop10" />
	<stop
   offset="0.5028"
   style="stop-color:#938B89"
   id="stop12" />
	<stop
   offset="0.6344"
   style="stop-color:#665E5B"
   id="stop14" />
	<stop
   offset="0.7674"
   style="stop-color:#3C3532"
   id="stop16" />
	<stop
   offset="0.8991"
   style="stop-color:#0C0402"
   id="stop18" />
	<stop
   offset="1"
   style="stop-color:#000000"
   id="stop20" />
</linearGradient>
<polygon
   fill="url(#XMLID_2_)"
   points="10.042,11.793 2.58,11.781 2.75,11.563 10.208,11.501 "
   id="polygon22" />
<path
   style="fill:#d3e5fc;stroke:#00198e;stroke-width:0.25;fill-opacity:1;stroke-opacity:0.38431373"
   id="path26"
   d="M 6.086,9.965 C 6.086,9.965 4.034,11.639 2.862,11.057 L 2.862,11.057 C 1.689,10.474 1.843,7.856 1.843,7.856 L 5.892,0.163 L 7.453,0.262 L 9.281,1.231 L 10.172,2.392 L 6.086,9.965 z " /><polygon
   style="fill:#7ab5f7;fill-opacity:1"
   id="polygon28"
   points="5.992,10.004 4.723,9.136 9.266,1.292 10.188,2.448 5.992,10.004 " /><polygon
   style="fill:#9fc7f9;fill-opacity:1"
   id="polygon30"
   points="4.841,9.181 2.948,8.25 7.438,0.323 9.266,1.292 4.841,9.181 " /><polygon
   style="fill:#d5e5fe;fill-opacity:1"
   id="polygon32"
   points="3.111,8.333 1.788,7.966 5.958,0.159 7.438,0.323 3.111,8.333 " /><polygon
   style="fill:#d4e6fc;fill-opacity:1"
   id="polygon34"
   points="3.06,11.027 2.658,10.778 3.213,8.332 4.683,9.102 3.06,11.027 " /><polygon
   style="fill:#e8f1fe;fill-opacity:1"
   id="polygon36"
   points="2.658,10.778 2.257,10.395 1.788,7.966 3.213,8.332 2.658,10.778 " /><polygon
   style="fill:#9dc8f9;fill-opacity:1"
   id="polygon38"
   points="3.816,11.144 3.087,10.988 4.683,9.102 5.992,10.004 3.816,11.144 " /><polygon
   id="polygon40"
   points="2.511,11.835 2.083,10.29 3.875,11.229 2.511,11.835 "
   style="fill:#3e79e8;fill-opacity:1" />
<rect
   width="11.834"
   height="11.834"
   id="rect42"
   x="-1.8110062e-07"
   y="1.0002416e-14"
   style="opacity:0;fill:white" />
</svg>
