<?xml version="1.0" encoding="iso-8859-1"?>
<!-- Generator: Adobe Illustrator 12.0.1, SVG Export Plug-In . SVG Version: 6.00 Build 51448)  -->
<!DOCTYPE svg PUBLIC "-//W3C//DTD SVG 1.1//EN" "http://www.w3.org/Graphics/SVG/1.1/DTD/svg11.dtd" [
	<!ENTITY ns_svg "http://www.w3.org/2000/svg">
	<!ENTITY ns_xlink "http://www.w3.org/1999/xlink">
]>
<svg  version="1.1" id="&#xCD;_xBC__xB2_&#xE3;_x5F_1" xmlns="&ns_svg;" xmlns:xlink="&ns_xlink;" width="37.25" height="36.25"
	 viewBox="0 0 37.25 36.25" style="overflow:visible;enable-background:new 0 0 37.25 36.25;" xml:space="preserve">
<g>
	<path style="fill:#BCBEC0;stroke:#363639;stroke-width:0.75;" d="M36.875,18.625c0,10.079-8.672,17.25-18.75,17.25
		c-10.08,0-17.75-7.171-17.75-17.25s8.17-18.25,18.25-18.25C28.703,0.375,36.875,8.546,36.875,18.625z"/>
	<path style="opacity:0.61;fill:#FFFFFF;" d="M27.459,5.438c1.008,3.244-3.561,7.543-10.197,9.598
		c-6.641,2.058-12.836,1.094-13.84-2.148c-1.008-3.245,3.561-7.545,10.197-9.6C20.26,1.231,26.455,2.195,27.459,5.438z"/>
	<path style="fill:#8A8C8E;" d="M2.125,25.688c1.416,3.667,3.67,5.503,6.75,7.625c5.625,3.875,17.857,2.353,22.5-2.75
		c4.725-5.194,6.188-11.25,4.5-16.75C28.188,32.375,10.313,31.125,2.125,25.688z"/>
	<polygon style="fill:#464648;stroke:#363639;stroke-width:0.75;" points="30.875,15.387 22.057,15.387 21.967,6.569 15.285,6.638 
		15.373,15.387 6.625,15.387 6.625,22.07 15.441,22.07 15.531,30.886 22.213,30.819 22.125,22.07 30.875,22.07 	"/>
	<polygon style="fill:#858A90;" points="21.811,15.542 21.811,6.98 20.479,6.979 20.479,16.729 20.535,16.729 20.533,16.863 
		30.5,16.938 30.563,15.75 	"/>
	<polygon style="fill:#858A90;" points="21.813,30.438 20.813,30.438 20.75,21.5 21.688,21.813 	"/>
</g>
</svg>
