<?xml version="1.0" encoding="UTF-8" standalone="no"?>
<!-- Generator: Adobe Illustrator 12.0.1, SVG Export Plug-In . SVG Version: 6.00 Build 51448)  -->
<svg
   xmlns:dc="http://purl.org/dc/elements/1.1/"
   xmlns:cc="http://web.resource.org/cc/"
   xmlns:rdf="http://www.w3.org/1999/02/22-rdf-syntax-ns#"
   xmlns:svg="http://www.w3.org/2000/svg"
   xmlns="http://www.w3.org/2000/svg"
   xmlns:sodipodi="http://sodipodi.sourceforge.net/DTD/sodipodi-0.dtd"
   xmlns:inkscape="http://www.inkscape.org/namespaces/inkscape"
   version="1.1"
   id="Í_xBC__xB2_ã_x5F_1"
   width="20.416"
   height="20.417"
   viewBox="0 0 20.416 20.417"
   overflow="visible"
   enable-background="new 0 0 20.416 20.417"
   xml:space="preserve"
   sodipodi:version="0.32"
   inkscape:version="0.44.1"
   sodipodi:docname="trash.svg"
   sodipodi:docbase="/home/user"><metadata
   id="metadata121"><rdf:RDF><cc:Work
       rdf:about=""><dc:format>image/svg+xml</dc:format><dc:type
         rdf:resource="http://purl.org/dc/dcmitype/StillImage" /></cc:Work></rdf:RDF></metadata><defs
   id="defs119" /><sodipodi:namedview
   inkscape:window-height="1128"
   inkscape:window-width="1600"
   inkscape:pageshadow="2"
   inkscape:pageopacity="0.0"
   guidetolerance="10.0"
   gridtolerance="10.0"
   objecttolerance="10.0"
   borderopacity="1.0"
   bordercolor="#666666"
   pagecolor="#ffffff"
   id="base"
   inkscape:zoom="21.365127"
   inkscape:cx="10.208"
   inkscape:cy="10.158336"
   inkscape:window-x="0"
   inkscape:window-y="0"
   inkscape:current-layer="Í_xBC__xB2_ã_x5F_1" /><g
   id="g3"
   style="fill:#d3e5fc;fill-opacity:1;stroke:#00198e;stroke-opacity:0.38431373">
	<linearGradient
   id="XMLID_6_"
   gradientUnits="userSpaceOnUse"
   x1="4.7842002"
   y1="10.2422"
   x2="15.7878"
   y2="10.2422">
		<stop
   offset="0.0112"
   style="stop-color:#828282"
   id="stop6" />
		<stop
   offset="0.3285"
   style="stop-color:#C7C7C7"
   id="stop8" />
		<stop
   offset="0.573"
   style="stop-color:#FFFFFF"
   id="stop10" />
		<stop
   offset="0.6175"
   style="stop-color:#EFEFEF"
   id="stop12" />
		<stop
   offset="0.7971"
   style="stop-color:#B5B5B5"
   id="stop14" />
		<stop
   offset="0.9297"
   style="stop-color:#909090"
   id="stop16" />
		<stop
   offset="1"
   style="stop-color:#828282"
   id="stop18" />
	</linearGradient>
	<path
   d="M 17.001,7.812 L 17.141,4.33 C 17.004,2.038 13.925,0.339 10.044,0.339 C 5.907,0.339 2.601,2.443 2.856,4.882 C 2.871,5.081 3.154,7.86 3.154,7.86 L 3.875,8.416 L 4.522,16.573 C 4.667,18.437 7.207,20.145 10.24,20.145 C 13.273,20.145 15.76,18.842 16.043,16.603 L 16.381,8.268 L 17.001,7.812 z "
   id="path20"
   style="fill:#d3e5fc;fill-opacity:1;stroke:#00198e;stroke-width:0.5;stroke-opacity:0.38431373" />
	<g
   id="g22"
   style="fill:#d3e5fc;fill-opacity:1;stroke:#00198e;stroke-opacity:0.38431373">
		<linearGradient
   id="XMLID_7_"
   gradientUnits="userSpaceOnUse"
   x1="3.1034999"
   y1="4.1875"
   x2="16.8799"
   y2="4.1875">
			<stop
   offset="0.0112"
   style="stop-color:#828282"
   id="stop25" />
			<stop
   offset="0.1441"
   style="stop-color:#A5A5A5"
   id="stop27" />
			<stop
   offset="0.2833"
   style="stop-color:#C3C3C3"
   id="stop29" />
			<stop
   offset="0.4031"
   style="stop-color:#D5D5D5"
   id="stop31" />
			<stop
   offset="0.4888"
   style="stop-color:#DBDBDB"
   id="stop33" />
			<stop
   offset="0.5807"
   style="stop-color:#D5D5D5"
   id="stop35" />
			<stop
   offset="0.7079"
   style="stop-color:#C3C3C3"
   id="stop37" />
			<stop
   offset="0.855"
   style="stop-color:#A6A6A6"
   id="stop39" />
			<stop
   offset="1"
   style="stop-color:#828282"
   id="stop41" />
		</linearGradient>
		<path
   d="M 16.88,4.233 C 16.88,6.195 13.659,7.814 10.022,7.814 C 6.386,7.814 3.104,6.347 3.104,4.385 C 3.104,2.423 6.355,0.561 9.993,0.561 C 13.628,0.562 16.88,2.272 16.88,4.233 z "
   id="path43"
   style="fill:#d3e5fc;fill-opacity:1;stroke:#00198e;stroke-opacity:0.38431373" />
		<g
   id="g45"
   style="fill:#d3e5fc;fill-opacity:1;stroke:#00198e;stroke-opacity:0.38431373">
			<linearGradient
   id="XMLID_8_"
   gradientUnits="userSpaceOnUse"
   x1="7.3759999"
   y1="3.082"
   x2="12.583"
   y2="3.082">
				<stop
   offset="0.0112"
   style="stop-color:#828282"
   id="stop48" />
				<stop
   offset="0.0803"
   style="stop-color:#919191"
   id="stop50" />
				<stop
   offset="0.2453"
   style="stop-color:#AEAEAE"
   id="stop52" />
				<stop
   offset="0.3872"
   style="stop-color:#C0C0C0"
   id="stop54" />
				<stop
   offset="0.4888"
   style="stop-color:#C7C7C7"
   id="stop56" />
				<stop
   offset="0.5975"
   style="stop-color:#C1C1C1"
   id="stop58" />
				<stop
   offset="0.7481"
   style="stop-color:#AFAFAF"
   id="stop60" />
				<stop
   offset="0.9224"
   style="stop-color:#919191"
   id="stop62" />
				<stop
   offset="1"
   style="stop-color:#828282"
   id="stop64" />
			</linearGradient>
			<polygon
   points="11.824,3.497 11.537,1.817 8.335,1.812 8.134,3.521 7.376,3.569 7.414,4.353 8.38,4.254 8.587,2.946 11.315,2.952 11.579,4.254 12.556,4.295 12.583,3.497 11.824,3.497 "
   id="polygon66"
   style="fill:#d3e5fc;fill-opacity:1;stroke:#00198e;stroke-width:0.25;stroke-opacity:0.38431373" />
			
				<linearGradient
   id="XMLID_9_"
   gradientUnits="userSpaceOnUse"
   x1="2.8745"
   y1="-6.0043998"
   x2="9.3809004"
   y2="-6.0043998"
   gradientTransform="matrix(0.7997,0,0,-0.5757,5.1062,1.5233)">
				<stop
   offset="0.0112"
   style="stop-color:#828282"
   id="stop69" />
				<stop
   offset="0.0803"
   style="stop-color:#919191"
   id="stop71" />
				<stop
   offset="0.2453"
   style="stop-color:#AEAEAE"
   id="stop73" />
				<stop
   offset="0.3872"
   style="stop-color:#C0C0C0"
   id="stop75" />
				<stop
   offset="0.4888"
   style="stop-color:#C7C7C7"
   id="stop77" />
				<stop
   offset="0.5975"
   style="stop-color:#C1C1C1"
   id="stop79" />
				<stop
   offset="0.7481"
   style="stop-color:#AFAFAF"
   id="stop81" />
				<stop
   offset="0.9224"
   style="stop-color:#919191"
   id="stop83" />
				<stop
   offset="1"
   style="stop-color:#828282"
   id="stop85" />
			</linearGradient>
			<polygon
   points="11.856,4.701 11.455,5.689 8.371,5.718 8.196,4.688 7.468,4.718 7.405,4.312 8.419,4.241 8.646,5.019 11.352,5.015 11.567,4.285 12.556,4.295 12.608,4.701 11.856,4.701 "
   id="polygon87"
   style="fill:#d3e5fc;fill-opacity:1;stroke:#00198e;stroke-opacity:0.38431373" />
		</g>
	</g>
</g><path
   d="M 16.803,7.208 C 16.113,8.733 13.408,9.966 10.22,9.966 C 6.901,9.966 3.885,8.779 3.366,7.147 L 3.77,9.777 C 3.77,9.777 5.667,12.113 10.134,12.053 C 14.688,11.991 16.557,9.451 16.557,9.451 C 16.549,9.361 16.803,7.208 16.803,7.208 z "
   id="path89"
   style="opacity:0.76000001;fill:#bdcfe6;fill-opacity:1" /><polygon
   opacity="0.76"
   fill="#6D6D6D"
   points="10.662,18.411 9.517,18.411 9.434,9.82 10.63,9.82 "
   id="polygon91"
   style="fill:#00198e;fill-opacity:0.38431373" /><polygon
   opacity="0.76"
   fill="#6D6D6D"
   points="13.855,17.792 12.813,18.146 12.882,9.597 14.001,9.292 "
   id="polygon93"
   style="fill:#00198e;fill-opacity:0.38431373" /><polygon
   points="7.626,18.167 6.73,17.813 6.24,9.271 7.436,9.426 7.626,18.167 "
   id="polygon95"
   style="opacity:0.76000001;fill:#00198e;fill-opacity:0.38431373" /><path
   d="M 17.063,5.125 C 16.373,6.651 13.409,8.057 10.22,8.057 C 6.901,8.057 3.374,6.736 2.854,5.104 L 3.154,7.86 C 3.154,7.86 5.668,10.203 10.134,10.143 C 14.688,10.081 16.901,7.706 16.901,7.706 C 16.894,7.616 17.063,5.125 17.063,5.125 z "
   id="path112"
   style="fill:#d3e5fc;fill-opacity:1;stroke:#00198e;stroke-width:0.5;stroke-opacity:0.38431373" /><polygon
   fill="#B2B2B2"
   points="11.756,3.817 11.412,2.489 8.428,2.505 8.209,3.849 7.521,3.849 7.537,4.192 8.287,4.13   8.459,2.849 11.412,2.833 11.678,4.114 12.443,4.161 12.459,3.849 "
   id="polygon114" />

<rect
   style="opacity:0;fill:white;fill-opacity:1;stroke:#00198e;stroke-width:0.95315331;stroke-opacity:0.38431373"
   id="rect1929"
   width="19.459555"
   height="19.460554"
   x="0.47657773"
   y="0.47986922" /></svg>
