<?xml version="1.0" encoding="iso-8859-1"?>
<!-- Generator: Adobe Illustrator 12.0.0, SVG Export Plug-In . SVG Version: 6.00 Build 51448)  -->
<!DOCTYPE svg PUBLIC "-//W3C//DTD SVG 1.1//EN" "http://www.w3.org/Graphics/SVG/1.1/DTD/svg11.dtd" [
	<!ENTITY ns_svg "http://www.w3.org/2000/svg">
	<!ENTITY ns_xlink "http://www.w3.org/1999/xlink">
]>
<svg  version="1.1" id="&#xCD;_xBC__xB2_&#xE3;_x5F_1" xmlns="&ns_svg;" xmlns:xlink="&ns_xlink;" width="11.069" height="11.634"
	 viewBox="0 0 11.069 11.634" style="overflow:visible;enable-background:new 0 0 11.069 11.634;" xml:space="preserve">
<g>
	<g>
		<polygon style="fill:#1D2121;" points="11.069,4.458 7.747,4.457 7.747,1.134 3.891,1.134 3.891,4.456 0.567,4.455 0.567,8.31 
			3.889,8.31 3.889,11.634 7.745,11.634 7.745,8.312 11.069,8.312 		"/>
		<polygon style="fill:#1D2121;" points="11.069,3.891 7.747,3.89 7.747,0.567 3.891,0.567 3.891,3.889 0.567,3.888 0.567,7.744 
			3.889,7.744 3.889,11.068 7.745,11.068 7.745,7.746 11.069,7.746 		"/>
	</g>
	<g>
		<g>
			<polygon style="fill:#1D2121;" points="10.502,3.891 7.18,3.89 7.18,0.567 3.324,0.567 3.324,3.889 0,3.888 0,7.744 3.322,7.744 
				3.322,11.068 7.178,11.068 7.178,7.746 10.502,7.746 			"/>
		</g>
		<g>
			<polygon style="fill:#00AD4E;" points="10.502,3.324 7.18,3.323 7.18,0 3.324,0 3.324,3.322 0,3.321 0,7.177 3.322,7.177 
				3.322,10.501 7.178,10.501 7.178,7.179 10.502,7.179 			"/>
		</g>
	</g>
</g>
</svg>
