<?xml version="1.0" encoding="iso-8859-1"?>
<!-- Generator: Adobe Illustrator 12.0.0, SVG Export Plug-In . SVG Version: 6.00 Build 51448)  -->
<!DOCTYPE svg PUBLIC "-//W3C//DTD SVG 1.1//EN" "http://www.w3.org/Graphics/SVG/1.1/DTD/svg11.dtd" [
	<!ENTITY ns_svg "http://www.w3.org/2000/svg">
	<!ENTITY ns_xlink "http://www.w3.org/1999/xlink">
]>
<svg  version="1.1" id="&#xCD;_xBC__xB2_&#xE3;_x5F_1" xmlns="&ns_svg;" xmlns:xlink="&ns_xlink;" width="19.941" height="19.378"
	 viewBox="0 0 19.941 19.378" style="overflow:visible;enable-background:new 0 0 19.941 19.378;" xml:space="preserve">
<g>
	<g>
		<linearGradient id="XMLID_4_" gradientUnits="userSpaceOnUse" x1="13.7397" y1="5.6421" x2="5.7856" y2="13.5962">
			<stop  offset="0" style="stop-color:#FFFFFF"/>
			<stop  offset="0.1563" style="stop-color:#EEE2CD"/>
			<stop  offset="0.3239" style="stop-color:#E6D0AC"/>
			<stop  offset="0.4918" style="stop-color:#DFC293"/>
			<stop  offset="0.6577" style="stop-color:#DAB982"/>
			<stop  offset="0.8207" style="stop-color:#D7B479"/>
			<stop  offset="0.9775" style="stop-color:#D6B276"/>
		</linearGradient>
		<path style="fill:url(#XMLID_4_);stroke:#070707;stroke-width:0.5;" d="M11.479,16.436l7.484-7.773L7.731,0.333L0.837,7.612
			C0.19,8.177,0.052,9.145,0.554,9.864c0.176,0.251,0.408,0.433,0.666,0.556l10.742,8.315L11.479,16.436z"/>
		<polygon style="fill:#C19F79;stroke:#070707;stroke-width:0.5;" points="18.915,8.926 19.655,11.064 12.175,18.876 11.585,16.459 
					"/>
		
			<linearGradient id="XMLID_5_" gradientUnits="userSpaceOnUse" x1="81.1494" y1="53.9902" x2="81.469" y2="56.4758" gradientTransform="matrix(0.8204 -0.5718 0.5718 0.8204 -82.8651 14.9153)">
			<stop  offset="0" style="stop-color:#FFFFFF"/>
			<stop  offset="0.1241" style="stop-color:#F3F0ED"/>
			<stop  offset="0.3063" style="stop-color:#E0D9D0"/>
			<stop  offset="0.5241" style="stop-color:#C4B7A8"/>
			<stop  offset="0.7675" style="stop-color:#A28F78"/>
			<stop  offset="0.9775" style="stop-color:#836D52"/>
		</linearGradient>
		<polygon style="fill:url(#XMLID_5_);" points="18.857,8.97 19.586,11.074 12.224,18.762 11.644,16.384 		"/>
		
			<linearGradient id="XMLID_6_" gradientUnits="userSpaceOnUse" x1="84.71" y1="46.8604" x2="74.6963" y2="48.3518" gradientTransform="matrix(0.8204 -0.5718 0.5718 0.8204 -82.8651 14.9153)">
			<stop  offset="0" style="stop-color:#FFFFFF"/>
			<stop  offset="0.1241" style="stop-color:#F3F0ED"/>
			<stop  offset="0.3063" style="stop-color:#E0D9D0"/>
			<stop  offset="0.5241" style="stop-color:#C4B7A8"/>
			<stop  offset="0.7675" style="stop-color:#A28F78"/>
			<stop  offset="0.9775" style="stop-color:#836D52"/>
		</linearGradient>
		<polygon style="opacity:0.37;fill:url(#XMLID_6_);stroke:#000000;stroke-width:0.5;" points="18.935,8.851 11.583,16.313 
			0.913,8.082 7.751,0.631 		"/>
	</g>
	<g>
		<g style="opacity:0.31;">
			<polygon style="fill:#C4312E;" points="11.69,5.097 9.93,6.593 8.01,5.178 5.884,6.912 7.794,8.408 5.867,10.045 8.205,11.975 
				10.141,10.243 12.285,11.92 14.429,9.91 12.283,8.329 14.046,6.75 			"/>
		</g>
		<g>
			<polygon style="fill:#00AD4E;" points="11.123,4.53 9.363,6.026 7.443,4.611 5.317,6.345 7.228,7.841 5.3,9.479 7.638,11.408 
				9.574,9.676 11.718,11.354 13.862,9.343 11.716,7.762 13.479,6.184 			"/>
		</g>
	</g>
</g>
</svg>
