<?xml version="1.0" encoding="iso-8859-1"?>
<!-- Generator: Adobe Illustrator 12.0.0, SVG Export Plug-In . SVG Version: 6.00 Build 51448)  -->
<!DOCTYPE svg PUBLIC "-//W3C//DTD SVG 1.1//EN" "http://www.w3.org/Graphics/SVG/1.1/DTD/svg11.dtd" [
	<!ENTITY ns_svg "http://www.w3.org/2000/svg">
	<!ENTITY ns_xlink "http://www.w3.org/1999/xlink">
]>
<svg  version="1.1" id="&#xCD;_xBC__xB2_&#xE3;_x5F_1" xmlns="&ns_svg;" xmlns:xlink="&ns_xlink;" width="14.561" height="25.879"
	 viewBox="0 0 14.561 25.879" style="overflow:visible;enable-background:new 0 0 14.561 25.879;" xml:space="preserve">
<g>
	<linearGradient id="XMLID_8_" gradientUnits="userSpaceOnUse" x1="2.3091" y1="24.6504" x2="12.4028" y2="24.6504">
		<stop  offset="0.0056" style="stop-color:#C9C9C9"/>
		<stop  offset="0.2809" style="stop-color:#A1A1A1"/>
		<stop  offset="0.6685" style="stop-color:#C9C9C9"/>
		<stop  offset="1" style="stop-color:#7D7D7D"/>
	</linearGradient>
	<path style="fill:url(#XMLID_8_);stroke:#2F3738;stroke-width:0.5;" d="M7.441,24.301c-2.808,0-4.47-0.291-5.132-0.581
		c0.083,0.626,0.136,1.028,0.136,1.042c0,0.343,1.548,0.867,4.96,0.867c3.414,0,4.861-0.621,4.861-0.963
		c0-0.014,0.053-0.396,0.137-0.994C11.729,23.979,10.148,24.301,7.441,24.301z"/>
	<linearGradient id="XMLID_9_" gradientUnits="userSpaceOnUse" x1="0.2788" y1="17.0713" x2="14.2798" y2="17.0713">
		<stop  offset="0.0056" style="stop-color:#C9C9C9"/>
		<stop  offset="0.2809" style="stop-color:#A1A1A1"/>
		<stop  offset="0.6685" style="stop-color:#C9C9C9"/>
		<stop  offset="1" style="stop-color:#7D7D7D"/>
	</linearGradient>
	<path style="fill:url(#XMLID_9_);stroke:#2F3738;stroke-width:0.5;" d="M14.28,9.829H0.279c0,0,1.431,13.177,1.431,13.271
		c0,0.479,1.744,1.212,5.589,1.212s5.476-0.868,5.476-1.347C12.774,22.871,14.28,9.829,14.28,9.829z"/>
	<linearGradient id="XMLID_10_" gradientUnits="userSpaceOnUse" x1="7.2422" y1="7.9741" x2="7.2422" y2="12.7026">
		<stop  offset="0.0056" style="stop-color:#C9C9C9"/>
		<stop  offset="0.9775" style="stop-color:#080808"/>
	</linearGradient>
	<ellipse style="fill:url(#XMLID_10_);stroke:#242525;stroke-width:0.5;" cx="7.242" cy="9.77" rx="6.972" ry="1.557"/>
	<rect x="4.569" y="14.498" style="fill:#00AB60;" width="5.119" height="2.274"/>
	<defs>
		<filter id="Adobe_OpacityMaskFilter" filterUnits="userSpaceOnUse" x="0.57" y="0" width="12.008" height="14.664">
			<feColorMatrix  type="matrix" values="1 0 0 0 0  0 1 0 0 0  0 0 1 0 0  0 0 0 1 0"/>
		</filter>
	</defs>
	<mask maskUnits="userSpaceOnUse" x="0.57" y="0" width="12.008" height="14.664" id="XMLID_11_">
		<g style="filter:url(#Adobe_OpacityMaskFilter);">
			<rect x="-0.246" y="-1.646" style="fill:#FFFFFF;stroke:#000000;" width="13.969" height="13.333"/>
		</g>
	</mask>
	<g style="mask:url(#XMLID_11_);">
		<polygon style="fill:#BABFC5;" points="5.348,5.755 6.42,2.707 4.075,4.93 		"/>
		
			<linearGradient id="XMLID_12_" gradientUnits="userSpaceOnUse" x1="-480.1577" y1="74.5273" x2="-480.0713" y2="68.0442" gradientTransform="matrix(0.8392 0.5438 -0.5438 0.8392 447.4504 205.3334)">
			<stop  offset="0.0056" style="stop-color:#FBF078"/>
			<stop  offset="0.0744" style="stop-color:#F7E56F"/>
			<stop  offset="0.1835" style="stop-color:#F0D05D"/>
			<stop  offset="0.3188" style="stop-color:#E6B142"/>
			<stop  offset="0.3764" style="stop-color:#E1A235"/>
		</linearGradient>
		<path style="fill:url(#XMLID_12_);stroke:#000000;stroke-width:0.5;" d="M5.061,7.175L3.316,6.044c0,0-0.667,0.692-1.042,0.824
			C1.897,6.999,0.875,6.662,0.821,5.896C0.744,4.778,6.056,0.313,7.133,0.254C8.212,0.193,8.752,0.877,8.851,1.38
			C9.108,2.679,6.67,8.982,6.212,9.214c-0.46,0.231-1.478-0.229-1.571-0.843C4.546,7.758,5.061,7.175,5.061,7.175z"/>
		
			<linearGradient id="XMLID_13_" gradientUnits="userSpaceOnUse" x1="-480.0566" y1="72.25" x2="-480.0306" y2="70.2972" gradientTransform="matrix(0.8392 0.5438 -0.5438 0.8392 447.4504 205.3334)">
			<stop  offset="0.0056" style="stop-color:#FBF078"/>
			<stop  offset="0.0744" style="stop-color:#F7E56F"/>
			<stop  offset="0.1835" style="stop-color:#F0D05D"/>
			<stop  offset="0.3188" style="stop-color:#E6B142"/>
			<stop  offset="0.3764" style="stop-color:#E1A235"/>
		</linearGradient>
		<polygon style="fill:url(#XMLID_13_);stroke:#000000;stroke-width:0.5;" points="5.615,5.604 6.532,2.995 4.526,4.896 		"/>
		
			<linearGradient id="XMLID_14_" gradientUnits="userSpaceOnUse" x1="-475.3125" y1="78.7451" x2="-475.2036" y2="70.5769" gradientTransform="matrix(0.8392 0.5438 -0.5438 0.8392 447.4504 205.3334)">
			<stop  offset="0.0056" style="stop-color:#85D5F1"/>
			<stop  offset="0.0739" style="stop-color:#81D3F1"/>
			<stop  offset="0.1457" style="stop-color:#70CFF1"/>
			<stop  offset="0.2191" style="stop-color:#50C8F0"/>
			<stop  offset="0.2937" style="stop-color:#00BEEF"/>
			<stop  offset="0.3684" style="stop-color:#00B4EF"/>
			<stop  offset="0.3764" style="stop-color:#00B3EF"/>
		</linearGradient>
		<polygon style="fill:url(#XMLID_14_);stroke:#000000;stroke-width:0.5;" points="8.296,4.896 12.232,7.448 11.04,9.287 
			6.543,11.022 9.026,12.632 7.934,14.318 3.618,11.521 4.678,9.884 9.881,7.906 7.391,6.294 		"/>
	</g>
</g>
</svg>
