<?xml version="1.0" encoding="iso-8859-1"?>
<!-- Generator: Adobe Illustrator 12.0.0, SVG Export Plug-In . SVG Version: 6.00 Build 51448)  -->
<!DOCTYPE svg PUBLIC "-//W3C//DTD SVG 1.1//EN" "http://www.w3.org/Graphics/SVG/1.1/DTD/svg11.dtd" [
	<!ENTITY ns_svg "http://www.w3.org/2000/svg">
	<!ENTITY ns_xlink "http://www.w3.org/1999/xlink">
]>
<svg  version="1.1" id="&#xCD;_xBC__xB2_&#xE3;_x5F_1" xmlns="&ns_svg;" xmlns:xlink="&ns_xlink;" width="21.088" height="20.475"
	 viewBox="0 0 21.088 20.475" style="overflow:visible;enable-background:new 0 0 21.088 20.475;" xml:space="preserve">
<g>
	<g>
		<linearGradient id="XMLID_4_" gradientUnits="userSpaceOnUse" x1="14.5356" y1="5.957" x2="6.1115" y2="14.3811">
			<stop  offset="0" style="stop-color:#FFFFFF"/>
			<stop  offset="0.1563" style="stop-color:#EEE2CD"/>
			<stop  offset="0.3239" style="stop-color:#E6D0AC"/>
			<stop  offset="0.4918" style="stop-color:#DFC293"/>
			<stop  offset="0.6577" style="stop-color:#DAB982"/>
			<stop  offset="0.8207" style="stop-color:#D7B479"/>
			<stop  offset="0.9775" style="stop-color:#D6B276"/>
		</linearGradient>
		<path style="fill:url(#XMLID_4_);stroke:#070707;stroke-width:0.5;" d="M12.144,17.388l7.925-8.232L8.173,0.333l-7.302,7.71
			c-0.685,0.598-0.831,1.622-0.3,2.386c0.186,0.266,0.432,0.459,0.704,0.589l11.378,8.806L12.144,17.388z"/>
		<polygon style="fill:#C19F79;stroke:#070707;stroke-width:0.5;" points="20.019,9.434 20.802,11.699 12.878,19.973 12.255,17.413 
					"/>
		
			<linearGradient id="XMLID_5_" gradientUnits="userSpaceOnUse" x1="75.1943" y1="75.2236" x2="75.5329" y2="77.8567" gradientTransform="matrix(0.8204 -0.5718 0.5718 0.8204 -89.2749 -5.1716)">
			<stop  offset="0" style="stop-color:#FFFFFF"/>
			<stop  offset="0.1241" style="stop-color:#F3F0ED"/>
			<stop  offset="0.3063" style="stop-color:#E0D9D0"/>
			<stop  offset="0.5241" style="stop-color:#C4B7A8"/>
			<stop  offset="0.7675" style="stop-color:#A28F78"/>
			<stop  offset="0.9775" style="stop-color:#836D52"/>
		</linearGradient>
		<polygon style="fill:url(#XMLID_5_);" points="19.956,9.481 20.728,11.709 12.931,19.852 12.317,17.333 		"/>
		
			<linearGradient id="XMLID_6_" gradientUnits="userSpaceOnUse" x1="78.9658" y1="67.6738" x2="68.3605" y2="69.2534" gradientTransform="matrix(0.8204 -0.5718 0.5718 0.8204 -89.2749 -5.1716)">
			<stop  offset="0" style="stop-color:#FFFFFF"/>
			<stop  offset="0.1241" style="stop-color:#F3F0ED"/>
			<stop  offset="0.3063" style="stop-color:#E0D9D0"/>
			<stop  offset="0.5241" style="stop-color:#C4B7A8"/>
			<stop  offset="0.7675" style="stop-color:#A28F78"/>
			<stop  offset="0.9775" style="stop-color:#836D52"/>
		</linearGradient>
		<polygon style="opacity:0.37;fill:url(#XMLID_6_);stroke:#000000;stroke-width:0.5;" points="20.038,9.354 12.253,17.257 
			0.951,8.54 8.194,0.648 		"/>
	</g>
	<g>
		<g style="opacity:0.32;">
			<path style="fill:#C4312E;" d="M10.367,6.047C9.826,6.575,9.912,7.792,10.103,8.1C9.46,7.783,8.597,7.813,8.044,8.362
				C7.38,9.017,7.061,10.102,8.04,11.09c1.278,1.316,6.001,0.59,6.001,0.59s0.49-4.206-1-5.511
				C12.963,6.124,11.554,4.885,10.367,6.047z"/>
		</g>
		<g>
			<path style="fill:#E33731;" d="M9.8,5.48C9.259,6.008,9.345,7.226,9.536,7.533C8.894,7.216,8.03,7.246,7.478,7.795
				c-0.664,0.655-0.983,1.74-0.005,2.729c1.278,1.315,6.001,0.589,6.001,0.589s0.49-4.205-1-5.511
				C12.396,5.557,10.987,4.318,9.8,5.48z"/>
		</g>
	</g>
</g>
</svg>
