<?xml version="1.0" encoding="UTF-8" standalone="no"?>
<!-- Generator: Adobe Illustrator 12.0.1, SVG Export Plug-In . SVG Version: 6.00 Build 51448)  -->
<svg
   xmlns:dc="http://purl.org/dc/elements/1.1/"
   xmlns:cc="http://web.resource.org/cc/"
   xmlns:rdf="http://www.w3.org/1999/02/22-rdf-syntax-ns#"
   xmlns:svg="http://www.w3.org/2000/svg"
   xmlns="http://www.w3.org/2000/svg"
   xmlns:sodipodi="http://sodipodi.sourceforge.net/DTD/sodipodi-0.dtd"
   xmlns:inkscape="http://www.inkscape.org/namespaces/inkscape"
   version="1.0"
   id="图层_1"
   width="13"
   height="14"
   viewBox="0 0 19.481 21.275"
   style="overflow:visible;enable-background:new 0 0 19.481 21.275;"
   xml:space="preserve"
   sodipodi:version="0.32"
   inkscape:version="0.44.1"
   sodipodi:docname="dialup-online.svg"
   sodipodi:docbase="/home/user"><metadata
   id="metadata25"><rdf:RDF><cc:Work
       rdf:about=""><dc:format>image/svg+xml</dc:format><dc:type
         rdf:resource="http://purl.org/dc/dcmitype/StillImage" /></cc:Work></rdf:RDF></metadata><defs
   id="defs23" /><sodipodi:namedview
   inkscape:window-height="1113"
   inkscape:window-width="1600"
   inkscape:pageshadow="2"
   inkscape:pageopacity="0.0"
   guidetolerance="10.0"
   gridtolerance="10.0"
   objecttolerance="10.0"
   borderopacity="1.0"
   bordercolor="#666666"
   pagecolor="#ffffff"
   id="base"
   width="13px"
   height="14px"
   inkscape:zoom="19.130435"
   inkscape:cx="9.7405005"
   inkscape:cy="10.611363"
   inkscape:window-x="0"
   inkscape:window-y="31"
   inkscape:current-layer="图层_1" />
<linearGradient
   id="XMLID_2_"
   gradientUnits="userSpaceOnUse"
   x1="4.5658998"
   y1="2.98"
   x2="17.732901"
   y2="19.2311">
	<stop
   offset="0.0112"
   style="stop-color:#BADF0F"
   id="stop4" />
	<stop
   offset="0.1743"
   style="stop-color:#B6DC0F"
   id="stop6" />
	<stop
   offset="0.3239"
   style="stop-color:#ABD210"
   id="stop8" />
	<stop
   offset="0.4683"
   style="stop-color:#99C112"
   id="stop10" />
	<stop
   offset="0.6094"
   style="stop-color:#7EA913"
   id="stop12" />
	<stop
   offset="0.7483"
   style="stop-color:#5D8B16"
   id="stop14" />
	<stop
   offset="0.8835"
   style="stop-color:#346619"
   id="stop16" />
	<stop
   offset="0.9551"
   style="stop-color:#1B501B"
   id="stop18" />
</linearGradient>
<path
   style="fill:black;fill-opacity:1;stroke:white;stroke-width:1.46645546;stroke-linejoin:round;stroke-miterlimit:4;stroke-dasharray:none;stroke-opacity:1"
   d="M 7.3105073,2.023339 C 7.3105073,2.023339 4.4277331,0.89282401 3.1180998,1.4914871 C 2.7070278,1.6831296 1.7979262,2.5543117 1.6002954,2.7239769 C 0.94328284,3.2883552 1.4676632,4.9762157 2.771148,6.494411 C 4.0746327,8.0134855 5.6644625,8.7862091 6.3214751,8.2209517 C 6.4795797,8.0855712 7.312264,7.0667012 7.7303629,6.7220964 C 7.7303629,6.7220964 11.426497,9.7769477 13.288618,13.34607 C 13.288618,13.34607 11.820881,14.304282 11.662776,14.437904 C 11.005763,15.004041 11.531022,16.69278 12.834507,18.210976 C 14.137992,19.728292 16.118691,20.117731 16.774825,19.551594 C 16.973334,19.381929 17.558322,18.772717 17.806019,18.394706 C 18.594785,17.18771 17.980812,14.447574 17.980812,14.447574 C 17.980812,14.447574 15.245602,9.4226728 7.3105073,2.023339 z "
   id="path20" />
</svg>
