<?xml version="1.0" encoding="UTF-8" standalone="no"?>
<!-- Generator: Adobe Illustrator 12.0.1, SVG Export Plug-In . SVG Version: 6.00 Build 51448)  -->
<svg
   xmlns:dc="http://purl.org/dc/elements/1.1/"
   xmlns:cc="http://web.resource.org/cc/"
   xmlns:rdf="http://www.w3.org/1999/02/22-rdf-syntax-ns#"
   xmlns:svg="http://www.w3.org/2000/svg"
   xmlns="http://www.w3.org/2000/svg"
   xmlns:sodipodi="http://sodipodi.sourceforge.net/DTD/sodipodi-0.dtd"
   xmlns:inkscape="http://www.inkscape.org/namespaces/inkscape"
   version="1.1"
   id="图层_1"
   width="9.862"
   height="9.862"
   viewBox="0 0 9.862 9.862"
   style="overflow:visible;enable-background:new 0 0 9.862 9.862;"
   xml:space="preserve"
   sodipodi:version="0.32"
   inkscape:version="0.44.1"
   sodipodi:docname="sendmessage.svg"
   sodipodi:docbase="/home/user"><metadata
   id="metadata37"><rdf:RDF><cc:Work
       rdf:about=""><dc:format>image/svg+xml</dc:format><dc:type
         rdf:resource="http://purl.org/dc/dcmitype/StillImage" /></cc:Work></rdf:RDF></metadata><defs
   id="defs35">
	
	
		<linearGradient
   gradientTransform="matrix(-0.6942,-0.2091,-0.2641,0.8785,665.8711,199.6419)"
   y2="2.8921001"
   x2="952.21118"
   y1="-2.5415001"
   x1="946.47559"
   gradientUnits="userSpaceOnUse"
   id="XMLID_2_">
		<stop
   id="stop8"
   style="stop-color:#FFFFFF"
   offset="0" />
		<stop
   id="stop10"
   style="stop-color:#FFFDEF"
   offset="0.1032" />
		<stop
   id="stop12"
   style="stop-color:#FDF9C7"
   offset="0.3036" />
		<stop
   id="stop14"
   style="stop-color:#FBF285"
   offset="0.581" />
		<stop
   id="stop16"
   style="stop-color:#F9E82C"
   offset="0.9217" />
		<stop
   id="stop18"
   style="stop-color:#F8E616"
   offset="1" />
	</linearGradient>
	
	
	
	
	
	
</defs><sodipodi:namedview
   inkscape:window-height="623"
   inkscape:window-width="928"
   inkscape:pageshadow="2"
   inkscape:pageopacity="0.0"
   guidetolerance="10.0"
   gridtolerance="10.0"
   objecttolerance="10.0"
   borderopacity="1.0"
   bordercolor="#666666"
   pagecolor="#ffffff"
   id="base"
   inkscape:zoom="41.269517"
   inkscape:cx="4.9310002"
   inkscape:cy="4.9188848"
   inkscape:window-x="0"
   inkscape:window-y="0"
   inkscape:current-layer="图层_1" />
<path
   id="path5"
   d="M 9.2430001,7.314 C 9.1970001,4.188 9.0810001,0.956 9.0810001,0.956 C 9.0810001,0.956 9.0010001,0.433 8.5500001,0.362 C 8.0970001,0.294 1.313,0.403 1.313,0.403 C 1.313,0.403 0.62299999,0.301 0.57999999,1.181 C 0.53499999,2.129 0.62699999,7.842 0.69599999,8.662 C 0.76599999,9.479 0.77699999,9.617 1.493,9.5 C 2.614,9.318 7.782,8.531 8.6930001,8.278 C 9.2060001,8.135 9.2510001,7.856 9.2430001,7.314 z "
   style="fill:#d3e5fc;stroke:#00198e;stroke-width:0.25;fill-opacity:1;stroke-opacity:0.38431373" /><path
   id="path22"
   d="M 8.8780001,7.749 C 4.579,8.679 2.08,9.043 1.244,9.028 C 1.327,9.043 1.039,9.473 1.044,9.474 C 4.378,8.894 8.6750001,8.393 9.1070001,7.962 C 9.1110001,7.969 8.9600001,7.842 8.8780001,7.749 z "
   style="fill:#90bef8;fill-opacity:1" /><path
   id="path24"
   d="M 0.76499999,0.831 C 0.76499999,0.831 0.86399999,0.954 0.99599999,1.097 C 0.84899999,4.404 1.12,8.878 1.12,8.878 C 1.12,8.878 0.99099999,9.126 0.87799999,9.331 C 0.65099999,9.723 0.60899999,1.745 0.76499999,0.831 z "
   style="fill:#90bef8;fill-opacity:1" /><path
   id="path26"
   d="M 8.794,0.543 C 8.794,0.543 8.899,0.296 8.675,0.862 C 8.453,1.426 6.362,4.365 5.875,5.181 C 5.557,5.717 5.291,5.637 4.849,5.104 C 4.406,4.572 1.615,1.412 1.033,0.93 C 0.844,0.774 0.657,0.557 0.981,0.44"
   style="fill:none;stroke:#00198e;stroke-width:0.25;stroke-opacity:0.38431373" /><path
   id="path28"
   d="M 4.02,4.189 C 4.02,4.189 1.993,7.701 0.91,9.468"
   style="fill:none;stroke:#00198e;stroke-width:0.25;stroke-opacity:0.38431373" /><path
   id="path30"
   d="M 9.205,7.968 C 9.205,7.968 7.064,4.808 6.53,4.05"
   style="fill:none;stroke:#00198e;stroke-width:0.25;stroke-opacity:0.38431373" />
<rect
   style="fill:none;"
   width="9.862"
   height="9.862"
   id="rect32" />
</svg>
