<?xml version="1.0" encoding="iso-8859-1"?>
<!-- Generator: Adobe Illustrator 12.0.1, SVG Export Plug-In . SVG Version: 6.00 Build 51448)  -->
<!DOCTYPE svg PUBLIC "-//W3C//DTD SVG 1.1//EN" "http://www.w3.org/Graphics/SVG/1.1/DTD/svg11.dtd" [
	<!ENTITY ns_svg "http://www.w3.org/2000/svg">
	<!ENTITY ns_xlink "http://www.w3.org/1999/xlink">
]>
<svg  version="1.1" id="&#x56FE;&#x5C42;_1" xmlns="&ns_svg;" xmlns:xlink="&ns_xlink;" width="24.281" height="29.244"
	 viewBox="0 0 24.281 29.244" style="overflow:visible;enable-background:new 0 0 24.281 29.244;" xml:space="preserve">
<g>
	
		<linearGradient id="XMLID_11_" gradientUnits="userSpaceOnUse" x1="4226.8242" y1="2512.7583" x2="4240.6064" y2="2517.5964" gradientTransform="matrix(0.9914 0.1311 -0.1311 0.9914 -3849.3096 -3034.9939)">
		<stop  offset="0" style="stop-color:#D0D0D0"/>
		<stop  offset="0.1718" style="stop-color:#C3C3C3"/>
		<stop  offset="0.4883" style="stop-color:#A1A1A1"/>
		<stop  offset="0.5787" style="stop-color:#969696"/>
		<stop  offset="0.9831" style="stop-color:#797979"/>
	</linearGradient>
	<path style="fill:url(#XMLID_11_);stroke:#003619;" d="M19.119,0.627l1.723-0.074c0,0,2.715,19.177,2.861,21.037
		c0.23,2.853,0.174,5.566-3.438,6.198c-4.236,0.739-7.08-3.539-5.045-6.815c1.795-2.888,5.705-0.455,5.705-0.455
		S19.08,0.924,19.119,0.627z"/>
	<linearGradient id="XMLID_12_" gradientUnits="userSpaceOnUse" x1="21.0063" y1="24.2231" x2="22.3812" y2="26.5979">
		<stop  offset="0" style="stop-color:#FFFFFF"/>
		<stop  offset="0.1479" style="stop-color:#F2F2F2"/>
		<stop  offset="0.4214" style="stop-color:#D0D0D0"/>
		<stop  offset="0.7874" style="stop-color:#999999"/>
		<stop  offset="0.9831" style="stop-color:#797979"/>
	</linearGradient>
	<path style="fill:url(#XMLID_12_);" d="M23.62,21.591c-0.045-0.576-0.337-2.813-0.718-5.626c-0.046,2.548-0.093,4.528-0.132,5.063
		c-0.204,2.854-0.672,5.528-4.337,5.606c-1.372,0.028-2.523-0.43-3.378-1.158c0.913,1.615,2.808,2.718,5.127,2.313
		C23.794,27.158,23.851,24.444,23.62,21.591z"/>
	
		<linearGradient id="XMLID_13_" gradientUnits="userSpaceOnUse" x1="4213.9102" y1="2543.7603" x2="4219.707" y2="2543.7603" gradientTransform="matrix(0.9987 0.0515 -0.0515 0.9987 -4061.8413 -2735.2305)">
		<stop  offset="0" style="stop-color:#FFFFFF"/>
		<stop  offset="0.2106" style="stop-color:#F8F8F8"/>
		<stop  offset="0.5158" style="stop-color:#E5E5E5"/>
		<stop  offset="0.8769" style="stop-color:#C5C5C5"/>
		<stop  offset="1" style="stop-color:#B9B9B9"/>
	</linearGradient>
	<path style="fill:url(#XMLID_13_);" d="M21.225,23.625c-0.465,1.021-2.066,1.299-3.578,0.615c-1.514-0.681-2.367-2.063-1.906-3.088
		c0.461-1.022,2.063-1.3,3.578-0.617C20.83,21.217,21.686,22.6,21.225,23.625z"/>
	
		<linearGradient id="XMLID_14_" gradientUnits="userSpaceOnUse" x1="4233.1396" y1="2512.104" x2="4238.4395" y2="2512.104" gradientTransform="matrix(0.9914 0.1311 -0.1311 0.9914 -3849.3096 -3034.9939)">
		<stop  offset="0" style="stop-color:#FFFFFF"/>
		<stop  offset="0.0787" style="stop-color:#F9F9F9"/>
		<stop  offset="0.5" style="stop-color:#DBDBDB"/>
		<stop  offset="1" style="stop-color:#B9B9B9"/>
	</linearGradient>
	<polygon style="fill:url(#XMLID_14_);" points="19.367,0.798 20.283,0.673 22.031,21.079 21.063,20.719 	"/>
	
		<linearGradient id="XMLID_15_" gradientUnits="userSpaceOnUse" x1="4208.623" y1="2509.6929" x2="4229.1475" y2="2524.2065" gradientTransform="matrix(0.9914 0.1311 -0.1311 0.9914 -3849.3096 -3034.9939)">
		<stop  offset="0" style="stop-color:#D0D0D0"/>
		<stop  offset="0.1507" style="stop-color:#C3C3C3"/>
		<stop  offset="0.4281" style="stop-color:#A1A1A1"/>
		<stop  offset="0.5787" style="stop-color:#8C8C8C"/>
		<stop  offset="0.9831" style="stop-color:#797979"/>
	</linearGradient>
	<path style="fill:url(#XMLID_15_);stroke:#003619;" d="M5.072,1.5L6.88,1.381c0,0,2.63,19.222,2.778,21.082
		c0.229,2.852,0.172,5.566-3.441,6.196c-4.232,0.742-7.08-3.537-5.045-6.814c1.795-2.888,5.705-0.456,5.705-0.456
		S5.033,1.798,5.072,1.5z"/>
	
		<linearGradient id="XMLID_16_" gradientUnits="userSpaceOnUse" x1="4199.8545" y1="2546.481" x2="4205.6611" y2="2546.481" gradientTransform="matrix(0.9988 0.0496 -0.0496 0.9988 -4067.0972 -2728.5828)">
		<stop  offset="0" style="stop-color:#FFFFFF"/>
		<stop  offset="0.5393" style="stop-color:#D7D7D7"/>
		<stop  offset="1" style="stop-color:#B9B9B9"/>
	</linearGradient>
	<path style="fill:url(#XMLID_16_);" d="M7.061,24.533c-0.459,1.026-2.064,1.305-3.58,0.623c-1.52-0.68-2.377-2.063-1.918-3.089
		s2.064-1.308,3.582-0.626C6.664,22.122,7.521,23.505,7.061,24.533z"/>
	
		<linearGradient id="XMLID_17_" gradientUnits="userSpaceOnUse" x1="4219.1826" y1="2514.8354" x2="4224.542" y2="2514.8354" gradientTransform="matrix(0.9914 0.1311 -0.1311 0.9914 -3849.3096 -3034.9939)">
		<stop  offset="0" style="stop-color:#FFFFFF"/>
		<stop  offset="0.0787" style="stop-color:#F9F9F9"/>
		<stop  offset="0.5" style="stop-color:#DBDBDB"/>
		<stop  offset="1" style="stop-color:#B9B9B9"/>
	</linearGradient>
	<polygon style="fill:url(#XMLID_17_);" points="5.188,1.558 6.104,1.516 7.891,22 6.953,21.61 	"/>
	<linearGradient id="XMLID_18_" gradientUnits="userSpaceOnUse" x1="7.3271" y1="3.3735" x2="18.1405" y2="3.6236">
		<stop  offset="0.0056" style="stop-color:#FFFFFF"/>
		<stop  offset="0.4038" style="stop-color:#DCDCDC"/>
		<stop  offset="0.7774" style="stop-color:#C2C2C2"/>
		<stop  offset="1" style="stop-color:#B9B9B9"/>
	</linearGradient>
	<path style="fill:url(#XMLID_18_);stroke:#003619;" d="M6.88,1.381c0,0,11.205-0.501,12.239-0.753l0.308,5.153
		c0,0-6.894,0.598-11.805,0.618L6.88,1.381z"/>
	<linearGradient id="XMLID_19_" gradientUnits="userSpaceOnUse" x1="13.5894" y1="3.2422" x2="18.781" y2="3.3622">
		<stop  offset="0" style="stop-color:#FFFFFF"/>
		<stop  offset="0.0787" style="stop-color:#F9F9F9"/>
		<stop  offset="0.5" style="stop-color:#DBDBDB"/>
		<stop  offset="1" style="stop-color:#B9B9B9"/>
	</linearGradient>
	<path style="fill:url(#XMLID_19_);" d="M19.364,5.906l-0.245-5.278c-0.61,0.054-3.117,0.244-5.713,0.313L14.244,6L19.364,5.906z"/>
	<linearGradient id="XMLID_20_" gradientUnits="userSpaceOnUse" x1="6.9648" y1="25.1831" x2="8.3397" y2="27.5579">
		<stop  offset="0" style="stop-color:#FFFFFF"/>
		<stop  offset="0.1479" style="stop-color:#F2F2F2"/>
		<stop  offset="0.4214" style="stop-color:#D0D0D0"/>
		<stop  offset="0.7874" style="stop-color:#999999"/>
		<stop  offset="0.9831" style="stop-color:#797979"/>
	</linearGradient>
	<path style="fill:url(#XMLID_20_);" d="M9.578,22.55c-0.045-0.576-0.337-2.813-0.718-5.626c-0.046,2.548-0.093,4.528-0.132,5.063
		c-0.204,2.854-0.672,5.528-4.337,5.606c-1.372,0.028-2.523-0.43-3.378-1.158c0.913,1.615,2.808,2.718,5.127,2.313
		C9.752,28.117,9.809,25.403,9.578,22.55z"/>
</g>
</svg>
