<?xml version="1.0" encoding="iso-8859-1"?>
<!-- Generator: Adobe Illustrator 12.0.1, SVG Export Plug-In . SVG Version: 6.00 Build 51448)  -->
<!DOCTYPE svg PUBLIC "-//W3C//DTD SVG 1.1//EN" "http://www.w3.org/Graphics/SVG/1.1/DTD/svg11.dtd" [
	<!ENTITY ns_svg "http://www.w3.org/2000/svg">
	<!ENTITY ns_xlink "http://www.w3.org/1999/xlink">
]>
<svg  version="1.1" id="&#xCD;_xBC__xB2_&#xE3;_x5F_1" xmlns="&ns_svg;" xmlns:xlink="&ns_xlink;" width="17.29" height="12.063"
	 viewBox="0 0 17.29 12.063" style="overflow:visible;enable-background:new 0 0 17.29 12.063;" xml:space="preserve">
<g>
	<polygon style="fill:#F3C46D;stroke:#000000;stroke-width:0.5;" points="0.25,11.813 11.188,11.813 16.938,6.313 11.188,0.25 
		0.25,0.25 	"/>
	<polygon style="fill:#FFFFFF;stroke:#000000;stroke-width:0.5;" points="2.93,8.666 5.299,6.158 2.613,3.617 3.693,2.479 
		6.379,5.02 8.75,2.514 9.971,3.67 7.6,6.176 10.285,8.719 9.207,9.857 6.521,7.316 4.15,9.82 	"/>
	<polygon style="fill:#D29849;" points="0.469,11.563 1.24,10.813 1.281,1.078 0.484,0.484 	"/>
	<polygon style="fill:#B5B338;" points="0.469,11.563 1.24,10.813 10.688,10.766 11.094,11.563 	"/>
	<polygon style="fill:#F5EDA7;" points="0.484,0.484 1.281,1.141 10.674,1.289 11.08,0.492 	"/>
	<polygon style="fill:#FBEEA1;" points="11.063,11.609 10.688,10.766 15.625,6.328 16.563,6.328 	"/>
	<polygon style="fill:#F0E2B6;" points="11.08,0.498 10.666,1.326 15.625,6.328 16.598,6.324 	"/>
	
		<rect x="7.533" y="2.513" transform="matrix(-0.7322 -0.6811 0.6811 -0.7322 10.4593 12.5911)" style="fill:#82C993;" width="0.344" height="3.452"/>
	<polygon style="fill:#82C993;" points="6.141,5.609 6.652,5.617 3.703,2.828 3.453,3.078 	"/>
</g>
</svg>
