<?xml version="1.0" encoding="iso-8859-1"?>
<!-- Generator: Adobe Illustrator 12.0.1, SVG Export Plug-In . SVG Version: 6.00 Build 51448)  -->
<!DOCTYPE svg PUBLIC "-//W3C//DTD SVG 1.1//EN" "http://www.w3.org/Graphics/SVG/1.1/DTD/svg11.dtd" [
	<!ENTITY ns_svg "http://www.w3.org/2000/svg">
	<!ENTITY ns_xlink "http://www.w3.org/1999/xlink">
]>
<svg  version="1.1" id="&#x56FE;&#x5C42;_1" xmlns="&ns_svg;" xmlns:xlink="&ns_xlink;" width="21.551" height="21.426"
	 viewBox="0 0 21.551 21.426" style="overflow:visible;enable-background:new 0 0 21.551 21.426;" xml:space="preserve">
<rect x="0.125" style="fill:none;" width="21.426" height="21.426"/>
<linearGradient id="XMLID_2_" gradientUnits="userSpaceOnUse" x1="19.9731" y1="11.584" x2="1.3968" y2="11.584">
	<stop  offset="0" style="stop-color:#FFFFFF"/>
	<stop  offset="1" style="stop-color:#BFB8C2"/>
</linearGradient>
<path style="fill:url(#XMLID_2_);stroke:#000000;stroke-width:0.25;" d="M10.754,3.54c-5.87,0-10.629,3.266-10.629,7.294
	c0,1.671,0.827,3.204,2.202,4.434l-0.79,4.361l3.625-2.599c1.624,0.693,3.538,1.101,5.592,1.101c5.87,0,10.63-3.267,10.63-7.296
	C21.384,6.805,16.625,3.54,10.754,3.54z"/>
<path style="opacity:0.16;fill:#8C8B8B;" d="M10.896,3.398c-0.202,0-0.625,0.351-0.824,0.358c5.589,0.215,10.254,3.047,10.254,6.937
	c0,3.866-5.087,6.874-10.629,7.125c0.167,0.004,1.238,0.25,1.406,0.25c5.87,0,10.422-3.347,10.422-7.375
	C21.525,6.665,16.766,3.398,10.896,3.398z"/>
<path style="opacity:0.31;fill:#8C8B8B;" d="M10.684,3.61c-5.87,0-10.629,3.267-10.629,7.295c0,1.671,0.826,3.205,2.202,4.435
	L1.468,19.7l0.698-1.068l1.281-3.219c-1.375-1.23-2.406-2.985-2.406-4.656c0-4.028,4.621-7.076,10.49-7.076
	c0.279,0,0.552,0.014,0.826,0.028C11.81,3.65,11.255,3.61,10.684,3.61z"/>
<g>
	<g style="opacity:0.47;">
		<path style="stroke:#000000;stroke-width:0.25;" d="M9.376,10.685l-1.848,0.371L7.47,10.768c-0.098-0.492-0.144-0.895-0.134-1.216
			c0.01-0.321,0.06-0.62,0.149-0.902c0.091-0.281,0.319-0.789,0.681-1.524C8.361,6.74,8.433,6.408,8.377,6.129
			c-0.058-0.278-0.152-0.484-0.29-0.616C7.953,5.38,7.777,5.335,7.563,5.378C7.335,5.425,7.17,5.581,7.066,5.85
			C6.964,6.115,6.95,6.548,7.027,7.145L5.064,7.162C4.913,6.07,4.992,5.15,5.299,4.405C5.605,3.658,6.212,3.192,7.121,3.01
			c0.708-0.143,1.326-0.028,1.851,0.346c0.714,0.502,1.178,1.272,1.385,2.308c0.087,0.43,0.094,0.859,0.021,1.287
			c-0.072,0.431-0.286,0.98-0.642,1.652C9.492,9.071,9.35,9.438,9.312,9.699C9.276,9.961,9.296,10.29,9.376,10.685z"/>
		<path style="stroke:#000000;stroke-width:0.25;" d="M10.112,13.142c0.181,0.557-0.124,1.154-0.682,1.336
			c-0.554,0.181-1.153-0.124-1.334-0.679c-0.18-0.557,0.124-1.155,0.681-1.336C9.332,12.282,9.93,12.585,10.112,13.142z"/>
	</g>
	<g>
		<g>
			<path style="fill:#E60012;stroke:#000000;stroke-width:0.25;" d="M8.377,9.685l-1.848,0.371L6.47,9.768
				C6.372,9.276,6.327,8.873,6.336,8.552c0.01-0.321,0.06-0.62,0.149-0.902c0.091-0.281,0.319-0.789,0.681-1.524
				C7.361,5.74,7.433,5.408,7.377,5.129c-0.058-0.278-0.152-0.484-0.29-0.616C6.953,4.38,6.777,4.335,6.563,4.378
				C6.335,4.425,6.17,4.581,6.066,4.85C5.964,5.115,5.95,5.548,6.027,6.145L4.064,6.162C3.913,5.07,3.992,4.15,4.299,3.405
				C4.605,2.658,5.212,2.192,6.121,2.01c0.708-0.143,1.325-0.028,1.851,0.346C8.686,2.858,9.15,3.628,9.357,4.664
				c0.087,0.43,0.094,0.859,0.021,1.287c-0.072,0.431-0.286,0.98-0.642,1.652C8.492,8.071,8.35,8.438,8.313,8.699
				C8.276,8.961,8.296,9.29,8.377,9.685z"/>
			<path style="fill:#E60012;stroke:#000000;stroke-width:0.25;" d="M9.112,12.142c0.181,0.557-0.124,1.154-0.682,1.336
				c-0.554,0.181-1.153-0.124-1.334-0.679c-0.18-0.557,0.124-1.155,0.681-1.336C8.331,11.282,8.93,11.585,9.112,12.142z"/>
		</g>
	</g>
</g>
<g>
	<g style="opacity:0.47;">
		<path style="stroke:#000000;stroke-width:0.25;" d="M12.963,12.829c0.265,0.523,0.054,1.16-0.473,1.423
			c-0.521,0.262-1.158,0.051-1.42-0.471c-0.262-0.524-0.053-1.16,0.471-1.423C12.063,12.096,12.7,12.307,12.963,12.829z"/>
		<polygon style="stroke:#000000;stroke-width:0.25;" points="12.895,11.416 11.921,11.244 12.36,2.854 14.727,3.271 		"/>
	</g>
	<g>
		<g>
			<path style="fill:#E60012;stroke:#000000;stroke-width:0.25;" d="M11.963,11.829c0.265,0.523,0.054,1.16-0.473,1.423
				c-0.521,0.262-1.158,0.051-1.42-0.471c-0.262-0.524-0.053-1.16,0.471-1.423C11.063,11.096,11.7,11.307,11.963,11.829z"/>
			<polygon style="fill:#E60012;stroke:#000000;stroke-width:0.25;" points="11.895,10.416 10.921,10.244 11.36,1.854 13.727,2.271 
							"/>
		</g>
	</g>
</g>
</svg>
