<?xml version="1.0" encoding="UTF-8" standalone="no"?>
<!-- Generator: Adobe Illustrator 12.0.0, SVG Export Plug-In . SVG Version: 6.00 Build 51448)  -->
<svg
   xmlns:dc="http://purl.org/dc/elements/1.1/"
   xmlns:cc="http://web.resource.org/cc/"
   xmlns:rdf="http://www.w3.org/1999/02/22-rdf-syntax-ns#"
   xmlns:svg="http://www.w3.org/2000/svg"
   xmlns="http://www.w3.org/2000/svg"
   xmlns:xlink="http://www.w3.org/1999/xlink"
   xmlns:sodipodi="http://sodipodi.sourceforge.net/DTD/sodipodi-0.dtd"
   xmlns:inkscape="http://www.inkscape.org/namespaces/inkscape"
   version="1.1"
   id="Í_xBC__xB2_ã_x5F_1"
   width="32.956"
   height="36.415"
   viewBox="0 0 32.956 36.415"
   style="overflow:visible;enable-background:new 0 0 32.956 36.415;"
   xml:space="preserve"
   sodipodi:version="0.32"
   inkscape:version="0.44.1"
   sodipodi:docname="off.svg"
   sodipodi:docbase="/home/user"><metadata
   id="metadata110"><rdf:RDF><cc:Work
       rdf:about=""><dc:format>image/svg+xml</dc:format><dc:type
         rdf:resource="http://purl.org/dc/dcmitype/StillImage" /></cc:Work></rdf:RDF></metadata><defs
   id="defs108"><linearGradient
     y2="26.6991"
     x2="23.513"
     y1="35.0195"
     x1="31.6055"
     gradientUnits="userSpaceOnUse"
     id="XMLID_6_">
		<stop
   id="stop19"
   style="stop-color:#CED4DB"
   offset="0.0056" />
		<stop
   id="stop21"
   style="stop-color:#C8CFD4"
   offset="0.0113" />
		<stop
   id="stop23"
   style="stop-color:#B8BFC2"
   offset="0.0179" />
		<stop
   id="stop25"
   style="stop-color:#9FA7A7"
   offset="0.0249" />
		<stop
   id="stop27"
   style="stop-color:#808A87"
   offset="0.0322" />
		<stop
   id="stop29"
   style="stop-color:#5D6B62"
   offset="0.0397" />
		<stop
   id="stop31"
   style="stop-color:#44564C"
   offset="0.0449" />
		<stop
   id="stop33"
   style="stop-color:#37473E"
   offset="0.137" />
		<stop
   id="stop35"
   style="stop-color:#28372F"
   offset="0.258" />
		<stop
   id="stop37"
   style="stop-color:#192820"
   offset="0.3847" />
		<stop
   id="stop39"
   style="stop-color:#071810"
   offset="0.5169" />
		<stop
   id="stop41"
   style="stop-color:#010B05"
   offset="0.6568" />
		<stop
   id="stop43"
   style="stop-color:#000201"
   offset="0.8097" />
		<stop
   id="stop45"
   style="stop-color:#000000"
   offset="1" />
	</linearGradient><radialGradient
     gradientUnits="userSpaceOnUse"
     gradientTransform="matrix(0.8892,0,0,0.945,15.8515,17.2959)"
     r="15.9601"
     cy="-3.9224"
     cx="-2.9009"
     id="XMLID_7_">
		<stop
   id="stop50"
   style="stop-color:#cfcdc1;stop-opacity:1;"
   offset="0.49439999" />
		<stop
   id="stop52"
   style="stop-color:#d0cdbc;stop-opacity:1;"
   offset="0.5517" />
		<stop
   id="stop54"
   style="stop-color:#cec8b9;stop-opacity:1;"
   offset="0.61989999" />
		<stop
   id="stop56"
   style="stop-color:#cbc4ad;stop-opacity:1;"
   offset="0.6936" />
		<stop
   id="stop58"
   style="stop-color:#bdb79c;stop-opacity:1;"
   offset="0.7712" />
		<stop
   id="stop60"
   style="stop-color:#aba385;stop-opacity:1;"
   offset="0.85180002" />
		<stop
   id="stop62"
   style="stop-color:#948a69;stop-opacity:1;"
   offset="0.93379998" />
		<stop
   id="stop64"
   style="stop-color:#756f57;stop-opacity:1;"
   offset="1" />
	</radialGradient><linearGradient
     y2="33.9127"
     x2="22.1895"
     y1="26.1084"
     x1="30.3066"
     gradientUnits="userSpaceOnUse"
     id="XMLID_8_">
		<stop
   id="stop69"
   style="stop-color:#44564C"
   offset="0.0449" />
		<stop
   id="stop71"
   style="stop-color:#59675E"
   offset="0.0869" />
		<stop
   id="stop73"
   style="stop-color:#77827E"
   offset="0.1535" />
		<stop
   id="stop75"
   style="stop-color:#949C9B"
   offset="0.2232" />
		<stop
   id="stop77"
   style="stop-color:#ACB3B5"
   offset="0.296" />
		<stop
   id="stop79"
   style="stop-color:#BEC5CA"
   offset="0.3729" />
		<stop
   id="stop81"
   style="stop-color:#CAD1D7"
   offset="0.4571" />
		<stop
   id="stop83"
   style="stop-color:#CED4DB"
   offset="0.5618" />
		<stop
   id="stop85"
   style="stop-color:#C8CFD4"
   offset="0.625" />
		<stop
   id="stop87"
   style="stop-color:#B8BFC2"
   offset="0.6982" />
		<stop
   id="stop89"
   style="stop-color:#9FA7A7"
   offset="0.7765" />
		<stop
   id="stop91"
   style="stop-color:#808A87"
   offset="0.8582" />
		<stop
   id="stop93"
   style="stop-color:#5D6B62"
   offset="0.9419" />
		<stop
   id="stop95"
   style="stop-color:#44564C"
   offset="1" />
	</linearGradient><linearGradient
     inkscape:collect="always"
     xlink:href="#XMLID_8_"
     id="linearGradient1926"
     gradientUnits="userSpaceOnUse"
     x1="30.3066"
     y1="26.1084"
     x2="22.1895"
     y2="33.9127" /><radialGradient
     inkscape:collect="always"
     xlink:href="#XMLID_7_"
     id="radialGradient1929"
     gradientUnits="userSpaceOnUse"
     gradientTransform="matrix(0.8892,0,0,0.945,15.8515,17.2959)"
     cx="-2.9009"
     cy="-3.9224"
     r="15.9601" /></defs><sodipodi:namedview
   inkscape:window-height="616"
   inkscape:window-width="873"
   inkscape:pageshadow="2"
   inkscape:pageopacity="0.0"
   guidetolerance="10.0"
   gridtolerance="10.0"
   objecttolerance="10.0"
   borderopacity="1.0"
   bordercolor="#666666"
   pagecolor="#ffffff"
   id="base"
   inkscape:zoom="11.176713"
   inkscape:cx="16.478004"
   inkscape:cy="18.02856"
   inkscape:window-x="454"
   inkscape:window-y="329"
   inkscape:current-layer="Í_xBC__xB2_ã_x5F_1" />
<polygon
   id="polygon47"
   points="32.049,36.036 27.375,34.854 31.52,30.747 32.049,36.036 "
   style="fill:url(#XMLID_6_);stroke:#363639;stroke-width:0.25" /><path
   id="path66"
   d="M 27.066,20.747 L 25.793,19.244 C 25.008,18.316 24.018,17.706 22.959,17.403 C 23.49,15.982 23.791,14.438 23.791,12.817 C 23.791,5.946 18.549,0.375 12.082,0.375 C 5.617,0.375 0.375,5.946 0.375,12.817 C 0.375,19.689 5.617,25.26 12.082,25.26 C 13.277,25.26 14.428,25.068 15.514,24.715 C 15.705,25.807 16.162,26.859 16.912,27.742 L 18.185,29.245 C 20.369,31.823 24.124,32.005 26.576,29.659 C 29.029,27.313 29.25,23.323 27.066,20.747 z "
   style="fill:url(#radialGradient1929);stroke:#262d2e;stroke-width:0.75" /><path
   id="path97"
   d="M 32.701,28.604 C 32.533,30.694 26.49,36.729 24.566,36.124 C 22.642,35.517 19.31,30.392 19.31,30.392 L 28.076,22.185 C 28.076,22.184 32.867,26.515 32.701,28.604 z "
   style="fill:url(#linearGradient1926);stroke:#363639;stroke-width:0.5" /><path
   id="path99"
   d="M 30.867,24.847 C 30.724,26.134 21.974,33.174 21.086,32.997 C 20.195,32.819 20.309,32.111 21.643,31.696 C 22.975,31.284 28.145,27.031 29.202,25.497 C 30.246,23.977 30.979,23.844 30.867,24.847 z "
   style="opacity:0.66000001;fill:#edf1f4" /><path
   id="path101"
   d="M 32.83,28.489 C 33.053,30.023 26.402,36.954 24.68,36.128 C 23.346,35.891 23.403,35.3 23.403,35.3 C 27.682,34.71 32.333,27.544 32.333,27.544 C 32.333,27.544 32.607,26.952 32.83,28.489 z "
   style="opacity:0.66000001;fill:#edf1f4" /><path
   id="path103"
   d="M 23.559,25.873 L 15.149,13.355 C 15.163,13.345 15.178,13.337 15.192,13.327 C 16.012,12.639 16.147,11.375 15.499,10.506 C 14.853,9.637 13.663,9.491 12.845,10.179 C 12.029,10.868 11.89,12.131 12.538,13.002 C 12.739,13.272 12.995,13.461 13.272,13.588 L 12.782,14.001 C 12.719,13.731 12.604,13.473 12.432,13.24 C 11.784,12.372 10.596,12.224 9.778,12.913 C 8.96,13.603 8.823,14.866 9.473,15.736 C 10.119,16.604 11.309,16.751 12.125,16.061 C 12.207,15.994 12.273,15.915 12.342,15.839 L 22.147,27.214 L 23.559,25.873 z "
   style="opacity:0.13999999;fill:white;stroke:black;stroke-width:0.25" /><path
   id="path105"
   d="M 10.674,23.372 C 9.764,23.232 6.02,22.14 5.192,21.875 C 6.258,23.566 7.712,24.08 10.215,24.636 C 14.141,25.505 16.975,24.774 18.826,21.403 C 19.09,20.924 19.855,19.805 19.715,19.276 C 17.738,21.726 15.373,24.098 10.674,23.372 z "
   style="opacity:0.41999996;fill:#d2cdbd" />
</svg>
