<?xml version="1.0" encoding="iso-8859-1"?>
<!-- Generator: Adobe Illustrator 12.0.1, SVG Export Plug-In . SVG Version: 6.00 Build 51448)  -->
<!DOCTYPE svg PUBLIC "-//W3C//DTD SVG 1.1//EN" "http://www.w3.org/Graphics/SVG/1.1/DTD/svg11.dtd" [
	<!ENTITY ns_svg "http://www.w3.org/2000/svg">
	<!ENTITY ns_xlink "http://www.w3.org/1999/xlink">
]>
<svg  version="1.1" id="&#x56FE;&#x5C42;_1" xmlns="&ns_svg;" xmlns:xlink="&ns_xlink;" width="21.333" height="20.104"
	 viewBox="0 0 21.333 20.104" style="overflow:visible;enable-background:new 0 0 21.333 20.104;" xml:space="preserve">
<g>
	<linearGradient id="XMLID_3_" gradientUnits="userSpaceOnUse" x1="1.6836" y1="5.2314" x2="20.3517" y2="5.2314">
		<stop  offset="0" style="stop-color:#868686"/>
		<stop  offset="0.4213" style="stop-color:#BABABA"/>
		<stop  offset="0.6339" style="stop-color:#DBDBDB"/>
		<stop  offset="0.8462" style="stop-color:#F5F5F5"/>
		<stop  offset="0.9719" style="stop-color:#FFFFFF"/>
	</linearGradient>
	<polygon style="fill:url(#XMLID_3_);stroke:#4F4F4F;stroke-linejoin:round;" points="20.833,7.511 10.667,7.511 10.667,0.5 
		0.5,9.963 20.833,9.963 	"/>
	<linearGradient id="XMLID_4_" gradientUnits="userSpaceOnUse" x1="1.6836" y1="14.873" x2="20.3517" y2="14.873">
		<stop  offset="0" style="stop-color:#868686"/>
		<stop  offset="0.4213" style="stop-color:#BABABA"/>
		<stop  offset="0.6339" style="stop-color:#DBDBDB"/>
		<stop  offset="0.8462" style="stop-color:#F5F5F5"/>
		<stop  offset="0.9719" style="stop-color:#FFFFFF"/>
	</linearGradient>
	<polygon style="fill:url(#XMLID_4_);stroke:#4F4F4F;stroke-linejoin:round;" points="0.5,12.594 10.667,12.594 10.667,19.604 
		20.833,10.141 0.5,10.141 	"/>
</g>
<g>
	<path style="fill:#FFFFFF;stroke:#5E5E5E;stroke-width:0.5;" d="M12.755,13.252h-4.24v-0.424c0-0.724,0.082-1.312,0.245-1.764
		c0.164-0.451,0.405-0.863,0.729-1.235c0.325-0.374,1.051-1.029,2.18-1.97c0.602-0.491,0.901-0.944,0.901-1.354
		c0-0.409-0.119-0.728-0.362-0.957c-0.239-0.228-0.604-0.342-1.094-0.342c-0.527,0-0.964,0.175-1.308,0.526
		C9.46,6.08,9.241,6.691,9.144,7.562L4.809,7.024c0.148-1.591,0.728-2.875,1.735-3.846c1.01-0.971,2.555-1.458,4.641-1.458
		c1.62,0,2.931,0.34,3.93,1.018c1.354,0.917,2.029,2.141,2.029,3.667c0,0.635-0.175,1.246-0.523,1.835
		c-0.35,0.59-1.064,1.31-2.143,2.158c-0.753,0.597-1.226,1.076-1.423,1.437C12.857,12.197,12.755,12.671,12.755,13.252z
		 M8.368,14.385h4.544v4.007H8.368V14.385z"/>
</g>
</svg>
