<?xml version="1.0" encoding="iso-8859-1"?>
<!-- Generator: Adobe Illustrator 12.0.1, SVG Export Plug-In . SVG Version: 6.00 Build 51448)  -->
<!DOCTYPE svg PUBLIC "-//W3C//DTD SVG 1.1//EN" "http://www.w3.org/Graphics/SVG/1.1/DTD/svg11.dtd" [
	<!ENTITY ns_svg "http://www.w3.org/2000/svg">
	<!ENTITY ns_xlink "http://www.w3.org/1999/xlink">
]>
<svg  version="1.1" id="&#x56FE;&#x5C42;_1" xmlns="&ns_svg;" xmlns:xlink="&ns_xlink;" width="15.858" height="14.145"
	 viewBox="0 0 15.858 14.145" style="overflow:visible;enable-background:new 0 0 15.858 14.145;" xml:space="preserve">
<g>
	<linearGradient id="XMLID_7_" gradientUnits="userSpaceOnUse" x1="8.001" y1="1.3047" x2="8.001" y2="6.1168">
		<stop  offset="0" style="stop-color:#67C6DD"/>
		<stop  offset="0.4663" style="stop-color:#82E6FF"/>
		<stop  offset="1" style="stop-color:#67C6DD"/>
	</linearGradient>
	<path style="fill:url(#XMLID_7_);stroke:#000000;stroke-width:0.5;" d="M15.084,6.752c-1.28,1.092-3.237-1.592-7.378-1.592
		c-4.14,0-5.317,2.961-6.823,1.592C-1.016,4.498,2.912,1.044,7.594,0.9C13.101,0.73,17.085,4.65,15.084,6.752z"/>
	<linearGradient id="XMLID_8_" gradientUnits="userSpaceOnUse" x1="2.7236" y1="8.2017" x2="13.7607" y2="8.2017">
		<stop  offset="0" style="stop-color:#67C6DD"/>
		<stop  offset="0.4663" style="stop-color:#82E6FF"/>
		<stop  offset="1" style="stop-color:#67C6DD"/>
	</linearGradient>
	<path style="fill:url(#XMLID_8_);stroke:#000000;stroke-width:0.5;" d="M12.802,11.037c-1.479,0.544-1.709-1.943-4.814-2.035
		c-2.811-0.111-3.062,2.638-4.512,1.666C1.164,8.539,4.602,5.156,8.104,5.292C11.608,5.431,15.641,9.188,12.802,11.037z"/>
	<linearGradient id="XMLID_9_" gradientUnits="userSpaceOnUse" x1="5.9893" y1="11.5127" x2="10.0811" y2="11.5127">
		<stop  offset="0" style="stop-color:#67C6DD"/>
		<stop  offset="0.4663" style="stop-color:#82E6FF"/>
		<stop  offset="1" style="stop-color:#67C6DD"/>
	</linearGradient>
	<path style="fill:url(#XMLID_9_);stroke:#000000;stroke-width:0.5;" d="M10.081,11.945c0,1.076-0.915,1.949-2.046,1.949l0,0
		c-1.128,0-2.046-0.873-2.046-1.949V11.08c0-1.078,0.918-1.949,2.046-1.949l0,0c1.131,0,2.046,0.871,2.046,1.949V11.945z"/>
</g>
<g>
	<linearGradient id="XMLID_10_" gradientUnits="userSpaceOnUse" x1="7.8564" y1="1.2632" x2="7.8564" y2="6.0757">
		<stop  offset="0" style="stop-color:#ACACAC"/>
		<stop  offset="0.4663" style="stop-color:#FFFFFF"/>
		<stop  offset="0.9831" style="stop-color:#EBEBEB"/>
	</linearGradient>
	<path style="fill:url(#XMLID_10_);stroke:#000000;stroke-width:0.5;" d="M14.939,6.711c-1.28,1.092-3.237-1.592-7.378-1.592
		c-4.14,0-5.317,2.961-6.823,1.592C-1.16,4.457,2.768,1.003,7.449,0.859C12.956,0.688,16.94,4.608,14.939,6.711z"/>
	<linearGradient id="XMLID_11_" gradientUnits="userSpaceOnUse" x1="2.5791" y1="8.1606" x2="13.6162" y2="8.1606">
		<stop  offset="0" style="stop-color:#ACACAC"/>
		<stop  offset="0.4663" style="stop-color:#FFFFFF"/>
		<stop  offset="0.9831" style="stop-color:#EBEBEB"/>
	</linearGradient>
	<path style="fill:url(#XMLID_11_);stroke:#000000;stroke-width:0.5;" d="M12.657,10.996c-1.479,0.543-1.709-1.943-4.814-2.035
		c-2.811-0.111-3.062,2.637-4.512,1.666C1.02,8.498,4.457,5.115,7.96,5.251C11.464,5.389,15.496,9.146,12.657,10.996z"/>
	<linearGradient id="XMLID_12_" gradientUnits="userSpaceOnUse" x1="5.8447" y1="11.4717" x2="9.9365" y2="11.4717">
		<stop  offset="0" style="stop-color:#ACACAC"/>
		<stop  offset="0.4663" style="stop-color:#FFFFFF"/>
		<stop  offset="0.9831" style="stop-color:#EBEBEB"/>
	</linearGradient>
	<path style="fill:url(#XMLID_12_);stroke:#000000;stroke-width:0.5;" d="M9.937,11.904c0,1.076-0.915,1.949-2.046,1.949l0,0
		c-1.128,0-2.046-0.873-2.046-1.949v-0.865c0-1.078,0.918-1.949,2.046-1.949l0,0c1.131,0,2.046,0.871,2.046,1.949V11.904z"/>
</g>
<g>
	<path style="fill:#FFFFFF;stroke:#000000;stroke-width:0.5;" d="M9.659,9.641H6.204V9.295c0-0.59,0.065-1.068,0.198-1.437
		c0.134-0.367,0.333-0.702,0.595-1.005c0.264-0.306,0.855-0.839,1.774-1.605c0.491-0.399,0.735-0.769,0.735-1.102
		c0-0.334-0.099-0.594-0.294-0.78C9.018,3.182,8.72,3.089,8.319,3.089c-0.428,0-0.782,0.143-1.064,0.428
		C6.975,3.8,6.794,4.298,6.717,5.006l-3.53-0.437C3.308,3.272,3.779,2.228,4.6,1.438C5.42,0.646,6.681,0.25,8.377,0.25
		c1.321,0,2.388,0.276,3.2,0.828c1.104,0.748,1.654,1.744,1.654,2.987c0,0.518-0.143,1.015-0.426,1.494
		c-0.285,0.48-0.867,1.066-1.747,1.758C10.446,7.804,10.061,8.193,9.9,8.488C9.739,8.782,9.659,9.167,9.659,9.641z M6.086,10.563
		h3.7v3.264h-3.7V10.563z"/>
</g>
</svg>
