<?xml version="1.0" encoding="iso-8859-1"?>
<!-- Generator: Adobe Illustrator 12.0.1, SVG Export Plug-In . SVG Version: 6.00 Build 51448)  -->
<!DOCTYPE svg PUBLIC "-//W3C//DTD SVG 1.1//EN" "http://www.w3.org/Graphics/SVG/1.1/DTD/svg11.dtd" [
	<!ENTITY ns_svg "http://www.w3.org/2000/svg">
	<!ENTITY ns_xlink "http://www.w3.org/1999/xlink">
]>
<svg  version="1.1" id="&#x56FE;&#x5C42;_1" xmlns="&ns_svg;" xmlns:xlink="&ns_xlink;" width="15.858" height="13.541"
	 viewBox="0 0 15.858 13.541" style="overflow:visible;enable-background:new 0 0 15.858 13.541;" xml:space="preserve">
<g>
	<linearGradient id="XMLID_7_" gradientUnits="userSpaceOnUse" x1="8.001" y1="0.7012" x2="8.001" y2="5.5137">
		<stop  offset="0" style="stop-color:#67C6DD"/>
		<stop  offset="0.4663" style="stop-color:#82E6FF"/>
		<stop  offset="1" style="stop-color:#67C6DD"/>
	</linearGradient>
	<path style="fill:url(#XMLID_7_);stroke:#000000;stroke-width:0.5;" d="M15.084,6.148c-1.28,1.092-3.237-1.592-7.378-1.592
		c-4.14,0-5.317,2.961-6.823,1.592c-1.898-2.254,2.029-5.708,6.711-5.852C13.101,0.126,17.085,4.046,15.084,6.148z"/>
	<linearGradient id="XMLID_8_" gradientUnits="userSpaceOnUse" x1="2.7236" y1="7.5986" x2="13.7607" y2="7.5986">
		<stop  offset="0" style="stop-color:#67C6DD"/>
		<stop  offset="0.4663" style="stop-color:#82E6FF"/>
		<stop  offset="1" style="stop-color:#67C6DD"/>
	</linearGradient>
	<path style="fill:url(#XMLID_8_);stroke:#000000;stroke-width:0.5;" d="M12.802,10.434c-1.479,0.544-1.709-1.943-4.814-2.035
		c-2.811-0.111-3.062,2.638-4.512,1.666C1.164,7.936,4.602,4.552,8.104,4.689C11.608,4.827,15.641,8.584,12.802,10.434z"/>
	<linearGradient id="XMLID_9_" gradientUnits="userSpaceOnUse" x1="5.9893" y1="10.9092" x2="10.0811" y2="10.9092">
		<stop  offset="0" style="stop-color:#67C6DD"/>
		<stop  offset="0.4663" style="stop-color:#82E6FF"/>
		<stop  offset="1" style="stop-color:#67C6DD"/>
	</linearGradient>
	<path style="fill:url(#XMLID_9_);stroke:#000000;stroke-width:0.5;" d="M10.081,11.342c0,1.076-0.915,1.949-2.046,1.949l0,0
		c-1.128,0-2.046-0.873-2.046-1.949v-0.865c0-1.078,0.918-1.949,2.046-1.949l0,0c1.131,0,2.046,0.871,2.046,1.949V11.342z"/>
</g>
<g>
	<linearGradient id="XMLID_10_" gradientUnits="userSpaceOnUse" x1="7.8564" y1="0.6597" x2="7.8564" y2="5.4725">
		<stop  offset="0" style="stop-color:#ACACAC"/>
		<stop  offset="0.4663" style="stop-color:#FFFFFF"/>
		<stop  offset="0.9831" style="stop-color:#EBEBEB"/>
	</linearGradient>
	<path style="fill:url(#XMLID_10_);stroke:#000000;stroke-width:0.5;" d="M14.939,6.107c-1.28,1.092-3.237-1.592-7.378-1.592
		c-4.14,0-5.317,2.961-6.823,1.592C-1.16,3.853,2.768,0.399,7.449,0.255C12.956,0.085,16.94,4.005,14.939,6.107z"/>
	<linearGradient id="XMLID_11_" gradientUnits="userSpaceOnUse" x1="8.0977" y1="5.1387" x2="8.0977" y2="10.9092">
		<stop  offset="0" style="stop-color:#ACACAC"/>
		<stop  offset="0.4663" style="stop-color:#FFFFFF"/>
		<stop  offset="0.9831" style="stop-color:#EBEBEB"/>
	</linearGradient>
	<path style="fill:url(#XMLID_11_);stroke:#000000;stroke-width:0.5;" d="M12.657,10.393c-1.479,0.543-1.709-1.943-4.814-2.035
		c-2.811-0.111-3.062,2.637-4.512,1.666C1.02,7.895,4.457,4.511,7.96,4.648C11.464,4.786,15.496,8.543,12.657,10.393z"/>
	<linearGradient id="XMLID_12_" gradientUnits="userSpaceOnUse" x1="7.8906" y1="12.6387" x2="7.8906" y2="9.0137">
		<stop  offset="0" style="stop-color:#ACACAC"/>
		<stop  offset="0.4663" style="stop-color:#FFFFFF"/>
		<stop  offset="0.9831" style="stop-color:#EBEBEB"/>
	</linearGradient>
	<path style="fill:url(#XMLID_12_);stroke:#000000;stroke-width:0.5;" d="M9.937,11.301c0,1.076-0.915,1.949-2.046,1.949l0,0
		c-1.128,0-2.046-0.873-2.046-1.949v-0.865c0-1.078,0.918-1.949,2.046-1.949l0,0c1.131,0,2.046,0.871,2.046,1.949V11.301z"/>
</g>
</svg>
