<?xml version="1.0" encoding="iso-8859-1"?>
<!-- Generator: Adobe Illustrator 12.0.1, SVG Export Plug-In . SVG Version: 6.00 Build 51448)  -->
<!DOCTYPE svg PUBLIC "-//W3C//DTD SVG 1.1//EN" "http://www.w3.org/Graphics/SVG/1.1/DTD/svg11.dtd" [
	<!ENTITY ns_svg "http://www.w3.org/2000/svg">
	<!ENTITY ns_xlink "http://www.w3.org/1999/xlink">
]>
<svg  version="1.1" id="&#x56FE;&#x5C42;_1" xmlns="&ns_svg;" xmlns:xlink="&ns_xlink;" width="15.714" height="13.5"
	 viewBox="0 0 15.714 13.5" style="overflow:visible;enable-background:new 0 0 15.714 13.5;" xml:space="preserve">
<g>
	<linearGradient id="XMLID_4_" gradientUnits="userSpaceOnUse" x1="7.8564" y1="0.6597" x2="7.8564" y2="5.4722">
		<stop  offset="0" style="stop-color:#67C6DD"/>
		<stop  offset="0.4663" style="stop-color:#82E6FF"/>
		<stop  offset="1" style="stop-color:#67C6DD"/>
	</linearGradient>
	<path style="fill:url(#XMLID_4_);stroke:#000000;stroke-width:0.5;" d="M14.939,6.107c-1.28,1.092-3.237-1.592-7.378-1.592
		c-4.14,0-5.317,2.961-6.823,1.592C-1.16,3.853,2.768,0.399,7.449,0.255C12.956,0.085,16.94,4.005,14.939,6.107z"/>
	<linearGradient id="XMLID_5_" gradientUnits="userSpaceOnUse" x1="2.5791" y1="7.5571" x2="13.6162" y2="7.5571">
		<stop  offset="0" style="stop-color:#6791DD"/>
		<stop  offset="1" style="stop-color:#67C6DD"/>
	</linearGradient>
	<path style="fill:url(#XMLID_5_);stroke:#000000;stroke-width:0.5;" d="M12.657,10.392c-1.479,0.544-1.709-1.943-4.814-2.035
		c-2.811-0.111-3.062,2.638-4.512,1.666C1.02,7.894,4.457,4.511,7.96,4.648C11.464,4.786,15.496,8.542,12.657,10.392z"/>
	<linearGradient id="XMLID_6_" gradientUnits="userSpaceOnUse" x1="5.8447" y1="10.8677" x2="9.9365" y2="10.8677">
		<stop  offset="0" style="stop-color:#6791DD"/>
		<stop  offset="1" style="stop-color:#67C6DD"/>
	</linearGradient>
	<path style="fill:url(#XMLID_6_);stroke:#000000;stroke-width:0.5;" d="M9.937,11.3c0,1.076-0.915,1.949-2.046,1.949l0,0
		c-1.128,0-2.046-0.873-2.046-1.949v-0.865c0-1.078,0.918-1.949,2.046-1.949l0,0c1.131,0,2.046,0.871,2.046,1.949V11.3z"/>
</g>
</svg>
