<?xml version="1.0" encoding="iso-8859-1"?>
<!-- Generator: Adobe Illustrator 12.0.1, SVG Export Plug-In . SVG Version: 6.00 Build 51448)  -->
<!DOCTYPE svg PUBLIC "-//W3C//DTD SVG 1.1//EN" "http://www.w3.org/Graphics/SVG/1.1/DTD/svg11.dtd" [
	<!ENTITY ns_svg "http://www.w3.org/2000/svg">
	<!ENTITY ns_xlink "http://www.w3.org/1999/xlink">
]>
<svg  version="1.1" id="&#x56FE;&#x5C42;_1" xmlns="&ns_svg;" xmlns:xlink="&ns_xlink;" width="15.858" height="13.826"
	 viewBox="0 0 15.858 13.826" style="overflow:visible;enable-background:new 0 0 15.858 13.826;" xml:space="preserve">
<g>
	<linearGradient id="XMLID_8_" gradientUnits="userSpaceOnUse" x1="8.001" y1="0.9854" x2="8.001" y2="5.7978">
		<stop  offset="0" style="stop-color:#67C6DD"/>
		<stop  offset="0.4663" style="stop-color:#82E6FF"/>
		<stop  offset="1" style="stop-color:#67C6DD"/>
	</linearGradient>
	<path style="fill:url(#XMLID_8_);stroke:#000000;stroke-width:0.5;" d="M15.084,6.433c-1.28,1.091-3.237-1.593-7.378-1.593
		c-4.14,0-5.317,2.962-6.823,1.593c-1.898-2.254,2.029-5.708,6.711-5.852C13.101,0.411,17.085,4.331,15.084,6.433z"/>
	<linearGradient id="XMLID_9_" gradientUnits="userSpaceOnUse" x1="2.7236" y1="7.8818" x2="13.7607" y2="7.8818">
		<stop  offset="0" style="stop-color:#67C6DD"/>
		<stop  offset="0.4663" style="stop-color:#82E6FF"/>
		<stop  offset="1" style="stop-color:#67C6DD"/>
	</linearGradient>
	<path style="fill:url(#XMLID_9_);stroke:#000000;stroke-width:0.5;" d="M12.802,10.717c-1.479,0.544-1.709-1.942-4.814-2.035
		c-2.811-0.111-3.062,2.638-4.512,1.667c-2.312-2.13,1.126-5.513,4.629-5.376C11.608,5.111,15.641,8.868,12.802,10.717z"/>
	<linearGradient id="XMLID_10_" gradientUnits="userSpaceOnUse" x1="5.9893" y1="11.1934" x2="10.0811" y2="11.1934">
		<stop  offset="0" style="stop-color:#67C6DD"/>
		<stop  offset="0.4663" style="stop-color:#82E6FF"/>
		<stop  offset="1" style="stop-color:#67C6DD"/>
	</linearGradient>
	<path style="fill:url(#XMLID_10_);stroke:#000000;stroke-width:0.5;" d="M10.081,11.626c0,1.076-0.915,1.95-2.046,1.95l0,0
		c-1.128,0-2.046-0.874-2.046-1.95V10.76c0-1.077,0.918-1.949,2.046-1.949l0,0c1.131,0,2.046,0.872,2.046,1.949V11.626z"/>
</g>
<defs>
	<filter id="Adobe_OpacityMaskFilter" filterUnits="userSpaceOnUse" x="0" y="0.284" width="15.714" height="13.5">
		
			<feColorMatrix  type="matrix" values="-1 0 0 0 1  0 -1 0 0 1  0 0 -1 0 1  0 0 0 1 0" color-interpolation-filters="sRGB" result="source"/>
		<feFlood  style="flood-color:white;flood-opacity:1" result="back"/>
		<feBlend  in="source" in2="back" mode="normal"/>
	</filter>
</defs>
<mask maskUnits="userSpaceOnUse" x="0" y="0.284" width="15.714" height="13.5" id="XMLID_11_">
	<g style="filter:url(#Adobe_OpacityMaskFilter);">
		
			<rect x="-2.101" y="-5.763" transform="matrix(-0.7818 -0.6236 0.6236 -0.7818 5.9165 6.2717)" style="fill:#FFFFFF;" width="12.313" height="15.727"/>
	</g>
</mask>
<g style="mask:url(#XMLID_11_);">
	<linearGradient id="XMLID_12_" gradientUnits="userSpaceOnUse" x1="7.8564" y1="0.9438" x2="7.8564" y2="5.756">
		<stop  offset="0" style="stop-color:#ACACAC"/>
		<stop  offset="0.4663" style="stop-color:#FFFFFF"/>
		<stop  offset="0.9831" style="stop-color:#EBEBEB"/>
	</linearGradient>
	<path style="fill:url(#XMLID_12_);stroke:#000000;stroke-width:0.5;" d="M14.939,6.391c-1.28,1.092-3.237-1.592-7.378-1.592
		c-4.14,0-5.317,2.961-6.823,1.592C-1.16,4.137,2.768,0.684,7.449,0.54C12.956,0.369,16.94,4.289,14.939,6.391z"/>
	<linearGradient id="XMLID_13_" gradientUnits="userSpaceOnUse" x1="2.5791" y1="7.8408" x2="13.6162" y2="7.8408">
		<stop  offset="0" style="stop-color:#ACACAC"/>
		<stop  offset="0.4663" style="stop-color:#FFFFFF"/>
		<stop  offset="0.9831" style="stop-color:#EBEBEB"/>
	</linearGradient>
	<path style="fill:url(#XMLID_13_);stroke:#000000;stroke-width:0.5;" d="M12.657,10.676c-1.479,0.544-1.709-1.943-4.814-2.035
		c-2.811-0.111-3.062,2.638-4.512,1.666C1.02,8.178,4.457,4.795,7.96,4.932C11.464,5.07,15.496,8.827,12.657,10.676z"/>
	<linearGradient id="XMLID_14_" gradientUnits="userSpaceOnUse" x1="5.8447" y1="11.1519" x2="9.9365" y2="11.1519">
		<stop  offset="0" style="stop-color:#ACACAC"/>
		<stop  offset="0.4663" style="stop-color:#FFFFFF"/>
		<stop  offset="0.9831" style="stop-color:#EBEBEB"/>
	</linearGradient>
	<path style="fill:url(#XMLID_14_);stroke:#000000;stroke-width:0.5;" d="M9.937,11.584c0,1.076-0.915,1.949-2.046,1.949l0,0
		c-1.128,0-2.046-0.873-2.046-1.949v-0.865c0-1.078,0.918-1.949,2.046-1.949l0,0c1.131,0,2.046,0.871,2.046,1.949V11.584z"/>
</g>
<rect x="-0.151" y="6.206" transform="matrix(0.6204 -0.7843 0.7843 0.6204 -2.1338 8.7118)" style="fill:#F0980F;" width="16.165" height="0.709"/>
</svg>
