<?xml version="1.0" encoding="iso-8859-1"?>
<!-- Generator: Adobe Illustrator 12.0.1, SVG Export Plug-In . SVG Version: 6.00 Build 51448)  -->
<!DOCTYPE svg PUBLIC "-//W3C//DTD SVG 1.1//EN" "http://www.w3.org/Graphics/SVG/1.1/DTD/svg11.dtd" [
	<!ENTITY ns_svg "http://www.w3.org/2000/svg">
	<!ENTITY ns_xlink "http://www.w3.org/1999/xlink">
]>
<svg  version="1.1" id="Layer_1" xmlns="&ns_svg;" xmlns:xlink="&ns_xlink;" width="29.125" height="31" viewBox="0 0 29.125 31"
	 style="overflow:visible;enable-background:new 0 0 29.125 31;" xml:space="preserve">
<rect style="fill:none;" width="29.125" height="31"/>
<g>
	<linearGradient id="XMLID_3_" gradientUnits="userSpaceOnUse" x1="20.7373" y1="31.2305" x2="4.7324" y2="3.5092">
		<stop  offset="0" style="stop-color:#F2F2F2"/>
		<stop  offset="1" style="stop-color:#939393"/>
	</linearGradient>
	<polygon style="fill:url(#XMLID_3_);stroke:#000000;stroke-width:0.75;" points="17.748,2.916 5.761,2.916 5.761,30.146 
		22.614,30.146 22.614,9.625 	"/>
	
		<linearGradient id="XMLID_4_" gradientUnits="userSpaceOnUse" x1="18.3535" y1="-35.2021" x2="31.8535" y2="-35.2021" gradientTransform="matrix(0.8949 0 0 -0.895 -8.2684 -10.681)">
		<stop  offset="0.0169" style="stop-color:#E3B92C"/>
		<stop  offset="1" style="stop-color:#FFF9B1"/>
	</linearGradient>
	<polygon style="fill:url(#XMLID_4_);stroke:#000000;stroke-width:0.5;" points="20.183,14.56 20.237,27.426 18.894,28.152 
		8.94,28.152 8.156,27.204 8.156,14.449 9.162,13.498 19.177,13.498 	"/>
	<path style="opacity:0.67;fill:none;stroke:#000000;stroke-width:0.5;enable-background:new    ;" d="M10.083,27.723h3.285v-5.222
		h-3.285V27.723z M13.401,27.723h3.158v-5.222h-3.158V27.723z M16.692,22.501v5.222h2.874v-5.222H16.692z"/>
	<path style="opacity:0.67;fill:none;stroke:#000000;stroke-width:0.5;enable-background:new    ;" d="M10.036,19.443h3.096v-5.294
		h-3.096V19.443z M13.164,19.443h3.224v-5.294h-3.224V19.443z M16.468,14.149v5.294h3.1v-5.294H16.468z"/>
</g>
</svg>
