<?xml version="1.0" encoding="iso-8859-1"?>
<!-- Generator: Adobe Illustrator 12.0.0, SVG Export Plug-In . SVG Version: 6.00 Build 51448)  -->
<!DOCTYPE svg PUBLIC "-//W3C//DTD SVG 1.1//EN" "http://www.w3.org/Graphics/SVG/1.1/DTD/svg11.dtd" [
	<!ENTITY ns_svg "http://www.w3.org/2000/svg">
	<!ENTITY ns_xlink "http://www.w3.org/1999/xlink">
]>
<svg  version="1.1" id="&#xCD;_xBC__xB2_&#xE3;_x5F_1" xmlns="&ns_svg;" xmlns:xlink="&ns_xlink;" width="34.692" height="33.475"
	 viewBox="0 0 34.692 33.475" style="overflow:visible;enable-background:new 0 0 34.692 33.475;" xml:space="preserve">
<g>
	<linearGradient id="XMLID_4_" gradientUnits="userSpaceOnUse" x1="23.9922" y1="9.6797" x2="9.9916" y2="23.6803">
		<stop  offset="0" style="stop-color:#FFFFFF"/>
		<stop  offset="0.1636" style="stop-color:#D0C6BA"/>
		<stop  offset="0.3297" style="stop-color:#B2A390"/>
		<stop  offset="0.4961" style="stop-color:#9E8A72"/>
		<stop  offset="0.6605" style="stop-color:#8E795F"/>
		<stop  offset="0.8221" style="stop-color:#857055"/>
		<stop  offset="0.9775" style="stop-color:#836D52"/>
	</linearGradient>
	<path style="fill:url(#XMLID_4_);stroke:#070707;stroke-width:0.5;" d="M20.016,28.678l13.172-13.683L13.418,0.333L1.282,13.147
		c-1.138,0.993-1.382,2.696-0.498,3.964c0.308,0.442,0.718,0.762,1.171,0.979l18.908,14.637L20.016,28.678z"/>
	<polygon style="fill:#C19F79;stroke:#070707;stroke-width:0.5;" points="33.104,15.459 34.406,19.223 21.238,32.973 20.201,28.719 
			"/>
	<g>
		<path style="fill:#070707;" d="M20.772,15.169l-2.315,2.283l1.266,1.8l-2.087,2.057L10.433,9.931l2.241-2.211l12.164,6.487
			L22.7,16.313L20.772,15.169z M18.238,13.66l-4.201-2.496l2.757,3.921L18.238,13.66z"/>
	</g>
	
		<linearGradient id="XMLID_5_" gradientUnits="userSpaceOnUse" x1="77.873" y1="103.6685" x2="78.4355" y2="108.0433" gradientTransform="matrix(0.8204 -0.5718 0.5718 0.8204 -97.6892 -18.2285)">
		<stop  offset="0" style="stop-color:#FFFFFF"/>
		<stop  offset="0.1241" style="stop-color:#F3F0ED"/>
		<stop  offset="0.3063" style="stop-color:#E0D9D0"/>
		<stop  offset="0.5241" style="stop-color:#C4B7A8"/>
		<stop  offset="0.7675" style="stop-color:#A28F78"/>
		<stop  offset="0.9775" style="stop-color:#836D52"/>
	</linearGradient>
	<polygon style="fill:url(#XMLID_5_);" points="33.002,15.537 34.283,19.241 21.324,32.772 20.305,28.586 	"/>
	<linearGradient id="XMLID_6_" gradientUnits="userSpaceOnUse" x1="22.6445" y1="7.2656" x2="12.1441" y2="20.5997">
		<stop  offset="0" style="stop-color:#FFFFFF"/>
		<stop  offset="0.12" style="stop-color:#F7F2EA"/>
		<stop  offset="0.5037" style="stop-color:#EBDBC1"/>
		<stop  offset="0.8024" style="stop-color:#E3CCA9"/>
		<stop  offset="0.9775" style="stop-color:#E0C7A0"/>
	</linearGradient>
	<polygon style="fill:url(#XMLID_6_);stroke:#000000;stroke-width:0.5;" points="32.887,15.076 19.947,28.209 1.165,13.724 
		13.203,0.608 	"/>
	<g>
		<path style="fill:#070707;" d="M20.211,14.829l-2.117,2.09l1.156,1.648l-1.909,1.883l-6.592-10.414l2.052-2.023l11.131,5.937
			l-1.957,1.929L20.211,14.829z M17.893,13.449l-3.846-2.284l2.523,3.588L17.893,13.449z"/>
	</g>
	
		<rect x="26.152" y="23.072" transform="matrix(0.6365 -0.7713 0.7713 0.6365 -9.792 30.8125)" style="fill:#E33731;" width="3.282" height="5.445"/>
</g>
</svg>
